<svg width="48" height="48" viewBox="0 0 48 48" fill="none" xmlns="http://www.w3.org/2000/svg">
<path d="M20.35 32.25C20.05 32.25 19.85 32.15 19.65 31.95L6.55 18.85C3.15 15.45 3.15 9.95 6.55 6.55C9.95 3.15 15.45 3.15 18.85 6.55L21.05 8.75C21.45 9.15 21.45 9.75 21.05 10.15C20.65 10.55 20.05 10.55 19.65 10.15L17.45 8.05C14.85 5.35 10.65 5.35 8.05 8.05C5.45 10.65 5.45 14.85 8.05 17.45L21.05 30.55C21.45 30.95 21.45 31.55 21.05 31.95C20.85 32.15 20.65 32.25 20.35 32.25Z" fill="#FDDA24"/>
<path d="M35.35 44.0516C33.15 44.0516 30.95 43.2516 29.25 41.5516L27.05 39.2516C26.65 38.8516 26.65 38.2516 27.05 37.8516C27.45 37.4516 28.05 37.4516 28.45 37.8516L30.65 40.0516C33.25 42.6516 37.45 42.6516 40.05 40.0516C42.65 37.4516 42.65 33.2516 40.05 30.6516L27.05 17.5516C26.65 17.1516 26.65 16.5516 27.05 16.1516C27.45 15.7516 28.05 15.7516 28.45 16.1516L41.55 29.2516C44.95 32.6516 44.95 38.1516 41.55 41.5516C39.85 43.1516 37.55 44.0516 35.35 44.0516Z" fill="#9063CD"/>
<path d="M16.8516 21.35C16.5516 21.35 16.3516 21.25 16.1516 21.05C15.7516 20.65 15.7516 20.05 16.1516 19.65L29.2516 6.55C32.6516 3.15 38.1516 3.15 41.5516 6.55C44.9516 9.95 44.9516 15.45 41.5516 18.85L39.3516 21.05C38.9516 21.45 38.3516 21.45 37.9516 21.05C37.5516 20.65 37.5516 20.05 37.9516 19.65L40.1516 17.45C42.7516 14.85 42.7516 10.65 40.1516 8.05C37.5516 5.45 33.3516 5.45 30.7516 8.05L17.5516 21.05C17.3516 21.25 17.1516 21.35 16.8516 21.35Z" fill="#00C389"/>
<path d="M12.7508 44.05C10.5508 44.05 8.35078 43.25 6.65078 41.55C4.95078 39.85 4.05078 37.65 4.05078 35.35C4.05078 33.05 4.95078 30.85 6.55078 29.25L8.75078 27.05C9.15078 26.65 9.75078 26.65 10.1508 27.05C10.5508 27.45 10.5508 28.05 10.1508 28.45L8.05078 30.65C6.75078 31.95 6.05078 33.55 6.05078 35.35C6.05078 37.15 6.75078 38.85 8.05078 40.05C10.6508 42.65 14.8508 42.65 17.4508 40.05L30.5508 27.05C30.9508 26.65 31.5508 26.65 31.9508 27.05C32.3508 27.45 32.3508 28.05 31.9508 28.45L18.8508 41.55C17.1508 43.15 14.9508 44.05 12.7508 44.05Z" fill="#FF7F41"/>
</svg>
