<svg width="48" height="48" viewBox="0 0 48 48" fill="none" xmlns="http://www.w3.org/2000/svg">
<path fill-rule="evenodd" clip-rule="evenodd" d="M11.5547 8C12.107 8 12.5547 8.44772 12.5547 9V41C12.5547 41.5523 12.107 42 11.5547 42C11.0024 42 10.5547 41.5523 10.5547 41V9C10.5547 8.44772 11.0024 8 11.5547 8Z" fill="#00C389"/>
<path fill-rule="evenodd" clip-rule="evenodd" d="M17.5547 20C18.107 20 18.5547 20.4477 18.5547 21V41C18.5547 41.5523 18.107 42 17.5547 42C17.0024 42 16.5547 41.5523 16.5547 41V21C16.5547 20.4477 17.0024 20 17.5547 20Z" fill="#00C389"/>
<path fill-rule="evenodd" clip-rule="evenodd" d="M16.5547 21C16.5547 20.4477 17.0024 20 17.5547 20H29.5547C30.107 20 30.5547 20.4477 30.5547 21V41C30.5547 41.5523 30.107 42 29.5547 42C29.0024 42 28.5547 41.5523 28.5547 41V22H17.5547C17.0024 22 16.5547 21.5523 16.5547 21Z" fill="#F5B6CD"/>
<path fill-rule="evenodd" clip-rule="evenodd" d="M10.5547 9C10.5547 8.44772 11.0024 8 11.5547 8H35.5547C36.107 8 36.5547 8.44772 36.5547 9V38.9111C36.5547 39.4634 36.107 39.9111 35.5547 39.9111C35.0024 39.9111 34.5547 39.4634 34.5547 38.9111V10H11.5547C11.0024 10 10.5547 9.55228 10.5547 9Z" fill="#00CCEA"/>
<path fill-rule="evenodd" clip-rule="evenodd" d="M20.5547 17C20.5547 16.4477 21.0024 16 21.5547 16H25.5547C26.107 16 26.5547 16.4477 26.5547 17C26.5547 17.5523 26.107 18 25.5547 18H21.5547C21.0024 18 20.5547 17.5523 20.5547 17Z" fill="#00C389"/>
<path d="M25.5547 32C26.107 32 26.5547 31.5523 26.5547 31C26.5547 30.4477 26.107 30 25.5547 30C25.0024 30 24.5547 30.4477 24.5547 31C24.5547 31.5523 25.0024 32 25.5547 32Z" fill="#F5B6CD"/>
<path fill-rule="evenodd" clip-rule="evenodd" d="M35.5547 20C36.107 20 36.5547 20.4477 36.5547 21V41C36.5547 41.5523 36.107 42 35.5547 42C35.0024 42 34.5547 41.5523 34.5547 41V21C34.5547 20.4477 35.0024 20 35.5547 20Z" fill="#FDDA24"/>
<path fill-rule="evenodd" clip-rule="evenodd" d="M35.5547 37.1992C36.107 37.1992 36.5547 37.6469 36.5547 38.1992V40.9992C36.5547 41.5515 36.107 41.9992 35.5547 41.9992H11.5547C11.0024 41.9992 10.5547 41.5515 10.5547 40.9992C10.5547 40.4469 11.0024 39.9992 11.5547 39.9992H34.5547V38.1992C34.5547 37.6469 35.0024 37.1992 35.5547 37.1992Z" fill="#9063CD"/>
</svg>
