<svg width="48" height="48" viewBox="0 0 48 48" fill="none" xmlns="http://www.w3.org/2000/svg">
<path fill-rule="evenodd" clip-rule="evenodd" d="M18.8476 6.29289C19.0351 6.10536 19.2895 6 19.5547 6H35.5547C36.107 6 36.5547 6.44772 36.5547 7V39C36.5547 39.5523 36.107 40 35.5547 40C35.0024 40 34.5547 39.5523 34.5547 39V8H19.9689L16.2618 11.7071C16.0743 11.8946 15.8199 12 15.5547 12H12.5547V29C12.5547 29.5523 12.107 30 11.5547 30C11.0024 30 10.5547 29.5523 10.5547 29V11C10.5547 10.4477 11.0024 10 11.5547 10H15.1405L18.8476 6.29289Z" fill="#00CCEA"/>
<path fill-rule="evenodd" clip-rule="evenodd" d="M35.5547 20C36.107 20 36.5547 20.4477 36.5547 21V41C36.5547 41.5523 36.107 42 35.5547 42C35.0024 42 34.5547 41.5523 34.5547 41V21C34.5547 20.4477 35.0024 20 35.5547 20Z" fill="#FF7F41"/>
<path fill-rule="evenodd" clip-rule="evenodd" d="M18.5547 29C18.5547 28.4477 19.0024 28 19.5547 28H27.5547C28.107 28 28.5547 28.4477 28.5547 29V41C28.5547 41.5523 28.107 42 27.5547 42C27.0024 42 26.5547 41.5523 26.5547 41V30H20.5547V41C20.5547 41.5523 20.107 42 19.5547 42C19.0024 42 18.5547 41.5523 18.5547 41V29Z" fill="#00C389"/>
<path fill-rule="evenodd" clip-rule="evenodd" d="M11.5547 28C12.107 28 12.5547 28.4477 12.5547 29V40H34.5547V39C34.5547 38.4477 35.0024 38 35.5547 38C36.107 38 36.5547 38.4477 36.5547 39V41C36.5547 41.5523 36.107 42 35.5547 42H11.5547C11.0024 42 10.5547 41.5523 10.5547 41V29C10.5547 28.4477 11.0024 28 11.5547 28Z" fill="#9063CD"/>
<path fill-rule="evenodd" clip-rule="evenodd" d="M10.5547 17C10.5547 16.4477 11.0024 16 11.5547 16H35.5547C36.107 16 36.5547 16.4477 36.5547 17C36.5547 17.5523 36.107 18 35.5547 18H11.5547C11.0024 18 10.5547 17.5523 10.5547 17Z" fill="#F5B6CD"/>
<path fill-rule="evenodd" clip-rule="evenodd" d="M11.5547 11C11.5547 10.4477 12.0024 10 12.5547 10H34.5547C35.107 10 35.5547 10.4477 35.5547 11C35.5547 11.5523 35.107 12 34.5547 12H12.5547C12.0024 12 11.5547 11.5523 11.5547 11Z" fill="#00CCEA"/>
<path fill-rule="evenodd" clip-rule="evenodd" d="M10.5547 23C10.5547 22.4477 11.0024 22 11.5547 22H35.5547C36.107 22 36.5547 22.4477 36.5547 23C36.5547 23.5523 36.107 24 35.5547 24H11.5547C11.0024 24 10.5547 23.5523 10.5547 23Z" fill="#F5B6CD"/>
<path fill-rule="evenodd" clip-rule="evenodd" d="M10.5547 29C10.5547 28.4477 11.0024 28 11.5547 28H35.488C36.0403 28 36.488 28.4477 36.488 29C36.488 29.5523 36.0403 30 35.488 30H11.5547C11.0024 30 10.5547 29.5523 10.5547 29Z" fill="#00C389"/>
</svg>
