<svg width="121" height="121" viewBox="0 0 121 121" fill="none" xmlns="http://www.w3.org/2000/svg">
<path fill-rule="evenodd" clip-rule="evenodd" d="M45.5 28.167C45.5 26.7863 46.6193 25.667 48 25.667H58C59.3807 25.667 60.5 26.7863 60.5 28.167C60.5 29.5477 59.3807 30.667 58 30.667H48C46.6193 30.667 45.5 29.5477 45.5 28.167Z" fill="#F5B6CD"/>
<path fill-rule="evenodd" clip-rule="evenodd" d="M53 85.667C51.6193 85.667 50.5 86.7863 50.5 88.167C50.5 89.5477 51.6193 90.667 53 90.667C54.3807 90.667 55.5 89.5477 55.5 88.167C55.5 86.7863 54.3807 85.667 53 85.667ZM45.5 88.167C45.5 84.0249 48.8579 80.667 53 80.667C57.1421 80.667 60.5 84.0249 60.5 88.167C60.5 92.3091 57.1421 95.667 53 95.667C48.8579 95.667 45.5 92.3091 45.5 88.167Z" fill="#F5B6CD"/>
<path fill-rule="evenodd" clip-rule="evenodd" d="M35.5 20.667C32.7307 20.667 30.5 22.8977 30.5 25.667V95.667C30.5 98.4363 32.7307 100.667 35.5 100.667C36.8807 100.667 38 101.786 38 103.167C38 104.548 36.8807 105.667 35.5 105.667C29.9693 105.667 25.5 101.198 25.5 95.667V25.667C25.5 20.1363 29.9693 15.667 35.5 15.667H70.5C76.0307 15.667 80.5 20.1363 80.5 25.667V28.817C80.5 30.1977 79.3807 31.317 78 31.317C76.6193 31.317 75.5 30.1977 75.5 28.817V25.667C75.5 22.8977 73.2693 20.667 70.5 20.667H35.5Z" fill="#9063CD"/>
<path fill-rule="evenodd" clip-rule="evenodd" d="M78 65.0197C79.3807 65.0197 80.5 66.139 80.5 67.5197V95.6697C80.5 101.2 76.0307 105.67 70.5 105.67H35.5C34.1193 105.67 33 104.55 33 103.17C33 101.789 34.1193 100.67 35.5 100.67H70.5C73.2693 100.67 75.5 98.439 75.5 95.6697V67.5197C75.5 66.139 76.6193 65.0197 78 65.0197Z" fill="#FF7F37"/>
<path fill-rule="evenodd" clip-rule="evenodd" d="M93.5536 31.0012C94.4168 29.9237 95.9902 29.7499 97.0677 30.6132C100.705 33.5267 103.347 37.4976 104.629 41.9775C105.912 46.4574 105.772 51.225 104.228 55.6218C102.684 60.0185 99.813 63.8273 96.0113 66.5219C92.21 69.2162 87.6659 70.6636 83.0066 70.6643C80.0506 70.6694 77.1227 70.0906 74.3909 68.9612C71.6584 67.8315 69.1759 66.1731 67.0861 64.0812C66.1102 63.1044 66.111 61.5215 67.0878 60.5457C68.0645 59.5698 69.6475 59.5706 70.6233 60.5474C72.2477 62.1733 74.1773 63.4624 76.3013 64.3405C78.4252 65.2186 80.7018 65.6685 83.0001 65.6643L83.0045 65.6643C86.6286 65.6641 90.1632 64.5383 93.12 62.4426C96.0767 60.347 98.3097 57.3848 99.5103 53.9653C100.711 50.5458 100.82 46.8379 99.8225 43.3538C98.825 39.8696 96.77 36.7813 93.9416 34.5154C92.864 33.6522 92.6903 32.0788 93.5536 31.0012ZM83.0066 70.6643C83.006 70.6643 83.0054 70.6643 83.0048 70.6643L83.0047 68.1643L83.0092 70.6643C83.0084 70.6643 83.0075 70.6643 83.0066 70.6643Z" fill="#00CCEA"/>
<path d="M68.188 38.8474C68.7162 38.0081 69.3125 37.2188 69.969 36.4865L73.2607 27.8858L63.9562 36.1843L60.5 48.1632L67.0701 64.069L65.8375 51.5828C65.6162 50.4753 65.5 49.3319 65.5 48.1635C65.5004 44.8669 66.4322 41.6375 68.188 38.8474Z" fill="#FDDA24"/>
<path d="M70.6055 64.0934C71.5886 63.1238 71.5995 61.5409 70.6299 60.5579C68.2336 58.1283 66.5263 55.0289 65.8375 51.5828L67.0701 64.069C68.0396 65.052 69.6225 65.0629 70.6055 64.0934Z" fill="#FDDA24"/>
<path d="M60.5 48.1632C60.5 54.359 63.0366 59.9795 67.0701 64.069L60.5 48.1632Z" fill="#FDDA24"/>
<path d="M63.9562 36.1843C61.6985 39.7719 60.5004 43.9244 60.5 48.1632L63.9562 36.1843Z" fill="#FDDA24"/>
<path d="M73.2607 27.8858C69.4393 29.7201 66.2139 32.5967 63.9562 36.1843L73.2607 27.8858Z" fill="#FDDA24"/>
<path d="M85.5554 25.8167C81.3441 25.3343 77.0821 26.0515 73.2607 27.8858L69.969 36.4865C71.495 34.7846 73.3464 33.3908 75.4244 32.3934C78.3964 30.9668 81.711 30.409 84.9863 30.7842C88.2615 31.1595 91.3641 32.4524 93.9365 34.5142C95.0139 35.3777 96.5872 35.2043 97.4507 34.127C98.3143 33.0496 98.1409 31.4762 97.0635 30.6127C93.7559 27.9617 89.7667 26.2992 85.5554 25.8167Z" fill="#FDDA24"/>
<path fill-rule="evenodd" clip-rule="evenodd" d="M92.2678 41.3992C93.2441 42.3755 93.2441 43.9584 92.2678 44.9348L82.2678 54.9348C81.2915 55.9111 79.7085 55.9111 78.7322 54.9348L73.7322 49.9348C72.7559 48.9584 72.7559 47.3755 73.7322 46.3992C74.7085 45.4229 76.2915 45.4229 77.2678 46.3992L80.5 49.6315L88.7322 41.3992C89.7085 40.4229 91.2915 40.4229 92.2678 41.3992Z" fill="#00C389"/>
</svg>
