<svg width="48" height="48" viewBox="0 0 48 48" fill="none" xmlns="http://www.w3.org/2000/svg">
<path fill-rule="evenodd" clip-rule="evenodd" d="M28.1691 5.96726C28.4763 5.50831 29.0974 5.38532 29.5564 5.69255C32.2419 7.49027 34.0001 10.5359 34.0001 14.0035V20.0035C34.0001 20.5558 33.5524 21.0035 33.0001 21.0035C32.4478 21.0035 32.0001 20.5558 32.0001 20.0035V14.0035C32.0001 11.2312 30.5983 8.79681 28.4438 7.35453C27.9849 7.04731 27.8619 6.4262 28.1691 5.96726Z" fill="#00CCEA"/>
<path fill-rule="evenodd" clip-rule="evenodd" d="M24 6C19.5723 6 16 9.57228 16 14V20C16 20.5523 15.5523 21 15 21C14.4477 21 14 20.5523 14 20V14C14 8.46772 18.4677 4 24 4C26.0637 4 27.9781 4.62205 29.5601 5.69156C30.0176 6.00088 30.1378 6.62254 29.8284 7.08007C29.5191 7.53761 28.8975 7.65776 28.4399 7.34844C27.1819 6.49795 25.6563 6 24 6Z" fill="#FDDA24"/>
<path fill-rule="evenodd" clip-rule="evenodd" d="M18.2929 24.2929C18.6834 23.9024 19.3166 23.9024 19.7071 24.2929L24 28.5858L28.2929 24.2929C28.6834 23.9024 29.3166 23.9024 29.7071 24.2929C30.0976 24.6834 30.0976 25.3166 29.7071 25.7071L25.4142 30L29.7071 34.2929C30.0976 34.6834 30.0976 35.3166 29.7071 35.7071C29.3166 36.0976 28.6834 36.0976 28.2929 35.7071L24 31.4142L19.7071 35.7071C19.3166 36.0976 18.6834 36.0976 18.2929 35.7071C17.9024 35.3166 17.9024 34.6834 18.2929 34.2929L22.5858 30L18.2929 25.7071C17.9024 25.3166 17.9024 24.6834 18.2929 24.2929Z" fill="#FF7F37"/>
<path fill-rule="evenodd" clip-rule="evenodd" d="M20 21C20 20.4477 20.4477 20 21 20H37C37.5523 20 38 20.4477 38 21V30C38 32.3223 37.4405 34.521 36.4264 36.4629C36.1708 36.9525 35.5666 37.1421 35.0771 36.8864C34.5875 36.6308 34.3979 36.0266 34.6536 35.5371C35.5195 33.879 36 31.9977 36 30V22H21C20.4477 22 20 21.5523 20 21Z" fill="#00C389"/>
<path fill-rule="evenodd" clip-rule="evenodd" d="M36.0041 35.1133C36.4939 35.3684 36.6842 35.9722 36.4291 36.4621C35.3781 38.4803 33.8512 40.212 31.9804 41.5073C30.1096 42.8027 27.9513 43.6226 25.6924 43.8963C23.4334 44.1699 21.1418 43.8889 19.0158 43.0777C16.8899 42.2665 14.9936 40.9494 13.4912 39.2405C13.1265 38.8257 13.1671 38.1939 13.5819 37.8292C13.9967 37.4645 14.6286 37.5051 14.9932 37.9199C16.2811 39.3848 17.9065 40.5137 19.7289 41.2091C21.5512 41.9045 23.5155 42.1453 25.4519 41.9108C27.3882 41.6762 29.2382 40.9734 30.8419 39.863C32.4455 38.7527 33.7544 37.2683 34.6553 35.5383C34.9104 35.0485 35.5142 34.8582 36.0041 35.1133Z" fill="#F5B6CD"/>
<path fill-rule="evenodd" clip-rule="evenodd" d="M10 21C10 20.4477 10.4477 20 11 20H21C21.5523 20 22 20.4477 22 21C22 21.5523 21.5523 22 21 22H12V30C12 33.0292 13.1262 35.8149 14.9885 37.9169C15.3547 38.3302 15.3165 38.9623 14.9031 39.3285C14.4898 39.6947 13.8577 39.6565 13.4915 39.2431C11.3138 36.7851 10 33.5308 10 30V21Z" fill="#9063CD"/>
</svg>
