<svg width="48" height="48" viewBox="0 0 48 48" fill="none" xmlns="http://www.w3.org/2000/svg">
<path fill-rule="evenodd" clip-rule="evenodd" d="M19 29C19 28.4477 19.4477 28 20 28H28C28.5523 28 29 28.4477 29 29V41C29 41.5523 28.5523 42 28 42C27.4477 42 27 41.5523 27 41V30H21V41C21 41.5523 20.5523 42 20 42C19.4477 42 19 41.5523 19 41V29Z" fill="#00C389"/>
<path fill-rule="evenodd" clip-rule="evenodd" d="M20 28C20.5523 28 21 28.4477 21 29V40C21 40.5523 20.5523 41 20 41C19.4477 41 19 40.5523 19 40V29C19 28.4477 19.4477 28 20 28Z" fill="#00C389"/>
<path fill-rule="evenodd" clip-rule="evenodd" d="M36 10C36.5523 10 37 10.4477 37 11V24C37 24.5523 36.5523 25 36 25C35.4477 25 35 24.5523 35 24V11C35 10.4477 35.4477 10 36 10Z" fill="#FDDA24"/>
<path fill-rule="evenodd" clip-rule="evenodd" d="M37 11C37 11.5523 36.5523 12 36 12L31 12C30.4477 12 30 11.5523 30 11C30 10.4477 30.4477 10 31 10L36 10C36.5523 10 37 10.4477 37 11Z" fill="#59CBE8"/>
<path fill-rule="evenodd" clip-rule="evenodd" d="M31 10C31.5523 10 32 10.4477 32 11V16C32 16.5523 31.5523 17 31 17C30.4477 17 30 16.5523 30 16V11C30 10.4477 30.4477 10 31 10Z" fill="#59CBE8"/>
<path fill-rule="evenodd" clip-rule="evenodd" d="M23.2929 8.29289C23.6834 7.90237 24.3166 7.90237 24.7071 8.29289L36.7071 20.2929C36.8946 20.4804 37 20.7348 37 21V23C37 23.5523 36.5523 24 36 24C35.4477 24 35 23.5523 35 23V21.4142L23.2929 9.70711C22.9024 9.31658 22.9024 8.68342 23.2929 8.29289Z" fill="#F5B6CD"/>
<path fill-rule="evenodd" clip-rule="evenodd" d="M36 20C36.5523 20 37 20.4477 37 21V39C37 39.5523 36.5523 40 36 40C35.4477 40 35 39.5523 35 39V21C35 20.4477 35.4477 20 36 20Z" fill="#FF7F41"/>
<path fill-rule="evenodd" clip-rule="evenodd" d="M24.7071 8.29289C25.0976 8.68342 25.0976 9.31658 24.7071 9.70711L13 21.4142V39C13 39.5523 12.5523 40 12 40C11.4477 40 11 39.5523 11 39V21C11 20.7348 11.1054 20.4804 11.2929 20.2929L23.2929 8.29289C23.6834 7.90237 24.3166 7.90237 24.7071 8.29289Z" fill="#00CCEA"/>
<path fill-rule="evenodd" clip-rule="evenodd" d="M12 38C12.5523 38 13 38.4477 13 39C13 39.3728 13.1199 39.6057 13.2571 39.7429C13.3943 39.8801 13.6272 40 14 40H34C34.3728 40 34.6057 39.8801 34.7429 39.7429C34.8801 39.6057 35 39.3728 35 39C35 38.4477 35.4477 38 36 38C36.5523 38 37 38.4477 37 39C37 39.8272 36.7199 40.5943 36.1571 41.1571C35.5943 41.7199 34.8272 42 34 42H14C13.1728 42 12.4057 41.7199 11.8429 41.1571C11.2801 40.5943 11 39.8272 11 39C11 38.4477 11.4477 38 12 38Z" fill="#9063CD"/>
</svg>
