<svg fill="none" height="624" viewBox="0 0 624 624" width="624" xmlns="http://www.w3.org/2000/svg"><g clip-rule="evenodd" fill-rule="evenodd"><path d="m239.812 384.188c5.077 5.077 5.077 13.308 0 18.385l-113.62 113.62c-5.076 5.076-13.308 5.076-18.384 0-5.077-5.077-5.077-13.308 0-18.385l113.62-113.62c5.076-5.077 13.308-5.077 18.384 0z" fill="#f5b6cd"/><path d="m386.195 237.808c5.077 5.076 5.077 13.308 0 18.384l-146.38 146.38c-5.076 5.077-13.308 5.077-18.384 0-5.077-5.076-5.077-13.308 0-18.384l146.38-146.38c5.076-5.077 13.308-5.077 18.384 0z" fill="#9063cd"/><path d="m516.192 107.808c5.077 5.076 5.077 13.308 0 18.384l-130 130c-5.076 5.077-13.308 5.077-18.384 0-5.077-5.076-5.077-13.308 0-18.384l130-130c5.076-5.077 13.308-5.077 18.384 0z" fill="#00ccea"/><path d="m107.808 107.808c5.076-5.077 13.308-5.077 18.384 0l108.42 108.42c5.077 5.076 5.077 13.308 0 18.384-5.076 5.077-13.308 5.077-18.384 0l-108.42-108.42c-5.077-5.076-5.077-13.308 0-18.384z" fill="#00c389"/><path d="m216.226 216.228c5.076-5.077 13.308-5.077 18.384 0l177.58 177.58c5.077 5.077 5.077 13.308 0 18.385-5.076 5.077-13.308 5.077-18.384 0l-177.58-177.58c-5.077-5.077-5.077-13.308 0-18.385z" fill="#ff7f37"/><path d="m393.808 393.808c5.076-5.077 13.308-5.077 18.384 0l104 104c5.077 5.076 5.077 13.308 0 18.384-5.076 5.077-13.308 5.077-18.384 0l-104-104c-5.077-5.076-5.077-13.308 0-18.384z" fill="#fdda24"/></g></svg>