<svg fill="none" height="626" viewBox="0 0 622 626" width="622" xmlns="http://www.w3.org/2000/svg"><g clip-rule="evenodd" fill-rule="evenodd"><path d="m89.1816 560.067c0-8.283 6.6719-14.998 14.9024-14.998h413.83c8.231 0 14.902 6.715 14.902 14.998s-6.671 14.998-14.902 14.998h-413.83c-8.2305 0-14.9024-6.715-14.9024-14.998z" fill="#59cbe8"/><path d="m104.084 255.979c8.23 0 14.902 6.715 14.902 14.998v289.09c0 8.283-6.672 14.998-14.902 14.998-8.2305 0-14.9024-6.715-14.9024-14.998v-289.09c0-8.283 6.6719-14.998 14.9024-14.998z" fill="#9063cd"/><path d="m321.936 68.0629c5.59 6.0792 5.225 15.5682-.815 21.1944l-206.915 192.7267c-6.041 5.626-15.469 5.259-21.0592-.82s-5.2253-15.568.815-21.195l206.9152-192.7264c6.041-5.6262 15.469-5.2589 21.059.8203z" fill="#fdda24"/><path d="m300.063 68.0629c5.59-6.0792 15.018-6.4465 21.059-.8203l206.915 192.7264c6.04 5.627 6.405 15.116.815 21.195s-15.018 6.446-21.059.82l-206.915-192.7267c-6.04-5.6262-6.405-15.1152-.815-21.1944z" fill="#f5b6cd"/><path d="m517.914 255.979c8.23 0 14.902 6.715 14.902 14.998v289.09c0 8.283-6.672 14.998-14.902 14.998s-14.902-6.715-14.902-14.998v-289.09c0-8.283 6.672-14.998 14.902-14.998z" fill="#00c389"/><path d="m367.519 335.359c16.061 13.293 26.529 33.204 26.646 58.593.194 41.84.371 83.354.499 114.408l.209 51.648-14.902.059c-14.902.059-14.902.058-14.902.058l-.209-51.641c-.128-31.05-.305-72.559-.498-114.392-.076-16.446-6.543-27.925-15.774-35.565-9.576-7.926-22.899-12.292-36.823-12.297-13.924-.004-27.205 4.352-36.718 12.254-9.161 7.609-15.573 19.065-15.572 35.537.004 42.024-.635 83.646-1.273 114.746-.32 15.555-.639 28.488-.879 37.535-.12 4.524-.22 8.078-.29 10.502l-.111 3.73c0 .001 0 .001-14.895-.467l-14.895-.468.109-3.667c.07-2.402.169-5.931.288-10.43.239-8.997.557-21.869.875-37.355.636-30.98 1.271-72.38 1.267-114.123-.002-25.411 10.372-45.357 26.404-58.674 15.681-13.026 36-19.122 55.701-19.115 19.702.007 40.028 6.118 55.743 19.124zm-125.957 239.699c-8.226-.259-14.686-7.18-14.43-15.459l14.895.468 14.895.467c-.257 8.279-7.134 14.782-15.36 14.524zm138.467.007c-8.23.032-14.928-6.657-14.96-14.94l14.902-.058 14.902-.059c.032 8.283-6.614 15.025-14.844 15.057z" fill="#ff7f41"/></g></svg>