<svg width="48" height="48" viewBox="0 0 48 48" fill="none" xmlns="http://www.w3.org/2000/svg">
<path d="M30.9997 37C26.5797 37 22.9997 33.42 22.9997 29V25M11.6797 13.68C17.9197 7.44 28.0597 7.44 34.2997 13.68" stroke="#FDDA24" stroke-width="2" stroke-miterlimit="10" stroke-linecap="round" stroke-linejoin="round"/>
<path d="M15 31V25C15 20.58 18.58 17 23 17C27.42 17 31 20.58 31 25V29" stroke="#00C389" stroke-width="2" stroke-miterlimit="10" stroke-linecap="round" stroke-linejoin="round"/>
<path d="M19 13.68C14.34 15.32 11 19.78 11 25V37M35 25C35 18.38 29.62 13 23 13" stroke="#00CCEA" stroke-width="2" stroke-miterlimit="10" stroke-linecap="round" stroke-linejoin="round"/>
<path d="M19 25C19 22.8 20.8 21 23 21C25.2 21 27 22.8 27 25V29C27 31.2 28.8 33 31 33C33.2 33 35 31.2 35 29" stroke="#F5B6CD" stroke-width="2" stroke-miterlimit="10" stroke-linecap="round" stroke-linejoin="round"/>
<path d="M5 11V8C5 6.34 6.34 5 8 5H11M19 37V29V37Z" stroke="#9063CD" stroke-width="2" stroke-miterlimit="10" stroke-linecap="round" stroke-linejoin="round"/>
<path d="M35 5H38C39.66 5 41 6.34 41 8V11" stroke="#FF7F37" stroke-width="2" stroke-miterlimit="10" stroke-linecap="round" stroke-linejoin="round"/>
<path d="M41 37V40C41 41.66 39.66 43 38 43H35" stroke="#9063CD" stroke-width="2" stroke-miterlimit="10" stroke-linecap="round" stroke-linejoin="round"/>
<path d="M11 43H8C6.34 43 5 41.66 5 40V37" stroke="#FF7F37" stroke-width="2" stroke-miterlimit="10" stroke-linecap="round" stroke-linejoin="round"/>
<path d="M15 37V35" stroke="#9063CD" stroke-width="2" stroke-miterlimit="10" stroke-linecap="round" stroke-linejoin="round"/>
</svg>
