<svg width="25" height="25" viewBox="0 0 25 25" fill="none" xmlns="http://www.w3.org/2000/svg">
<path fill-rule="evenodd" clip-rule="evenodd" d="M14.3418 13.5091H13.3418V9.50909V5.50909V4.50909C13.3418 3.95809 12.8928 3.50909 12.3418 3.50909C11.7908 3.50909 11.3418 3.95809 11.3418 4.50909V5.50909V13.5091H10.3418V5.50909C10.3418 4.95809 9.8928 4.50909 9.3418 4.50909C8.7908 4.50909 8.3418 4.95809 8.3418 5.50909V9.275C8.95521 9.82472 9.3418 10.6227 9.3418 11.5091V13.5371C11.5888 13.7861 13.3418 15.6971 13.3418 18.0091V18.5091H12.3418V18.0091C12.3418 16.0791 10.7718 14.5091 8.8418 14.5091H8.3418V11.5091C8.3418 10.4061 7.4448 9.50909 6.3418 9.50909V15.5091C6.3418 18.8181 9.0328 21.5091 12.3418 21.5091H13.3418C16.6508 21.5091 19.3418 18.8181 19.3418 15.5091V8.50909C19.3418 7.95809 18.8928 7.50909 18.3418 7.50909C17.7908 7.50909 17.3418 7.95809 17.3418 8.50909V9.50909V13.5091H16.3418V9.50909V8.50909V5.50909C16.3418 4.95809 15.8928 4.50909 15.3418 4.50909C14.7908 4.50909 14.3418 4.95809 14.3418 5.50909V9.50909V13.5091ZM7.3418 8.6805C7.02887 8.56952 6.69225 8.50909 6.3418 8.50909H5.3418V15.5091C5.3418 19.3691 8.4818 22.5091 12.3418 22.5091H13.3418C17.2018 22.5091 20.3418 19.3691 20.3418 15.5091V8.50909C20.3418 7.40609 19.4448 6.50909 18.3418 6.50909C17.9777 6.50909 17.6361 6.60681 17.3418 6.77741V5.50909C17.3418 4.40609 16.4448 3.50909 15.3418 3.50909C14.9304 3.50909 14.5477 3.63388 14.2294 3.8476C13.9558 3.06879 13.2131 2.50909 12.3418 2.50909C11.4705 2.50909 10.7278 3.06879 10.4542 3.8476C10.1359 3.63388 9.75319 3.50909 9.3418 3.50909C8.2388 3.50909 7.3418 4.40609 7.3418 5.50909V8.6805Z" fill="#2C2A29"/>
</svg>
