<svg fill="none" height="624" viewBox="0 0 626 624" width="626" xmlns="http://www.w3.org/2000/svg"><g clip-rule="evenodd" fill-rule="evenodd"><path d="m341.126 106.848c-84.599-17.5293-158.541 46.051-158.541 127.152 0 34.786 13.511 66.163 35.756 89.281 4.986 5.181 4.814 13.411-.384 18.381s-13.454 4.798-18.439-.383c-26.792-27.843-43.016-65.626-43.016-107.279 0-97.26 88.818-173.5591 189.932-152.6081 7.052 1.4612 11.581 8.3442 10.115 15.3736-1.466 7.0295-8.371 11.5435-15.423 10.0825z" fill="#00c389"/><path d="m430.072 317.796c5.432 4.715 6.001 12.926 1.271 18.341-4.142 4.742-8.261 9.249-11.971 13.307-2.17 2.374-4.2 4.595-6.012 6.62-5.178 5.784-9.23 10.666-12.44 15.598-6.009 9.23-9.669 19.518-9.669 37.318v20.02c0 7.18-5.839 13-13.042 13h-130.416c-7.203 0-13.042-5.82-13.042-13v-20.28c0-17.185-2.866-27.048-7.862-35.549-5.026-8.551-12.422-16.275-24.054-28.423-1.08-1.128-2.196-2.294-3.351-3.502-4.967-5.199-4.766-13.428.45-18.38 5.216-4.951 13.471-4.75 18.438.449 1.278 1.337 2.541 2.653 3.788 3.951 10.94 11.395 20.574 21.429 27.235 32.763 7.915 13.469 11.439 28.176 11.439 48.691v7.28h104.334v-7.02c0-22.239 4.817-37.562 13.871-51.471 4.322-6.639 9.447-12.709 14.858-18.754 2.205-2.464 4.382-4.843 6.606-7.275 3.504-3.83 7.128-7.79 11.169-12.416 4.729-5.415 12.967-5.983 18.4-1.268z" fill="#f5b6cd"/><path d="m331.007 91.4901c1.457-7.0312 8.356-11.5537 15.41-10.1013 60.827 12.5251 108.858 62.1772 120.251 122.6522l.008.042c9.354 50.58-5.698 97.685-35.279 131.991-4.694 5.445-12.929 6.065-18.391 1.385s-6.084-12.888-1.389-18.333c24.668-28.609 37.264-67.815 29.412-110.307-9.481-50.277-49.608-91.614-99.889-101.968-7.053-1.452-11.59-8.3296-10.133-15.3609z" fill="#fdda24"/><path d="m312.999 156c-43.138 0-78.25 35-78.25 78 0 7.18-5.839 13-13.041 13-7.203 0-13.042-5.82-13.042-13 0-57.359 46.79-104 104.333-104 7.203 0 13.042 5.821 13.042 13 0 7.18-5.839 13-13.042 13z" fill="#ff7f37"/><path d="m234.752 481c0-7.18 5.839-13 13.042-13h130.416c7.203 0 13.042 5.82 13.042 13 0 7.179-5.839 13-13.042 13h-130.416c-7.203 0-13.042-5.821-13.042-13z" fill="#9063cd"/><path d="m234.752 533c0-7.18 5.839-13 13.042-13h130.416c7.203 0 13.042 5.82 13.042 13s-5.839 13-13.042 13h-130.416c-7.203 0-13.042-5.82-13.042-13z" fill="#00ccea"/></g></svg>