<svg fill="none" height="626" viewBox="0 0 621 626" width="621" xmlns="http://www.w3.org/2000/svg"><g clip-rule="evenodd" fill-rule="evenodd"><path d="m91.71 286.958c.1565 1.497.3757 2.981.5635 4.474.2552 1.978.5072 3.962.8203 5.925.2724 1.75.6027 3.484.9252 5.225.3084 1.644.6105 3.287.9596 4.92.1597.77.2786 1.552.4493 2.32.2317 1.027.5338 2.023.7796 3.047.4446 1.829.9111 3.65 1.401 5.463.5198 1.929 1.0489 3.856 1.6297 5.763.3882 1.285.8158 2.547 1.2308 3.821 17.346 53.554 56.326 97.363 107.71 120.531.216.112.403.26.627.361.98.437 1.976.81 2.959 1.231.29.123.579.238.87.363.4.167.799.331 1.203.499.878.364 1.728.782 2.614 1.134.12.049.242.062.363.106 1.343.533 2.697 1.037 4.048 1.535.255.097.514.183.769.273 2.847 1.045 5.717 2.034 8.605 2.945.086.025.172.05.262.077 15.726 4.916 31.964 7.854 48.572 8.697 3.397.175 6.819.265 10.255.265 4.028 0 8.017-.161 11.987-.398 1.085-.068 2.166-.165 3.253-.251 3.037-.235 6.058-.531 9.056-.901 1.053-.131 2.108-.262 3.162-.408 3.549-.497 7.076-1.078 10.563-1.761.392-.078.785-.135 1.176-.213 3.939-.799 7.83-1.724 11.681-2.749.937-.251 1.859-.539 2.792-.801 2.777-.789 5.532-1.625 8.259-2.531 1.395-.457 2.786-.932 4.173-1.425 2.242-.798 4.46-1.653 6.666-2.532 2.096-.83 4.181-1.687 6.251-2.59 2.429-1.064 4.851-2.146 7.226-3.308.767-.37 1.548-.711 2.307-1.09.052-.028.107-.032.152-.057 1.436-.721 2.791-1.543 4.202-2.294.964-.518 1.931-1.032 2.885-1.564 1.265-.702 2.566-1.332 3.815-2.063.072-.042.127-.102.197-.145 1.072-.629 2.109-1.31 3.167-1.957.045-.03.089-.061.136-.09 5.287-3.239 10.376-6.725 15.294-10.413.196-.144.396-.282.592-.431 2.395-1.811 4.737-3.673 7.046-5.583.29-.241.576-.489.863-.732 6.822-5.716 13.225-11.862 19.187-18.395.531-.576 1.06-1.152 1.58-1.736 1.756-1.97 3.477-3.96 5.153-5.992.686-.833 1.345-1.685 2.018-2.531 2.466-3.095 4.84-6.257 7.121-9.492 1.074-1.521 2.156-3.03 3.189-4.578 1.008-1.521 1.971-3.071 2.938-4.619 1.181-1.879 2.33-3.779 3.449-5.703.784-1.348 1.567-2.692 2.317-4.06 1.666-3.019 3.262-6.081 4.776-9.194.153-.316.326-.623.479-.939 1.7-3.549 3.264-7.174 4.757-10.835.381-.928.733-1.865 1.098-2.798 1.15-2.951 2.237-5.933 3.251-8.95.299-.882.606-1.758.891-2.643 2.448-7.618 4.455-15.429 5.991-23.414.208-1.089.388-2.182.579-3.277.479-2.734.905-5.483 1.273-8.254.022-.127.098-.227.116-.358.058-.462.076-.937.136-1.398.102-.832.192-1.663.286-2.496.246-2.221.431-4.457.608-6.696.092-1.251.208-2.493.281-3.745.021-.341.06-.677.076-1.014.011-.195.039-.387.05-.581 0-.011-.003-.024-.003-.04.175-3.426.266-6.87.266-10.341 0-3.68-.118-7.328-.313-10.959-.079-1.529-.229-3.038-.346-4.559-.154-2.023-.298-4.048-.514-6.055-.214-2.045-.493-4.071-.772-6.099-.187-1.367-.367-2.733-.579-4.089-.388-2.463-.833-4.909-1.308-7.349-.146-.745-.292-1.486-.447-2.228-8.332-40.339-28.783-76.952-59.165-105.341-1.453-1.366-2.912-2.733-4.399-4.052-.941-.827-1.905-1.632-2.86-2.441-1.981-1.687-3.981-3.336-6.016-4.938-.376-.295-.725-.612-1.105-.904-.11-.084-.232-.134-.345-.213-26.298-20.3079-56.946-33.5414-89.579-38.6779-.313-.0505-.623-.1136-.938-.161-2.706-.4134-5.427-.7464-8.154-1.0462-.618-.0694-1.23-.1673-1.853-.2304-2.558-.2556-5.13-.4292-7.709-.5902-.775-.0489-1.543-.1294-2.323-.1704-3.334-.1673-6.681-.2556-10.039-.2556-5.271 0-10.479.2698-15.646.6769-.711.0568-1.417.0994-2.125.1673-5.231.4671-10.401 1.1457-15.51 2.0167-.337.06-.675.1231-1.011.1847-10.973 1.9331-21.639 4.7546-31.918 8.4267-.042.0142-.081.0284-.121.0395-4.937 1.7705-9.782 3.7447-14.533 5.8861-.703.3156-1.4.6359-2.101.9594-3.965 1.8447-7.888 3.77-11.709 5.864-.209.1026-.423.1578-.627.2667-.494.273-.953.587-1.443.8616-.355.202-.697.4261-1.053.6297-1.098.6264-2.167 1.2971-3.252 1.9425-.862.5176-1.736 1.0179-2.591 1.5481-2.102 1.2956-4.175 2.6179-6.216 3.9861-1.19.7985-2.358 1.6267-3.533 2.4507-3.219 2.255-6.353 4.597-9.412 7.024-.703.557-1.454 1.037-2.152 1.603-.208.172-.365.38-.561.562-2.727 2.241-5.374 4.559-7.966 6.935-.058.053-.117.106-.177.161-7.041 6.459-13.593 13.379-19.604 20.728-.028.03-.052.062-.078.093-1.874 2.295-3.692 4.625-5.459 7-.415.553-.812 1.114-1.218 1.67-3.411 4.671-6.651 9.46-9.641 14.406-.097.164-.204.317-.302.48-1.062 1.767-2.061 3.571-3.067 5.371-.966 1.711-1.905 3.432-2.823 5.175-.815 1.562-1.621 3.124-2.393 4.708-1.285 2.618-2.505 5.274-3.676 7.954-.357.816-.748 1.611-1.093 2.432-1.527 3.62-2.924 7.307-4.24 11.03-.321.906-.612 1.818-.921 2.73-1.042 3.091-2.0145 6.214-2.9083 9.37-.2458.87-.501 1.733-.7358 2.604-2.1196 7.887-3.7774 15.959-4.9374 24.196-.1377.971-.2473 1.944-.3694 2.918-.3961 3.169-.7201 6.36-.9675 9.573-.0861 1.11-.1831 2.218-.2536 3.332-.2473 4.105-.4195 8.231-.4195 12.397 0 3.613.1096 7.201.2959 10.767.061 1.148.1816 2.289.2598 3.433.1675 2.406.3413 4.811.5918 7.191m26.137-37.054c.125-1.39.266-2.773.424-4.155.543-4.799 1.233-9.557 2.158-14.231.102-.51.191-1.021.298-1.532.985-4.739 2.215-9.39 3.574-13.98.408-1.373.834-2.735 1.274-4.095 1.437-4.452 2.998-8.848 4.776-13.134.125-.295.224-.605.345-.898 2.014-4.77 4.267-9.41 6.676-13.95.406-.762.825-1.513 1.238-2.271 5.154-9.367 11.092-18.239 17.812-26.448.024-.027.047-.057.07-.087 10.456-12.75 22.685-23.967 36.289-33.284.174-.119.347-.241.52-.358 4.317-2.937 8.785-5.659 13.365-8.198 1.207-.664 2.461-1.232 3.684-1.868 3.298-1.725 6.64-3.382 10.062-4.895 2.101-.92 4.236-1.739 6.373-2.577 2.66-1.051 5.34-2.063 8.064-2.981 2.429-.817 4.882-1.5623 7.348-2.2724 2.625-.7559 5.282-1.4376 7.959-2.0673 2.461-.5807 4.925-1.1472 7.409-1.6206 3.073-.5792 6.188-1.0226 9.314-1.436 2.109-.2793 4.21-.6218 6.329-.8222 5.313-.5034 10.678-.8269 16.118-.8269 5.842 0 11.614.3093 17.308.8853 1.336.1341 2.637.4182 3.966.5854 4.396.5492 8.781 1.1378 13.072 2.0152 1.047.213 2.061.5397 3.104.7732 4.554 1.0226 9.08 2.1241 13.491 3.5033.596.1846 1.168.436 1.764.628 4.82 1.564 9.578 3.274 14.2 5.25.201.084.389.19.589.275 15.247 6.572 29.386 15.28 42.01 25.785.025.019.049.043.072.063 29.632 24.687 50.946 59.166 59.061 98.465.067.332.133.66.2.991 1.057 5.285 1.874 10.654 2.445 16.098.058.584.094 1.179.149 1.767.514 5.457.834 10.975.834 16.566 0 5.26-.33 10.444-.782 15.587-.032.323-.055.652-.083.975-.091.928-.169 1.856-.271 2.781-.54 4.88-1.262 9.708-2.198 14.458-.224 1.15-.506 2.283-.756 3.424-.886 4.078-1.916 8.094-3.081 12.056-.336 1.139-.637 2.29-.995 3.42-1.484 4.691-3.163 9.299-5.024 13.811-.416 1.003-.877 1.983-1.307 2.978-1.709 3.929-3.547 7.786-5.534 11.557-.429.819-.834 1.654-1.277 2.465-2.474 4.523-5.119 8.936-7.967 13.202-.216.323-.447.631-.662.95-2.846 4.202-5.867 8.277-9.056 12.204-.221.269-.43.546-.651.815-6.912 8.401-14.59 16.142-22.928 23.105-.109.09-.22.182-.328.273-8.28 6.876-17.219 12.969-26.686 18.213-.443.246-.89.49-1.34.732-9.139 4.956-18.778 9.077-28.806 12.324-1.074.347-2.159.668-3.24.991-4.307 1.299-8.681 2.449-13.122 3.409-.653.142-1.296.327-1.95.458-4.86.992-9.813 1.718-14.808 2.288-1.29.145-2.583.266-3.876.383-5.125.466-10.296.795-15.537.795-23.549 0-45.994-4.811-66.456-13.471-.397-.166-.784-.341-1.18-.51-45.808-19.796-81.436-59.042-96.617-107.389-.118-.38-.246-.754-.364-1.139-1.549-5.048-2.857-10.199-3.946-15.432-.13-.612-.24-1.229-.36-1.843-1.011-5.138-1.824-10.342-2.372-15.629-.055-.536-.081-1.079-.133-1.616-.521-5.476-.839-11.013-.839-16.625 0-5.286.33-10.497.788-15.663" fill="#fdda24"/><path d="m324.404 559.438c0-7.377 5.932-13.356 13.25-13.356h57.679c7.317 0 13.25 5.979 13.25 13.356s-5.933 13.357-13.25 13.357h-57.679c-7.318 0-13.25-5.98-13.25-13.357z" fill="#59cbe8"/><path d="m170.068 559.438c0-7.377 5.933-13.356 13.25-13.356h65.7c7.318 0 13.25 5.979 13.25 13.356s-5.932 13.357-13.25 13.357h-65.7c-7.317 0-13.25-5.98-13.25-13.357z" fill="#00c389"/><path d="m289.326 492.65c7.318 0 13.25 5.98 13.25 13.357v53.431c0 7.376-5.932 13.356-13.25 13.356s-13.25-5.98-13.25-13.356v-53.431c0-7.377 5.932-13.357 13.25-13.357z" fill="#9063cd"/><path d="m235.768 559.438c0-7.377 5.932-13.356 13.249-13.356h88.637c7.318 0 13.25 5.979 13.25 13.356s-5.932 13.357-13.25 13.357h-88.637c-7.317 0-13.249-5.98-13.249-13.357z" fill="#fdda24"/><path d="m475.269 261.928c7.308.377 12.93 6.654 12.557 14.021-3.757 74.134-47.469 137.585-109.795 168.97-6.546 3.297-14.504.62-17.774-5.979-3.27-6.6-.614-14.621 5.932-17.918 54.074-27.23 91.919-82.251 95.172-146.436.373-7.367 6.6-13.034 13.908-12.658z" fill="#f5b6cd"/><path d="m393.746 420.738c3.672 6.38 1.518 14.554-4.812 18.256-29.297 17.133-63.338 26.938-99.608 26.938-28.634 0-55.888-6.111-80.52-17.127-6.689-2.991-9.706-10.882-6.739-17.625 2.968-6.743 10.796-9.784 17.485-6.793 21.313 9.531 44.912 14.832 69.774 14.832 31.476 0 60.945-8.497 86.31-23.331 6.33-3.702 14.438-1.531 18.11 4.85z" fill="#ff7f41"/><path d="m105.44 293.852c7.138-1.623 14.23 2.895 15.84 10.091 12.61 56.373 52.462 102.401 104.89 123.239 6.808 2.705 10.15 10.462 7.466 17.325-2.684 6.862-10.378 10.232-17.186 7.526-60.48-24.038-106.455-77.099-121.021-142.214-1.6097-7.195 2.8722-14.344 10.011-15.967z" fill="#59cbe8"/><path d="m212.01 95.0006c3.514 6.4704 1.158 14.5874-5.261 18.1294-53.474 29.502-89.687 86.718-89.687 152.439 0 13.2 1.46 26.042 4.217 38.375 1.609 7.196-2.873 14.344-10.012 15.966s-14.23-2.897-15.8389-10.093c-3.185-14.245-4.8656-29.056-4.8656-44.248 0-75.87 41.8365-141.871 103.4635-175.8722 6.419-3.5416 14.471-1.167 17.984 5.3038z" fill="#9063cd"/><path d="m289.327 91.9189c-41.039 0-78.693 14.4461-108.282 38.5851-5.689 4.641-14.032 3.754-18.635-1.98-4.604-5.734-3.724-14.144 1.964-18.785 34.136-27.8478 77.629-44.5332 124.953-44.5332 54.148 0 103.263 21.845 139.099 57.2432 5.227 5.162 5.312 13.619.191 18.888-5.122 5.268-13.511 5.354-18.737.192-31.084-30.704-73.616-49.6101-120.553-49.6101z" fill="#00c389"/><path d="m391.69 109.013c4.457-5.851 12.774-6.952 18.579-2.46 47.292 36.603 77.822 94.216 77.822 159.017 0 8.912-.58 17.695-1.702 26.309-.953 7.314-7.607 12.464-14.862 11.504-7.256-.96-12.365-7.668-11.412-14.982.972-7.466 1.476-15.088 1.476-22.831 0-56.147-26.418-106.064-67.46-137.829-5.804-4.492-6.897-12.877-2.441-18.728z" fill="#fdda24"/><path d="m111.301 426.14c5.174-5.216 13.563-5.216 18.738 0 27.507 27.729 60.325 46.769 95.14 57.157 7.016 2.093 11.021 9.524 8.944 16.598-2.077 7.073-9.448 11.11-16.465 9.016-38.946-11.62-75.649-32.926-106.357-63.882-5.175-5.216-5.175-13.673 0-18.889z" fill="#00c389"/><path d="m208.712 492.314c2.077-7.073 9.449-11.11 16.466-9.017 40.535 12.094 83.795 12.46 124.497 1.097 7.053-1.969 14.353 2.198 16.306 9.307s-2.181 14.468-9.233 16.437c-45.478 12.696-93.794 12.288-139.091-1.226-7.017-2.094-11.021-9.525-8.945-16.598z" fill="#f5b6cd"/><path d="m467.353 426.141c5.174 5.216 5.174 13.673 0 18.889-31.824 32.08-70.085 53.795-110.604 65.108-7.052 1.969-14.353-2.198-16.306-9.307s2.18-14.468 9.233-16.437c36.224-10.114 70.434-29.519 98.939-58.253 5.174-5.216 13.563-5.216 18.738 0z" fill="#fdda24"/><path d="m521.957 320.458c7.024 2.07 11.052 9.488 8.998 16.568-11.474 39.551-32.688 76.839-63.601 108.003-5.175 5.216-13.564 5.217-18.739.001-5.174-5.216-5.174-13.673 0-18.889 27.69-27.915 46.649-61.257 56.906-96.613 2.054-7.08 9.413-11.141 16.436-9.07z" fill="#9063cd"/><path d="m516.597 191.225c7.076-1.878 14.323 2.383 16.186 9.517 11.661 44.657 11.052 91.893-1.826 136.284-2.054 7.08-9.413 11.142-16.436 9.071-7.024-2.07-11.053-9.488-8.999-16.568 11.525-39.725 12.071-82.018 1.634-121.988-1.863-7.133 2.364-14.438 9.441-16.316z" fill="#ff7f41"/><path d="m448.615 86.1081c5.175-5.2161 13.564-5.2161 18.738 0 32.64 32.9019 54.462 72.6279 65.43 114.6349 1.862 7.134-2.365 14.439-9.441 16.316-7.077 1.878-14.324-2.383-16.186-9.517-9.806-37.558-29.308-73.076-58.541-102.545-5.174-5.216-5.174-13.6729 0-18.8889z" fill="#59cbe8"/></g></svg>