<svg width="104" height="104" viewBox="0 0 104 104" fill="none" xmlns="http://www.w3.org/2000/svg">
<path fill-rule="evenodd" clip-rule="evenodd" d="M49.8333 28.1667C49.8333 26.97 50.8033 26 51.9999 26C61.5599 26 69.3333 33.7734 69.3333 43.3333C69.3333 45.7167 68.8364 47.9997 67.9447 50.0802C67.4734 51.18 66.1996 51.6895 65.0998 51.2181C63.9999 50.7468 63.4904 49.473 63.9618 48.3732C64.6302 46.8136 64.9999 45.11 64.9999 43.3333C64.9999 36.1666 59.1666 30.3333 51.9999 30.3333C50.8033 30.3333 49.8333 29.3633 49.8333 28.1667Z" fill="#9063CD"/>
<path fill-rule="evenodd" clip-rule="evenodd" d="M54.1636 28.1658C54.1641 29.3624 53.1945 30.3328 51.9978 30.3333C49.943 30.3342 47.9175 30.8215 46.0871 31.7554C44.2567 32.6893 42.6734 34.0433 41.4667 35.7065C40.2601 37.3698 39.4643 39.2951 39.1445 41.3249C38.8247 43.3548 38.99 45.4315 39.6269 47.3851C39.9978 48.5228 39.3761 49.7458 38.2385 50.1166C37.1008 50.4875 35.8778 49.8659 35.507 48.7282C34.6581 46.1241 34.4377 43.3561 34.864 40.6506C35.2902 37.945 36.3509 35.3788 37.9592 33.1619C39.5676 30.9449 41.678 29.1403 44.1177 27.8955C46.5574 26.6507 49.2571 26.0011 51.996 26C53.1926 25.9995 54.1631 26.9691 54.1636 28.1658Z" fill="#00C389"/>
<path fill-rule="evenodd" clip-rule="evenodd" d="M36.8899 45.9977C38.0269 45.6247 39.251 46.2439 39.6241 47.3809C40.4495 49.8964 42.0233 52.0999 44.135 53.6968C46.2466 55.2937 48.7955 56.2078 51.4407 56.3168C54.0859 56.4258 56.7014 55.7246 58.9373 54.307C61.1733 52.8893 62.923 50.8228 63.9527 48.3838C64.4181 47.2813 65.689 46.7649 66.7914 47.2303C67.8938 47.6957 68.4103 48.9667 67.9449 50.0691C66.572 53.3211 64.239 56.0765 61.2577 57.9667C58.2765 59.8569 54.7892 60.7918 51.2622 60.6465C47.7353 60.5011 44.3368 59.2823 41.5212 57.1531C38.7057 55.024 36.6073 52.0859 35.5068 48.7319C35.1337 47.595 35.753 46.3708 36.8899 45.9977Z" fill="#F5B6CD"/>
<path fill-rule="evenodd" clip-rule="evenodd" d="M51.9999 12.9998C35.2565 12.9998 21.6666 26.5898 21.6666 43.3332C21.6666 44.5298 20.6965 45.4998 19.4999 45.4998C18.3033 45.4998 17.3333 44.5298 17.3333 43.3332C17.3333 24.1966 32.8633 8.6665 51.9999 8.6665C53.1965 8.6665 54.1666 9.63655 54.1666 10.8332C54.1666 12.0298 53.1965 12.9998 51.9999 12.9998Z" fill="#59CBE8"/>
<path fill-rule="evenodd" clip-rule="evenodd" d="M19.4999 41.1665C20.6965 41.1665 21.6666 42.1366 21.6666 43.3332C21.6666 56.6049 29.3519 68.5535 37.3531 77.3549C41.324 81.7228 45.3011 85.2367 48.2867 87.6583C49.7778 88.8677 51.0173 89.8013 51.8793 90.4293C52.3102 90.7432 52.6464 90.9806 52.8721 91.1376C52.985 91.2161 53.0702 91.2745 53.1258 91.3123L53.1868 91.3536L53.2001 91.3626L53.2018 91.3637L53.2024 91.3641L53.2025 91.3642C54.1975 92.0281 54.4663 93.3729 53.8027 94.3684C53.1389 95.364 51.7937 95.633 50.7981 94.9693L51.9999 93.1665C50.7981 94.9693 50.7974 94.9688 50.7966 94.9683L50.7945 94.9669L50.7879 94.9625L50.766 94.9477L50.6876 94.8946C50.6202 94.8488 50.5229 94.7821 50.3977 94.695C50.1474 94.5209 49.7854 94.2652 49.3276 93.9317C48.4122 93.2648 47.1127 92.2856 45.5569 91.0237C42.4487 88.5026 38.3008 84.8393 34.1467 80.2698C25.898 71.1962 17.3333 58.2281 17.3333 43.3332C17.3333 42.1366 18.3033 41.1665 19.4999 41.1665Z" fill="#FF7F41"/>
<path fill-rule="evenodd" clip-rule="evenodd" d="M84.4999 41.1665C85.6965 41.1665 86.6666 42.1366 86.6666 43.3332C86.6666 58.2281 78.1018 71.1962 69.8531 80.2698C65.699 84.8393 61.5511 88.5026 58.4429 91.0237C56.8872 92.2856 55.5876 93.2648 54.6723 93.9317C54.2145 94.2652 53.8524 94.5209 53.6021 94.695C53.4769 94.7821 53.3796 94.8488 53.3123 94.8946L53.2339 94.9477L53.2119 94.9625L53.2054 94.9669L53.2032 94.9683C53.2024 94.9688 53.2018 94.9693 51.9999 93.1665L53.2018 94.9693C52.2061 95.633 50.8609 95.364 50.1971 94.3684C49.5335 93.3729 49.8023 92.0281 50.7974 91.3642L50.7974 91.3641L50.7981 91.3637L50.7997 91.3626L50.8131 91.3536L50.874 91.3123C50.9296 91.2745 51.0148 91.2161 51.1277 91.1376C51.3535 90.9806 51.6897 90.7432 52.1205 90.4293C52.9825 89.8013 54.222 88.8677 55.7132 87.6583C58.6987 85.2367 62.6758 81.7228 66.6467 77.3549C74.648 68.5535 82.3332 56.6049 82.3332 43.3332C82.3332 42.1366 83.3033 41.1665 84.4999 41.1665Z" fill="#FDDA24"/>
<path fill-rule="evenodd" clip-rule="evenodd" d="M49.8333 10.8332C49.8333 9.63655 50.8033 8.6665 51.9999 8.6665C71.1365 8.6665 86.6666 24.1966 86.6666 43.3332C86.6666 44.5298 85.6965 45.4998 84.4999 45.4998C83.3033 45.4998 82.3332 44.5298 82.3332 43.3332C82.3332 26.5898 68.7433 12.9998 51.9999 12.9998C50.8033 12.9998 49.8333 12.0298 49.8333 10.8332Z" fill="#00C389"/>
</svg>
