<svg fill="none" height="626" viewBox="0 0 626 626" width="626" xmlns="http://www.w3.org/2000/svg"><g clip-rule="evenodd" fill-rule="evenodd"><path d="m220.342 103.749c-14.19 0-25.692 11.503-25.692 25.692v218.389c0 7.094-5.752 12.846-12.847 12.846-7.094 0-12.846-5.752-12.846-12.846v-218.389c0-28.379 23.006-51.3848 51.385-51.3848 28.378 0 51.386 23.0058 51.386 51.3848l-.187 218.4c-.006 7.094-5.763 12.841-12.857 12.835-7.095-.006-12.842-5.763-12.836-12.857l.187-218.378c0-.001 0 .001 0 0-.002-14.188-11.505-25.692-25.693-25.692z" fill="#9063cd"/><path d="m246.035 129.437c-.002-14.189-11.505-25.689-25.693-25.689v-25.6926c28.378 0 51.386 23.0056 51.386 51.3866l-.189 218.398c-.006 7.095-5.762 12.841-12.857 12.835s-12.841-5.762-12.835-12.857l.188-218.381c0-.002 0 .001 0 0z" fill="#00c389"/><path d="m297.421 78.0548c-14.191 0-25.694 11.504-25.694 25.6932l-.019 24.986c.013.237.02.477.019.718l-.187 218.388c-.006 7.094-5.762 12.842-12.856 12.836-7.095-.006-12.842-5.761-12.836-12.856l.187-244.072c.005-28.3736 23.008-51.3859 51.386-51.3859 28.379 0 51.384 23.0081 51.384 51.3859v244.071c0 7.093-5.748 12.854-12.84 12.857-7.093.003-12.846-5.742-12.852-12.835l-.187-218.389c-.001-.753.063-1.49.187-2.207v-23.497c0-14.1896-11.504-25.6932-25.692-25.6932z" fill="#00c389"/><path d="m348.618 129.441.187 218.378c.007 7.094-5.74 12.851-12.835 12.857s-12.851-5.741-12.857-12.835l-.187-218.389c0-28.379 23.006-51.3958 51.384-51.3958 28.381 0 51.387 23.0058 51.387 51.3848v32.676c7.6-4.439 16.443-6.983 25.88-6.983 28.379 0 51.385 23.006 51.385 51.385 0 7.095-5.752 12.846-12.847 12.846-7.094 0-12.846-5.751-12.846-12.846 0-14.189-11.503-25.692-25.692-25.692-14.191 0-25.693 11.503-25.693 25.692v115.618c0 7.095-5.752 12.846-12.847 12.846h-.187c-7.095 0-12.846-5.751-12.846-12.846v-192.696c0-14.189-11.502-25.692-25.694-25.692-14.187 0-25.689 11.505-25.692 25.692z" fill="#fdda24"/><path d="m451.577 180.827c-14.191 0-25.693 11.503-25.693 25.692v115.618c0 7.095-5.752 12.846-12.847 12.846h-.187c-7.095 0-12.846-5.751-12.846-12.846 0-.749.064-1.483.187-2.196v-113.422c0-28.379 23.006-51.385 51.386-51.385 28.379 0 51.385 23.006 51.385 51.385v179.85c0 7.095-5.752 12.847-12.847 12.847-7.094 0-12.846-5.752-12.846-12.847v-179.85c0-14.189-11.503-25.692-25.692-25.692z" fill="#f5b6cd"/><path d="m490.116 373.522c7.095 0 12.846 5.752 12.846 12.847 0 99.329-80.521 179.85-179.849 179.85h-25.693c-40.523 0-77.949-13.419-108.028-36.048-5.67-4.265-6.808-12.319-2.543-17.989 4.265-5.669 12.319-6.807 17.989-2.542 25.78 19.395 57.821 30.886 92.582 30.886h25.693c85.139 0 154.157-69.018 154.157-154.157 0-7.095 5.751-12.847 12.846-12.847z" fill="#ff7f41"/><path d="m168.957 360.676c-14.192 0-25.694 11.503-25.694 25.692 0 50.385 24.157 95.121 61.575 123.273 25.78 19.395 57.821 30.884 92.582 30.884h25.693c7.095 0 12.846 5.752 12.846 12.847s-5.751 12.846-12.846 12.846h-25.693c-40.522 0-77.949-13.417-108.028-36.046-43.592-32.796-71.822-85.004-71.822-143.804 0-28.379 23.006-51.384 51.387-51.384 7.094 0 12.846 5.751 12.846 12.846s-5.752 12.846-12.846 12.846z" fill="#59cbe8"/><path d="m335.959 334.983c7.095 0 12.846 5.752 12.846 12.847 0 49.664-40.26 89.924-89.924 89.924h-25.693c-7.095 0-12.846-5.751-12.846-12.846s5.751-12.846 12.846-12.846h25.693c35.475 0 64.232-28.757 64.232-64.232 0-7.095 5.751-12.847 12.846-12.847z" fill="#ff7f41"/><path d="m168.957 360.675c-14.191 0-25.694 11.504-25.694 25.694h-25.693c0-28.379 23.006-51.386 51.387-51.386h167.001c7.095 0 12.847 5.751 12.847 12.846s-5.752 12.846-12.847 12.846z" fill="#9063cd"/></g></svg>