<svg fill="none" height="626" viewBox="0 0 626 626" width="626" xmlns="http://www.w3.org/2000/svg"><g clip-rule="evenodd" fill-rule="evenodd"><path d="m443.157 182.583c-14.447 0-26.083 11.637-26.083 26.083v13.042c0 7.203-5.839 13.042-13.042 13.042s-13.042-5.839-13.042-13.042v-13.042c0-28.851 23.315-52.166 52.167-52.166s52.167 23.315 52.167 52.166v182.584c0 44.34-15.728 85.115-42.178 116.63-4.63 5.517-12.856 6.236-18.373 1.605-5.517-4.63-6.236-12.856-1.606-18.374 22.588-26.912 36.073-61.778 36.073-99.861v-182.584c0-14.446-11.637-26.083-26.083-26.083z" fill="#00c389"/><path d="m312.74 130.416c0-28.851 23.315-52.1662 52.167-52.1662s52.167 23.3152 52.167 52.1662v195.625c0 7.203-5.839 13.042-13.042 13.042s-13.042-5.839-13.042-13.042v-195.625c0-14.446-11.637-26.083-26.083-26.083-14.447 0-26.083 11.637-26.083 26.083v91.292c0 7.203-5.839 13.042-13.042 13.042s-13.042-5.839-13.042-13.042z" fill="#fdda24"/><path d="m286.657 78.2501c-14.447 0-26.083 11.6369-26.083 26.0829v221.709c0 7.202-5.839 13.041-13.042 13.041s-13.042-5.839-13.042-13.041v-221.709c0-28.8515 23.315-52.1663 52.167-52.1663s52.167 23.3148 52.167 52.1663v221.709c0 7.202-5.839 13.041-13.042 13.041s-13.042-5.839-13.042-13.041v-221.709c0-14.446-11.637-26.0829-26.083-26.0829z" fill="#ff7f37"/><path d="m156.24 130.416c0-28.851 23.315-52.1662 52.167-52.1662s52.167 23.3152 52.167 52.1662v195.625c0 7.203-5.839 13.042-13.042 13.042s-13.042-5.839-13.042-13.042v-195.625c0-14.446-11.637-26.083-26.083-26.083-14.447 0-26.083 11.637-26.083 26.083v91.292c0 7.203-5.839 13.042-13.042 13.042s-13.042-5.839-13.042-13.042z" fill="#f5b6cd"/><path d="m104.073 221.708c0-7.202 5.839-13.041 13.042-13.041h13.042c43.197 0 78.25 35.052 78.25 78.25v52.882c58.704 6.483 104.333 56.221 104.333 116.659 0 7.203-5.839 13.042-13.042 13.042-7.202 0-13.041-5.839-13.041-13.042 0-50.441-40.851-91.291-91.292-91.291-7.203 0-13.042-5.839-13.042-13.042v-65.208c0-28.793-23.374-52.167-52.166-52.167v156.5c0 7.203-5.839 13.042-13.042 13.042s-13.042-5.839-13.042-13.042z" fill="#00ccea"/><path d="m117.115 378.208c7.203 0 13.042 5.839 13.042 13.042 0 86.436 70.063 156.5 156.5 156.5h26.083c48.366 0 91.708-22.128 120.392-56.596 4.607-5.537 12.83-6.29 18.367-1.683 5.536 4.607 6.289 12.83 1.682 18.367-33.394 40.129-83.953 65.995-140.441 65.995h-26.083c-100.842 0-182.584-81.741-182.584-182.583 0-7.203 5.839-13.042 13.042-13.042z" fill="#9063cd"/></g></svg>