<svg fill="none" height="624" viewBox="0 0 622 624" width="622" xmlns="http://www.w3.org/2000/svg"><g clip-rule="evenodd" fill-rule="evenodd"><path d="m29.7114 341.808c5.0606-5.077 13.2653-5.077 18.3259 0l103.6667 104c5.06 5.076 5.06 13.308 0 18.384-5.061 5.077-13.265 5.077-18.326 0l-103.6666-104c-5.0605-5.076-5.0605-13.308 0-18.384z" fill="#00c389"/><path d="m316.793 384.188c5.061 5.077 5.061 13.308 0 18.385l-113.256 113.62c-5.06 5.076-13.265 5.076-18.326 0-5.06-5.077-5.06-13.308 0-18.385l113.256-113.62c5.061-5.077 13.266-5.077 18.326 0z" fill="#f5b6cd"/><path d="m462.708 237.808c5.06 5.076 5.06 13.308 0 18.384l-145.911 146.38c-5.061 5.077-13.265 5.077-18.326 0-5.06-5.076-5.06-13.308 0-18.384l145.911-146.38c5.061-5.077 13.265-5.077 18.326 0z" fill="#9063cd"/><path d="m592.289 107.808c5.06 5.076 5.06 13.308 0 18.384l-129.584 130c-5.06 5.077-13.265 5.077-18.326 0-5.06-5.076-5.06-13.308 0-18.384l129.584-130c5.06-5.077 13.265-5.077 18.326 0z" fill="#00ccea"/><path d="m107.461 419.808c5.061-5.077 13.266-5.077 18.326 0l77.75 78c5.061 5.076 5.061 13.308 0 18.384-5.06 5.077-13.265 5.077-18.326 0l-77.75-78c-5.06-5.076-5.06-13.308 0-18.384z" fill="#fdda24"/></g></svg>