<svg width="48" height="48" viewBox="0 0 48 48" fill="none" xmlns="http://www.w3.org/2000/svg">
<path d="M29.3993 23.3166C26.5993 23.3166 23.8993 22.0166 22.1993 19.5166C19.3993 15.5166 20.3993 9.91664 24.3993 7.11664C28.4993 4.21664 34.9993 3.31664 41.4993 4.51664C42.2993 4.71664 42.8993 5.21664 42.9993 6.01664C43.1993 6.71664 42.8993 7.51664 42.1993 7.91664C40.3993 9.11664 39.3993 11.9166 38.3993 14.7166V14.8166C37.2993 17.7166 36.2993 20.4166 34.3993 21.8166C32.7993 22.8166 31.0993 23.3166 29.3993 23.3166ZM35.8993 6.01664C31.7993 6.01664 28.0993 7.01664 25.4993 8.81664C22.3993 11.0166 21.6993 15.3166 23.7993 18.4166C25.9993 21.5166 30.0993 22.3166 33.1993 20.2166C34.5993 19.2166 35.4993 16.8166 36.4993 14.2166V14.1166C37.5993 11.2166 38.6993 8.21664 40.7993 6.51664C39.1993 6.11664 37.4993 6.01664 35.8993 6.01664Z" fill="#00C389"/>
<path d="M9.69922 44.0172C9.09922 44.0172 8.69922 43.6172 8.69922 43.0172V39.1172C8.69922 38.5172 9.09922 38.1172 9.69922 38.1172C10.2992 38.1172 10.6992 38.5172 10.6992 39.1172V43.0172C10.6992 43.6172 10.2992 44.0172 9.69922 44.0172Z" fill="#F5B6CD"/>
<path d="M38.2992 44.0156H9.69922C9.09922 44.0156 8.69922 43.6156 8.69922 43.0156C8.69922 42.4156 9.09922 42.0156 9.69922 42.0156H38.2992C38.8992 42.0156 39.2992 42.4156 39.2992 43.0156C39.2992 43.6156 38.8992 44.0156 38.2992 44.0156Z" fill="#59CBE8"/>
<path d="M33.3992 32.3164H14.6992C14.0992 32.3164 13.6992 31.9164 13.6992 31.3164C13.6992 30.7164 14.0992 30.3164 14.6992 30.3164H33.3992C33.9992 30.3164 34.3992 30.7164 34.3992 31.3164C34.3992 31.9164 33.8992 32.3164 33.3992 32.3164Z" fill="#00C389"/>
<path d="M20.8009 29.418C20.7009 29.418 20.6009 29.418 20.4009 29.318C19.9009 29.118 19.6009 28.518 19.8009 28.018C25.2009 14.518 29.2009 12.218 29.7009 12.018C30.2009 11.818 30.8009 12.018 31.0009 12.518C31.2009 13.018 31.0009 13.618 30.6009 13.818C30.5009 13.918 26.8009 16.118 21.7009 28.718C21.6009 29.118 21.2009 29.418 20.8009 29.418Z" fill="#9063CD"/>
<path d="M11.9 16.8154C10.6 16.8154 9.2 16.3154 8.2 15.3154L8.1 15.2154C7.1 13.9154 6.6 12.4154 6.5 10.9154C6.5 9.71536 6.1 8.61536 5.5 7.71536C5.2 7.31536 5 6.91536 5 6.41536C5 5.41536 5.8 4.51536 6.9 4.51536C10.1 4.31536 13.3 5.41536 15.7 7.61536C15.7 7.61536 15.7 7.61536 15.8 7.71536C17.8 9.81536 17.8 13.1154 15.8 15.2154C14.7 16.3154 13.3 16.8154 11.9 16.8154ZM9.6 13.9154C10.9 15.1154 13 15.1154 14.3 13.8154C15.6 12.5154 15.6 10.5154 14.3 9.11536C12.3 7.41536 9.8 6.51536 7.1 6.51536C8 7.81536 8.5 9.31536 8.5 10.8154C8.6 11.9154 8.9 13.0154 9.6 13.9154Z" fill="#00C389"/>
<path d="M20.7984 29.4148C20.3984 29.4148 19.9984 29.2148 19.8984 28.8148C14.5984 15.6148 10.6984 11.4148 10.6984 11.4148C10.2984 11.0148 10.2984 10.3148 10.6984 10.0148C11.0984 9.61484 11.6984 9.61484 12.0984 10.0148C12.2984 10.2148 16.1984 14.4148 21.6984 28.0148C21.8984 28.5148 21.6984 29.1148 21.0984 29.3148C20.9984 29.3148 20.8984 29.4148 20.7984 29.4148Z" fill="#FF7F41"/>
<path d="M38.3008 44.0172C37.7008 44.0172 37.3008 43.6172 37.3008 43.0172V35.1172C37.3008 34.5172 37.7008 34.1172 38.3008 34.1172C38.9008 34.1172 39.3008 34.5172 39.3008 35.1172V43.0172C39.3008 43.6172 38.9008 44.0172 38.3008 44.0172Z" fill="#FF7F41"/>
<path d="M38.2992 36.1172H9.69922C9.09922 36.1172 8.69922 35.7172 8.69922 35.1172C8.69922 34.5172 9.09922 34.1172 9.69922 34.1172H38.2992C38.8992 34.1172 39.2992 34.5172 39.2992 35.1172C39.2992 35.7172 38.8992 36.1172 38.2992 36.1172Z" fill="#FDDA24"/>
<path d="M9.69922 40.1148C9.09922 40.1148 8.69922 39.7148 8.69922 39.1148V35.2148C8.69922 34.6148 9.09922 34.2148 9.69922 34.2148C10.2992 34.2148 10.6992 34.6148 10.6992 35.2148V39.1148C10.6992 39.6148 10.2992 40.1148 9.69922 40.1148Z" fill="#F5B6CD"/>
</svg>
