<svg width="48" height="48" viewBox="0 0 48 48" fill="none" xmlns="http://www.w3.org/2000/svg">
<path d="M3.5 24.9984C2.6 24.9984 2 24.3984 2 23.4984C2 17.4984 4.4 11.7984 8.6 7.59844C9.2 6.99844 10.1 6.99844 10.7 7.59844C11.3 8.19844 11.3 9.09844 10.7 9.69844C7.1 13.4484 5 18.2484 5 23.4984C5 24.2484 4.4 24.9984 3.5 24.9984Z" fill="#FDDA24"/>
<path d="M24.5 46C12.05 46 2 35.95 2 23.5C2 22.6 2.6 22 3.5 22C4.4 22 5 22.6 5 23.5C5 34.3 13.7 43 24.5 43C25.4 43 26 43.6 26 44.5C26 45.4 25.4 46 24.5 46Z" fill="#59CBE8"/>
<path d="M24.5 46C23.6 46 23 45.4 23 44.5C23 43.6 23.6 43 24.5 43C35.3 43 44 34.3 44 23.5C44 22.6 44.6 22 45.5 22C46.4 22 47 22.6 47 23.5C47 35.95 36.95 46 24.5 46Z" fill="#F5B6CD"/>
<path d="M45.5 25C44.6 25 44 24.4 44 23.5C44 12.7 35.3 4 24.5 4C23.6 4 23 3.4 23 2.5C23 1.6 23.6 1 24.5 1C36.95 1 47 11.05 47 23.5C47 24.25 46.4 25 45.5 25Z" fill="#FF7F41"/>
<path d="M9.64844 10.15C9.19844 10.15 8.89844 10 8.59844 9.7C7.99844 9.1 7.99844 8.2 8.59844 7.6C12.7984 3.4 18.4984 1 24.4984 1C25.3984 1 25.9984 1.6 25.9984 2.5C25.9984 3.4 25.3984 4 24.4984 4C19.2484 4 14.4484 6.1 10.6984 9.7C10.3984 10 10.0984 10.15 9.64844 10.15Z" fill="#FDDA24"/>
<path fill-rule="evenodd" clip-rule="evenodd" d="M24 7C24.5523 7 25 7.30526 25 7.68182V21.3182C25 21.6947 24.5523 22 24 22C23.4477 22 23 21.6947 23 21.3182V7.68182C23 7.30526 23.4477 7 24 7Z" fill="#00C389"/>
<path fill-rule="evenodd" clip-rule="evenodd" d="M24 16C24.5523 16 25 16.3053 25 16.6818V30.3182C25 30.6947 24.5523 31 24 31C23.4477 31 23 30.6947 23 30.3182V16.6818C23 16.3053 23.4477 16 24 16Z" fill="#FF7F41"/>
<path fill-rule="evenodd" clip-rule="evenodd" d="M22 24C22 24.5523 21.6947 25 21.3182 25L7.68182 25C7.30526 25 7 24.5523 7 24C7 23.4477 7.30526 23 7.68182 23L21.3182 23C21.6947 23 22 23.4477 22 24Z" fill="#F5B6CD"/>
<path fill-rule="evenodd" clip-rule="evenodd" d="M41 24C41 24.5523 40.6947 25 40.3182 25L26.6818 25C26.3053 25 26 24.5523 26 24C26 23.4477 26.3053 23 26.6818 23L40.3182 23C40.6947 23 41 23.4477 41 24Z" fill="#59CBE8"/>
<path fill-rule="evenodd" clip-rule="evenodd" d="M24 29C24.5523 29 25 29.2442 25 29.5455V40.4545C25 40.7558 24.5523 41 24 41C23.4477 41 23 40.7558 23 40.4545V29.5455C23 29.2442 23.4477 29 24 29Z" fill="#FDDA24"/>
<path fill-rule="evenodd" clip-rule="evenodd" d="M31 24C31 24.5523 30.6947 25 30.3182 25L16.6818 25C16.3053 25 16 24.5523 16 24C16 23.4477 16.3053 23 16.6818 23L30.3182 23C30.6947 23 31 23.4477 31 24Z" fill="#9063CD"/>
</svg>
