<svg width="48" height="48" viewBox="0 0 48 48" fill="none" xmlns="http://www.w3.org/2000/svg">
<path d="M16.7365 37.7539C16.4365 37.7539 16.1365 37.6539 15.9365 37.3539C15.6365 36.9539 15.6365 36.2539 16.0365 35.9539C18.6365 33.8539 18.6365 31.3539 18.6365 31.2539C18.6365 30.7539 19.1365 30.2539 19.6365 30.2539C20.1365 30.2539 20.6365 30.6539 20.6365 31.2539C20.6365 31.3539 20.6365 34.8539 17.2365 37.5539C17.1365 37.6539 16.9365 37.7539 16.7365 37.7539Z" fill="#F5B6CD"/>
<path d="M32.3359 37.7539C32.1359 37.7539 31.9359 37.6539 31.7359 37.5539C28.3359 34.8539 28.3359 31.3539 28.3359 31.2539C28.3359 30.6539 28.7359 30.2539 29.3359 30.2539C29.8359 30.2539 30.3359 30.6539 30.3359 31.2539C30.3359 31.3539 30.4359 33.9539 32.9359 35.9539C33.3359 36.2539 33.4359 36.9539 33.0359 37.3539C32.8359 37.5539 32.6359 37.7539 32.3359 37.7539Z" fill="#F5B6CD"/>
<path d="M24.5352 38.6531C23.9352 38.6531 23.5352 38.2531 23.5352 37.6531V34.4531C23.5352 33.8531 23.9352 33.4531 24.5352 33.4531C25.1352 33.4531 25.5352 33.8531 25.5352 34.4531V37.6531C25.5352 38.1531 25.0352 38.6531 24.5352 38.6531Z" fill="#F5B6CD"/>
<path d="M38.4354 44.0542H10.5354C10.1354 44.0542 9.83545 43.8542 9.63545 43.5542C8.83545 42.1542 8.23545 39.0542 11.4354 36.9542C14.5354 34.8542 18.4354 36.5542 20.2354 38.0542C21.1354 37.5542 22.6354 36.7542 24.4354 36.7542C26.2354 36.7542 27.8354 37.4542 28.6354 38.0542C30.4354 36.6542 34.2354 34.9542 37.4354 36.9542C40.6354 39.0542 40.0354 42.2542 39.2354 43.5542C39.1354 43.8542 38.8354 44.0542 38.4354 44.0542ZM11.1354 42.0542H37.7354C38.0354 41.2542 38.1354 39.7542 36.3354 38.5542C33.6354 36.7542 30.1354 39.2542 29.5354 39.8542C29.1354 40.2542 28.5354 40.3542 28.1354 39.9542C28.1354 39.9542 26.4354 38.6542 24.4354 38.6542C22.4354 38.6542 20.8354 40.0542 20.7354 40.0542C20.3354 40.3542 19.7354 40.3542 19.3354 39.9542C18.8354 39.2542 15.2354 36.8542 12.5354 38.6542C10.7354 39.7542 10.9354 41.2542 11.1354 42.0542Z" fill="#59CBE8"/>
<path d="M13.4336 31.8531C13.3336 31.8531 13.2336 31.8531 13.1336 31.8531C12.7336 31.7531 12.4336 31.3531 12.4336 30.8531C12.4336 26.5531 14.1336 20.4531 17.4336 17.6531C17.8336 17.2531 18.4336 17.3531 18.8336 17.7531C19.2336 18.1531 19.1336 18.7531 18.7336 19.1531C16.6336 20.9531 15.2336 24.7531 14.6336 28.1531C15.8336 27.2531 17.4336 26.3531 19.4336 26.3531C20.0336 26.3531 20.4336 26.7531 20.4336 27.3531C20.4336 27.9531 20.0336 28.3531 19.4336 28.3531C16.3336 28.3531 14.2336 31.3531 14.2336 31.3531C14.0336 31.6531 13.7336 31.8531 13.4336 31.8531Z" fill="#00C389"/>
<path d="M35.5352 31.8546C35.2352 31.8546 34.9352 31.6546 34.7352 31.4546C34.7352 31.4546 32.6352 28.4546 29.5352 28.4546C28.9352 28.4546 28.5352 28.0546 28.5352 27.4546C28.5352 26.8546 28.9352 26.4546 29.5352 26.4546C31.5352 26.4546 33.1352 27.3546 34.3352 28.2546C33.8352 24.8546 32.3352 21.0546 30.2352 19.2546C29.8352 18.8546 29.7352 18.2546 30.1352 17.8546C30.5352 17.4546 31.1352 17.3546 31.5352 17.7546C34.7352 20.5546 36.5352 26.6546 36.5352 30.9546C36.5352 31.3546 36.2352 31.7546 35.8352 31.9546C35.7352 31.8546 35.6352 31.8546 35.5352 31.8546Z" fill="#00C389"/>
<path d="M29.3352 28.3555H24.5352C23.9352 28.3555 23.5352 27.9555 23.5352 27.3555C23.5352 26.7555 23.9352 26.3555 24.5352 26.3555H29.3352C29.9352 26.3555 30.3352 26.7555 30.3352 27.3555C30.3352 27.9555 29.8352 28.3555 29.3352 28.3555Z" fill="#FF7F41"/>
<path d="M30.5351 19.4562C30.0351 19.4562 29.5351 19.0562 29.5351 18.5562C29.0351 10.5562 23.9351 5.9562 23.8351 5.8562C23.4351 5.4562 23.3351 4.8562 23.7351 4.4562C24.1351 4.0562 24.7351 3.9562 25.1351 4.3562C25.3351 4.5562 30.9351 9.5562 31.5351 18.4562C31.5351 18.9562 31.1351 19.3562 30.5351 19.4562Z" fill="#FF7F41"/>
<path d="M29.3356 28.3531C29.2356 28.3531 29.1356 28.3531 29.0356 28.3531C28.5356 28.1531 28.2356 27.6531 28.3356 27.1531C29.5356 23.0531 29.5356 19.8531 29.5356 19.8531C29.5356 19.4531 29.5356 18.9531 29.5356 18.5531C29.5356 17.9531 29.9356 17.5531 30.4356 17.4531C31.0356 17.4531 31.4356 17.8531 31.5356 18.3531C31.5356 18.8531 31.5356 19.2531 31.5356 19.7531C31.5356 19.8531 31.5356 23.2531 30.2356 27.6531C30.1356 28.0531 29.7356 28.3531 29.3356 28.3531Z" fill="#FF7F41"/>
<path d="M19.7336 28.3528C19.3336 28.3528 18.9336 28.0528 18.7336 27.6528C17.4336 23.2528 17.4336 19.9528 17.4336 19.7528C17.4336 19.2528 17.4336 18.7528 17.4336 18.3528C17.4336 17.7528 17.9336 17.3528 18.5336 17.4528C19.1336 17.4528 19.5336 17.9528 19.4336 18.5528C19.4336 18.9528 19.4336 19.3528 19.4336 19.8528C19.4336 19.8528 19.4336 23.0528 20.6336 27.1528C20.8336 27.6528 20.5336 28.2528 19.9336 28.3528C19.9336 28.3528 19.8336 28.3528 19.7336 28.3528Z" fill="#FDDA24"/>
<path d="M18.4336 19.4546C17.8336 19.4546 17.4336 18.9546 17.4336 18.3546C18.0336 9.45464 23.6336 4.55464 23.8336 4.25464C24.2336 3.85464 24.8336 3.95464 25.2336 4.35464C25.6336 4.75464 25.5336 5.35464 25.1336 5.75464C25.0336 5.85464 19.9336 10.4546 19.4336 18.4546C19.4336 19.0546 18.9336 19.4546 18.4336 19.4546Z" fill="#FDDA24"/>
<path d="M24.5344 28.3555H19.7344C19.1344 28.3555 18.7344 27.9555 18.7344 27.3555C18.7344 26.7555 19.1344 26.3555 19.7344 26.3555H24.5344C25.1344 26.3555 25.5344 26.7555 25.5344 27.3555C25.5344 27.9555 25.0344 28.3555 24.5344 28.3555Z" fill="#FDDA24"/>
<path d="M24.5352 31.8555C23.9352 31.8555 23.5352 31.4555 23.5352 30.8555V18.3555C23.5352 17.7555 23.9352 17.3555 24.5352 17.3555C25.1352 17.3555 25.5352 17.7555 25.5352 18.3555V30.7555C25.5352 31.3555 25.0352 31.8555 24.5352 31.8555Z" fill="#00C389"/>
<path d="M26.8445 16.1328C26.4461 16.1328 26.243 15.9297 26.0398 15.5312C25.4461 14.3281 23.4461 14.3281 23.0398 15.5312C22.8445 15.9297 22.243 16.3281 21.6414 16.1328C21.4617 16.0391 21.3211 15.8672 21.243 15.6562L21.2039 15.5156L21.1727 15.3047C21.157 15.125 21.1805 14.9297 21.243 14.7344C21.4773 13.9141 22.0477 13.3047 22.7586 12.9375C23.2742 12.6719 23.8602 12.5312 24.4461 12.5312C25.8445 12.5312 27.243 13.3281 27.8445 14.7344C27.9148 14.9453 27.9383 15.1328 27.907 15.2969L27.8758 15.4141C27.8445 15.5156 27.7977 15.6016 27.7352 15.6875C27.6258 15.8438 27.4617 15.9922 27.243 16.1328H26.8445Z" fill="#9063CD"/>
</svg>
