<svg width="48" height="48" viewBox="0 0 48 48" fill="none" xmlns="http://www.w3.org/2000/svg">
<path fill-rule="evenodd" clip-rule="evenodd" d="M33.4024 31.1835C33.7972 30.7974 34.4303 30.8044 34.8165 31.1992L43.7165 40.2992C44.1026 40.6941 44.0956 41.3272 43.7008 41.7134C43.3059 42.0995 42.6728 42.0925 42.2866 41.6976L33.3866 32.5976C33.0005 32.2028 33.0075 31.5697 33.4024 31.1835Z" fill="#9063CD"/>
<path fill-rule="evenodd" clip-rule="evenodd" d="M34.3922 16.1913C34.7827 15.8008 35.4159 15.8008 35.8064 16.1913C40.097 20.4819 40.097 27.415 35.8064 31.7055C35.7957 31.7163 35.7849 31.7271 35.7739 31.7381C35.4981 32.0141 35.1379 32.3746 34.754 32.6305C34.2945 32.9368 33.6736 32.8127 33.3673 32.3531C33.0609 31.8936 33.1851 31.2727 33.6446 30.9664C33.8455 30.8325 34.0719 30.6117 34.3922 30.2913C37.9017 26.7819 37.9017 21.115 34.3922 17.6055C34.0017 17.215 34.0017 16.5819 34.3922 16.1913Z" fill="#FF7F41"/>
<path fill-rule="evenodd" clip-rule="evenodd" d="M20.1913 30.3945C20.5819 30.0039 21.215 30.0039 21.6055 30.3945C24.8354 33.6243 29.9699 33.8157 33.4887 31.1089C33.9265 30.7722 34.5543 30.8541 34.8911 31.2919C35.2278 31.7296 35.1459 32.3575 34.7081 32.6942C30.427 35.9874 24.1614 35.7788 20.1913 31.8087C19.8008 31.4181 19.8008 30.785 20.1913 30.3945Z" fill="#FDDA24"/>
<path fill-rule="evenodd" clip-rule="evenodd" d="M20.1945 16.1945C24.485 11.9039 31.5181 11.9039 35.8087 16.1945C36.1992 16.585 36.1992 17.2181 35.8087 17.6087C35.4181 17.9992 34.785 17.9992 34.3945 17.6087C30.885 14.0992 25.1181 14.0992 21.6087 17.6087C18.0992 21.1181 18.0992 26.785 21.6087 30.2945C21.9992 30.685 21.9992 31.3181 21.6087 31.7087C21.2181 32.0992 20.585 32.0992 20.1945 31.7087C15.9039 27.4181 15.9039 20.485 20.1945 16.1945Z" fill="#59CBE8"/>
<path fill-rule="evenodd" clip-rule="evenodd" d="M28 19C25.2523 19 23 21.2523 23 24C23 24.5523 22.5523 25 22 25C21.4477 25 21 24.5523 21 24C21 20.1477 24.1477 17 28 17C28.5523 17 29 17.4477 29 18C29 18.5523 28.5523 19 28 19Z" fill="#00C389"/>
<path fill-rule="evenodd" clip-rule="evenodd" d="M4 20C4 19.4477 4.44772 19 5 19H13C13.5523 19 14 19.4477 14 20C14 20.5523 13.5523 21 13 21H5C4.44772 21 4 20.5523 4 20Z" fill="#FDDA24"/>
<path fill-rule="evenodd" clip-rule="evenodd" d="M4 14C4 13.4477 4.44772 13 5 13H16C16.5523 13 17 13.4477 17 14C17 14.5523 16.5523 15 16 15H5C4.44772 15 4 14.5523 4 14Z" fill="#00C389"/>
<path fill-rule="evenodd" clip-rule="evenodd" d="M4 8C4 7.44772 4.44772 7 5 7H27.5C28.0523 7 28.5 7.44772 28.5 8C28.5 8.55228 28.0523 9 27.5 9H5C4.44772 9 4 8.55228 4 8Z" fill="#F5B6CD"/>
</svg>
