<svg width="48" height="48" viewBox="0 0 48 48" fill="none" xmlns="http://www.w3.org/2000/svg">
<path d="M24.1 26.1195C19.9 26.1195 18 21.4195 18 18.0195V16.0195C18 12.7195 20.7 10.0195 24.1 10.0195C27.5 10.0195 30.2 12.7195 30.2 16.1195V18.1195C30.2 21.3195 28.3 26.1195 24.1 26.1195ZM24.1 12.0195C21.8 12.0195 20 13.8195 20 16.1195V18.1195C20 20.5195 21.3 24.2195 24.1 24.2195C26.9 24.2195 28.2 20.6195 28.2 18.1195V16.1195C28.2 13.8195 26.4 12.0195 24.1 12.0195Z" fill="#9063CD"/>
<path d="M11.6011 36.0187C11.1011 36.0187 10.7011 35.6187 10.6011 35.1187C10.2011 32.4187 11.1011 27.0187 17.2011 25.6187C17.7011 25.5187 18.2011 25.7188 18.4011 26.2188C18.5011 26.3188 19.9011 29.7188 24.1011 29.7188C24.6011 29.7188 25.1011 29.7188 25.5011 29.6188C26.0011 29.5188 26.6011 29.8187 26.7011 30.4187C26.8011 30.9187 26.5011 31.5188 25.9011 31.6188C25.3011 31.7188 24.7011 31.8187 24.1011 31.8187C19.9011 31.8187 17.8011 29.2187 17.0011 27.9187C11.9011 29.5187 12.6011 34.7187 12.6011 34.9187C12.7011 35.4187 12.3011 36.0187 11.8011 36.0187C11.7011 36.0187 11.7011 36.0187 11.6011 36.0187Z" fill="#9063CD"/>
<path d="M39.9996 29.3195C39.8996 29.3195 39.7996 29.3195 39.6996 29.3195C39.1996 29.1195 38.8996 28.6195 38.9996 28.0195C40.0996 24.4195 40.0996 21.5195 40.0996 21.5195V9.01953C40.0996 8.41953 40.4996 8.01953 41.0996 8.01953C41.6996 8.01953 42.0996 8.41953 42.0996 9.01953V21.4195C42.0996 21.5195 42.1996 24.6195 40.8996 28.5195C40.7996 29.0195 40.3996 29.3195 39.9996 29.3195Z" fill="#FF7F41"/>
<path d="M41.101 10.019C41.001 10.019 40.901 10.019 40.901 10.019L23.901 6.019C23.401 5.919 23.001 5.319 23.201 4.819C23.301 4.319 23.901 3.919 24.401 4.119L41.401 8.119C41.901 8.219 42.301 8.819 42.101 9.319C42.001 9.719 41.601 10.019 41.101 10.019Z" fill="#F5B6CD"/>
<path d="M7.10098 10.0192C6.60098 10.0192 6.20098 9.71916 6.10098 9.21916C6.00098 8.71916 6.30098 8.21916 6.90098 8.01916L23.901 4.01916C24.401 3.91916 25.001 4.21916 25.101 4.71916C25.201 5.21916 24.901 5.81916 24.401 5.91916L7.40098 9.91916C7.30098 10.0192 7.20098 10.0192 7.10098 10.0192Z" fill="#59CBE8"/>
<path d="M8.2 29.3195C7.8 29.3195 7.4 29.0195 7.2 28.6195C6 24.7195 6 21.6195 6 21.5195L6.1 9.01953C6.1 8.41953 6.5 8.01953 7.1 8.01953C7.7 8.01953 8.1 8.41953 8.1 9.01953V21.4195C8.1 21.5195 8.1 24.4195 9.2 28.0195C9.4 28.5195 9.1 29.1195 8.5 29.3195C8.4 29.2195 8.3 29.3195 8.2 29.3195Z" fill="#FDDA24"/>
<path d="M24.1009 44.0195C24.0009 44.0195 23.9009 44.0195 23.9009 44.0195C13.3009 41.3195 9.00093 34.1195 7.30093 28.6195C7.10093 28.0195 7.40093 27.5195 7.90093 27.3195C8.40093 27.1195 9.00093 27.4195 9.20093 28.0195C10.7009 33.0195 14.7009 39.6195 24.3009 42.0195C24.8009 42.1195 25.2009 42.7195 25.0009 43.2195C25.0009 43.7195 24.5009 44.0195 24.1009 44.0195Z" fill="#59CBE8"/>
<path d="M24.1012 44.0196C23.7012 44.0196 23.2012 43.7196 23.1012 43.2196C23.0012 42.7196 23.3012 42.1196 23.8012 42.0196C25.3012 41.6196 26.7012 41.1196 28.0012 40.6196C28.5012 40.4196 29.1012 40.6196 29.3012 41.1196C29.5012 41.6196 29.3012 42.2196 28.8012 42.4196C27.4012 43.0196 25.9012 43.6196 24.3012 44.0196C24.3012 44.0196 24.2012 44.0196 24.1012 44.0196Z" fill="#F5B6CD"/>
<path d="M33.3008 44.0195C28.1008 44.0195 23.8008 39.7195 23.8008 34.5195C23.8008 29.3195 28.1008 25.0195 33.3008 25.0195C38.5008 25.0195 42.8008 29.3195 42.8008 34.5195C42.8008 39.7195 38.5008 44.0195 33.3008 44.0195ZM33.3008 27.0195C29.2008 27.0195 25.8008 30.4195 25.8008 34.5195C25.8008 38.6195 29.1008 42.0195 33.3008 42.0195C37.5008 42.0195 40.8008 38.6195 40.8008 34.5195C40.8008 30.4195 37.4008 27.0195 33.3008 27.0195Z" fill="#00C389"/>
<path d="M32.2 38.4203L28.5 34.8203L29.9 33.4203L32.2 35.6203L36.6 31.3203L38 32.7203L32.2 38.4203Z" fill="#00C389"/>
</svg>
