<svg width="48" height="48" viewBox="0 0 48 48" fill="none" xmlns="http://www.w3.org/2000/svg">
<path d="M24.2984 33.9188C18.2984 33.9188 13.3984 29.0187 13.3984 23.0188C13.3984 17.0188 18.2984 12.2188 24.2984 12.2188C30.2984 12.2188 35.1984 17.0188 35.1984 23.0188C35.1984 29.0187 30.2984 33.9188 24.2984 33.9188ZM24.2984 14.2188C19.3984 14.2188 15.3984 18.2188 15.3984 23.1188C15.3984 28.0188 19.3984 32.0187 24.2984 32.0187C29.1984 32.0187 33.1984 28.0188 33.1984 23.1188C33.1984 18.2188 29.1984 14.2188 24.2984 14.2188Z" fill="#FDDA24"/>
<path d="M27.2992 26.7195C26.7992 27.2195 26.0992 27.5195 25.2992 27.7195V28.5195C25.2992 28.7195 25.1992 28.9195 25.0992 29.1195C24.9992 29.2195 24.7992 29.3195 24.4992 29.3195C24.2992 29.3195 24.0992 29.2195 23.8992 29.1195C23.6992 29.0195 23.6992 28.8195 23.6992 28.5195V27.8195C23.1992 27.8195 22.6992 27.7195 22.2992 27.5195C21.7992 27.3195 21.3992 27.1195 21.0992 26.9195C20.9992 26.8195 20.8992 26.7195 20.7992 26.6195C20.6992 26.5195 20.6992 26.3195 20.6992 26.2195C20.6992 26.0195 20.7992 25.8195 20.8992 25.6195C20.9992 25.4195 21.1992 25.3195 21.3992 25.3195C21.5992 25.3195 21.7992 25.4195 21.9992 25.5195C22.3992 25.7195 22.7992 25.9195 23.1992 26.0195C23.5992 26.1195 23.9992 26.2195 24.3992 26.2195C24.8992 26.2195 25.3992 26.1195 25.5992 25.9195C25.8992 25.7195 25.9992 25.4195 25.9992 25.0195C25.9992 24.8195 25.8992 24.6195 25.7992 24.4195C25.6992 24.2195 25.3992 24.1195 25.1992 24.1195C24.9992 24.0195 24.5992 23.9195 24.1992 23.8195C23.4992 23.6195 22.9992 23.5195 22.5992 23.3195C22.1992 23.1195 21.7992 22.9195 21.4992 22.5195C21.1992 22.1195 20.9992 21.6195 20.9992 21.0195C20.9992 20.3195 21.2992 19.7195 21.7992 19.1195C22.2992 18.6195 22.9992 18.2195 23.7992 18.1195V17.3195C23.7992 17.1195 23.8992 16.9195 23.9992 16.7195C24.1992 16.6195 24.2992 16.5195 24.5992 16.5195C24.7992 16.5195 24.9992 16.6195 25.1992 16.7195C25.2992 16.8195 25.3992 17.0195 25.3992 17.3195V18.0195C26.1992 18.1195 26.9992 18.4195 27.6992 18.9195C27.7992 19.0195 27.8992 19.1195 27.9992 19.2195C28.0992 19.3195 28.0992 19.5195 28.0992 19.6195C28.0992 19.8195 27.9992 20.0195 27.8992 20.2195C27.7992 20.4195 27.5992 20.5195 27.3992 20.5195C27.2992 20.5195 27.1992 20.5195 27.0992 20.5195C26.9992 20.5195 26.8992 20.4195 26.6992 20.3195C26.2992 20.1195 25.9992 19.9195 25.6992 19.8195C25.3992 19.7195 25.0992 19.6195 24.5992 19.6195C24.0992 19.6195 23.6992 19.7195 23.3992 19.9195C23.0992 20.1195 22.9992 20.4195 22.9992 20.8195C22.9992 21.1195 23.0992 21.3195 23.2992 21.4195C23.4992 21.6195 23.6992 21.7195 23.8992 21.8195C24.1992 21.9195 24.4992 22.0195 24.9992 22.1195C25.6992 22.3195 26.1992 22.4195 26.5992 22.6195C26.9992 22.8195 27.3992 23.0195 27.6992 23.4195C27.9992 23.8195 28.1992 24.2195 28.1992 24.9195C27.9992 25.6195 27.7992 26.2195 27.2992 26.7195Z" fill="#00C389"/>
<path d="M8 22.4187C7.4 22.4187 7 22.0188 7 21.4187V13.2188C7 12.6187 7.4 12.2188 8 12.2188C8.6 12.2188 9 12.6187 9 13.2188V21.5188C9 22.0188 8.6 22.4187 8 22.4187Z" fill="#F5B6CD"/>
<path d="M11.8002 35.318C11.5002 35.318 11.2002 35.118 11.0002 34.818C6.90022 28.518 7.00022 21.718 7.00022 21.418C7.00022 20.818 7.50022 20.418 8.00022 20.418C8.60022 20.418 9.00022 20.918 9.00022 21.418C9.00022 21.518 8.90022 27.918 12.6002 33.718C12.9002 34.218 12.8002 34.818 12.3002 35.118C12.2002 35.218 12.0002 35.318 11.8002 35.318Z" fill="#FF7F41"/>
<path d="M24.3008 44.0188C24.2008 44.0188 24.1008 44.0188 24.0008 44.0188C18.4008 42.5188 14.0008 39.4187 11.0008 34.8187C10.7008 34.3187 10.8008 33.7187 11.3008 33.4187C11.8008 33.1187 12.4008 33.2188 12.7008 33.7188C15.4008 37.9188 19.4008 40.7188 24.6008 42.0188C25.1008 42.1188 25.5008 42.7188 25.3008 43.2188C25.2008 43.7188 24.8008 44.0188 24.3008 44.0188Z" fill="#9063CD"/>
<path d="M24.3004 44.0203C23.9004 44.0203 23.4004 43.7203 23.3004 43.3203C23.2004 42.8203 23.5004 42.2203 24.0004 42.1203C29.2004 40.7203 33.2004 38.0203 35.9004 33.8203C36.2004 33.3203 36.8004 33.2203 37.3004 33.5203C37.8004 33.8203 37.9004 34.4203 37.6004 34.9203C34.6004 39.5203 30.2004 42.6203 24.5004 44.1203C24.5004 44.0203 24.4004 44.0203 24.3004 44.0203Z" fill="#00C389"/>
<path d="M36.8008 35.3211C36.6008 35.3211 36.4008 35.2211 36.3008 35.1211C35.8008 34.8211 35.7008 34.2211 36.0008 33.7211C39.7008 27.9211 39.6008 21.5211 39.6008 21.4211V19.6211C39.6008 19.0211 40.0008 18.6211 40.6008 18.6211C41.2008 18.6211 41.6008 19.0211 41.6008 19.6211V21.4211C41.6008 21.7211 41.7008 28.5211 37.6008 34.8211C37.5008 35.1211 37.2008 35.3211 36.8008 35.3211Z" fill="#59CBE8"/>
<path d="M40.7016 20.619C40.1016 20.619 39.7016 20.219 39.7016 19.619V14.019C37.3016 13.519 35.6016 11.419 35.6016 9.019C35.6016 8.619 35.7016 8.219 35.8016 7.819C35.9016 7.319 36.5016 6.919 37.0016 7.119C37.5016 7.219 37.9016 7.819 37.7016 8.319C37.6016 8.619 37.6016 8.819 37.6016 9.019C37.6016 10.719 39.0016 12.119 40.7016 12.119C41.3016 12.119 41.7016 12.519 41.7016 13.119V19.619C41.7016 20.219 41.2016 20.619 40.7016 20.619Z" fill="#F5B6CD"/>
<path d="M36.6003 9.01933C36.5003 9.01933 36.4003 9.01933 36.4003 9.01933L24.1003 6.01933C23.6003 5.91933 23.2003 5.31933 23.4003 4.81933C23.6003 4.31933 24.0003 3.91933 24.6003 4.01933L36.9003 7.01933C37.4003 7.11933 37.8003 7.71933 37.6003 8.21933C37.5003 8.71933 37.1003 9.01933 36.6003 9.01933Z" fill="#FF7F41"/>
<path d="M11.9994 9.01916C11.5994 9.01916 11.1994 8.71916 10.9994 8.31916C10.8994 7.71916 11.1994 7.21916 11.7994 7.01916L24.0994 4.01916C24.5994 3.91916 25.1994 4.21916 25.2994 4.71916C25.3994 5.21916 25.0994 5.81916 24.5994 6.01916L12.2994 9.01916C12.1994 9.01916 12.0994 9.01916 11.9994 9.01916Z" fill="#9063CD"/>
<path d="M8 14.2189C7.4 14.2189 7 13.8189 7 13.2189C7 12.6189 7.4 12.2189 8 12.2189C9.7 12.2189 11.1 10.8189 11.1 9.11895C11.1 8.91895 11.1 8.61895 11 8.41895C10.9 7.71895 11.2 7.21895 11.8 7.01895C12.3 6.91895 12.9 7.21895 13 7.81895C13.1 8.21895 13.1 8.61895 13.1 9.01895C13.1 11.8189 10.8 14.2189 8 14.2189Z" fill="#F5B6CD"/>
</svg>
