<svg width="48" height="48" viewBox="0 0 48 48" fill="none" xmlns="http://www.w3.org/2000/svg">
<path fill-rule="evenodd" clip-rule="evenodd" d="M7.87897 33.1846C8.32936 33.5042 8.43536 34.1284 8.11573 34.5788L5.96024 37.6161L5.89465 37.7473C5.64765 38.2413 5.04698 38.4415 4.553 38.1945C4.05903 37.9475 3.8588 37.3468 4.10579 36.8529L4.20579 36.6529C4.22869 36.6071 4.25508 36.5631 4.28471 36.5213L6.48471 33.4213C6.80435 32.9709 7.42857 32.8649 7.87897 33.1846Z" fill="#FDDA24"/>
<path fill-rule="evenodd" clip-rule="evenodd" d="M5.98455 37.1247C5.90136 36.6564 5.49221 36.3008 5 36.3008C4.44772 36.3008 4 36.7485 4 37.3008H5C4 37.3008 4 37.3029 4.00001 37.3051L4.00004 37.3094L4.00015 37.3184L4.00064 37.3371C4.00108 37.35 4.00177 37.3636 4.00278 37.378C4.00479 37.4067 4.00803 37.4383 4.01296 37.4726C4.02285 37.5412 4.0394 37.6197 4.0659 37.7063C4.11936 37.8809 4.21054 38.0792 4.35805 38.2893C4.65252 38.7089 5.14985 39.1464 5.96213 39.5561C7.56429 40.3643 10.5585 41.1477 16.2558 41.3998C16.8075 41.4242 17.2746 40.9967 17.299 40.445C17.3234 39.8932 16.8959 39.4262 16.3442 39.4018C10.7415 39.1539 8.08571 38.3873 6.86287 37.7704C6.26265 37.4677 6.05373 37.2239 5.99508 37.1404C5.99095 37.1345 5.98746 37.1292 5.98455 37.1247Z" fill="#59CBE8"/>
<path fill-rule="evenodd" clip-rule="evenodd" d="M26.6008 36.3984C27.1531 36.3984 27.6008 36.8462 27.6008 37.3984H26.6008C27.6008 37.3984 27.6008 37.3995 27.6008 37.4006L27.6008 37.4029L27.6007 37.4076L27.6006 37.4181L27.5999 37.4427C27.5993 37.4607 27.5982 37.4819 27.5965 37.5062C27.5929 37.5546 27.5866 37.6153 27.5754 37.6864C27.5532 37.8286 27.5115 38.0135 27.4337 38.2262C27.2765 38.6563 26.9775 39.1832 26.4245 39.6874C25.3192 40.6952 23.3332 41.4984 19.8008 41.4984C19.1763 41.4984 18.5557 41.4724 17.9708 41.4475L17.9432 41.4464C17.3608 41.4216 16.8173 41.3984 16.3008 41.3984C15.7485 41.3984 15.3008 40.9507 15.3008 40.3984C15.3008 39.8462 15.7485 39.3984 16.3008 39.3984C16.8605 39.3984 17.441 39.4232 18.0081 39.4473C18.024 39.448 18.0399 39.4487 18.0558 39.4493C18.6459 39.4745 19.2253 39.4984 19.8008 39.4984C23.0683 39.4984 24.4824 38.7517 25.077 38.2095C25.374 37.9387 25.5001 37.6905 25.5553 37.5394C25.5838 37.4615 25.5953 37.4042 25.5996 37.3768C25.6004 37.3712 25.601 37.3668 25.6014 37.3639C25.6196 36.8276 26.06 36.3984 26.6008 36.3984Z" fill="#F5B6CD"/>
<path fill-rule="evenodd" clip-rule="evenodd" d="M25.6317 37.0585C25.7652 36.5243 26.3053 36.1989 26.8395 36.3297L26.8465 36.3313C26.8556 36.3333 26.8732 36.3372 26.9 36.3427C26.9536 36.3536 27.0436 36.3708 27.1745 36.3923C27.4365 36.4353 27.8615 36.4951 28.4859 36.5557C29.7353 36.677 31.7774 36.801 34.9018 36.801C35.4541 36.801 35.9018 37.2487 35.9018 37.801C35.9018 38.3533 35.4541 38.801 34.9018 38.801C31.7262 38.801 29.6183 38.675 28.2927 38.5463C27.6296 38.482 27.1608 38.4168 26.851 38.366C26.696 38.3406 26.5805 38.3187 26.5001 38.3023C26.4599 38.2941 26.4284 38.2872 26.4051 38.282L26.3763 38.2753L26.3663 38.2729L26.3624 38.2719L26.3608 38.2715L26.36 38.2713C26.3596 38.2712 26.3593 38.2712 26.6018 37.301L26.3593 38.2712C25.8235 38.1372 25.4977 37.5943 25.6317 37.0585Z" fill="#FDDA24"/>
<path fill-rule="evenodd" clip-rule="evenodd" d="M43.4265 33.0965C43.9256 33.3329 44.1386 33.9292 43.9022 34.4283L42.9984 34.0002C43.9022 34.4283 43.9019 34.4289 43.9016 34.4296L43.901 34.4309L43.8996 34.4338L43.8962 34.4407L43.8874 34.4587C43.8805 34.4724 43.8716 34.4898 43.8606 34.5105C43.8387 34.5519 43.8085 34.6067 43.7693 34.673C43.6908 34.8056 43.5759 34.9845 43.4187 35.194C43.1045 35.6129 42.6202 36.1558 41.9199 36.6935C40.5059 37.7789 38.2664 38.8002 34.8984 38.8002C34.3462 38.8002 33.8984 38.3525 33.8984 37.8002C33.8984 37.2479 34.3462 36.8002 34.8984 36.8002C37.8305 36.8002 39.641 35.9215 40.702 35.107C41.2392 34.6946 41.5986 34.2875 41.8188 33.994C41.9288 33.8472 42.0038 33.7293 42.0483 33.654C42.0706 33.6164 42.0852 33.5896 42.0927 33.5753L42.0985 33.5642C42.3375 33.0708 42.9301 32.8613 43.4265 33.0965Z" fill="#59CBE8"/>
<path fill-rule="evenodd" clip-rule="evenodd" d="M23.5045 24.8056C24.0542 24.752 24.5433 25.1541 24.5969 25.7038L24.9638 29.464L26.3298 30.9155C26.4562 31.0498 26.543 31.2164 26.5806 31.3969L27.5806 36.1969C27.5946 36.264 27.6016 36.3323 27.6016 36.4009V37.3009C27.6016 37.8531 27.1539 38.3009 26.6016 38.3009C26.0493 38.3009 25.6016 37.8531 25.6016 37.3009V36.5039L24.6802 32.0809L23.2734 30.5862C23.1218 30.4251 23.0278 30.2182 23.0064 29.998L22.6064 25.898C22.5527 25.3483 22.9549 24.8592 23.5045 24.8056Z" fill="#FF7F41"/>
<path fill-rule="evenodd" clip-rule="evenodd" d="M38.9699 23.424C39.3981 23.0752 40.028 23.1394 40.3768 23.5676L42.5768 26.2676C42.6861 26.4017 42.7588 26.562 42.7876 26.7326L43.9876 33.8326C44.0796 34.3772 43.7128 34.8932 43.1682 34.9853C42.6237 35.0773 42.1076 34.7105 42.0156 34.1659L40.8596 27.3262L38.8264 24.8309C38.4775 24.4028 38.5418 23.7729 38.9699 23.424Z" fill="#F5B6CD"/>
<path fill-rule="evenodd" clip-rule="evenodd" d="M33.0679 15.7403C33.2676 15.2254 33.8469 14.9698 34.3618 15.1695L39.2618 17.0695C39.6087 17.204 39.8522 17.5199 39.894 17.8896L40.594 24.0896C40.6559 24.6384 40.2613 25.1336 39.7125 25.1955C39.1637 25.2575 38.6685 24.8628 38.6066 24.314L37.9745 18.7154L33.6387 17.0342C33.1238 16.8345 32.8682 16.2552 33.0679 15.7403Z" fill="#FF7F41"/>
<path fill-rule="evenodd" clip-rule="evenodd" d="M28.21 8.1933C28.6555 7.86697 29.2813 7.96363 29.6076 8.4092L34.8076 15.5092C35.1339 15.9548 35.0373 16.5805 34.5917 16.9068C34.1462 17.2332 33.5204 17.1365 33.1941 16.6909L27.9941 9.59094C27.6678 9.14537 27.7644 8.51963 28.21 8.1933Z" fill="#9063CD"/>
<path fill-rule="evenodd" clip-rule="evenodd" d="M23.2511 7.16523C23.471 7.02014 23.7394 6.96774 23.9978 7.01942L28.9978 8.01942C29.5393 8.12774 29.8906 8.65456 29.7823 9.19612C29.6739 9.73768 29.1471 10.0889 28.6056 9.98058L24.0089 9.06125L19.6523 11.9348C19.1912 12.2389 18.571 12.1116 18.2669 11.6506C17.9628 11.1896 18.09 10.5693 18.5511 10.2652L23.2511 7.16523Z" fill="#00C389"/>
<path fill-rule="evenodd" clip-rule="evenodd" d="M27.8212 13.1228C28.3057 12.8578 28.9133 13.0358 29.1783 13.5204L32.6783 19.9204C32.9433 20.4049 32.7653 21.0126 32.2808 21.2776C31.7962 21.5426 31.1886 21.3646 30.9236 20.88L27.4236 14.48C27.1586 13.9954 27.3366 13.3878 27.8212 13.1228Z" fill="#FDDA24"/>
<path fill-rule="evenodd" clip-rule="evenodd" d="M23.9473 12.5909C24.1173 12.0654 24.6811 11.7773 25.2065 11.9473L28.6065 13.0473C29.132 13.2173 29.4202 13.7811 29.2502 14.3065C29.0801 14.832 28.5164 15.1202 27.9909 14.9502L24.5909 13.8502C24.0654 13.6801 23.7773 13.1164 23.9473 12.5909Z" fill="#FF7F41"/>
<path fill-rule="evenodd" clip-rule="evenodd" d="M19.4012 10.1479C19.928 10.3137 20.2207 10.8751 20.055 11.4019L17.255 20.3019C17.0892 20.8288 16.5278 21.1215 16.0009 20.9557C15.4741 20.79 15.1814 20.2286 15.3471 19.7017L18.1471 10.8017C18.3129 10.2749 18.8743 9.98218 19.4012 10.1479Z" fill="#FDDA24"/>
<path fill-rule="evenodd" clip-rule="evenodd" d="M12.8857 18.496C13.1081 17.9904 13.6983 17.7609 14.2038 17.9834L16.7038 19.0834C16.8316 19.1396 16.9462 19.222 17.0402 19.3252L20.9875 23.6576L23.9774 24.8722C24.4891 25.0801 24.7354 25.6634 24.5275 26.1751C24.3196 26.6867 23.7363 26.933 23.2247 26.7252L20.0247 25.4252C19.8863 25.369 19.7624 25.2825 19.6618 25.1722L15.7045 20.8287L13.3983 19.814C12.8928 19.5916 12.6633 19.0015 12.8857 18.496Z" fill="#9063CD"/>
<path fill-rule="evenodd" clip-rule="evenodd" d="M14.4839 18.1696C14.8864 18.5477 14.9062 19.1806 14.5281 19.5831L11.6522 22.6445L11.217 26.2134L11.958 28.7144C12.1149 29.2439 11.8128 29.8003 11.2833 29.9572C10.7538 30.1141 10.1973 29.8121 10.0404 29.2825L9.24042 26.5825C9.20152 26.4512 9.18999 26.3133 9.20657 26.1774L9.70657 22.0774C9.73232 21.8662 9.82473 21.6688 9.97037 21.5138L13.0704 18.2138C13.4485 17.8112 14.0814 17.7915 14.4839 18.1696Z" fill="#00C389"/>
<path fill-rule="evenodd" clip-rule="evenodd" d="M11.8953 28.553C12.1423 29.047 11.942 29.6477 11.4481 29.8946L8.5463 31.3455L8.29674 34.0908C8.24674 34.6408 7.76033 35.0461 7.21031 34.9961C6.66029 34.9461 6.25495 34.4597 6.30495 33.9097L6.60495 30.6097C6.63631 30.2648 6.84388 29.9607 7.15363 29.8058L10.5536 28.1058C11.0476 27.8588 11.6483 28.059 11.8953 28.553Z" fill="#FDDA24"/>
</svg>
