<svg width="78" height="78" viewBox="0 0 78 78" fill="none" xmlns="http://www.w3.org/2000/svg">
<path d="M69.1947 29.7923C71.3823 36.7187 71.1012 44.1892 68.3992 50.9316C65.6972 57.6739 60.7414 63.2711 54.376 66.7698" stroke="#00C389" stroke-width="3.69444" stroke-linecap="round"/>
<path d="M56.2319 65.6649C52.2937 68.1968 47.8391 69.816 43.1943 70.4041C38.5495 70.9921 33.8319 70.5342 29.3869 69.0637C24.9419 67.5931 20.882 65.1473 17.5043 61.9052C14.1266 58.6631 11.5166 54.7068 9.86526 50.3257" stroke="#59CBE8" stroke-width="3.69444" stroke-linecap="round"/>
<path d="M9.537 49.4123C8.20247 45.5103 7.64955 41.3837 7.90983 37.268C8.17011 33.1524 9.23847 29.1283 11.0539 25.4255C12.8694 21.7228 15.3964 18.4138 18.4906 15.6877C21.5849 12.9615 25.1858 10.8715 29.0878 9.53698" stroke="#F5B6CD" stroke-width="3.69444" stroke-linecap="round"/>
<path d="M27.7662 10.0223C31.9998 8.35889 36.5443 7.63505 41.0853 7.9009C45.6262 8.16674 50.0552 9.41592 54.0659 11.562C58.0765 13.7081 61.573 16.6999 64.3135 20.3304C67.0541 23.9608 68.9732 28.1433 69.9381 32.5885" stroke="#FDDA24" stroke-width="3.69444" stroke-linecap="round"/>
<path d="M37.4316 18.9366C37.4316 17.9322 38.2458 17.118 39.2502 17.118V17.118C40.2545 17.118 41.0687 17.9322 41.0687 18.9366V39.2638C41.0687 40.2681 40.2545 41.0823 39.2502 41.0823V41.0823C38.2458 41.0823 37.4316 40.2681 37.4316 39.2638V18.9366Z" fill="#9063CD"/>
<path d="M50.4558 47.8754C51.166 48.5855 51.166 49.737 50.4558 50.4471V50.4471C49.7456 51.1573 48.5942 51.1573 47.884 50.4471L38.7691 41.3322C38.0589 40.622 38.0589 39.4706 38.7691 38.7604V38.7604C39.4793 38.0502 40.6307 38.0502 41.3409 38.7604L50.4558 47.8754Z" fill="#FF7F41"/>
</svg>
