<svg fill="none" height="626" viewBox="0 0 626 626" width="626" xmlns="http://www.w3.org/2000/svg"><g clip-rule="evenodd" fill-rule="evenodd"><path d="m543.533 572.304h-450.7518v-98.877c0-54.364 44.2398-98.603 98.6018-98.603l10.591.028c19.122.053 37.775 9.493 51.228 25.835 16.011 19.558 39.671 30.756 64.955 30.756 25.256 0 48.887-11.17 64.899-30.674 13.647-16.563 31.749-25.67 51.036-25.67h15.9c52.796 2.971 93.541 46.166 93.541 98.328zm-422.58-28.171h394.406v-70.706c0-37.249-29.051-68.065-66.165-70.181l-15.102.023c-14.445 0-24.542 9.633-29.273 15.381-21.35 26.026-52.961 40.966-86.662 40.966-33.757 0-65.369-14.965-86.745-41.075-8.199-9.96-18.681-15.489-29.547-15.516l-10.482-.029c-38.847 0-70.43 31.584-70.43 70.431z" fill="#fdda24"/><path d="m318.157 375.156c-77.72 0-112.688-90.981-112.688-155.58v-41.679c0-62.149 50.54-112.689 112.688-112.689 62.149 0 112.687 50.54 112.687 112.689v41.679c0 64.599-34.966 155.58-112.687 155.58m0-281.7749c-46.605 0-84.515 37.9119-84.515 84.5159v41.679c0 41.57 20.659 127.407 84.515 127.407 63.855 0 84.516-85.837 84.516-127.407v-41.679c0-46.604-37.911-84.5159-84.516-84.5159" fill="#fdda24"/><path d="m304.303 558.215c0-7.775 6.303-14.078 14.078-14.078h163.88c7.775 0 14.078 6.303 14.078 14.078s-6.303 14.078-14.078 14.078h-163.88c-7.775 0-14.078-6.303-14.078-14.078z" fill="#9063cd"/><path d="m517.024 426.833c7.133-3.093 15.423.182 18.516 7.315 5.229 12.059 8.109 25.362 8.109 39.308v98.837h-61.387c-7.775 0-14.078-6.303-14.078-14.078s6.303-14.078 14.078-14.078h33.232v-70.681c0-10.042-2.069-19.535-5.786-28.106-3.093-7.134.183-15.424 7.316-18.517z" fill="#f5b6cd"/><path d="m405.026 418.708c8.045-9.789 18.464-15.367 29.237-15.367zm-21.753-17.877c12.131-14.76 29.988-25.646 50.99-25.646h16.301l.4.023c38.095 2.17 70.19 25.762 84.576 58.94 3.092 7.134-.183 15.424-7.316 18.517-7.134 3.093-15.424-.183-18.517-7.316-10.215-23.561-32.933-40.324-59.962-42.008h-15.482m-29.237 15.367c-10.558 12.846-23.958 23.306-39.225 30.437-7.044 3.291-15.422.248-18.713-6.797-3.291-7.044-.247-15.422 6.797-18.713 11.435-5.342 21.482-13.184 29.388-22.804" fill="#ff7f41"/><path d="m188.106 388.949c.03-7.775 6.358-14.053 14.133-14.023 21.015.083 39.015 10.99 51.196 25.842l-10.886 8.927 10.886-8.927c15.383 18.756 38.853 30.733 64.947 30.733 12.676 0 24.711-2.823 35.5-7.866 7.044-3.291 15.423-.25 18.715 6.794 3.292 7.043.25 15.422-6.793 18.714-14.432 6.745-30.527 10.514-47.422 10.514-34.864 0-66.203-16.021-86.718-41.034-8.058-9.825-18.641-15.498-29.536-15.541-7.775-.03-14.053-6.358-14.022-14.133z" fill="#00c389"/><path d="m191.668 403.058c-38.97 0-70.399 31.43-70.399 70.398v53.222c0 7.775-6.303 14.078-14.078 14.078-7.7748 0-14.0777-6.303-14.0777-14.078v-53.222c0-54.519 44.0357-98.554 98.5547-98.554.381 0 4.587 0 10.571.024 7.775.031 14.053 6.358 14.022 14.133-.03 7.775-6.358 14.053-14.133 14.023-5.932-.024-10.097-.024-10.459-.024z" fill="#fdda24"/><path d="m318.382 93.5937c-32.396 0-60.555 18.2293-74.739 45.0563-3.635 6.874-12.153 9.5-19.026 5.865-6.874-3.634-9.499-12.152-5.865-19.025 18.868-35.6856 56.392-60.0523 99.63-60.0523 14.496 0 28.383 2.7465 41.146 7.7561 7.238 2.8407 10.802 11.0108 7.961 18.2483s-11.011 10.8019-18.248 7.961c-9.541-3.7451-19.943-5.8094-30.859-5.8094zm-211.191 419.0063c7.775 0 14.078 6.303 14.078 14.078v17.459h197.113c7.775 0 14.078 6.303 14.078 14.078s-6.303 14.078-14.078 14.078h-225.2687v-45.615c0-7.775 6.3029-14.078 14.0777-14.078z" fill="#59cbe8"/><path d="m237.778 119.625c6.873 3.635 9.499 12.153 5.864 19.026-6.214 11.754-9.738 25.153-9.738 39.421v41.664c0 4.846.252 10.083.783 15.588.746 7.739-4.922 14.618-12.661 15.364-7.74.746-14.618-4.922-15.365-12.662-.611-6.341-.913-12.482-.913-18.29v-41.664c0-18.963 4.696-36.87 13.004-52.582 3.635-6.873 12.153-9.499 19.026-5.865z" fill="#ff7f41"/><path d="m219.323 222.662c7.739-.746 14.618 4.923 15.365 12.662 3.046 31.58 14.85 68.551 36.437 90.954 5.395 5.599 5.23 14.511-.369 19.906s-14.511 5.23-19.906-.369c-27.754-28.804-40.83-72.977-44.188-107.788-.747-7.739 4.922-14.618 12.661-15.365z" fill="#f5b6cd"/><path d="m399.241 302.177c6.695 3.953 8.918 12.585 4.965 19.281-17.362 29.407-45.262 53.762-85.825 53.762-28.226 0-50.664-11.902-67.53-29.404-5.395-5.598-5.23-14.51.368-19.906 5.599-5.395 14.511-5.23 19.906.368 12.384 12.851 27.791 20.786 47.256 20.786 27.314 0 47.351-15.822 61.58-39.921 3.953-6.695 12.585-8.919 19.28-4.966z" fill="#00c389"/><path d="m416.938 163.994c7.775 0 14.078 6.303 14.078 14.078v41.663c0 29.665-7.915 69.721-26.809 101.723-3.953 6.695-12.585 8.918-19.28 4.965s-8.919-12.585-4.966-19.28c15.837-26.823 22.899-61.7 22.899-87.408v-41.663c0-7.775 6.303-14.078 14.078-14.078z" fill="#fdda24"/><path d="m341.28 81.1544c2.842-7.2373 11.012-10.8007 18.249-7.9593 41.831 16.4235 71.486 57.1669 71.486 104.8769 0 7.775-6.302 14.078-14.077 14.078-7.776 0-14.078-6.303-14.078-14.078 0-35.745-22.203-66.334-53.62-78.6686-7.238-2.8414-10.801-11.0118-7.96-18.249z" fill="#9063cd"/></g></svg>