<svg width="1080" height="1080" viewBox="0 0 1080 1080" fill="none" xmlns="http://www.w3.org/2000/svg">
<path d="M293 824.934C293 751.434 352.5 691.934 426 691.934C499.5 691.934 559 751.434 559 824.934" fill="#00C389"/>
<path d="M403.801 824.933C403.801 703.333 502.401 604.633 624.101 604.633C745.801 604.633 844.401 703.233 844.401 824.933" fill="#00C389"/>
<path d="M822.298 853.034C817.498 853.034 812.698 851.234 808.998 847.734C765.198 805.534 732.998 746.234 720.498 684.834C718.398 674.434 725.098 664.334 735.498 662.334C745.898 660.234 755.998 666.934 757.998 677.334C768.898 731.234 797.198 783.334 835.498 820.334C843.098 827.634 843.298 839.734 835.998 847.334C832.298 851.134 827.298 853.034 822.298 853.034Z" fill="#9063CD"/>
<path d="M506.899 520.835C502.699 520.835 498.799 518.035 497.699 513.835C496.299 508.735 499.299 503.435 504.399 502.035C541.999 491.735 575.399 468.735 598.499 437.335C601.599 433.035 607.599 432.135 611.899 435.335C616.199 438.435 617.099 444.435 613.899 448.735C588.299 483.635 551.199 509.135 509.399 520.535C508.599 520.735 507.699 520.835 506.899 520.835Z" fill="#F5B6CD"/>
<path d="M697.253 266.801C718.199 246.751 720.287 214.94 701.918 195.749C683.548 176.559 651.677 177.256 630.731 197.306C609.785 217.356 607.696 249.166 626.066 268.357C644.435 287.547 676.307 286.851 697.253 266.801Z" fill="#E4AC7B"/>
<path d="M874.5 916.834C871.3 916.834 868.1 916.034 865.1 914.334C807.9 882.034 760.2 831.834 730.8 773.034C701.4 714.234 690 645.934 698.5 580.834C699.9 570.334 709.5 562.934 720 564.334C730.5 565.734 737.9 575.334 736.5 585.834C728.9 643.534 739.1 703.934 765.1 756.034C791.1 808.134 833.3 852.534 884 881.134C893.2 886.334 896.4 898.034 891.2 907.234C887.7 913.334 881.2 916.834 874.5 916.834Z" fill="#F5B6CD"/>
<path d="M717.9 917.534C709.3 917.534 701.4 911.634 699.3 902.834C685.4 844.834 671.6 791.034 658.3 739.034C644.9 686.834 631.1 632.934 617.1 574.634C614.6 564.334 621 554.034 631.2 551.534C641.5 549.034 651.8 555.434 654.3 565.634C668.2 623.634 682 677.434 695.3 729.434C708.7 781.634 722.5 835.534 736.5 893.834C739 904.134 732.6 914.434 722.4 916.934C720.9 917.334 719.4 917.534 717.9 917.534Z" fill="#FDDA24"/>
<path d="M646.002 690.536L593.602 497.336C663.702 500.236 677.902 490.336 742.902 516.636C807.902 543.036 861.402 622.836 872.002 692.136" fill="#2C2A29"/>
<path d="M593.501 497.733C587.101 469.833 580.701 441.633 581.601 413.033C582.501 384.433 591.501 355.033 611.901 335.033C634.601 312.933 668.401 305.333 700.001 307.733C731.601 310.133 739.301 313.133 769.001 324.333L687.501 500.033" fill="#59CBE8"/>
<path d="M589.1 593.936C584.1 593.936 579.2 592.036 575.5 588.236C568.1 580.736 568.2 568.636 575.7 561.136C634.6 503.236 677.2 427.336 695.6 347.536C698 337.236 708.2 330.836 718.5 333.136C728.8 335.536 735.2 345.736 732.9 356.036C722.9 399.636 706.5 441.836 684.2 481.436C662 520.936 634.5 556.836 602.5 588.336C598.8 592.136 593.9 593.936 589.1 593.936Z" fill="#F5B6CD"/>
<path d="M551.099 592.132C548.199 592.132 545.399 590.832 543.499 588.432C540.299 584.232 541.099 578.232 545.299 575.032C575.699 551.732 601.399 523.432 621.699 491.132C624.499 486.632 630.399 485.332 634.899 488.132C639.399 490.932 640.699 496.832 637.899 501.332C616.399 535.632 589.199 565.632 556.899 590.332C555.199 591.432 553.199 592.132 551.099 592.132Z" fill="#FDDA24"/>
<path d="M461.3 468.836C460.3 468.836 459.2 468.536 458.3 467.936L389.7 424.636H223C202.6 424.636 186 408.036 186 387.636V219.336C186 198.936 202.6 182.336 223 182.336H391.4C411.8 182.336 428.4 198.936 428.4 219.336V386.336L466.3 460.736C467.4 462.936 466.9 465.636 465.1 467.336C464 468.336 462.7 468.836 461.3 468.836ZM223 193.436C208.7 193.436 197.1 205.036 197.1 219.336V387.736C197.1 402.036 208.7 413.636 223 413.636H391.4C392.4 413.636 393.5 413.936 394.4 414.536L447.3 447.936L417.9 390.336C417.5 389.536 417.3 388.736 417.3 387.836V219.336C417.3 205.036 405.7 193.436 391.4 193.436H223Z" fill="#FDDA24"/>
<path d="M343.1 367.237C320.7 367.237 302.5 349.037 302.5 326.637V308.637C302.5 306.137 304.5 304.137 307 304.137C309.5 304.137 311.5 306.137 311.5 308.637V326.637C311.5 344.037 325.7 358.137 343 358.137C345.5 358.137 347.5 360.137 347.5 362.637C347.5 365.137 345.5 367.237 343.1 367.237Z" fill="#FDDA24"/>
<path d="M357.999 262.234C356.799 262.234 355.699 261.834 354.799 260.934C328.399 234.534 285.599 234.534 259.199 260.934C257.399 262.734 254.599 262.734 252.799 260.934C250.999 259.134 250.999 256.334 252.799 254.534C282.699 224.634 331.299 224.634 361.199 254.534C362.999 256.334 362.999 259.134 361.199 260.934C360.299 261.734 359.099 262.234 357.999 262.234Z" fill="#FDDA24"/>
<path d="M270.898 340.237C268.398 340.237 266.398 338.237 266.398 335.737V308.737C266.398 286.337 284.598 268.137 306.998 268.137C329.398 268.137 347.598 286.337 347.598 308.737V326.737C347.598 329.237 345.598 331.237 343.098 331.237C340.598 331.237 338.598 329.237 338.598 326.737V308.737C338.598 291.337 324.398 277.237 307.098 277.237C289.798 277.237 275.598 291.437 275.598 308.737V335.737C275.498 338.237 273.398 340.237 270.898 340.237Z" fill="#00C389"/>
<path d="M252.898 367.234C250.398 367.234 248.398 365.234 248.398 362.734V308.634C248.398 283.834 264.098 261.634 287.498 253.334C289.798 252.534 292.398 253.734 293.298 256.034C294.098 258.334 292.898 260.934 290.598 261.834C270.798 268.834 257.598 287.634 257.598 308.634V362.734C257.398 365.234 255.398 367.234 252.898 367.234Z" fill="#59CBE8"/>
<path d="M361.1 313.237C358.6 313.237 356.6 311.237 356.6 308.737C356.6 281.437 334.4 259.137 307 259.137C304.5 259.137 302.5 257.137 302.5 254.637C302.5 252.137 304.5 250.137 307 250.137C339.3 250.137 365.6 276.437 365.6 308.737C365.6 311.137 363.6 313.237 361.1 313.237Z" fill="#59CBE8"/>
<path d="M343.098 349.234C330.698 349.234 320.598 339.134 320.598 326.734V308.734C320.598 301.234 314.498 295.234 307.098 295.234C299.698 295.234 293.598 301.334 293.598 308.734C293.598 311.234 291.598 313.234 289.098 313.234C286.598 313.234 284.598 311.234 284.598 308.734C284.598 296.334 294.698 286.234 307.098 286.234C319.498 286.234 329.598 296.334 329.598 308.734V326.734C329.598 334.234 335.698 340.234 343.098 340.234C350.498 340.234 356.598 334.134 356.598 326.734C356.598 324.234 358.598 322.234 361.098 322.234C363.598 322.234 365.598 324.234 365.598 326.734C365.598 339.134 355.498 349.234 343.098 349.234Z" fill="#F5B6CD"/>
<path d="M289 367.237C286.5 367.237 284.5 365.237 284.5 362.737V326.637C284.5 324.137 286.5 322.137 289 322.137C291.5 322.137 293.5 324.137 293.5 326.637V362.737C293.5 365.237 291.5 367.237 289 367.237Z" fill="#9063CD"/>
<path d="M225.898 250.135C223.398 250.135 221.398 248.135 221.398 245.635V232.035C221.398 222.135 229.498 214.035 239.398 214.035H252.898C255.398 214.035 257.398 216.035 257.398 218.535C257.398 221.035 255.398 223.035 252.898 223.035H239.398C234.398 223.035 230.398 227.035 230.398 232.035V245.535C230.398 248.035 228.398 250.135 225.898 250.135Z" fill="#9063CD"/>
<path d="M388.098 250.135C385.598 250.135 383.598 248.135 383.598 245.635V232.035C383.598 227.035 379.598 223.035 374.598 223.035H361.098C358.598 223.035 356.598 221.035 356.598 218.535C356.598 216.035 358.598 214.035 361.098 214.035H374.598C384.498 214.035 392.598 222.135 392.598 232.035V245.535C392.598 248.035 390.598 250.135 388.098 250.135Z" fill="#FF7F41"/>
<path d="M374.598 394.336H361.098C358.598 394.336 356.598 392.336 356.598 389.836C356.598 387.336 358.598 385.336 361.098 385.336H374.598C379.598 385.336 383.598 381.336 383.598 376.336V362.836C383.598 360.336 385.598 358.336 388.098 358.336C390.598 358.336 392.598 360.336 392.598 362.836V376.336C392.598 386.236 384.498 394.336 374.598 394.336Z" fill="#9063CD"/>
<path d="M252.898 394.336H239.398C229.498 394.336 221.398 386.236 221.398 376.336V362.836C221.398 360.336 223.398 358.336 225.898 358.336C228.398 358.336 230.398 360.336 230.398 362.836V376.336C230.398 381.336 234.398 385.336 239.398 385.336H252.898C255.398 385.336 257.398 387.336 257.398 389.836C257.398 392.336 255.398 394.336 252.898 394.336Z" fill="#FF7F41"/>
<path d="M270.898 367.234C268.398 367.234 266.398 365.234 266.398 362.734V353.734C266.398 351.234 268.398 349.234 270.898 349.234C273.398 349.234 275.398 351.234 275.398 353.734V362.734C275.498 365.234 273.398 367.234 270.898 367.234Z" fill="#9063CD"/>
<path d="M503.802 513.436L521.002 505.736C525.102 503.936 526.902 499.136 525.102 495.036L506.002 452.336C504.202 448.236 499.402 446.436 495.302 448.236L478.102 455.936C474.002 457.736 472.202 462.536 474.002 466.636L493.102 509.336C494.902 513.436 499.701 515.336 503.802 513.436Z" fill="#9063CD"/>
</svg>
