<svg width="1080" height="1080" viewBox="0 0 1080 1080" fill="none" xmlns="http://www.w3.org/2000/svg">
<path d="M138.535 429.191C138.035 429.191 137.435 429.191 136.935 429.091C126.735 428.191 119.235 419.291 120.035 409.091C122.435 380.891 131.735 353.191 147.035 329.091C181.535 274.591 237.235 245.491 277.735 230.791C327.135 212.791 379.435 205.891 433.135 199.891C443.235 198.791 452.435 206.091 453.535 216.191C454.635 226.391 447.335 235.491 437.235 236.591C383.835 242.591 335.935 248.891 290.335 265.491C255.135 278.291 207.135 303.091 178.235 348.891C166.135 367.991 158.735 389.891 156.835 412.291C156.135 421.891 148.035 429.191 138.535 429.191Z" fill="#F5B6CD"/>
<path d="M177.038 364.189C173.538 364.189 170.138 363.189 166.938 361.189C158.338 355.589 155.938 344.189 161.538 335.589C190.238 291.289 231.138 268.089 232.838 267.089C241.738 262.089 253.038 265.289 258.038 274.189C263.038 283.089 259.838 294.389 250.938 299.389C250.538 299.589 216.038 319.489 192.538 355.689C189.038 361.189 183.138 364.189 177.038 364.189Z" fill="#59CBE8"/>
<path d="M581.538 851.989L300.038 875.989C272.138 878.389 247.538 857.689 245.138 829.789L188.838 170.089C186.438 142.189 207.138 117.589 235.038 115.189L516.538 91.1893C544.438 88.7893 569.038 109.489 571.438 137.389L627.838 797.089C630.138 825.089 609.438 849.589 581.538 851.989Z" fill="#FF7F41"/>
<path d="M436.638 838.691C449.838 838.691 460.538 827.99 460.538 814.791C460.538 801.591 449.838 790.891 436.638 790.891C423.439 790.891 412.738 801.591 412.738 814.791C412.738 827.99 423.439 838.691 436.638 838.691Z" fill="white"/>
<path d="M547.072 165.287L217.562 193.434L267.719 780.612L597.229 752.465L547.072 165.287Z" fill="#DFDFDF"/>
<path d="M592.857 701.029L263.348 729.176L267.748 780.69L597.257 752.543L592.857 701.029Z" fill="#FDDA24"/>
<path d="M267.238 781.091L262.738 728.591H263.238L593.238 700.391L597.738 752.891H597.238L267.238 781.091ZM263.838 729.591L268.138 780.091L596.638 751.991L592.338 701.491L263.838 729.591Z" fill="#FDDA24"/>
<path d="M447.336 438.388C443.736 438.388 440.736 435.688 440.436 432.088C440.136 428.288 442.936 424.888 446.736 424.588L489.136 420.988L485.536 378.588C485.236 374.788 488.036 371.388 491.836 371.088C495.636 370.788 499.036 373.588 499.336 377.388L503.536 426.688C503.836 430.488 501.036 433.888 497.236 434.188L447.936 438.388C447.736 438.388 447.536 438.388 447.336 438.388Z" fill="white"/>
<path d="M306.837 319.99C303.237 319.99 300.237 317.29 299.937 313.69L295.737 264.39C295.437 260.59 298.237 257.19 302.037 256.89L351.337 252.69C355.137 252.39 358.537 255.19 358.837 258.99C359.137 262.79 356.337 266.19 352.537 266.49L310.137 270.09L313.737 312.49C314.037 316.29 311.237 319.69 307.437 319.99C307.237 319.99 307.037 319.99 306.837 319.99Z" fill="white"/>
<path d="M317.938 449.388C314.338 449.388 311.338 446.688 311.038 443.088L306.838 393.788C306.538 389.988 309.338 386.588 313.138 386.288C316.938 385.988 320.338 388.788 320.638 392.588L324.238 434.988L366.638 431.388C370.438 431.088 373.838 433.888 374.138 437.688C374.438 441.488 371.638 444.888 367.838 445.188L318.538 449.388C318.338 449.388 318.138 449.388 317.938 449.388Z" fill="white"/>
<path d="M485.637 304.688C482.037 304.688 479.037 301.988 478.737 298.388L475.137 255.988L432.737 259.588C428.937 259.888 425.537 257.088 425.237 253.288C424.937 249.488 427.737 246.088 431.537 245.788L480.837 241.588C484.637 241.288 488.037 244.088 488.337 247.888L492.537 297.188C492.837 300.988 490.037 304.388 486.237 304.688C486.037 304.688 485.837 304.688 485.637 304.688Z" fill="white"/>
<path d="M435.938 332.389C432.338 332.389 429.338 329.689 429.038 326.089L427.038 302.889C426.738 299.089 429.538 295.689 433.338 295.389C437.138 295.089 440.538 297.889 440.838 301.689L442.838 324.889C443.138 328.689 440.338 332.089 436.538 332.389C436.338 332.389 436.138 332.389 435.938 332.389Z" fill="white"/>
<path d="M358.137 338.987C354.537 338.987 351.537 336.287 351.237 332.687L349.237 309.487C348.937 305.687 351.737 302.287 355.537 301.987C359.337 301.687 362.737 304.487 363.037 308.287L365.037 331.487C365.337 335.287 362.537 338.687 358.737 338.987C358.537 338.987 358.337 338.987 358.137 338.987Z" fill="white"/>
<path d="M399.637 406.59C384.937 406.59 374.037 400.29 368.737 396.39C365.637 394.09 365.037 389.79 367.237 386.69C369.537 383.59 373.837 382.99 376.937 385.19C380.937 388.19 389.437 393.09 400.937 392.69C414.737 392.19 423.837 384.29 427.137 380.89C429.837 378.19 434.137 378.09 436.937 380.69C439.637 383.39 439.737 387.69 437.137 390.49C432.737 395.09 420.337 405.79 401.437 406.49C400.837 406.59 400.237 406.59 399.637 406.59Z" fill="white"/>
<path d="M393.536 371.889C391.736 371.889 389.936 371.189 388.636 369.889C387.236 368.489 386.436 366.489 386.636 364.489L389.736 320.289C390.036 316.489 393.336 313.589 397.136 313.889C400.936 314.189 403.836 317.489 403.536 321.289L400.936 357.389L405.536 356.989C409.336 356.689 412.736 359.489 413.036 363.289C413.336 367.089 410.536 370.489 406.736 370.789L394.136 371.889C393.936 371.889 393.736 371.889 393.536 371.889Z" fill="white"/>
<path d="M388.236 640.59L459.336 634.49C469.036 633.69 477.536 640.89 478.336 650.49C479.136 660.19 471.936 668.69 462.336 669.49L391.236 675.59C381.536 676.39 373.036 669.19 372.236 659.59C371.336 649.89 378.536 641.39 388.236 640.59Z" fill="#2C2A29"/>
<path d="M389.738 670.389C396.531 670.389 402.038 664.882 402.038 658.089C402.038 651.296 396.531 645.789 389.738 645.789C382.944 645.789 377.438 651.296 377.438 658.089C377.438 664.882 382.944 670.389 389.738 670.389Z" fill="white"/>
<path d="M645.336 985.49L385.236 874.99C359.436 863.99 347.436 834.29 358.336 808.49L617.236 198.99C628.236 173.19 657.936 161.19 683.736 172.09L943.836 282.59C969.636 293.59 981.636 323.29 970.736 349.09L711.836 958.59C700.936 984.39 671.136 996.39 645.336 985.49Z" fill="#59CBE8"/>
<path d="M534.634 908.691C547.834 908.691 558.534 897.99 558.534 884.791C558.534 871.591 547.834 860.891 534.634 860.891C521.435 860.891 510.734 871.591 510.734 884.791C510.734 897.99 521.435 908.691 534.634 908.691Z" fill="white"/>
<path d="M936.142 362.372L631.766 233.102L401.408 775.493L705.785 904.764L936.142 362.372Z" fill="white"/>
<path d="M725.986 857.165L421.609 727.895L401.4 775.479L705.776 904.75L725.986 857.165Z" fill="#FDDA24"/>
<path d="M706.034 905.389L400.734 775.789L421.334 727.289L726.634 856.989L706.034 905.389ZM402.034 775.289L705.434 904.189L725.234 857.589L421.834 728.589L402.034 775.289Z" fill="#FDDA24"/>
<path d="M769.035 577.189C768.135 577.189 767.235 576.989 766.335 576.689L720.735 557.389C717.235 555.889 715.535 551.789 717.035 548.289C718.535 544.789 722.635 543.089 726.135 544.589L765.335 561.189L781.935 521.989C783.435 518.489 787.535 516.789 791.035 518.289C794.535 519.789 796.235 523.889 794.735 527.389L775.435 572.989C774.735 574.689 773.335 575.989 771.635 576.689C770.835 577.089 769.935 577.189 769.035 577.189Z" fill="#00C389"/>
<path d="M654.736 387.488C653.836 387.488 652.936 387.288 652.036 386.888C648.536 385.388 646.836 381.288 648.336 377.788L667.636 332.188C669.136 328.688 673.236 326.988 676.736 328.488L722.236 347.788C725.736 349.288 727.436 353.388 725.936 356.888C724.436 360.388 720.336 362.088 716.836 360.588L677.636 343.988L661.036 383.188C659.936 385.988 657.436 387.488 654.736 387.488Z" fill="#FDDA24"/>
<path d="M649.437 526.488C648.537 526.488 647.637 526.288 646.737 525.888L601.237 506.588C599.537 505.888 598.237 504.488 597.537 502.788C596.837 501.088 596.837 499.188 597.537 497.488L616.837 451.888C618.337 448.388 622.437 446.688 625.937 448.188C629.437 449.688 631.137 453.788 629.637 457.288L613.037 496.488L652.237 513.088C655.737 514.588 657.437 518.688 655.937 522.188C654.737 524.888 652.137 526.488 649.437 526.488Z" fill="#59CBE8"/>
<path d="M819.837 457.687C818.937 457.687 818.037 457.487 817.137 457.087C813.637 455.587 811.937 451.487 813.437 447.987L830.037 408.787L790.837 392.187C787.337 390.687 785.637 386.587 787.137 383.087C788.637 379.587 792.737 377.887 796.237 379.387L841.837 398.687C845.337 400.187 847.037 404.287 845.537 407.787L826.237 453.387C825.137 456.087 822.537 457.687 819.837 457.687Z" fill="#F5B6CD"/>
<path d="M763.037 458.888C762.137 458.888 761.237 458.688 760.337 458.288C756.837 456.788 755.137 452.688 756.637 449.188L765.737 427.688C767.237 424.188 771.337 422.488 774.837 423.988C778.337 425.488 780.037 429.588 778.537 433.088L769.437 454.588C768.237 457.288 765.737 458.888 763.037 458.888Z" fill="#59CBE8"/>
<path d="M691.138 428.287C690.238 428.287 689.338 428.087 688.438 427.687C684.938 426.187 683.238 422.087 684.738 418.587L693.838 397.087C695.338 393.587 699.438 391.887 702.938 393.387C706.438 394.887 708.138 398.987 706.638 402.487L697.538 423.987C696.438 426.787 693.838 428.287 691.138 428.287Z" fill="#00C389"/>
<path d="M717.038 512.589C710.438 512.589 702.638 511.389 694.538 507.489C680.438 500.689 673.338 489.289 670.438 483.189C668.738 479.789 670.238 475.589 673.638 473.989C677.038 472.289 681.238 473.789 682.838 477.189C685.038 481.689 690.238 489.989 700.538 495.089C713.038 501.089 724.738 498.389 729.238 496.889C732.838 495.689 736.738 497.689 737.938 501.289C739.138 504.889 737.138 508.789 733.538 509.989C730.338 511.089 724.438 512.589 717.038 512.589Z" fill="#FF7F41"/>
<path d="M718.737 478.889C717.837 478.889 716.937 478.689 716.037 478.289L704.337 473.289C702.437 472.489 701.037 470.889 700.437 468.989C699.837 467.089 700.137 464.989 701.137 463.289L724.537 425.689C726.537 422.489 730.837 421.489 734.037 423.489C737.237 425.489 738.237 429.789 736.237 432.989L717.037 463.689L721.237 465.489C724.737 466.989 726.437 471.089 724.937 474.589C723.937 477.289 721.437 478.889 718.737 478.889Z" fill="#9063CD"/>
<path d="M625.339 768.393L559.639 740.493C550.739 736.693 546.539 726.393 550.339 717.393C554.139 708.493 564.439 704.293 573.439 708.093L639.039 735.993C647.939 739.793 652.139 750.093 648.339 759.093C644.639 768.093 634.239 772.193 625.339 768.393Z" fill="#FDDA24"/>
<path d="M632.137 770.292C629.737 770.292 627.338 769.792 625.038 768.892L559.438 740.992C550.238 737.092 545.938 726.392 549.838 717.292C551.738 712.792 555.238 709.392 559.738 707.592C564.238 705.792 569.138 705.792 573.638 707.692L639.338 735.592C643.838 737.492 647.238 740.992 649.038 745.492C650.838 749.992 650.838 754.892 648.938 759.392C645.938 766.192 639.237 770.292 632.137 770.292ZM625.538 767.992C629.738 769.792 634.437 769.792 638.637 768.092C642.837 766.392 646.238 763.092 647.938 758.892C649.738 754.692 649.738 749.992 648.038 745.792C646.338 741.592 643.037 738.192 638.838 736.492L573.138 708.592C568.938 706.792 564.238 706.792 560.038 708.492C555.838 710.192 552.438 713.492 550.738 717.692C547.038 726.392 551.138 736.392 559.838 740.092L625.538 767.992Z" fill="#FDDA24"/>
<path d="M632.136 764.491C638.929 764.491 644.436 758.984 644.436 752.191C644.436 745.398 638.929 739.891 632.136 739.891C625.343 739.891 619.836 745.398 619.836 752.191C619.836 758.984 625.343 764.491 632.136 764.491Z" fill="white"/>
<path d="M671.736 743.189C662.636 743.189 654.736 736.489 653.436 727.189C652.036 717.089 659.136 707.689 669.236 706.389C684.336 704.289 697.936 688.989 700.136 671.489C702.336 654.089 694.836 634.489 680.236 618.889C669.636 607.589 655.436 597.989 636.836 589.489C627.536 585.289 623.436 574.289 627.636 564.989C631.836 555.689 642.836 551.589 652.136 555.789C675.236 566.289 693.336 578.689 707.236 593.489C729.336 616.989 740.336 647.889 736.836 675.989C734.836 691.889 727.836 707.289 717.036 719.389C705.436 732.389 690.336 740.689 674.336 742.889C673.436 743.089 672.536 743.189 671.736 743.189Z" fill="#F5B6CD"/>
<path d="M431.937 569.59C422.837 569.59 414.837 562.89 413.637 553.59C412.237 543.49 419.337 534.19 429.537 532.79C458.137 528.89 488.737 525.39 519.337 526.09C536.437 526.49 553.737 528.09 570.637 531.09C580.737 532.79 587.437 542.39 585.737 552.49C584.037 562.59 574.437 569.29 564.337 567.59C549.237 564.99 533.837 563.49 518.537 563.19C492.037 562.59 465.737 565.29 434.437 569.59C433.637 569.59 432.837 569.59 431.937 569.59Z" fill="#F5B6CD"/>
<path d="M316.637 581.189C294.137 581.189 273.837 579.189 254.837 574.989C228.837 569.289 204.237 558.789 183.837 544.689C175.437 538.889 173.337 527.389 179.137 518.989C184.937 510.589 196.437 508.489 204.837 514.289C221.337 525.689 241.337 534.189 262.637 538.889C280.837 542.889 300.637 544.589 323.137 544.189C333.337 543.989 341.837 552.089 341.937 562.289C342.137 572.489 334.037 580.989 323.837 581.089C321.537 581.089 319.037 581.189 316.637 581.189Z" fill="#F5B6CD"/>
<path d="M207.037 572.391C204.337 572.391 201.637 571.791 199.037 570.591C126.137 536.891 107.837 483.591 105.337 444.891C102.637 403.891 117.037 370.891 117.637 369.491C121.937 359.891 133.137 355.591 142.737 359.891C152.337 364.191 156.637 375.291 152.437 384.891C152.237 385.291 140.937 411.891 143.337 443.791C146.437 484.591 170.537 515.691 215.037 536.191C224.537 540.591 228.737 551.891 224.337 561.391C221.137 568.291 214.237 572.391 207.037 572.391Z" fill="#9063CD"/>
<path d="M681.736 635.09C677.837 635.09 673.936 633.89 670.536 631.39C629.736 601.49 593.336 589.49 570.036 584.69C544.836 579.49 528.937 581.39 528.737 581.49L525.036 581.99C514.836 583.39 505.436 576.19 504.036 565.99C502.536 555.19 510.536 545.39 521.436 544.69C556.336 542.49 619.436 546.69 693.036 600.79C701.536 606.99 703.336 618.89 697.136 627.39C693.336 632.39 687.536 635.09 681.736 635.09Z" fill="#9063CD"/>
<path d="M694.135 745.687C689.735 745.687 685.435 743.087 683.535 738.787C681.035 732.987 683.635 726.187 689.435 723.687C690.535 723.187 713.735 712.387 723.435 683.787C725.435 677.787 732.035 674.587 738.035 676.587C744.035 678.687 747.235 685.187 745.235 691.187C732.035 729.887 700.035 744.087 698.635 744.687C697.235 745.387 695.635 745.687 694.135 745.687Z" fill="#59CBE8"/>
<path d="M320.335 564.488C300.935 564.488 286.335 562.588 285.435 562.488C279.135 561.688 274.735 555.888 275.535 549.588C276.335 543.288 282.135 538.888 288.435 539.688C288.735 539.688 319.735 543.688 350.135 539.688C356.435 538.888 362.235 543.288 363.035 549.588C363.835 555.888 359.435 561.688 353.135 562.488C341.635 563.988 330.335 564.488 320.335 564.488Z" fill="#59CBE8"/>
</svg>
