<svg width="1080" height="1080" viewBox="0 0 1080 1080" fill="none" xmlns="http://www.w3.org/2000/svg">
<path d="M895.202 728.301H764.602V711.601C764.602 675.501 793.802 646.301 829.902 646.301C866.002 646.301 895.202 675.501 895.202 711.601V728.301Z" fill="#FF7F41"/>
<path d="M884.3 728.3H775.5V714.4C775.5 684.3 799.9 660 829.9 660C860 660 884.3 684.4 884.3 714.4V728.3Z" fill="#F5B6CD"/>
<path d="M834.003 639H825.703V646.4H834.003V639Z" fill="#F5B6CD"/>
<path d="M868.502 778.798L850.102 775.598C836.702 773.298 823.102 773.298 809.702 775.598L791.302 778.798C777.402 781.198 764.602 770.498 764.602 756.398V728.398C764.602 728.398 789.002 720.398 829.902 720.398C875.102 720.398 895.202 728.398 895.202 728.398V756.398C895.202 770.498 882.502 781.198 868.502 778.798Z" fill="#FDDA24"/>
<path d="M283.699 411.301C236.999 411.301 199.199 449.101 199.199 495.801V506.201H368.299V495.801C368.199 449.101 330.399 411.301 283.699 411.301Z" fill="#9063CD"/>
<path d="M346.999 567.3H220.399C208.699 567.3 199.199 557.8 199.199 546.1V532.5H368.299V546.1C368.199 557.8 358.699 567.3 346.999 567.3Z" fill="#9063CD"/>
<path d="M364.2 540.802H202.7C195.1 540.802 189 534.702 189 527.102C189 519.502 195.1 513.402 202.7 513.402H364.2C371.8 513.402 377.9 519.502 377.9 527.102C378 534.602 371.8 540.802 364.2 540.802Z" fill="#FF7F41"/>
<path d="M368.1 498.6C351.3 496.9 351.5 496.4 334.6 496.4C317.7 496.4 317.7 502.9 300.8 502.9C283.9 502.9 283.9 496.4 267 496.4C250.1 496.4 250.1 502.9 233.2 502.9C216.3 502.9 215.9 494.7 199.1 496.4C196.5 496.7 178.9 515.1 181.5 515.3C201.7 517.4 201.5 521.8 221.9 521.8C242.3 521.8 242.3 515.3 262.6 515.3C283 515.3 283 521.8 303.3 521.8C323.7 521.8 323.7 515.3 344 515.3C364.3 515.3 365.7 523.8 385 517.5C389.4 516.1 370.6 498.8 368.1 498.6Z" fill="#00C389"/>
<path d="M288.301 435.402C290.234 435.402 291.801 433.835 291.801 431.902C291.801 429.969 290.234 428.402 288.301 428.402C286.368 428.402 284.801 429.969 284.801 431.902C284.801 433.835 286.368 435.402 288.301 435.402Z" fill="#FDDA24"/>
<path d="M225.398 482.5C227.331 482.5 228.898 480.933 228.898 479C228.898 477.067 227.331 475.5 225.398 475.5C223.465 475.5 221.898 477.067 221.898 479C221.898 480.933 223.465 482.5 225.398 482.5Z" fill="#FDDA24"/>
<path d="M240.699 451C242.632 451 244.199 449.433 244.199 447.5C244.199 445.567 242.632 444 240.699 444C238.766 444 237.199 445.567 237.199 447.5C237.199 449.433 238.766 451 240.699 451Z" fill="#FDDA24"/>
<path d="M273.699 475.199C275.632 475.199 277.199 473.632 277.199 471.699C277.199 469.766 275.632 468.199 273.699 468.199C271.766 468.199 270.199 469.766 270.199 471.699C270.199 473.632 271.766 475.199 273.699 475.199Z" fill="#FDDA24"/>
<path d="M328.5 454.5C330.433 454.5 332 452.933 332 451C332 449.067 330.433 447.5 328.5 447.5C326.567 447.5 325 449.067 325 451C325 452.933 326.567 454.5 328.5 454.5Z" fill="#FDDA24"/>
<path d="M351.699 485.902C353.632 485.902 355.199 484.335 355.199 482.402C355.199 480.469 353.632 478.902 351.699 478.902C349.766 478.902 348.199 480.469 348.199 482.402C348.199 484.335 349.766 485.902 351.699 485.902Z" fill="#FDDA24"/>
<path d="M307.898 485.902C309.831 485.902 311.398 484.335 311.398 482.402C311.398 480.469 309.831 478.902 307.898 478.902C305.965 478.902 304.398 480.469 304.398 482.402C304.398 484.335 305.965 485.902 307.898 485.902Z" fill="#FDDA24"/>
<path d="M816.8 201.601H716V171.201C716 143.401 738.6 120.801 766.4 120.801C794.2 120.801 816.8 143.401 816.8 171.201V201.601ZM728 189.601H804.8V171.201C804.8 150.001 787.6 132.801 766.4 132.801C745.2 132.801 728 150.101 728 171.301V189.601Z" fill="#FDDA24"/>
<path d="M850.2 340.1H682.5L687.2 183.5H845.6L850.2 340.1Z" fill="#9063CD"/>
<path d="M284.8 700.699C176.8 700.699 89 612.899 89 504.999C89 482.399 92.8 460.199 100.4 438.999C103.6 430.199 113.3 425.599 122.1 428.699C130.9 431.899 135.5 441.599 132.4 450.399C126.2 467.899 123 486.199 123 504.999C123 594.199 195.6 666.799 284.8 666.799C374 666.799 446.6 594.199 446.6 504.999C446.6 474.099 437.9 444.099 421.3 418.199C405.2 392.899 382.5 372.699 355.6 359.599C347.2 355.499 343.7 345.299 347.8 336.899C351.9 328.499 362.1 324.999 370.5 329.099C403 344.999 430.5 369.499 449.9 399.999C469.9 431.399 480.5 467.699 480.5 505.099C480.5 612.899 392.7 700.699 284.8 700.699Z" fill="#FF7F41"/>
<path d="M140.099 416.899C136.599 416.899 133.099 415.799 130.099 413.599C122.499 408.099 120.799 397.399 126.399 389.899C144.199 365.499 167.699 345.199 194.499 331.199C222.199 316.799 253.399 309.199 284.799 309.199C294.199 309.199 301.799 316.799 301.799 326.199C301.799 335.599 294.199 343.199 284.799 343.199C258.499 343.199 233.399 349.299 210.199 361.399C188.099 372.899 168.599 389.699 153.899 409.899C150.599 414.499 145.399 416.899 140.099 416.899Z" fill="#FF7F41"/>
<path d="M911.298 603.702C908.898 603.702 906.398 603.002 904.198 601.502C899.498 598.302 894.498 595.302 889.398 592.702C883.298 589.502 880.898 582.002 883.998 575.902C887.198 569.802 894.698 567.402 900.798 570.502C906.798 573.602 912.598 577.102 918.198 580.902C923.898 584.802 925.298 592.602 921.398 598.302C919.198 601.802 915.298 603.702 911.298 603.702Z" fill="#F5B6CD"/>
<path d="M971.401 686.1C966.001 686.1 961.001 682.6 959.401 677.2C953.701 658 944.101 640.6 930.901 625.4C926.401 620.2 926.901 612.3 932.101 607.8C937.301 603.3 945.201 603.8 949.701 609C965.301 626.9 976.601 647.5 983.301 670.1C985.301 676.7 981.501 683.7 974.901 685.7C973.801 685.9 972.601 686.1 971.401 686.1Z" fill="#F5B6CD"/>
<path d="M825.098 882.4C733.998 882.4 659.898 808.3 659.898 717.2C659.898 626.1 733.998 552 825.098 552C831.998 552 837.598 557.6 837.598 564.5C837.598 571.4 831.998 577 825.098 577C747.798 577.1 684.998 640 684.998 717.3C684.998 794.6 747.898 857.5 825.198 857.5C902.498 857.5 965.398 794.6 965.398 717.3C965.398 715.3 965.398 713.2 965.298 711.2C964.998 704.3 970.398 698.5 977.298 698.2C984.198 697.9 989.998 703.3 990.298 710.2C990.398 712.6 990.498 715 990.498 717.4C990.298 808.3 916.198 882.4 825.098 882.4Z" fill="#F5B6CD"/>
<path d="M765.998 443.1C657.298 443.1 568.898 354.7 568.898 246C568.898 137.4 657.298 49 765.998 49C806.498 49 845.398 61.2 878.598 84.3C910.998 106.9 935.598 138.1 949.798 174.8C953.098 183.3 948.898 192.9 940.398 196.2C931.898 199.5 922.298 195.3 918.998 186.8C907.198 156.3 886.698 130.3 859.698 111.5C832.098 92.2 799.698 82 765.998 82C675.498 82 601.898 155.6 601.898 246.1C601.898 336.6 675.498 410.2 765.998 410.2C793.998 410.2 821.598 403 845.898 389.5C853.898 385.1 863.898 387.9 868.398 395.9C872.798 403.9 869.998 413.9 861.998 418.4C832.698 434.5 799.598 443.1 765.998 443.1Z" fill="#00C389"/>
<path d="M920.698 355.602C917.798 355.602 914.898 354.802 912.198 353.202C904.398 348.502 901.898 338.402 906.598 330.602C921.898 305.202 929.998 276.002 929.998 246.102C929.998 237.002 937.398 229.602 946.498 229.602C955.598 229.602 962.998 237.002 962.998 246.102C962.998 282.002 953.298 317.102 934.898 347.602C931.798 352.702 926.298 355.602 920.698 355.602Z" fill="#00C389"/>
<path d="M576.502 1031.7C687.732 1031.7 777.902 941.529 777.902 830.298C777.902 719.068 687.732 628.898 576.502 628.898C465.271 628.898 375.102 719.068 375.102 830.298C375.102 941.529 465.271 1031.7 576.502 1031.7Z" fill="#E4AC7B"/>
<path d="M669.904 905.198L437.304 905.298C412.404 905.298 392.204 885.099 392.204 860.198L392.004 334.098C392.004 309.198 412.204 288.998 437.104 288.998L669.704 288.898C694.604 288.898 714.804 309.098 714.804 333.998L715.004 860.098C715.104 884.998 694.904 905.198 669.904 905.198Z" fill="#59CBE8"/>
<path d="M553.605 889.797C564.927 889.797 574.105 880.619 574.105 869.297C574.105 857.975 564.927 848.797 553.605 848.797C542.284 848.797 533.105 857.975 533.105 869.297C533.105 880.619 542.284 889.797 553.605 889.797Z" fill="white"/>
<path d="M690.703 357.398L690.803 829.498H690.703L416.403 829.598V775.198L416.203 357.498L690.703 357.398Z" fill="white"/>
<path d="M620.005 485.397L477.805 501.397C469.405 502.297 462.605 510.597 462.605 519.897V609.297C462.605 618.597 469.405 625.297 477.805 624.297L620.005 608.297C628.405 607.397 635.205 599.097 635.205 589.797V517.197V500.397C635.205 491.197 628.405 484.497 620.005 485.397Z" fill="#FF7F41"/>
<path d="M479.203 507.798L611.403 473.598L612.103 519.398L479.203 507.798Z" fill="#59CBE8"/>
<path d="M479.203 507.799L630.003 480.199V527.099L479.203 507.799Z" fill="#00C389"/>
<path d="M627.104 511.697L478.404 503.997C469.604 503.497 462.504 510.697 462.504 519.897V609.297C462.504 618.597 469.604 626.397 478.404 626.897L627.004 634.597C635.804 635.097 642.904 627.897 642.904 618.697V546.097V529.297C643.004 519.997 635.904 512.197 627.104 511.697Z" fill="#9063CD"/>
<path d="M622.002 583.399C626.476 583.399 630.102 579.773 630.102 575.299C630.102 570.826 626.476 567.199 622.002 567.199C617.529 567.199 613.902 570.826 613.902 575.299C613.902 579.773 617.529 583.399 622.002 583.399Z" fill="#FDDA24"/>
<path d="M690.702 775.102H416.402V829.602H690.702V775.102Z" fill="#FDDA24"/>
<path d="M415.902 830.1V774.6H416.402L691.202 774.5V830H690.702L415.902 830.1ZM416.902 775.7V829.2L690.202 829.1V775.6L416.902 775.7Z" fill="#FDDA24"/>
<path d="M772.104 851.397C765.304 883.097 751.704 913.297 732.104 939.697C727.704 945.597 724.104 952.597 721.104 960.197C717.604 968.997 691.404 982.097 681.804 976.997L625.404 905.497C623.204 896.697 622.004 887.497 622.004 877.997C622.004 840.297 640.604 806.997 669.104 786.697C678.204 780.197 680.004 778.197 690.804 774.697V726.897L648.304 639.497C631.604 613.497 639.204 578.997 665.104 562.297C666.204 561.597 667.404 561.297 668.604 561.297C670.704 561.297 672.804 562.297 674.004 564.297L719.904 635.797L759.604 697.097C769.004 711.597 774.304 728.297 775.104 745.597L776.104 767.697L776.404 774.197V774.397L777.204 792.297C778.004 812.297 776.304 832.097 772.104 851.397Z" fill="#E4AC7B"/>
<path d="M625.504 905.5L681.904 977C654.104 962.4 633.304 936.6 625.504 905.5Z" fill="#E4AC7B"/>
<path d="M378.102 823.999L345.302 782.799C332.202 766.399 334.902 742.499 351.402 729.399L381.102 705.699L437.602 776.599C450.702 792.999 448.002 816.899 431.602 829.999C415.102 843.099 391.202 840.399 378.102 823.999Z" fill="#E4AC7B"/>
<path d="M378.102 747.198L345.302 705.998C332.202 689.598 334.902 665.698 351.402 652.598L381.102 628.898L437.602 699.798C450.702 716.198 448.002 740.098 431.502 753.198C415.002 766.298 391.102 763.598 378.102 747.198Z" fill="#E4AC7B"/>
<path d="M378.102 670.3L345.302 629.1C332.202 612.7 334.902 588.8 351.302 575.7L381.002 552L437.502 622.9C450.602 639.3 447.902 663.2 431.402 676.3C415.002 689.5 391.102 686.8 378.102 670.3Z" fill="#E4AC7B"/>
<path d="M381.004 475.298L392.104 466.898V507.798L381.004 475.298Z" fill="#E4AC7B"/>
<path d="M378.001 593.499L345.201 552.299C332.101 535.899 334.801 511.999 351.301 498.899L381.001 475.199L437.501 546.099C450.601 562.499 447.901 586.399 431.501 599.499C415.001 612.599 391.101 609.899 378.001 593.499Z" fill="#E4AC7B"/>
<path d="M766.4 296.698C790.921 296.698 810.8 281.073 810.8 261.798C810.8 242.524 790.921 226.898 766.4 226.898C741.879 226.898 722 242.524 722 261.798C722 281.073 741.879 296.698 766.4 296.698Z" fill="#FF7F41"/>
</svg>
