<svg width="1080" height="1080" viewBox="0 0 1080 1080" fill="none" xmlns="http://www.w3.org/2000/svg">
<path d="M196.67 585.72C195.77 585.72 194.77 585.62 193.77 585.32C176.77 580.72 159.17 567.32 158.37 566.82C153.57 563.12 152.67 556.22 156.37 551.42C160.07 546.62 166.97 545.72 171.77 549.42C172.07 549.62 186.77 560.82 199.47 564.22C205.37 565.82 208.77 571.82 207.27 577.72C205.97 582.52 201.57 585.72 196.67 585.72Z" fill="#59CBE8"/>
<path d="M201.77 623.121C199.67 623.121 197.57 622.822 195.47 622.222C194.57 621.922 174.37 615.821 153.37 603.521C122.37 585.421 104.27 562.421 101.17 537.021C99.6699 524.921 108.27 514.021 120.27 512.521C132.37 511.021 143.27 519.621 144.77 531.621C147.57 554.521 188.67 574.121 208.07 580.021C219.67 583.521 226.27 595.822 222.77 607.422C219.97 617.022 211.27 623.121 201.77 623.121Z" fill="#9063CD"/>
<path d="M490.471 880.822L209.171 854.522C181.271 851.922 160.771 827.222 163.371 799.322L224.971 140.022C227.571 112.122 252.271 91.6224 280.171 94.2224L561.471 120.522C589.371 123.122 609.871 147.822 607.271 175.722L545.671 835.022C543.071 862.922 518.371 883.422 490.471 880.822Z" fill="#59CBE8"/>
<path d="M354.373 842.421C367.572 842.421 378.273 831.721 378.273 818.521C378.273 805.322 367.572 794.621 354.373 794.621C341.173 794.621 330.473 805.322 330.473 818.521C330.473 831.721 341.173 842.421 354.373 842.421Z" fill="white"/>
<path d="M578.383 198.887L249.105 168.121L194.281 754.887L523.559 785.653L578.383 198.887Z" fill="#DFDFDF"/>
<path d="M420.772 415.821C420.672 415.821 420.472 415.821 420.372 415.821C409.572 414.821 399.872 409.621 392.872 401.321C385.972 393.021 382.672 382.421 383.672 371.621L385.372 353.721C385.572 351.221 387.772 349.421 390.272 349.621C392.772 349.821 394.572 352.021 394.372 354.521L392.672 372.421C391.872 380.821 394.372 389.021 399.772 395.521C405.172 402.021 412.772 406.021 421.172 406.821C423.672 407.021 425.472 409.221 425.272 411.721C424.972 414.121 423.072 415.821 420.772 415.821Z" fill="white"/>
<path d="M445.37 312.622C444.07 312.622 442.77 312.022 441.87 311.022C430.37 297.122 414.07 288.522 396.07 286.822C378.07 285.122 360.57 290.522 346.67 302.122C344.77 303.722 341.87 303.422 340.37 301.522C338.77 299.622 339.07 296.722 340.97 295.222C356.77 282.122 376.67 276.022 396.97 277.922C417.37 279.822 435.77 289.522 448.87 305.322C450.47 307.222 450.17 310.122 448.27 311.622C447.47 312.322 446.37 312.622 445.37 312.622Z" fill="white"/>
<path d="M351.472 382.222C351.372 382.222 351.172 382.222 351.072 382.222C348.572 382.022 346.772 379.822 346.972 377.322L349.472 350.422C351.572 328.122 371.372 311.722 393.672 313.822C404.472 314.822 414.172 320.022 421.172 328.322C428.072 336.622 431.372 347.222 430.372 358.022L428.672 375.922C428.472 378.422 426.272 380.222 423.772 380.022C421.272 379.822 419.472 377.622 419.672 375.122L421.372 357.222C422.172 348.822 419.672 340.622 414.272 334.122C408.872 327.622 401.272 323.622 392.872 322.822C375.572 321.222 360.172 334.022 358.572 351.322L356.072 378.222C355.772 380.422 353.772 382.222 351.472 382.222Z" fill="white"/>
<path d="M330.972 407.424C330.872 407.424 330.672 407.424 330.572 407.424C328.072 407.224 326.272 405.024 326.472 402.524L331.472 348.724C333.772 324.024 351.472 303.424 375.472 297.324C377.872 296.724 380.372 298.224 380.972 300.624C381.572 303.024 380.072 305.524 377.672 306.124C357.372 311.224 342.372 328.724 340.372 349.624L335.372 403.424C335.272 405.724 333.272 407.424 330.972 407.424Z" fill="white"/>
<path d="M443.771 363.724C443.671 363.724 443.471 363.724 443.371 363.724C440.871 363.524 439.071 361.324 439.271 358.824C440.471 345.624 436.571 332.724 428.071 322.524C419.571 312.324 407.671 306.024 394.471 304.824C391.971 304.624 390.171 302.424 390.371 299.924C390.571 297.424 392.771 295.624 395.271 295.824C410.871 297.324 424.971 304.724 434.971 316.724C444.971 328.724 449.671 344.024 448.171 359.524C447.971 361.924 446.071 363.724 443.771 363.724Z" fill="white"/>
<path d="M424.17 398.022C423.47 398.022 422.77 398.022 422.07 397.922C409.67 396.722 400.57 385.722 401.77 373.422L403.47 355.522C404.17 348.122 398.67 341.522 391.27 340.822C387.67 340.522 384.17 341.522 381.37 343.922C378.57 346.222 376.87 349.522 376.57 353.122C376.37 355.622 374.17 357.422 371.67 357.222C369.17 357.022 367.37 354.822 367.57 352.322C368.17 346.322 370.97 340.922 375.67 337.022C380.27 333.222 386.17 331.422 392.17 331.922C404.57 333.122 413.67 344.122 412.47 356.422L410.77 374.322C410.07 381.722 415.57 388.322 422.97 389.022C430.37 389.722 436.97 384.222 437.67 376.822C437.87 374.322 440.07 372.522 442.57 372.722C445.07 372.922 446.87 375.122 446.67 377.622C445.47 389.222 435.57 397.922 424.17 398.022Z" fill="white"/>
<path d="M366.871 410.821C366.771 410.821 366.571 410.821 366.471 410.821C363.971 410.621 362.171 408.421 362.371 405.921L365.771 370.021C365.971 367.521 368.171 365.721 370.671 365.921C373.171 366.121 374.971 368.321 374.771 370.821L371.371 406.721C371.171 409.021 369.171 410.821 366.871 410.821Z" fill="white"/>
<path d="M314.972 288.322C314.872 288.322 314.672 288.322 314.572 288.322C312.072 288.122 310.272 285.922 310.472 283.422L311.772 269.922C312.672 260.022 321.472 252.722 331.372 253.622L344.872 254.922C347.372 255.122 349.172 257.322 348.972 259.822C348.772 262.322 346.572 264.122 344.072 263.922L330.572 262.622C325.572 262.122 321.172 265.822 320.772 270.722L319.472 284.222C319.272 286.522 317.272 288.322 314.972 288.322Z" fill="white"/>
<path d="M476.571 303.324C476.471 303.324 476.271 303.324 476.171 303.324C473.671 303.124 471.871 300.924 472.071 298.424L473.371 284.924C473.871 280.024 470.171 275.524 465.271 275.124L451.771 273.824C449.271 273.624 447.471 271.424 447.671 268.924C447.871 266.424 450.071 264.624 452.571 264.824L466.071 266.124C475.971 267.024 483.271 275.824 482.371 285.724L481.071 299.224C480.771 301.624 478.871 303.324 476.571 303.324Z" fill="white"/>
<path d="M450.87 445.721C450.27 445.721 449.77 445.721 449.17 445.621L435.67 444.321C433.17 444.121 431.37 441.921 431.57 439.421C431.77 436.921 433.97 435.121 436.47 435.321L449.97 436.621C454.87 437.121 459.37 433.421 459.77 428.521L461.07 415.021C461.27 412.521 463.47 410.721 465.97 410.921C468.47 411.121 470.27 413.321 470.07 415.821L468.77 429.321C467.97 438.721 460.07 445.721 450.87 445.721Z" fill="white"/>
<path d="M328.47 434.421C328.37 434.421 328.17 434.421 328.07 434.421L314.57 433.121C304.67 432.221 297.37 423.421 298.27 413.521L299.57 400.021C299.77 397.521 301.97 395.721 304.47 395.921C306.97 396.121 308.77 398.321 308.57 400.821L307.27 414.321C306.77 419.221 310.47 423.721 315.37 424.121L328.87 425.421C331.37 425.621 333.17 427.821 332.97 430.321C332.77 432.621 330.77 434.421 328.47 434.421Z" fill="white"/>
<path d="M348.972 409.121C348.872 409.121 348.672 409.121 348.572 409.121C346.072 408.921 344.272 406.721 344.472 404.221L345.272 395.221C345.472 392.721 347.672 390.921 350.172 391.121C352.672 391.321 354.472 393.521 354.272 396.021L353.472 405.021C353.272 407.421 351.272 409.121 348.972 409.121Z" fill="white"/>
<path d="M528.368 734.243L199.09 703.477L194.28 754.954L523.558 785.72L528.368 734.243Z" fill="#FDDA24"/>
<path d="M523.97 786.122H523.47L193.77 755.322V754.822L198.67 702.922H199.17L528.87 733.722V734.222L523.97 786.122ZM194.77 754.422L522.97 785.122L527.67 734.622L199.57 703.922L194.77 754.422Z" fill="#FDDA24"/>
<path d="M337.671 638.421L408.671 645.021C418.371 645.921 425.471 654.521 424.571 664.221C423.671 673.921 415.071 681.021 405.371 680.121L334.371 673.521C324.671 672.621 317.571 664.021 318.471 654.321C319.471 644.621 327.971 637.521 337.671 638.421Z" fill="#2C2A29"/>
<path d="M336.07 668.221C342.863 668.221 348.37 662.714 348.37 655.921C348.37 649.128 342.863 643.621 336.07 643.621C329.276 643.621 323.77 649.128 323.77 655.921C323.77 662.714 329.276 668.221 336.07 668.221Z" fill="white"/>
<path d="M560.569 976.722L318.769 830.622C294.769 816.122 287.069 784.922 301.569 760.922L644.069 194.222C658.569 170.222 689.769 162.522 713.769 177.022L955.569 323.222C979.569 337.722 987.269 368.922 972.769 392.922L630.269 959.622C615.769 983.522 584.569 991.222 560.569 976.722Z" fill="#00C389"/>
<path d="M465.271 885.323C478.471 885.323 489.171 874.623 489.171 861.423C489.171 848.224 478.471 837.523 465.271 837.523C452.071 837.523 441.371 848.224 441.371 861.423C441.371 874.623 452.071 885.323 465.271 885.323Z" fill="white"/>
<path d="M936.622 401.134L653.609 230.062L348.764 734.385L631.777 905.457L936.622 401.134Z" fill="white"/>
<path d="M658.54 861.286L375.527 690.215L348.783 734.46L631.796 905.531L658.54 861.286Z" fill="#FDDA24"/>
<path d="M631.968 906.122L631.568 905.822L348.168 734.522L375.368 689.422L375.768 689.722L659.268 861.022L631.968 906.122ZM349.568 734.222L631.668 904.722L657.868 861.322L375.768 690.822L349.568 734.222Z" fill="#FDDA24"/>
<path d="M571.468 759.124L510.368 722.224C502.068 717.224 499.368 706.324 504.368 698.024C509.368 689.724 520.268 687.024 528.568 692.024L589.668 728.924C597.968 733.924 600.668 744.824 595.668 753.124C590.668 761.424 579.868 764.124 571.468 759.124Z" fill="#FDDA24"/>
<path d="M580.569 762.124C577.369 762.124 574.169 761.324 571.269 759.524L510.169 722.624C501.669 717.424 498.869 706.324 504.069 697.724C509.269 689.224 520.369 686.424 528.969 691.624L590.069 728.524C598.569 733.724 601.369 744.824 596.169 753.424C592.669 759.024 586.669 762.124 580.569 762.124ZM571.769 758.624C579.869 763.524 590.369 760.924 595.269 752.824C597.669 748.924 598.369 744.324 597.269 739.924C596.169 735.524 593.469 731.724 589.469 729.424L528.369 692.524C520.269 687.624 509.769 690.224 504.869 698.324C499.969 706.424 502.569 716.924 510.669 721.824L571.769 758.624Z" fill="#FDDA24"/>
<path d="M580.57 756.323C587.363 756.323 592.87 750.816 592.87 744.023C592.87 737.23 587.363 731.723 580.57 731.723C573.776 731.723 568.27 737.23 568.27 744.023C568.27 750.816 573.776 756.323 580.57 756.323Z" fill="white"/>
<path d="M561.871 699.421C557.271 699.421 552.971 696.521 551.471 691.921C540.571 659.421 519.571 624.521 519.271 624.121C516.171 618.921 517.771 612.121 522.971 609.021C528.171 605.921 534.971 607.521 538.071 612.721C538.971 614.221 560.571 650.021 572.271 684.921C574.171 690.721 571.071 696.921 565.371 698.821C564.171 699.221 562.971 699.421 561.871 699.421Z" fill="#59CBE8"/>
<path d="M213.072 468.022C213.072 468.022 212.972 468.022 212.672 468.122C201.972 471.022 190.872 465.522 186.672 455.322C181.572 442.822 188.772 428.822 201.872 425.722C224.672 420.322 258.672 416.122 319.372 421.322C331.472 422.322 340.472 433.022 339.372 445.122C338.372 457.222 327.672 466.222 315.572 465.122C255.372 459.922 222.172 464.722 213.072 468.022Z" fill="#9063CD"/>
<path d="M366.171 492.223C364.871 492.223 363.471 492.023 362.171 491.423C315.171 472.923 257.371 479.423 256.771 479.423C250.771 480.123 245.271 475.823 244.571 469.823C243.871 463.823 248.171 458.323 254.171 457.623C256.771 457.323 317.971 450.323 370.171 471.023C375.771 473.223 378.571 479.623 376.371 485.323C374.671 489.523 370.571 492.223 366.171 492.223Z" fill="#59CBE8"/>
<path d="M590.471 713.923C584.271 713.923 578.371 710.323 575.771 704.223C563.371 675.423 550.471 645.523 533.871 618.923C507.171 575.923 469.771 539.623 425.671 513.923C418.071 509.523 415.471 499.723 419.871 492.023C424.371 484.423 434.071 481.823 441.771 486.223C490.371 514.523 531.671 554.523 561.071 601.923C578.871 630.623 592.271 661.523 605.171 691.423C608.671 699.523 604.971 708.923 596.771 712.423C594.771 713.523 592.571 713.923 590.471 713.923Z" fill="#F5B6CD"/>
<path d="M149.569 561.522C145.569 561.522 141.569 560.022 138.469 557.022C135.469 554.122 132.869 550.922 130.669 547.522C114.769 522.522 125.369 490.722 143.369 473.422C161.569 455.922 186.069 449.522 205.369 445.822C224.669 442.122 244.569 440.222 264.469 439.922C264.569 439.922 264.569 439.922 264.669 439.922C273.369 439.922 280.569 446.922 280.669 455.722C280.769 464.522 273.669 471.822 264.869 471.922C246.869 472.122 228.869 473.922 211.369 477.222C196.469 480.022 177.769 484.822 165.669 496.422C156.869 504.822 151.369 520.222 157.869 530.322C158.669 531.622 159.669 532.822 160.869 533.922C167.269 540.022 167.469 550.222 161.269 556.522C157.969 559.922 153.769 561.522 149.569 561.522Z" fill="#F5B6CD"/>
<path d="M572.671 640.421C564.171 640.421 555.971 635.421 552.471 627.121C536.171 589.121 496.271 545.721 495.871 545.221C487.671 536.321 488.171 522.421 497.071 514.121C505.971 505.921 519.871 506.421 528.171 515.321C529.971 517.321 573.571 564.821 592.871 609.721C597.671 620.921 592.471 633.821 581.271 638.621C578.571 639.821 575.571 640.421 572.671 640.421Z" fill="#9063CD"/>
<path d="M700.472 554.522C699.672 554.522 698.872 554.322 698.172 553.822C688.872 548.222 682.372 539.322 679.772 528.822C677.172 518.322 678.872 507.422 684.472 498.122L693.772 482.722C695.072 480.622 697.872 479.922 699.972 481.222C702.072 482.522 702.772 485.322 701.472 487.422L692.172 502.822C683.172 517.722 687.972 537.122 702.872 546.122C704.972 547.422 705.672 550.222 704.372 552.322C703.472 553.722 702.072 554.522 700.472 554.522Z" fill="#FDDA24"/>
<path d="M767.671 472.321C765.671 472.321 763.771 470.921 763.271 468.921C758.971 451.421 748.071 436.621 732.571 427.221C717.071 417.921 698.971 415.121 681.371 419.421C678.971 420.021 676.471 418.521 675.871 416.121C675.271 413.721 676.771 411.221 679.171 410.621C699.071 405.721 719.671 408.821 737.171 419.421C754.671 430.021 767.071 446.821 771.971 466.621C772.571 469.021 771.071 471.521 768.671 472.121C768.371 472.221 767.971 472.321 767.671 472.321Z" fill="#FDDA24"/>
<path d="M719.172 523.62C718.372 523.62 717.572 523.42 716.872 522.92C714.772 521.62 714.072 518.82 715.372 516.72L724.672 501.32C733.672 486.42 728.872 467.02 713.972 458.02C706.772 453.62 698.272 452.42 690.072 454.42C681.872 456.42 674.972 461.52 670.672 468.72L656.672 491.82C655.372 493.92 652.572 494.62 650.472 493.32C648.372 492.02 647.672 489.22 648.972 487.12L662.972 464.02C668.572 454.72 677.472 448.22 687.972 445.62C698.472 443.02 709.372 444.72 718.672 450.32C737.772 461.92 743.972 486.92 732.372 506.02L723.072 521.42C722.172 522.92 720.672 523.62 719.172 523.62Z" fill="#00C389"/>
<path d="M623.37 507.92C622.57 507.92 621.77 507.72 621.07 507.22C618.97 505.92 618.27 503.12 619.57 501.02L647.57 454.72C660.37 433.52 685.27 422.62 709.57 427.62C711.97 428.12 713.57 430.52 713.07 432.92C712.57 435.32 710.17 436.92 707.77 436.42C687.27 432.22 666.17 441.42 655.27 459.32L627.27 505.62C626.37 507.12 624.87 507.92 623.37 507.92Z" fill="#59CBE8"/>
<path d="M743.869 517.52C743.069 517.52 742.269 517.32 741.569 516.82C739.469 515.52 738.769 512.72 740.069 510.62C746.969 499.32 748.969 485.92 745.769 473.12C742.569 460.32 734.569 449.42 723.269 442.52C721.169 441.22 720.469 438.42 721.769 436.32C723.069 434.22 725.869 433.52 727.969 434.82C741.369 442.92 750.769 455.72 754.569 470.92C758.369 486.12 755.969 501.82 747.869 515.22C746.869 516.72 745.469 517.52 743.869 517.52Z" fill="#59CBE8"/>
<path d="M719.069 541.719C714.969 541.719 710.969 540.619 707.469 538.419C696.869 532.019 693.369 518.119 699.869 507.519L709.169 492.119C713.069 485.719 710.969 477.419 704.569 473.519C698.169 469.619 689.869 471.719 685.969 478.119C684.669 480.219 681.869 480.919 679.769 479.619C677.669 478.319 676.969 475.519 678.269 473.419C684.669 462.819 698.569 459.319 709.169 465.819C719.769 472.219 723.269 486.119 716.769 496.719L707.469 512.119C703.569 518.519 705.669 526.819 712.069 530.719C715.169 532.619 718.769 533.119 722.269 532.319C725.769 531.419 728.769 529.319 730.569 526.219C731.869 524.119 734.669 523.419 736.769 524.719C738.869 526.019 739.569 528.819 738.269 530.919C735.169 536.119 730.269 539.719 724.369 541.119C722.769 541.419 720.969 541.719 719.069 541.719Z" fill="#F5B6CD"/>
<path d="M654.171 526.522C653.371 526.522 652.571 526.322 651.871 525.822C649.771 524.522 649.071 521.722 650.371 519.622L669.071 488.722C670.371 486.622 673.171 485.922 675.271 487.222C677.371 488.522 678.071 491.322 676.771 493.422L658.071 524.322C657.271 525.722 655.771 526.522 654.171 526.522Z" fill="#9063CD"/>
<path d="M660.87 393.621C660.07 393.621 659.27 393.421 658.57 392.921C656.47 391.621 655.77 388.821 657.07 386.721L664.07 375.121C669.17 366.621 680.27 363.921 688.87 369.021L700.47 376.021C702.57 377.321 703.27 380.121 701.97 382.221C700.67 384.321 697.87 385.021 695.77 383.721L684.17 376.721C679.87 374.121 674.37 375.521 671.77 379.821L664.77 391.421C663.87 392.821 662.37 393.621 660.87 393.621Z" fill="#9063CD"/>
<path d="M799.672 477.522C798.872 477.522 798.072 477.322 797.372 476.822C795.272 475.522 794.572 472.722 795.872 470.622L802.872 459.022C804.072 456.922 804.472 454.522 803.872 452.222C803.272 449.922 801.872 447.922 799.772 446.622L788.172 439.622C786.072 438.322 785.372 435.522 786.672 433.422C787.972 431.322 790.772 430.622 792.872 431.922L804.472 438.922C808.572 441.422 811.472 445.322 812.672 450.022C813.872 454.722 813.072 459.522 810.572 463.622L803.572 475.222C802.672 476.722 801.172 477.522 799.672 477.522Z" fill="#FF7F41"/>
<path d="M720.47 595.922C717.27 595.922 714.07 595.022 711.17 593.322L699.57 586.322C697.47 585.022 696.77 582.222 698.07 580.122C699.37 578.022 702.17 577.322 704.27 578.622L715.87 585.622C717.97 586.822 720.37 587.222 722.67 586.622C724.97 586.022 726.97 584.622 728.27 582.522L735.27 570.922C736.57 568.822 739.37 568.122 741.47 569.422C743.57 570.722 744.27 573.522 742.97 575.622L735.97 587.222C733.47 591.322 729.57 594.222 724.87 595.422C723.37 595.722 721.97 595.922 720.47 595.922Z" fill="#9063CD"/>
<path d="M609.371 531.019C608.571 531.019 607.771 530.819 607.071 530.319L595.471 523.319C591.371 520.819 588.471 516.919 587.271 512.219C586.071 507.519 586.871 502.719 589.371 498.619L596.371 487.019C597.671 484.919 600.471 484.219 602.571 485.519C604.671 486.819 605.371 489.619 604.071 491.719L597.071 503.319C595.871 505.419 595.471 507.819 596.071 510.119C596.671 512.419 598.071 514.419 600.171 515.719L611.771 522.719C613.871 524.019 614.571 526.819 613.271 528.919C612.371 530.219 610.871 531.019 609.371 531.019Z" fill="#FF7F41"/>
<path d="M638.772 517.221C637.972 517.221 637.172 517.021 636.472 516.521C634.372 515.221 633.672 512.421 634.972 510.321L639.672 502.621C640.972 500.521 643.772 499.821 645.872 501.121C647.972 502.421 648.672 505.221 647.372 507.321L642.672 515.021C641.772 516.421 640.272 517.221 638.772 517.221Z" fill="#9063CD"/>
</svg>
