<svg width="1080" height="1080" viewBox="0 0 1080 1080" fill="none" xmlns="http://www.w3.org/2000/svg">
<path d="M545.977 864C545.977 790.5 605.477 731 678.977 731C752.477 731 811.977 790.5 811.977 864" fill="#FF7F41"/>
<path d="M164.477 863.999C164.477 742.399 263.077 643.699 384.777 643.699C506.477 643.699 605.077 742.399 605.077 863.999" fill="#FF7F41"/>
<path d="M279.777 971.701C276.577 971.701 273.277 971.401 269.977 970.701C242.877 965.301 225.277 939.001 230.677 911.901L268.377 721.901L282.877 525.701C284.877 498.201 308.877 477.501 336.377 479.501C363.877 481.501 384.577 505.501 382.577 533.001L367.877 732.201C367.677 734.201 367.477 736.201 367.077 738.201L328.877 931.201C323.977 955.201 303.077 971.701 279.777 971.701Z" fill="#2C2A29"/>
<path d="M430.474 977C404.474 977 382.474 956.9 380.674 930.5L356.074 582.9C354.174 555.4 374.874 531.4 402.474 529.5C429.974 527.6 453.974 548.3 455.874 575.9L480.474 923.5C482.374 951 461.674 975 434.074 976.9C432.874 977 431.674 977 430.474 977Z" fill="#2C2A29"/>
<path d="M416.574 442.5C467.374 447.3 527.274 427.4 570.374 391.5L416.574 442.5Z" fill="#59CBE8"/>
<path d="M432.075 467.199C426.075 467.199 420.175 466.899 414.275 466.399C401.075 465.199 391.375 453.399 392.675 440.199C393.875 426.999 405.675 417.299 418.875 418.599C463.375 422.799 516.875 404.899 555.075 373.099C565.275 364.599 580.375 365.999 588.875 376.199C597.375 386.399 595.975 401.499 585.775 409.999C542.375 446.099 484.975 467.199 432.075 467.199Z" fill="#59CBE8"/>
<path d="M461.477 463.998C492.377 459.198 523.577 449.798 553.177 436.398L461.477 463.998Z" fill="#59CBE8"/>
<path d="M461.476 477.997C454.676 477.997 448.776 473.097 447.676 466.197C446.476 458.597 451.676 451.397 459.376 450.197C489.176 445.497 518.876 436.597 547.576 423.697C554.676 420.497 562.876 423.697 566.076 430.697C569.276 437.797 566.076 445.997 559.076 449.197C528.076 463.097 496.076 472.797 463.776 477.797C462.976 477.897 462.176 477.997 461.476 477.997Z" fill="#FF7F41"/>
<path d="M299.377 333.601L239.277 599.801L470.177 593.401C473.277 532.501 468.177 437.601 430.577 384.201C375.277 305.601 299.377 333.601 299.377 333.601Z" fill="#9063CD"/>
<path d="M318.175 423.801C312.975 423.801 307.975 420.801 305.575 415.801C302.275 408.801 305.275 400.501 312.275 397.301C313.775 396.601 315.575 395.801 317.475 394.901C323.275 392.301 336.875 386.101 340.175 382.601C341.275 381.401 342.975 379.601 340.175 375.001C339.075 373.301 338.075 371.601 331.075 374.301C323.875 377.001 315.875 373.301 313.175 366.001C310.475 358.801 314.175 350.801 321.475 348.101C339.575 341.401 355.175 345.901 364.075 360.401C372.575 374.301 371.375 390.001 360.875 401.401C354.275 408.501 342.575 414.201 329.175 420.301C327.375 421.101 325.775 421.801 324.375 422.501C322.175 423.301 320.175 423.801 318.175 423.801Z" fill="#9063CD"/>
<path d="M181.975 564.601C179.375 564.601 176.675 564.201 173.975 563.201C161.475 558.901 154.975 545.201 159.375 532.701C165.575 515.001 173.375 498.001 182.775 482.001C215.275 426.301 265.875 381.901 325.375 356.901C337.575 351.801 351.675 357.501 356.775 369.801C361.875 382.101 356.175 396.101 343.875 401.201C293.975 422.101 251.475 459.401 224.275 506.201C216.475 519.601 209.875 533.801 204.675 548.601C201.175 558.501 191.875 564.601 181.975 564.601Z" fill="#F5B6CD"/>
<path d="M202.875 471.203C200.175 471.203 197.475 470.403 195.075 468.803C188.675 464.503 187.075 455.803 191.475 449.403C223.675 402.303 272.975 364.703 326.675 346.203C333.975 343.703 341.875 347.603 344.375 354.803C346.875 362.103 342.975 370.003 335.775 372.503C287.575 389.103 243.375 422.803 214.475 465.103C211.675 469.103 207.375 471.203 202.875 471.203Z" fill="#00C389"/>
<path d="M405.158 297.119C425.785 277.375 425.045 243.127 403.505 220.625C381.966 198.123 347.783 195.888 327.157 215.632C306.53 235.377 307.27 269.624 328.809 292.126C350.349 314.628 384.531 316.863 405.158 297.119Z" fill="#B28038"/>
<path d="M510.474 435.096L552.674 455.996C562.774 460.996 574.874 456.796 579.874 446.796L631.774 341.696C636.774 331.596 632.574 319.496 622.574 314.496L580.374 293.596C570.274 288.596 558.174 292.796 553.174 302.796L501.274 407.896C496.274 417.996 500.374 430.096 510.474 435.096Z" fill="#FDDA24"/>
<path d="M561.675 459.298C558.375 459.298 555.175 458.498 552.175 457.098L509.975 436.198C504.775 433.598 500.975 429.198 499.075 423.798C497.275 418.298 497.575 412.498 500.175 407.298L552.075 302.198C554.675 296.998 559.075 293.198 564.475 291.298C569.975 289.498 575.775 289.798 580.975 292.398L623.175 313.298C633.875 318.598 638.275 331.498 632.975 342.198L580.975 447.298C578.375 452.498 573.975 456.298 568.575 458.198C566.275 458.998 563.975 459.298 561.675 459.298ZM510.975 433.998L553.175 454.898C557.775 457.198 562.875 457.498 567.775 455.898C572.575 454.298 576.475 450.898 578.775 446.298L630.675 341.198C635.375 331.798 631.475 320.298 622.075 315.698L579.875 294.798C575.275 292.498 570.175 292.198 565.275 293.798C560.475 295.398 556.575 298.798 554.275 303.398L502.375 408.498C500.075 413.098 499.775 418.198 501.375 423.098C502.975 427.798 506.475 431.698 510.975 433.998Z" fill="#FDDA24"/>
<path d="M638.277 364.5C636.377 364.5 634.477 363.5 633.477 361.7C632.277 359.6 632.577 356.9 634.277 355.1L680.677 306.1V140C680.677 119.6 697.277 103 717.677 103H885.977C906.377 103 922.977 119.6 922.977 140V308.4C922.977 328.8 906.377 345.4 885.977 345.4H718.277L639.477 364.4C639.077 364.5 638.677 364.5 638.277 364.5ZM717.677 114.1C703.377 114.1 691.777 125.7 691.777 140V308.4C691.777 309.8 691.277 311.2 690.277 312.2L655.277 349.2L716.377 334.4C716.777 334.3 717.277 334.2 717.677 334.2H885.977C900.277 334.2 911.877 322.6 911.877 308.3V140C911.877 125.7 900.277 114.1 885.977 114.1H717.677Z" fill="#FDDA24"/>
<path d="M837.877 287.702C815.477 287.702 797.277 269.502 797.277 247.102V229.102C797.277 226.602 799.277 224.602 801.777 224.602C804.277 224.602 806.277 226.602 806.277 229.102V247.102C806.277 264.502 820.477 278.602 837.777 278.602C840.277 278.602 842.277 280.602 842.277 283.102C842.277 285.602 840.377 287.702 837.877 287.702Z" fill="#FDDA24"/>
<path d="M852.777 182.6C851.577 182.6 850.477 182.2 849.577 181.3C836.777 168.5 819.877 161.5 801.777 161.5C783.677 161.5 766.777 168.5 753.977 181.3C752.177 183.1 749.377 183.1 747.577 181.3C745.777 179.5 745.777 176.7 747.577 174.9C762.077 160.4 781.277 152.5 801.777 152.5C822.277 152.5 841.477 160.5 855.977 174.9C857.777 176.7 857.777 179.5 855.977 181.3C855.077 182.2 853.877 182.6 852.777 182.6Z" fill="#FDDA24"/>
<path d="M765.777 260.6C763.277 260.6 761.277 258.6 761.277 256.1V229.1C761.277 206.7 779.477 188.5 801.877 188.5C824.277 188.5 842.477 206.7 842.477 229.1V247.1C842.477 249.6 840.477 251.6 837.977 251.6C835.477 251.6 833.477 249.6 833.477 247.1V229.1C833.477 211.7 819.277 197.6 801.977 197.6C784.677 197.6 770.477 211.8 770.477 229.1V256.1C770.277 258.6 768.177 260.6 765.777 260.6Z" fill="#00C389"/>
<path d="M747.676 287.699C745.176 287.699 743.176 285.699 743.176 283.199V229.099C743.176 204.299 758.876 182.099 782.276 173.799C784.576 172.999 787.176 174.199 788.076 176.499C788.876 178.799 787.676 181.399 785.376 182.299C765.576 189.299 752.376 208.099 752.376 229.099V283.199C752.176 285.699 750.176 287.699 747.676 287.699Z" fill="#59CBE8"/>
<path d="M855.877 233.6C853.377 233.6 851.377 231.6 851.377 229.1C851.377 201.8 829.177 179.5 801.777 179.5C799.277 179.5 797.277 177.5 797.277 175C797.277 172.5 799.277 170.5 801.777 170.5C834.077 170.5 860.377 196.8 860.377 229.1C860.377 231.6 858.377 233.6 855.877 233.6Z" fill="#59CBE8"/>
<path d="M837.875 269.602C825.475 269.602 815.375 259.502 815.375 247.102V229.102C815.375 221.602 809.275 215.602 801.875 215.602C794.475 215.602 788.375 221.702 788.375 229.102C788.375 231.602 786.375 233.602 783.875 233.602C781.375 233.602 779.375 231.602 779.375 229.102C779.375 216.702 789.475 206.602 801.875 206.602C814.275 206.602 824.375 216.702 824.375 229.102V247.102C824.375 254.602 830.475 260.602 837.875 260.602C845.275 260.602 851.375 254.502 851.375 247.102C851.375 244.602 853.375 242.602 855.875 242.602C858.375 242.602 860.375 244.602 860.375 247.102C860.375 259.502 850.275 269.602 837.875 269.602Z" fill="#F5B6CD"/>
<path d="M783.777 287.702C781.277 287.702 779.277 285.702 779.277 283.202V247.102C779.277 244.602 781.277 242.602 783.777 242.602C786.277 242.602 788.277 244.602 788.277 247.102V283.202C788.277 285.702 786.277 287.702 783.777 287.702Z" fill="#9063CD"/>
<path d="M720.676 170.5C718.176 170.5 716.176 168.5 716.176 166V152.5C716.176 142.6 724.276 134.5 734.176 134.5H747.676C750.176 134.5 752.176 136.5 752.176 139C752.176 141.5 750.176 143.5 747.676 143.5H734.176C729.176 143.5 725.176 147.5 725.176 152.5V166C725.176 168.5 723.176 170.5 720.676 170.5Z" fill="#9063CD"/>
<path d="M882.875 170.5C880.375 170.5 878.375 168.5 878.375 166V152.5C878.375 147.5 874.375 143.5 869.375 143.5H855.875C853.375 143.5 851.375 141.5 851.375 139C851.375 136.5 853.375 134.5 855.875 134.5H869.375C879.275 134.5 887.375 142.6 887.375 152.5V166C887.375 168.5 885.375 170.5 882.875 170.5Z" fill="#FF7F41"/>
<path d="M869.375 314.699H855.875C853.375 314.699 851.375 312.699 851.375 310.199C851.375 307.699 853.375 305.699 855.875 305.699H869.375C874.375 305.699 878.375 301.699 878.375 296.699V283.199C878.375 280.699 880.375 278.699 882.875 278.699C885.375 278.699 887.375 280.699 887.375 283.199V296.699C887.375 306.599 879.375 314.699 869.375 314.699Z" fill="#9063CD"/>
<path d="M747.676 314.699H734.176C724.276 314.699 716.176 306.599 716.176 296.699V283.199C716.176 280.699 718.176 278.699 720.676 278.699C723.176 278.699 725.176 280.699 725.176 283.199V296.699C725.176 301.699 729.176 305.699 734.176 305.699H747.676C750.176 305.699 752.176 307.699 752.176 310.199C752.176 312.699 750.176 314.699 747.676 314.699Z" fill="#FF7F41"/>
<path d="M765.777 287.699C763.277 287.699 761.277 285.699 761.277 283.199V274.199C761.277 271.699 763.277 269.699 765.777 269.699C768.277 269.699 770.277 271.699 770.277 274.199V283.199C770.277 285.699 768.177 287.699 765.777 287.699Z" fill="#9063CD"/>
</svg>
