<svg width="1080" height="1080" viewBox="0 0 1080 1080" fill="none" xmlns="http://www.w3.org/2000/svg">
<path d="M522.5 655.102H212V369.602C212 350.302 227.7 334.602 247 334.602H487.6C506.9 334.602 522.6 350.302 522.6 369.602V655.102H522.5Z" fill="#FF7F41"/>
<path d="M457.1 770.702H277.4C241.3 770.702 212 741.402 212 705.302V418.202C212 396.202 229.8 378.402 251.8 378.402H482.8C504.8 378.402 522.6 396.202 522.6 418.202V705.302C522.5 741.402 493.3 770.702 457.1 770.702Z" fill="#FDDA24"/>
<path d="M475.602 554.902H259.002C254.902 554.902 251.602 551.602 251.602 547.502V424.002C251.602 419.902 254.902 416.602 259.002 416.602H475.602C479.702 416.602 483.002 419.902 483.002 424.002V547.402C483.002 551.502 479.702 554.902 475.602 554.902Z" fill="white"/>
<path d="M294.1 604.401H255.8C253.4 604.401 251.5 602.501 251.5 600.101V577.601C251.5 575.201 253.4 573.301 255.8 573.301H294.1C296.5 573.301 298.4 575.201 298.4 577.601V600.101C298.4 602.501 296.5 604.401 294.1 604.401Z" fill="white"/>
<path d="M355.702 604.401H317.402C315.002 604.401 313.102 602.501 313.102 600.101V577.601C313.102 575.201 315.002 573.301 317.402 573.301H355.702C358.102 573.301 360.002 575.201 360.002 577.601V600.101C359.902 602.501 358.002 604.401 355.702 604.401Z" fill="white"/>
<path d="M417.202 604.401H378.902C376.502 604.401 374.602 602.501 374.602 600.101V577.601C374.602 575.201 376.502 573.301 378.902 573.301H417.202C419.602 573.301 421.502 575.201 421.502 577.601V600.101C421.502 602.501 419.602 604.401 417.202 604.401Z" fill="white"/>
<path d="M478.702 604.401H440.402C438.002 604.401 436.102 602.501 436.102 600.101V577.601C436.102 575.201 438.002 573.301 440.402 573.301H478.702C481.102 573.301 483.002 575.201 483.002 577.601V600.101C483.002 602.501 481.102 604.401 478.702 604.401Z" fill="#00C389"/>
<path d="M294.1 646.799H255.8C253.4 646.799 251.5 644.899 251.5 642.499V619.999C251.5 617.599 253.4 615.699 255.8 615.699H294.1C296.5 615.699 298.4 617.599 298.4 619.999V642.499C298.4 644.799 296.5 646.799 294.1 646.799Z" fill="white"/>
<path d="M355.702 646.799H317.402C315.002 646.799 313.102 644.899 313.102 642.499V619.999C313.102 617.599 315.002 615.699 317.402 615.699H355.702C358.102 615.699 360.002 617.599 360.002 619.999V642.499C359.902 644.799 358.002 646.799 355.702 646.799Z" fill="white"/>
<path d="M417.202 646.799H378.902C376.502 646.799 374.602 644.899 374.602 642.499V619.999C374.602 617.599 376.502 615.699 378.902 615.699H417.202C419.602 615.699 421.502 617.599 421.502 619.999V642.499C421.502 644.799 419.602 646.799 417.202 646.799Z" fill="white"/>
<path d="M478.702 646.799H440.402C438.002 646.799 436.102 644.899 436.102 642.499V619.999C436.102 617.599 438.002 615.699 440.402 615.699H478.702C481.102 615.699 483.002 617.599 483.002 619.999V642.499C483.002 644.799 481.102 646.799 478.702 646.799Z" fill="#FF7F41"/>
<path d="M294.1 689.002H255.8C253.4 689.002 251.5 687.102 251.5 684.702V662.202C251.5 659.802 253.4 657.902 255.8 657.902H294.1C296.5 657.902 298.4 659.802 298.4 662.202V684.702C298.4 687.002 296.5 689.002 294.1 689.002Z" fill="white"/>
<path d="M355.702 689.002H317.402C315.002 689.002 313.102 687.102 313.102 684.702V662.202C313.102 659.802 315.002 657.902 317.402 657.902H355.702C358.102 657.902 360.002 659.802 360.002 662.202V684.702C359.902 687.002 358.002 689.002 355.702 689.002Z" fill="white"/>
<path d="M417.202 689.002H378.902C376.502 689.002 374.602 687.102 374.602 684.702V662.202C374.602 659.802 376.502 657.902 378.902 657.902H417.202C419.602 657.902 421.502 659.802 421.502 662.202V684.702C421.502 687.002 419.602 689.002 417.202 689.002Z" fill="white"/>
<path d="M476.402 731.302H442.702C439.102 731.302 436.102 728.402 436.102 724.702V664.502C436.102 660.902 439.002 657.902 442.702 657.902H476.402C480.002 657.902 483.002 660.802 483.002 664.502V724.702C483.002 728.402 480.102 731.302 476.402 731.302Z" fill="#9063CD"/>
<path d="M294.1 731.303H255.8C253.4 731.303 251.5 729.403 251.5 727.003V704.503C251.5 702.103 253.4 700.203 255.8 700.203H294.1C296.5 700.203 298.4 702.103 298.4 704.503V727.003C298.4 729.403 296.5 731.303 294.1 731.303Z" fill="white"/>
<path d="M355.702 731.303H317.402C315.002 731.303 313.102 729.403 313.102 727.003V704.503C313.102 702.103 315.002 700.203 317.402 700.203H355.702C358.102 700.203 360.002 702.103 360.002 704.503V727.003C359.902 729.403 358.002 731.303 355.702 731.303Z" fill="white"/>
<path d="M417.202 731.303H378.902C376.502 731.303 374.602 729.403 374.602 727.003V704.503C374.602 702.103 376.502 700.203 378.902 700.203H417.202C419.602 700.203 421.502 702.103 421.502 704.503V727.003C421.502 729.403 419.602 731.303 417.202 731.303Z" fill="white"/>
<path d="M483 354.301H251.5V313.301C251.5 304.801 258.4 297.801 267 297.801H467.6C476.1 297.801 483.1 304.701 483.1 313.301V354.301H483Z" fill="#F5B6CD"/>
<path d="M477.3 367H257.3C254.1 367 251.5 364.4 251.5 361.2V326C251.5 317.5 258.4 310.5 267 310.5H467.6C476.1 310.5 483.1 317.4 483.1 326V361.3C483 364.4 480.4 367 477.3 367Z" fill="#2C2A29"/>
<path d="M667.099 911.8C778.329 911.8 868.499 821.63 868.499 710.4C868.499 599.17 778.329 509 667.099 509C555.869 509 465.699 599.17 465.699 710.4C465.699 821.63 555.869 911.8 667.099 911.8Z" fill="#E4AC7B"/>
<path d="M760.498 785.4L527.898 785.5C502.998 785.5 482.798 765.3 482.798 740.4L482.598 214.3C482.598 189.4 502.798 169.2 527.698 169.2L760.298 169C785.198 169 805.398 189.2 805.398 214.1L805.598 740.2C805.598 765.2 785.498 785.4 760.498 785.4Z" fill="#59CBE8"/>
<path d="M644.199 769.898C655.521 769.898 664.699 760.72 664.699 749.398C664.699 738.077 655.521 728.898 644.199 728.898C632.877 728.898 623.699 738.077 623.699 749.398C623.699 760.72 632.877 769.898 644.199 769.898Z" fill="white"/>
<path d="M781.297 237.5L781.397 709.6L781.297 709.7L506.997 709.8V655.3L506.797 237.6L781.297 237.5Z" fill="white"/>
<path d="M710.599 365.599L568.399 381.599C559.999 382.499 553.199 390.799 553.199 400.099V489.499C553.199 498.799 559.999 505.499 568.399 504.499L710.599 488.499C718.999 487.599 725.799 479.299 725.799 469.999V397.399V380.599C725.799 371.299 718.999 364.599 710.599 365.599Z" fill="#FF7F41"/>
<path d="M569.797 387.899L701.897 353.699L702.697 399.499L569.797 387.899Z" fill="#59CBE8"/>
<path d="M569.797 387.901L720.597 360.301V407.201L569.797 387.901Z" fill="#00C389"/>
<path d="M717.698 391.799L568.998 384.099C560.198 383.599 553.098 390.799 553.098 399.999V489.399C553.098 498.699 560.198 506.499 568.998 506.999L717.598 514.699C726.398 515.199 733.498 507.999 733.498 498.799V426.199V409.399C733.598 400.099 726.498 392.299 717.698 391.799Z" fill="#9063CD"/>
<path d="M712.596 463.598C717.07 463.598 720.696 459.972 720.696 455.498C720.696 451.025 717.07 447.398 712.596 447.398C708.123 447.398 704.496 451.025 704.496 455.498C704.496 459.972 708.123 463.598 712.596 463.598Z" fill="#FDDA24"/>
<path d="M781.3 655.199H507V709.699H781.3V655.199Z" fill="#FDDA24"/>
<path d="M506.5 710.299V654.799H507L781.8 654.699V710.199H781.3L506.5 710.299ZM507.5 655.799V709.299L780.8 709.199V655.699L507.5 655.799Z" fill="#FDDA24"/>
<path d="M862.698 731.5C855.898 763.2 842.298 793.4 822.698 819.8C818.298 825.7 814.698 832.7 811.698 840.3C808.198 849.1 781.998 862.2 772.398 857.1L715.998 785.7C713.798 776.9 712.598 767.7 712.598 758.2C712.598 720.5 731.198 687.2 759.698 666.9C768.798 660.4 770.598 658.4 781.398 654.9V607.1L738.898 519.7C722.198 493.7 729.798 459.2 755.698 442.5C756.798 441.8 757.998 441.5 759.198 441.5C761.298 441.5 763.398 442.5 764.598 444.5L810.498 516L850.198 577.3C859.598 591.8 864.898 608.5 865.698 625.8L866.698 647.9L866.998 654.4V654.6L867.798 672.5C868.598 692.4 866.898 712.3 862.698 731.5Z" fill="#E4AC7B"/>
<path d="M716 785.699L772.4 857.199C744.7 842.599 723.9 816.699 716 785.699Z" fill="#E4AC7B"/>
<path d="M468.7 704.101L435.9 662.901C422.8 646.501 425.5 622.601 442 609.501L471.7 585.801L528.2 656.701C541.3 673.101 538.6 697.001 522.1 710.101C505.7 723.301 481.8 720.601 468.7 704.101Z" fill="#E4AC7B"/>
<path d="M468.7 627.3L435.9 586.1C422.8 569.7 425.5 545.8 442 532.7L471.7 509L528.2 579.9C541.3 596.3 538.6 620.2 522.1 633.3C505.6 646.4 481.7 643.7 468.7 627.3Z" fill="#E4AC7B"/>
<path d="M468.598 550.499L435.798 509.299C422.698 492.899 425.398 468.999 441.898 455.899L471.598 432.199L528.098 503.099C541.198 519.499 538.498 543.399 522.098 556.499C505.598 569.599 481.698 566.899 468.598 550.499Z" fill="#E4AC7B"/>
<path d="M471.598 355.402L482.698 347.102V387.902L471.598 355.402Z" fill="#E4AC7B"/>
<path d="M468.598 473.601L435.798 432.401C422.698 416.001 425.398 392.101 441.898 379.001L471.598 355.301L528.098 426.201C541.198 442.601 538.498 466.501 521.998 479.601C505.598 492.701 481.698 490.001 468.598 473.601Z" fill="#E4AC7B"/>
<path d="M370.602 540.801C401.253 540.801 426.102 515.953 426.102 485.301C426.102 454.649 401.253 429.801 370.602 429.801C339.95 429.801 315.102 454.649 315.102 485.301C315.102 515.953 339.95 540.801 370.602 540.801Z" fill="#00C389"/>
<path d="M355.102 516.901C353.702 516.901 352.302 516.301 351.302 515.301L336.602 500.601C334.502 498.501 334.502 495.201 336.602 493.101C338.702 491.001 342.002 491.001 344.102 493.101L355.002 504.001L397.002 462.001C399.102 459.901 402.402 459.901 404.502 462.001C406.602 464.101 406.602 467.401 404.502 469.501L358.802 515.201C357.802 516.301 356.502 516.901 355.102 516.901Z" fill="white"/>
</svg>
