<svg width="1080" height="1080" viewBox="0 0 1080 1080" fill="none" xmlns="http://www.w3.org/2000/svg">
<g clip-path="url(#clip0)">
<path d="M541.548 978.842C572.276 929.848 555.939 864.211 505.061 832.238C454.182 800.265 388.027 814.064 357.3 863.058C326.573 912.052 342.909 977.689 393.788 1009.66C444.667 1041.63 510.821 1027.84 541.548 978.842Z" fill="#2C2A29"/>
<path d="M329.012 455.968C329.012 455.968 408.303 446.947 470.132 492.013L437.17 562.492L329.012 455.968Z" fill="#F5B6CD"/>
<path d="M325.983 575.161C325.983 575.161 305.467 515.271 329.023 455.996C329.023 455.996 385.298 482.549 437.181 562.52C437.173 562.49 356.727 560.025 325.983 575.161Z" fill="#9063CD"/>
<path d="M815.361 732.171C821.132 587.749 701.968 465.714 549.201 459.597C396.433 453.48 267.912 565.599 262.141 710.021C256.37 854.442 375.534 976.478 528.302 982.595C681.069 988.712 809.59 876.593 815.361 732.171Z" fill="#F5B6CD"/>
<path d="M460.082 475.012C460.135 475.012 490.575 474.252 506.836 491.898C506.836 491.898 611.818 483.835 685.546 513.827C685.546 513.827 676.2 498.827 651.178 486.581C576.887 464.349 534.624 455.229 460.082 475.012Z" fill="#2C2A29"/>
<path d="M420.72 827.633L300.23 827.29L220.84 617.848C220.84 617.848 287.532 624.982 347.28 624.982C399.033 624.982 420.72 827.633 420.72 827.633Z" fill="#F5B6CD"/>
<path d="M593.163 488.614C640.542 488.614 678.95 450.167 678.95 402.74C678.95 355.314 640.542 316.867 593.163 316.867C545.783 316.867 507.375 355.314 507.375 402.74C507.375 450.167 545.783 488.614 593.163 488.614Z" fill="#FDDA24"/>
<path d="M583.23 488.39C570.692 486.931 558.627 482.731 547.889 476.089C537.151 469.446 528.002 460.523 521.091 449.95C514.179 439.377 509.672 427.413 507.89 414.904C506.108 402.395 507.094 389.647 510.778 377.561C515.56 361.886 524.706 347.899 537.145 337.24C549.584 326.582 564.8 319.693 581.011 317.382C597.221 315.07 613.753 317.431 628.671 324.188C643.589 330.945 656.273 341.818 665.238 355.534C674.203 369.249 679.078 385.238 679.29 401.627C679.502 418.015 675.043 434.125 666.435 448.068C657.828 462.011 645.429 473.209 630.691 480.351C615.953 487.492 599.487 490.281 583.222 488.39H583.23ZM602.88 317.739C586.747 315.893 570.422 318.686 555.817 325.791C541.212 332.897 528.932 344.02 520.414 357.859C511.896 371.698 507.494 387.679 507.721 403.932C507.949 420.186 512.799 436.037 521.701 449.631C530.603 463.225 543.191 473.999 557.989 480.691C572.788 487.383 589.184 489.717 605.26 487.418C621.335 485.12 636.423 478.284 648.758 467.712C661.092 457.14 670.163 443.269 674.907 427.724L675.233 427.823L674.907 427.724C681.498 406.029 679.224 382.603 668.583 362.584C657.942 342.566 639.803 327.59 618.145 320.941C613.163 319.418 608.054 318.346 602.88 317.739Z" fill="#FDDA24"/>
<path d="M593.163 452.225C620.466 452.225 642.599 430.07 642.599 402.739C642.599 375.409 620.466 353.254 593.163 353.254C565.86 353.254 543.727 375.409 543.727 402.739C543.727 430.07 565.86 452.225 593.163 452.225Z" fill="#FF7F41"/>
<path d="M584.994 207.262C611.247 207.262 632.53 185.958 632.53 159.678C632.53 133.398 611.247 112.094 584.994 112.094C558.74 112.094 537.457 133.398 537.457 159.678C537.457 185.958 558.74 207.262 584.994 207.262Z" fill="#FDDA24"/>
<path d="M579.57 207.164C576.685 206.825 573.837 206.227 571.06 205.376C562.03 202.617 554.02 197.239 548.043 189.923C542.067 182.607 538.392 173.681 537.483 164.274C536.575 154.867 538.473 145.402 542.939 137.075C547.405 128.749 554.237 121.935 562.572 117.495C570.907 113.055 580.37 111.19 589.764 112.134C599.158 113.077 608.061 116.789 615.348 122.798C622.635 128.808 627.978 136.845 630.701 145.894C633.424 154.943 633.406 164.597 630.647 173.636L630.465 173.583L630.647 173.636C627.387 184.317 620.494 193.518 611.163 199.642C601.833 205.767 590.656 208.428 579.57 207.164ZM590.459 112.597C578.329 111.171 566.117 114.483 556.365 121.843C546.612 129.202 540.071 140.043 538.102 152.109C536.133 164.174 538.888 176.535 545.793 186.619C552.699 196.702 563.223 203.732 575.176 206.244C587.128 208.757 599.588 206.559 609.963 200.108C620.337 193.656 627.827 183.449 630.873 171.61C633.919 159.771 632.286 147.212 626.316 136.547C620.345 125.882 610.495 117.933 598.817 114.354C596.089 113.518 593.292 112.929 590.459 112.597Z" fill="#FDDA24"/>
<path d="M584.994 187.098C600.123 187.098 612.387 174.822 612.387 159.678C612.387 144.534 600.123 132.258 584.994 132.258C569.866 132.258 557.602 144.534 557.602 159.678C557.602 174.822 569.866 187.098 584.994 187.098Z" fill="#FF7F41"/>
<path d="M460.871 441.607C456.816 441.132 453.013 439.39 450.003 436.63C446.993 433.869 444.928 430.229 444.101 426.227C443.957 425.542 443.805 424.85 443.653 424.166C443.121 421.724 442.521 418.963 442.133 415.913C442.065 415.479 441.996 415.054 441.935 414.62C441.753 413.471 441.571 412.338 441.426 411.159L441.358 410.513L440.674 402.488L440.477 394.479L440.78 386.454L441.008 384.097C441.062 383.587 441.107 383.085 441.153 382.575C441.252 381.472 441.358 380.362 441.487 379.259L441.594 378.498L442.262 374.277C442.528 372.315 442.908 370.634 443.22 369.265L443.858 366.382C444.131 365.051 444.443 363.841 444.785 362.701L445.978 358.548C446.426 356.981 446.913 355.642 447.3 354.57C447.437 354.182 447.574 353.809 447.703 353.413L448.759 350.424C449.01 349.793 449.268 349.177 449.519 348.553L449.868 347.716C450.058 347.275 450.241 346.834 450.423 346.385C450.879 345.29 451.335 344.202 451.829 343.122C454.792 336.741 458.221 330.586 462.087 324.708L462.277 324.419C466.186 318.678 470.457 313.193 475.065 307.997L475.278 307.761C479.95 302.659 484.915 297.834 490.148 293.31L490.361 293.127C495.641 288.7 501.158 284.564 506.888 280.737C509.01 279.319 511.391 278.333 513.894 277.836C516.397 277.34 518.973 277.341 521.475 277.841C523.978 278.34 526.357 279.329 528.478 280.749C530.599 282.169 532.42 283.994 533.836 286.118C535.253 288.243 536.237 290.626 536.734 293.131C537.23 295.637 537.229 298.215 536.729 300.72C536.23 303.225 535.243 305.607 533.824 307.73C532.405 309.853 530.583 311.675 528.46 313.093C523.948 316.108 519.603 319.366 515.444 322.852C511.435 326.313 507.63 330.003 504.046 333.904C500.618 337.767 497.437 341.845 494.525 346.111C491.736 350.353 489.257 354.792 487.109 359.392C486.851 359.962 486.585 360.616 486.349 361.263C486.113 361.909 485.863 362.457 485.589 363.043L485.293 363.758C485.217 363.948 485.133 364.13 485.057 364.313L484.48 365.964C484.275 366.572 484.054 367.173 483.841 367.781C483.629 368.39 483.408 368.983 483.317 369.303L481.934 374.117C481.934 374.117 481.934 374.254 481.881 374.368L481.121 377.86C480.984 378.46 480.802 379.282 480.764 379.571L480.68 380.157L480.035 384.218C479.959 384.857 479.905 385.488 479.845 386.127C479.784 386.766 479.731 387.382 479.67 388.014L479.518 389.596L479.328 395.156L479.495 400.792L480.027 406.634C480.111 407.28 480.217 407.927 480.316 408.573C480.415 409.22 480.513 409.836 480.604 410.467L480.665 410.885C480.832 412.27 481.212 414.019 481.623 415.875L482.147 418.332C482.768 421.347 482.666 424.467 481.848 427.436C481.031 430.404 479.523 433.136 477.446 435.407C475.37 437.679 472.785 439.425 469.904 440.503C467.022 441.58 463.927 441.959 460.871 441.607Z" fill="#F5B6CD"/>
<path d="M443.06 381.207C442.549 381.148 442.041 381.059 441.54 380.941C437.954 380.108 434.845 377.885 432.896 374.758C430.946 371.632 430.317 367.859 431.145 364.269C433.282 355.069 436.337 346.107 440.264 337.518C444.174 329.029 448.892 320.937 454.351 313.353C465.036 298.526 478.04 285.52 492.861 274.836C507.417 264.267 523.41 255.838 540.352 249.804L541.735 249.325C543.315 248.769 545.101 248.146 547 247.598L548.193 247.241C549.812 246.746 551.491 246.237 553.117 245.795L564.378 242.608C570.837 240.768 578.512 238.539 586.179 236.06C587.913 235.499 589.74 235.285 591.557 235.431C593.374 235.578 595.144 236.08 596.766 236.911C598.389 237.742 599.832 238.885 601.013 240.274C602.195 241.664 603.091 243.272 603.651 245.008C604.212 246.744 604.425 248.574 604.279 250.392C604.133 252.211 603.63 253.982 602.8 255.607C601.97 257.231 600.829 258.675 599.441 259.858C598.053 261.04 596.446 261.938 594.712 262.498C586.642 265.115 578.679 267.427 571.954 269.344L560.45 272.592C559.204 272.934 557.775 273.352 556.255 273.832L554.736 274.288C553.55 274.623 552.243 275.049 550.86 275.566L549.584 276.007C535.155 281.153 521.534 288.337 509.137 297.342C496.74 306.257 485.856 317.11 476.904 329.486C472.489 335.611 468.672 342.147 465.506 349.003C462.345 355.924 459.885 363.146 458.166 370.559C457.392 373.88 455.425 376.8 452.639 378.764C449.854 380.727 446.444 381.597 443.06 381.207Z" fill="#FDDA24"/>
<path d="M674.298 185.258C673.774 185.197 673.249 185.114 672.717 185.007C667.67 183.996 663.231 181.021 660.373 176.735C657.515 172.45 656.473 167.205 657.475 162.151C658.361 157.533 658.756 152.834 658.652 148.133C658.513 143.292 657.895 138.476 656.806 133.757C654.613 124.335 650.517 115.462 644.77 107.683C638.911 99.9492 631.55 93.4811 623.129 88.668C618.736 86.1316 614.126 83.9934 609.353 82.2788C604.748 80.5389 599.98 79.2673 595.121 78.4833C590.023 77.7258 585.435 74.9724 582.366 70.8286C579.296 66.6848 577.997 61.4902 578.754 56.3875C579.51 51.2848 582.261 46.692 586.401 43.6195C590.54 40.547 595.73 39.2464 600.827 40.0039C608.211 41.1352 615.463 43.0029 622.476 45.5792C629.433 48.0795 636.152 51.2004 642.551 54.9043C655.617 62.3322 666.997 72.3991 675.968 84.4654C684.939 96.5317 691.305 110.334 694.662 124.995C696.333 132.274 697.28 139.701 697.489 147.167V147.342C697.655 154.86 697.016 162.375 695.581 169.757C694.624 174.543 691.904 178.793 687.961 181.665C684.019 184.536 679.141 185.819 674.298 185.258Z" fill="#F5B6CD"/>
<path d="M551.809 295.948C548.052 295.514 544.554 293.812 541.891 291.124C539.228 288.435 537.558 284.919 537.157 281.155C536.755 277.39 537.646 273.6 539.682 270.41C541.718 267.219 544.778 264.817 548.36 263.599C549.879 263.089 551.308 262.656 552.584 262.268C553.23 262.077 553.884 261.887 554.522 261.682L554.978 261.545L573.594 256.259C583.374 253.422 590.858 251.079 597.781 248.653C605.677 246.005 613.415 242.907 620.956 239.373C628.318 235.947 635.327 231.807 641.883 227.013C643.641 225.711 645.638 224.768 647.761 224.238C649.883 223.708 652.089 223.602 654.252 223.925C656.415 224.249 658.494 224.995 660.369 226.123C662.244 227.251 663.879 228.737 665.18 230.497C666.481 232.257 667.423 234.256 667.952 236.381C668.482 238.505 668.588 240.713 668.265 242.878C667.942 245.044 667.196 247.125 666.069 249.001C664.943 250.878 663.458 252.515 661.7 253.817C653.405 259.9 644.536 265.155 635.219 269.509C626.565 273.586 617.686 277.164 608.624 280.226C601.185 282.789 593.214 285.284 582.789 288.303L564.241 293.574L562.121 294.221C561.026 294.548 559.993 294.852 559.081 295.164C556.745 295.959 554.261 296.227 551.809 295.948Z" fill="#00C389"/>
<path d="M681.1 222.496C677.994 222.128 675.022 221.015 672.437 219.253C669.852 217.491 667.729 215.132 666.249 212.374C664.768 209.617 663.973 206.542 663.931 203.412C663.89 200.282 664.602 197.187 666.009 194.391C669.233 187.93 671.779 181.153 673.607 174.167L674.367 171.329C674.474 170.888 674.565 170.44 674.664 169.998L674.892 168.949L675.188 167.58C675.499 166.15 675.765 164.925 675.948 163.777L676.054 163.138C676.259 162.065 676.419 160.711 676.594 159.274L676.715 158.27L676.784 157.456C676.913 155.935 677.034 154.489 677.057 153.311V153.021C677.578 138.754 674.673 124.57 668.585 111.659C666.467 107.011 666.26 101.716 668.009 96.9174C669.758 92.1184 673.323 88.2004 677.933 86.0094C682.543 83.8184 687.829 83.5301 692.649 85.2069C697.47 86.8837 701.438 90.391 703.698 94.9714C712.434 113.49 716.619 133.832 715.901 154.299C715.848 156.627 715.665 158.795 715.498 160.711L715.377 162.233L715.171 163.898C714.951 165.724 714.708 167.785 714.298 169.983C713.887 172.181 713.538 174.136 713.143 175.855L712.649 178.137C712.466 178.981 712.276 179.826 712.071 180.662L711.98 181.035L711.167 184.077C708.648 193.67 705.144 202.976 700.711 211.847C698.928 215.421 696.09 218.36 692.581 220.264C689.073 222.169 685.065 222.948 681.1 222.496Z" fill="#FF7F41"/>
<path d="M503.005 88.6433C500.394 88.3383 497.922 87.2968 495.879 85.64C493.836 83.9833 492.306 81.7795 491.465 79.2855C490.625 76.7914 490.511 74.1098 491.134 71.553C491.758 68.9961 493.095 66.6693 494.989 64.8437C500.202 59.7527 505.79 55.0617 511.706 50.8104C517.656 46.5594 523.914 42.7584 530.429 39.4392L530.573 39.3707C543.985 32.6081 558.5 28.3084 573.429 26.6761C588.671 25.0446 604.084 26.443 618.785 30.791H618.899C625.855 32.8927 632.652 35.4879 639.24 38.5569C645.982 41.7478 652.441 45.506 658.548 49.7911C661.563 51.9093 663.613 55.1395 664.249 58.7712C664.885 62.4029 664.053 66.1385 661.937 69.1564C659.821 72.1742 656.594 74.227 652.966 74.8632C649.338 75.4994 645.606 74.6668 642.591 72.5487C637.785 69.1777 632.701 66.2234 627.394 63.718C622.038 61.2187 616.51 59.1089 610.852 57.4049C599.686 54.1009 587.978 53.0334 576.4 54.2635H576.24C564.591 55.549 553.268 58.9161 542.807 64.2048C532.258 69.554 522.595 76.4988 514.16 84.7946C512.699 86.219 510.941 87.3026 509.013 87.9679C507.085 88.6333 505.033 88.8639 503.005 88.6433Z" fill="#59CBE8"/>
<path d="M483.197 161.754C482.17 161.632 481.154 161.431 480.157 161.153C477.701 160.463 475.405 159.296 473.4 157.718C471.395 156.139 469.721 154.181 468.472 151.955C467.223 149.728 466.424 147.278 466.122 144.742C465.819 142.207 466.018 139.637 466.708 137.179C471.665 119.566 479.944 103.065 491.099 88.5681C496.678 81.3267 502.962 74.6588 509.86 68.6628C516.83 62.6305 524.424 57.36 532.511 52.9409C537.023 50.6624 542.244 50.2325 547.067 51.7422C551.89 53.252 555.937 56.5827 558.348 61.0283C560.759 65.4738 561.346 70.6847 559.984 75.556C558.622 80.4274 555.418 84.5762 551.052 87.1229C545.412 90.2069 540.116 93.8837 535.254 98.091C530.32 102.395 525.82 107.174 521.82 112.36C513.723 122.9 507.718 134.896 504.131 147.698C502.878 152.148 500.083 156.006 496.247 158.582C492.412 161.157 487.785 162.282 483.197 161.754Z" fill="#9063CD"/>
<path d="M749.783 1005.9C780.51 956.902 764.174 891.266 713.295 859.293C662.416 827.32 596.262 841.119 565.535 890.113C534.808 939.107 551.144 1004.74 602.023 1036.72C652.901 1068.69 719.056 1054.89 749.783 1005.9Z" fill="#2C2A29"/>
<path d="M709.283 975.981C725.706 949.615 716.823 914.387 689.442 897.298C662.061 880.208 626.551 887.727 610.128 914.093C593.704 940.459 602.587 975.686 629.968 992.776C657.349 1009.87 692.859 1002.35 709.283 975.981Z" fill="#FF7F41"/>
<path d="M499.755 717.866C524.757 709.121 537.238 679.721 527.631 652.2C518.024 624.678 489.968 609.457 464.966 618.201C439.964 626.946 427.483 656.346 437.09 683.867C446.697 711.389 474.753 726.61 499.755 717.866Z" fill="white"/>
<path d="M478.197 615.766C476.473 615.814 474.752 615.964 473.045 616.214C446.762 620.078 429.627 646.411 434.772 675.025C439.034 698.68 457.187 716.478 478.197 719.757V615.766Z" fill="#2C2A29"/>
<path d="M219.367 817.698L300.23 827.289C278.894 725.534 246.068 635.957 222.725 619.102C196.776 600.345 192.399 678.711 212.961 794.142C214.944 805.277 217.087 806.76 219.367 817.698Z" fill="#9063CD"/>
<path d="M550.026 450.938C550.026 450.938 603.049 510.638 601.849 587.186L525.301 600.794L550.026 450.938Z" fill="#F5B6CD"/>
<path d="M450.949 517.065C450.949 517.065 488.03 465.769 550.027 450.938C550.027 450.938 560.741 512.281 525.301 600.778C525.301 600.794 480.986 533.533 450.949 517.065Z" fill="#9063CD"/>
<path d="M896.251 707.623C894.137 710.953 891.532 713.943 888.524 716.492C885.632 718.946 882.304 720.832 878.714 722.052C875.416 723.137 871.944 723.591 868.479 723.391C870.671 720.276 872.7 717.049 874.558 713.723C876.99 709.402 879.117 704.916 880.925 700.298C881.822 697.948 882.673 695.552 883.402 693.065C883.585 692.441 883.767 691.825 883.934 691.186C884.101 690.547 884.284 689.87 884.398 689.346C884.656 688.22 884.899 687.064 885.158 685.984C886.077 681.504 886.837 677.046 887.437 672.582C888.037 668.117 888.463 663.644 888.691 659.134C888.962 654.575 888.99 650.005 888.774 645.443C888.575 640.613 887.967 635.81 886.958 631.083C886.39 628.414 885.628 625.791 884.679 623.233C884.115 621.761 883.476 620.319 882.764 618.913C881.91 617.225 880.908 615.616 879.77 614.106C878.251 612.071 876.435 610.276 874.383 608.781C873.063 607.831 871.641 607.032 870.143 606.401C865.385 604.414 860.05 604.311 855.219 606.112L854.725 606.294L854.368 606.439L853.692 606.735C853.244 606.941 852.833 607.146 852.408 607.359C851.587 607.785 850.812 608.226 850.083 608.682C847.493 610.34 845.108 612.298 842.978 614.516C841.124 616.434 839.417 618.488 837.872 620.662C835.068 624.653 832.677 628.919 830.737 633.395C828.879 637.633 827.369 642.016 826.223 646.5C825.093 650.876 824.261 655.323 823.731 659.811C822.704 668.624 822.877 677.537 824.247 686.303C824.785 690.809 825.789 695.247 827.241 699.545C828.085 701.98 829.1 704.352 830.281 706.642C825.751 709.477 820.827 711.625 815.669 713.016C810.833 714.3 805.824 714.813 800.829 714.537C795.286 714.192 789.791 713.301 784.423 711.875C781.445 711.119 778.332 710.232 775.085 709.213C771.817 708.216 768.459 707.06 764.766 706.041L746.188 729.696C748.882 733.622 752.026 737.219 755.557 740.413C759.198 743.744 763.164 746.7 767.395 749.236C776.493 754.686 786.688 758.041 797.242 759.056C808.335 760.065 819.512 758.519 829.916 754.538C839.821 750.673 848.847 744.853 856.458 737.424C858.811 735.145 861.048 732.748 863.16 730.244C864.779 730.362 866.404 730.362 868.023 730.244C872.454 729.916 876.77 728.681 880.705 726.616C884.498 724.602 887.871 721.881 890.644 718.599C893.304 715.423 895.453 711.851 897.011 708.011L896.251 707.623ZM857.035 657.096C856.766 660.627 856.307 664.141 855.66 667.622C855.029 671.079 854.184 674.493 853.13 677.845C852.864 678.667 852.59 679.496 852.309 680.309C852.165 680.758 852.051 681.009 851.929 681.359C851.807 681.709 851.663 682.021 851.534 682.348C850.974 683.718 850.34 685.056 849.634 686.356C848.147 689.082 846.418 691.669 844.467 694.084C843.396 695.415 842.256 696.685 841.071 697.887C840.904 697.195 840.736 696.495 840.607 695.788C839.929 692.326 839.608 688.804 839.65 685.276C839.998 677.971 841.275 670.74 843.449 663.758C845.503 657.048 848.499 650.664 852.347 644.796C853.682 642.759 855.17 640.826 856.8 639.016C857.081 641.404 857.248 644.005 857.332 646.622C857.377 650.075 857.271 653.581 857.035 657.096Z" fill="#F5B6CD"/>
</g>
<defs>
<clipPath id="clip0">
<rect width="697" height="1028" fill="white" transform="translate(200 26)"/>
</clipPath>
</defs>
</svg>
