<svg width="1080" height="1080" viewBox="0 0 1080 1080" fill="none" xmlns="http://www.w3.org/2000/svg">
<g clip-path="url(#clip0)">
<path d="M710.041 503.092C711.885 488.34 725.34 477.877 740.092 479.721C754.596 481.535 764.884 494.763 763.07 509.267L746.996 637.807L694.023 631.182L710.041 503.092Z" fill="#B28038"/>
<path d="M341.257 495.834C339.412 481.082 325.958 470.618 311.206 472.463C296.702 474.277 286.414 487.505 288.228 502.009L305.209 637.807L358.182 631.183L341.257 495.834Z" fill="#B28038"/>
<path d="M584.053 649.237H709.274V902.891H584.053V649.237Z" fill="#E4AC7B"/>
<path d="M468.464 649.237H343.242V902.891H468.464V649.237Z" fill="#E4AC7B"/>
<path fill-rule="evenodd" clip-rule="evenodd" d="M761.999 462.537C761.763 383.221 700.741 319 625.5 319C586.267 319 550.899 336.462 526 364.42C501.101 336.462 465.733 319 426.5 319C351.113 319 290 383.471 290 463H290.465C290.914 624.417 526.336 755.193 526.336 755.193C526.336 755.193 762.208 624.167 762.208 462.537H761.999Z" fill="#9063CD"/>
<path d="M751.605 672.911C738.699 689.419 722.264 703.135 703.413 712.947C699.189 715.134 695.119 718.187 691.228 721.757C686.708 725.885 682.427 730.703 678.638 735.545C672.836 731.217 667.777 726.101 663.637 720.425L651.043 662.929C652.249 657.192 654.15 651.505 656.833 645.982C667.48 624.065 687.698 609.96 710 606.208C717.126 604.999 718.737 604.345 726.004 605.36L739.505 577.572L739.482 514.759C737.116 494.927 751.278 477.017 771.052 474.624C771.889 474.528 772.671 474.692 773.369 475.031C774.59 475.624 775.528 476.799 775.661 478.3L782.151 532.83L787.918 579.679C789.287 590.763 787.652 601.969 783.231 612.252L777.57 625.382L775.909 629.245L775.852 629.362L771.262 639.994C766.02 651.818 759.412 662.907 751.605 672.911Z" fill="#E4AC7B"/>
<path d="M300.6 672.911C313.506 689.419 329.941 703.135 348.792 712.947C353.016 715.134 357.086 718.187 360.977 721.757C365.497 725.885 369.778 730.703 373.567 735.545C379.369 731.217 384.428 726.101 388.568 720.425L401.163 662.929C399.956 657.192 398.055 651.505 395.372 645.982C384.725 624.065 364.507 609.96 342.205 606.208C335.079 604.999 333.468 604.345 326.201 605.36L312.701 577.572L312.723 514.759C315.089 494.927 300.927 477.017 281.153 474.624C280.316 474.528 279.534 474.692 278.836 475.031C277.615 475.624 276.677 476.799 276.544 478.3L270.054 532.83L264.288 579.679C262.918 590.763 264.554 601.969 268.975 612.252L274.635 625.382L276.296 629.245L276.353 629.362L280.943 639.994C286.185 651.818 292.793 662.907 300.6 672.911Z" fill="#E4AC7B"/>
<path d="M602.376 959.602C600.49 962.874 597.878 965.669 594.741 967.771C591.604 969.873 588.025 971.226 584.282 971.726C527.296 979.276 469.369 975.152 414.027 959.604C386.429 951.766 359.71 941.114 334.288 927.817C308.92 914.527 284.955 898.712 262.759 880.615C257.738 876.468 254.562 870.504 253.924 864.024C253.285 857.544 255.236 851.074 259.351 846.028C263.465 840.981 269.409 837.767 275.885 837.087C282.361 836.408 288.843 838.318 293.915 842.4C313.531 858.407 334.711 872.393 357.135 884.146C379.557 895.874 403.123 905.269 427.464 912.184C476.318 925.908 527.455 929.544 577.76 922.869C582.324 922.259 586.968 922.939 591.165 924.833C595.362 926.727 598.945 929.758 601.507 933.584C604.07 937.409 605.51 941.876 605.665 946.478C605.819 951.08 604.682 955.633 602.381 959.622L602.376 959.602Z" fill="#F5B6CD"/>
<path d="M753.981 225.877L753.801 226.189C750.451 231.803 745.007 235.856 738.668 237.457C732.329 239.058 725.613 238.075 719.999 234.725L714.862 231.662L706.302 226.85L699.215 223.092C697.866 222.386 696.422 221.675 694.893 220.914C694.02 220.483 693.14 220.048 692.264 219.607C682.896 215.012 673.241 210.772 663.575 206.988C624.438 191.737 582.983 183.287 540.999 182.003C499.028 180.697 457.137 186.484 417.092 199.121C377.042 211.751 339.434 231.105 305.877 256.353C297.895 262.318 289.966 268.867 281.662 276.289C273.657 283.477 266.074 290.877 259.204 298.184C254.727 302.949 248.54 305.741 242.005 305.945C235.469 306.149 229.12 303.749 224.354 299.271C219.589 294.794 216.797 288.607 216.593 282.072C216.389 275.536 218.79 269.187 223.267 264.422C231.108 256.081 239.682 247.725 248.751 239.581C258.148 231.18 267.159 223.759 276.305 216.904C314.323 188.304 356.933 166.385 402.309 152.09C470.522 130.54 543.098 126.705 613.203 140.947L613.264 140.982C636.521 145.75 659.336 152.469 681.466 161.067C692.465 165.375 703.407 170.188 714.026 175.392L714.264 175.529C715.082 175.944 715.913 176.35 716.734 176.76C718.459 177.617 720.243 178.501 722.109 179.481L730.116 183.729L739.552 189.039L745.203 192.407C750.768 195.716 754.808 201.081 756.45 207.344C758.093 213.606 757.206 220.263 753.981 225.877Z" fill="#FF7F41"/>
<path d="M568.046 190.098C566.405 192.946 564.001 195.277 561.104 196.828C558.207 198.38 554.934 199.09 551.655 198.879C503.519 195.904 455.277 202.686 409.827 218.818C364.392 234.933 322.757 260.219 287.506 293.103C252.279 326.063 224.041 365.773 204.475 409.87C185.059 453.988 174.829 501.597 174.408 549.797C174.363 554.461 172.47 558.916 169.143 562.186C165.817 565.455 161.33 567.271 156.666 567.236C152.002 567.2 147.543 565.316 144.266 561.996C140.99 558.677 139.165 554.193 139.19 549.53C139.653 496.515 150.907 444.15 172.267 395.626C193.773 347.193 224.799 303.578 263.498 267.376C302.276 231.201 348.074 203.381 398.05 185.641C448.01 167.917 501.035 160.467 553.944 163.738C556.929 163.934 559.815 164.888 562.329 166.509C564.843 168.13 566.903 170.365 568.314 173.003C569.725 175.64 570.441 178.594 570.394 181.585C570.347 184.576 569.539 187.506 568.046 190.098Z" fill="#FDDA24"/>
<path d="M863.62 767.989C863.42 768.337 863.222 768.679 863.022 769.026C850.501 788.562 836.31 806.976 820.609 824.061C812.796 832.564 804.532 840.806 796.05 848.565C787.882 856.05 778.878 863.572 769.345 870.87C750.874 884.966 731.192 897.399 710.529 908.024C669.195 929.272 624.456 943.108 578.344 948.904C566.877 950.352 555.225 951.319 543.698 951.773C532.33 952.22 520.626 952.149 508.896 951.574C462.435 949.321 416.74 938.863 373.925 920.685C367.901 918.139 363.136 913.305 360.677 907.246C358.218 901.187 358.267 894.399 360.812 888.376C363.358 882.353 368.192 877.588 374.251 875.129C380.31 872.67 387.098 872.718 393.121 875.264C430.61 891.177 470.622 900.325 511.302 902.283C521.581 902.793 531.822 902.849 541.738 902.466C551.835 902.065 562.074 901.193 572.115 899.947C612.536 894.862 651.752 882.725 687.98 864.09C706.048 854.808 723.261 843.95 739.419 831.64C747.767 825.268 755.618 818.715 762.73 812.199C770.191 805.363 777.455 798.121 784.325 790.644C798.097 775.646 810.545 759.483 821.528 742.337C824.931 736.752 830.413 732.747 836.769 731.203C843.124 729.66 849.833 730.704 855.418 734.107C861.004 737.51 865.009 742.992 866.552 749.348C868.095 755.703 867.051 762.412 863.648 767.997L863.62 767.989Z" fill="#00C389"/>
<path d="M153.69 609.113C151.453 612.999 148.038 616.074 143.938 617.891C139.838 619.708 135.266 620.173 130.884 619.22C126.502 618.267 122.537 615.945 119.562 612.589C116.587 609.233 114.758 605.017 114.337 600.553L113.997 596.916C113.744 594.452 113.484 591.902 113.28 589.255L113.268 589.134C113.196 588.076 113.11 587.026 113.029 585.97C112.825 583.323 112.617 580.584 112.493 577.698C110.772 546.926 112.498 516.058 117.638 485.669C120.195 470.431 123.602 455.348 127.845 440.491C132.104 425.671 137.174 411.095 143.032 396.831C145.162 391.646 149.265 387.521 154.437 385.361C159.609 383.202 165.428 383.185 170.612 385.316C175.796 387.446 179.922 391.548 182.082 396.721C184.241 401.893 184.257 407.711 182.127 412.896C176.854 425.729 172.291 438.843 168.459 452.179C164.655 465.504 161.602 479.032 159.314 492.699C157.02 506.357 155.481 520.131 154.705 533.959C153.955 547.803 153.96 561.678 154.719 575.521L154.732 575.822C154.82 577.979 154.999 580.262 155.188 582.682C155.276 583.817 155.359 584.949 155.439 586.08C155.603 588.175 155.824 590.328 156.05 592.614C156.192 593.932 156.342 595.222 156.45 596.57C156.858 600.936 155.894 605.321 153.69 609.113Z" fill="#00C389"/>
<path d="M886.402 762.106L886.349 762.198C880.968 771.405 875.095 780.662 868.897 789.707C863.011 798.24 856.603 806.774 849.323 815.82C821.782 849.797 788.996 879.162 752.202 902.808C748.275 905.243 743.549 906.036 739.042 905.018C734.536 903.999 730.61 901.251 728.111 897.364C725.613 893.478 724.742 888.766 725.686 884.243C726.63 879.72 729.314 875.75 733.158 873.187C766.792 851.569 796.762 824.725 821.941 793.667C828.652 785.341 834.524 777.507 839.883 769.734C845.575 761.439 850.981 752.921 855.922 744.46C860.913 735.816 865.608 726.896 869.909 717.967C873.979 709.508 877.851 700.519 881.714 690.476C896.063 653.202 904.352 613.871 906.265 573.977L906.388 571.201C906.463 569.577 906.54 568.035 906.567 566.579L906.726 558.415C906.721 553.451 906.718 548.764 906.55 544.096L906.553 544.008C906.221 533.609 905.53 523.563 904.494 514.157C902.316 494.321 898.585 474.686 893.338 455.434C892.726 453.204 892.558 450.875 892.845 448.58C893.133 446.286 893.869 444.07 895.012 442.06C896.156 440.05 897.684 438.285 899.51 436.865C901.336 435.446 903.423 434.4 905.653 433.787C907.883 433.175 910.211 433.007 912.506 433.294C914.801 433.581 917.016 434.318 919.026 435.461C921.037 436.605 922.802 438.133 924.221 439.959C925.641 441.785 926.686 443.872 927.299 446.102C933.035 467.141 937.114 488.598 939.498 510.275C940.633 520.593 941.392 531.548 941.749 542.848C941.946 548.143 941.942 553.362 941.938 558.411L941.938 559.468L941.778 567.297C941.744 569.23 941.655 571.074 941.563 572.867L941.448 575.461L941.443 575.596C939.358 619.279 930.284 662.345 914.565 703.155C910.326 714.104 906.101 723.93 901.613 733.238C896.951 742.99 891.821 752.693 886.402 762.106Z" fill="#59CBE8"/>
<path fill-rule="evenodd" clip-rule="evenodd" d="M892.664 308.958C892.608 290.193 878.172 275 860.372 275C851.09 275 842.723 279.131 836.832 285.745C830.942 279.131 822.574 275 813.293 275C795.458 275 781 290.252 781 309.067H781.11C781.216 347.255 836.912 378.193 836.912 378.193C836.912 378.193 892.713 347.195 892.713 308.958H892.664Z" fill="#F5B6CD"/>
<path fill-rule="evenodd" clip-rule="evenodd" d="M241.664 731.958C241.608 713.193 227.172 698 209.372 698C200.09 698 191.723 702.131 185.832 708.745C179.942 702.131 171.574 698 162.293 698C144.458 698 130 713.252 130 732.067H130.11C130.216 770.255 185.912 801.193 185.912 801.193C185.912 801.193 241.713 770.195 241.713 731.958H241.664Z" fill="#FDDA24"/>
<path fill-rule="evenodd" clip-rule="evenodd" d="M651.699 357.534C652.509 354.606 655.539 352.889 658.467 353.699C685.896 361.286 708.154 381.999 719.096 408.93C720.239 411.744 718.885 414.952 716.071 416.096C713.256 417.239 710.048 415.884 708.905 413.07C699.16 389.084 679.451 370.916 655.534 364.301C652.607 363.491 650.89 360.461 651.699 357.534Z" fill="white"/>
</g>
<defs>
<clipPath id="clip0">
<rect width="1080" height="1080" fill="white"/>
</clipPath>
</defs>
</svg>
