<svg width="1080" height="1080" viewBox="0 0 1080 1080" fill="none" xmlns="http://www.w3.org/2000/svg">
<path d="M955.115 455.803L955.215 436.603H947.815C946.915 435.303 945.915 434.003 944.815 432.803L772.615 238.903C768.115 233.803 762.615 230.003 756.615 227.403C739.615 220.003 718.215 222.203 702.015 234.703L184.015 633.303C179.415 636.803 175.615 640.903 172.615 645.303L164.615 643.903L164.815 666.703C164.515 669.703 164.515 672.703 164.915 675.703C165.915 683.903 169.315 691.903 175.215 698.603L347.315 892.503C351.815 897.603 357.315 901.403 363.315 904.003C380.315 911.403 401.715 909.203 417.915 896.703L935.915 498.003C950.215 487.203 956.815 471.003 955.115 455.803ZM438.615 850.103L237.115 623.203L698.115 268.303L899.615 495.203L438.615 850.103Z" fill="#9063CD"/>
<path d="M237.114 595.001L440.814 824.401L906.114 466.601L696.614 235.801L232.914 597.401" fill="white"/>
<path d="M944.715 404.503C961.815 423.703 957.815 453.003 935.915 469.903L418.015 868.603C401.815 881.003 380.415 883.303 363.415 875.903C357.315 873.303 351.915 869.403 347.415 864.403L175.215 670.403C158.115 651.203 162.115 621.903 184.015 605.003L702.015 206.403C718.215 194.003 739.615 191.703 756.615 199.103C762.715 201.703 768.115 205.603 772.615 210.603L944.715 404.503ZM438.615 821.903L899.615 467.003L698.115 240.103L237.115 595.003L438.615 821.903Z" fill="#59CBE8"/>
<path d="M400.213 552.598C469.028 552.598 524.813 496.813 524.813 427.998C524.813 359.184 469.028 303.398 400.213 303.398C331.399 303.398 275.613 359.184 275.613 427.998C275.613 496.813 331.399 552.598 400.213 552.598Z" fill="#FDDA24"/>
<path d="M400.213 553.2C331.213 553.2 275.113 497.1 275.113 428.1C275.113 359.1 331.213 303 400.213 303C469.213 303 525.313 359.1 525.313 428C525.313 496.9 469.213 553.2 400.213 553.2ZM400.213 303.9C331.813 303.9 276.113 359.6 276.113 428C276.113 496.4 331.813 552.1 400.213 552.1C468.613 552.1 524.313 496.5 524.313 428C524.313 359.5 468.613 303.9 400.213 303.9Z" fill="#FDDA24"/>
<path d="M400.214 499.799C439.868 499.799 472.014 467.653 472.014 427.999C472.014 388.345 439.868 356.199 400.214 356.199C360.56 356.199 328.414 388.345 328.414 427.999C328.414 467.653 360.56 499.799 400.214 499.799Z" fill="#FF7F41"/>
<path d="M748.111 623.402C795.552 623.402 834.011 584.943 834.011 537.502C834.011 490.06 795.552 451.602 748.111 451.602C700.67 451.602 662.211 490.06 662.211 537.502C662.211 584.943 700.67 623.402 748.111 623.402Z" fill="#FDDA24"/>
<path d="M748.112 623.702C700.512 623.702 661.812 585.002 661.812 537.402C661.812 489.802 700.512 451.102 748.112 451.102C795.712 451.102 834.413 489.802 834.413 537.402C834.413 585.002 795.712 623.702 748.112 623.702ZM748.112 451.902C700.912 451.902 662.513 490.302 662.513 537.502C662.513 584.702 701.012 623.002 748.112 623.002C795.212 623.002 833.713 584.602 833.713 537.402C833.713 490.202 795.312 451.902 748.112 451.902Z" fill="#FDDA24"/>
<path d="M748.113 587C775.451 587 797.613 564.838 797.613 537.5C797.613 510.162 775.451 488 748.113 488C720.775 488 698.613 510.162 698.613 537.5C698.613 564.838 720.775 587 748.113 587Z" fill="#FF7F41"/>
<path d="M597.013 513.401C595.413 513.401 593.713 513.201 592.113 512.901C578.013 510.201 568.813 496.601 571.513 482.501C578.113 447.901 584.113 411.201 577.913 376.601C568.513 324.201 529.013 276.801 477.213 255.801C469.813 252.801 462.013 250.301 454.113 248.301C440.213 244.801 431.713 230.701 435.213 216.801C438.713 202.901 452.813 194.401 466.713 197.901C477.013 200.501 487.113 203.801 496.813 207.701C529.913 221.101 559.713 242.901 583.013 270.801C606.913 299.301 622.813 332.701 629.113 367.501C636.913 410.901 630.113 453.001 622.613 492.401C620.113 504.801 609.213 513.401 597.013 513.401Z" fill="#00C389"/>
<path d="M182.214 410.701C179.214 410.701 176.214 410.201 173.314 409.101C159.814 404.201 152.914 389.201 157.814 375.801C182.414 308.601 230.814 251.801 290.814 220.201C316.114 206.901 343.314 197.901 371.914 193.701C386.114 191.601 399.314 201.401 401.414 215.601C403.514 229.801 393.714 243.001 379.514 245.101C356.814 248.501 335.114 255.601 315.014 266.201C266.314 291.901 226.814 338.401 206.614 393.701C202.814 404.201 192.914 410.701 182.214 410.701Z" fill="#59CBE8"/>
<path d="M684.112 839.302C678.312 839.302 672.512 837.402 667.712 833.502C594.712 774.202 551.912 679.002 556.012 585.002C556.212 579.702 556.612 574.102 557.112 568.402C558.412 554.102 571.112 543.602 585.412 544.902C599.712 546.202 610.212 558.902 608.912 573.202C608.412 578.002 608.112 582.702 607.912 587.202C604.512 665.002 640.012 743.902 700.512 793.002C711.612 802.102 713.312 818.402 704.312 829.602C699.112 836.002 691.612 839.302 684.112 839.302Z" fill="#FDDA24"/>
<path d="M613.612 635.2C605.012 635.2 597.312 629 595.912 620.2C583.912 548.2 604.212 460.7 605.112 457C607.412 447.3 617.112 441.3 626.812 443.6C636.512 445.9 642.513 455.6 640.213 465.2C640.013 466 620.712 549.5 631.512 614.2C633.112 624 626.513 633.3 616.713 634.9C615.613 635.1 614.612 635.2 613.612 635.2Z" fill="#F5B6CD"/>
<path d="M499.614 227.201C497.414 227.201 495.114 226.801 492.914 225.901C405.714 190.901 336.414 221.201 335.714 221.501C326.614 225.601 316.014 221.601 311.914 212.501C307.814 203.401 311.814 192.801 320.914 188.701C324.314 187.201 405.014 151.801 506.314 192.501C515.514 196.201 520.014 206.701 516.314 215.901C513.514 222.901 506.814 227.201 499.614 227.201Z" fill="#9063CD"/>
<path d="M143.014 454.6C142.314 454.6 141.614 454.6 140.914 454.5C131.014 453.3 124.014 444.4 125.114 434.5C132.814 368.3 165.314 318.4 166.714 316.3C172.214 308 183.314 305.7 191.614 311.2C199.914 316.7 202.214 327.8 196.714 336.1C196.414 336.6 167.514 381.3 160.814 438.7C159.814 447.9 152.014 454.6 143.014 454.6Z" fill="#FF7F41"/>
<path d="M565.216 683.402C559.816 683.402 554.816 680.002 552.916 674.702C532.616 616.302 546.716 547.302 547.316 544.402C548.816 537.402 555.716 532.902 562.716 534.302C569.716 535.802 574.216 542.702 572.816 549.702C572.716 550.302 559.616 614.602 577.516 666.102C579.916 672.902 576.316 680.302 569.516 682.602C568.016 683.202 566.616 683.402 565.216 683.402Z" fill="#FF7F41"/>
<path d="M626.115 369.999C618.015 369.999 610.715 364.499 608.615 356.299C599.815 320.599 569.415 281.299 569.115 280.899C563.015 273.099 564.415 261.799 572.215 255.599C580.015 249.499 591.315 250.899 597.515 258.699C598.915 260.499 633.015 304.399 643.615 347.699C646.015 357.399 640.115 367.099 630.415 369.499C629.015 369.799 627.615 369.999 626.115 369.999Z" fill="#FF7F41"/>
<path d="M318.315 758.301C331.315 748.301 333.615 730.901 323.515 719.501C320.815 716.501 317.615 714.201 314.015 712.701C303.915 708.301 291.215 709.601 281.615 717.001C268.615 727.001 266.315 744.401 276.415 755.801C279.115 758.801 282.315 761.101 285.915 762.701C296.015 767.001 308.715 765.701 318.315 758.301Z" fill="white"/>
</svg>
