<svg width="1080" height="1080" viewBox="0 0 1080 1080" fill="none" xmlns="http://www.w3.org/2000/svg">
<path d="M955.115 455.701L955.215 436.501H947.815C946.915 435.201 945.915 433.901 944.815 432.701L772.615 238.801C768.115 233.701 762.615 229.901 756.615 227.301C739.615 219.901 718.215 222.101 702.015 234.601L184.015 633.201C179.415 636.701 175.615 640.801 172.615 645.201L164.615 643.801L164.815 666.601C164.515 669.601 164.515 672.601 164.915 675.601C165.915 683.801 169.315 691.801 175.215 698.501L347.315 892.401C351.815 897.501 357.315 901.301 363.315 903.901C380.315 911.301 401.715 909.101 417.915 896.601L935.915 497.901C950.215 487.101 956.815 470.901 955.115 455.701ZM438.615 850.001L237.115 623.101L698.115 268.201L899.615 495.101L438.615 850.001Z" fill="#9063CD"/>
<path d="M237.114 594.899L440.814 824.299L906.114 466.499L696.614 235.699L232.914 597.299" fill="#00C389"/>
<path d="M944.715 404.401C961.815 423.601 957.815 452.901 935.915 469.801L418.015 868.501C401.815 880.901 380.415 883.201 363.415 875.801C357.315 873.201 351.915 869.301 347.415 864.301L175.215 670.301C158.115 651.101 162.115 621.801 184.015 604.901L702.015 206.301C718.215 193.901 739.615 191.601 756.615 199.001C762.715 201.601 768.115 205.501 772.615 210.501L944.715 404.401ZM438.615 821.801L899.615 466.901L698.115 240.001L237.115 594.901L438.615 821.801Z" fill="#59CBE8"/>
<path d="M400.213 552.501C469.028 552.501 524.813 496.715 524.813 427.901C524.813 359.086 469.028 303.301 400.213 303.301C331.399 303.301 275.613 359.086 275.613 427.901C275.613 496.715 331.399 552.501 400.213 552.501Z" fill="#FDDA24"/>
<path d="M400.213 553.102C331.213 553.102 275.113 497.002 275.113 428.002C275.113 359.002 331.213 302.902 400.213 302.902C469.213 302.902 525.313 359.002 525.313 427.902C525.313 496.902 469.213 553.102 400.213 553.102ZM400.213 303.802C331.813 303.802 276.113 359.502 276.113 427.902C276.113 496.302 331.813 552.002 400.213 552.002C468.613 552.002 524.313 496.402 524.313 427.902C524.313 359.402 468.613 303.802 400.213 303.802Z" fill="#FDDA24"/>
<path d="M400.214 499.702C439.868 499.702 472.014 467.556 472.014 427.902C472.014 388.248 439.868 356.102 400.214 356.102C360.56 356.102 328.414 388.248 328.414 427.902C328.414 467.556 360.56 499.702 400.214 499.702Z" fill="#FF7F41"/>
<path d="M748.111 623.3C795.552 623.3 834.011 584.841 834.011 537.4C834.011 489.959 795.552 451.5 748.111 451.5C700.67 451.5 662.211 489.959 662.211 537.4C662.211 584.841 700.67 623.3 748.111 623.3Z" fill="#FDDA24"/>
<path d="M748.112 623.6C700.512 623.6 661.812 584.9 661.812 537.3C661.812 489.7 700.512 451 748.112 451C795.712 451 834.413 489.7 834.413 537.3C834.413 584.9 795.712 623.6 748.112 623.6ZM748.112 451.8C700.912 451.8 662.513 490.2 662.513 537.4C662.513 584.6 701.012 622.9 748.112 622.9C795.212 622.9 833.713 584.5 833.713 537.3C833.713 490.1 795.312 451.8 748.112 451.8Z" fill="#FDDA24"/>
<path d="M748.113 586.898C775.451 586.898 797.613 564.737 797.613 537.398C797.613 510.06 775.451 487.898 748.113 487.898C720.775 487.898 698.613 510.06 698.613 537.398C698.613 564.737 720.775 586.898 748.113 586.898Z" fill="#FF7F41"/>
<path d="M597.013 513.299C595.413 513.299 593.713 513.099 592.113 512.799C578.013 510.099 568.813 496.499 571.513 482.399C578.113 447.799 584.113 411.099 577.913 376.499C568.513 324.099 529.013 276.699 477.213 255.699C469.813 252.699 462.013 250.199 454.113 248.199C440.213 244.699 431.713 230.599 435.213 216.699C438.713 202.799 452.813 194.299 466.713 197.799C477.013 200.399 487.113 203.699 496.813 207.599C529.913 220.999 559.713 242.799 583.013 270.699C606.913 299.199 622.813 332.599 629.113 367.399C636.913 410.799 630.113 452.899 622.613 492.299C620.113 504.699 609.213 513.299 597.013 513.299Z" fill="#9063CD"/>
<path d="M182.214 410.6C179.214 410.6 176.214 410.1 173.314 409C159.814 404.1 152.914 389.1 157.814 375.7C182.414 308.5 230.814 251.7 290.814 220.1C316.114 206.8 343.314 197.8 371.914 193.6C386.114 191.5 399.314 201.3 401.414 215.5C403.514 229.7 393.714 242.9 379.514 245C356.814 248.4 335.114 255.5 315.014 266.1C266.314 291.8 226.814 338.3 206.614 393.6C202.814 404.1 192.914 410.6 182.214 410.6Z" fill="#9063CD"/>
<path d="M684.112 839.2C678.312 839.2 672.512 837.3 667.712 833.4C594.712 774.1 551.912 678.9 556.012 584.9C556.212 579.6 556.612 574 557.112 568.3C558.412 554 571.112 543.5 585.412 544.8C599.712 546.1 610.212 558.8 608.912 573.1C608.412 577.9 608.112 582.6 607.912 587.1C604.512 664.9 640.012 743.8 700.512 792.9C711.612 802 713.312 818.3 704.312 829.5C699.112 835.9 691.612 839.2 684.112 839.2Z" fill="#9063CD"/>
<path d="M613.612 635.103C605.012 635.103 597.312 628.903 595.912 620.103C583.912 548.103 604.212 460.603 605.112 456.903C607.412 447.203 617.112 441.203 626.812 443.503C636.512 445.803 642.513 455.503 640.213 465.103C640.013 465.903 620.712 549.403 631.512 614.203C633.112 624.003 626.513 633.303 616.713 634.903C615.613 635.003 614.612 635.103 613.612 635.103Z" fill="#FF7F41"/>
<path d="M499.614 227.101C497.414 227.101 495.114 226.701 492.914 225.801C456.714 211.301 419.314 206.101 381.814 210.401C353.614 213.701 335.814 221.401 335.714 221.501C326.614 225.601 316.014 221.501 311.914 212.501C307.814 203.401 311.914 192.801 320.914 188.701C324.314 187.201 405.014 151.801 506.314 192.501C515.514 196.201 520.014 206.701 516.314 215.901C513.514 222.801 506.814 227.101 499.614 227.101Z" fill="#FF7F41"/>
<path d="M143.014 454.502C142.314 454.502 141.614 454.502 140.914 454.402C131.014 453.202 124.014 444.302 125.114 434.402C132.814 368.202 165.314 318.302 166.714 316.202C172.214 307.902 183.314 305.602 191.614 311.102C199.914 316.602 202.214 327.702 196.714 336.002C196.414 336.502 167.514 381.202 160.814 438.602C159.814 447.802 152.014 454.502 143.014 454.502Z" fill="#FF7F41"/>
<path d="M252.912 324.9C250.612 324.9 248.312 324.1 246.412 322.5C242.212 318.9 241.712 312.6 245.312 308.4C246.712 306.7 280.412 267.6 320.012 252C325.112 250 330.912 252.5 333.012 257.7C335.012 262.8 332.512 268.6 327.312 270.7C292.412 284.4 260.812 321.1 260.512 321.4C258.512 323.7 255.712 324.9 252.912 324.9Z" fill="#F5B6CD"/>
<path d="M524.812 295.602C522.112 295.602 519.512 294.502 517.512 292.502C501.212 275.202 472.012 263.802 450.412 257.302C445.112 255.702 442.112 250.102 443.712 244.802C445.312 239.502 450.912 236.502 456.212 238.102C480.112 245.302 512.712 258.202 532.012 278.702C535.812 282.702 535.612 289.002 531.612 292.802C529.812 294.702 527.312 295.602 524.812 295.602Z" fill="#F5B6CD"/>
<path d="M565.213 680.301C561.113 680.301 557.213 677.701 555.813 673.601C535.813 615.901 549.713 547.801 550.313 544.901C551.413 539.501 556.713 536.001 562.113 537.201C567.513 538.301 571.013 543.601 569.813 549.001C569.713 549.701 556.513 614.701 574.613 667.001C576.413 672.201 573.713 677.901 568.413 679.701C567.413 680.101 566.313 680.301 565.213 680.301Z" fill="#F5B6CD"/>
<path d="M626.115 369.902C618.015 369.902 610.715 364.402 608.615 356.202C599.815 320.502 569.415 281.202 569.115 280.802C563.015 273.002 564.415 261.702 572.215 255.502C580.015 249.402 591.315 250.802 597.515 258.602C598.915 260.402 633.015 304.302 643.615 347.602C646.015 357.302 640.115 367.002 630.415 369.402C629.015 369.702 627.615 369.902 626.115 369.902Z" fill="#FF7F41"/>
<path d="M318.315 758.203C331.315 748.203 333.615 730.803 323.515 719.403C320.815 716.403 317.615 714.103 314.015 712.603C303.915 708.203 291.215 709.503 281.615 716.903C268.615 726.903 266.315 744.303 276.415 755.703C279.115 758.703 282.315 761.003 285.915 762.603C296.015 766.903 308.715 765.603 318.315 758.203Z" fill="white"/>
</svg>
