<svg width="1080" height="1080" viewBox="0 0 1080 1080" fill="none" xmlns="http://www.w3.org/2000/svg">
<path d="M785.608 408H251.108C212.608 461.8 190.008 527.6 190.008 598.8C190.008 780.1 337.008 927.2 518.408 927.2C699.808 927.2 846.808 780.2 846.808 598.8C846.708 527.6 824.108 461.8 785.608 408Z" fill="#F5B6CD"/>
<path d="M672.31 554.8C783.54 554.8 873.71 464.63 873.71 353.4C873.71 242.17 783.54 152 672.31 152C561.08 152 470.91 242.17 470.91 353.4C470.91 464.63 561.08 554.8 672.31 554.8Z" fill="#E4AC7B"/>
<path d="M460.91 870.898L274.31 732.098C254.31 717.198 250.11 688.998 265.01 668.998L578.91 246.798C593.81 226.798 622.01 222.598 642.01 237.498L828.71 376.298C848.71 391.198 852.91 419.398 838.01 439.398L524.11 861.598C509.21 881.598 480.91 885.798 460.91 870.898Z" fill="#FDDA24"/>
<path d="M389.109 793.098C400.431 793.098 409.609 783.919 409.609 772.598C409.609 761.276 400.431 752.098 389.109 752.098C377.788 752.098 368.609 761.276 368.609 772.598C368.609 783.919 377.788 793.098 389.109 793.098Z" fill="white"/>
<path d="M298.41 664.599L580.11 285.699L580.21 285.799L800.31 449.499L767.91 493.199L518.61 828.399L298.41 664.599Z" fill="white"/>
<path d="M671.508 504.299L547.808 432.199C540.508 427.899 530.108 430.499 524.508 437.899L471.108 509.599C465.608 516.999 467.008 526.499 474.308 530.799L598.008 602.899C605.308 607.199 615.708 604.599 621.308 597.199L664.708 538.899L674.708 525.499C680.308 517.999 678.808 508.499 671.508 504.299Z" fill="#FF7F41"/>
<path d="M545.211 438.199L671.611 489.599L644.911 526.799L545.211 438.199Z" fill="#59CBE8"/>
<path d="M545.211 438.199L682.611 506.099L654.711 543.699L545.211 438.199Z" fill="#00C389"/>
<path d="M661.509 529.601L546.909 434.701C540.109 429.101 530.109 430.501 524.609 438.001L471.209 509.701C465.709 517.101 466.709 527.701 473.509 533.301L588.109 628.201C594.909 633.801 604.909 632.401 610.409 624.901L653.809 566.601L663.809 553.201C669.309 545.801 668.309 535.201 661.509 529.601Z" fill="#9063CD"/>
<path d="M619.409 585.7C623.882 585.7 627.509 582.074 627.509 577.6C627.509 573.126 623.882 569.5 619.409 569.5C614.935 569.5 611.309 573.126 611.309 577.6C611.309 582.074 614.935 585.7 619.409 585.7Z" fill="#FDDA24"/>
<path d="M335.151 615.17L302.637 658.906L522.762 822.554L555.277 778.817L335.151 615.17Z" fill="#FDDA24"/>
<path d="M522.912 823.2L522.512 822.9L302.012 659L302.312 658.6L335.112 614.5L335.512 614.8L556.012 778.8L555.712 779.2L522.912 823.2ZM303.412 658.8L522.712 821.9L554.612 779L335.312 615.9L303.412 658.8Z" fill="#FDDA24"/>
<path d="M677.91 263.801L675.41 172.801C688.91 201.001 690.21 234.201 677.91 263.801Z" fill="#E4AC7B"/>
<path d="M478.609 278.998L478.709 278.898L478.609 278.998Z" fill="#CB913F"/>
<path d="M355.711 434.3C385.911 458.9 429.411 458.2 458.911 432.7L481.011 407.2C522.111 359.8 569.411 318.1 621.611 283.4L665.011 254.5L606.711 200.5L517.111 225L355.211 430C354.211 431.3 354.411 433.2 355.711 434.3Z" fill="#E4AC7B"/>
<path d="M750.51 260.8L664.91 254.5L721.81 610.7C725.91 634.9 751.21 649.4 774.11 640.6C791.31 634 801.61 616.2 798.61 598C788.71 535.6 765.81 360.4 750.51 260.8Z" fill="#E4AC7B"/>
<path d="M813.309 295.602H735.109L779.009 554.402C783.109 578.602 808.409 593.102 831.309 584.302C848.509 577.702 858.809 559.902 855.809 541.702C846.709 484.802 827.709 378.002 813.309 295.602Z" fill="#E4AC7B"/>
<path d="M858.511 295.602H781.211L809.711 440.502C818.011 504.402 842.911 518.202 865.511 509.602L866.011 509.402C883.511 502.702 893.811 484.402 890.411 465.902C881.611 418.602 867.411 344.602 858.511 295.602Z" fill="#E4AC7B"/>
<path d="M600.211 297.6L640.511 279.2C651.711 270.7 667.811 277 670.411 290.8L679.311 339.5L664.911 254.5L600.211 297.6Z" fill="#E4AC7B"/>
<path d="M701.809 802.898C538.009 708.798 402.509 572.298 309.509 407.898H251.109C159.309 536.198 170.909 715.698 286.109 830.898C414.309 959.098 622.209 959.098 750.509 830.898L701.809 802.898Z" fill="#59CBE8"/>
<path d="M281.809 477.701C294.622 477.701 305.009 467.314 305.009 454.501C305.009 441.688 294.622 431.301 281.809 431.301C268.996 431.301 258.609 441.688 258.609 454.501C258.609 467.314 268.996 477.701 281.809 477.701Z" fill="#FF7F41"/>
</svg>
