<svg width="1080" height="1080" viewBox="0 0 1080 1080" fill="none" xmlns="http://www.w3.org/2000/svg">
<path d="M269.172 566.299C267.872 566.299 266.572 566.199 265.272 565.999C249.872 563.699 234.472 560.099 219.572 555.099C203.872 549.899 189.072 543.299 175.572 535.499C167.972 531.099 160.872 526.299 154.372 521.299L154.272 521.199C152.672 519.999 150.972 518.599 149.072 516.899L146.972 515.099C146.272 514.499 145.572 513.799 144.872 513.099L144.072 512.299C143.672 511.899 143.372 511.599 142.972 511.299C141.972 510.399 140.772 509.199 139.472 507.899L135.272 503.599C129.672 497.599 124.372 491.299 119.572 484.699L119.372 484.499C114.272 477.499 109.972 470.899 106.172 464.299L106.072 464.199C101.472 456.199 97.9721 449.499 95.0721 443.099L93.6721 439.999L90.1721 431.499C89.7721 430.499 89.4721 429.599 89.0721 428.699C88.1721 426.299 87.1721 423.699 86.1721 420.799C83.2721 412.499 81.0721 404.399 79.5721 398.199L79.3721 397.399C79.1721 396.499 78.9721 395.699 78.7721 394.799C78.1721 392.099 77.4721 388.999 76.8721 385.799C76.7721 385.299 76.6721 384.799 76.5721 384.299C76.3721 382.999 76.0721 381.499 75.7721 379.899L74.9721 374.599C74.6721 372.499 74.4721 370.699 74.2721 368.999V367.999C74.2721 367.499 74.1721 366.999 74.0721 366.399C73.9721 365.099 73.7721 363.599 73.6721 361.899V361.599C73.6721 360.799 73.5721 359.899 73.4721 359.099C73.2721 356.299 73.0721 353.199 73.0721 349.799C72.8721 342.599 73.0721 334.899 73.8721 325.499V324.999C75.6721 307.299 79.4721 290.699 85.1721 275.899C90.3721 262.399 105.572 255.599 119.072 260.799C132.572 265.999 139.372 281.199 134.172 294.699C130.172 305.199 127.472 317.099 126.072 330.099C125.472 337.399 125.272 343.299 125.472 348.399V349.199C125.472 351.099 125.572 353.299 125.772 355.599C125.872 356.499 125.872 357.399 125.972 358.299C125.972 358.999 126.072 359.799 126.172 360.699C126.272 361.399 126.272 361.999 126.372 362.699L126.472 363.599C126.572 364.699 126.672 365.799 126.772 366.499L126.972 366.999L127.772 372.199C127.872 372.999 128.072 373.899 128.172 374.699C128.272 375.399 128.472 376.099 128.572 376.799V377.099C128.872 378.999 129.372 381.099 129.872 383.299C130.072 384.099 130.272 384.999 130.472 385.799C131.772 390.899 133.472 397.399 135.672 403.499L135.872 404.199C136.372 405.799 137.172 407.699 137.872 409.699C138.272 410.699 138.572 411.599 138.972 412.599L141.672 418.999L142.772 421.299C144.972 426.099 147.672 431.399 151.372 437.899C154.272 442.899 157.572 447.899 161.572 453.499C165.172 458.399 169.172 463.099 173.272 467.499L176.872 471.199C177.272 471.599 177.872 472.199 178.572 472.799C179.072 473.299 179.572 473.699 180.072 474.199C180.272 474.399 180.572 474.699 180.772 474.899C180.972 475.099 181.072 475.199 181.272 475.399L183.572 477.399C184.372 478.099 185.472 478.899 186.672 479.899L186.772 479.999C191.372 483.599 196.272 486.899 201.872 490.099C212.272 496.099 223.772 501.199 236.072 505.299C248.172 509.299 260.572 512.299 272.872 514.099C287.172 516.199 297.172 529.599 294.972 543.899C293.172 556.899 281.972 566.299 269.172 566.299Z" fill="#FF7F41"/>
<path d="M302.372 536.397C286.672 536.397 270.572 534.597 254.272 531.097C237.572 527.497 221.772 522.197 207.172 515.397C199.372 511.797 191.972 507.697 185.172 503.397L184.972 503.297C183.272 502.197 181.672 501.097 180.072 499.997L179.472 499.597C179.072 499.297 178.572 498.997 178.172 498.597C177.072 497.797 175.972 496.997 174.672 495.997L174.472 495.897C173.072 494.797 171.372 493.497 169.772 491.997C169.572 491.897 169.472 491.697 169.272 491.597C168.772 491.097 167.972 490.497 167.172 489.797L165.172 487.997C159.272 482.497 153.572 476.197 148.272 469.397C143.172 462.897 138.472 455.897 134.172 448.597C130.072 441.597 126.272 434.197 122.872 426.497C119.672 419.297 116.872 411.597 114.172 403.097C111.072 393.197 116.672 382.697 126.572 379.597C136.472 376.497 146.972 382.097 150.072 391.997C152.272 399.097 154.572 405.397 157.172 411.297C159.972 417.597 163.172 423.797 166.572 429.597C169.972 435.397 173.772 440.997 177.772 446.197C181.972 451.497 186.272 456.397 190.772 460.597L192.772 462.397C192.972 462.597 193.172 462.697 193.372 462.897C193.672 463.197 194.072 463.497 194.372 463.797L194.472 463.897C195.272 464.597 196.372 465.497 197.472 466.397L198.072 466.897C198.472 467.197 199.172 467.697 199.872 468.197C200.472 468.597 200.972 468.997 201.572 469.397C202.872 470.297 204.172 471.197 205.472 471.997C210.772 475.397 216.572 478.597 222.872 481.397C234.972 486.997 248.272 491.397 262.272 494.497C276.272 497.497 290.072 499.097 303.472 498.997C310.372 498.997 316.972 498.497 323.272 497.597H323.372C326.072 497.197 329.072 496.697 332.672 495.797L333.172 495.697C333.472 495.597 333.772 495.497 334.072 495.497L337.672 494.597C338.372 494.397 339.072 494.197 339.772 494.097C340.772 493.797 341.872 493.597 342.872 493.297H342.972C356.772 489.497 370.972 484.597 385.072 478.797C398.072 473.397 411.472 466.997 425.872 459.297C434.972 454.397 446.372 457.797 451.272 466.897C456.172 475.997 452.772 487.397 443.672 492.297C428.172 500.597 413.772 507.497 399.472 513.497C383.972 519.897 368.372 525.297 353.172 529.497C351.772 529.897 350.472 530.197 349.072 530.597C348.472 530.797 347.872 530.897 347.272 531.097L343.572 531.997C342.772 532.197 341.872 532.397 340.872 532.697C336.372 533.697 332.472 534.397 328.672 534.997C320.772 536.197 312.372 536.797 303.772 536.797C303.272 536.397 302.872 536.397 302.372 536.397Z" fill="#FDDA24"/>
<path d="M973.372 441.599C963.272 441.599 953.572 435.699 949.272 425.899L948.372 423.799L947.372 421.799C947.072 421.199 946.772 420.599 946.472 420.099C946.072 419.299 945.672 418.399 945.272 417.599C944.872 416.899 944.572 416.199 944.172 415.599C942.972 413.399 941.772 411.299 940.772 409.599L940.672 409.499C940.272 408.799 939.772 408.099 939.372 407.399C939.072 406.799 938.572 406.099 938.372 405.799L938.072 405.399L934.772 400.499C934.572 400.099 934.072 399.499 933.572 398.799C933.172 398.199 932.672 397.599 932.272 397.099C931.972 396.699 931.672 396.399 931.472 395.999C930.872 395.199 930.372 394.499 929.972 394.099L929.672 393.699L926.072 389.399C925.772 388.999 925.172 388.299 924.472 387.599C923.972 386.999 923.472 386.499 922.972 385.899L922.772 385.699C921.472 384.199 919.772 382.399 917.972 380.599C917.372 379.999 916.772 379.399 916.172 378.799L915.972 378.599C915.672 378.299 915.072 377.799 914.472 377.199C913.972 376.699 913.472 376.299 912.972 375.799C912.472 375.299 911.972 374.899 911.472 374.399C910.872 373.799 910.272 373.299 909.972 372.999C909.072 372.199 908.172 371.499 907.272 370.699C905.572 369.199 903.872 367.799 902.472 366.799L901.972 366.399C892.072 358.599 880.972 351.499 868.972 345.199C856.872 338.899 844.672 333.699 832.772 329.899C820.172 325.799 807.472 323.099 794.872 321.699C782.172 320.399 769.172 320.499 756.372 321.999C743.472 323.599 730.672 326.499 718.372 330.499C705.972 334.599 693.672 339.599 681.672 345.599C668.672 351.999 652.972 346.699 646.472 333.699C640.072 320.699 645.372 304.999 658.372 298.499C672.572 291.399 687.272 285.399 702.072 280.599C717.672 275.499 733.772 271.899 750.072 269.899H750.272C766.972 267.999 783.872 267.799 800.372 269.499H800.572C816.772 271.299 833.072 274.799 849.072 279.999C863.772 284.799 878.772 291.099 893.472 298.799C908.272 306.599 921.972 315.399 934.272 324.999C936.972 326.999 939.372 329.099 941.472 330.899C942.172 331.499 942.972 332.199 943.672 332.799C945.172 333.999 946.472 335.199 947.472 336.199C947.872 336.499 948.172 336.899 948.572 337.199L949.072 337.599C949.472 337.899 949.772 338.299 950.172 338.599C951.172 339.499 952.472 340.699 953.872 342.099C954.372 342.599 954.872 343.199 955.472 343.699C957.672 345.899 960.072 348.399 962.572 351.199C962.872 351.599 963.272 351.899 963.572 352.299C964.572 353.399 965.672 354.599 966.772 355.999L970.272 360.199C971.672 361.799 972.772 363.399 973.772 364.699L974.772 365.999C975.072 366.399 975.372 366.799 975.672 367.199C976.572 368.299 977.572 369.699 978.672 371.399L981.672 375.799C982.872 377.499 983.772 378.999 984.472 380.199C984.672 380.599 984.972 380.999 985.172 381.399C987.172 384.599 988.872 387.699 990.372 390.399C990.772 391.099 991.172 391.799 991.472 392.499L991.772 393.099C992.472 394.399 993.072 395.699 993.772 397.099C993.972 397.599 994.272 398.099 994.472 398.599L996.272 402.299L997.372 404.899C1003.17 418.199 997.072 433.699 983.872 439.499C980.472 440.899 976.872 441.599 973.372 441.599Z" fill="#F5B6CD"/>
<path d="M360.772 555.898C350.972 555.898 341.972 549.498 339.172 539.698C335.672 527.798 342.572 515.298 354.572 511.798L357.572 510.898L366.772 507.998L375.872 504.798L384.872 501.398L391.172 498.898C393.572 497.898 396.172 496.798 398.772 495.698C400.172 495.098 401.472 494.498 402.872 493.898C418.472 486.898 433.872 478.998 448.872 470.398C480.672 452.198 510.672 431.098 536.272 412.698C546.372 405.498 560.472 407.798 567.672 417.898C574.872 427.998 572.572 442.098 562.472 449.298C535.972 468.298 504.872 490.198 471.272 509.398C455.072 518.798 438.172 527.398 421.072 534.998L420.672 535.198C419.372 535.798 418.072 536.298 416.772 536.898C413.872 538.198 410.872 539.498 407.672 540.698L400.972 543.398L390.872 547.198L380.672 550.698L370.372 553.998L367.072 554.998C364.972 555.598 362.872 555.898 360.772 555.898Z" fill="#00C389"/>
<path d="M624.274 404.299C615.774 404.299 607.374 400.199 602.374 392.499C594.374 380.399 597.674 364.099 609.774 356.099C625.974 345.399 639.374 337.199 652.074 330.199C654.874 328.599 657.574 327.199 660.174 325.799C661.074 325.299 661.974 324.799 662.874 324.399L663.574 324.099C664.574 323.599 665.574 323.099 666.574 322.599C669.174 321.299 671.774 319.999 674.674 318.699C681.974 315.199 689.574 311.999 697.874 308.799C705.374 305.899 713.274 303.299 722.274 300.899C730.074 298.799 738.374 296.999 747.674 295.599C765.074 292.999 782.574 292.699 799.874 294.699C814.274 296.299 824.574 309.399 822.974 323.799C821.374 338.199 808.274 348.599 793.874 346.899C781.074 345.399 768.174 345.699 755.374 347.599C748.174 348.699 741.874 349.999 736.174 351.599H736.074C728.874 353.599 722.474 355.599 716.674 357.899L716.574 357.999C709.574 360.699 703.174 363.399 697.174 366.299L696.674 366.499C694.674 367.399 692.474 368.499 690.174 369.699C689.174 370.199 688.174 370.699 687.174 371.199C686.274 371.699 685.474 372.099 684.574 372.599C682.174 373.899 679.874 375.099 677.774 376.299L677.474 376.499C665.974 382.799 653.674 390.399 638.674 400.299C634.274 402.799 629.174 404.299 624.274 404.299Z" fill="#FF7F41"/>
<path d="M933.472 625.1C930.572 625.1 927.672 624.4 924.872 623C915.672 618.3 912.072 607 916.772 597.8C927.672 576.7 935.472 555.5 940.172 534.8C945.172 512.5 946.472 491 943.872 471C943.072 465.2 942.272 460.5 941.072 455.9L940.872 455.2C940.572 453.7 940.072 452.1 939.572 450.3C939.372 449.5 939.072 448.7 938.872 447.8C938.772 447.4 938.572 446.8 938.372 446.2C938.172 445.7 937.972 445.1 937.872 444.6C937.672 444.1 937.572 443.6 937.372 443.1C937.172 442.6 936.972 441.9 936.872 441.7L936.672 441.1C932.872 431.1 928.372 422 922.972 414.1C917.072 405.3 910.472 397.4 903.172 390.5C895.772 383.4 887.272 376.8 878.072 370.8C869.372 365.1 866.972 353.5 872.572 344.9C878.272 336.2 889.872 333.8 898.472 339.4C909.572 346.7 919.872 354.7 928.972 363.4C938.272 372.2 946.672 382.2 954.072 393.2C960.972 403.4 966.872 415 971.672 427.8C972.272 429.2 972.672 430.5 972.972 431.5C973.072 431.8 973.172 432.2 973.272 432.5L973.372 432.9C973.472 433.3 973.672 433.7 973.772 434.1C974.072 435.1 974.572 436.4 974.972 437.8C975.172 438.5 975.372 439.2 975.572 439.9C976.172 442 976.872 444.3 977.372 446.9C978.972 453.3 980.072 459.7 980.872 465.7V466C984.072 490.5 982.572 516.4 976.572 543C971.172 566.8 962.272 591 949.972 614.9C946.872 621.4 940.272 625.1 933.472 625.1Z" fill="#59CBE8"/>
<path d="M473.67 311.5C470.97 321.1 467.17 330.2 462.37 338.7C460.87 341.4 460.97 344.8 462.77 347.4L480.67 373C482.97 376.3 482.57 380.7 479.77 383.6L459.67 403.6C456.87 406.4 452.37 406.8 449.07 404.5L423.47 386.5C420.87 384.7 417.47 384.5 414.77 386C406.27 390.8 397.17 394.6 387.57 397.2C384.57 398 382.27 400.6 381.77 403.7L376.27 434.5C375.57 438.4 372.17 441.3 368.17 441.3H339.77C335.77 441.3 332.37 438.4 331.67 434.5L326.27 403.7C325.77 400.6 323.47 398.1 320.47 397.2C310.87 394.5 301.77 390.7 293.27 385.9C290.57 384.4 287.17 384.6 284.57 386.4L258.87 404.3C255.57 406.6 251.17 406.2 248.27 403.4L228.27 383.3C225.47 380.5 225.07 376 227.37 372.7L245.37 347.1C247.17 344.5 247.37 341.1 245.87 338.4C241.07 329.9 237.27 320.8 234.67 311.2C233.87 308.2 231.27 305.9 228.17 305.4L197.37 299.9C193.47 299.2 190.57 295.8 190.57 291.8V263.4C190.57 259.4 193.47 256 197.37 255.3L228.17 249.9C231.27 249.4 233.77 247.1 234.67 244.1C237.37 234.5 241.17 225.4 245.97 216.9C247.47 214.2 247.37 210.8 245.47 208.2L227.57 182.5C225.27 179.2 225.67 174.8 228.47 171.9L248.57 151.9C251.37 149.1 255.87 148.7 259.17 151L284.77 169C287.37 170.8 290.77 171 293.47 169.5C301.97 164.7 311.07 160.9 320.67 158.3C323.67 157.5 325.97 154.9 326.47 151.8L331.97 120.8C332.67 116.9 336.07 114 340.07 114H368.47C372.47 114 375.87 116.9 376.57 120.8L381.97 151.6C382.47 154.7 384.77 157.2 387.77 158.1C397.37 160.8 406.47 164.6 414.97 169.4C417.67 170.9 421.07 170.7 423.67 168.9L449.27 151C452.57 148.7 456.97 149.1 459.87 151.9L479.87 172C482.67 174.8 483.07 179.3 480.77 182.6L462.77 208.2C460.97 210.8 460.77 214.2 462.27 216.9C467.07 225.4 470.87 234.5 473.47 244.1C474.27 247.1 476.87 249.4 479.97 249.9L510.77 255.4C514.67 256.1 517.57 259.5 517.57 263.5V291.9C517.57 295.9 514.67 299.3 510.77 300L479.97 305.4C477.07 306.2 474.57 308.4 473.67 311.5Z" fill="#FDDA24"/>
<path d="M354.17 362.101C400.782 362.101 438.57 324.314 438.57 277.701C438.57 231.088 400.782 193.301 354.17 193.301C307.557 193.301 269.77 231.088 269.77 277.701C269.77 324.314 307.557 362.101 354.17 362.101Z" fill="#00C389"/>
<path d="M330.47 325.7C328.37 325.7 326.27 324.8 324.77 323.3L302.47 301C299.27 297.8 299.27 292.7 302.47 289.6C305.67 286.4 310.77 286.4 313.87 289.6L330.47 306.2L394.27 242.4C397.47 239.2 402.57 239.2 405.67 242.4C408.87 245.6 408.87 250.7 405.67 253.8L336.17 323.3C334.67 324.9 332.67 325.7 330.47 325.7Z" fill="white"/>
<path d="M665.271 965.597C776.501 965.597 866.671 875.427 866.671 764.197C866.671 652.967 776.501 562.797 665.271 562.797C554.041 562.797 463.871 652.967 463.871 764.197C463.871 875.427 554.041 965.597 665.271 965.597Z" fill="#E4AC7B"/>
<path d="M744.569 854.099L515.369 814.399C490.769 810.099 474.369 786.799 478.669 762.199L568.569 243.799C572.869 219.199 596.169 202.799 620.769 207.099L849.969 246.799C874.569 251.099 890.969 274.399 886.669 298.999L796.769 817.399C792.469 841.899 769.069 858.399 744.569 854.099Z" fill="#FF7F41"/>
<path d="M636.07 819.297C647.392 819.297 656.57 810.119 656.57 798.797C656.57 787.475 647.392 778.297 636.07 778.297C624.748 778.297 615.57 787.475 615.57 798.797C615.57 810.119 624.748 819.297 636.07 819.297Z" fill="white"/>
<path d="M858.772 317.9L778.072 783.1H777.872L507.672 736.2L516.972 682.5L588.372 271L858.772 317.9Z" fill="white"/>
<path d="M766.669 447.201L623.769 438.701C615.269 438.201 607.169 445.201 605.569 454.301L590.269 542.401C588.669 551.501 594.269 559.301 602.669 559.801L745.569 568.301C754.069 568.801 762.169 561.801 763.769 552.701L776.169 481.101L779.069 464.601C780.669 455.401 775.169 447.701 766.669 447.201Z" fill="#FF7F41"/>
<path d="M624.168 445.1L760.168 434L753.068 479.3L624.168 445.1Z" fill="#59CBE8"/>
<path d="M624.168 445.099L777.368 443.699L769.368 489.899L624.168 445.099Z" fill="#00C389"/>
<path d="M769.171 474.301L624.071 441.301C615.471 439.301 607.271 445.101 605.671 454.301L590.371 542.401C588.771 551.501 594.471 560.501 603.071 562.501L748.171 595.501C756.771 597.501 764.971 591.701 766.571 582.501L778.971 510.901L781.871 494.401C783.371 485.201 777.771 476.201 769.171 474.301Z" fill="#9063CD"/>
<path d="M753.268 544.2C757.741 544.2 761.368 540.574 761.368 536.1C761.368 531.626 757.741 528 753.268 528C748.794 528 745.168 531.626 745.168 536.1C745.168 540.574 748.794 544.2 753.268 544.2Z" fill="#FDDA24"/>
<path d="M516.967 682.543L507.664 736.242L777.932 783.065L787.235 729.366L516.967 682.543Z" fill="#FDDA24"/>
<path d="M778.27 783.6L777.77 783.5L507.07 736.6L507.17 736.1L516.57 682L517.07 682.1L787.77 729L787.67 729.5L778.27 783.6ZM508.27 735.8L777.57 782.5L786.67 729.8L517.37 683.1L508.27 735.8Z" fill="#FDDA24"/>
<path d="M854.471 818.497C842.271 848.597 823.771 875.997 799.971 898.697C794.671 903.797 789.871 910.097 785.571 916.997C780.571 925.097 752.571 933.497 743.971 926.797L700.671 846.697C699.971 837.597 700.371 828.297 701.971 818.997C708.371 781.897 732.471 752.197 763.971 737.097C773.971 732.297 776.171 730.597 787.371 728.897L795.571 681.797L768.671 588.497C756.671 560.097 770.071 527.297 798.471 515.297C799.671 514.797 800.871 514.697 802.071 514.897C804.171 515.297 805.971 516.597 806.871 518.697L839.871 596.997L868.471 664.197C875.271 680.097 877.671 697.497 875.371 714.597L872.571 736.597L871.771 743.097V743.297L869.471 761.097C866.871 780.997 861.771 800.297 854.471 818.497Z" fill="#E4AC7B"/>
<path d="M700.672 846.797L743.972 926.897C719.172 907.697 703.072 878.697 700.672 846.797Z" fill="#E4AC7B"/>
<path d="M871.772 743.297L871.672 743.397L871.772 743.297Z" fill="#CB913F"/>
<path d="M470.87 724.099L445.57 677.899C435.47 659.499 442.27 636.399 460.67 626.399L493.97 608.199L537.47 687.699C547.57 706.099 540.77 729.199 522.37 739.199C504.07 749.299 480.97 742.499 470.87 724.099Z" fill="#E4AC7B"/>
<path d="M484.069 648.4L458.769 602.2C448.669 583.8 455.469 560.7 473.869 550.7L507.169 532.5L550.669 612C560.769 630.4 553.969 653.5 535.569 663.5C517.169 673.6 494.069 666.8 484.069 648.4Z" fill="#E4AC7B"/>
<path d="M497.171 572.697L471.871 526.497C461.771 508.097 468.571 484.997 486.971 474.997L520.271 456.797L563.771 536.297C573.871 554.697 567.071 577.797 548.671 587.797C530.271 597.897 507.271 591.097 497.171 572.697Z" fill="#E4AC7B"/>
<path d="M533.469 380.999L545.769 374.699L538.769 414.899L533.469 380.999Z" fill="#E4AC7B"/>
<path d="M510.269 496.998L484.969 450.798C474.869 432.398 481.669 409.298 500.069 399.298L533.369 381.098L576.869 460.598C586.969 478.998 580.169 502.098 561.769 512.098C543.469 522.198 520.369 515.398 510.269 496.998Z" fill="#E4AC7B"/>
<path d="M864.273 756.499C856.573 756.499 848.973 753.099 843.773 746.699C834.673 735.399 836.473 718.899 847.773 709.799C860.673 699.399 872.873 687.899 883.873 675.599C889.473 669.399 894.873 662.999 899.973 656.399C905.073 649.799 909.873 642.999 914.473 635.999C933.673 606.899 947.473 576.499 955.373 545.799C958.973 531.799 973.373 523.299 987.373 526.999C1001.37 530.599 1009.87 544.999 1006.17 558.999C996.773 595.299 980.673 630.899 958.173 664.999C952.873 672.999 947.173 680.899 941.373 688.499L941.273 688.599C935.373 696.199 929.173 703.599 922.773 710.699C909.873 725.099 895.673 738.599 880.473 750.699C875.873 754.599 870.073 756.499 864.273 756.499Z" fill="#9063CD"/>
</svg>
