<svg width="200" height="200" viewBox="0 0 200 200" fill="none" xmlns="http://www.w3.org/2000/svg">
<path fill-rule="evenodd" clip-rule="evenodd" d="M117.371 24.8562C118.651 22.9439 121.239 22.4315 123.151 23.7116C134.341 31.2021 141.667 43.8923 141.667 58.3407V83.3407C141.667 85.6419 139.801 87.5074 137.5 87.5074C135.199 87.5074 133.334 85.6419 133.334 83.3407V58.3407C133.334 46.7892 127.493 36.646 118.516 30.6365C116.603 29.3564 116.091 26.7685 117.371 24.8562Z" fill="#00CCEA"/>
<path fill-rule="evenodd" clip-rule="evenodd" d="M100 25C81.5512 25 66.6666 39.8845 66.6666 58.3333V83.3333C66.6666 85.6345 64.8012 87.5 62.5 87.5C60.1988 87.5 58.3333 85.6345 58.3333 83.3333V58.3333C58.3333 35.2821 76.9488 16.6666 100 16.6666C108.599 16.6666 116.575 19.2585 123.167 23.7148C125.073 25.0036 125.574 27.5939 124.285 29.5003C122.996 31.4067 120.406 31.9073 118.5 30.6185C113.258 27.0747 106.901 25 100 25Z" fill="#FDDA24"/>
<path fill-rule="evenodd" clip-rule="evenodd" d="M76.2204 101.22C77.8476 99.5932 80.4858 99.5932 82.1129 101.22L100 119.107L117.887 101.22C119.514 99.5932 122.152 99.5932 123.78 101.22C125.407 102.848 125.407 105.486 123.78 107.113L105.893 125L123.78 142.887C125.407 144.514 125.407 147.152 123.78 148.78C122.152 150.407 119.514 150.407 117.887 148.78L100 130.893L82.1129 148.78C80.4858 150.407 77.8476 150.407 76.2204 148.78C74.5932 147.152 74.5932 144.514 76.2204 142.887L94.1074 125L76.2204 107.113C74.5932 105.486 74.5932 102.848 76.2204 101.22Z" fill="#FF7F37"/>
<path fill-rule="evenodd" clip-rule="evenodd" d="M83.3333 87.5C83.3333 85.1989 85.1988 83.3334 87.5 83.3334H154.167C156.468 83.3334 158.333 85.1989 158.333 87.5V125C158.333 134.676 156.002 143.838 151.777 151.929C150.711 153.969 148.194 154.759 146.155 153.693C144.115 152.628 143.325 150.111 144.39 148.071C147.998 141.162 150 133.324 150 125V91.6667H87.5C85.1988 91.6667 83.3333 89.8012 83.3333 87.5Z" fill="#00C389"/>
<path fill-rule="evenodd" clip-rule="evenodd" d="M150.012 146.305C152.053 147.368 152.846 149.884 151.784 151.925C147.404 160.334 141.042 167.55 133.247 172.947C125.452 178.344 116.459 181.761 107.047 182.901C97.6346 184.041 88.0863 182.87 79.2281 179.49C70.37 176.11 62.4689 170.622 56.2087 163.502C54.6893 161.773 54.8585 159.141 56.5867 157.621C58.315 156.102 60.9477 156.271 62.4672 157.999C67.8333 164.103 74.606 168.807 82.199 171.704C89.7921 174.602 97.9768 175.605 106.045 174.628C114.113 173.651 121.821 170.722 128.503 166.096C135.185 161.469 140.639 155.284 144.392 148.076C145.455 146.035 147.971 145.242 150.012 146.305Z" fill="#F5B6CD"/>
<path fill-rule="evenodd" clip-rule="evenodd" d="M41.6667 87.5C41.6667 85.1989 43.5322 83.3334 45.8334 83.3334H87.5C89.8012 83.3334 91.6667 85.1989 91.6667 87.5C91.6667 89.8012 89.8012 91.6667 87.5 91.6667H50V125C50 137.622 54.6925 149.229 62.4521 157.987C63.9781 159.709 63.8189 162.343 62.0964 163.869C60.374 165.395 57.7406 165.236 56.2146 163.513C47.1409 153.271 41.6667 139.712 41.6667 125V87.5Z" fill="#9063CD"/>
</svg>
