<svg width="1080" height="1080" viewBox="0 0 1080 1080" fill="none" xmlns="http://www.w3.org/2000/svg">
<path d="M306.759 379.706C310.913 379.706 314.896 378.056 317.833 375.12C320.769 372.183 322.419 368.2 322.419 364.046V363.544C322.419 350.708 316.258 338.353 305.512 329.643C299.238 324.616 291.95 321.005 284.149 319.059V308.34C284.149 304.187 282.5 300.203 279.563 297.267C276.626 294.33 272.643 292.68 268.489 292.68C264.336 292.68 260.353 294.33 257.416 297.267C254.479 300.203 252.829 304.187 252.829 308.34V318.357C243.926 320.099 235.575 323.965 228.486 329.627C217.74 338.337 211.579 350.687 211.579 363.528V366.503C211.579 379.339 217.74 391.694 228.486 400.405C238.428 408.461 251.452 412.9 265.163 412.9H268.835C280.715 412.9 291.099 419.947 291.099 427.982V433.118C291.099 441.18 280.693 448.2 268.835 448.2H265.141C253.477 448.2 243.228 441.38 242.893 433.517V433.431C242.935 429.278 241.325 425.278 238.417 422.312C235.51 419.346 231.543 417.656 227.39 417.614C223.237 417.573 219.237 419.183 216.271 422.09C213.305 424.998 211.615 428.964 211.573 433.118C211.573 433.183 211.573 433.247 211.573 433.312C211.573 433.377 211.573 433.388 211.573 433.431C211.573 433.577 211.573 433.728 211.573 433.879C211.811 446.44 217.935 458.482 228.47 467.019C235.558 472.682 243.909 476.549 252.813 478.289V491.578C252.813 495.731 254.463 499.715 257.4 502.651C260.337 505.588 264.32 507.238 268.473 507.238C272.627 507.238 276.61 505.588 279.547 502.651C282.483 499.715 284.133 495.731 284.133 491.578V477.625C291.933 475.674 299.22 472.062 305.496 467.035C316.242 458.33 322.403 445.975 322.403 433.134V427.999C322.403 415.163 316.242 402.802 305.496 394.097C295.554 386.035 282.529 381.596 268.819 381.596H265.141C253.261 381.596 242.877 374.576 242.877 366.52V363.544C242.877 355.509 253.283 348.467 265.141 348.467H268.813C280.693 348.467 291.078 355.487 291.078 363.544V364.046C291.078 366.105 291.483 368.143 292.272 370.044C293.06 371.946 294.215 373.673 295.672 375.127C297.128 376.582 298.857 377.735 300.76 378.52C302.662 379.306 304.701 379.709 306.759 379.706V379.706Z" fill="#00C389"/>
<path d="M674.956 749.31H544.741L546.857 435.662H702.566L674.956 749.31Z" fill="#F5B6CD"/>
<path d="M545.898 578.259H344.36L336.508 435.662H546.86L545.898 578.259Z" fill="#FF7F41"/>
<path d="M544.741 749.309H372.665L363.285 578.95H545.891L544.741 749.309Z" fill="#9063CD"/>
<path d="M626.725 707.751L595.379 707.621L595.643 644.944L630.16 645.089L626.725 707.751Z" fill="#2C2A29"/>
<path d="M636.532 564.446L595.978 564.278L596.291 489.872L642.31 490.066L636.532 564.446Z" fill="#2C2A29"/>
<path d="M444.765 707.719H385.829L382.066 645.019H444.765V707.719Z" fill="#2C2A29"/>
<path d="M718.379 435.661H315.323L312.591 411.037H723.126L718.379 435.661Z" fill="#FDDA24"/>
<path d="M520.641 645.019H465.48V749.309H520.641V645.019Z" fill="#2C2A29"/>
<path d="M468.704 578.259H520.927L520.743 469.568H466.598L468.704 578.259Z" fill="#2C2A29"/>
<path d="M372.617 578.259H441.953L438.864 469.568H367.611L372.617 578.259Z" fill="#2C2A29"/>
<path d="M551.177 600.324H331.953L330.452 578.259H551.328L551.177 600.324Z" fill="#FDDA24"/>
<path d="M286.369 771.844C283.474 771.845 280.617 771.182 278.019 769.905C275.421 768.628 273.151 766.771 271.384 764.478C244.528 729.537 225.062 689.498 214.171 646.796C208.797 625.469 205.626 603.646 204.71 581.672C203.81 559.735 205.123 537.762 208.63 516.089C209.459 511.166 212.201 506.771 216.259 503.863C220.316 500.956 225.359 499.771 230.287 500.568C235.215 501.366 239.627 504.08 242.56 508.119C245.494 512.158 246.71 517.193 245.944 522.126C242.836 541.284 241.669 560.708 242.461 580.1C243.27 599.482 246.066 618.729 250.804 637.54C260.419 675.236 277.607 710.58 301.321 741.42C303.476 744.216 304.804 747.56 305.155 751.072C305.507 754.585 304.868 758.126 303.31 761.293C301.753 764.461 299.339 767.129 296.343 768.996C293.347 770.862 289.888 771.853 286.358 771.854L286.369 771.844Z" fill="#F5B6CD"/>
<path d="M829.979 591.84H829.704C824.692 591.767 819.914 589.707 816.421 586.112C812.928 582.517 811.007 577.682 811.079 572.67L811.144 568.085L811.057 560.558L810.836 554.412C810.787 553.246 810.706 552.015 810.625 550.708C810.577 549.963 810.528 549.212 810.485 548.462C809.945 540.48 809.059 532.445 807.866 524.577C802.99 492.748 792.71 461.986 777.469 433.62C762.248 405.254 742.349 379.66 718.609 357.917C694.872 336.169 667.607 318.619 637.982 306.018C630.962 303.005 623.575 300.251 615.464 297.583C607.623 295.024 599.804 292.826 592.32 291.065C587.439 289.92 583.214 286.882 580.574 282.621C577.933 278.36 577.093 273.225 578.239 268.345C579.385 263.465 582.422 259.24 586.683 256.599C590.944 253.958 596.079 253.119 600.96 254.264C609.502 256.273 618.337 258.762 627.22 261.662C636.4 264.681 644.78 267.818 652.837 271.263C686.398 285.541 717.283 305.429 744.167 330.075C784.622 367.103 814.987 413.817 832.404 465.82V465.874C838.153 483.143 842.438 500.865 845.212 518.853C846.568 527.807 847.567 536.916 848.182 545.961V546.172C848.22 546.874 848.269 547.581 848.312 548.283C848.404 549.758 848.501 551.28 848.566 552.895L848.814 559.839L848.906 568.139L848.836 573.183C848.772 578.146 846.758 582.884 843.23 586.375C839.702 589.866 834.942 591.829 829.979 591.84V591.84Z" fill="#FF7F41"/>
<path d="M782.462 454.68C779.942 454.682 777.473 453.979 775.333 452.65C773.192 451.322 771.466 449.421 770.349 447.163C753.873 414.064 730.879 384.636 702.747 360.644C674.632 336.656 641.885 318.706 606.54 307.908C571.155 297.153 533.967 293.627 497.19 297.54C460.457 301.56 424.927 313.018 392.765 331.214C389.652 332.972 385.968 333.422 382.522 332.467C379.077 331.512 376.151 329.229 374.387 326.119C372.623 323.009 372.164 319.326 373.112 315.878C374.06 312.431 376.337 309.5 379.443 307.73C414.818 287.716 453.898 275.115 494.301 270.696C534.701 266.41 575.549 270.29 614.419 282.107C653.3 293.986 689.325 313.728 720.259 340.108C751.177 366.483 776.448 398.832 794.558 435.213C795.571 437.27 796.044 439.551 795.932 441.842C795.819 444.133 795.125 446.357 793.915 448.305C792.704 450.253 791.018 451.86 789.014 452.976C787.01 454.091 784.755 454.677 782.462 454.68V454.68Z" fill="#FDDA24"/>
<path d="M513.723 871.841C513.415 871.841 513.112 871.841 512.805 871.841C495.035 871.017 477.37 868.653 460.009 864.778C451.369 862.85 442.729 860.522 434.326 857.866C426.226 855.311 417.781 852.217 409.281 848.686C392.843 841.825 377.044 833.524 362.069 823.878C332.119 804.58 305.784 780.181 284.26 751.788C278.904 744.73 273.795 737.365 269.076 729.886C264.421 722.509 259.982 714.712 255.867 706.703C239.554 674.994 228.982 640.648 224.639 605.254C224.02 600.279 225.403 595.262 228.483 591.307C231.563 587.352 236.089 584.783 241.063 584.164C246.038 583.545 251.054 584.928 255.01 588.008C258.965 591.088 261.534 595.613 262.153 600.588C265.958 631.578 275.222 661.648 289.515 689.407C293.116 696.427 297.004 703.247 301.06 709.684C305.196 716.234 309.7 722.698 314.376 728.887C333.246 753.774 356.336 775.158 382.594 792.067C395.682 800.504 409.49 807.77 423.856 813.78C431.286 816.88 438.646 819.58 445.699 821.804C453.097 824.137 460.689 826.184 468.287 827.879C483.524 831.274 499.026 833.343 514.619 834.062C519.632 834.181 524.392 836.285 527.853 839.913C531.314 843.541 533.192 848.395 533.074 853.408C532.955 858.42 530.851 863.181 527.223 866.642C523.595 870.103 518.741 871.981 513.728 871.862L513.723 871.841Z" fill="#00C389"/>
<path d="M347.078 339.606C343.64 339.611 340.29 338.522 337.512 336.496C334.734 334.471 332.673 331.614 331.626 328.339C330.579 325.064 330.601 321.542 331.689 318.28C332.776 315.019 334.874 312.188 337.677 310.198L339.961 308.578C341.5 307.465 343.093 306.315 344.772 305.165L344.848 305.111C345.523 304.657 346.187 304.198 346.857 303.739C348.536 302.589 350.275 301.401 352.143 300.213C371.914 287.275 393.069 276.589 415.215 268.353C426.312 264.21 437.632 260.691 449.122 257.812C460.594 254.959 472.214 252.738 483.93 251.16C488.189 250.587 492.5 251.729 495.917 254.335C499.333 256.941 501.574 260.798 502.147 265.056C502.72 269.315 501.578 273.627 498.972 277.043C496.365 280.459 492.509 282.701 488.25 283.273C477.708 284.692 467.253 286.689 456.93 289.257C446.625 291.839 436.474 294.998 426.523 298.717C416.576 302.429 406.841 306.687 397.363 311.472C387.884 316.281 378.675 321.603 369.774 327.413L369.58 327.537C368.181 328.423 366.734 329.416 365.2 330.469C364.48 330.963 363.76 331.452 363.04 331.938C361.712 332.851 360.367 333.823 358.936 334.849C358.116 335.448 357.316 336.042 356.463 336.631C353.721 338.576 350.44 339.616 347.078 339.606V339.606Z" fill="#00C389"/>
<path d="M526.36 884.71H526.279C518.103 884.666 509.706 884.315 501.326 883.667C493.404 883.03 485.282 882.047 476.486 880.681C443.371 875.42 411.308 864.909 381.505 849.545C378.384 847.871 376.045 845.037 374.994 841.655C373.942 838.272 374.262 834.612 375.885 831.464C377.507 828.315 380.302 825.93 383.667 824.824C387.031 823.717 390.696 823.977 393.871 825.547C421.116 839.59 450.426 849.199 480.698 854.011C488.798 855.274 496.25 856.17 503.464 856.748C511.154 857.348 518.881 857.672 526.392 857.71C534.044 857.71 541.766 857.407 549.342 856.84C556.519 856.3 563.971 855.425 572.12 854.14C602.366 849.379 631.656 839.806 658.876 825.785L660.766 824.802C661.873 824.23 662.926 823.689 663.903 823.149L669.384 820.126C672.678 818.219 675.789 816.421 678.824 814.52L678.883 814.488C685.66 810.281 692.064 805.972 697.913 801.679C710.247 792.629 721.853 782.627 732.624 771.763C733.869 770.501 735.351 769.498 736.985 768.809C738.618 768.12 740.372 767.76 742.145 767.748C743.917 767.737 745.675 768.075 747.317 768.743C748.959 769.411 750.454 770.396 751.715 771.642C752.977 772.887 753.981 774.369 754.67 776.003C755.359 777.636 755.719 779.389 755.73 781.162C755.742 782.935 755.404 784.693 754.736 786.335C754.068 787.977 753.083 789.472 751.837 790.733C740.067 802.606 727.385 813.539 713.907 823.43C707.492 828.139 700.51 832.843 693.144 837.411C689.705 839.571 686.238 841.569 682.884 843.502L682.182 843.907L676.923 846.802C675.627 847.52 674.369 848.168 673.143 848.794L671.377 849.712L671.285 849.761C641.484 865.121 609.413 875.604 576.294 880.811C567.4 882.193 559.257 883.154 551.357 883.743C543.095 884.386 534.687 884.699 526.36 884.71Z" fill="#59CBE8"/>
<path d="M792.099 745.887L772.801 765.185L873.79 866.173L893.088 846.875L792.099 745.887Z" fill="#2C2A29"/>
<path d="M736.974 836.73C806.931 836.73 863.642 780.019 863.642 710.062C863.642 640.106 806.931 583.395 736.974 583.395C667.018 583.395 610.307 640.106 610.307 710.062C610.307 780.019 667.018 836.73 736.974 836.73Z" fill="#9063CD"/>
<path d="M736.977 809.714C792.013 809.714 836.629 765.098 836.629 710.062C836.629 655.026 792.013 610.41 736.977 610.41C681.941 610.41 637.326 655.026 637.326 710.062C637.326 765.098 681.941 809.714 736.977 809.714Z" fill="#59CBE8"/>
<path d="M888.895 818.91C877.002 807.016 857.718 807.016 845.824 818.91C833.93 830.803 833.93 850.087 845.824 861.981L895.94 912.097C907.834 923.991 927.118 923.991 939.012 912.097C950.905 900.203 950.905 880.92 939.012 869.026L888.895 818.91Z" fill="#00C389"/>
<path d="M736.978 765.201C767.43 765.201 792.117 740.515 792.117 710.062C792.117 679.609 767.43 654.923 736.978 654.923C706.525 654.923 681.838 679.609 681.838 710.062C681.838 740.515 706.525 765.201 736.978 765.201Z" fill="#2C2A29"/>
</svg>
