<svg width="1080" height="1080" viewBox="0 0 1080 1080" fill="none" xmlns="http://www.w3.org/2000/svg">
<path d="M691.001 653.8C676.501 653.8 664.801 642 664.801 627.6V409.2C664.801 394.7 676.601 383 691.001 383C705.401 383 717.201 394.8 717.201 409.2V627.6C717.201 642 705.501 653.8 691.001 653.8Z" fill="#F5B6CD"/>
<path d="M666.1 569.399C655.7 569.399 647.3 560.999 647.3 550.599V370.199C647.3 369.299 647.3 368.399 647.3 367.599L647.2 363.799L646.9 359.799C646.9 359.199 646.8 358.499 646.8 358.299L646.7 357.599C644.8 340.999 638.7 325.099 629.1 311.699C623.1 303.299 625 291.599 633.4 285.499C641.8 279.499 653.5 281.399 659.6 289.799C672.9 308.299 681.3 330.099 683.9 352.999C684.1 354.599 684.2 355.899 684.3 357.099L684.7 362.399L684.8 366.599C684.8 367.699 684.9 368.999 684.9 370.499V550.599C684.8 560.999 676.4 569.399 666.1 569.399Z" fill="#FDDA24"/>
<path d="M431.098 483.298C416.598 483.298 404.898 471.499 404.898 457.099V368.099L404.998 364.599C404.998 364.399 404.998 364.199 404.998 363.999C404.998 363.099 404.998 361.799 405.198 360.398L405.398 357.499C405.498 354.999 405.798 352.799 406.098 350.999C406.098 350.599 406.198 350.299 406.198 349.898C406.398 347.498 406.798 345.498 407.098 343.898C407.198 343.398 407.298 342.899 407.398 342.299L407.498 341.599C411.298 321.399 419.798 301.699 432.198 284.598C444.098 267.998 460.198 253.699 478.498 243.399C491.098 236.299 507.098 240.799 514.198 253.399C521.298 265.999 516.798 281.999 504.198 289.098C492.498 295.698 482.298 304.699 474.798 315.199C466.898 326.099 461.598 338.398 459.098 350.898C458.998 351.699 458.798 352.499 458.698 353.299C458.598 353.999 458.398 354.898 458.398 355.199L458.298 355.799C458.198 356.399 458.198 356.899 458.098 357.499C457.998 358.599 457.798 359.699 457.798 360.299V360.999L457.598 364.099C457.598 364.299 457.598 364.499 457.598 364.599C457.598 365.099 457.598 365.599 457.598 366.099L457.498 368.898V372.099V456.999C457.298 471.499 445.598 483.298 431.098 483.298Z" fill="#F5B6CD"/>
<path d="M689.4 370.799C678.5 370.799 668.9 362.899 667.2 351.799C666.2 345.199 665.1 340.099 663.7 335.699L662.5 331.699L661.1 327.699C660.8 326.999 660.6 326.299 660.3 325.599C659.6 323.699 658.9 321.899 658.2 320.499L657.9 319.899C653.6 310.099 647.7 300.699 640.4 291.999C626.5 275.299 607.4 262.199 586.6 255.299C574.8 251.399 568.5 238.599 572.4 226.799C576.5 214.999 589.2 208.699 601 212.599C630 222.299 655.6 239.799 675.1 263.199C684.9 274.999 693 287.899 699 301.399C700.3 304.199 701.4 306.899 702.3 309.299C702.6 309.999 702.9 310.799 703.2 311.499L703.6 312.599L706.3 320.699L706.9 322.899C708.8 329.299 710.4 336.299 711.7 344.899C713.6 357.199 705.2 368.699 693 370.599C691.8 370.699 690.6 370.799 689.4 370.799Z" fill="#00C389"/>
<path d="M417.399 339.699C413.999 339.699 410.499 338.999 407.099 337.599C393.799 331.899 387.599 316.499 393.299 303.099C404.599 276.599 422.399 253.499 444.699 236.099C455.499 227.499 467.699 220.199 480.999 214.399C482.699 213.599 484.099 212.999 485.299 212.599L486.499 212.099C486.899 211.999 487.299 211.799 487.599 211.599C488.699 211.199 489.999 210.699 491.499 210.099L491.999 209.999C492.699 209.799 493.399 209.499 494.199 209.299C496.499 208.499 498.999 207.599 501.999 206.899L507.299 205.399L515.099 203.599L521.899 202.399C536.199 199.899 549.799 209.399 552.299 223.599C554.799 237.899 545.299 251.499 531.099 253.999L525.099 255.099L519.699 256.299L515.499 257.499C514.399 257.799 512.899 258.299 511.199 258.899C510.399 259.199 509.499 259.499 508.699 259.699C508.199 259.899 507.699 260.099 507.099 260.299C506.599 260.499 506.099 260.699 505.599 260.899C505.199 261.099 504.799 261.199 504.499 261.299C503.999 261.499 503.299 261.799 503.099 261.899L502.399 262.199C493.099 266.299 484.599 271.299 477.199 277.199L476.999 277.299C461.599 289.199 449.399 305.199 441.499 323.499C437.199 333.699 427.499 339.699 417.399 339.699Z" fill="#FF7F41"/>
<path d="M405 610.4C404.9 610.4 404.9 610.4 404.8 610.4C394.4 610.3 386.1 601.8 386.2 591.5L387.3 489.5C387.4 483.7 387.4 477.9 387.4 472.3C387.4 469.6 387.4 466.9 387.4 464.2V387.8C387.4 377.4 395.8 369 406.2 369C416.6 369 425 377.4 425 387.8V464.3C425 467 425 469.7 425 472.3C425 478.1 425 484.1 424.9 490.1L423.8 592C423.6 602.1 415.3 610.4 405 610.4Z" fill="#59CBE8"/>
<path d="M428.898 713.298C428.798 713.298 428.698 713.298 428.598 713.298C414.098 713.098 402.498 701.298 402.598 686.798L404.098 545.898C404.298 531.498 415.998 519.898 430.298 519.898C430.398 519.898 430.498 519.898 430.598 519.898C445.098 520.098 456.698 531.898 456.598 546.398L455.098 687.298C454.998 701.798 443.298 713.298 428.898 713.298Z" fill="#9063CD"/>
<path d="M540.5 877.701C419.3 877.701 321 779.501 321 658.301V525.501C321 496.401 344.6 472.801 373.7 472.801H707.2C736.3 472.801 759.9 496.401 759.9 525.501V658.301C760 779.501 661.7 877.701 540.5 877.701Z" fill="#9063CD"/>
<path d="M490.701 703.898V778.298H416.301L490.701 703.898Z" fill="white"/>
<path d="M590.199 628.499V550.699H667.999L590.199 628.499Z" fill="white"/>
<path d="M458.701 762.8C454.501 762.8 450.301 761.2 447.001 758C422.001 733 408.301 699.9 408.301 664.6C408.301 629.3 422.001 596.1 447.001 571.2C471.901 546.3 505.101 532.5 540.401 532.5H540.501C549.601 532.5 557.001 539.9 557.001 549C557.001 558.1 549.601 565.5 540.501 565.5C540.501 565.5 540.501 565.5 540.401 565.5C513.901 565.5 489.101 575.8 470.401 594.5C451.701 613.2 441.401 638.1 441.401 664.6C441.401 691.1 451.701 716 470.401 734.7C476.801 741.1 476.801 751.6 470.401 758C467.201 761.2 462.901 762.8 458.701 762.8Z" fill="white"/>
<path d="M540.5 796.698C531.3 796.698 524 789.298 524 780.198C524 771.098 531.4 763.698 540.5 763.698C567 763.698 591.8 753.398 610.6 734.698C649.3 695.998 649.3 633.098 610.6 594.498C604.2 588.098 604.2 577.598 610.6 571.198C617 564.798 627.5 564.798 633.9 571.198C685.4 622.698 685.4 706.598 633.9 758.098C609 782.898 575.8 796.698 540.5 796.698Z" fill="white"/>
</svg>
