<svg width="1080" height="1080" viewBox="0 0 1080 1080" fill="none" xmlns="http://www.w3.org/2000/svg">
<path d="M559.595 924.101C670.825 924.101 760.995 833.931 760.995 722.701C760.995 611.471 670.825 521.301 559.595 521.301C448.365 521.301 358.195 611.471 358.195 722.701C358.195 833.931 448.365 924.101 559.595 924.101Z" fill="#E4AC7B"/>
<path d="M652.994 772.4L420.394 772.5C395.494 772.5 375.294 752.3 375.294 727.4L375.094 201.2C375.094 176.3 395.294 156.1 420.194 156.1L652.794 156C677.694 156 697.894 176.2 697.894 201.1L698.094 727.2C698.094 752.2 677.894 772.4 652.994 772.4Z" fill="#59CBE8"/>
<path d="M536.695 756.898C548.017 756.898 557.195 747.72 557.195 736.398C557.195 725.077 548.017 715.898 536.695 715.898C525.373 715.898 516.195 725.077 516.195 736.398C516.195 747.72 525.373 756.898 536.695 756.898Z" fill="white"/>
<path d="M673.693 224.5L673.893 696.6L673.693 696.7L399.493 696.8L399.393 642.3L399.293 224.6L673.693 224.5Z" fill="white"/>
<path d="M673.695 642.199H399.395V696.699H673.695V642.199Z" fill="#FDDA24"/>
<path d="M398.996 697.299V641.799H399.496L674.296 641.699V697.199H673.796L398.996 697.299ZM399.896 642.799V696.299L673.196 696.199V642.699L399.896 642.799Z" fill="#FDDA24"/>
<path d="M755.194 718.498C748.394 750.198 734.794 780.398 715.194 806.798C710.794 812.698 707.194 819.698 704.194 827.298C700.694 836.098 697.994 845.698 695.994 854.998C684.994 852.898 674.494 849.198 664.894 844.098L608.494 772.598C606.294 763.798 605.094 754.598 605.094 745.098C605.094 707.398 623.694 674.098 652.194 653.798C661.294 647.298 663.094 645.298 673.894 641.798V593.998L631.394 506.598C614.694 480.598 622.294 446.098 648.194 429.398C649.294 428.698 650.494 428.398 651.694 428.398C653.794 428.398 655.894 429.398 657.094 431.398L702.994 502.898L742.694 564.198C752.094 578.698 757.394 595.398 758.194 612.698L759.194 634.798L759.494 641.298V641.498L760.294 659.398C760.994 679.398 759.294 699.298 755.194 718.498Z" fill="#E4AC7B"/>
<path d="M361.196 691.101L328.396 649.901C315.296 633.501 317.996 609.601 334.496 596.501L364.196 572.801L420.696 643.701C433.796 660.101 431.096 684.001 414.596 697.101C398.096 710.301 374.196 707.601 361.196 691.101Z" fill="#E4AC7B"/>
<path d="M361.094 614.3L328.294 573.1C315.194 556.7 317.894 532.8 334.394 519.7L364.094 496L420.594 566.9C433.694 583.3 430.994 607.2 414.494 620.3C398.094 633.4 374.194 630.7 361.094 614.3Z" fill="#E4AC7B"/>
<path d="M361.094 537.499L328.294 496.299C315.194 479.899 317.894 455.999 334.394 442.899L364.094 419.199L420.594 490.099C433.694 506.499 430.994 530.399 414.494 543.499C398.094 556.599 374.194 553.899 361.094 537.499Z" fill="#E4AC7B"/>
<path d="M363.996 342.402L375.096 334.102V374.902L363.996 342.402Z" fill="#E4AC7B"/>
<path d="M456.195 379.802C453.695 379.802 451.695 377.802 451.695 375.302V366.402C451.695 354.102 461.695 344.102 473.995 344.102H482.895C485.395 344.102 487.395 346.102 487.395 348.602C487.395 351.102 485.395 353.102 482.895 353.102H473.995C466.595 353.102 460.595 359.102 460.595 366.502V375.402C460.695 377.802 458.695 379.802 456.195 379.802Z" fill="#FDDA24"/>
<path d="M616.995 379.8C614.495 379.8 612.495 377.8 612.495 375.3V366.4C612.495 359 606.495 353 599.095 353H590.195C587.695 353 585.695 351 585.695 348.5C585.695 346 587.695 344 590.195 344H599.095C611.395 344 621.395 354 621.395 366.3V375.2C621.395 377.8 619.395 379.8 616.995 379.8Z" fill="#FDDA24"/>
<path d="M599.095 513.698H590.195C587.695 513.698 585.695 511.698 585.695 509.198C585.695 506.698 587.695 504.698 590.195 504.698H599.095C606.495 504.698 612.495 498.698 612.495 491.298V482.398C612.495 479.898 614.495 477.898 616.995 477.898C619.495 477.898 621.495 479.898 621.495 482.398V491.298C621.395 503.698 611.395 513.698 599.095 513.698Z" fill="#FDDA24"/>
<path d="M482.997 513.7H474.097C461.797 513.7 451.797 503.7 451.797 491.4V482.5C451.797 480 453.797 478 456.297 478C458.797 478 460.797 480 460.797 482.5V491.4C460.797 498.8 466.797 504.8 474.197 504.8H483.097C485.597 504.8 487.597 506.8 487.597 509.3C487.597 511.8 485.497 513.7 482.997 513.7Z" fill="#FDDA24"/>
<path d="M527.596 424.399H482.996C480.496 424.399 478.496 422.399 478.496 419.899V375.199C478.496 372.699 480.496 370.699 482.996 370.699H527.696C530.196 370.699 532.196 372.699 532.196 375.199V419.999C532.096 422.399 530.096 424.399 527.596 424.399ZM487.496 415.499H523.196V379.799H487.496V415.499Z" fill="#59CBE8"/>
<path d="M590.196 424.399H545.496C542.996 424.399 540.996 422.399 540.996 419.899V375.199C540.996 372.699 542.996 370.699 545.496 370.699H590.196C592.696 370.699 594.696 372.699 594.696 375.199V419.999C594.596 422.399 592.596 424.399 590.196 424.399ZM549.996 415.499H585.696V379.799H549.996V415.499Z" fill="#F5B6CD"/>
<path d="M572.295 406.599H563.395C560.895 406.599 558.895 404.599 558.895 402.099V393.199C558.895 390.699 560.895 388.699 563.395 388.699H572.295C574.795 388.699 576.795 390.699 576.795 393.199V402.099C576.795 404.599 574.795 406.599 572.295 406.599Z" fill="#00C389"/>
<path d="M509.795 406.599H500.895C498.395 406.599 496.395 404.599 496.395 402.099V393.199C496.395 390.699 498.395 388.699 500.895 388.699H509.795C512.295 388.699 514.295 390.699 514.295 393.199V402.099C514.295 404.599 512.295 406.599 509.795 406.599Z" fill="#00C389"/>
<path d="M572.295 469.099H563.395C560.895 469.099 558.895 467.099 558.895 464.599V455.699C558.895 453.199 560.895 451.199 563.395 451.199H572.295C574.795 451.199 576.795 453.199 576.795 455.699V464.599C576.795 467.099 574.795 469.099 572.295 469.099Z" fill="#00C389"/>
<path d="M509.795 469.099H500.895C498.395 469.099 496.395 467.099 496.395 464.599V455.699C496.395 453.199 498.395 451.199 500.895 451.199H509.795C512.295 451.199 514.295 453.199 514.295 455.699V464.599C514.295 467.099 512.295 469.099 509.795 469.099Z" fill="#00C389"/>
<path d="M527.596 486.899H482.996C480.496 486.899 478.496 484.899 478.496 482.399V437.699C478.496 435.199 480.496 433.199 482.996 433.199H527.696C530.196 433.199 532.196 435.199 532.196 437.699V482.399C532.096 484.899 530.096 486.899 527.596 486.899ZM487.496 477.999H523.196V442.299H487.496V477.999Z" fill="#9063CD"/>
<path d="M590.196 486.899H545.496C542.996 486.899 540.996 484.899 540.996 482.399V437.699C540.996 435.199 542.996 433.199 545.496 433.199H590.196C592.696 433.199 594.696 435.199 594.696 437.699V482.399C594.596 484.899 592.596 486.899 590.196 486.899ZM549.996 477.999H585.696V442.299H549.996V477.999Z" fill="#FF7F41"/>
<path d="M361.094 460.598L328.294 419.398C315.194 402.998 317.894 379.098 334.394 365.998L363.994 342.398L420.494 413.298C433.594 429.698 430.894 453.598 414.394 466.698C397.994 479.698 374.194 476.998 361.094 460.598Z" fill="#E4AC7B"/>
</svg>
