<svg width="1080" height="1080" viewBox="0 0 1080 1080" fill="none" xmlns="http://www.w3.org/2000/svg">
<path d="M290.108 532.598C287.308 532.598 284.508 532.098 281.708 530.998C245.908 517.298 212.908 495.398 186.308 467.498C159.608 439.598 139.208 405.498 127.208 368.998C123.208 356.698 129.908 343.398 142.208 339.298C154.508 335.298 167.808 341.998 171.908 354.298C181.708 384.198 198.408 412.098 220.308 434.998C242.108 457.798 269.108 475.798 298.508 486.998C310.608 491.598 316.708 505.198 312.108 517.298C308.408 526.798 299.508 532.598 290.108 532.598Z" fill="#F5B6CD"/>
<path d="M267.311 544.1C265.011 544.1 262.711 543.7 260.411 542.8C212.511 524.5 171.511 492.6 141.911 450.4C111.711 407.3 95.7109 356.5 95.7109 303.6C95.7109 265.3 104.011 228.4 120.311 194C124.911 184.3 136.511 180.2 146.211 184.8C155.911 189.4 160.011 201 155.411 210.7C141.611 239.8 134.611 271.1 134.611 303.6C134.611 348.5 148.211 391.5 173.811 428.1C198.911 463.9 233.711 491 274.311 506.5C284.311 510.3 289.311 521.6 285.511 531.6C282.511 539.4 275.111 544.1 267.311 544.1Z" fill="#FDDA24"/>
<path d="M915.508 666.102L865.508 653.202C859.008 651.502 853.808 646.502 852.008 640.002C847.208 623.102 840.408 607.102 832.108 592.002C828.808 586.102 828.908 578.902 832.308 573.102L858.608 528.602C863.008 521.102 861.808 511.702 855.708 505.502L827.808 477.602C821.708 471.502 812.208 470.302 804.708 474.702L760.208 501.002C754.408 504.402 747.208 504.502 741.308 501.202C726.308 492.902 710.208 486.202 693.308 481.302C686.808 479.402 681.808 474.302 680.108 467.802L667.208 417.802C665.008 409.402 657.508 403.602 648.808 403.602H609.408C600.708 403.602 593.208 409.502 591.008 417.802L578.108 467.802C576.408 474.302 571.408 479.502 564.908 481.302C548.008 486.102 532.008 492.902 516.908 501.202C511.008 504.502 503.808 504.402 498.008 501.002L453.508 474.702C446.008 470.302 436.608 471.502 430.408 477.602L402.508 505.502C396.408 511.602 395.208 521.102 399.608 528.602L425.908 573.102C429.308 578.902 429.408 586.102 426.108 592.002C417.808 607.102 411.108 623.102 406.208 640.002C404.308 646.502 399.208 651.502 392.708 653.202L342.708 666.102C334.308 668.302 328.508 675.802 328.508 684.502V723.902C328.508 732.602 334.408 740.102 342.708 742.302L392.708 755.202C399.208 756.902 404.408 761.902 406.208 768.402C411.008 785.302 417.708 801.302 426.108 816.402C429.408 822.302 429.308 829.502 425.908 835.302L399.608 879.802C395.208 887.302 396.408 896.702 402.508 902.902L430.408 930.802C436.508 936.902 446.008 938.102 453.508 933.702L498.008 907.402C503.808 904.002 511.008 903.902 516.908 907.202C532.008 915.502 548.008 922.202 564.908 927.102C571.408 929.002 576.408 934.102 578.108 940.602L591.008 990.602C593.208 999.002 600.708 1004.8 609.408 1004.8H648.808C657.508 1004.8 665.008 998.902 667.208 990.602L680.108 940.602C681.808 934.102 686.808 928.902 693.308 927.102C710.208 922.302 726.208 915.502 741.308 907.202C747.208 903.902 754.408 904.002 760.208 907.402L804.708 933.702C812.208 938.102 821.608 936.902 827.808 930.802L855.708 902.902C861.808 896.802 863.008 887.302 858.608 879.802L832.308 835.302C828.908 829.502 828.808 822.302 832.108 816.402C840.408 801.302 847.108 785.302 852.008 768.402C853.908 761.902 859.008 756.902 865.508 755.202L915.508 742.302C923.908 740.102 929.708 732.602 929.708 723.902V684.502C929.708 675.802 923.808 668.202 915.508 666.102ZM629.108 858.302C544.008 858.302 475.008 789.302 475.008 704.202C475.008 619.102 544.008 550.102 629.108 550.102C714.208 550.102 783.208 619.102 783.208 704.202C783.208 789.302 714.208 858.302 629.108 858.302Z" fill="#59CBE8"/>
<path d="M899.208 913.001C893.708 913.001 888.308 910.901 884.108 906.801C875.708 898.401 875.608 884.801 884.008 876.401C918.908 841.101 940.008 792.401 946.608 731.701C951.708 685.001 945.908 648.601 945.808 648.201C943.908 636.501 951.808 625.401 963.508 623.501C975.208 621.601 986.308 629.501 988.208 641.201C988.508 642.901 995.008 682.901 989.508 735.101C982.108 805.401 956.208 864.701 914.508 906.701C910.208 910.901 904.708 913.001 899.208 913.001Z" fill="#00C389"/>
<path d="M519.408 347.5C515.708 360.7 510.408 373.2 503.808 384.9C501.708 388.7 501.908 393.3 504.408 396.9L529.008 432.2C532.208 436.7 531.608 442.9 527.708 446.7L500.108 474.2C496.208 478.1 490.108 478.6 485.608 475.5L450.408 450.8C446.908 448.3 442.208 448 438.408 450.1C426.708 456.7 414.208 461.9 401.008 465.5C396.808 466.7 393.708 470.2 393.008 474.4L385.408 516.7C384.408 522.1 379.708 526.1 374.208 526.1L335.208 526C329.708 526 325.008 522 324.008 516.6L316.608 474.3C315.908 470 312.808 466.5 308.608 465.4C295.408 461.7 282.908 456.4 271.208 449.8C267.408 447.7 262.808 447.9 259.208 450.4L223.908 475C219.408 478.2 213.208 477.6 209.408 473.7L181.908 446.1C178.008 442.2 177.508 436.1 180.608 431.6L205.308 396.4C207.808 392.9 208.108 388.2 206.008 384.4C199.408 372.7 194.208 360.2 190.608 347C189.408 342.8 185.908 339.7 181.708 339L139.408 331.4C134.008 330.4 130.008 325.7 130.008 320.2L130.108 281.2C130.108 275.7 134.108 271 139.508 270L181.808 262.6C186.108 261.9 189.608 258.8 190.708 254.6C194.408 241.4 199.708 228.9 206.308 217.2C208.408 213.4 208.208 208.8 205.708 205.2L181.008 169.9C177.808 165.4 178.408 159.2 182.308 155.4L209.908 127.9C213.808 124 219.908 123.5 224.408 126.6L259.608 151.3C263.108 153.8 267.808 154.1 271.608 152C283.308 145.4 295.908 140.2 309.008 136.6C313.208 135.4 316.308 131.9 317.008 127.7L324.608 85.4C325.608 80 330.308 76 335.808 76L374.808 76.1C380.308 76.1 385.008 80.1 386.008 85.5L393.408 127.8C394.108 132.1 397.208 135.6 401.408 136.7C414.608 140.4 427.108 145.7 438.808 152.3C442.608 154.4 447.208 154.2 450.808 151.7L486.108 127.1C490.608 124 496.708 124.5 500.608 128.4L528.108 156C532.008 159.9 532.508 166 529.408 170.5L504.708 205.7C502.208 209.2 501.908 213.9 504.008 217.7C510.608 229.4 515.808 241.9 519.408 255.1C520.608 259.3 524.108 262.4 528.308 263.1L570.608 270.7C576.008 271.7 580.008 276.4 580.008 281.9L579.908 320.9C579.908 326.4 575.908 331.1 570.508 332.1L528.208 339.5C524.108 340.3 520.608 343.4 519.408 347.5Z" fill="#FF7F41"/>
<path d="M845.41 512.6C839.01 512.6 832.51 510.1 827.71 505.1C790.61 466.4 743.71 438.7 692.21 425C679.11 421.5 671.309 408.1 674.809 395C678.309 381.9 691.709 374.2 704.809 377.6C765.009 393.6 819.71 426 863.01 471.1C872.41 480.9 872.109 496.4 862.309 505.7C857.609 510.3 851.51 512.6 845.41 512.6Z" fill="#F5B6CD"/>
<path d="M903.308 867.999C901.208 867.999 899.108 867.399 897.108 866.199C891.608 862.799 889.908 855.599 893.308 850.099C923.208 801.899 939.008 746.399 939.008 689.399C939.008 622.799 917.908 559.499 878.008 506.299C858.808 480.699 835.808 458.399 809.708 439.999C783.208 421.299 754.208 407.099 723.308 397.599C717.108 395.699 713.708 389.199 715.508 382.999C717.408 376.799 723.908 373.399 730.108 375.199C763.308 385.399 794.608 400.699 823.108 420.799C851.208 440.599 875.908 464.699 896.608 492.199C939.608 549.399 962.308 617.599 962.308 689.299C962.308 750.599 945.308 810.499 913.108 862.299C911.108 865.999 907.208 867.999 903.308 867.999Z" fill="#9063CD"/>
<path d="M105.009 249.701C103.509 249.701 102.109 249.501 100.609 249.101C92.1093 246.701 87.2093 237.801 89.6093 229.301C90.4093 226.401 110.509 157.001 149.309 112.601C155.109 105.901 165.209 105.201 171.909 111.101C178.609 116.901 179.309 127.001 173.409 133.701C139.309 172.701 120.609 237.401 120.409 238.101C118.409 245.101 112.009 249.701 105.009 249.701Z" fill="#59CBE8"/>
<path d="M355.01 390.598C404.495 390.598 444.61 350.483 444.61 300.998C444.61 251.514 404.495 211.398 355.01 211.398C305.525 211.398 265.41 251.514 265.41 300.998C265.41 350.483 305.525 390.598 355.01 390.598Z" fill="#FDDA24"/>
<path d="M355.01 391.198C305.31 391.198 264.91 350.798 264.91 301.098C264.91 251.398 305.31 210.898 355.01 210.898C404.71 210.898 445.11 251.298 445.11 300.998C445.11 350.698 404.71 391.198 355.01 391.198ZM355.01 211.898C305.91 211.898 265.91 251.898 265.91 300.998C265.91 350.098 305.91 390.098 355.01 390.098C404.11 390.098 444.11 350.098 444.11 300.998C444.11 251.898 404.11 211.898 355.01 211.898Z" fill="#FDDA24"/>
<path d="M666.409 775.301C640.709 775.301 619.809 754.401 619.809 728.701V708.001C619.809 705.101 622.109 702.801 625.009 702.801C627.909 702.801 630.209 705.101 630.209 708.001V728.701C630.209 748.701 646.509 765.001 666.509 765.001C669.409 765.001 671.709 767.301 671.709 770.201C671.709 773.101 669.309 775.301 666.409 775.301Z" fill="#FDDA24"/>
<path d="M683.611 654.603C682.311 654.603 680.911 654.103 679.911 653.103C649.611 622.803 600.311 622.803 570.011 653.103C568.011 655.103 564.711 655.103 562.711 653.103C560.711 651.103 560.711 647.803 562.711 645.803C597.011 611.503 652.911 611.503 687.211 645.803C689.211 647.803 689.211 651.103 687.211 653.103C686.211 654.103 684.911 654.603 683.611 654.603Z" fill="#FDDA24"/>
<path d="M583.61 744.201C580.71 744.201 578.41 741.901 578.41 739.001V707.901C578.41 682.201 599.31 661.301 625.01 661.301C650.71 661.301 671.61 682.201 671.61 707.901V728.601C671.61 731.501 669.31 733.801 666.41 733.801C663.51 733.801 661.21 731.501 661.21 728.601V707.901C661.21 687.901 644.91 671.601 624.91 671.601C604.91 671.601 588.61 687.901 588.61 707.901V739.001C588.81 741.901 586.41 744.201 583.61 744.201Z" fill="#00C389"/>
<path d="M562.911 775.303C560.011 775.303 557.711 773.003 557.711 770.103V708.003C557.711 679.503 575.711 654.003 602.611 644.503C605.311 643.503 608.311 645.003 609.211 647.703C610.211 650.403 608.711 653.403 606.011 654.303C583.311 662.303 568.011 683.903 568.011 708.003V770.103C568.011 773.003 565.711 775.303 562.911 775.303Z" fill="#59CBE8"/>
<path d="M687.111 713.202C684.211 713.202 681.911 710.902 681.911 708.002C681.911 676.602 656.311 651.002 624.911 651.002C622.011 651.002 619.711 648.702 619.711 645.802C619.711 642.902 622.011 640.602 624.911 640.602C662.011 640.602 692.211 670.802 692.211 707.902C692.311 710.802 690.011 713.202 687.111 713.202Z" fill="#59CBE8"/>
<path d="M666.409 754.602C652.109 754.602 640.509 743.002 640.509 728.702V708.002C640.509 699.402 633.509 692.502 625.009 692.502C616.409 692.502 609.509 699.502 609.509 708.002C609.509 710.902 607.209 713.202 604.309 713.202C601.409 713.202 599.109 710.902 599.109 708.002C599.109 693.702 610.709 682.102 625.009 682.102C639.309 682.102 650.909 693.702 650.909 708.002V728.702C650.909 737.302 657.909 744.202 666.409 744.202C675.009 744.202 681.909 737.202 681.909 728.702C681.909 725.802 684.209 723.502 687.109 723.502C690.009 723.502 692.309 725.802 692.309 728.702C692.309 743.002 680.709 754.602 666.409 754.602Z" fill="#F5B6CD"/>
<path d="M604.309 775.3C601.409 775.3 599.109 773 599.109 770.1V728.7C599.109 725.8 601.409 723.5 604.309 723.5C607.209 723.5 609.509 725.8 609.509 728.7V770.1C609.509 773 607.109 775.3 604.309 775.3Z" fill="#9063CD"/>
<path d="M531.809 640.703C528.909 640.703 526.609 638.403 526.609 635.503V619.903C526.609 608.503 535.909 599.203 547.309 599.203H562.809C565.709 599.203 568.009 601.503 568.009 604.403C568.009 607.303 565.709 609.603 562.809 609.603H547.309C541.609 609.603 536.909 614.203 536.909 620.003V635.503C537.009 638.303 534.609 640.703 531.809 640.703Z" fill="#9063CD"/>
<path d="M718.21 640.702C715.31 640.702 713.01 638.402 713.01 635.502V619.902C713.01 614.202 708.41 609.502 702.61 609.502H687.11C684.21 609.502 681.91 607.202 681.91 604.302C681.91 601.402 684.21 599.102 687.11 599.102H702.61C714.01 599.102 723.31 608.402 723.31 619.802V635.302C723.41 638.302 721.11 640.702 718.21 640.702Z" fill="#FF7F41"/>
<path d="M702.708 806.402H687.208C684.308 806.402 682.008 804.102 682.008 801.202C682.008 798.302 684.308 796.002 687.208 796.002H702.708C708.408 796.002 713.108 791.402 713.108 785.602V770.102C713.108 767.202 715.408 764.902 718.308 764.902C721.208 764.902 723.508 767.202 723.508 770.102V785.602C723.408 797.102 714.108 806.402 702.708 806.402Z" fill="#9063CD"/>
<path d="M562.911 806.4H547.411C536.011 806.4 526.711 797.1 526.711 785.7V770.2C526.711 767.3 529.011 765 531.911 765C534.811 765 537.111 767.3 537.111 770.2V785.7C537.111 791.4 541.711 796.1 547.511 796.1H563.011C565.911 796.1 568.211 798.4 568.211 801.3C568.211 804.2 565.711 806.4 562.911 806.4Z" fill="#FF7F41"/>
<path d="M583.61 775.3C580.71 775.3 578.41 773 578.41 770.1V759.7C578.41 756.8 580.71 754.5 583.61 754.5C586.51 754.5 588.81 756.8 588.81 759.7V770.1C588.81 773 586.41 775.3 583.61 775.3Z" fill="#9063CD"/>
</svg>
