<svg width="1080" height="1080" viewBox="0 0 1080 1080" fill="none" xmlns="http://www.w3.org/2000/svg">
<path d="M890.332 288.702H844.932C841.832 288.702 839.332 286.202 839.332 283.102C839.332 280.002 841.832 277.502 844.932 277.502H884.732V237.702C884.732 234.602 887.232 232.102 890.332 232.102C893.432 232.102 895.932 234.602 895.932 237.702V283.102C895.832 286.202 893.332 288.702 890.332 288.702Z" fill="#00C389"/>
<path d="M725.932 169.602C722.832 169.602 720.332 167.102 720.332 164.002V118.702C720.332 115.602 722.832 113.102 725.932 113.102H771.232C774.332 113.102 776.832 115.602 776.832 118.702C776.832 121.802 774.332 124.302 771.232 124.302H731.432V164.102C731.432 167.102 728.932 169.602 725.932 169.602Z" fill="#FDDA24"/>
<path d="M771.232 288.702H725.932C722.832 288.702 720.332 286.202 720.332 283.102V237.702C720.332 234.602 722.832 232.102 725.932 232.102C729.032 232.102 731.532 234.602 731.532 237.702V277.502H771.332C774.432 277.502 776.932 280.002 776.932 283.102C776.932 286.202 774.332 288.702 771.232 288.702Z" fill="#59CBE8"/>
<path d="M890.332 169.602C887.232 169.602 884.732 167.102 884.732 164.002V124.302H844.932C841.832 124.302 839.332 121.802 839.332 118.702C839.332 115.602 841.832 113.102 844.932 113.102H890.332C893.432 113.102 895.932 115.602 895.932 118.702V164.102C895.832 167.102 893.332 169.602 890.332 169.602Z" fill="#F5B6CD"/>
<path d="M842.831 191C839.731 191 837.23 188.5 837.23 185.4V164.1C837.23 161 839.731 158.5 842.831 158.5C845.931 158.5 848.43 161 848.43 164.1V185.5C848.33 188.5 845.831 191 842.831 191Z" fill="#59CBE8"/>
<path d="M771.233 191C768.133 191 765.633 188.5 765.633 185.4V164.1C765.633 161 768.133 158.5 771.233 158.5C774.333 158.5 776.833 161 776.833 164.1V185.5C776.833 188.5 774.333 191 771.233 191Z" fill="#00C389"/>
<path d="M807.23 256.1C806.43 256.1 805.73 256.1 804.93 256C790.83 255.3 780.93 248.4 776.33 244.4C774.03 242.4 773.83 238.9 775.83 236.6C777.83 234.3 781.33 234.1 783.63 236.1C787.13 239.2 794.73 244.5 805.43 245C818.43 245.7 827.53 239 830.83 236.1C833.13 234.1 836.63 234.3 838.63 236.6C840.63 238.9 840.43 242.4 838.13 244.4C834.13 248 823.03 256.1 807.23 256.1Z" fill="#FF7F41"/>
<path d="M812.634 223.803H801.034C799.434 223.803 797.834 223.103 796.834 221.903C795.734 220.703 795.334 219.003 795.534 217.403L801.834 177.303C802.334 174.303 805.134 172.203 808.234 172.703C811.234 173.203 813.334 176.003 812.834 179.103L807.534 212.803H812.634C815.734 212.803 818.234 215.303 818.234 218.403C818.234 221.503 815.734 223.803 812.634 223.803Z" fill="#9063CD"/>
<path d="M550.934 880.5C550.934 807 610.434 747.5 683.934 747.5C757.434 747.5 816.934 807 816.934 880.5" fill="#9063CD"/>
<path d="M169.535 880.499C169.535 758.899 268.135 660.199 389.835 660.199C511.535 660.199 610.135 758.799 610.135 880.499" fill="#9063CD"/>
<path d="M366.135 945.2C364.635 945.2 363.135 945 361.535 944.7C350.435 942.2 343.535 931.2 346.035 920.1L407.735 649C410.235 637.9 421.235 631 432.335 633.5C443.435 636 450.335 647 447.835 658.1L386.135 929.2C383.935 938.7 375.435 945.2 366.135 945.2Z" fill="#F5B6CD"/>
<path d="M601.833 607.1C542.233 607.1 482.933 588.7 433.833 554.9C382.333 519.5 342.633 467.4 322.033 408.3C318.333 397.6 323.933 385.9 334.733 382.1C345.433 378.4 357.133 384 360.933 394.8C378.633 445.7 412.833 490.5 457.233 521C501.633 551.5 555.633 567.4 609.533 565.8C620.833 565.5 630.333 574.4 630.733 585.7C631.033 597 622.133 606.5 610.833 606.9C607.733 607 604.733 607.1 601.833 607.1Z" fill="#00C389"/>
<path d="M445.744 288.881C467.36 266.299 464.927 228.891 440.311 205.327C415.694 181.764 378.216 180.968 356.6 203.55C334.984 226.131 337.417 263.54 362.033 287.103C386.649 310.667 424.128 311.462 445.744 288.881Z" fill="#E4AC7B"/>
<path d="M374.332 1002C372.832 1002 371.332 1001.8 369.832 1001.5C358.732 998.998 351.832 987.998 354.332 976.898L411.932 720.898C414.432 709.798 425.432 702.898 436.532 705.398C447.632 707.898 454.532 718.898 452.032 729.998L394.332 985.998C392.232 995.498 383.732 1002 374.332 1002Z" fill="#00C389"/>
<path d="M173.534 998.2C167.934 998.2 162.234 995.9 158.234 991.3C150.634 982.8 151.434 969.8 159.834 962.3C219.434 909 254.534 850.4 273.534 810.7C294.234 767.4 300.834 736.4 300.834 736.1C303.134 725 314.034 717.8 325.134 720.1C336.234 722.4 343.434 733.2 341.134 744.3C340.834 745.7 333.834 779.5 311.234 827C290.634 870.6 252.334 934.7 187.234 993C183.234 996.5 178.334 998.2 173.534 998.2Z" fill="#59CBE8"/>
<path d="M570.632 577.301C570.032 577.301 569.432 577.301 568.832 577.201C496.432 567.601 467.132 542.701 457.532 534.501C457.232 534.201 456.832 533.901 456.432 533.601C451.532 530.901 448.632 525.201 449.732 519.301C451.132 512.001 458.132 507.101 465.432 508.501C469.532 509.301 472.032 511.401 474.932 513.901C483.032 520.801 507.832 541.801 572.332 550.401C579.732 551.401 584.932 558.201 583.932 565.601C583.032 572.301 577.232 577.301 570.632 577.301Z" fill="#FDDA24"/>
<path d="M449.934 770.4L501.534 540L495.734 540.1C370.234 541.4 270.534 631.9 244.234 768.6L449.934 770.4Z" fill="#2C2A29"/>
<path d="M663.636 395.9L645.236 397C640.836 397.3 637.136 393.9 636.836 389.5L634.136 343.8C633.836 339.4 637.236 335.7 641.636 335.4L660.036 334.3C664.436 334 668.136 337.4 668.436 341.8L671.136 387.5C671.336 391.9 668.036 395.7 663.636 395.9Z" fill="#F5B6CD"/>
<path d="M496.233 564.2L386.733 566.2L301.133 357.1C301.133 357.1 617.433 199.7 496.233 564.2Z" fill="#FF7F41"/>
<path d="M497.532 467.601C446.032 467.601 396.232 455.201 352.632 431.501C342.632 426.101 338.932 413.601 344.432 403.601C349.932 393.601 362.332 389.901 372.332 395.401C455.632 440.701 564.832 436.001 643.932 383.701C653.432 377.401 666.132 380.001 672.432 389.501C678.732 399.001 676.132 411.701 666.632 418.001C621.532 447.801 567.932 464.901 511.532 467.301C506.832 467.501 502.132 467.601 497.532 467.601Z" fill="#9063CD"/>
<path d="M498.834 444.199C449.034 444.199 412.834 431.299 410.534 430.499C403.534 427.899 399.934 420.199 402.434 413.199C405.034 406.199 412.734 402.599 419.734 405.099C420.834 405.499 498.034 432.599 577.934 403.899C584.934 401.399 592.634 404.999 595.234 411.999C597.734 418.999 594.134 426.699 587.134 429.299C555.934 440.499 525.434 444.199 498.834 444.199Z" fill="#FDDA24"/>
<path d="M652.632 364.5C651.232 364.5 649.932 364 648.932 363C647.132 361.3 646.632 358.6 647.732 356.4L685.632 282V115C685.632 94.6 702.232 78 722.632 78H891.032C911.432 78 928.032 94.6 928.032 115V283.4C928.032 303.8 911.432 320.4 891.032 320.4H724.232L655.632 363.7C654.732 364.2 653.632 364.5 652.632 364.5ZM722.632 89.1C708.332 89.1 696.732 100.7 696.732 115V283.4C696.732 284.3 696.532 285.1 696.132 285.9L666.732 343.5L719.632 310.1C720.532 309.5 721.532 309.2 722.632 309.2H891.032C905.332 309.2 916.932 297.6 916.932 283.3V115C916.932 100.7 905.332 89.1 891.032 89.1H722.632Z" fill="#FDDA24"/>
</svg>
