<svg width="326" height="317" viewBox="0 0 326 317" fill="none" xmlns="http://www.w3.org/2000/svg">
<path d="M73.4604 211.964C73.1746 211.964 72.857 211.932 72.5394 211.837C67.1403 210.376 61.5507 206.12 61.2966 205.961C59.7722 204.786 59.4863 202.595 60.6614 201.071C61.8365 199.546 64.0279 199.26 65.5524 200.435C65.6476 200.499 70.3163 204.056 74.3497 205.136C76.2235 205.644 77.3033 207.549 76.8269 209.423C76.414 210.948 75.0166 211.964 73.4604 211.964Z" fill="#59CBE8"/>
<path d="M75.0815 223.844C74.4146 223.844 73.7476 223.748 73.0807 223.558C72.7949 223.462 66.3795 221.525 59.7101 217.619C49.8647 211.87 44.1163 204.566 43.1317 196.499C42.6553 192.656 45.3866 189.194 49.1977 188.718C53.0406 188.241 56.5024 190.973 56.9788 194.784C57.868 202.057 70.9211 208.281 77.0824 210.155C80.7664 211.267 82.8626 215.173 81.751 218.857C80.8617 221.906 78.0987 223.844 75.0815 223.844Z" fill="#9063CD"/>
<path d="M166.771 279.742L77.4319 271.389C68.5711 270.563 62.0604 262.719 62.8862 253.858L82.4499 44.4689C83.2756 35.6081 91.1201 29.0974 99.981 29.9232L189.32 38.2758C198.181 39.1016 204.691 46.9461 203.866 55.807L184.302 265.196C183.476 274.057 175.632 280.567 166.771 279.742Z" fill="#59CBE8"/>
<path d="M123.547 267.545C127.739 267.545 131.137 264.147 131.137 259.955C131.137 255.763 127.739 252.365 123.547 252.365C119.354 252.365 115.956 255.763 115.956 259.955C115.956 264.147 119.354 267.545 123.547 267.545Z" fill="white"/>
<path d="M194.689 63.1633L90.113 53.3922L72.7011 239.745L177.277 249.516L194.689 63.1633Z" fill="#DFDFDF"/>
<path d="M144.634 132.061C144.603 132.061 144.539 132.061 144.507 132.061C141.077 131.744 137.997 130.092 135.774 127.456C133.582 124.82 132.534 121.454 132.852 118.024L133.392 112.339C133.455 111.545 134.154 110.973 134.948 111.037C135.742 111.1 136.314 111.799 136.25 112.593L135.71 118.278C135.456 120.946 136.25 123.55 137.965 125.614C139.68 127.679 142.094 128.949 144.761 129.203C145.555 129.267 146.127 129.965 146.064 130.759C145.968 131.522 145.365 132.061 144.634 132.061Z" fill="white"/>
<path d="M152.448 99.2857C152.035 99.2857 151.622 99.0951 151.336 98.7775C147.684 94.363 142.507 91.6317 136.791 91.0918C131.074 90.5519 125.516 92.2669 121.101 95.9509C120.498 96.4591 119.577 96.3638 119.101 95.7604C118.592 95.1569 118.688 94.2359 119.291 93.7595C124.309 89.5991 130.629 87.6618 137.076 88.2652C143.555 88.8686 149.399 91.9493 153.559 96.9672C154.068 97.5707 153.972 98.4917 153.369 98.9681C153.115 99.1904 152.765 99.2857 152.448 99.2857Z" fill="white"/>
<path d="M122.625 121.391C122.593 121.391 122.53 121.391 122.498 121.391C121.704 121.327 121.132 120.629 121.196 119.835L121.99 111.291C122.657 104.209 128.945 99.0005 136.027 99.6675C139.457 99.9851 142.538 101.637 144.761 104.273C146.952 106.909 148 110.275 147.683 113.705L147.143 119.39C147.079 120.184 146.381 120.756 145.587 120.692C144.793 120.629 144.221 119.93 144.285 119.136L144.825 113.451C145.079 110.783 144.285 108.179 142.57 106.115C140.855 104.05 138.441 102.78 135.773 102.526C130.279 102.018 125.388 106.083 124.88 111.577L124.086 120.12C123.99 120.819 123.355 121.391 122.625 121.391Z" fill="white"/>
<path d="M116.116 129.393C116.084 129.393 116.021 129.393 115.989 129.393C115.195 129.329 114.623 128.631 114.687 127.837L116.275 110.75C117.005 102.906 122.627 96.3632 130.249 94.4259C131.011 94.2354 131.805 94.7118 131.996 95.474C132.186 96.2362 131.71 97.0302 130.948 97.2207C124.5 98.8405 119.737 104.398 119.101 111.036L117.513 128.122C117.482 128.853 116.846 129.393 116.116 129.393Z" fill="white"/>
<path d="M151.94 115.515C151.908 115.515 151.844 115.515 151.813 115.515C151.019 115.452 150.447 114.753 150.511 113.959C150.892 109.767 149.653 105.67 146.954 102.43C144.254 99.191 140.475 97.1902 136.282 96.8091C135.488 96.7455 134.917 96.0468 134.98 95.2529C135.044 94.4589 135.743 93.8872 136.536 93.9507C141.491 94.4271 145.969 96.7773 149.145 100.588C152.321 104.4 153.814 109.259 153.337 114.181C153.274 114.944 152.67 115.515 151.94 115.515Z" fill="white"/>
<path d="M145.714 126.41C145.492 126.41 145.269 126.41 145.047 126.378C141.109 125.997 138.219 122.503 138.6 118.597L139.14 112.912C139.362 110.562 137.615 108.466 135.265 108.243C134.122 108.148 133.01 108.466 132.121 109.228C131.232 109.958 130.692 111.006 130.597 112.15C130.533 112.944 129.834 113.515 129.04 113.452C128.246 113.388 127.675 112.69 127.738 111.896C127.929 109.99 128.818 108.275 130.311 107.036C131.772 105.83 133.646 105.258 135.551 105.417C139.489 105.798 142.379 109.291 141.998 113.198L141.458 118.883C141.236 121.233 142.983 123.329 145.333 123.551C147.683 123.774 149.779 122.027 150.002 119.677C150.065 118.883 150.764 118.311 151.558 118.375C152.352 118.438 152.923 119.137 152.86 119.931C152.479 123.615 149.335 126.378 145.714 126.41Z" fill="white"/>
<path d="M127.516 130.473C127.484 130.473 127.42 130.473 127.388 130.473C126.595 130.409 126.023 129.711 126.086 128.917L127.166 117.515C127.23 116.721 127.928 116.149 128.722 116.213C129.516 116.276 130.088 116.975 130.024 117.769L128.945 129.171C128.881 129.901 128.246 130.473 127.516 130.473Z" fill="white"/>
<path d="M111.034 91.5685C111.002 91.5685 110.939 91.5685 110.907 91.5685C110.113 91.505 109.542 90.8063 109.605 90.0123L110.018 85.7248C110.304 82.5806 113.099 80.2622 116.243 80.548L120.53 80.9609C121.324 81.0244 121.896 81.7231 121.832 82.5171C121.769 83.3111 121.07 83.8827 120.276 83.8192L115.989 83.4063C114.401 83.2475 113.003 84.4226 112.876 85.9788L112.463 90.2663C112.4 90.9968 111.765 91.5685 111.034 91.5685Z" fill="white"/>
<path d="M162.358 96.3311C162.326 96.3311 162.262 96.3311 162.231 96.3311C161.437 96.2676 160.865 95.5689 160.928 94.7749L161.341 90.4874C161.5 88.9312 160.325 87.5021 158.769 87.375L154.481 86.9622C153.687 86.8986 153.116 86.1999 153.179 85.4059C153.243 84.612 153.941 84.0403 154.735 84.1038L159.023 84.5167C162.167 84.8025 164.485 87.5973 164.2 90.7415L163.787 95.029C163.691 95.7912 163.088 96.3311 162.358 96.3311Z" fill="white"/>
<path d="M154.195 141.558C154.005 141.558 153.846 141.558 153.655 141.526L149.368 141.113C148.574 141.05 148.002 140.351 148.066 139.557C148.129 138.763 148.828 138.191 149.622 138.255L153.91 138.668C155.466 138.826 156.895 137.651 157.022 136.095L157.435 131.808C157.498 131.014 158.197 130.442 158.991 130.505C159.785 130.569 160.357 131.268 160.293 132.062L159.88 136.349C159.626 139.335 157.117 141.558 154.195 141.558Z" fill="white"/>
<path d="M115.321 137.968C115.289 137.968 115.226 137.968 115.194 137.968L110.907 137.555C107.762 137.269 105.444 134.474 105.73 131.33L106.143 127.043C106.206 126.249 106.905 125.677 107.699 125.74C108.493 125.804 109.064 126.503 109.001 127.297L108.588 131.584C108.429 133.14 109.604 134.569 111.161 134.697L115.448 135.109C116.242 135.173 116.814 135.872 116.75 136.666C116.687 137.396 116.052 137.968 115.321 137.968Z" fill="white"/>
<path d="M121.831 129.933C121.8 129.933 121.736 129.933 121.704 129.933C120.91 129.87 120.339 129.171 120.402 128.377L120.656 125.519C120.72 124.725 121.419 124.153 122.213 124.217C123.007 124.28 123.578 124.979 123.515 125.773L123.261 128.631C123.197 129.393 122.562 129.933 121.831 129.933Z" fill="white"/>
<path d="M178.809 233.19L74.2327 223.419L72.7051 239.768L177.281 249.539L178.809 233.19Z" fill="#FDDA24"/>
<path d="M177.411 249.666H177.252L72.5417 239.885V239.726L74.0979 223.243H74.2567L178.967 233.025V233.183L177.411 249.666ZM72.8593 239.599L177.093 249.349L178.586 233.31L74.3838 223.56L72.8593 239.599Z" fill="#FDDA24"/>
<path d="M118.242 202.756L140.792 204.852C143.872 205.138 146.127 207.869 145.841 210.95C145.555 214.031 142.824 216.286 139.743 216L117.194 213.904C114.114 213.618 111.859 210.887 112.145 207.806C112.462 204.725 115.162 202.47 118.242 202.756Z" fill="#2C2A29"/>
<path d="M117.734 212.22C119.891 212.22 121.64 210.471 121.64 208.314C121.64 206.157 119.891 204.408 117.734 204.408C115.576 204.408 113.828 206.157 113.828 208.314C113.828 210.471 115.576 212.22 117.734 212.22Z" fill="white"/>
<path d="M165.518 279.981L76.2099 271.068C67.3475 270.172 60.9013 262.302 61.767 253.449L82.641 44.1753C83.537 35.3129 91.4073 28.8667 100.26 29.7323L189.568 38.6451C198.43 39.5411 204.877 47.4114 204.011 56.2644L183.137 265.538C182.271 274.391 174.371 280.847 165.518 279.981Z" fill="#59CBE8"/>
<path d="M124.692 267.163C128.694 265.915 130.927 261.659 129.679 257.657C128.431 253.655 124.175 251.422 120.173 252.67C116.171 253.918 113.938 258.174 115.186 262.176C116.434 266.178 120.69 268.411 124.692 267.163Z" fill="white"/>
<path d="M194.777 63.5626L90.2703 53.1447L71.7057 239.373L176.212 249.791L194.777 63.5626Z" fill="white"/>
<path d="M177.839 233.45L73.3322 223.032L71.7035 239.37L176.21 249.788L177.839 233.45Z" fill="#FDDA24"/>
<path d="M176.349 249.956L71.5309 239.526L73.1915 222.873L178.019 233.334L176.349 249.956ZM71.8778 239.251L176.053 249.649L177.651 233.648L73.466 223.22L71.8778 239.251Z" fill="#FDDA24"/>
<path d="M166.423 147.036C166.129 147.128 165.815 147.154 165.491 147.148L148.644 145.489C147.349 145.356 146.377 144.191 146.51 142.896C146.644 141.601 147.809 140.629 149.104 140.762L163.587 142.191L165.016 127.707C165.149 126.412 166.314 125.44 167.609 125.573C168.904 125.707 169.876 126.872 169.743 128.167L168.084 145.014C168.029 145.64 167.704 146.207 167.221 146.608C167 146.82 166.717 146.944 166.423 147.036Z" fill="#00C389"/>
<path d="M109.812 96.7558C109.519 96.8474 109.205 96.8737 108.87 96.8347C107.575 96.7014 106.603 95.5362 106.736 94.2412L108.395 77.3944C108.528 76.0994 109.693 75.1273 110.988 75.2607L127.802 76.9292C129.097 77.0626 130.07 78.2277 129.936 79.5227C129.803 80.8176 128.638 81.7897 127.343 81.6564L112.859 80.2279L111.431 94.7112C111.357 95.737 110.694 96.481 109.812 96.7558Z" fill="#FDDA24"/>
<path d="M122.229 142.661C121.935 142.753 121.621 142.779 121.286 142.74L104.472 141.072C103.846 141.016 103.279 140.691 102.878 140.208C102.476 139.724 102.283 139.104 102.338 138.478L103.997 121.631C104.13 120.336 105.295 119.364 106.59 119.497C107.885 119.631 108.857 120.796 108.724 122.091L107.296 136.574L121.779 138.003C123.074 138.136 124.046 139.301 123.913 140.596C123.796 141.6 123.11 142.386 122.229 142.661Z" fill="#59CBE8"/>
<path d="M170.841 102.866C170.547 102.958 170.233 102.984 169.898 102.945C168.604 102.812 167.631 101.647 167.765 100.352L169.193 85.8684L154.71 84.4399C153.415 84.3065 152.443 83.1414 152.576 81.8464C152.71 80.5515 153.875 79.5794 155.17 79.7127L172.017 81.3711C173.312 81.5045 174.284 82.6696 174.15 83.9645L172.492 100.811C172.408 101.805 171.722 102.591 170.841 102.866Z" fill="#F5B6CD"/>
<path d="M152.423 109.038C152.129 109.13 151.815 109.156 151.481 109.117C150.186 108.984 149.214 107.819 149.347 106.524L150.129 98.5805C150.263 97.2855 151.428 96.3134 152.723 96.4468C154.018 96.5801 154.99 97.7453 154.856 99.0402L154.074 106.983C153.958 107.987 153.304 108.763 152.423 109.038Z" fill="#59CBE8"/>
<path d="M125.844 106.367C125.55 106.459 125.236 106.485 124.902 106.446C123.607 106.313 122.635 105.147 122.768 103.852L123.55 95.9093C123.684 94.6144 124.849 93.6423 126.144 93.7756C127.439 93.909 128.411 95.0741 128.277 96.3691L127.495 104.312C127.421 105.338 126.725 106.092 125.844 106.367Z" fill="#00C389"/>
<path d="M142.877 131.245C140.723 131.917 138.055 132.319 135.014 131.87C129.721 131.086 126.243 128.088 124.676 126.392C123.775 125.455 123.837 123.932 124.784 123.064C125.721 122.163 127.244 122.225 128.112 123.172C129.288 124.417 131.83 126.596 135.711 127.213C140.401 127.899 143.945 125.827 145.261 124.879C146.314 124.121 147.79 124.377 148.548 125.43C149.306 126.483 149.05 127.959 147.998 128.717C147.065 129.402 145.292 130.492 142.877 131.245Z" fill="#FF7F41"/>
<path d="M140.001 120.072C139.707 120.164 139.393 120.19 139.059 120.151L134.731 119.71C134.03 119.642 133.41 119.263 133.021 118.704C132.632 118.145 132.516 117.429 132.669 116.772L136.48 102.119C136.807 100.871 138.108 100.107 139.356 100.434C140.604 100.761 141.368 102.063 141.041 103.311L137.899 115.285L139.453 115.445C140.748 115.578 141.72 116.743 141.587 118.038C141.535 119.021 140.882 119.798 140.001 120.072Z" fill="#9063CD"/>
<path d="M192.583 314.305L115.789 267.905C108.167 263.3 105.721 253.391 110.326 245.769L219.102 65.7888C223.707 58.1666 233.616 55.7211 241.238 60.3262L318.032 106.758C325.654 111.363 328.1 121.272 323.495 128.894L214.719 308.874C210.114 316.465 200.205 318.91 192.583 314.305Z" fill="#00C389"/>
<path d="M162.317 285.278C166.509 285.278 169.908 281.88 169.908 277.688C169.908 273.496 166.509 270.097 162.317 270.097C158.125 270.097 154.727 273.496 154.727 277.688C154.727 281.88 158.125 285.278 162.317 285.278Z" fill="white"/>
<path d="M312.016 131.503L222.133 77.1719L125.316 237.341L215.199 291.672L312.016 131.503Z" fill="white"/>
<path d="M223.697 277.644L133.814 223.313L125.32 237.365L215.203 291.696L223.697 277.644Z" fill="#FDDA24"/>
<path d="M215.259 291.882L215.132 291.787L125.126 237.383L133.764 223.06L133.891 223.155L223.929 277.559L215.259 291.882ZM125.57 237.288L215.163 291.437L223.484 277.654L133.891 223.504L125.57 237.288Z" fill="#FDDA24"/>
<path d="M189.444 248.077C187.983 248.077 186.618 247.156 186.141 245.695C182.68 235.373 176.01 224.289 175.915 224.162C174.93 222.511 175.439 220.351 177.09 219.366C178.741 218.382 180.901 218.89 181.886 220.542C182.171 221.018 189.031 232.388 192.747 243.472C193.351 245.314 192.366 247.283 190.556 247.886C190.175 248.013 189.794 248.077 189.444 248.077Z" fill="#59CBE8"/>
<path d="M78.6696 174.585C78.6696 174.585 78.6379 174.585 78.5426 174.617C75.1443 175.538 71.6191 173.791 70.2852 170.552C68.6654 166.582 70.9521 162.136 75.1126 161.151C82.3537 159.436 93.1518 158.102 112.43 159.754C116.273 160.071 119.131 163.469 118.782 167.312C118.464 171.155 115.066 174.013 111.223 173.664C92.1038 172.013 81.5597 173.537 78.6696 174.585Z" fill="#9063CD"/>
<path d="M127.292 182.27C126.879 182.27 126.434 182.206 126.021 182.016C111.094 176.14 92.7375 178.205 92.5469 178.205C90.6413 178.427 88.8946 177.061 88.6723 175.156C88.45 173.25 89.8156 171.503 91.7212 171.281C92.5469 171.186 111.984 168.963 128.562 175.537C130.34 176.236 131.23 178.268 130.531 180.078C129.991 181.412 128.689 182.27 127.292 182.27Z" fill="#59CBE8"/>
<path d="M198.529 252.68C196.56 252.68 194.686 251.537 193.86 249.6C189.922 240.453 185.825 230.957 180.553 222.509C172.074 208.852 160.196 197.324 146.19 189.162C143.776 187.764 142.95 184.652 144.348 182.206C145.777 179.793 148.857 178.967 151.303 180.364C166.738 189.352 179.855 202.056 189.192 217.11C194.845 226.225 199.101 236.038 203.198 245.534C204.309 248.107 203.134 251.092 200.53 252.204C199.895 252.553 199.196 252.68 198.529 252.68Z" fill="#F5B6CD"/>
<path d="M58.5042 204.28C57.2339 204.28 55.9635 203.804 54.979 202.851C54.0262 201.93 53.2004 200.913 52.5017 199.834C47.452 191.894 50.8185 181.794 56.5352 176.3C62.3153 170.742 70.0964 168.71 76.2259 167.534C82.3554 166.359 88.6755 165.756 94.9956 165.661C95.0274 165.661 95.0274 165.661 95.0591 165.661C97.8222 165.661 100.109 167.884 100.141 170.679C100.172 173.473 97.9175 175.792 95.1227 175.824C89.406 175.887 83.6893 176.459 78.1315 177.507C73.3993 178.396 67.4603 179.921 63.6175 183.605C60.8227 186.272 59.0759 191.163 61.1403 194.371C61.3943 194.784 61.7119 195.165 62.093 195.514C64.1256 197.452 64.1891 200.691 62.2201 202.692C61.172 203.772 59.8381 204.28 58.5042 204.28Z" fill="#F5B6CD"/>
<path d="M192.876 229.338C190.176 229.338 187.572 227.75 186.46 225.114C181.284 213.045 168.612 199.262 168.485 199.103C165.88 196.276 166.039 191.862 168.866 189.226C171.692 186.622 176.107 186.78 178.743 189.607C179.315 190.242 193.162 205.328 199.291 219.588C200.816 223.145 199.164 227.242 195.607 228.766C194.75 229.147 193.797 229.338 192.876 229.338Z" fill="#9063CD"/>
<path d="M237.067 187.811C236.73 187.811 236.393 187.727 236.098 187.516C232.181 185.158 229.444 181.409 228.349 176.987C227.254 172.565 227.97 167.975 230.328 164.058L234.245 157.572C234.792 156.688 235.972 156.393 236.856 156.94C237.74 157.488 238.035 158.667 237.488 159.552L233.571 166.037C229.781 172.312 231.802 180.483 238.077 184.273C238.962 184.821 239.257 186 238.709 186.884C238.33 187.474 237.74 187.811 237.067 187.811Z" fill="#FDDA24"/>
<path d="M265.366 153.193C264.524 153.193 263.724 152.603 263.513 151.761C261.702 144.391 257.112 138.158 250.584 134.199C244.056 130.282 236.433 129.103 229.021 130.914C228.01 131.167 226.957 130.535 226.705 129.524C226.452 128.513 227.084 127.461 228.094 127.208C236.475 125.144 245.151 126.45 252.521 130.914C259.891 135.378 265.114 142.454 267.177 150.792C267.43 151.803 266.798 152.856 265.787 153.109C265.661 153.151 265.493 153.193 265.366 153.193Z" fill="#FDDA24"/>
<path d="M244.942 174.797C244.605 174.797 244.268 174.712 243.974 174.502C243.089 173.954 242.794 172.775 243.342 171.891L247.259 165.405C251.049 159.13 249.027 150.96 242.752 147.169C239.72 145.316 236.14 144.811 232.687 145.653C229.233 146.495 226.327 148.643 224.516 151.676L218.62 161.404C218.073 162.289 216.894 162.583 216.009 162.036C215.125 161.488 214.83 160.309 215.377 159.425L221.274 149.696C223.632 145.779 227.38 143.042 231.802 141.947C236.224 140.852 240.815 141.568 244.732 143.926C252.776 148.812 255.387 159.34 250.501 167.384L246.585 173.87C246.206 174.502 245.574 174.797 244.942 174.797Z" fill="#00C389"/>
<path d="M204.595 168.184C204.259 168.184 203.922 168.1 203.627 167.89C202.742 167.342 202.448 166.163 202.995 165.278L214.787 145.779C220.178 136.851 230.665 132.26 240.899 134.366C241.909 134.577 242.583 135.587 242.373 136.598C242.162 137.609 241.151 138.283 240.141 138.072C231.507 136.303 222.621 140.178 218.03 147.716L206.238 167.216C205.859 167.847 205.227 168.184 204.595 168.184Z" fill="#59CBE8"/>
<path d="M255.342 172.227C255.006 172.227 254.669 172.143 254.374 171.932C253.489 171.385 253.195 170.206 253.742 169.321C256.648 164.562 257.49 158.919 256.143 153.528C254.795 148.137 251.426 143.547 246.667 140.641C245.782 140.093 245.487 138.914 246.035 138.03C246.582 137.145 247.762 136.85 248.646 137.398C254.29 140.809 258.248 146.2 259.849 152.602C261.449 159.003 260.438 165.615 257.027 171.259C256.606 171.89 256.016 172.227 255.342 172.227Z" fill="#59CBE8"/>
<path d="M244.9 182.42C243.174 182.42 241.489 181.956 240.015 181.03C235.551 178.334 234.077 172.48 236.814 168.016L240.731 161.531C242.373 158.835 241.489 155.34 238.794 153.697C236.098 152.055 232.603 152.939 230.96 155.634C230.413 156.519 229.233 156.814 228.349 156.266C227.465 155.719 227.17 154.539 227.717 153.655C230.413 149.191 236.267 147.717 240.731 150.454C245.195 153.15 246.669 159.004 243.932 163.468L240.015 169.954C238.372 172.649 239.257 176.145 241.952 177.787C243.258 178.587 244.774 178.798 246.248 178.461C247.722 178.082 248.985 177.197 249.743 175.892C250.291 175.007 251.47 174.713 252.355 175.26C253.239 175.808 253.534 176.987 252.986 177.871C251.681 180.061 249.617 181.577 247.132 182.167C246.459 182.293 245.7 182.42 244.9 182.42Z" fill="#F5B6CD"/>
<path d="M217.565 176.019C217.228 176.019 216.891 175.935 216.596 175.724C215.712 175.177 215.417 173.997 215.965 173.113L223.84 160.099C224.388 159.215 225.567 158.92 226.451 159.468C227.336 160.015 227.631 161.194 227.083 162.079L219.207 175.092C218.871 175.682 218.239 176.019 217.565 176.019Z" fill="#9063CD"/>
<path d="M220.388 120.047C220.051 120.047 219.715 119.963 219.42 119.752C218.535 119.205 218.241 118.025 218.788 117.141L221.736 112.256C223.884 108.676 228.559 107.539 232.181 109.687L237.066 112.635C237.95 113.182 238.245 114.361 237.698 115.246C237.15 116.13 235.971 116.425 235.087 115.878L230.201 112.929C228.39 111.834 226.074 112.424 224.979 114.235L222.031 119.12C221.652 119.71 221.02 120.047 220.388 120.047Z" fill="#9063CD"/>
<path d="M278.845 155.383C278.508 155.383 278.171 155.299 277.876 155.088C276.992 154.54 276.697 153.361 277.244 152.477L280.192 147.592C280.698 146.707 280.866 145.696 280.614 144.728C280.361 143.759 279.771 142.917 278.887 142.369L274.002 139.421C273.117 138.874 272.822 137.694 273.37 136.81C273.917 135.926 275.097 135.631 275.981 136.178L280.866 139.126C282.593 140.179 283.814 141.822 284.32 143.801C284.825 145.781 284.488 147.802 283.435 149.529L280.487 154.414C280.108 155.046 279.477 155.383 278.845 155.383Z" fill="#FF7F41"/>
<path d="M245.488 205.246C244.14 205.246 242.793 204.867 241.571 204.151L236.686 201.203C235.801 200.655 235.507 199.476 236.054 198.592C236.602 197.707 237.781 197.412 238.665 197.96L243.551 200.908C244.435 201.413 245.446 201.582 246.414 201.329C247.383 201.076 248.225 200.487 248.773 199.602L251.721 194.717C252.268 193.832 253.448 193.538 254.332 194.085C255.217 194.633 255.511 195.812 254.964 196.696L252.016 201.582C250.963 203.308 249.32 204.53 247.341 205.035C246.709 205.161 246.12 205.246 245.488 205.246Z" fill="#9063CD"/>
<path d="M198.699 177.912C198.362 177.912 198.025 177.828 197.73 177.617L192.845 174.669C191.118 173.616 189.897 171.974 189.391 169.995C188.886 168.015 189.223 165.994 190.276 164.267L193.224 159.382C193.771 158.497 194.951 158.202 195.835 158.75C196.719 159.297 197.014 160.477 196.467 161.361L193.519 166.246C193.013 167.131 192.845 168.142 193.097 169.11C193.35 170.079 193.94 170.921 194.824 171.469L199.71 174.417C200.594 174.964 200.889 176.143 200.341 177.028C199.962 177.575 199.331 177.912 198.699 177.912Z" fill="#FF7F41"/>
<path d="M211.08 172.1C210.743 172.1 210.406 172.016 210.111 171.806C209.227 171.258 208.932 170.079 209.48 169.194L211.459 165.952C212.007 165.067 213.186 164.772 214.07 165.32C214.955 165.867 215.25 167.047 214.702 167.931L212.723 171.174C212.344 171.763 211.712 172.1 211.08 172.1Z" fill="#9063CD"/>
</svg>
