<svg width="1080" height="1080" viewBox="0 0 1080 1080" fill="none" xmlns="http://www.w3.org/2000/svg">
<path d="M545.977 864C545.977 790.5 605.477 731 678.977 731C752.477 731 811.977 790.5 811.977 864" fill="#FF7F41"/>
<path d="M164.477 863.999C164.477 742.399 263.077 643.699 384.777 643.699C506.477 643.699 605.077 742.399 605.077 863.999" fill="#FF7F41"/>
<path d="M279.777 971.701C276.577 971.701 273.277 971.401 269.977 970.701C242.877 965.301 225.277 939.001 230.677 911.901L268.377 721.901L282.877 525.701C284.877 498.201 308.877 477.501 336.377 479.501C363.877 481.501 384.577 505.501 382.577 533.001L367.877 732.201C367.777 734.201 367.477 736.201 367.077 738.201L328.877 931.201C323.977 955.201 303.077 971.701 279.777 971.701Z" fill="#2C2A29"/>
<path d="M430.474 977C404.474 977 382.474 956.9 380.674 930.5L356.074 582.9C354.174 555.4 374.874 531.4 402.474 529.5C430.074 527.6 453.974 548.3 455.874 575.9L480.474 923.5C482.374 951 461.674 975 434.074 976.9C432.774 977 431.674 977 430.474 977Z" fill="#2C2A29"/>
<path d="M416.574 442.5C467.374 447.3 527.274 427.4 570.374 391.5L416.574 442.5Z" fill="#59CBE8"/>
<path d="M432.075 467.199C426.075 467.199 420.175 466.899 414.275 466.399C401.075 465.199 391.375 453.399 392.675 440.199C393.875 426.999 405.675 417.299 418.875 418.599C463.375 422.799 516.775 404.899 555.075 373.099C565.275 364.599 580.375 365.999 588.875 376.199C597.375 386.399 595.975 401.499 585.775 409.999C542.375 446.099 484.975 467.199 432.075 467.199Z" fill="#59CBE8"/>
<path d="M461.477 463.998C492.377 459.198 523.577 449.798 553.177 436.398L461.477 463.998Z" fill="#59CBE8"/>
<path d="M461.476 477.997C454.676 477.997 448.776 473.097 447.676 466.197C446.476 458.597 451.676 451.397 459.376 450.197C489.176 445.497 518.876 436.597 547.576 423.697C554.676 420.497 562.876 423.697 566.076 430.697C569.276 437.797 566.076 445.997 559.076 449.197C528.076 463.097 496.076 472.797 463.776 477.797C462.976 477.897 462.176 477.997 461.476 477.997Z" fill="#FF7F41"/>
<path d="M299.377 333.601L239.277 599.801L470.177 593.401C473.277 532.501 468.177 437.601 430.577 384.201C375.277 305.601 299.377 333.601 299.377 333.601Z" fill="#9063CD"/>
<path d="M318.175 423.801C312.975 423.801 307.975 420.801 305.575 415.801C302.275 408.801 305.275 400.501 312.275 397.301C313.775 396.601 315.575 395.801 317.475 394.901C323.275 392.301 336.875 386.101 340.175 382.601C341.275 381.401 342.975 379.601 340.175 375.001C339.075 373.301 338.075 371.601 331.075 374.301C323.875 377.001 315.875 373.301 313.175 366.001C310.475 358.801 314.175 350.801 321.475 348.101C339.575 341.401 355.175 345.901 364.075 360.401C372.575 374.301 371.375 390.001 360.875 401.401C354.275 408.501 342.675 414.201 329.175 420.301C327.375 421.101 325.775 421.801 324.375 422.501C322.175 423.301 320.175 423.801 318.175 423.801Z" fill="#9063CD"/>
<path d="M181.975 564.601C179.375 564.601 176.675 564.201 173.975 563.201C161.475 558.901 154.975 545.201 159.375 532.701C165.575 515.001 173.375 498.001 182.775 482.001C215.275 426.301 265.875 381.901 325.375 356.901C337.575 351.801 351.675 357.501 356.775 369.801C361.875 382.001 356.175 396.101 343.875 401.201C293.975 422.101 251.475 459.401 224.275 506.201C216.475 519.601 209.875 533.801 204.675 548.601C201.175 558.501 191.875 564.601 181.975 564.601Z" fill="#F5B6CD"/>
<path d="M202.875 471.203C200.175 471.203 197.475 470.403 195.075 468.803C188.675 464.503 187.075 455.803 191.475 449.403C223.675 402.303 272.975 364.703 326.675 346.203C333.975 343.703 341.875 347.603 344.375 354.803C346.875 362.103 342.975 370.003 335.775 372.503C287.575 389.103 243.375 422.803 214.475 465.103C211.675 469.103 207.375 471.203 202.875 471.203Z" fill="#00C389"/>
<path d="M405.158 297.119C425.785 277.375 425.045 243.127 403.505 220.625C381.966 198.123 347.783 195.888 327.157 215.632C306.53 235.377 307.27 269.624 328.809 292.126C350.349 314.628 384.531 316.863 405.158 297.119Z" fill="#B28038"/>
<path d="M569.579 378.403L591.179 389.103C596.379 391.603 602.579 389.503 605.079 384.403L631.679 330.603C634.179 325.403 632.079 319.203 626.979 316.703L605.379 306.003C600.179 303.503 593.979 305.603 591.479 310.703L564.879 364.503C562.279 369.603 564.479 375.903 569.579 378.403Z" fill="#FDDA24"/>
<path d="M595.777 390.802C594.177 390.802 592.477 390.402 590.877 389.702L569.277 379.002C563.777 376.302 561.577 369.702 564.277 364.202L590.877 310.402C593.577 304.902 600.177 302.702 605.677 305.402L627.277 316.102C629.877 317.402 631.877 319.702 632.877 322.502C633.777 325.302 633.577 328.302 632.277 330.902L605.677 384.702C603.777 388.602 599.877 390.802 595.777 390.802ZM569.877 377.802L591.477 388.502C596.277 390.902 602.177 388.902 604.577 384.102L631.177 330.302C632.377 328.002 632.477 325.302 631.677 322.802C630.877 320.302 629.077 318.302 626.777 317.202L605.177 306.502C600.377 304.102 594.477 306.102 592.077 310.902L565.477 364.702C564.277 367.002 564.177 369.702 564.977 372.202C565.777 374.702 567.577 376.702 569.877 377.802Z" fill="#FDDA24"/>
<path d="M885.279 313.702H839.979C836.879 313.702 834.379 311.202 834.379 308.102C834.379 305.002 836.879 302.502 839.979 302.502H879.779V262.702C879.779 259.602 882.279 257.102 885.379 257.102C888.479 257.102 890.979 259.602 890.979 262.702V308.102C890.879 311.202 888.379 313.702 885.279 313.702Z" fill="#00C389"/>
<path d="M720.877 194.602C717.777 194.602 715.277 192.102 715.277 189.002V143.702C715.277 140.602 717.777 138.102 720.877 138.102H766.177C769.277 138.102 771.777 140.602 771.777 143.702C771.777 146.802 769.277 149.302 766.177 149.302H726.377V189.102C726.477 192.102 723.977 194.602 720.877 194.602Z" fill="#FDDA24"/>
<path d="M766.279 313.702H720.979C717.879 313.702 715.379 311.202 715.379 308.102V262.702C715.379 259.602 717.879 257.102 720.979 257.102C724.079 257.102 726.579 259.602 726.579 262.702V302.502H766.379C769.479 302.502 771.979 305.002 771.979 308.102C771.979 311.202 769.379 313.702 766.279 313.702Z" fill="#59CBE8"/>
<path d="M885.279 194.602C882.179 194.602 879.679 192.102 879.679 189.002V149.302H839.979C836.879 149.302 834.379 146.802 834.379 143.702C834.379 140.602 836.879 138.102 839.979 138.102H885.379C888.479 138.102 890.979 140.602 890.979 143.702V189.102C890.879 192.102 888.379 194.602 885.279 194.602Z" fill="#F5B6CD"/>
<path d="M837.877 216C834.777 216 832.277 213.5 832.277 210.4V189.1C832.277 186 834.777 183.5 837.877 183.5C840.977 183.5 843.477 186 843.477 189.1V210.5C843.377 213.5 840.877 216 837.877 216Z" fill="#59CBE8"/>
<path d="M766.276 216C763.176 216 760.676 213.5 760.676 210.4V189.1C760.676 186 763.176 183.5 766.276 183.5C769.376 183.5 771.876 186 771.876 189.1V210.5C771.776 213.5 769.376 216 766.276 216Z" fill="#00C389"/>
<path d="M802.277 281.1C801.477 281.1 800.777 281.1 799.977 281C785.877 280.3 775.977 273.4 771.377 269.4C769.077 267.4 768.877 263.9 770.877 261.6C772.877 259.3 776.377 259.1 778.677 261.1C782.177 264.2 789.777 269.5 800.477 270C813.477 270.7 822.577 264 825.877 261.1C828.177 259.1 831.677 259.3 833.677 261.6C835.677 263.9 835.477 267.4 833.177 269.4C829.077 273 818.077 281.1 802.277 281.1Z" fill="#FF7F41"/>
<path d="M807.679 248.803H795.979C794.379 248.803 792.779 248.103 791.779 246.903C790.679 245.703 790.279 244.003 790.479 242.403L796.779 202.303C797.279 199.303 800.079 197.203 803.179 197.703C806.179 198.203 808.279 201.003 807.779 204.103L802.479 237.803H807.579C810.679 237.803 813.179 240.303 813.179 243.403C813.179 246.503 810.679 248.803 807.679 248.803Z" fill="#9063CD"/>
<path d="M638.277 364.5C636.377 364.5 634.477 363.5 633.477 361.7C632.277 359.6 632.577 356.9 634.277 355.1L680.677 306.1V140C680.677 119.6 697.277 103 717.677 103H885.977C906.377 103 922.977 119.6 922.977 140V308.4C922.977 328.8 906.377 345.4 885.977 345.4H718.277L639.477 364.4C639.077 364.5 638.677 364.5 638.277 364.5ZM717.677 114.1C703.377 114.1 691.777 125.7 691.777 140V308.4C691.777 309.8 691.277 311.2 690.277 312.2L655.277 349.2L716.377 334.4C716.777 334.3 717.277 334.2 717.677 334.2H885.977C900.277 334.2 911.877 322.6 911.877 308.3V140C911.877 125.7 900.277 114.1 885.977 114.1H717.677Z" fill="#FDDA24"/>
</svg>
