<svg width="1080" height="1080" viewBox="0 0 1080 1080" fill="none" xmlns="http://www.w3.org/2000/svg">
<path d="M763.779 850.135C762.172 849.717 760.55 849.081 758.998 848.178C750.135 842.947 747.101 831.523 752.35 822.611C758.859 811.6 762.309 799.436 762.351 787.456C762.445 773.35 757.678 758.692 748.897 746.273C740.201 733.806 728.004 724.353 714.723 719.614C704.972 716.15 699.951 705.494 703.412 695.76C706.873 686.026 717.54 681.021 727.291 684.485C747.831 691.825 766.41 706.15 779.48 724.894C792.634 743.588 799.764 765.926 799.684 787.674C799.583 806.204 794.313 824.818 784.53 841.543C780.251 848.924 771.68 852.19 763.779 850.135Z" fill="#9063CD"/>
<path d="M325.605 876.194C316.037 873.706 306.678 870.413 297.53 866.032C281.088 858.109 266.811 846.529 256.231 832.55C244.209 816.695 237.943 798.761 238.068 780.701C238.129 774.424 238.912 768.12 240.532 761.89C243.06 751.893 253.215 745.81 263.252 748.42L263.319 748.437C273.222 751.013 279.228 761.156 276.699 771.154C275.846 774.436 275.428 777.688 275.43 780.978C275.304 797.393 287.163 819.642 313.771 832.427C336.439 843.328 363.199 845.64 393.202 847.293C403.477 847.891 411.408 856.676 410.805 866.96C410.202 877.244 401.421 885.186 391.147 884.588C367.782 883.231 346.148 881.537 325.605 876.194Z" fill="#F5B6CD"/>
<path d="M657.508 926.727L397.615 926.838C369.794 926.838 347.223 904.268 347.223 876.446L347 288.504C347 260.682 369.57 238.112 397.392 238.112L657.284 238C685.106 238 707.676 260.57 707.676 288.392L707.9 876.223C707.9 904.156 685.33 926.727 657.508 926.727Z" fill="#59CBE8"/>
<path d="M680.637 314.538L680.86 842.032L680.637 842.144L374.263 842.256L374.151 781.361L374.04 314.649L680.637 314.538Z" fill="white"/>
<rect x="415" y="520" width="224" height="24" rx="12" fill="#F5B6CD"/>
<rect x="415" y="576" width="112" height="24" rx="12" fill="#F5B6CD"/>
<rect x="415" y="464" width="224" height="24" rx="12" fill="#F5B6CD"/>
<rect x="541" y="157" width="410" height="209" fill="#FDDA24"/>
<rect x="593.583" y="257.305" width="57.9182" height="8.58047" rx="4.29024" fill="#9063CD"/>
<rect x="626.833" y="232.636" width="57.9182" height="8.58047" rx="4.29024" transform="rotate(90 626.833 232.636)" fill="#9063CD"/>
<rect x="598.946" y="278.756" width="57.9182" height="8.58047" rx="4.29024" transform="rotate(-45 598.946 278.756)" fill="#9063CD"/>
<rect x="639.701" y="285.191" width="57.9182" height="8.58047" rx="4.29024" transform="rotate(-135 639.701 285.191)" fill="#9063CD"/>
<rect x="675.889" y="257.305" width="57.9182" height="8.58047" rx="4.29024" fill="#9063CD"/>
<rect x="709.138" y="232.636" width="57.9182" height="8.58047" rx="4.29024" transform="rotate(90 709.138 232.636)" fill="#9063CD"/>
<rect x="681.251" y="278.756" width="57.9182" height="8.58047" rx="4.29024" transform="rotate(-45 681.251 278.756)" fill="#9063CD"/>
<rect x="722.007" y="285.191" width="57.9182" height="8.58047" rx="4.29024" transform="rotate(-135 722.007 285.191)" fill="#9063CD"/>
<rect x="758.193" y="257.305" width="57.9182" height="8.58047" rx="4.29024" fill="#9063CD"/>
<rect x="791.443" y="232.636" width="57.9182" height="8.58047" rx="4.29024" transform="rotate(90 791.443 232.636)" fill="#9063CD"/>
<rect x="763.555" y="278.756" width="57.9182" height="8.58047" rx="4.29024" transform="rotate(-45 763.555 278.756)" fill="#9063CD"/>
<rect x="804.311" y="285.191" width="57.9182" height="8.58047" rx="4.29024" transform="rotate(-135 804.311 285.191)" fill="#9063CD"/>
<rect x="840.498" y="257.305" width="57.9182" height="8.58047" rx="4.29024" fill="#9063CD"/>
<rect x="873.748" y="232.636" width="57.9182" height="8.58047" rx="4.29024" transform="rotate(90 873.748 232.636)" fill="#9063CD"/>
<rect x="845.86" y="278.756" width="57.9182" height="8.58047" rx="4.29024" transform="rotate(-45 845.86 278.756)" fill="#9063CD"/>
<rect x="886.616" y="285.191" width="57.9182" height="8.58047" rx="4.29024" transform="rotate(-135 886.616 285.191)" fill="#9063CD"/>
<path d="M597 430V339H687L597 430Z" fill="#FDDA24"/>
<path d="M798.237 808.427C792.692 806.985 789.135 801.467 790.203 795.716C796.213 762.185 771.707 728.899 771.443 728.543C767.795 723.647 768.742 716.717 773.639 712.967C778.52 709.284 785.41 710.215 789.075 715.044C790.346 716.738 819.708 756.31 811.949 799.578C810.878 805.615 805.123 809.644 799.123 808.585C798.771 808.566 798.504 808.496 798.237 808.427Z" fill="#FF7F41"/>
<path d="M735.072 844.253C733.055 843.728 731.176 842.671 729.571 841.115C725.056 836.67 724.906 829.52 728.916 824.589C744.497 805.531 740.042 783.465 739.847 782.561L738.843 779.242C736.82 772.671 740.894 765.838 747.59 764.379C754.05 763.002 760.454 767.085 761.788 773.547C765.497 791.579 766.388 817.411 747.462 840.222C744.454 844.062 739.577 845.424 735.072 844.253Z" fill="#F5B6CD"/>
<path d="M634.311 888.775C622.058 885.588 610.597 881.827 600.24 878.495L582.053 872.559C572.232 869.366 566.877 858.895 570.054 849.154C573.231 839.413 583.754 834.135 593.575 837.328L611.762 843.264C648.939 855.344 682.045 864.664 711.532 855.737C721.384 852.767 731.808 858.315 734.836 868.11C737.865 877.905 732.318 888.235 722.467 891.205C692.66 900.262 661.63 895.88 634.311 888.775Z" fill="#9063CD"/>
<path d="M636.409 858.708C636.343 858.69 636.276 858.673 636.209 858.656C605.882 850.272 553.947 833.149 551.711 832.425C545.405 830.36 541.915 823.496 544.04 817.243C546.099 810.972 552.986 807.517 559.275 809.649C559.792 809.854 612.845 827.339 642.571 835.566C649.013 837.384 652.79 843.967 650.981 850.374C649.358 856.616 642.82 860.375 636.409 858.708Z" fill="#F5B6CD"/>
<path d="M253.97 784.724C244.098 782.157 238.112 772.038 240.635 762.063C246.515 738.905 263.263 717.503 285.376 704.774C308.161 691.65 336.92 686.5 368.454 689.85C388.964 692.045 408.489 697.48 423.125 701.999C432.96 704.985 438.508 715.419 435.451 725.255C432.461 735.108 422.04 740.675 412.222 737.622C399.103 733.568 381.829 728.79 364.509 726.925C348.007 725.202 324.061 725.538 303.882 737.129C290.312 744.944 280.154 757.714 276.709 771.231C274.186 781.206 263.994 787.26 254.055 784.675C254.037 784.742 254.037 784.742 253.97 784.724Z" fill="#F5B6CD"/>
<path d="M457.868 763.331C457.533 763.244 457.198 763.157 456.947 763.02C413.034 747.312 366.043 739.306 365.623 739.268C359.579 738.268 355.476 732.557 356.538 726.546C357.533 720.518 363.252 716.433 369.279 717.5C371.277 717.805 418.67 725.916 464.427 742.246C470.192 744.317 473.196 750.671 471.128 756.42C469.164 761.768 463.371 764.762 457.868 763.331Z" fill="#FF7F41"/>
<path d="M235.652 756.208C235.316 756.121 234.981 756.034 234.73 755.897C228.434 753.687 225.071 746.801 227.298 740.438C227.54 739.785 232.838 724.918 246.308 709.456C264.244 688.93 288.456 676.477 316.359 673.5C322.986 672.791 328.973 677.568 329.733 684.278C330.443 690.904 325.598 696.872 318.954 697.649C266.529 703.265 250.296 748.065 250.107 748.517C248.051 754.495 241.686 757.777 235.652 756.208Z" fill="#00C389"/>
<path d="M297.807 834.656C296.326 834.271 294.932 833.552 293.676 832.583C266.298 810.77 264.144 786.175 265.844 769.143C266.5 762.752 272.468 758.313 278.831 759.54C284.706 760.711 288.624 766.366 287.533 772.216L286.934 775.626C286.793 776.446 283.823 796.428 307.565 815.37C312.391 819.192 313.163 826.169 309.35 830.883C306.491 834.419 301.912 835.724 297.807 834.656Z" fill="#00C389"/>
</svg>
