<svg width="1080" height="1080" viewBox="0 0 1080 1080" fill="none" xmlns="http://www.w3.org/2000/svg">
<path d="M823.802 568.701C866.162 568.701 900.502 534.361 900.502 492.001C900.502 449.641 866.162 415.301 823.802 415.301C781.441 415.301 747.102 449.641 747.102 492.001C747.102 534.361 781.441 568.701 823.802 568.701Z" fill="#FDDA24"/>
<path d="M823.802 569.201C781.202 569.201 746.602 534.601 746.602 492.001C746.602 449.401 781.202 414.801 823.802 414.801C866.402 414.801 901.002 449.501 901.002 492.001C901.002 534.501 866.302 569.201 823.802 569.201ZM823.802 415.801C781.802 415.801 747.602 450.001 747.602 492.001C747.602 534.001 781.802 568.201 823.802 568.201C865.802 568.201 900.002 534.101 900.002 492.001C900.002 449.901 865.802 415.801 823.802 415.801Z" fill="#FDDA24"/>
<path d="M823.802 536.201C848.213 536.201 868.002 516.412 868.002 492.001C868.002 467.59 848.213 447.801 823.802 447.801C799.391 447.801 779.602 467.59 779.602 492.001C779.602 516.412 799.391 536.201 823.802 536.201Z" fill="#FF7F41"/>
<path d="M429.2 664.799H429.1C418.7 664.699 410.3 656.199 410.4 645.899C410.6 620.999 405 595.099 399.6 572.999C398.2 567.399 396.7 561.699 395.3 556.099C387.6 525.899 379.6 494.599 379 461.899C378.1 415.099 394.4 373.799 423.7 348.499C441 333.499 462.8 323.799 488.4 319.499C498.7 317.799 508.3 324.699 510 334.999C511.7 345.299 504.8 354.899 494.5 356.599C475.9 359.699 460.3 366.499 448.3 376.899C427.5 394.899 416 425.599 416.6 461.199C417.1 489.399 424.2 517.299 431.8 546.699C433.2 552.299 434.7 558.099 436.2 563.899C442.2 588.299 448.3 617.099 448.1 646.099C447.9 656.499 439.5 664.799 429.2 664.799Z" fill="#59CBE8"/>
<path d="M380 499.2C375.4 499.2 371.1 496.1 369.9 491.4C369.4 489.4 357 441.1 377.3 393.7C379.6 388.4 385.8 385.9 391.1 388.2C396.4 390.5 398.9 396.6 396.6 402C379.2 442.7 390.1 485.7 390.2 486.1C391.7 491.7 388.3 497.4 382.7 498.9C381.8 499.1 380.9 499.2 380 499.2Z" fill="#00C389"/>
<path d="M897.202 372.702L603.102 666.802L471.002 534.602L252.402 753.202L179.602 678.902L471.002 387.602L603.102 519.702L823.702 299.102L897.202 372.702Z" fill="#9063CD"/>
<path d="M742.898 244H956.398V457.5" fill="#9063CD"/>
<path d="M248.4 663.198C316.828 663.198 372.3 607.727 372.3 539.298C372.3 470.87 316.828 415.398 248.4 415.398C179.972 415.398 124.5 470.87 124.5 539.298C124.5 607.727 179.972 663.198 248.4 663.198Z" fill="#FDDA24"/>
<path d="M248.4 663.698C179.8 663.698 124 607.898 124 539.298C124 470.698 179.8 414.898 248.4 414.898C317 414.898 372.8 470.698 372.8 539.298C372.9 607.898 317 663.698 248.4 663.698ZM248.4 415.798C180.4 415.798 125 471.198 125 539.298C125 607.398 180.4 662.698 248.4 662.698C316.4 662.698 371.8 607.298 371.8 539.298C371.9 471.198 316.5 415.798 248.4 415.798Z" fill="#FDDA24"/>
<path d="M248.4 610.698C287.833 610.698 319.8 578.732 319.8 539.298C319.8 499.865 287.833 467.898 248.4 467.898C208.967 467.898 177 499.865 177 539.298C177 578.732 208.967 610.698 248.4 610.698Z" fill="#FF7F41"/>
<path d="M756.199 414.199C731.699 414.199 709.299 409.699 693.399 405.299C671.399 399.299 650.199 391.099 629.699 383.099C616.799 378.099 603.399 372.899 590.199 368.499C580.399 365.199 575.099 354.499 578.399 344.699C581.699 334.899 592.399 329.599 602.199 332.899C616.099 337.599 629.899 342.899 643.199 348.099C663.699 355.999 682.999 363.499 703.199 368.999C750.599 381.899 793.299 377.899 820.199 357.999C828.599 351.799 840.299 353.599 846.499 361.899C852.699 370.299 850.899 381.999 842.599 388.199C815.899 408.099 784.699 414.199 756.199 414.199Z" fill="#59CBE8"/>
<path d="M372.398 836.598C361.598 836.598 351.498 830.098 347.298 819.498C341.798 805.598 348.598 789.898 362.498 784.498C404.598 767.898 431.098 736.798 441.398 691.998C449.598 656.198 444.198 624.698 444.198 624.398C441.498 609.698 451.198 595.698 465.898 592.998C480.598 590.298 494.598 600.098 497.298 614.698C497.598 616.398 504.598 655.798 494.498 701.898C480.598 765.198 441.898 811.098 382.398 834.598C378.998 835.998 375.698 836.598 372.398 836.598Z" fill="#F5B6CD"/>
<path d="M623.201 349.899C619.901 349.899 616.501 349.299 613.301 347.999C577.901 333.999 540.601 328.899 502.401 332.799C473.401 335.799 454.801 343.099 454.601 343.199H454.701L434.301 293.199C438.101 291.699 527.501 256.099 633.101 297.899C647.001 303.399 653.801 319.099 648.301 332.899C644.101 343.399 634.001 349.899 623.201 349.899Z" fill="#F5B6CD"/>
<path d="M339.198 769.099C335.098 769.099 331.098 766.599 329.498 762.599C327.298 757.199 329.898 751.1 335.198 748.9C335.498 748.8 362.398 737.4 389.998 707.5C393.898 703.2 400.598 703 404.798 706.9C409.098 710.8 409.298 717.5 405.398 721.7C374.498 755.2 344.398 767.799 343.198 768.299C341.898 768.799 340.498 769.099 339.198 769.099Z" fill="#00C389"/>
<path d="M754.002 382.2C748.302 382.2 743.602 377.6 743.502 371.8C743.402 366 748.102 361.3 753.902 361.2C754.602 361.2 807.802 360 842.502 327C846.702 323 853.302 323.2 857.302 327.4C861.302 331.6 861.102 338.2 856.902 342.2C816.002 381.1 756.602 382.2 754.102 382.2C754.002 382.2 754.002 382.2 754.002 382.2Z" fill="#00C389"/>
<path d="M601.401 463.7C644.258 463.7 679.001 428.957 679.001 386.1C679.001 343.243 644.258 308.5 601.401 308.5C558.543 308.5 523.801 343.243 523.801 386.1C523.801 428.957 558.543 463.7 601.401 463.7Z" fill="#FDDA24"/>
<path d="M601.401 464.2C558.401 464.2 523.301 429.2 523.301 386.1C523.301 343 558.301 308 601.401 308C644.501 308 679.501 343 679.501 386.1C679.501 429.2 644.501 464.2 601.401 464.2ZM601.401 309C558.901 309 524.301 343.6 524.301 386.1C524.301 428.6 558.901 463.2 601.401 463.2C643.901 463.2 678.501 428.6 678.501 386.1C678.501 343.6 643.901 309 601.401 309Z" fill="#FDDA24"/>
<path d="M601.399 430.798C626.086 430.798 646.099 410.786 646.099 386.098C646.099 361.411 626.086 341.398 601.399 341.398C576.712 341.398 556.699 361.411 556.699 386.098C556.699 410.786 576.712 430.798 601.399 430.798Z" fill="#FF7F41"/>
</svg>
