<svg width="168" height="168" viewBox="0 0 168 168" fill="none" xmlns="http://www.w3.org/2000/svg">
<path d="M41.8726 88.0918C41.6704 88.0918 41.4681 88.0763 41.2659 88.0452C38.8704 87.6874 36.4748 87.1274 34.157 86.3496C31.7148 85.5407 29.4126 84.5141 27.3126 83.3007C26.1304 82.6163 25.0259 81.8696 24.0148 81.0918L23.9993 81.0763C23.7504 80.8896 23.4859 80.6718 23.1904 80.4074L22.8637 80.1274C22.7548 80.0341 22.6459 79.9252 22.537 79.8163L22.4126 79.6918C22.3504 79.6296 22.3037 79.583 22.2415 79.5363C22.0859 79.3963 21.8993 79.2096 21.697 79.0074L21.0437 78.3385C20.1726 77.4052 19.3482 76.4252 18.6015 75.3985L18.5704 75.3674C17.777 74.2785 17.1082 73.2518 16.517 72.2252L16.5015 72.2096C15.7859 70.9652 15.2415 69.923 14.7904 68.9274L14.5726 68.4452L14.0282 67.123C13.9659 66.9674 13.9193 66.8274 13.857 66.6874C13.717 66.3141 13.5615 65.9096 13.4059 65.4585C12.9548 64.1674 12.6126 62.9074 12.3793 61.943L12.3482 61.8185C12.317 61.6785 12.2859 61.5541 12.2548 61.4141C12.1615 60.9941 12.0526 60.5118 11.9593 60.0141C11.9437 59.9363 11.9282 59.8585 11.9126 59.7807C11.8815 59.5785 11.8348 59.3452 11.7882 59.0963L11.6637 58.2718C11.617 57.9452 11.5859 57.6652 11.5548 57.4007V57.2452C11.5548 57.1674 11.5393 57.0896 11.5237 56.9963C11.5082 56.7941 11.477 56.5607 11.4615 56.2963V56.2496C11.4615 56.1252 11.4459 55.9852 11.4304 55.8607C11.3993 55.4252 11.3682 54.9429 11.3682 54.4141C11.337 53.2941 11.3682 52.0963 11.4926 50.6341V50.5563C11.7726 47.8029 12.3637 45.2207 13.2504 42.9185C14.0593 40.8185 16.4237 39.7607 18.5237 40.5696C20.6237 41.3785 21.6815 43.7429 20.8726 45.8429C20.2504 47.4763 19.8304 49.3274 19.6126 51.3496C19.5193 52.4852 19.4882 53.4029 19.5193 54.1963V54.3207C19.5193 54.6163 19.5348 54.9585 19.5659 55.3163C19.5815 55.4563 19.5815 55.5963 19.597 55.7363C19.597 55.8452 19.6126 55.9696 19.6282 56.1096C19.6437 56.2185 19.6437 56.3118 19.6593 56.4207L19.6748 56.5607C19.6904 56.7318 19.7059 56.9029 19.7215 57.0118L19.7526 57.0896L19.877 57.8985C19.8926 58.0229 19.9237 58.163 19.9393 58.2874C19.9548 58.3963 19.9859 58.5052 20.0015 58.6141V58.6607C20.0482 58.9563 20.1259 59.2829 20.2037 59.6252C20.2348 59.7496 20.2659 59.8896 20.297 60.0141C20.4993 60.8074 20.7637 61.8185 21.1059 62.7674L21.137 62.8763C21.2148 63.1252 21.3393 63.4207 21.4482 63.7318C21.5104 63.8874 21.557 64.0274 21.6193 64.183L22.0393 65.1785L22.2104 65.5363C22.5526 66.2829 22.9726 67.1074 23.5482 68.1185C23.9993 68.8963 24.5126 69.6741 25.1348 70.5452C25.6948 71.3074 26.317 72.0385 26.9548 72.723L27.5148 73.2985C27.577 73.3607 27.6704 73.4541 27.7793 73.5474C27.857 73.6252 27.9348 73.6874 28.0126 73.7652C28.0437 73.7963 28.0904 73.843 28.1215 73.8741C28.1526 73.9052 28.1681 73.9207 28.1993 73.9518L28.557 74.263C28.6815 74.3718 28.8526 74.4963 29.0393 74.6518L29.0548 74.6674C29.7704 75.2274 30.5326 75.7407 31.4037 76.2385C33.0215 77.1718 34.8104 77.9652 36.7237 78.603C38.6059 79.2252 40.5348 79.6918 42.4481 79.9718C44.6726 80.2985 46.2281 82.383 45.8859 84.6074C45.6059 86.6296 43.8637 88.0918 41.8726 88.0918Z" fill="#FF7F41"/>
<path d="M47.0367 83.4408C44.5945 83.4408 42.0901 83.1608 39.5545 82.6164C36.9568 82.0564 34.499 81.2319 32.2279 80.1741C31.0145 79.6141 29.8634 78.9764 28.8056 78.3075L28.7745 78.2919C28.5101 78.1208 28.2612 77.9497 28.0123 77.7786L27.919 77.7164C27.8568 77.6697 27.779 77.623 27.7168 77.5608C27.5456 77.4364 27.3745 77.3119 27.1723 77.1564L27.1412 77.1408C26.9234 76.9697 26.659 76.7675 26.4101 76.5341C26.379 76.5186 26.3634 76.4875 26.3323 76.4719C26.2545 76.3941 26.1301 76.3008 26.0056 76.1919L25.6945 75.9119C24.7768 75.0564 23.8901 74.0764 23.0656 73.0186C22.2723 72.0075 21.5412 70.9186 20.8723 69.783C20.2345 68.6942 19.6434 67.543 19.1145 66.3453C18.6168 65.2253 18.1812 64.0275 17.7612 62.7053C17.279 61.1653 18.1501 59.5319 19.6901 59.0497C21.2301 58.5675 22.8634 59.4386 23.3456 60.9786C23.6879 62.083 24.0456 63.063 24.4501 63.9808C24.8856 64.9608 25.3834 65.9253 25.9123 66.8275C26.4412 67.7297 27.0323 68.6008 27.6545 69.4097C28.3079 70.2342 28.9768 70.9964 29.6768 71.6497L29.9879 71.9297C30.019 71.9608 30.0501 71.9764 30.0812 72.0075C30.1279 72.0541 30.1901 72.1008 30.2368 72.1475L30.2523 72.163C30.3768 72.2719 30.5479 72.4119 30.719 72.5519L30.8123 72.6297C30.8745 72.6764 30.9834 72.7542 31.0923 72.8319C31.1856 72.8942 31.2634 72.9564 31.3568 73.0186C31.559 73.1586 31.7612 73.2986 31.9634 73.423C32.7879 73.9519 33.6901 74.4497 34.6701 74.8853C36.5523 75.7564 38.6212 76.4408 40.799 76.923C42.9768 77.3897 45.1234 77.6386 47.2079 77.623C48.2812 77.623 49.3079 77.5453 50.2879 77.4053H50.3034C50.7234 77.343 51.1901 77.2653 51.7501 77.1253L51.8279 77.1097C51.8745 77.0941 51.9212 77.0786 51.9679 77.0786L52.5279 76.9386C52.6367 76.9075 52.7456 76.8764 52.8545 76.8608C53.0101 76.8141 53.1812 76.783 53.3367 76.7364H53.3523C55.499 76.1453 57.7079 75.383 59.9012 74.4808C61.9234 73.6408 64.0079 72.6453 66.2479 71.4475C67.6634 70.6853 69.4367 71.2141 70.199 72.6297C70.9612 74.0453 70.4323 75.8186 69.0167 76.5808C66.6056 77.8719 64.3656 78.9453 62.1412 79.8786C59.7301 80.8741 57.3034 81.7141 54.939 82.3675C54.7212 82.4297 54.519 82.4764 54.3012 82.5386C54.2079 82.5697 54.1145 82.5853 54.0212 82.6164L53.4456 82.7564C53.3212 82.7875 53.1812 82.8186 53.0256 82.8653C52.3256 83.0208 51.719 83.1297 51.1279 83.223C49.899 83.4097 48.5923 83.503 47.2545 83.503C47.1768 83.4408 47.1145 83.4408 47.0367 83.4408Z" fill="#FDDA24"/>
<path d="M151.416 68.6948C149.845 68.6948 148.336 67.777 147.667 66.2526L147.527 65.9259L147.372 65.6148C147.325 65.5215 147.279 65.4281 147.232 65.3504C147.17 65.2259 147.107 65.0859 147.045 64.9615C146.983 64.8526 146.936 64.7437 146.874 64.6504C146.687 64.3081 146.501 63.9815 146.345 63.717L146.33 63.7015C146.267 63.5926 146.19 63.4837 146.127 63.3748C146.081 63.2815 146.003 63.1726 145.972 63.1259L145.925 63.0637L145.412 62.3015C145.381 62.2393 145.303 62.1459 145.225 62.037C145.163 61.9437 145.085 61.8504 145.023 61.7726C144.976 61.7104 144.93 61.6637 144.899 61.6015C144.805 61.477 144.727 61.3681 144.665 61.3059L144.619 61.2437L144.059 60.5748C144.012 60.5126 143.919 60.4037 143.81 60.2948C143.732 60.2015 143.654 60.1237 143.576 60.0304L143.545 59.9993C143.343 59.7659 143.079 59.4859 142.799 59.2059C142.705 59.1126 142.612 59.0192 142.519 58.9259L142.487 58.8948C142.441 58.8481 142.347 58.7704 142.254 58.677C142.176 58.5993 142.099 58.537 142.021 58.4592C141.943 58.3815 141.865 58.3193 141.787 58.2415C141.694 58.1481 141.601 58.0704 141.554 58.0237C141.414 57.8993 141.274 57.7904 141.134 57.6659C140.87 57.4326 140.605 57.2148 140.387 57.0593L140.31 56.997C138.77 55.7837 137.043 54.6792 135.176 53.6992C133.294 52.7192 131.396 51.9104 129.545 51.3192C127.585 50.6815 125.61 50.2615 123.65 50.0437C121.674 49.8415 119.652 49.857 117.661 50.0904C115.654 50.3392 113.663 50.7904 111.75 51.4126C109.821 52.0504 107.907 52.8281 106.041 53.7615C104.019 54.757 101.576 53.9326 100.565 51.9104C99.5697 49.8881 100.394 47.4459 102.416 46.4348C104.625 45.3304 106.912 44.397 109.214 43.6504C111.641 42.857 114.145 42.297 116.681 41.9859H116.712C119.31 41.6904 121.939 41.6592 124.505 41.9237H124.536C127.056 42.2037 129.592 42.7481 132.081 43.557C134.367 44.3037 136.701 45.2837 138.987 46.4815C141.29 47.6948 143.421 49.0637 145.334 50.557C145.754 50.8681 146.127 51.1948 146.454 51.4748C146.563 51.5681 146.687 51.677 146.796 51.7704C147.03 51.957 147.232 52.1437 147.387 52.2992C147.45 52.3459 147.496 52.4081 147.559 52.4548L147.636 52.517C147.699 52.5637 147.745 52.6259 147.807 52.6726C147.963 52.8126 148.165 52.9993 148.383 53.217C148.461 53.2948 148.539 53.3881 148.632 53.4659C148.974 53.8081 149.347 54.197 149.736 54.6326C149.783 54.6948 149.845 54.7415 149.892 54.8037C150.047 54.9748 150.219 55.1615 150.39 55.3792L150.934 56.0326C151.152 56.2815 151.323 56.5304 151.479 56.7326L151.634 56.9348C151.681 56.997 151.727 57.0592 151.774 57.1215C151.914 57.2926 152.07 57.5104 152.241 57.7748L152.707 58.4592C152.894 58.7237 153.034 58.957 153.143 59.1437C153.174 59.2059 153.221 59.2681 153.252 59.3304C153.563 59.8281 153.827 60.3104 154.061 60.7304C154.123 60.8393 154.185 60.9481 154.232 61.057L154.279 61.1504C154.387 61.3526 154.481 61.5548 154.59 61.7726C154.621 61.8504 154.667 61.9281 154.699 62.0059L154.979 62.5815L155.15 62.9859C156.052 65.0548 155.103 67.4659 153.05 68.3681C152.521 68.5859 151.961 68.6948 151.416 68.6948Z" fill="#F5B6CD"/>
<path d="M56.1205 86.4746C54.5961 86.4746 53.1961 85.479 52.7605 83.9546C52.2161 82.1035 53.2894 80.159 55.1561 79.6146L55.6227 79.4746L57.0539 79.0235L58.4694 78.5257L59.8694 77.9968L60.8494 77.6079C61.2228 77.4524 61.6272 77.2813 62.0316 77.1102C62.2494 77.0168 62.4516 76.9235 62.6694 76.8301C65.0961 75.7413 67.4916 74.5124 69.825 73.1746C74.7717 70.3435 79.4383 67.0613 83.4205 64.199C84.9917 63.0791 87.185 63.4368 88.305 65.0079C89.425 66.579 89.0672 68.7724 87.4961 69.8924C83.3739 72.8479 78.5361 76.2546 73.3094 79.2413C70.7894 80.7035 68.1605 82.0413 65.5005 83.2235L65.4383 83.2546C65.2361 83.3479 65.0339 83.4257 64.8316 83.519C64.3805 83.7213 63.9139 83.9235 63.4161 84.1101L62.3739 84.5301L60.8027 85.1213L59.2161 85.6657L57.6139 86.179L57.1005 86.3346C56.7739 86.4279 56.4472 86.4746 56.1205 86.4746Z" fill="#00C389"/>
<path d="M97.1092 62.8917C95.787 62.8917 94.4803 62.2539 93.7026 61.0562C92.4581 59.1739 92.9714 56.6384 94.8537 55.394C97.3737 53.7295 99.4581 52.454 101.434 51.3651C101.869 51.1162 102.289 50.8984 102.694 50.6806C102.834 50.6028 102.974 50.5251 103.114 50.4628L103.223 50.4162C103.378 50.3384 103.534 50.2606 103.689 50.1828C104.094 49.9806 104.498 49.7784 104.949 49.5762C106.085 49.0317 107.267 48.534 108.558 48.0362C109.725 47.5851 110.954 47.1806 112.354 46.8073C113.567 46.4806 114.858 46.2006 116.305 45.9829C119.011 45.5784 121.734 45.5317 124.425 45.8429C126.665 46.0917 128.267 48.1295 128.018 50.3695C127.769 52.6095 125.731 54.2273 123.491 53.9628C121.5 53.7295 119.494 53.7762 117.503 54.0717C116.383 54.2428 115.403 54.4451 114.516 54.694H114.5C113.38 55.0051 112.385 55.3162 111.483 55.6739L111.467 55.6895C110.378 56.1095 109.383 56.5295 108.449 56.9806L108.371 57.0117C108.06 57.1517 107.718 57.3228 107.36 57.5095C107.205 57.5873 107.049 57.6651 106.894 57.7428C106.754 57.8206 106.629 57.8828 106.489 57.9606C106.116 58.1628 105.758 58.3495 105.431 58.5362L105.385 58.5673C103.596 59.5473 101.683 60.7295 99.3492 62.2695C98.6648 62.6584 97.8714 62.8917 97.1092 62.8917Z" fill="#FF7F41"/>
<path d="M145.208 97.239C144.757 97.239 144.306 97.1301 143.87 96.9123C142.439 96.1812 141.879 94.4234 142.61 92.9923C144.306 89.7101 145.519 86.4123 146.25 83.1923C147.028 79.7234 147.23 76.379 146.826 73.2679C146.701 72.3656 146.577 71.6345 146.39 70.919L146.359 70.8101C146.312 70.5768 146.234 70.3279 146.157 70.0479C146.126 69.9234 146.079 69.799 146.048 69.659C146.032 69.5968 146.001 69.5034 145.97 69.4101C145.939 69.3323 145.908 69.239 145.892 69.1612C145.861 69.0834 145.846 69.0056 145.814 68.9279C145.783 68.8501 145.752 68.7412 145.737 68.7101L145.706 68.6168C145.114 67.0612 144.414 65.6456 143.574 64.4168C142.657 63.0479 141.63 61.819 140.494 60.7456C139.343 59.6412 138.021 58.6145 136.59 57.6812C135.237 56.7945 134.863 54.9901 135.734 53.6523C136.621 52.299 138.426 51.9256 139.763 52.7967C141.49 53.9323 143.092 55.1767 144.508 56.5301C145.954 57.899 147.261 59.4545 148.412 61.1656C149.486 62.7523 150.403 64.5568 151.15 66.5479C151.243 66.7656 151.306 66.9679 151.352 67.1234C151.368 67.1701 151.383 67.2323 151.399 67.279L151.414 67.3412C151.43 67.4034 151.461 67.4656 151.477 67.5279C151.523 67.6834 151.601 67.8856 151.663 68.1034C151.694 68.2123 151.726 68.3212 151.757 68.4301C151.85 68.7568 151.959 69.1145 152.037 69.519C152.286 70.5145 152.457 71.5101 152.581 72.4434V72.4901C153.079 76.3012 152.846 80.3301 151.912 84.4679C151.072 88.1701 149.688 91.9345 147.774 95.6523C147.292 96.6634 146.266 97.239 145.208 97.239Z" fill="#59CBE8"/>
<path d="M55.0961 58.7266C63.6724 58.7266 70.6249 51.7741 70.6249 43.1979C70.6249 34.6216 63.6724 27.6691 55.0961 27.6691C46.5198 27.6691 39.5674 34.6216 39.5674 43.1979C39.5674 51.7741 46.5198 58.7266 55.0961 58.7266Z" fill="#00C389"/>
<path d="M50.7349 52.0298C50.3485 52.0298 49.9621 51.8642 49.6861 51.5882L45.5832 47.4852C44.9944 46.8965 44.9944 45.9581 45.5832 45.3877C46.1719 44.799 47.1103 44.799 47.6807 45.3877L50.7349 48.442L62.4734 36.7034C63.0622 36.1146 64.0005 36.1146 64.5709 36.7034C65.1597 37.2922 65.1597 38.2305 64.5709 38.8009L51.7836 51.5882C51.5076 51.8826 51.1397 52.0298 50.7349 52.0298Z" fill="white"/>
<path d="M103.491 150.204C120.793 150.204 134.82 136.177 134.82 118.875C134.82 101.572 120.793 87.5458 103.491 87.5458C86.1883 87.5458 72.1619 101.572 72.1619 118.875C72.1619 136.177 86.1883 150.204 103.491 150.204Z" fill="#E4AC7B"/>
<path d="M115.825 132.86L80.1718 126.684C76.3452 126.016 73.7941 122.391 74.4629 118.564L88.4474 37.9245C89.1163 34.0978 92.7407 31.5467 96.5674 32.2156L132.221 38.3911C136.047 39.06 138.599 42.6845 137.93 46.5111L123.945 127.151C123.276 130.962 119.636 133.529 115.825 132.86Z" fill="#FF7F41"/>
<path d="M98.9472 127.446C100.708 127.446 102.136 126.018 102.136 124.257C102.136 122.496 100.708 121.068 98.9472 121.068C97.186 121.068 95.7583 122.496 95.7583 124.257C95.7583 126.018 97.186 127.446 98.9472 127.446Z" fill="white"/>
<path d="M133.59 49.4514L121.037 121.816H121.006L78.9746 114.52L80.4213 106.167L91.5279 42.1558L133.59 49.4514Z" fill="white"/>
<path d="M80.4218 106.173L78.9746 114.526L121.016 121.81L122.463 113.456L80.4218 106.173Z" fill="#FDDA24"/>
<path d="M121.067 121.893L120.99 121.878L78.8806 114.582L78.8962 114.505L80.3584 106.089L80.4362 106.105L122.545 113.4L122.53 113.478L121.067 121.893ZM79.0673 114.458L120.958 121.722L122.374 113.525L80.4828 106.26L79.0673 114.458Z" fill="#FDDA24"/>
<path d="M132.921 127.323C131.023 132.005 128.145 136.267 124.443 139.798C123.619 140.591 122.872 141.571 122.203 142.645C121.425 143.905 117.07 145.211 115.732 144.169L108.996 131.709C108.887 130.294 108.95 128.847 109.199 127.4C110.194 121.629 113.943 117.009 118.843 114.66C120.399 113.914 120.741 113.649 122.483 113.385L123.759 106.058L119.574 91.5448C117.707 87.127 119.792 82.0248 124.21 80.1581C124.396 80.0803 124.583 80.0648 124.77 80.0959C125.096 80.1581 125.376 80.3603 125.516 80.687L130.65 92.867L135.099 103.32C136.156 105.794 136.53 108.5 136.172 111.16L135.736 114.583L135.612 115.594V115.625L135.254 118.394C134.85 121.489 134.056 124.491 132.921 127.323Z" fill="#E4AC7B"/>
<path d="M108.995 131.724L115.73 144.184C111.872 141.197 109.368 136.686 108.995 131.724Z" fill="#E4AC7B"/>
<path d="M135.612 115.625L135.597 115.64L135.612 115.625Z" fill="#CB913F"/>
<path d="M73.2492 112.638L69.3136 105.451C67.7425 102.589 68.8003 98.9954 71.6625 97.4399L76.8425 94.6088L83.6091 106.975C85.1802 109.838 84.1225 113.431 81.2603 114.986C78.4136 116.558 74.8203 115.5 73.2492 112.638Z" fill="#E4AC7B"/>
<path d="M75.3039 100.862L71.3683 93.6754C69.7972 90.8132 70.855 87.2199 73.7172 85.6643L78.8972 82.8332L85.6638 95.1999C87.2349 98.0621 86.1772 101.655 83.315 103.211C80.4527 104.782 76.8594 103.724 75.3039 100.862Z" fill="#E4AC7B"/>
<path d="M77.3388 89.0865L73.4032 81.8998C71.8321 79.0376 72.8899 75.4442 75.7521 73.8887L80.9321 71.0576L87.6987 83.4242C89.2699 86.2865 88.2121 89.8798 85.3499 91.4354C82.4876 93.0065 78.9099 91.9487 77.3388 89.0865Z" fill="#E4AC7B"/>
<path d="M82.9863 59.2672L84.8997 58.2872L83.8108 64.5405L82.9863 59.2672Z" fill="#E4AC7B"/>
<path d="M79.3771 77.3109L75.4415 70.1242C73.8704 67.2619 74.9282 63.6686 77.7904 62.113L82.9704 59.2819L89.7371 71.6486C91.3082 74.5109 90.2504 78.1042 87.3882 79.6598C84.5415 81.2309 80.9482 80.1731 79.3771 77.3109Z" fill="#E4AC7B"/>
<path d="M134.443 117.677C133.246 117.677 132.063 117.149 131.254 116.153C129.839 114.395 130.119 111.829 131.877 110.413C133.883 108.795 135.781 107.006 137.492 105.093C138.363 104.129 139.203 103.133 139.997 102.106C140.79 101.08 141.537 100.022 142.252 98.933C145.239 94.4063 147.386 89.6774 148.614 84.9019C149.174 82.7241 151.414 81.4019 153.592 81.9774C155.77 82.5374 157.092 84.7774 156.517 86.9552C155.054 92.6019 152.55 98.1397 149.05 103.444C148.226 104.689 147.339 105.917 146.437 107.1L146.421 107.115C145.503 108.297 144.539 109.449 143.543 110.553C141.537 112.793 139.328 114.893 136.963 116.775C136.248 117.382 135.346 117.677 134.443 117.677Z" fill="#9063CD"/>
<path d="M57.7121 131.573C61.7348 131.573 64.9958 128.312 64.9958 124.289C64.9958 120.266 61.7348 117.005 57.7121 117.005C53.6895 117.005 50.4285 120.266 50.4285 124.289C50.4285 128.312 53.6895 131.573 57.7121 131.573Z" fill="#FDDA24"/>
<path d="M57.711 131.601C53.6792 131.601 50.3999 128.321 50.3999 124.29C50.3999 120.258 53.6792 116.979 57.711 116.979C61.7428 116.979 65.0221 120.258 65.0221 124.29C65.0221 128.321 61.7483 131.601 57.711 131.601ZM57.711 117.033C53.7121 117.033 50.4548 120.285 50.4548 124.29C50.4548 128.294 53.7121 131.546 57.711 131.546C61.7154 131.546 64.9672 128.288 64.9672 124.29C64.9672 120.291 61.7154 117.033 57.711 117.033Z" fill="#FDDA24"/>
<path d="M57.7098 128.487C60.0275 128.487 61.9064 126.608 61.9064 124.29C61.9064 121.972 60.0275 120.094 57.7098 120.094C55.3921 120.094 53.5132 121.972 53.5132 124.29C53.5132 126.608 55.3921 128.487 57.7098 128.487Z" fill="#FF7F41"/>
<path d="M34.2224 117.711C40.6416 117.711 45.8453 112.507 45.8453 106.088C45.8453 99.6691 40.6416 94.4653 34.2224 94.4653C27.8033 94.4653 22.5996 99.6691 22.5996 106.088C22.5996 112.507 27.8033 117.711 34.2224 117.711Z" fill="#FDDA24"/>
<path d="M34.2214 117.755C27.7876 117.755 22.5547 112.522 22.5547 106.089C22.5547 99.655 27.7876 94.4221 34.2214 94.4221C40.6551 94.4221 45.888 99.655 45.888 106.089C45.888 112.522 40.6639 117.755 34.2214 117.755ZM34.2214 94.5098C27.8402 94.5098 22.6423 99.6988 22.6423 106.089C22.6423 112.479 27.8402 117.668 34.2214 117.668C40.6113 117.668 45.8004 112.47 45.8004 106.089C45.8004 99.7076 40.6113 94.5098 34.2214 94.5098Z" fill="#FDDA24"/>
<path d="M34.2223 112.785C37.9208 112.785 40.9191 109.786 40.9191 106.088C40.9191 102.39 37.9208 99.3913 34.2223 99.3913C30.5239 99.3913 27.5256 102.39 27.5256 106.088C27.5256 109.786 30.5239 112.785 34.2223 112.785Z" fill="#FF7F41"/>
<path d="M112.836 75.548C114.137 75.7773 115.377 74.9093 115.606 73.6086L115.619 73.5331C115.96 71.6032 115.361 69.5822 113.976 67.9877C113.186 67.0773 112.181 66.3443 111.045 65.83L111.329 64.2208C111.558 62.9201 110.69 61.6804 109.389 61.4511C108.089 61.2218 106.849 62.0898 106.62 63.3905L106.354 64.8966C104.943 64.9316 103.581 65.2875 102.395 65.9448C100.549 66.9695 99.2947 68.6638 98.9544 70.5937L98.8755 71.0411C98.5352 72.971 99.134 74.992 100.519 76.5865C101.8 78.0614 103.641 79.0741 105.702 79.4376L106.254 79.535C108.037 79.8494 109.415 81.1848 109.202 82.3921L109.066 83.165C108.853 84.3731 107.101 85.156 105.318 84.8416L104.766 84.7443C103.013 84.435 101.652 83.1387 101.811 81.9468C101.811 81.9428 101.812 81.9379 101.813 81.9339C102.042 80.6324 101.174 79.3917 99.8721 79.1622C98.5869 78.9356 97.3604 79.7809 97.1104 81.0561L97.1096 81.056C97.1079 81.0657 97.1062 81.0755 97.1053 81.0854C97.1043 81.0911 97.1025 81.0966 97.1015 81.1023C97.0974 81.125 97.0944 81.1471 97.0912 81.17C96.7939 83.0648 97.3952 85.0385 98.7529 86.6014C99.6416 87.6245 100.8 88.4248 102.114 88.9404L101.762 90.9385C101.533 92.2392 102.401 93.4789 103.701 93.7082C105.002 93.9376 106.242 93.0695 106.471 91.7689L106.841 89.6684C108.085 89.5739 109.28 89.2286 110.334 88.6435C112.181 87.6187 113.435 85.9244 113.775 83.9945L113.911 83.2216C114.251 81.2917 113.653 79.2707 112.268 77.6762C110.987 76.2013 109.146 75.1886 107.085 74.8251L106.532 74.7277C104.75 74.4134 103.372 73.0779 103.585 71.8706L103.664 71.4233C103.877 70.2152 105.628 69.4323 107.411 69.7467L107.963 69.844C109.746 70.1584 111.124 71.4938 110.911 72.7011L110.897 72.7766C110.668 74.0781 111.537 75.3188 112.836 75.548Z" fill="#00C389"/>
</svg>
