<svg width="1080" height="1080" viewBox="0 0 1080 1080" fill="none" xmlns="http://www.w3.org/2000/svg">
<path d="M280.469 379.553C282.574 414.691 295.528 456.93 295.528 567.065C295.528 704.056 284.517 790.201 280.469 856.591" stroke="#9063CD" stroke-width="7.423"/>
<path d="M302.329 389.08C302.329 391.33 292.324 393.155 279.983 393.155C267.641 393.155 257.637 391.33 257.637 389.08C257.637 386.829 279.983 358.178 279.983 358.178C279.983 358.178 302.329 386.829 302.329 389.08Z" fill="#9063CD"/>
<ellipse cx="291.367" cy="223.131" rx="147.676" ry="147.678" fill="#9063CD"/>
<path d="M429.914 401.898C431.857 431.369 423.307 509.742 373.563 587.467C311.383 684.624 278.836 786.638 281.75 847.361" stroke="#59CBE8" stroke-width="7.423"/>
<path d="M452.746 424.056C452.746 426.306 442.741 428.131 430.4 428.131C418.058 428.131 408.054 426.306 408.054 424.056C408.054 421.805 430.4 393.154 430.4 393.154C430.4 393.154 452.746 421.805 452.746 424.056Z" fill="#59CBE8"/>
<ellipse cx="441.572" cy="258.107" rx="147.676" ry="147.678" fill="#59CBE8"/>
<path d="M240.945 484.482C240.946 621.472 302.154 700.655 277.378 824.043" stroke="#FDDA24" stroke-width="7.423"/>
<path d="M262.32 492.066C262.32 494.316 252.315 496.141 239.974 496.141C227.633 496.141 217.628 494.316 217.628 492.066C217.628 489.815 239.974 461.164 239.974 461.164C239.974 461.164 262.32 489.815 262.32 492.066Z" fill="#FDDA24"/>
<ellipse cx="243.936" cy="327.088" rx="147.676" ry="147.678" fill="#FDDA24"/>
<rect x="424.92" y="706.058" width="503.364" height="232.806" fill="#F5B6CD"/>
<ellipse cx="676.602" cy="706.058" rx="251.682" ry="44.0443" fill="#F5B6CD"/>
<ellipse cx="676.602" cy="938.864" rx="251.682" ry="44.0443" fill="#F5B6CD"/>
<path d="M332.868 922.999C332.868 942.566 278.863 958.429 212.244 958.429C145.625 958.429 91.6201 942.566 91.6201 922.999C91.6201 903.431 212.244 654.314 212.244 654.314C212.244 654.314 332.868 903.431 332.868 922.999Z" fill="#FDDA24"/>
<ellipse cx="676.603" cy="706.058" rx="205.54" ry="25.1682" fill="white"/>
<circle cx="676.938" cy="882.067" r="32.5089" fill="#9063CD" stroke="#9063CD" stroke-width="2.09735"/>
<path d="M950.977 861.094C950.977 879.262 939.047 893.603 924.761 893.603C910.474 893.603 898.544 879.262 898.544 861.094C898.544 842.926 910.474 828.585 924.761 828.585C939.047 828.585 950.977 842.926 950.977 861.094Z" fill="#9063CD" stroke="#9063CD" stroke-width="2.09735"/>
<path d="M455.332 861.094C455.332 879.262 443.401 893.603 429.115 893.603C414.829 893.603 402.898 879.262 402.898 861.094C402.898 842.926 414.829 828.585 429.115 828.585C443.401 828.585 455.332 842.926 455.332 861.094Z" fill="#9063CD" stroke="#9063CD" stroke-width="2.09735"/>
<rect x="766.787" y="563.438" width="35.6549" height="138.425" fill="#FF7F41"/>
<rect x="659.822" y="563.438" width="35.6549" height="138.425" fill="#FF7F41"/>
<rect x="552.858" y="563.438" width="35.6549" height="138.425" fill="#FF7F41"/>
<ellipse cx="784.615" cy="563.438" rx="17.8275" ry="8.38939" fill="#FF7F41"/>
<ellipse cx="677.65" cy="563.438" rx="17.8275" ry="8.38939" fill="#FF7F41"/>
<ellipse cx="570.686" cy="563.438" rx="17.8275" ry="8.38939" fill="#FF7F41"/>
<ellipse cx="784.615" cy="701.863" rx="17.8275" ry="8.38939" fill="#FF7F41"/>
<ellipse cx="677.65" cy="701.863" rx="17.8275" ry="8.38939" fill="#FF7F41"/>
<ellipse cx="570.686" cy="701.863" rx="17.8275" ry="8.38939" fill="#FF7F41"/>
<path d="M810.832 502.615C810.832 526.735 799.296 540.368 783.566 540.368C767.836 540.368 756.301 526.735 756.301 502.615C756.301 478.496 783.566 450.182 783.566 450.182C783.566 450.182 810.832 478.496 810.832 502.615Z" fill="#FDDA24"/>
<path d="M703.868 502.615C703.868 526.735 692.333 540.368 676.602 540.368C660.872 540.368 649.337 526.735 649.337 502.615C649.337 478.496 676.602 450.182 676.602 450.182C676.602 450.182 703.868 478.496 703.868 502.615Z" fill="#FDDA24"/>
<path d="M596.903 502.615C596.903 526.735 585.368 540.368 569.638 540.368C553.907 540.368 542.372 526.735 542.372 502.615C542.372 478.496 569.638 450.182 569.638 450.182C569.638 450.182 596.903 478.496 596.903 502.615Z" fill="#FDDA24"/>
<mask id="mask0" mask-type="alpha" maskUnits="userSpaceOnUse" x="91" y="654" width="242" height="305">
<path d="M332.868 922.999C332.868 942.566 278.863 958.429 212.244 958.429C145.625 958.429 91.6201 942.566 91.6201 922.999C91.6201 903.431 212.244 654.314 212.244 654.314C212.244 654.314 332.868 903.431 332.868 922.999Z" fill="#FDDA24"/>
</mask>
<g mask="url(#mask0)">
<path d="M26.085 732.689C105.483 738.71 284.783 727.27 366.794 633.341" stroke="#9063CD" stroke-width="31.4602"/>
<path d="M26.085 807.381C105.483 813.403 284.783 801.962 366.794 708.033" stroke="#9063CD" stroke-width="31.4602"/>
<path d="M26.085 882.074C105.483 888.095 284.783 876.655 366.794 782.725" stroke="#9063CD" stroke-width="31.4602"/>
<path d="M26.085 956.766C105.483 962.787 284.783 951.347 366.794 857.417" stroke="#9063CD" stroke-width="31.4602"/>
</g>
<rect x="180.695" y="657.098" width="12.9903" height="63.0955" transform="rotate(-90 180.695 657.098)" fill="#9063CD"/>
<rect x="185.343" y="632.888" width="12.9903" height="63.0955" transform="rotate(-45 185.343 632.888)" fill="#9063CD"/>
<rect x="229.958" y="623.703" width="12.9903" height="63.0955" transform="rotate(45 229.958 623.703)" fill="#9063CD"/>
<rect x="205.748" y="619.055" width="12.9903" height="63.0955" fill="#9063CD"/>
<circle cx="777.32" cy="182.026" r="21.3411" fill="#FDDA24"/>
<circle cx="991.659" cy="449.254" r="21.3411" fill="#FDDA24"/>
<circle cx="970.318" cy="131.92" r="21.3411" fill="#FDDA24"/>
<circle cx="618.654" cy="139.344" r="21.3411" fill="#FDDA24"/>
<circle cx="82.3411" cy="118.002" r="21.3411" fill="#FDDA24"/>
<circle cx="649.273" cy="362.034" r="21.3411" fill="#FDDA24"/>
<circle cx="112.961" cy="678.439" r="21.3411" fill="#FDDA24"/>
<circle cx="903.511" cy="279.452" r="21.3411" fill="#FDDA24"/>
<circle cx="134.302" cy="524.411" r="21.3411" fill="#FDDA24"/>
<circle cx="860.828" cy="401.932" r="21.3411" fill="#FDDA24"/>
<circle cx="446.068" cy="611.632" r="21.3411" fill="#FDDA24"/>
<circle cx="982.38" cy="645.963" r="21.3411" fill="#FDDA24"/>
<circle cx="356.064" cy="491.936" r="21.3411" fill="#FDDA24"/>
<path d="M934 954.369C889.713 971.276 793.075 993 680.99 993C561.601 993 459.74 969.698 420 951" stroke="#FF7F41" stroke-width="36" stroke-linecap="round" stroke-linejoin="round"/>
<path d="M680.99 1018C640.963 1018 602.906 1015.38 568.5 1011.19C500.283 1002.89 446.416 988.43 420 976" stroke="#FDDA24" stroke-width="36" stroke-linecap="round" stroke-linejoin="round"/>
<path d="M421 738.369C465.287 755.276 561.925 777 674.01 777C793.399 777 895.26 753.698 935 735" stroke="#FF7F41" stroke-width="36" stroke-linecap="round" stroke-linejoin="round"/>
<path d="M674.01 807C793.399 807 895.26 783.698 935 765" stroke="#FDDA24" stroke-width="36" stroke-linecap="round" stroke-linejoin="round"/>
</svg>
