<svg width="1080" height="1080" viewBox="0 0 1080 1080" fill="none" xmlns="http://www.w3.org/2000/svg">
<path d="M795.334 491.6C791.834 491.6 788.534 489.8 786.534 486.7C783.634 481.9 785.134 475.5 789.934 472.6C807.534 461.9 821.634 442.5 821.734 442.3C825.034 437.7 831.434 436.6 836.034 440C840.634 443.3 841.734 449.7 838.434 454.3C837.734 455.2 821.834 477.3 800.634 490.2C798.934 491.1 797.134 491.6 795.334 491.6Z" fill="#F5B6CD"/>
<path d="M699.835 548.499C693.535 548.499 687.835 544.199 686.335 537.799C684.535 530.399 689.135 522.899 696.635 521.099C721.135 515.299 761.835 504.599 774.635 499.699C781.735 496.999 789.835 500.499 792.535 507.699C795.235 514.799 791.735 522.899 784.535 525.599C768.435 531.799 722.635 543.499 703.035 548.099C701.935 548.399 700.835 548.499 699.835 548.499Z" fill="#00C389"/>
<path d="M807.838 507.201C803.738 507.201 799.638 505.301 796.838 501.801C792.138 495.701 793.238 487.001 799.338 482.401C823.838 463.501 838.838 448.901 853.538 421.601C857.138 414.901 865.538 412.301 872.338 415.901C879.038 419.501 881.638 427.901 878.038 434.701C861.138 466.201 843.338 483.501 816.338 504.301C813.838 506.301 810.838 507.201 807.838 507.201Z" fill="#00C389"/>
<path d="M921.834 591.302L887.634 934.702C885.934 951.502 871.034 963.702 854.234 962.102C838.534 960.502 826.734 947.202 826.734 931.702L826.934 586.602C826.934 560.302 848.234 539.102 874.534 539.102C900.834 539.102 922.034 560.402 922.034 586.702C922.034 588.102 921.934 589.702 921.834 591.302Z" fill="#2C2A29"/>
<path d="M980.235 581.598L1024.04 927.898C1026.14 944.798 1014.14 960.298 997.235 962.498C981.335 964.498 966.635 953.898 963.235 938.598L886.635 597.998C880.835 572.398 896.935 546.998 922.635 541.198C948.335 535.398 973.635 551.498 979.435 577.198C979.735 578.598 980.035 580.098 980.235 581.598Z" fill="#2C2A29"/>
<path d="M715.337 556.2L698.537 563.4C694.537 565.1 689.937 563.3 688.237 559.3L670.237 517.6C668.537 513.6 670.337 509 674.337 507.3L691.137 500.1C695.137 498.4 699.737 500.2 701.437 504.2L719.437 545.9C721.137 549.8 719.337 554.5 715.337 556.2Z" fill="#59CBE8"/>
<path d="M422.335 531L401.935 526C397.135 524.8 394.135 519.9 395.335 515.1L407.835 464.4C409.035 459.6 413.935 456.6 418.735 457.8L439.135 462.8C443.935 464 446.935 468.9 445.735 473.7L433.235 524.4C432.135 529.3 427.235 532.2 422.335 531Z" fill="#59CBE8"/>
<path d="M929.586 341.179C940.85 313.029 930.154 282.276 905.696 272.489C881.239 262.702 852.28 277.588 841.016 305.738C829.752 333.887 840.448 364.641 864.906 374.428C889.364 384.214 918.322 369.328 929.586 341.179Z" fill="#E4AC7B"/>
<path d="M901.137 628.699H910.237C946.737 628.699 976.337 599.099 976.337 562.599V556.699H835.137V562.599C835.137 599.099 864.637 628.699 901.137 628.699Z" fill="#2C2A29"/>
<path d="M833.237 410.999L819.137 628.699L995.237 642.599C995.137 642.599 1008.24 341.099 833.237 410.999Z" fill="#FDDA24"/>
<path d="M995.635 643.201L818.535 629.201V628.701L832.735 410.701L833.035 410.601C871.335 395.301 903.635 396.701 929.135 414.701C967.435 441.901 983.435 502.401 990.135 548.401C997.435 598.201 995.635 642.201 995.635 642.601V643.201ZM819.635 628.201L994.635 642.001C994.835 636.801 996.035 595.201 989.135 548.501C982.435 502.701 966.535 442.401 928.535 415.501C903.435 397.701 871.535 396.301 833.735 411.401L819.635 628.201Z" fill="#FDDA24"/>
<path d="M751.134 584.801C734.634 584.801 718.134 582.501 702.334 577.701C695.234 575.601 691.334 568.101 693.434 561.101C695.534 554.101 703.034 550.101 710.034 552.201C748.634 563.901 792.234 558.301 826.734 537.301C837.734 530.601 847.934 522.201 856.934 512.501C861.934 507.101 870.434 506.801 875.834 511.801C881.234 516.801 881.534 525.301 876.534 530.701C865.834 542.201 853.734 552.101 840.634 560.101C813.934 576.401 782.534 584.801 751.134 584.801Z" fill="#9063CD"/>
<path d="M892.235 498.398C890.235 498.398 888.135 497.898 886.235 496.898C879.635 493.598 877.035 485.498 880.435 478.998C886.735 466.698 891.135 453.698 893.635 440.498C894.935 433.298 901.935 428.498 909.235 429.798C916.435 431.098 921.235 438.098 919.935 445.398C917.035 461.198 911.735 476.598 904.335 491.198C901.835 495.698 897.135 498.398 892.235 498.398Z" fill="#9063CD"/>
<path d="M811.137 586C806.737 586 802.737 583 801.637 578.6C800.337 573.4 803.537 568.1 808.837 566.8C843.737 558.3 869.237 528.7 869.437 528.4C872.937 524.3 879.037 523.8 883.137 527.3C887.237 530.8 887.737 536.9 884.237 541C883.037 542.4 854.337 575.8 813.337 585.7C812.637 585.9 811.837 586 811.137 586Z" fill="#FF7F41"/>
<path d="M742.337 565.3C739.637 565.3 737.837 565.2 737.637 565.2C732.237 565 728.037 560.5 728.237 555.1C728.437 549.8 732.737 545.7 737.937 545.7C738.037 545.7 738.137 545.7 738.237 545.7C738.537 545.7 768.737 546.6 790.337 539.7C795.437 538.1 800.937 540.9 802.537 546C804.137 551.1 801.337 556.6 796.237 558.2C776.737 564.5 752.437 565.3 742.337 565.3Z" fill="#FF7F41"/>
<path d="M551.535 581.4C549.735 581.4 547.835 581 546.035 580.3C542.835 579 539.735 577.6 536.735 576.3C529.735 573.2 523.135 570.3 516.735 568.1C508.335 565.2 499.135 563.3 489.535 562.4C470.835 560.8 451.935 563.7 434.935 570.9C427.835 573.9 419.635 570.5 416.635 563.4C413.635 556.3 417.035 548.1 424.135 545.1C445.335 536.2 468.835 532.6 492.035 534.6C504.035 535.7 515.435 538.1 525.935 541.8C533.435 544.4 540.835 547.7 548.035 550.8C550.935 552.1 553.935 553.4 557.035 554.7C564.135 557.7 567.435 565.9 564.435 573C562.235 578.2 557.035 581.4 551.535 581.4Z" fill="#F5B6CD"/>
<path d="M600.534 574.598C595.734 574.598 591.034 574.298 586.334 573.598C572.534 571.798 559.434 566.398 547.234 560.998L544.334 559.698C539.334 557.498 534.234 555.298 529.034 553.198C525.834 551.998 522.934 550.898 520.034 549.998L518.234 549.398C517.234 549.098 516.234 548.798 515.334 548.498L510.434 547.298C497.934 544.298 485.034 543.198 472.034 543.898C465.134 544.298 459.234 538.998 458.834 532.098C458.434 525.198 463.734 519.298 470.634 518.898C486.034 517.998 501.434 519.398 516.334 522.898H516.534L522.034 524.298C523.234 524.598 524.434 524.998 525.634 525.398L527.334 525.898C531.134 526.998 534.634 528.398 538.034 529.698L538.234 529.798C543.934 531.998 549.334 534.398 554.534 536.698L557.434 537.998C568.434 542.798 579.234 547.298 589.834 548.698H589.934C600.234 550.198 611.034 549.498 621.334 546.798C628.034 544.998 634.834 548.998 636.634 555.698C638.434 562.398 634.434 569.198 627.734 570.998C618.734 573.398 609.634 574.598 600.534 574.598Z" fill="#FDDA24"/>
<path d="M600.436 588.699C596.036 588.699 591.536 588.499 587.236 587.899C581.736 587.299 577.836 582.299 578.436 576.799C579.036 571.299 584.036 567.399 589.536 567.999C603.636 569.599 618.236 568.099 631.936 563.499C638.736 561.199 645.336 558.199 651.336 554.499C656.036 551.599 662.236 553.099 665.036 557.899C667.936 562.599 666.436 568.799 661.636 571.599C654.336 575.999 646.436 579.699 638.136 582.499C626.136 586.699 613.236 588.699 600.436 588.699Z" fill="#00C389"/>
<path d="M210.938 888.503C209.838 888.503 208.738 888.403 207.638 888.103C199.738 886.303 194.838 878.403 196.638 870.503L240.638 677.103C242.438 669.203 250.338 664.303 258.238 666.103C266.138 667.903 271.038 675.803 269.238 683.703L225.238 877.103C223.638 883.903 217.538 888.503 210.938 888.503Z" fill="#F5B6CD"/>
<path d="M379.137 647.301C336.637 647.301 294.237 634.201 259.237 610.101C222.437 584.801 194.137 547.701 179.437 505.501C176.737 497.801 180.837 489.501 188.437 486.801C196.137 484.101 204.437 488.201 207.137 495.801C219.737 532.101 244.137 564.101 275.837 585.901C307.537 607.701 346.137 619.001 384.537 617.901C384.737 617.901 384.837 617.901 385.037 617.901C392.937 617.901 399.437 624.201 399.737 632.101C399.937 640.201 393.637 647.001 385.537 647.201C383.337 647.201 381.237 647.301 379.137 647.301Z" fill="#00C389"/>
<path d="M267.691 420.132C283.12 404.013 281.397 377.325 263.842 360.521C246.288 343.717 219.549 343.161 204.12 359.28C188.691 375.398 190.415 402.087 207.969 418.891C225.524 435.695 252.262 436.25 267.691 420.132Z" fill="#E4AC7B"/>
<path d="M213.938 939.799C212.838 939.799 211.738 939.7 210.638 939.4C202.738 937.6 197.838 929.699 199.638 921.799L243.638 728.4C245.438 720.5 253.338 715.6 261.238 717.4C269.138 719.2 274.038 727.1 272.238 735L228.238 928.4C226.638 935.2 220.638 939.799 213.938 939.799Z" fill="#00C389"/>
<path d="M70.636 937.099C66.636 937.099 62.636 935.499 59.736 932.199C54.336 926.199 54.836 916.899 60.936 911.499C103.436 873.399 129.336 828.799 143.536 797.999C159.036 764.399 164.436 739.499 164.536 739.299C166.236 731.399 174.036 726.299 181.936 727.999C189.836 729.699 194.936 737.399 193.236 745.399C192.336 749.799 169.636 853.699 80.536 933.399C77.636 935.899 74.136 937.099 70.636 937.099Z" fill="#59CBE8"/>
<path d="M356.835 626.003C356.435 626.003 356.035 626.003 355.535 625.903C303.835 619.103 282.935 601.303 276.135 595.503C275.835 595.303 275.635 595.103 275.435 594.903C271.935 592.903 269.835 588.903 270.635 584.703C271.635 579.503 276.635 576.003 281.835 577.003C284.735 577.503 286.535 579.103 288.635 580.903C294.435 585.803 312.135 600.803 358.135 606.903C363.435 607.603 367.135 612.403 366.435 617.703C365.735 622.503 361.535 626.003 356.835 626.003Z" fill="#FDDA24"/>
<path d="M270.736 763.802L307.536 599.402H303.336C213.736 600.302 142.636 664.902 123.836 762.402L270.736 763.802Z" fill="#2C2A29"/>
<path d="M303.738 616.702L225.538 618.102L164.438 468.902C164.538 468.902 390.238 356.602 303.738 616.702Z" fill="#9063CD"/>
<path d="M304.635 547.799C267.935 547.799 232.335 538.999 201.235 521.999C194.135 518.099 191.535 509.199 195.335 502.099C199.235 494.999 208.135 492.399 215.235 496.199C274.735 528.499 352.535 525.199 409.035 487.799C415.835 483.299 424.935 485.199 429.335 491.899C433.735 498.599 431.935 507.799 425.235 512.199C393.035 533.499 354.735 545.699 314.535 547.399C311.335 547.699 307.935 547.799 304.635 547.799Z" fill="#FF7F41"/>
<path d="M305.636 531.001C270.136 531.001 244.236 521.801 242.636 521.201C237.636 519.401 235.036 513.801 236.836 508.901C238.636 503.901 244.136 501.301 249.136 503.101C249.936 503.401 304.936 522.701 362.036 502.301C367.036 500.501 372.536 503.101 374.336 508.101C376.136 513.101 373.536 518.601 368.536 520.401C346.336 528.401 324.636 531.001 305.636 531.001Z" fill="#FDDA24"/>
<path d="M648.638 417.2H449.237C421.437 417.2 398.938 394.6 398.938 366.9V167.3C398.938 139.5 421.537 117 449.237 117H648.737C676.537 117 699.037 139.6 699.037 167.3V366.8C699.037 394.6 676.438 417.2 648.638 417.2ZM449.237 129.8C428.537 129.8 411.737 146.6 411.737 167.3V366.8C411.737 387.5 428.537 404.3 449.237 404.3H648.737C669.438 404.3 686.237 387.5 686.237 366.8V167.3C686.237 146.6 669.438 129.8 648.737 129.8H449.237Z" fill="#FDDA24"/>
<path d="M435.435 195.099C431.935 195.099 429.035 192.199 429.035 188.699V175.799C429.035 158.099 443.435 143.699 461.135 143.699H473.935C477.435 143.699 480.335 146.599 480.335 150.099C480.335 153.599 477.435 156.499 473.935 156.499H461.135C450.535 156.499 441.935 165.099 441.935 175.699V188.499C441.835 192.199 438.935 195.099 435.435 195.099Z" fill="#FDDA24"/>
<path d="M666.335 195.101C662.835 195.101 659.935 192.201 659.935 188.701V175.801C659.935 165.201 651.335 156.601 640.735 156.601H627.935C624.435 156.601 621.535 153.701 621.535 150.201C621.535 146.701 624.435 143.801 627.935 143.801H640.735C658.435 143.801 672.835 158.201 672.835 175.901V188.701C672.735 192.201 669.835 195.101 666.335 195.101Z" fill="#FDDA24"/>
<path d="M640.634 387.501H627.834C624.334 387.501 621.434 384.601 621.434 381.101C621.434 377.601 624.334 374.701 627.834 374.701H640.634C651.234 374.701 659.834 366.101 659.834 355.501V342.701C659.834 339.201 662.734 336.301 666.234 336.301C669.734 336.301 672.634 339.201 672.634 342.701V355.501C672.734 373.101 658.334 387.501 640.634 387.501Z" fill="#FDDA24"/>
<path d="M473.935 387.499H461.135C443.435 387.499 429.035 373.099 429.035 355.399V342.599C429.035 339.099 431.935 336.199 435.435 336.199C438.935 336.199 441.835 339.099 441.835 342.599V355.399C441.835 365.999 450.435 374.599 461.035 374.599H473.935C477.435 374.599 480.335 377.499 480.335 380.999C480.335 384.499 477.435 387.499 473.935 387.499Z" fill="#FDDA24"/>
<path d="M538.035 259.199H473.935C470.435 259.199 467.535 256.299 467.535 252.799V188.599C467.535 185.099 470.435 182.199 473.935 182.199H538.035C541.535 182.199 544.435 185.099 544.435 188.599V252.699C544.435 256.299 541.535 259.199 538.035 259.199ZM480.335 246.399H531.635V195.099H480.335V246.399Z" fill="#59CBE8"/>
<path d="M627.836 259.199H563.736C560.236 259.199 557.336 256.299 557.336 252.799V188.599C557.336 185.099 560.236 182.199 563.736 182.199H627.836C631.336 182.199 634.236 185.099 634.236 188.599V252.699C634.236 256.299 631.336 259.199 627.836 259.199ZM570.136 246.399H621.436V195.099H570.136V246.399Z" fill="#F5B6CD"/>
<path d="M602.134 233.598H589.334C585.834 233.598 582.934 230.698 582.934 227.198V214.298C582.934 210.798 585.834 207.898 589.334 207.898H602.134C605.634 207.898 608.534 210.798 608.534 214.298V227.098C608.634 230.698 605.734 233.598 602.134 233.598Z" fill="#00C389"/>
<path d="M512.337 233.598H499.537C496.037 233.598 493.137 230.698 493.137 227.198V214.298C493.137 210.798 496.037 207.898 499.537 207.898H512.337C515.837 207.898 518.737 210.798 518.737 214.298V227.098C518.837 230.698 515.937 233.598 512.337 233.598Z" fill="#00C389"/>
<path d="M602.134 323.401H589.334C585.834 323.401 582.934 320.501 582.934 317.001V304.201C582.934 300.701 585.834 297.801 589.334 297.801H602.134C605.634 297.801 608.534 300.701 608.534 304.201V317.001C608.634 320.501 605.734 323.401 602.134 323.401Z" fill="#00C389"/>
<path d="M512.337 323.401H499.537C496.037 323.401 493.137 320.501 493.137 317.001V304.201C493.137 300.701 496.037 297.801 499.537 297.801H512.337C515.837 297.801 518.737 300.701 518.737 304.201V317.001C518.837 320.501 515.937 323.401 512.337 323.401Z" fill="#00C389"/>
<path d="M538.035 348.998H473.935C470.435 348.998 467.535 346.098 467.535 342.598V278.498C467.535 274.998 470.435 272.098 473.935 272.098H538.035C541.535 272.098 544.435 274.998 544.435 278.498V342.598C544.435 346.098 541.535 348.998 538.035 348.998ZM480.335 336.198H531.635V284.898H480.335V336.198Z" fill="#9063CD"/>
<path d="M627.836 348.998H563.736C560.236 348.998 557.336 346.098 557.336 342.598V278.498C557.336 274.998 560.236 272.098 563.736 272.098H627.836C631.336 272.098 634.236 274.998 634.236 278.498V342.598C634.236 346.098 631.336 348.998 627.836 348.998ZM570.136 336.198H621.436V284.898H570.136V336.198Z" fill="#FF7F41"/>
</svg>
