<svg width="1080" height="1080" viewBox="0 0 1080 1080" fill="none" xmlns="http://www.w3.org/2000/svg">
<path d="M846.76 527.186C844.36 527.186 841.86 526.886 839.36 526.186C825.06 522.086 816.66 507.186 820.76 492.786C825.86 474.986 826.26 456.686 821.96 439.886C816.96 420.086 804.96 401.286 788.16 387.086C771.46 372.786 750.96 363.986 730.66 362.186C715.76 360.886 704.86 347.786 706.16 332.886C707.46 317.986 720.56 307.086 735.46 308.386C766.86 311.186 798.06 324.486 823.16 345.986C848.36 367.386 866.46 396.086 874.26 426.586C880.86 452.586 880.26 480.586 872.66 507.586C869.36 519.486 858.56 527.186 846.76 527.186Z" fill="#F5B6CD"/>
<path d="M879.86 455.787C871.56 455.787 864.56 449.387 863.96 440.987C860.16 392.087 813.66 354.587 813.16 354.187C806.26 348.687 805.06 338.687 810.56 331.687C816.06 324.787 826.06 323.587 832.96 328.987C835.36 330.887 890.96 375.387 895.86 438.487C896.56 447.287 889.96 454.987 881.16 455.687C880.66 455.787 880.26 455.787 879.86 455.787Z" fill="#FF7F41"/>
<path d="M804.562 529.486C801.562 529.486 798.562 528.686 795.762 527.086C787.862 522.486 785.062 512.486 788.862 504.086C803.662 471.586 789.462 442.186 788.862 440.986L786.262 436.686C781.062 428.186 784.262 417.086 793.062 412.586C801.562 408.286 811.962 411.686 816.162 420.286C827.862 444.286 838.462 480.286 820.362 519.286C817.562 525.786 811.262 529.486 804.562 529.486Z" fill="#00C389"/>
<path d="M316.959 793.583C314.759 793.583 312.559 793.083 310.459 792.183C264.459 771.583 252.559 737.883 248.759 713.383C247.359 704.183 254.059 695.783 263.359 695.183C271.959 694.683 279.459 701.183 280.059 709.783L280.459 714.783C280.559 715.983 283.659 745.083 323.559 762.983C331.659 766.583 335.259 776.083 331.659 784.083C328.959 790.083 323.059 793.583 316.959 793.583Z" fill="#FF7F41"/>
<path d="M371.06 841.285C356.76 841.285 342.46 840.085 328.06 837.285C302.16 832.185 277.96 821.185 258.06 805.485C235.46 787.685 220.16 764.885 213.76 739.585C211.56 730.785 210.36 721.685 210.36 712.385C210.26 697.485 222.26 685.285 237.26 685.285H237.36C252.16 685.285 264.26 697.285 264.36 712.185C264.36 717.085 264.96 721.785 266.16 726.385C271.96 749.385 296.66 776.185 338.56 784.385C374.26 791.385 412.56 784.885 455.16 776.285C469.76 773.385 484.06 782.785 486.96 797.385C489.86 811.985 480.46 826.285 465.86 829.185C432.66 835.785 401.76 841.285 371.06 841.285Z" fill="#F5B6CD"/>
<path d="M599.959 945.485L325.659 877.885C298.459 871.185 281.859 843.685 288.559 816.485L446.859 173.585C453.559 146.385 481.059 129.785 508.259 136.485L782.559 204.085C809.759 210.785 826.359 238.285 819.659 265.485L661.359 908.385C654.659 935.585 627.159 952.185 599.959 945.485Z" fill="#9063CD"/>
<path d="M474.56 887.585C487.76 887.585 498.46 876.885 498.46 863.685C498.46 850.486 487.76 839.785 474.56 839.785C461.361 839.785 450.66 850.486 450.66 863.685C450.66 876.885 461.361 887.585 474.56 887.585Z" fill="white"/>
<path d="M787.782 284.047L466.672 204.91L325.652 777.12L646.762 856.257L787.782 284.047Z" fill="#DFDFDF"/>
<path d="M659.024 806.137L337.914 727L325.542 777.201L646.652 856.337L659.024 806.137Z" fill="#FDDA24"/>
<path d="M647.059 856.884L646.559 856.784L325.059 777.584L337.659 726.484L338.159 726.584L659.659 805.784L647.059 856.884ZM326.259 776.784L646.359 855.684L658.459 806.484L338.359 727.584L326.259 776.784Z" fill="#FDDA24"/>
<path d="M655.861 522.887C655.361 522.887 654.761 522.787 654.161 522.687L606.061 510.887C602.361 509.987 600.061 506.187 600.961 502.487C601.861 498.787 605.661 496.487 609.361 497.387L650.661 507.587L660.861 466.287C661.761 462.587 665.561 460.287 669.261 461.187C672.961 462.087 675.261 465.887 674.361 469.587L662.561 517.687C661.861 520.787 659.061 522.887 655.861 522.887Z" fill="white"/>
<path d="M512.761 353.786C512.261 353.786 511.661 353.686 511.061 353.586C507.361 352.686 505.061 348.886 505.961 345.186L517.761 297.086C518.161 295.286 519.361 293.786 520.861 292.786C522.461 291.886 524.361 291.586 526.061 291.986L574.061 303.786C577.761 304.686 580.061 308.486 579.161 312.186C578.261 315.886 574.461 318.186 570.761 317.286L529.461 307.086L519.261 348.386C518.761 351.686 515.961 353.786 512.761 353.786Z" fill="white"/>
<path d="M529.761 491.787C529.261 491.787 528.661 491.687 528.061 491.587L480.061 479.787C476.361 478.887 474.061 475.087 474.961 471.387L486.761 423.287C487.661 419.587 491.461 417.287 495.161 418.187C498.861 419.087 501.161 422.887 500.261 426.587L490.061 467.987L531.361 478.187C535.061 479.087 537.361 482.887 536.461 486.587C535.661 489.687 532.861 491.787 529.761 491.787Z" fill="white"/>
<path d="M686.961 396.787C686.461 396.787 685.861 396.687 685.261 396.587C681.561 395.687 679.261 391.887 680.161 388.187L690.361 346.887L649.061 336.687C645.361 335.787 643.061 331.987 643.961 328.287C644.861 324.587 648.661 322.287 652.361 323.187L700.461 334.987C702.261 335.387 703.761 336.587 704.761 338.087C705.661 339.687 705.961 341.587 705.561 343.287L693.761 391.387C692.961 394.587 690.061 396.787 686.961 396.787Z" fill="white"/>
<path d="M631.062 406.987C630.562 406.987 629.962 406.887 629.362 406.787C625.662 405.887 623.362 402.087 624.262 398.387L629.862 375.787C630.762 372.087 634.562 369.787 638.262 370.687C641.962 371.587 644.262 375.387 643.362 379.087L637.762 401.687C637.062 404.887 634.162 406.987 631.062 406.987Z" fill="white"/>
<path d="M555.261 388.288C554.761 388.288 554.161 388.188 553.561 388.088C549.861 387.188 547.561 383.388 548.461 379.688L554.061 357.088C554.961 353.388 558.761 351.088 562.461 351.988C566.161 352.888 568.461 356.688 567.561 360.388L561.961 382.988C561.161 386.188 558.361 388.288 555.261 388.288Z" fill="white"/>
<path d="M605.359 473.788C603.159 473.788 601.059 472.788 599.659 470.788C596.759 466.688 590.359 459.288 579.359 455.988C566.059 451.988 554.959 456.588 550.759 458.788C547.359 460.488 543.159 459.188 541.459 455.788C539.759 452.388 541.059 448.188 544.459 446.488C550.159 443.588 565.259 437.388 583.359 442.788C598.359 447.288 607.159 457.288 611.059 462.888C613.259 465.988 612.459 470.288 609.359 472.488C608.159 473.388 606.759 473.788 605.359 473.788Z" fill="white"/>
<path d="M590.559 433.788C590.059 433.788 589.459 433.688 588.859 433.588L576.559 430.588C574.559 430.088 572.959 428.788 572.059 426.988C571.159 425.188 571.059 423.088 571.859 421.188L589.059 380.388C590.559 376.888 594.559 375.188 598.159 376.688C601.659 378.188 603.359 382.188 601.859 385.788L587.859 419.188L592.359 420.288C596.059 421.188 598.359 424.988 597.459 428.688C596.459 431.688 593.659 433.788 590.559 433.788Z" fill="white"/>
<path d="M484.659 683.185L553.959 700.285C563.359 702.585 569.159 712.185 566.859 721.585C564.559 730.985 554.959 736.785 545.559 734.485L476.259 717.385C466.859 715.085 461.059 705.485 463.359 696.085C465.759 686.585 475.259 680.885 484.659 683.185Z" fill="#2C2A29"/>
<path d="M480.46 712.584C487.253 712.584 492.76 707.077 492.76 700.284C492.76 693.491 487.253 687.984 480.46 687.984C473.667 687.984 468.16 693.491 468.16 700.284C468.16 707.077 473.667 712.584 480.46 712.584Z" fill="white"/>
<path d="M305.261 357.686C299.261 357.686 293.861 353.686 292.261 347.686L283.561 314.486C281.661 307.286 285.961 299.986 293.161 298.086C313.661 292.686 325.961 271.686 320.561 251.186C317.961 241.286 311.661 232.886 302.761 227.786C293.861 222.586 283.561 221.186 273.561 223.786C253.061 229.186 240.761 250.186 246.161 270.686C248.061 277.886 243.761 285.186 236.561 287.086C229.361 288.986 222.061 284.686 220.161 277.486C211.061 242.686 231.961 206.886 266.761 197.786C283.661 193.386 301.261 195.786 316.261 204.586C331.361 213.386 342.061 227.586 346.461 244.386C354.461 274.786 339.561 305.886 312.461 319.386L318.061 340.886C319.961 348.086 315.661 355.386 308.461 357.286C307.561 357.586 306.361 357.686 305.261 357.686Z" fill="#59CBE8"/>
<path d="M316.463 400.385C316.063 400.385 315.562 400.385 315.162 400.285C314.762 400.285 314.262 400.185 313.862 400.085C312.962 399.885 312.163 399.685 311.363 399.285C310.563 398.985 309.762 398.485 309.062 398.085C308.662 397.885 308.363 397.585 307.963 397.285C307.663 396.985 307.263 396.685 306.963 396.385C304.463 393.885 303.062 390.385 303.062 386.885C303.062 383.385 304.463 379.885 306.963 377.385C307.263 377.085 307.563 376.785 307.963 376.485C308.263 376.185 308.662 375.985 309.062 375.685C309.762 375.185 310.563 374.785 311.363 374.485C312.163 374.185 312.962 373.885 313.862 373.685C314.262 373.585 314.762 373.485 315.162 373.485C316.062 373.385 316.963 373.385 317.763 373.485C318.163 373.485 318.663 373.585 319.063 373.685C319.963 373.885 320.763 374.085 321.563 374.485C322.363 374.785 323.162 375.285 323.862 375.685C324.262 375.885 324.563 376.185 324.963 376.485C325.263 376.785 325.663 377.085 325.963 377.385C328.463 379.885 329.862 383.385 329.862 386.885C329.862 390.385 328.463 393.885 325.963 396.385C325.663 396.685 325.363 396.985 324.963 397.285C324.663 397.585 324.262 397.785 323.862 398.085C323.162 398.585 322.363 398.985 321.563 399.285C320.763 399.585 319.963 399.885 319.063 400.085C318.663 400.185 318.163 400.285 317.763 400.285C317.363 400.385 316.863 400.385 316.463 400.385Z" fill="#59CBE8"/>
<path d="M679.76 628.684C661.46 628.684 644.06 627.584 628.36 626.684L600.76 624.984C585.86 624.084 574.56 611.284 575.46 596.384C576.36 581.484 589.16 570.184 604.06 571.084L631.66 572.784C688.06 576.184 737.76 577.184 775.76 553.784C788.46 545.984 805.06 549.984 812.86 562.684C820.66 575.384 816.66 591.984 803.96 599.784C765.56 623.484 720.56 628.684 679.76 628.684Z" fill="#F5B6CD"/>
<path d="M237.26 739.286C222.46 739.286 210.36 727.286 210.26 712.386C210.06 677.786 225.76 641.686 252.16 615.786C279.36 589.086 317.86 571.386 363.36 564.586C392.96 560.186 422.36 560.686 444.56 561.686C459.46 562.286 471.06 574.886 470.36 589.786C469.76 604.686 457.16 616.286 442.26 615.586C422.36 614.686 396.36 614.286 371.36 617.986C347.56 621.586 314.06 630.786 289.96 654.386C273.76 670.286 264.16 691.886 264.26 712.086C264.36 726.986 252.26 739.186 237.36 739.186C237.36 739.286 237.36 739.286 237.26 739.286Z" fill="#F5B6CD"/>
<path d="M515.062 635.087C514.562 635.087 514.062 635.087 513.662 634.987C446.662 628.987 378.162 634.887 377.562 634.987C368.762 635.787 360.962 629.287 360.262 620.487C359.462 611.687 365.962 603.887 374.762 603.187C377.662 602.887 446.762 596.987 516.562 603.187C525.362 603.987 531.862 611.787 531.062 620.587C530.262 628.787 523.262 635.087 515.062 635.087Z" fill="#FF7F41"/>
<path d="M201.461 705.685C200.961 705.685 200.461 705.685 200.061 705.585C190.461 704.785 183.261 696.385 184.061 686.685C184.161 685.685 186.161 662.985 199.361 636.485C216.961 601.285 246.261 575.085 284.161 560.785C293.161 557.385 303.261 561.885 306.761 570.985C310.161 579.985 305.561 590.085 296.561 593.585C225.361 620.485 218.961 688.985 218.861 689.685C218.161 698.785 210.461 705.685 201.461 705.685Z" fill="#00C389"/>
<path d="M671.761 585.485C671.661 585.485 671.561 585.485 671.461 585.485C625.861 584.785 546.761 579.685 543.361 579.485C533.761 578.885 526.361 570.485 527.061 560.885C527.661 551.285 536.061 543.885 545.661 544.585C546.461 544.685 627.261 549.885 671.961 550.585C681.661 550.785 689.361 558.685 689.161 568.385C689.161 577.785 681.361 585.485 671.761 585.485Z" fill="#00C389"/>
</svg>
