<svg width="1080" height="1080" viewBox="0 0 1080 1080" fill="none" xmlns="http://www.w3.org/2000/svg">
<path d="M567.99 379.735C567.29 384.335 563.89 388.335 559.19 389.635C552.59 391.535 545.79 387.735 543.89 381.135C543.49 379.735 542.99 378.035 542.49 376.235C540.89 370.335 537.59 357.935 534.89 354.635C533.99 353.535 532.69 351.835 528.29 353.635C526.59 354.335 525.09 354.935 526.29 361.535C527.59 368.235 523.19 374.735 516.49 376.035C509.79 377.335 503.29 372.935 501.99 366.235C498.69 349.335 504.89 336.435 518.89 330.635C532.29 325.135 545.89 328.435 554.39 339.235C559.69 346.035 562.99 357.035 566.39 369.735C566.89 371.435 567.29 372.935 567.69 374.335C568.19 376.235 568.19 378.035 567.99 379.735Z" fill="#9063CD"/>
<path d="M663.291 517.934C663.091 519.234 662.591 520.634 661.891 521.834C658.591 527.834 651.091 530.034 645.091 526.734C630.991 519.034 617.591 510.034 605.391 499.934C562.591 464.734 531.891 415.734 518.991 361.934C517.391 355.334 521.491 348.634 528.091 347.034C534.791 345.434 541.391 349.534 542.991 356.134C554.691 404.734 582.391 449.034 621.091 480.834C632.091 489.934 644.191 498.034 656.891 505.034C661.691 507.634 664.091 512.834 663.291 517.934Z" fill="#FF7F41"/>
<path d="M593.191 487.734C592.791 490.134 591.691 492.434 589.991 494.234C585.291 499.234 577.391 499.434 572.491 494.634C535.791 459.734 509.791 411.134 501.191 361.334C499.991 354.634 504.59 348.234 511.29 347.034C517.99 345.834 524.391 350.434 525.591 357.134C533.291 401.734 556.59 445.334 589.59 476.634C592.59 479.634 593.791 483.834 593.191 487.734Z" fill="#59CBE8"/>
<path d="M690.291 596.138C688.891 596.138 687.391 595.738 686.191 594.838C676.991 588.438 662.091 564.538 660.891 547.338C660.191 537.638 663.891 532.138 667.091 529.138C675.991 520.838 683.991 520.338 688.991 521.438C701.491 524.038 707.691 537.638 708.291 539.238C709.891 542.938 708.191 547.138 704.491 548.738C700.891 550.338 696.591 548.638 694.991 545.038C693.991 542.838 690.291 536.538 685.891 535.638C683.391 535.138 680.291 536.538 676.791 539.838C675.491 541.038 674.991 543.238 675.191 546.438C676.091 560.038 689.491 579.638 694.391 583.138C697.691 585.438 698.391 589.938 696.191 593.238C694.891 595.138 692.591 596.138 690.291 596.138Z" fill="#F5B6CD"/>
<path d="M768.09 607.936C743.49 607.936 724.79 597.036 712.09 585.836C692.39 568.436 682.99 547.136 682.59 546.236C680.99 542.536 682.69 538.336 686.39 536.736C690.09 535.136 694.29 536.836 695.89 540.436C695.99 540.736 704.59 560.136 722.09 575.336C744.69 595.036 771.19 598.736 800.89 586.436C804.59 584.936 808.79 586.636 810.29 590.336C811.79 594.036 810.09 598.236 806.39 599.736C792.29 605.636 779.49 607.936 768.09 607.936Z" fill="#00C389"/>
<path d="M770.99 623.638C770.59 623.638 770.19 623.638 769.79 623.638C765.79 623.538 762.59 620.338 762.69 616.338C762.79 612.338 766.09 609.138 769.99 609.238C787.79 609.438 806.39 603.238 825.39 590.638C828.69 588.438 833.19 589.338 835.39 592.638C837.59 595.938 836.69 600.438 833.39 602.638C812.39 616.638 791.39 623.638 770.99 623.638Z" fill="#9063CD"/>
<path d="M718.091 609.138C716.591 609.138 715.091 608.638 713.891 607.738C687.991 588.838 674.091 563.138 673.491 562.038C671.591 558.538 672.891 554.138 676.391 552.238C679.891 550.338 684.291 551.638 686.191 555.138C686.291 555.338 699.291 579.138 722.391 595.938C725.591 598.338 726.291 602.838 723.991 606.038C722.491 608.038 720.291 609.138 718.091 609.138Z" fill="#9063CD"/>
<path d="M899.292 690.734C833.892 690.734 776.592 743.734 771.092 809.034C765.592 874.334 814.192 927.334 879.592 927.334C944.992 927.334 1002.29 874.334 1007.79 809.034C1013.29 743.734 964.692 690.734 899.292 690.734ZM882.492 893.334C835.992 893.334 801.492 855.634 805.292 809.134C809.192 762.634 849.992 724.934 896.492 724.934C942.992 724.934 977.492 762.634 973.692 809.134C969.792 855.634 928.992 893.334 882.492 893.334Z" fill="#2C2A29"/>
<path d="M886.892 816.836C883.492 816.836 880.392 814.536 879.492 811.136L825.492 609.536C824.692 606.736 825.692 603.636 827.892 601.736C830.092 599.836 833.192 599.336 835.892 600.436L865.992 613.036L867.892 602.536C868.592 598.336 872.592 595.536 876.792 596.336C880.992 597.036 883.792 601.036 882.992 605.236L879.492 625.236C879.092 627.536 877.692 629.536 875.592 630.636C873.492 631.736 871.092 631.836 868.892 630.936L844.392 620.636L894.292 807.036C895.392 811.136 892.992 815.336 888.892 816.436C888.192 816.736 887.492 816.836 886.892 816.836Z" fill="#FF7F41"/>
<path d="M530.47 905.754C549.954 887.454 552.661 858.685 536.517 841.495C520.372 824.306 491.489 825.206 472.005 843.506C452.521 861.806 449.814 890.575 465.959 907.765C482.104 924.954 510.986 924.054 530.47 905.754Z" fill="#2C2A29"/>
<path d="M516.915 891.322C527.382 881.492 528.848 866.049 520.189 856.831C511.531 847.612 496.027 848.108 485.561 857.939C475.094 867.769 473.628 883.211 482.287 892.43C490.945 901.649 506.449 901.153 516.915 891.322Z" fill="#FF7F41"/>
<path d="M886.89 824.735L597.59 850.235L600.69 809.035H886.89C891.19 809.035 894.69 812.535 894.69 816.835C894.69 821.235 891.19 824.735 886.89 824.735Z" fill="#00C389"/>
<path d="M779.702 535.826C812.62 522.654 827.031 481.3 811.889 443.46C796.747 405.62 757.787 385.622 724.869 398.794C691.951 411.966 677.541 453.32 692.682 491.16C707.824 529.001 746.784 548.998 779.702 535.826Z" fill="#E4AC7B"/>
<path d="M687.192 497.734C687.192 497.734 764.092 584.134 708.992 705.134C689.592 747.734 521.992 705.134 521.992 705.134C521.992 705.134 538.192 530.034 687.192 497.734Z" fill="#E6DCCB"/>
<path d="M534.59 694.034V708.134C573.89 717.034 692.89 740.634 708.99 705.134C719.29 682.634 722.79 674.534 725.29 654.734L534.59 694.034Z" fill="#9063CD"/>
<path d="M811.392 809.236L739.492 741.636L608.692 782.736C560.792 782.736 521.992 743.936 521.992 696.036L728.992 664.136C754.792 660.136 780.692 670.236 796.992 690.536L857.992 766.136C868.592 779.336 867.092 798.536 854.392 809.736C842.092 820.736 823.392 820.536 811.392 809.236Z" fill="#59CBE8"/>
<path d="M797.089 415.336L775.789 422.136L682.589 451.936L681.489 449.536C669.189 421.836 684.79 391.236 716.39 381.136C747.99 371.036 783.689 385.236 795.989 412.936L797.089 415.336Z" fill="#FF7F41"/>
<path d="M761.891 427.034L802.691 413.934L824.291 386.234L761.891 427.034Z" fill="#59CBE8"/>
<path d="M682.691 778.237L552.891 829.137L465.891 676.737C476.791 672.537 489.191 676.337 495.891 686.037L569.791 792.737L664.791 764.937C673.691 762.237 682.691 768.937 682.691 778.237Z" fill="#FF7F41"/>
<path d="M905.993 820.036L869.193 841.335C861.593 845.735 851.893 843.136 847.493 835.536C843.093 827.936 845.693 818.235 853.293 813.835L890.093 792.536C897.693 788.136 907.393 790.735 911.793 798.335C916.193 805.935 913.593 815.736 905.993 820.036Z" fill="#FDDA24"/>
<path d="M861.193 843.936C855.493 843.936 849.993 841.036 846.993 835.736C844.793 831.936 844.193 827.536 845.393 823.336C846.493 819.136 849.193 815.536 852.993 813.336L889.793 792.036C893.593 789.836 897.993 789.236 902.193 790.436C906.393 791.536 909.993 794.236 912.193 798.036C916.693 805.836 913.993 815.936 906.193 820.436L869.393 841.736C866.793 843.236 863.993 843.936 861.193 843.936ZM897.993 790.936C895.293 790.936 892.693 791.636 890.293 793.036L853.493 814.336C849.893 816.436 847.393 819.736 846.293 823.736C845.193 827.736 845.793 831.836 847.793 835.436C851.993 842.836 861.493 845.336 868.793 841.036L905.593 819.736C912.993 815.536 915.493 806.036 911.193 798.736C909.093 795.136 905.793 792.636 901.793 791.536C900.693 791.036 899.393 790.936 897.993 790.936Z" fill="#FDDA24"/>
<path d="M604.492 808.234L493.392 869.134C490.792 870.534 489.392 873.334 489.692 876.334C490.292 881.434 495.892 884.334 500.392 881.834L597.692 850.234L604.492 808.234Z" fill="#00C389"/>
<path d="M671.292 638.837C669.892 638.837 668.592 638.537 667.192 637.937C654.792 632.237 628.992 605.537 624.792 582.437C622.492 569.737 627.192 561.837 631.592 557.437C641.292 547.737 651.592 543.337 662.292 544.537C679.192 546.437 689.292 561.537 690.392 563.337C693.292 567.837 691.892 573.837 687.392 576.737C682.892 579.637 676.892 578.237 673.992 573.737C672.392 571.237 666.692 564.537 660.092 563.837C655.592 563.337 650.692 565.837 645.392 571.137C644.692 571.837 642.992 573.537 643.992 578.937C646.792 594.337 666.992 616.337 675.392 620.237C680.292 622.437 682.392 628.237 680.192 633.137C678.492 636.737 674.992 638.837 671.292 638.837Z" fill="#F5B6CD"/>
<path d="M769.388 640.538C741.988 640.538 719.788 631.838 703.488 622.038C672.988 603.838 656.788 578.638 656.188 577.538C653.288 573.038 654.688 567.038 659.188 564.138C663.688 561.238 669.688 562.638 672.588 567.138C672.788 567.338 687.288 589.938 714.088 605.738C749.288 626.438 788.288 626.338 830.188 605.338C834.988 602.938 840.788 604.838 843.188 609.638C845.588 614.438 843.688 620.238 838.888 622.638C813.088 635.738 789.788 640.538 769.388 640.538Z" fill="#00C389"/>
<path d="M788.889 658.936C783.989 658.936 779.789 655.236 779.289 650.336C778.689 645.036 782.489 640.236 787.889 639.636C813.889 636.736 840.389 625.436 866.389 606.136C870.689 602.936 876.789 603.836 879.989 608.136C883.189 612.436 882.289 618.536 877.989 621.736C849.189 643.136 819.589 655.636 790.089 658.936C789.689 658.936 789.289 658.936 788.889 658.936Z" fill="#9063CD"/>
<path d="M712.69 650.036C711.29 650.036 709.89 649.736 708.49 649.036C669.09 630.036 645.79 600.336 644.79 599.136C641.49 594.936 642.29 588.736 646.49 585.536C650.69 582.236 656.79 583.036 660.09 587.236C660.29 587.536 681.69 614.636 716.79 631.536C721.59 633.836 723.69 639.636 721.29 644.536C719.79 647.936 716.39 650.036 712.69 650.036Z" fill="#9063CD"/>
<path d="M317.893 905.535C310.593 905.535 303.093 904.135 295.793 901.335C264.993 889.135 249.893 854.335 262.093 823.435L296.693 736.035C311.193 699.435 309.093 658.435 290.893 623.535L229.093 504.735C213.793 475.335 225.193 439.135 254.593 423.835C283.993 408.535 320.193 419.935 335.493 449.335L397.293 568.135C431.493 633.935 435.493 711.235 408.293 780.235L373.693 867.635C364.393 891.135 341.793 905.535 317.893 905.535Z" fill="#2C2A29"/>
<path d="M132.991 889.735C121.891 889.735 110.591 886.635 100.491 880.135C72.691 862.135 64.591 825.035 82.591 797.235L316.391 434.835C334.391 407.035 371.491 398.935 399.291 416.935C427.091 434.935 435.191 472.035 417.191 499.835L183.391 862.235C171.891 880.035 152.691 889.735 132.991 889.735Z" fill="#2C2A29"/>
<path d="M584.791 312.537L422.391 566.937L216.191 435.437L242.391 397.437C318.691 286.737 465.591 250.237 584.791 312.537Z" fill="#00C389"/>
<path d="M567.29 566.937C564.79 566.937 562.39 566.137 560.39 564.337C546.69 552.637 534.19 539.537 523.09 525.637C484.39 477.037 462.19 416.037 460.69 353.937C460.49 348.037 465.19 343.137 471.09 343.037C476.99 342.937 481.89 347.537 481.99 353.437C483.49 410.937 503.99 467.437 539.79 512.437C549.99 525.337 561.69 537.337 574.29 548.237C578.79 552.037 579.29 558.737 575.39 563.237C573.19 565.737 570.29 566.937 567.29 566.937Z" fill="#59CBE8"/>
<path d="M597.59 614.337C595.89 614.337 594.09 613.937 592.49 613.037C563.59 597.037 537.49 574.937 516.99 548.937C513.39 544.337 514.09 537.637 518.79 534.037C523.39 530.437 530.09 531.137 533.69 535.837C552.39 559.537 576.29 579.837 602.79 594.437C607.89 597.237 609.79 603.737 606.99 608.937C604.99 612.337 601.39 614.337 597.59 614.337Z" fill="#00C389"/>
<path d="M494.191 391.035C488.691 391.035 483.991 386.735 483.591 381.135C483.491 379.435 483.391 377.535 483.291 375.435C482.891 367.635 482.091 353.235 479.691 348.335C478.391 345.735 475.891 342.435 468.891 343.735C466.191 344.235 462.191 344.935 461.991 355.335C461.891 361.135 457.191 365.735 451.391 365.735C451.291 365.735 451.291 365.735 451.191 365.735C445.291 365.635 440.691 360.835 440.791 354.935C441.091 336.935 449.791 325.535 465.091 322.735C479.891 320.035 492.491 326.135 498.791 338.835C502.791 347.035 503.791 359.735 504.591 374.235C504.691 376.235 504.791 378.035 504.891 379.635C505.291 385.535 500.891 390.535 494.991 390.935C494.691 391.035 494.391 391.035 494.191 391.035Z" fill="#9063CD"/>
<path d="M496.59 516.837C493.19 516.837 489.89 515.237 487.79 512.237C455.69 465.337 438.59 406.037 440.79 349.437C440.99 343.537 445.99 339.037 451.79 339.237C457.69 339.437 462.19 344.437 461.99 350.237C459.89 402.337 475.69 456.937 505.29 500.137C508.59 504.937 507.39 511.637 502.49 514.937C500.79 516.237 498.69 516.837 496.59 516.837Z" fill="#FF7F41"/>
<path d="M625.762 304.557C653.412 275.671 650.276 227.797 618.757 197.627C587.239 167.456 539.273 166.414 511.623 195.3C483.973 224.185 487.11 272.06 518.628 302.23C550.147 332.401 598.112 333.442 625.762 304.557Z" fill="#E4AC7B"/>
<path d="M495.291 273.736H573.291C580.891 273.736 586.991 267.636 586.991 260.036V214.036C586.991 206.436 580.891 200.336 573.291 200.336H502.791C492.991 213.936 487.991 231.136 489.591 249.936C490.291 258.236 492.291 266.236 495.291 273.736Z" fill="#E6DCCB"/>
<path d="M646.99 291.938H603.59L606.79 284.038C609.29 277.838 615.39 273.738 622.09 273.738H647.09V291.938H646.99Z" fill="#E6DCCB"/>
</svg>
