<svg width="1080" height="1080" viewBox="0 0 1080 1080" fill="none" xmlns="http://www.w3.org/2000/svg">
<path d="M263.802 586C262.702 585.5 261.602 584.9 260.602 584.2C252.602 578.3 245.802 570 240.802 560.3C238.602 556.2 236.702 551.6 235.002 546.2C233.602 542 232.402 537.3 231.302 531.4V531.1L230.702 527.2L230.202 523.3C230.102 522.8 230.102 522.3 230.002 521.8L229.802 519.8C229.802 519.5 229.702 519.1 229.702 518.8C229.602 517.9 229.502 517 229.502 516.1C229.202 511.4 229.202 506.4 229.302 501.2V501C229.602 495.3 230.002 490.5 230.702 486C231.602 480.2 232.602 475.5 233.802 471.1C235.202 466 236.802 461.1 238.702 456.7L238.802 456.5L240.302 453.1C240.702 452.3 241.102 451.6 241.502 450.8C241.702 450.5 241.802 450.2 242.002 449.9L242.902 448.3L246.102 443C251.402 434.4 257.802 426.5 265.002 419.3C272.402 412 280.402 405.8 288.902 400.7C296.202 396.4 305.602 398.8 310.002 406.1C314.302 413.4 311.902 422.8 304.602 427.2C298.202 431 292.202 435.7 286.602 441.2C281.102 446.6 276.302 452.7 272.302 459.1L269.502 463.9C269.302 464.3 269.102 464.7 268.902 465.1C268.702 465.5 268.502 465.8 268.302 466.2L267.102 468.8C265.802 471.9 264.602 475.4 263.602 479.1C262.702 482.4 262.002 486 261.302 490.6C260.802 494 260.402 497.7 260.202 502.4C260.102 506.6 260.102 510.6 260.302 514.3V514.5C260.302 515 260.402 515.5 260.402 516C260.402 516.5 260.502 516.9 260.502 517.4L260.602 518.9C260.602 519.1 260.602 519.2 260.702 519.4L261.202 523.1L261.702 525.9C262.502 530.3 263.302 533.7 264.302 536.5V536.6C265.502 540.4 266.802 543.5 268.102 546L268.202 546.2C271.002 551.7 274.702 556.3 279.002 559.5C285.802 564.6 287.202 574.2 282.202 581C277.902 586.8 270.202 588.7 263.802 586Z" fill="#00C389"/>
<path d="M219.201 522.201C213.301 519.701 209.101 513.801 209.201 506.901C209.301 492.501 211.101 478.601 214.601 465.601C216.701 458.001 219.101 451.201 222.201 444.801C222.801 443.401 223.501 442.201 224.101 441.101C224.301 440.701 224.501 440.301 224.701 439.901L224.901 439.501C225.601 438.301 226.201 437.201 226.801 436.201C227.001 435.801 227.301 435.401 227.501 435.101C228.901 432.501 230.501 430.201 231.901 428.201C232.301 427.601 232.701 427.001 233.101 426.401L233.501 425.901C236.501 421.701 241.101 415.501 246.601 409.701C248.501 407.601 250.401 405.701 252.101 404.101C252.701 403.601 253.201 403.001 253.801 402.501L254.201 402.101C255.101 401.301 256.001 400.501 256.901 399.701C257.301 399.401 257.601 399.101 258.001 398.701L260.201 396.701C260.701 396.301 261.201 395.901 261.701 395.501L266.701 391.601L270.401 388.901C272.101 387.701 273.601 386.701 275.001 385.801L275.301 385.601C275.701 385.401 276.101 385.101 276.401 384.901C277.401 384.201 278.601 383.501 279.901 382.801L283.801 380.601C285.001 379.901 286.001 379.401 286.801 379.001L288.701 378.101C291.301 376.801 293.801 375.701 296.001 374.701C296.701 374.401 297.401 374.101 298.101 373.801L298.801 373.501C306.001 370.801 312.601 368.701 319.001 367.301C320.401 367.001 321.701 366.701 322.901 366.501C323.301 366.401 323.801 366.301 324.201 366.301L327.101 365.801C327.801 365.701 328.501 365.601 329.201 365.501L330.101 365.401C330.601 365.301 331.001 365.301 331.501 365.201C332.701 365.001 333.901 364.901 335.101 364.801H335.601L340.101 364.501C341.801 364.401 343.401 364.401 344.601 364.301C345.001 364.301 345.401 364.301 345.701 364.301H346.001C346.301 364.301 346.701 364.301 347.001 364.301C348.301 364.301 349.901 364.301 351.701 364.401L356.901 364.701C358.101 364.801 359.301 365.001 360.501 365.101L362.701 365.301C363.301 365.401 364.101 365.501 365.001 365.601L370.401 366.601C371.201 366.701 372.201 366.901 373.401 367.201L377.701 368.201C379.101 368.501 380.201 368.901 381.101 369.201L383.101 369.801C386.001 370.601 388.601 371.601 390.901 372.501C391.601 372.801 392.301 373.001 393.001 373.301L393.401 373.401L393.801 373.601C394.901 374.101 396.001 374.601 397.101 375.101L401.501 377.101L404.901 378.901C406.001 379.501 407.001 380.001 408.001 380.601L408.601 381.001L412.801 383.601C413.001 383.701 413.101 383.801 413.301 383.901C413.801 384.201 414.501 384.701 415.301 385.201L418.601 387.501C419.601 388.201 420.601 388.901 421.501 389.601L422.001 390.001L428.201 395.101L433.701 400.201C434.501 401.001 435.301 401.701 436.001 402.501L437.201 403.701C442.401 409.001 446.601 413.701 450.401 418.401C456.101 425.501 454.901 435.801 447.801 441.501C440.701 447.201 430.401 446.001 424.701 438.901C421.601 435.101 418.201 431.201 413.801 426.701L412.801 425.701C412.201 425.101 411.601 424.501 411.001 423.901L406.401 419.701L401.601 415.801C400.901 415.301 400.301 414.801 399.601 414.401L396.601 412.301C396.401 412.201 396.301 412.101 396.101 412.001C395.801 411.801 395.601 411.701 395.301 411.501L391.701 409.301C391.001 408.901 390.201 408.501 389.501 408.101L386.601 406.501L383.601 405.101C382.801 404.801 382.101 404.401 381.301 404.101C380.601 403.801 379.901 403.601 379.301 403.301C377.401 402.601 375.701 401.901 374.201 401.501L373.801 401.401L371.401 400.701C370.801 400.501 370.601 400.501 370.601 400.501L370.301 400.401L365.501 399.201C365.301 399.201 365.101 399.101 364.901 399.101L360.001 398.201C359.801 398.201 359.601 398.101 359.301 398.101C359.001 398.101 358.701 398.001 358.401 398.001L357.001 397.801C356.101 397.701 355.301 397.601 354.401 397.501L349.701 397.201C349.201 397.201 348.401 397.201 347.601 397.201C347.201 397.201 346.801 397.201 346.401 397.201C345.901 397.201 345.401 397.201 344.901 397.201C344.201 397.201 343.401 397.201 343.001 397.201H342.601L338.201 397.501C337.401 397.601 336.601 397.701 335.801 397.801C335.301 397.901 334.801 397.901 334.301 398.001C334.001 398.001 333.701 398.101 333.401 398.101C333.101 398.101 332.901 398.201 332.601 398.201L330.601 398.601C330.001 398.701 329.401 398.801 328.901 398.901C328.101 399.001 327.401 399.201 326.901 399.301L326.501 399.401C321.801 400.401 316.701 402.001 311.201 404.101C310.501 404.401 309.801 404.701 309.101 405.001C307.201 405.801 305.501 406.501 304.001 407.301L303.701 407.501L301.501 408.601C301.301 408.701 300.801 408.901 300.601 409.101L300.401 409.201L296.301 411.501C295.801 411.801 295.201 412.201 294.501 412.601C294.001 412.901 293.501 413.301 293.001 413.601L292.901 413.701C291.901 414.401 290.901 415.001 290.101 415.501L289.901 415.701L286.401 418.201L282.401 421.401C282.101 421.601 281.901 421.801 281.601 422.001L280.101 423.301C279.701 423.701 279.301 424.001 278.901 424.401C278.301 424.901 277.701 425.501 277.101 426.001C276.501 426.601 276.001 427.101 275.401 427.701C273.901 429.101 272.601 430.501 271.501 431.701L271.101 432.201C267.901 435.601 264.801 439.501 260.901 444.901C260.501 445.501 260.101 446.101 259.701 446.701C258.501 448.401 257.401 450.101 256.601 451.601L256.501 451.801C256.201 452.301 255.901 452.801 255.601 453.301C255.201 454.001 254.801 454.701 254.401 455.301C254.201 455.801 253.901 456.201 253.701 456.701C253.301 457.501 252.901 458.301 252.601 458.901L252.501 459.101C250.301 463.801 248.501 468.801 246.901 474.501C244.201 484.701 242.701 495.801 242.601 507.401C242.501 516.501 235.101 523.801 226.001 523.701C223.201 523.501 221.101 523.001 219.201 522.201Z" fill="#FF7F41"/>
<path d="M447.101 426.799C441.501 424.199 437.201 418.999 436.101 412.399C431.601 387.599 416.701 363.799 395.101 347.299C394.901 347.199 394.801 347.099 394.601 346.899L392.501 345.499C388.301 342.699 384.401 340.599 380.601 339.099C370.501 335.099 365.501 323.599 369.501 313.499C373.501 303.399 385.001 298.399 395.101 302.399C401.501 304.899 407.901 308.299 414.401 312.699L416.601 314.199C416.901 314.399 417.101 314.499 417.301 314.699L417.401 314.799L419.101 316.099C448.401 338.599 468.701 371.199 474.901 405.499C476.801 416.199 469.701 426.499 459.001 428.399C454.801 429.099 450.601 428.499 447.101 426.799Z" fill="#59CBE8"/>
<path d="M671.9 900.9L408.4 901C380.2 901 357.3 878.1 357.3 849.9L357 253.7C357 225.5 379.9 202.6 408.1 202.6L671.6 202.5C699.8 202.5 722.7 225.4 722.7 253.6L722.9 849.7C723 878 700.2 900.9 671.9 900.9Z" fill="#59CBE8"/>
<path d="M540.098 883.298C552.911 883.298 563.298 872.911 563.298 860.098C563.298 847.285 552.911 836.898 540.098 836.898C527.285 836.898 516.898 847.285 516.898 860.098C516.898 872.911 527.285 883.298 540.098 883.298Z" fill="white"/>
<path d="M695.4 280.199L695.6 815.099H695.4L384.6 815.199V753.499L384.5 280.299L695.4 280.199Z" fill="white"/>
<path d="M619.697 584.801C611.997 584.801 605.797 578.601 605.797 570.901V455.201C605.797 447.501 611.997 441.301 619.697 441.301C627.397 441.301 633.597 447.501 633.597 455.201V570.901C633.597 578.601 627.397 584.801 619.697 584.801Z" fill="#F5B6CD"/>
<path d="M606.498 540.104C600.998 540.104 596.598 535.704 596.598 530.204V434.704C596.598 434.104 596.598 433.704 596.598 433.204V431.204C596.598 430.804 596.498 430.404 596.498 429.904C596.498 429.204 596.398 428.504 596.298 428.004V427.804C595.298 419.004 592.098 410.604 586.998 403.504C583.798 399.004 584.798 392.804 589.298 389.604C593.798 386.404 599.998 387.404 603.198 391.904C610.298 401.704 614.698 413.304 616.098 425.504C616.198 426.604 616.298 427.604 616.398 428.504C616.398 428.904 616.498 429.304 616.498 429.704V430.304L616.598 432.504C616.598 433.204 616.598 433.904 616.598 434.604V530.004C616.498 535.704 611.998 540.104 606.498 540.104Z" fill="#FDDA24"/>
<path d="M481.998 494.501C474.298 494.501 468.098 488.301 468.098 480.601V433.501V431.901C468.098 430.301 468.198 428.901 468.298 427.701C468.498 425.201 468.898 422.501 469.398 419.501C471.398 408.801 475.898 398.401 482.498 389.301C488.798 380.501 497.298 372.901 506.998 367.501C513.698 363.701 522.198 366.101 525.898 372.801C529.698 379.501 527.298 388.001 520.598 391.701C514.398 395.201 508.998 400.001 504.998 405.501C500.798 411.301 497.898 417.901 496.698 424.601C496.298 426.501 496.098 428.201 495.998 429.801V429.901C495.898 430.801 495.898 431.601 495.898 432.201V480.601C495.898 488.201 489.698 494.501 481.998 494.501Z" fill="#F5B6CD"/>
<path d="M618.897 434.902C613.097 434.902 607.997 430.602 607.097 424.702C605.397 413.302 600.397 402.102 592.997 393.202C585.597 384.302 575.497 377.402 564.497 373.702C558.297 371.602 554.897 364.902 556.997 358.602C559.097 352.402 565.797 349.002 572.097 351.102C587.497 356.202 600.997 365.502 611.397 377.902C621.797 390.302 628.497 405.302 630.797 421.302C631.697 427.802 627.197 433.902 620.697 434.802C620.097 434.802 619.497 434.902 618.897 434.902Z" fill="#00C389"/>
<path d="M474.799 418.402C472.999 418.402 471.099 418.002 469.299 417.302C462.199 414.302 458.999 406.102 461.999 399.002C467.999 385.002 477.399 372.702 489.299 363.502C501.199 354.202 515.399 348.002 530.399 345.602C537.999 344.402 545.099 349.602 546.299 357.202C547.499 364.802 542.299 371.902 534.699 373.102C524.299 374.702 514.599 379.002 506.399 385.402L506.299 385.502C498.199 391.802 491.699 400.302 487.499 410.002C485.299 415.202 480.199 418.402 474.799 418.402Z" fill="#FF7F41"/>
<path d="M468.199 561.8H468.099C462.599 561.7 458.199 557.2 458.299 551.8L458.899 497.8V443.9C458.899 438.4 463.399 434 468.799 434C474.299 434 478.699 438.5 478.699 443.9V497.9L478.099 552C478.099 557.4 473.599 561.8 468.199 561.8Z" fill="#59CBE8"/>
<path d="M480.9 616.303H480.8C473.1 616.203 467 609.903 467 602.203L467.8 527.503C467.9 519.903 474.1 513.703 481.7 513.703H481.8C489.5 513.803 495.6 520.103 495.6 527.803L494.8 602.503C494.7 610.203 488.5 616.303 480.9 616.303Z" fill="#9063CD"/>
<path d="M539.999 703.402C475.799 703.402 423.699 651.302 423.699 587.102V516.802C423.699 501.402 436.199 488.902 451.599 488.902H628.299C643.699 488.902 656.199 501.402 656.199 516.802V587.102C656.299 651.402 604.199 703.402 539.999 703.402Z" fill="#9063CD"/>
<path d="M513.599 611.301V650.801H474.199L513.599 611.301Z" fill="white"/>
<path d="M566.297 571.399V530.199H607.497L566.297 571.399Z" fill="white"/>
<path d="M496.698 642.6C494.498 642.6 492.198 641.7 490.498 640C463.198 612.7 463.198 568.3 490.498 541C503.698 527.8 521.298 520.5 539.998 520.5C544.798 520.5 548.698 524.4 548.698 529.2C548.698 534 544.798 537.9 539.998 537.9C525.998 537.9 512.798 543.4 502.898 553.3C492.998 563.2 487.498 576.4 487.498 590.4C487.498 604.4 492.998 617.6 502.898 627.5C506.298 630.9 506.298 636.4 502.898 639.9C501.098 641.7 498.898 642.6 496.698 642.6Z" fill="white"/>
<path d="M539.999 660.499C535.199 660.499 531.199 656.599 531.199 651.799C531.199 646.999 535.099 643.099 539.899 643.099C553.899 643.099 567.099 637.599 576.999 627.699C597.499 607.199 597.499 573.899 576.999 553.399C573.599 549.999 573.599 544.499 576.999 540.999C580.399 537.599 585.899 537.599 589.399 540.999C616.699 568.299 616.699 612.699 589.399 639.999C576.299 653.199 558.699 660.499 539.999 660.499Z" fill="white"/>
<path d="M695.402 753.398H384.602V815.098H695.402V753.398Z" fill="#FDDA24"/>
<path d="M384.102 815.798V752.998H384.702L696.002 752.898V815.698H695.402L384.102 815.798ZM385.202 754.098V814.698L694.802 814.598V753.998L385.202 754.098Z" fill="#FDDA24"/>
<path d="M849.6 721.6C847.6 721.6 845.5 721.3 843.5 720.8C831.2 717.4 824 704.8 827.4 692.5L828.4 688.6L829.4 684.1C829.5 683.5 829.6 683 829.7 682.4C830.1 680.1 830.5 677.9 830.7 676L830.8 675.5L831.1 673.1C831.1 672.9 831.1 672.8 831.1 672.6C831.1 672.2 831.2 671.9 831.2 671.5C831.3 670.8 831.3 670.2 831.4 669.5C831.5 668.7 831.5 667.9 831.6 667.4L831.8 662.4C831.8 661.9 831.8 661.2 831.8 660.5C831.8 659.8 831.8 659.2 831.8 658.5C831.6 652.3 831.1 647.1 830.2 642.5V642.4C829 636.3 827.7 631.3 826 627.1L825.2 625L823.5 621.1C823.4 620.8 823.2 620.5 823.1 620.2L823 620.1L820.3 614.8L818.6 612C818 611 817.1 609.6 816 608.1C815.5 607.4 815 606.6 814.5 605.9C814.1 605.4 813.7 604.9 813.4 604.5C813 603.9 812.5 603.4 812.1 602.8L810.9 601.3C810.8 601.2 810.7 601.1 810.6 601C810.3 600.7 810.1 600.4 809.8 600.1L806.9 596.9C806.4 596.4 805.9 596 805.4 595.5C804.9 595 804.4 594.5 803.9 594L802.3 592.4C802 592.1 801.6 591.8 801.3 591.6L797.4 588.3C797.3 588.2 797.2 588.2 797.1 588.1L792.7 584.8C792.5 584.6 792.2 584.5 792 584.3L791.8 584.1L785.8 580.2C785.6 580.1 785.5 580 785.3 579.9C785 579.7 784.6 579.5 784.3 579.3C773.3 572.9 769.6 558.8 776 547.8C782.4 536.8 796.5 533.1 807.5 539.5L808.1 539.8C808.8 540.2 809.5 540.6 810.2 541L810.8 541.4L816.9 545.4C818.2 546.2 819.3 547 819.9 547.5L824.5 551C825.3 551.6 826.4 552.4 827.6 553.5L831.7 557C832.3 557.5 833.2 558.3 834.3 559.3L836.1 561C836.5 561.4 836.9 561.8 837.4 562.2C838.2 563 839.1 563.8 839.9 564.7L840.7 565.5L844.5 569.8C845.1 570.4 845.7 571.1 846.2 571.7L846.6 572.2L848.2 574.3C848.5 574.7 848.9 575.1 849.2 575.5C849.9 576.4 850.7 577.4 851.6 578.6L852.2 579.5C852.7 580.2 853.1 580.9 853.6 581.6C855.1 583.8 856.8 586.2 858.4 589.1L860.5 592.6L863.6 598.6C864.3 600 864.8 601.2 865.2 601.9L867.9 608.3L868.7 610.4C871.3 617.2 873.4 624.7 875.1 633.4C876.5 640.6 877.3 648.5 877.6 657.3V657.9C877.6 658.4 877.6 658.8 877.6 659.3C877.6 660.6 877.7 662.1 877.6 663.9L877.4 669.2C877.3 670.8 877.2 672.2 877.1 673.4C877.1 673.9 877 674.4 877 674.9V675.4C877 675.6 877 675.8 877 675.9C876.9 676.6 876.9 677.6 876.7 678.7L876.4 681.1C876 684.5 875.5 687.6 875 690.4C874.9 691.1 874.8 691.8 874.6 692.4L874.4 693.5L872.7 700.7L871.7 704.4C868.9 714.9 859.7 721.6 849.6 721.6Z" fill="#59CBE8"/>
<path d="M733.599 827.101C724.699 827.101 717.299 820.001 717.199 811.001C716.999 801.901 724.199 794.401 733.299 794.201C745.999 793.901 758.399 792.101 770.099 788.801L771.099 788.501C773.199 787.901 775.299 787.301 777.099 786.601H777.199C777.699 786.401 778.299 786.201 778.799 786.001C779.499 785.801 780.199 785.501 780.699 785.301L784.899 783.601C785.699 783.301 786.599 782.901 787.699 782.401L791.399 780.701L796.399 778.101L801.299 775.301L804.899 773.001C806.099 772.301 807.399 771.301 808.899 770.201C809.499 769.701 810.199 769.301 810.899 768.801C815.699 765.101 819.199 762.101 822.099 759.101L822.399 758.801C825.499 755.801 828.699 752.3 832.299 747.601L834.699 744.401C834.899 744.201 835.099 743.901 835.199 743.701C835.299 743.501 835.499 743.401 835.599 743.201L838.899 738.201L840.899 734.801C845.899 726.401 850.099 716.901 853.399 706.701C856.599 696.801 858.799 686.601 859.999 676.301C861.099 665.901 861.099 655.501 859.899 645.401C858.899 636.401 865.299 628.201 874.299 627.201C883.299 626.201 891.499 632.601 892.499 641.601C893.899 654.101 893.999 667.001 892.599 679.901C891.199 692.401 888.499 704.801 884.599 716.901C880.499 729.401 875.299 741.101 868.999 751.601L866.299 756.001L862.699 761.501C862.199 762.201 861.799 762.801 861.399 763.401L858.099 767.901C853.499 773.701 849.399 778.301 845.199 782.401C841.199 786.501 836.699 790.401 830.599 795.001L829.999 795.401C829.399 795.901 828.699 796.301 828.099 796.801C826.399 798.101 824.399 799.501 822.199 800.901L818.099 803.601L811.799 807.201L805.399 810.501L801.299 812.401C799.899 813.001 798.399 813.701 796.699 814.401L792.799 816.001C791.499 816.501 790.399 816.901 789.399 817.201C788.999 817.301 788.599 817.501 788.299 817.601C785.499 818.601 782.899 819.401 780.399 820.201L779.099 820.601C764.599 824.701 749.399 827.001 733.799 827.301C733.799 827.101 733.699 827.101 733.599 827.101Z" fill="#FF7F41"/>
<path d="M730.201 810.8C728.401 810.8 726.601 810.8 725.101 810.7H724.401C723.701 810.7 723.001 810.6 722.301 810.6C720.201 810.5 717.801 810.4 715.301 810.2C714.901 810.2 714.501 810.1 714.201 810.1C713.101 810 712.101 809.9 711.001 809.8H710.601L703.601 808.9L696.701 807.8L692.001 806.9C690.801 806.7 689.301 806.4 687.701 806C675.701 803.2 664.001 799.4 652.901 794.6L652.601 794.5L646.701 791.9C646.001 791.6 645.401 791.3 644.701 790.9L633.701 785.3L624.301 779.8C623.701 779.5 622.901 779 621.901 778.3L613.401 772.7C611.901 771.7 610.601 770.8 609.701 770.1C609.501 769.9 609.201 769.7 609.001 769.6L608.801 769.5L602.101 764.6C600.901 763.7 599.801 762.8 599.001 762.1C598.701 761.9 598.401 761.6 598.201 761.4L598.001 761.2L591.001 755.5C586.701 751.8 582.401 747.9 578.101 743.9C568.901 735.1 568.501 720.6 577.201 711.3C586.001 702.1 600.501 701.7 609.801 710.4C613.401 713.8 617.101 717.1 620.701 720.3L626.901 725.3C627.401 725.7 627.801 726 628.301 726.4C628.701 726.7 629.201 727.1 629.401 727.3L636.101 732.2C636.501 732.5 636.901 732.8 637.301 733.1C637.601 733.3 637.901 733.5 638.201 733.7L638.601 734L647.201 739.6C647.501 739.8 647.801 739.9 648.101 740.1L656.401 744.9L665.001 749.2C665.301 749.3 665.501 749.5 665.801 749.6C665.901 749.7 666.001 749.7 666.101 749.8L671.301 752.1C680.001 755.8 689.201 758.8 698.601 761L699.101 761.1C699.601 761.2 700.301 761.4 701.101 761.5L705.401 762.4L710.601 763.2L716.001 763.9C716.601 764 717.201 764 717.801 764.1C718.401 764.1 718.901 764.2 719.501 764.2H719.801C721.001 764.3 722.601 764.4 724.201 764.5C724.901 764.5 725.601 764.6 726.301 764.6C730.101 764.7 735.001 764.7 739.701 764.3L740.401 764.2C741.701 764.1 743.301 763.9 744.901 763.7C745.601 763.6 746.301 763.5 747.001 763.5C747.301 763.5 747.901 763.4 748.401 763.3C749.001 763.2 749.501 763.1 750.101 763L750.601 762.9C751.301 762.8 752.101 762.7 752.501 762.6L753.001 762.5L756.601 761.8C757.201 761.7 757.701 761.5 758.301 761.4C758.801 761.3 759.401 761.1 759.901 761L761.301 760.7L766.101 759.2C770.601 757.7 774.501 756.1 778.001 754.4C789.501 748.9 803.201 753.7 808.701 765.2C814.201 776.7 809.401 790.4 797.901 795.9C792.601 798.5 786.901 800.7 780.501 802.9L779.801 803.1L773.001 805.1L771.001 805.6C770.601 805.7 770.101 805.8 769.701 805.9C768.701 806.1 767.801 806.4 766.801 806.6L766.201 806.7L762.501 807.5C760.801 807.9 759.201 808.1 757.901 808.3L757.101 808.4C756.701 808.5 756.401 808.5 756.001 808.6C755.001 808.8 753.801 809 752.401 809.1H752.301C751.701 809.2 751.101 809.2 750.401 809.3C748.301 809.6 745.901 809.8 743.301 810C738.701 810.7 734.201 810.8 730.201 810.8Z" fill="#00C389"/>
<path d="M622.2 794.7C619.1 794.7 615.9 793.8 613.1 792L602.4 784.9L594.9 779.4C592.1 777.4 589.6 775.4 587.2 773.4L581.6 768.9C580.4 767.9 579.3 767 578.4 766.1C578 765.7 577.6 765.4 577.2 765H577L572.2 760.8C571.1 759.8 569.8 758.7 568.5 757.4L559.6 748.8C555 744.1 550.1 739.2 545.5 734C536.3 723.8 526.7 712.4 516.2 699.1C510.5 691.9 511.8 681.4 519 675.7C526.2 670 536.7 671.3 542.4 678.5C552.4 691.2 561.4 702.1 570.1 711.6L570.2 711.7C574.3 716.3 578.6 720.7 583.2 725.4L584 726.2L591.6 733.5C592.3 734.2 593.1 734.9 594 735.7L598.7 739.9C599.2 740.3 599.7 740.8 600.2 741.2C600.9 741.8 601.6 742.4 602.1 742.9L607.8 747.5C609.9 749.2 611.9 750.8 613.8 752.2L614.1 752.4L621.3 757.7L631 764.1C638.7 769.2 640.8 779.5 635.8 787.2C632.9 792.1 627.6 794.7 622.2 794.7Z" fill="#59CBE8"/>
<path d="M243.601 320.901C282.979 320.901 314.901 288.979 314.901 249.601C314.901 210.223 282.979 178.301 243.601 178.301C204.223 178.301 172.301 210.223 172.301 249.601C172.301 288.979 204.223 320.901 243.601 320.901Z" fill="#FDDA24"/>
<path d="M243.6 321.1C204.1 321.1 172 289 172 249.6C172 210.2 204.1 178 243.6 178C283.1 178 315.2 210.1 315.2 249.6C315.2 289.1 283 321.1 243.6 321.1ZM243.6 178.6C204.5 178.6 172.6 210.4 172.6 249.6C172.6 288.8 204.4 320.6 243.6 320.6C282.7 320.6 314.6 288.8 314.6 249.6C314.6 210.4 282.7 178.6 243.6 178.6Z" fill="#FDDA24"/>
<path d="M243.599 281.499C261.217 281.499 275.499 267.217 275.499 249.599C275.499 231.981 261.217 217.699 243.599 217.699C225.981 217.699 211.699 231.981 211.699 249.599C211.699 267.217 225.981 281.499 243.599 281.499Z" fill="#FF7F41"/>
<path d="M274.101 749.901C299.395 749.901 319.901 729.395 319.901 704.101C319.901 678.806 299.395 658.301 274.101 658.301C248.806 658.301 228.301 678.806 228.301 704.101C228.301 729.395 248.806 749.901 274.101 749.901Z" fill="#FDDA24"/>
<path d="M274.099 749.999C248.799 749.999 228.199 729.399 228.199 704.099C228.199 678.799 248.799 658.199 274.099 658.199C299.399 658.199 319.999 678.799 319.999 704.099C320.099 729.399 299.399 749.999 274.099 749.999ZM274.099 658.499C248.999 658.499 228.499 678.899 228.499 704.099C228.499 729.299 248.899 749.699 274.099 749.699C299.299 749.699 319.699 729.299 319.699 704.099C319.699 678.899 299.199 658.499 274.099 658.499Z" fill="#FDDA24"/>
<path d="M826.302 509.798C871.147 509.798 907.502 473.444 907.502 428.598C907.502 383.753 871.147 347.398 826.302 347.398C781.456 347.398 745.102 383.753 745.102 428.598C745.102 473.444 781.456 509.798 826.302 509.798Z" fill="#FDDA24"/>
<path d="M826.301 510.199C781.401 510.199 744.801 473.599 744.801 428.699C744.801 383.799 781.401 347.199 826.301 347.199C871.201 347.199 907.801 383.799 907.801 428.699C907.801 473.599 871.201 510.199 826.301 510.199ZM826.301 347.799C781.701 347.799 745.401 384.099 745.401 428.699C745.401 473.299 781.701 509.599 826.301 509.599C870.901 509.599 907.201 473.299 907.201 428.699C907.201 384.099 870.901 347.799 826.301 347.799Z" fill="#FDDA24"/>
<path d="M826.3 475.401C852.147 475.401 873.1 454.448 873.1 428.601C873.1 402.754 852.147 381.801 826.3 381.801C800.453 381.801 779.5 402.754 779.5 428.601C779.5 454.448 800.453 475.401 826.3 475.401Z" fill="#FF7F41"/>
</svg>
