<svg width="1080" height="1080" viewBox="0 0 1080 1080" fill="none" xmlns="http://www.w3.org/2000/svg">
<path d="M271.387 367.336C286.319 351.736 284.614 325.87 267.578 309.563C250.542 293.255 224.626 292.682 209.694 308.281C194.761 323.881 196.467 349.747 213.503 366.054C230.539 382.362 256.454 382.935 271.387 367.336Z" fill="#E4AC7B"/>
<path d="M365.522 576C364.022 576 362.522 575.6 361.122 574.8C319.922 549.9 284.522 501.5 283.022 499.5C280.222 495.7 281.122 490.4 284.922 487.6C288.722 484.8 294.022 485.7 296.822 489.5C297.222 490.1 331.822 537.2 369.922 560.3C373.922 562.7 375.222 567.9 372.822 572C371.222 574.5 368.422 576 365.522 576Z" fill="#F5B6CD"/>
<path d="M416.024 584.601C414.624 584.601 413.224 584.301 411.824 583.801C343.024 556.401 286.924 498.601 261.724 429.001C259.624 423.101 262.624 416.601 268.524 414.501C274.424 412.401 280.924 415.401 283.024 421.301C306.124 484.901 357.424 537.801 420.224 562.801C426.024 565.101 428.824 571.701 426.524 577.501C424.724 581.901 420.524 584.601 416.024 584.601Z" fill="#FDDA24"/>
<path d="M176.926 410.201L252.026 578.801L317.726 586.301C317.826 586.301 405.326 337.301 176.926 410.201Z" fill="#59CBE8"/>
<path d="M234.124 919.004C232.924 919.004 231.724 918.904 230.524 918.704C220.424 916.704 213.724 907.004 215.724 896.804C216.024 895.004 249.924 719.104 263.124 623.104C264.524 612.904 273.924 605.704 284.124 607.104C294.324 608.504 301.524 617.904 300.124 628.104C286.824 725.104 252.824 902.004 252.424 903.704C250.724 912.804 242.824 919.004 234.124 919.004Z" fill="#9063CD"/>
<path d="M220.426 673.602C220.426 673.602 209.426 766.202 168.926 823.702L220.426 673.602Z" fill="white"/>
<path d="M168.925 837.502C166.125 837.502 163.325 836.702 160.925 835.002C154.625 830.602 153.125 821.902 157.525 815.602C195.425 761.702 206.525 672.802 206.625 671.902C207.525 664.302 214.425 658.802 222.025 659.702C229.625 660.602 235.125 667.502 234.225 675.102C233.725 679.002 222.325 771.902 180.325 831.502C177.525 835.502 173.225 837.502 168.925 837.502Z" fill="#00C389"/>
<path d="M134.624 923.301C129.724 923.301 124.924 921.402 121.224 917.702C114.024 910.302 114.124 898.501 121.524 891.301C192.624 821.901 220.724 668.001 221.024 666.501C222.824 656.301 232.524 649.601 242.724 651.401C252.924 653.201 259.624 662.901 257.824 673.101C256.624 679.901 227.424 840.201 147.624 918.101C144.024 921.601 139.324 923.301 134.624 923.301Z" fill="#FDDA24"/>
<path d="M204.023 435.4C203.023 435.4 201.923 435.3 200.923 435C169.823 426.2 142.523 406.9 123.823 380.6C105.123 354.3 95.9231 322.1 97.8231 289.9C98.2231 283.8 99.0231 277.9 100.223 272.2C101.523 266.1 107.523 262.2 113.723 263.5C119.923 264.8 123.723 270.8 122.423 277C121.423 281.6 120.823 286.4 120.523 291.3C118.923 318.4 126.723 345.5 142.423 367.6C158.123 389.7 181.123 405.9 207.223 413.3C213.223 415 216.723 421.3 215.023 427.3C213.523 432.2 208.923 435.4 204.023 435.4Z" fill="#9063CD"/>
<path d="M189.323 444.802C188.523 444.802 187.823 444.702 187.023 444.502C155.223 435.502 128.723 415.802 110.623 387.602C96.923 366.402 92.723 347.902 92.623 347.102C91.623 342.502 94.523 338.002 99.123 337.002C103.723 336.002 108.223 338.902 109.223 343.402C109.323 343.702 113.123 360.302 125.323 378.902C141.423 403.602 163.723 420.102 191.723 428.102C196.223 429.402 198.823 434.102 197.523 438.602C196.423 442.402 193.023 444.802 189.323 444.802Z" fill="#FDDA24"/>
<path d="M80.6246 310.202C76.1246 310.202 72.4246 306.702 72.1246 302.202C72.0246 299.502 70.9246 275.902 77.7246 263.302C79.9246 259.202 85.1246 257.602 89.2246 259.802C93.3246 262.002 94.9246 267.202 92.7246 271.302C89.3246 277.702 88.7246 293.102 89.1246 301.202C89.4246 305.902 85.8246 309.902 81.1246 310.102C80.9246 310.202 80.8246 310.202 80.6246 310.202Z" fill="#FDDA24"/>
<path d="M279.726 550.902H326.526L294.426 700.502H116.426L121.026 679.102C137.126 604.302 203.226 550.902 279.726 550.902Z" fill="#2C2A29"/>
<path d="M788.127 509.203C783.927 509.203 779.927 509.003 776.227 508.603C747.127 505.703 728.327 493.003 727.527 492.503C722.227 488.903 720.927 481.603 724.527 476.303C728.127 471.003 735.327 469.703 740.627 473.303C741.027 473.503 756.227 483.503 779.627 485.603C811.027 488.403 842.027 476.303 871.527 449.703C876.327 445.403 883.627 445.803 887.927 450.603C892.227 455.403 891.827 462.703 887.027 467.003C849.627 500.803 814.127 509.203 788.127 509.203Z" fill="#00C389"/>
<path d="M849.624 506.702C846.824 506.702 844.124 505.102 842.824 502.502C841.024 498.802 842.524 494.302 846.324 492.402C867.224 482.202 886.824 466.202 904.624 444.902C907.324 441.702 912.024 441.302 915.224 443.902C918.424 446.602 918.824 451.302 916.224 454.502C897.124 477.502 875.824 494.802 853.024 505.902C851.924 506.502 850.724 506.702 849.624 506.702Z" fill="#59CBE8"/>
<path d="M785.725 521.102H785.625C750.325 520.502 725.925 507.702 724.925 507.102C721.225 505.102 719.925 500.602 721.825 496.902C723.825 493.202 728.325 491.902 732.025 493.802C732.425 494.002 754.525 505.502 785.925 506.002C790.125 506.102 793.425 509.502 793.325 513.602C793.125 517.802 789.825 521.102 785.725 521.102Z" fill="#59CBE8"/>
<path d="M700.723 920.6H418.223C390.223 920.6 367.523 897.9 367.523 869.9V207.7C367.523 179.7 390.223 157 418.223 157H700.723C728.723 157 751.423 179.7 751.423 207.7V869.8C751.523 897.9 728.823 920.6 700.723 920.6Z" fill="#FF7F41"/>
<path d="M559.525 895.101C572.725 895.101 583.425 884.4 583.425 871.201C583.425 858.001 572.725 847.301 559.525 847.301C546.325 847.301 535.625 858.001 535.625 871.201C535.625 884.4 546.325 895.101 559.525 895.101Z" fill="white"/>
<path d="M724.825 233.398H394.125V822.698H724.825V233.398Z" fill="white"/>
<path d="M494.323 465.8C495.323 469.8 499.423 471.8 503.523 470.5C537.223 460.2 570.923 453.2 605.723 448.1C609.723 447.6 611.923 443.5 610.423 439.4C607.323 430.8 605.723 426.4 602.623 417.8C601.323 414.2 597.623 411.8 593.923 412.2C559.923 416.4 527.023 422.5 494.123 432C489.823 433.3 487.223 438.1 488.323 442.3C490.623 451.7 491.823 456.4 494.323 465.8Z" fill="#2C2A29"/>
<path d="M630.725 470.499C629.425 466.599 625.825 464.099 622.325 464.499C569.025 471.199 517.225 484.299 468.025 505.899C464.425 507.599 462.325 512.099 463.025 515.999C464.925 526.099 465.925 531.099 467.925 541.199C468.725 545.499 472.825 547.499 476.825 545.599C526.725 522.899 579.525 508.499 633.725 499.899C637.125 499.299 638.925 495.399 637.625 491.399C634.925 482.999 633.525 478.799 630.725 470.499Z" fill="#2C2A29"/>
<path d="M630.524 526.8C629.224 522.7 625.324 520 621.724 520.7C588.424 527.9 555.924 536.5 523.824 547.4C519.724 548.9 517.424 553.2 518.524 557.1C521.124 566.5 522.324 571.1 524.924 580.5C526.124 584.9 531.124 587.2 535.724 585.4C567.924 574 600.424 564 633.624 556C636.824 555.2 638.424 551.5 637.224 547.7C634.524 539.4 633.224 535.2 630.524 526.8Z" fill="#2C2A29"/>
<path d="M966.023 570.701L966.223 888.201C966.223 903.701 953.623 916.301 938.123 916.301C923.623 916.301 911.623 905.101 910.123 891.001L878.723 575.101C876.323 551.101 893.923 529.601 917.923 527.301C941.923 524.901 963.423 542.501 965.723 566.501C966.023 567.801 966.023 569.301 966.023 570.701Z" fill="#2C2A29"/>
<path d="M911.124 581.2L840.724 894.4C837.324 909.7 822.024 919.4 806.724 915.9C792.324 912.7 782.924 898.9 784.724 884.6L825.024 566.1C828.024 542.1 849.924 525.2 873.924 528.2C897.924 531.2 914.824 553.1 911.824 577.1C911.724 578.5 911.424 579.9 911.124 581.2Z" fill="#2C2A29"/>
<path d="M906.841 364.976C915.663 342.929 907.27 318.835 888.093 311.161C868.917 303.488 846.219 315.14 837.396 337.188C828.574 359.236 836.968 383.33 856.144 391.003C875.321 398.677 898.018 387.024 906.841 364.976Z" fill="#B28038"/>
<path d="M897.825 609.501H889.425C855.825 609.501 828.625 582.301 828.625 548.701V543.301H958.525V548.701C958.625 582.301 931.325 609.501 897.825 609.501Z" fill="#2C2A29"/>
<path d="M944.625 401.699L976.825 586.199L811.925 594.099C811.825 594.099 795.625 403.799 944.625 401.699Z" fill="#E6DCCB"/>
<path d="M927.326 431.498C922.926 431.498 918.726 428.998 916.826 424.798C914.126 418.998 916.626 412.098 922.426 409.398C922.826 409.198 939.126 401.098 952.826 382.098C971.226 356.498 976.526 323.698 968.626 284.698C967.326 278.398 971.426 272.298 977.726 270.998C984.026 269.698 990.126 273.798 991.426 280.098C1003.13 337.598 986.726 375.298 970.926 396.798C953.626 420.398 933.226 430.098 932.326 430.498C930.626 431.098 928.926 431.498 927.326 431.498Z" fill="#9063CD"/>
<path d="M1000.02 336.099C999.824 336.099 999.624 336.099 999.424 336.099C995.324 335.799 992.224 332.099 992.524 327.999C994.324 304.799 990.524 279.799 981.224 253.699C979.824 249.799 981.824 245.499 985.724 244.099C989.624 242.699 993.924 244.699 995.324 248.599C1005.42 276.699 1009.52 303.799 1007.52 329.199C1007.22 333.099 1003.92 336.099 1000.02 336.099Z" fill="#59CBE8"/>
<path d="M939.524 441.2C937.024 441.2 934.524 439.9 933.124 437.6C930.924 434.1 932.124 429.4 935.624 427.3C935.924 427.1 957.024 413.9 973.424 387.1C975.624 383.6 980.224 382.4 983.724 384.6C987.224 386.8 988.424 391.4 986.224 394.9C967.824 425 944.324 439.5 943.324 440.1C942.224 440.9 940.824 441.2 939.524 441.2Z" fill="#59CBE8"/>
<path d="M801.721 527.001C787.721 527.001 775.821 516.301 774.521 502.101C773.421 489.901 771.421 477.801 768.421 466.101C765.521 454.801 761.421 443.301 756.221 431.901C751.221 420.901 745.221 410.201 738.521 400.101C731.821 390.201 724.121 380.701 715.621 371.901C707.221 363.101 698.021 355.001 688.321 347.801C678.921 340.801 668.521 334.401 657.421 328.701C646.621 323.201 635.221 318.601 623.621 315.001C612.521 311.601 600.521 309.001 588.121 307.401C573.221 305.501 562.621 291.801 564.621 276.801C566.521 261.901 580.221 251.301 595.221 253.301C610.621 255.301 625.721 258.501 639.821 262.901C654.421 267.401 668.621 273.201 682.121 280.001C696.021 287.101 709.121 295.101 721.021 304.001C733.121 313.101 744.621 323.201 755.121 334.101C765.721 345.201 775.321 357.101 783.821 369.501L783.921 369.601C792.421 382.201 799.821 395.601 806.121 409.401C812.521 423.601 817.721 438.101 821.421 452.401C825.221 467.101 827.721 482.201 829.121 497.301C830.421 512.301 819.321 525.601 804.321 526.901C803.221 527.001 802.421 527.001 801.721 527.001Z" fill="#F5B6CD"/>
<path d="M743.324 424.701C736.824 424.701 730.524 421.501 726.824 415.601C712.624 393.201 693.524 373.301 671.624 358.301C660.524 350.701 648.724 344.201 636.624 339.101C624.324 333.901 611.524 330.001 598.424 327.501C572.224 322.401 544.724 322.601 518.824 328.201C492.924 333.701 467.824 344.801 446.124 360.301C437.324 366.601 425.224 364.501 418.924 355.701C412.624 346.901 414.724 334.801 423.524 328.501C449.524 310.001 479.624 296.701 510.724 290.101C541.724 283.501 574.624 283.201 605.924 289.301C621.624 292.401 637.024 297.101 651.724 303.201C666.324 309.301 680.424 317.101 693.724 326.201C719.924 344.201 742.724 368.001 759.724 394.801C765.524 403.901 762.724 415.901 753.624 421.701C750.524 423.701 746.924 424.701 743.324 424.701Z" fill="#FDDA24"/>
<path d="M560.724 764.301C551.024 764.301 541.324 763.701 531.724 762.601C517.324 760.901 503.124 758.001 489.724 753.901C462.424 745.601 436.924 732.701 414.024 715.601C368.224 681.201 334.924 629.901 322.724 575.101C319.424 560.401 328.724 545.801 343.424 542.501C358.124 539.201 372.724 548.501 376.024 563.201C385.524 605.601 411.324 645.201 446.824 671.901C464.624 685.201 484.424 695.201 505.724 701.701C516.024 704.901 526.824 707.101 538.024 708.401C549.024 709.701 560.224 710.001 571.324 709.401C586.424 708.601 599.224 720.201 600.024 735.201C600.824 750.301 589.224 763.101 574.224 763.901C569.724 764.201 565.224 764.301 560.724 764.301Z" fill="#F5B6CD"/>
<path d="M341.521 439.602C338.121 439.602 334.721 438.902 331.421 437.302C319.721 431.702 314.821 417.802 320.421 406.102C328.821 388.602 339.221 371.802 351.621 356.202C364.221 340.302 378.121 326.202 393.021 314.202C424.021 289.202 460.321 271.202 497.921 262.302C510.521 259.302 523.121 267.102 526.021 279.702C529.021 292.302 521.221 304.902 508.621 307.802C477.721 315.102 447.821 329.902 422.321 350.602C410.121 360.402 398.721 372.002 388.321 385.202C378.121 398.102 369.521 411.902 362.621 426.302C358.621 434.702 350.321 439.602 341.521 439.602Z" fill="#00C389"/>
<path d="M384.523 714.801C377.323 714.801 370.123 712.001 364.723 706.301C339.423 679.701 319.423 647.501 306.923 613.301C294.423 579.101 288.923 541.701 291.023 505.001C291.923 490.001 304.823 478.501 319.823 479.301C334.823 480.201 346.323 493.101 345.523 508.101C343.823 537.401 348.223 567.301 358.123 594.501C368.123 621.801 384.023 647.401 404.223 668.601C414.623 679.501 414.123 696.801 403.223 707.201C398.123 712.301 391.323 714.801 384.523 714.801Z" fill="#FF7F41"/>
<path d="M560.524 782.503C527.924 782.503 495.324 776.503 464.924 764.503C454.924 760.603 449.924 749.203 453.924 739.203C457.824 729.203 469.224 724.203 479.224 728.203C523.124 745.403 572.224 748.203 617.724 736.003C663.424 723.903 704.724 697.003 734.024 660.303C740.724 651.903 753.024 650.503 761.424 657.203C769.824 663.903 771.224 676.203 764.524 684.603C730.024 727.703 681.524 759.403 627.824 773.603C605.824 779.603 583.124 782.503 560.524 782.503Z" fill="#59CBE8"/>
<path d="M684.322 725.303C675.722 725.303 667.222 721.303 661.922 713.703C653.222 701.403 656.222 684.303 668.622 675.703C679.922 667.803 690.422 658.603 699.722 648.403C708.822 638.503 717.022 627.403 724.122 615.103C731.022 603.203 736.622 590.503 740.722 577.403C744.722 564.603 747.422 551.003 748.622 537.003C749.922 522.003 763.122 510.803 778.122 512.103C793.122 513.403 804.322 526.603 803.022 541.603C801.522 559.603 798.022 577.203 792.722 593.803C787.422 610.703 780.122 627.003 771.322 642.403C762.222 658.103 751.622 672.503 739.822 685.303C727.822 698.303 714.422 710.103 699.922 720.203C695.222 723.703 689.722 725.303 684.322 725.303Z" fill="#9063CD"/>
</svg>
