<svg width="1920" height="1080" viewBox="0 0 1920 1080" fill="none" xmlns="http://www.w3.org/2000/svg">
<path d="M1794.8 883.202C1794.8 789.202 1718.6 713.102 1624.7 713.102C1530.7 713.102 1454.6 789.302 1454.6 883.202" fill="#FF7F41"/>
<path d="M1510.3 883.198C1510.3 838.298 1473.9 801.898 1429 801.898C1384.1 801.898 1347.7 838.298 1347.7 883.198" fill="#FF7F41"/>
<path d="M1373.5 883.202C1373.5 810.802 1314.8 752.102 1242.4 752.102C1170 752.102 1111.3 810.802 1111.3 883.202" fill="#FF7F41"/>
<path d="M860.001 883.202C860.001 789.202 783.801 713.102 689.901 713.102C596.001 713.102 519.801 789.302 519.801 883.202" fill="#9063CD"/>
<path d="M672.6 883.198C672.6 823.098 623.9 774.398 563.8 774.398C503.7 774.398 455 823.198 455 883.198" fill="#9063CD"/>
<path d="M509.802 883.202C509.802 835.602 471.202 797.102 423.702 797.102C376.202 797.102 337.602 835.702 337.602 883.202" fill="#9063CD"/>
<path d="M928.198 883.201C928.198 853.201 903.798 828.801 873.798 828.801C843.798 828.801 819.398 853.201 819.398 883.201" fill="#9063CD"/>
<path d="M1832.2 892.602H88C85.2 892.602 83 890.402 83 887.602C83 884.802 85.2 882.602 88 882.602H1832.2C1835 882.602 1837.2 884.802 1837.2 887.602C1837.2 890.402 1835 892.602 1832.2 892.602Z" fill="#00C389"/>
<path d="M490.101 504.701H236.701C236.401 502.501 236.301 500.301 236.301 498.001C236.301 466.901 261.501 441.701 292.601 441.701C294.801 441.701 296.901 441.801 299.001 442.101C303.001 414.201 326.901 392.801 355.901 392.801C382.501 392.801 404.801 410.801 411.401 435.301C415.201 434.001 419.301 433.301 423.601 433.301C444.201 433.301 460.901 450.001 460.901 470.601C460.901 472.301 460.801 474.001 460.601 475.701C460.701 475.701 460.801 475.701 460.901 475.701C477.101 475.501 490.101 488.601 490.101 504.701Z" fill="#59CBE8"/>
<path d="M1497.5 405.202H954.102C954.102 374.002 979.402 348.702 1010.6 348.702C1012.8 348.702 1014.9 348.802 1017 349.102C1027.1 310.702 1062.1 282.402 1103.6 282.402C1105 282.402 1106.3 282.402 1107.7 282.502C1127.8 240.002 1171.1 210.602 1221.3 210.602C1277.7 210.602 1325.5 247.902 1341.3 299.102C1372.9 303.202 1399.8 322.602 1414.2 349.602C1418 349.002 1421.8 348.702 1425.7 348.702C1460.5 348.702 1489.7 372.802 1497.5 405.202Z" fill="#F5B6CD"/>
<path d="M658.502 335.3C699.315 335.3 732.402 302.214 732.402 261.4C732.402 220.586 699.315 187.5 658.502 187.5C617.688 187.5 584.602 220.586 584.602 261.4C584.602 302.214 617.688 335.3 658.502 335.3Z" fill="#FF7F41"/>
<path d="M102.502 701.201C99.1015 701.201 95.6015 700.101 92.7015 697.901C85.7015 692.501 84.4015 682.401 89.8015 675.501C102.402 659.201 120.002 647.301 142.202 640.201C160.702 634.301 181.902 632.001 203.502 633.501C226.002 635.101 247.801 640.001 268.902 644.801C284.202 648.301 298.602 651.501 313.402 653.601C341.202 657.601 379.902 657.701 406.102 635.801C412.902 630.101 423.002 631.001 428.602 637.801C434.302 644.601 433.402 654.701 426.602 660.301C391.302 689.801 343.102 690.101 308.802 685.301C292.802 683.001 277.002 679.501 261.802 676.001C241.002 671.301 221.302 666.801 201.202 665.401C163.602 662.801 131.402 673.901 115.002 695.101C112.002 699.101 107.202 701.201 102.502 701.201Z" fill="#FDDA24"/>
<path d="M339.5 661.2C313.7 661.2 294.8 655.4 293.9 655.2C287.8 653.3 284.4 646.9 286.3 640.8C288.2 634.7 294.6 631.3 300.7 633.2C300.9 633.3 319.4 638.8 343.4 638.2C374.6 637.4 400.2 627 419.6 607.5C424.1 603 431.3 602.9 435.9 607.4C440.4 611.9 440.5 619.1 436 623.7C412.5 647.5 380.4 660.5 343.3 661.3C342 661.2 340.8 661.2 339.5 661.2Z" fill="#F5B6CD"/>
<path d="M95.5003 737.599C94.1003 737.599 92.7003 737.299 91.3003 736.799C85.4003 734.499 82.5003 727.799 84.8003 721.899C107.5 664.099 158.2 655.599 160.3 655.199C166.6 654.199 172.5 658.499 173.4 664.799C174.4 671.099 170.1 676.899 163.9 677.899C162.2 678.199 123.9 685.199 106.2 730.299C104.4 734.799 100.1 737.599 95.5003 737.599Z" fill="#00C389"/>
<path d="M624.799 707.901L608.799 869.101C607.999 877.001 600.999 882.701 593.099 881.901C585.699 881.201 580.199 874.901 580.199 867.601L580.299 705.601C580.299 693.301 590.299 683.301 602.599 683.301C614.899 683.301 624.899 693.301 624.899 705.601C624.899 706.401 624.899 707.201 624.799 707.901Z" fill="#2C2A29"/>
<path d="M652.199 703.399L672.799 865.899C673.799 873.899 668.199 881.099 660.199 882.099C652.699 882.999 645.899 878.099 644.199 870.899L608.299 710.999C605.599 698.999 613.199 686.999 625.199 684.299C637.199 681.599 649.199 689.199 651.899 701.199C651.999 701.899 652.099 702.699 652.199 703.399Z" fill="#2C2A29"/>
<path d="M686.401 724.397C682.901 724.397 680.001 721.597 679.901 717.997C678.801 663.097 639.401 653.397 637.701 652.997C634.201 652.197 632.001 648.697 632.801 645.197C633.601 641.697 637.001 639.497 640.501 640.297C641.001 640.397 653.801 643.297 666.501 654.397C678.101 664.497 692.101 683.697 692.801 717.697C692.901 721.297 690.001 724.297 686.401 724.297C686.501 724.397 686.501 724.397 686.401 724.397Z" fill="#9063CD"/>
<path d="M695.103 738.8C694.903 738.8 694.703 738.8 694.603 738.8C692.203 738.5 690.503 736.3 690.803 733.9C692.803 717.9 691.803 703.3 687.803 690.4C687.103 688.1 688.403 685.7 690.703 684.9C693.003 684.2 695.403 685.5 696.203 687.8C700.603 701.9 701.703 717.7 699.503 734.9C699.203 737.2 697.303 738.8 695.103 738.8Z" fill="#00C389"/>
<path d="M672.602 660.699C671.502 660.699 670.302 660.299 669.502 659.399C656.802 646.299 643.102 641.499 643.002 641.499C640.702 640.699 639.502 638.199 640.302 635.999C641.102 633.699 643.502 632.499 645.802 633.299C646.402 633.499 661.502 638.699 675.802 653.399C677.502 655.099 677.402 657.899 675.702 659.599C674.802 660.299 673.702 660.699 672.602 660.699Z" fill="#00C389"/>
<path d="M614.902 723.798H619.702C639.202 723.798 654.902 707.998 654.902 688.598V685.398H579.602V688.598C579.602 707.998 595.402 723.798 614.902 723.798Z" fill="#2C2A29"/>
<path d="M587.702 603.301L572.102 701.901L664.702 714.901C664.702 714.901 674.102 604.501 587.702 603.301Z" fill="#F5B6CD"/>
<path d="M595.7 622.802C594.8 622.802 593.9 622.602 593 622.202C592.5 622.002 580.7 616.402 570.7 602.702C561.6 590.302 552.1 568.502 558.9 535.202C559.6 531.702 563 529.402 566.6 530.102C570.1 530.802 572.4 534.202 571.7 537.802C560.8 591.602 597.1 609.702 598.6 610.402C601.8 611.902 603.2 615.802 601.7 619.002C600.4 621.402 598.1 622.802 595.7 622.802Z" fill="#9063CD"/>
<path d="M553.499 567.7C551.199 567.7 549.299 566 549.199 563.7C547.999 549 550.399 533.3 556.299 517C557.099 514.7 559.599 513.6 561.899 514.4C564.199 515.2 565.399 517.7 564.499 520C559.099 535.1 556.899 549.6 557.899 563.1C558.099 565.5 556.299 567.6 553.899 567.8C553.799 567.7 553.599 567.7 553.499 567.7Z" fill="#59CBE8"/>
<path d="M588.598 628.698C587.798 628.698 586.998 628.498 586.298 628.098C585.698 627.798 572.098 619.398 561.398 601.898C560.098 599.798 560.798 597.198 562.798 595.898C564.898 594.598 567.498 595.298 568.798 597.298C578.298 612.898 590.598 620.498 590.698 620.598C592.798 621.898 593.398 624.498 592.098 626.598C591.498 627.898 590.098 628.698 588.598 628.698Z" fill="#59CBE8"/>
<path d="M1227.9 649.401C1227.2 649.401 1226.5 649.301 1225.8 649.101C1205.3 643.901 1186.8 631.801 1173.7 615.201C1160.6 598.501 1153.3 577.701 1153.1 556.501C1153.1 551.701 1156.9 547.801 1161.6 547.801C1166.4 547.801 1170.3 551.601 1170.3 556.301C1170.5 573.701 1176.5 590.801 1187.2 604.501C1197.9 618.201 1213.1 628.101 1230 632.301C1234.6 633.501 1237.4 638.201 1236.2 642.801C1235.3 646.801 1231.8 649.401 1227.9 649.401Z" fill="#F5B6CD"/>
<path d="M1249.3 882.703C1243.7 882.703 1238.2 880.103 1234.8 875.103C1206 833.803 1218.3 737.503 1219.7 726.703C1221 717.003 1230 710.303 1239.6 711.603C1249.3 712.903 1256 721.803 1254.7 731.503C1249.8 767.203 1247.9 832.203 1263.7 854.803C1269.3 862.803 1267.3 873.803 1259.3 879.403C1256.4 881.703 1252.8 882.703 1249.3 882.703Z" fill="#2C2A29"/>
<path d="M1197.8 882.702C1189.4 882.702 1181.9 876.702 1180.4 868.102C1167 791.902 1189.4 726.102 1190.4 723.302C1193.6 714.102 1203.7 709.202 1212.9 712.402C1222.1 715.602 1227 725.702 1223.8 734.902C1223.4 735.902 1203.5 795.302 1215.2 861.902C1216.9 871.502 1210.5 880.702 1200.9 882.402C1199.8 882.702 1198.8 882.702 1197.8 882.702Z" fill="#2C2A29"/>
<path d="M1262.98 604.521C1271.55 596.31 1272.41 583.282 1264.88 575.423C1257.36 567.563 1244.31 567.848 1235.73 576.059C1227.15 584.269 1226.3 597.297 1233.82 605.157C1241.35 613.017 1254.4 612.732 1262.98 604.521Z" fill="#B28038"/>
<path d="M1440.88 604.533C1449.46 596.322 1450.31 583.294 1442.79 575.434C1435.27 567.575 1422.21 567.859 1413.64 576.07C1405.06 584.281 1404.2 597.309 1411.73 605.169C1419.25 613.028 1432.3 612.744 1440.88 604.533Z" fill="#E4AC7B"/>
<path d="M1199.3 620.699C1198.6 620.699 1197.9 620.499 1197.2 620.099C1183.2 612.199 1173.2 590.199 1172.8 589.299C1171.8 587.099 1172.8 584.599 1175 583.599C1177.2 582.599 1179.7 583.599 1180.7 585.799C1180.8 585.999 1190 606.099 1201.4 612.599C1203.5 613.799 1204.2 616.399 1203 618.499C1202.3 619.899 1200.8 620.699 1199.3 620.699Z" fill="#9063CD"/>
<path d="M1274.1 625.999V744.599H1177.2C1177.3 744.599 1167 620.999 1274.1 625.999Z" fill="#E6DCCB"/>
<path d="M1315.6 726.601C1311.5 726.601 1307.8 723.601 1307.1 719.401C1302.4 691.801 1282.6 667.001 1256.8 656.301C1252.4 654.501 1250.3 649.401 1252.1 645.001C1253.9 640.601 1259 638.501 1263.4 640.301C1294.6 653.301 1318.4 683.101 1324.1 716.401C1324.9 721.101 1321.7 725.601 1317 726.401C1316.5 726.601 1316 726.601 1315.6 726.601Z" fill="#59CBE8"/>
<path d="M1167 611.601C1165.9 611.601 1164.8 611.201 1164 610.401C1159.4 605.901 1155.4 597.701 1152 586.101C1149.5 577.701 1148.3 570.701 1148.3 570.401C1147.9 568.101 1149.5 565.801 1151.8 565.401C1154.2 565.001 1156.4 566.601 1156.8 568.901C1158.1 576.301 1162.9 597.101 1170.1 604.201C1171.8 605.901 1171.8 608.601 1170.1 610.301C1169.3 611.201 1168.2 611.601 1167 611.601Z" fill="#FDDA24"/>
<path d="M1304.8 715.102C1302.6 715.102 1300.7 713.402 1300.5 711.202C1299.5 701.202 1289.1 687.302 1285.2 682.802C1283.6 681.002 1283.8 678.302 1285.6 676.702C1287.4 675.102 1290.1 675.302 1291.7 677.102C1292.4 677.802 1307.6 695.602 1309.1 710.302C1309.3 712.702 1307.6 714.802 1305.2 715.002C1305.1 715.102 1305 715.102 1304.8 715.102Z" fill="#9063CD"/>
<path d="M1304.9 676.802C1303.5 676.802 1302.1 676.102 1301.2 674.802C1291.4 659.202 1266.7 646.902 1266.5 646.802C1264.4 645.702 1263.5 643.202 1264.5 641.002C1265.6 638.902 1268.1 638.002 1270.3 639.002C1271.4 639.502 1297.4 652.502 1308.5 670.202C1309.8 672.202 1309.2 674.902 1307.1 676.102C1306.5 676.502 1305.7 676.802 1304.9 676.802Z" fill="#FDDA24"/>
<path d="M639.963 591.382C647.487 583.522 646.632 570.495 638.054 562.284C629.476 554.073 616.423 553.788 608.9 561.648C601.376 569.507 602.231 582.535 610.809 590.746C619.387 598.957 632.44 599.242 639.963 591.382Z" fill="#E4AC7B"/>
<path d="M658.502 335.3C699.315 335.3 732.402 302.214 732.402 261.4C732.402 220.586 699.315 187.5 658.502 187.5C617.688 187.5 584.602 220.586 584.602 261.4C584.602 302.214 617.688 335.3 658.502 335.3Z" fill="#FDDA24"/>
<path d="M658.502 335.8C617.502 335.8 584.102 302.4 584.102 261.4C584.102 220.4 617.502 187 658.502 187C699.502 187 732.902 220.4 732.902 261.4C732.902 302.4 699.502 335.8 658.502 335.8ZM658.502 188C618.002 188 585.102 220.9 585.102 261.4C585.102 301.9 618.002 334.8 658.502 334.8C699.002 334.8 731.902 301.9 731.902 261.4C731.902 220.9 699.002 188 658.502 188Z" fill="#FDDA24"/>
<path d="M658.502 304.001C682.03 304.001 701.102 284.928 701.102 261.401C701.102 237.873 682.03 218.801 658.502 218.801C634.975 218.801 615.902 237.873 615.902 261.401C615.902 284.928 634.975 304.001 658.502 304.001Z" fill="#FF7F41"/>
<path d="M1035.1 552.899C1032.1 552.899 1029.1 552.799 1026.1 552.699C1016.6 552.199 1007 550.899 996.702 548.799C990.602 547.599 986.602 541.599 987.902 535.499C989.102 529.399 995.102 525.399 1001.2 526.699C1010.3 528.599 1018.9 529.699 1027.3 530.099C1061.3 531.999 1092.6 521.099 1111 501.099C1115.2 496.499 1122.4 496.199 1127 500.499C1131.6 504.699 1131.9 511.899 1127.6 516.499C1106.1 539.799 1072.7 552.899 1035.1 552.899Z" fill="#59CBE8"/>
<path d="M929.2 526.398C927.8 526.398 926.4 526.098 925 525.598C922.6 524.598 920.1 523.698 917.7 522.698C889.6 511.498 860.6 499.998 831.1 495.698C783.9 488.898 755.5 503.998 742.8 513.598C737.8 517.398 730.7 516.398 727 511.398C723.2 506.398 724.2 499.298 729.2 495.598C756.1 475.298 793.4 467.498 834.4 473.398C866.6 478.098 896.9 490.098 926.2 501.798C928.6 502.798 931 503.698 933.4 504.698C939.2 506.998 942 513.598 939.7 519.398C938 523.698 933.7 526.398 929.2 526.398Z" fill="#59CBE8"/>
<path d="M702.601 523.899C699.801 523.899 697.001 522.899 694.701 520.899C689.901 516.499 689.501 509.099 693.901 504.299C695.601 502.499 735.301 459.299 794.201 456.899C800.701 456.599 806.201 461.699 806.501 468.199C806.801 474.699 801.701 480.199 795.201 480.499C746.101 482.499 711.801 519.799 711.401 520.199C709.001 522.599 705.801 523.899 702.601 523.899Z" fill="#9063CD"/>
<path d="M1030.9 539.399C1001.2 539.399 980.399 530.199 971.499 525.299C965.999 522.299 963.999 515.399 966.999 509.999C969.999 504.499 976.899 502.499 982.299 505.499C991.799 510.699 1018.1 521.999 1056.8 514.099C1062.9 512.899 1068.9 516.799 1070.1 522.899C1071.3 528.999 1067.4 534.999 1061.3 536.199C1050.5 538.399 1040.3 539.399 1030.9 539.399Z" fill="#FDDA24"/>
<path d="M929.202 537.898C927.602 537.898 926.102 537.498 924.602 536.698C904.902 526.198 852.702 508.298 852.202 508.198C847.102 506.498 844.302 500.898 846.102 495.698C847.802 490.598 853.402 487.798 858.602 489.598C860.802 490.398 912.802 508.098 933.902 519.398C938.702 521.998 940.502 527.898 937.902 532.698C936.102 535.998 932.702 537.898 929.202 537.898Z" fill="#FF7F41"/>
<path d="M1449.3 518.498C1444.9 518.498 1440.6 516.298 1438.2 512.198C1434.6 506.098 1436.6 498.198 1442.7 494.598C1468.6 479.198 1498.1 468.898 1528.1 464.598C1535.1 463.598 1541.7 468.498 1542.7 475.498C1543.7 482.498 1538.8 489.098 1531.8 490.098C1505.2 493.898 1478.9 503.098 1456 516.698C1453.8 517.898 1451.5 518.498 1449.3 518.498Z" fill="#F5B6CD"/>
<path d="M1471.5 489.999C1467.9 489.999 1464.5 487.899 1463 484.299C1461.1 479.599 1463.3 474.199 1468 472.299C1485.6 464.999 1503.9 459.799 1522.3 456.799C1541 453.799 1560 452.999 1578.7 454.399C1583.8 454.799 1587.6 459.199 1587.2 464.299C1586.8 469.399 1582.4 473.199 1577.3 472.799C1559.9 471.499 1542.4 472.299 1525.1 474.999C1508.1 477.699 1491.2 482.599 1474.9 489.299C1473.9 489.799 1472.7 489.999 1471.5 489.999Z" fill="#FDDA24"/>
<path d="M1732.6 544C1730.4 544 1728.2 543.5 1726.2 542.3C1715.6 536.3 1705.4 529.3 1695.5 522.5C1692.8 520.7 1690.2 518.9 1687.5 517.1C1682.4 513.6 1675.6 509.1 1668.6 505C1661.4 500.8 1655 497.5 1649 494.8C1642.5 491.9 1639.6 484.3 1642.5 477.8C1645.4 471.3 1653 468.4 1659.5 471.3C1666.3 474.4 1673.6 478.1 1681.6 482.8C1689.2 487.3 1696.4 492.1 1701.9 495.7C1704.6 497.5 1707.4 499.4 1710.1 501.2C1720 508 1729.4 514.3 1739.1 519.9C1745.3 523.4 1747.4 531.3 1743.9 537.5C1741.5 541.7 1737.1 544 1732.6 544Z" fill="#F5B6CD"/>
<path d="M1608.9 491.598C1608.1 491.598 1607.3 491.498 1606.4 491.298C1589.1 487.298 1571.2 485.598 1553.3 486.298C1547.2 486.498 1542.1 481.698 1541.9 475.698C1541.7 469.598 1546.5 464.498 1552.5 464.298C1572.3 463.598 1592.1 465.498 1611.3 469.898C1617.2 471.298 1621 477.198 1619.6 483.098C1618.5 488.198 1614 491.598 1608.9 491.598Z" fill="#00C389"/>
<path d="M1678.8 523.5C1676.4 523.5 1674 522.8 1671.8 521.5C1667.8 518.9 1664.4 516.8 1661.2 515C1657.6 513 1654.1 511 1650.5 509.2L1650.4 509.1C1643.2 505.5 1635.7 502.3 1628 499.5C1621.3 497.1 1617.8 489.7 1620.2 483.1C1622.6 476.4 1630 472.9 1636.6 475.3C1645.2 478.4 1653.7 482 1661.8 486.1C1666 488.2 1670.1 490.4 1673.8 492.6L1673.9 492.7C1677.4 494.8 1681.1 497 1685.5 499.9C1691.5 503.7 1693.2 511.7 1689.4 517.7C1687.2 521.4 1683.1 523.5 1678.8 523.5Z" fill="#FF7F41"/>
<path d="M1780.4 568.997C1780.2 568.997 1779.9 568.997 1779.7 568.997C1764.9 567.897 1749.8 563.597 1734.7 556.397C1720.8 549.697 1708.1 541.397 1697.3 534.097C1693.1 531.297 1692 525.497 1694.8 521.297C1697.6 517.097 1703.4 515.997 1707.6 518.797C1717.8 525.697 1729.8 533.597 1742.6 539.797C1755.6 545.997 1768.5 549.697 1781 550.597C1786.1 550.997 1789.9 555.397 1789.5 560.497C1789.2 565.397 1785.2 568.997 1780.4 568.997Z" fill="#59CBE8"/>
<path d="M1786.9 560.798C1778.8 560.798 1770.3 559.598 1761.1 557.198C1754.2 555.398 1750.1 548.398 1751.9 541.498C1753.7 534.598 1760.7 530.498 1767.6 532.298C1776 534.498 1783.3 535.298 1790 534.998H1790.2C1797 534.698 1803.8 532.998 1809.8 529.998C1816.2 526.798 1823.9 529.398 1827.1 535.798C1830.3 542.198 1827.7 549.898 1821.3 553.098C1812 557.698 1801.6 560.398 1791.2 560.798C1789.8 560.698 1788.3 560.798 1786.9 560.798Z" fill="#9063CD"/>
<path d="M1355.8 701.9C1355.3 701.9 1354.9 701.8 1354.4 701.7C1352.2 700.9 1351 698.5 1351.8 696.3C1359.8 673.4 1379.9 650.9 1380.8 650C1382.4 648.2 1385.1 648.1 1386.8 649.7C1388.6 651.3 1388.7 654 1387.1 655.7C1386.9 655.9 1367.2 677.9 1359.8 699.1C1359.3 700.8 1357.6 701.9 1355.8 701.9Z" fill="#FF7F41"/>
<path d="M1358.2 728.801C1357.9 728.801 1357.6 728.801 1357.2 728.701C1354.1 728.201 1352 725.201 1352.6 722.101C1358.9 685.401 1381.6 651.701 1413.3 632.001C1416 630.301 1419.5 631.201 1421.2 633.801C1422.9 636.501 1422 640.001 1419.4 641.701C1390.5 659.701 1369.7 690.401 1363.9 724.001C1363.3 726.801 1360.9 728.801 1358.2 728.801Z" fill="#FDDA24"/>
<path d="M1459.3 626.701L1421.5 711.601L1388.4 715.401C1388.3 715.401 1344.2 590.001 1459.3 626.701Z" fill="#59CBE8"/>
<path d="M1430.5 883.001C1426.1 883.001 1422.1 879.901 1421.3 875.401C1421.1 874.501 1404 785.401 1397.3 736.601C1396.6 731.501 1400.2 726.701 1405.3 726.001C1410.4 725.301 1415.2 728.901 1415.9 734.001C1422.5 782.301 1439.6 870.901 1439.7 871.801C1440.7 876.901 1437.3 881.801 1432.2 882.801C1431.7 882.901 1431.1 883.001 1430.5 883.001Z" fill="#9063CD"/>
<path d="M1437.4 759.398C1437.4 759.398 1442.9 805.998 1463.3 834.998L1437.4 759.398Z" fill="white"/>
<path d="M1463.3 841.9C1461.1 841.9 1458.9 840.9 1457.6 838.9C1436.4 808.9 1430.7 762.1 1430.4 760.1C1429.9 756.3 1432.7 752.8 1436.5 752.3C1440.3 751.8 1443.8 754.6 1444.3 758.4C1444.4 758.8 1449.9 803.6 1469 830.8C1471.2 834 1470.5 838.3 1467.3 840.6C1466.1 841.5 1464.7 841.9 1463.3 841.9Z" fill="#00C389"/>
<path d="M1480.6 888.198C1478.2 888.198 1475.9 887.298 1474 885.498C1433.8 846.298 1419.1 762.598 1418.5 758.998C1417.6 753.898 1421.1 748.998 1426.2 748.098C1431.3 747.198 1436.2 750.698 1437.1 755.798C1437.2 756.598 1451.4 836.998 1487.2 871.998C1490.9 875.598 1491 881.598 1487.4 885.298C1485.5 887.198 1483 888.198 1480.6 888.198Z" fill="#FDDA24"/>
<path d="M1445.6 639.4C1443.1 639.4 1440.8 637.8 1440.1 635.2C1439.2 632.2 1441 629 1444 628.2C1457.1 624.5 1468.7 616.3 1476.7 605.2C1484.6 594.1 1488.5 580.4 1487.7 566.8C1487.6 564.3 1487.2 561.9 1486.7 559.6C1486 556.5 1488 553.5 1491.1 552.8C1494.2 552.1 1497.2 554.1 1497.9 557.2C1498.5 560.1 1498.9 563.1 1499.1 566.1C1500.1 582.3 1495.4 598.5 1486 611.8C1476.6 625 1462.8 634.8 1447.1 639.2C1446.7 639.4 1446.1 639.4 1445.6 639.4Z" fill="#9063CD"/>
<path d="M1453 644.199C1451.1 644.199 1449.4 642.999 1448.9 641.099C1448.3 638.799 1449.6 636.499 1451.8 635.799C1485.7 626.199 1493.3 593.499 1493.3 593.099C1493.8 590.799 1496.1 589.299 1498.4 589.799C1500.7 590.299 1502.2 592.599 1501.7 594.899C1501.4 596.399 1492.9 632.899 1454.1 643.899C1453.8 644.099 1453.4 644.199 1453 644.199Z" fill="#FDDA24"/>
<path d="M1499.9 576.4C1499.8 576.4 1499.7 576.4 1499.7 576.4C1497.3 576.3 1495.5 574.3 1495.7 571.9C1495.9 567.8 1495.6 560 1493.9 556.8C1492.8 554.7 1493.6 552.1 1495.6 551C1497.7 549.9 1500.3 550.7 1501.4 552.7C1504.8 559 1504.3 571 1504.2 572.3C1504 574.6 1502.2 576.4 1499.9 576.4Z" fill="#FDDA24"/>
<path d="M1407.5 697.602H1384L1400.2 772.902H1489.8L1487.5 762.102C1479.3 724.502 1446.1 697.602 1407.5 697.602Z" fill="#2C2A29"/>
</svg>
