<svg width="1080" height="1080" viewBox="0 0 1080 1080" fill="none" xmlns="http://www.w3.org/2000/svg">
<path d="M840.279 552.3C822.779 552.3 807.779 538.9 806.279 521.1C804.979 505.9 802.379 490.7 798.579 476C794.879 461.8 789.779 447.4 783.379 433.2C777.179 419.4 769.679 406 761.179 393.4C752.779 381 743.079 369.1 732.479 358C721.979 347 710.479 336.9 698.279 327.8C686.579 319 673.479 311 659.579 303.9C646.079 297.1 631.879 291.3 617.279 286.8C603.379 282.5 588.379 279.3 572.879 277.3C554.179 274.9 540.979 257.7 543.379 239C545.779 220.3 562.979 207.1 581.679 209.5C600.979 212 619.779 216.1 637.479 221.5C655.679 227.2 673.479 234.4 690.379 243C707.879 251.9 724.179 262 739.079 273C754.279 284.3 768.679 297 781.779 310.7C795.079 324.5 807.079 339.4 817.679 355L817.779 355.1C828.379 370.9 837.779 387.6 845.579 404.9C853.579 422.7 860.079 440.8 864.779 458.8C869.479 477.2 872.679 496.1 874.379 515C875.979 533.8 862.079 550.4 843.279 552C842.279 552.3 841.279 552.3 840.279 552.3Z" fill="#F5B6CD"/>
<path d="M767.176 422.701C759.576 422.701 752.076 418.901 747.676 412.001C729.776 383.701 705.776 358.801 678.176 339.801C664.176 330.201 649.376 322.001 634.076 315.601C618.576 309.101 602.476 304.201 585.976 301.001C553.076 294.601 518.376 294.801 485.776 301.801C453.176 308.801 421.576 322.701 394.276 342.201C383.876 349.601 369.576 347.201 362.176 336.801C354.776 326.401 357.176 312.101 367.576 304.701C399.976 281.601 437.476 265.001 476.176 256.801C514.776 248.501 555.876 248.201 594.876 255.801C614.376 259.601 633.576 265.501 651.976 273.201C670.076 280.801 687.776 290.501 704.376 301.901C737.076 324.401 765.476 354.001 786.676 387.401C793.476 398.101 790.276 412.401 779.476 419.201C775.676 421.601 771.376 422.701 767.176 422.701Z" fill="#FF7F41"/>
<path d="M264.078 442.802C259.878 442.802 255.578 441.902 251.478 439.902C236.878 432.902 230.678 415.402 237.678 400.802C248.178 378.902 261.278 357.902 276.678 338.302L279.178 335.102C280.278 333.702 281.478 332.202 282.878 330.602L291.878 320.202L303.078 308.502L314.778 297.402L321.378 291.702C321.878 291.202 322.478 290.802 322.978 290.302C324.578 288.902 326.478 287.302 328.678 285.602C367.578 254.302 412.978 231.902 459.978 220.802C475.778 217.102 491.478 226.802 495.178 242.602C498.878 258.402 489.178 274.102 473.378 277.802C434.678 286.902 397.278 305.402 365.278 331.302L364.478 331.902C363.778 332.402 362.678 333.402 361.578 334.302C360.878 334.902 360.178 335.502 359.478 336.102L353.678 341.102L343.978 350.302L334.978 360.002L326.878 369.402C326.478 369.802 325.878 370.702 325.478 371.102L322.778 374.502C309.978 390.702 299.178 408.102 290.578 426.002C285.478 436.602 275.078 442.802 264.078 442.802Z" fill="#00C389"/>
<path d="M680.778 921H398.278C370.278 921 347.578 898.3 347.578 870.3V208.2C347.578 180.2 370.278 157.5 398.278 157.5H680.778C708.778 157.5 731.478 180.2 731.478 208.2V870.3C731.478 898.3 708.778 921 680.778 921Z" fill="#FDDA24"/>
<path d="M680.778 921.4H398.178C369.978 921.4 347.078 898.5 347.078 870.3V208.1C347.078 179.9 369.978 157 398.178 157H680.678C708.878 157 731.778 179.9 731.778 208.1V870.2C731.878 898.4 708.978 921.4 680.778 921.4ZM398.178 157.8C370.378 157.8 347.778 180.4 347.778 208.2V870.3C347.778 898.1 370.378 920.7 398.178 920.7H680.678C708.478 920.7 731.078 898.1 731.078 870.3V208.2C731.078 180.4 708.478 157.8 680.678 157.8H398.178Z" fill="#FDDA24"/>
<path d="M704.88 233.801H374.18V823.101H704.88V233.801Z" fill="white"/>
<path d="M474.276 466.198C475.276 470.198 479.376 472.198 483.476 470.898C517.176 460.598 550.876 453.598 585.676 448.498C589.676 447.998 591.876 443.898 590.376 439.798C587.276 431.198 585.676 426.798 582.576 418.198C581.276 414.598 577.576 412.198 573.876 412.598C539.876 416.798 506.976 422.898 474.076 432.398C469.776 433.698 467.176 438.498 468.276 442.698C470.576 451.998 471.876 456.698 474.276 466.198Z" fill="#2C2A29"/>
<path d="M610.678 470.897C609.378 466.997 605.778 464.497 602.278 464.897C548.978 471.597 497.178 484.697 447.978 506.297C444.378 507.997 442.278 512.497 442.978 516.397C444.878 526.497 445.878 531.497 447.878 541.597C448.678 545.897 452.778 547.897 456.778 545.997C506.678 523.297 559.478 508.897 613.678 500.297C617.078 499.697 618.878 495.797 617.578 491.797C614.878 483.397 613.478 479.197 610.678 470.897Z" fill="#2C2A29"/>
<path d="M610.477 527.199C609.177 523.099 605.277 520.399 601.677 521.099C568.377 528.299 535.877 536.899 503.777 547.799C499.677 549.299 497.377 553.599 498.477 557.499C501.077 566.899 502.277 571.499 504.877 580.899C506.077 585.299 511.077 587.599 515.677 585.799C547.877 574.399 580.377 564.399 613.577 556.399C616.777 555.599 618.377 551.899 617.177 548.099C614.577 539.799 613.177 535.599 610.477 527.199Z" fill="#2C2A29"/>
<path d="M538.48 841.099C526.68 841.099 514.78 840.399 503.18 839.099H502.88L496.68 838.299C494.68 838.099 492.18 837.799 489.58 837.199C488.18 836.899 486.88 836.699 485.48 836.499C482.98 836.099 480.48 835.599 477.78 835.099L476.88 834.899L464.68 832.099C461.98 831.399 459.38 830.699 456.88 829.899C455.58 829.499 454.18 829.099 452.88 828.799L452.28 828.599C418.98 818.499 387.88 802.799 359.98 781.899C332.18 760.999 308.38 735.599 289.28 706.299C279.68 691.599 271.48 676.199 264.78 660.499C258.08 644.499 252.68 627.899 248.78 610.999C245.58 597.099 254.28 583.199 268.18 579.999C282.08 576.799 295.98 585.499 299.18 599.399C302.38 613.399 306.78 627.099 312.38 640.199C317.88 653.099 324.68 665.799 332.58 677.999C348.38 702.199 368.08 723.299 390.98 740.499C413.98 757.699 439.58 770.699 466.98 778.999C468.38 779.399 469.78 779.799 471.18 780.199C473.38 780.799 475.38 781.399 477.38 781.899L488.18 784.399C490.28 784.799 492.38 785.199 494.48 785.499C496.08 785.799 497.58 785.999 499.18 786.299L499.58 786.399C500.38 786.599 501.68 786.699 503.08 786.899L509.38 787.699C523.48 789.299 537.98 789.799 552.38 788.999C566.68 788.299 578.78 799.199 579.58 813.399C580.38 827.599 569.38 839.799 555.18 840.599C549.48 840.899 543.98 841.099 538.48 841.099Z" fill="#F5B6CD"/>
<path d="M317.978 782.799C310.178 782.799 302.378 779.699 296.478 773.599C265.278 740.699 240.578 700.999 225.078 658.699C209.678 616.499 202.878 570.199 205.578 524.899C206.478 508.599 220.578 496.099 236.878 497.099C253.178 497.999 265.678 511.999 264.678 528.399C262.478 565.699 268.078 603.799 280.778 638.399C293.478 673.099 313.778 705.799 339.478 732.799C350.778 744.699 350.278 763.399 338.378 774.699C332.678 780.099 325.278 782.799 317.978 782.799Z" fill="#FF7F41"/>
<path d="M537.678 872.1C531.678 872.1 525.778 872 519.778 871.7H519.578C484.178 869.6 450.178 862.2 418.578 849.7C406.078 844.7 399.878 830.5 404.878 818C409.878 805.5 424.078 799.3 436.578 804.3C463.278 814.9 492.178 821.2 522.378 823C537.178 823.7 552.078 823.4 566.578 822C581.278 820.4 595.978 817.7 610.078 814C667.178 798.8 718.778 765.2 755.478 719.3C763.878 708.8 779.278 707 789.778 715.5C800.278 723.9 801.978 739.3 793.578 749.8C750.378 803.8 689.678 843.4 622.478 861.3C605.878 865.6 588.778 868.8 571.578 870.6H571.278C560.178 871.6 548.978 872.1 537.678 872.1Z" fill="#59CBE8"/>
<path d="M693.379 796C684.079 796 674.879 791.6 669.079 783.4C659.679 770 662.879 751.6 676.279 742.2C690.679 732.1 704.079 720.4 715.979 707.4C727.579 694.8 738.079 680.5 747.079 664.9C755.879 649.7 763.079 633.5 768.279 616.8C773.479 600.4 776.879 583.1 778.379 565.2C779.779 548.9 794.079 536.8 810.379 538.2C826.679 539.6 838.779 553.9 837.379 570.2C835.479 592.4 831.179 614.1 824.779 634.6C818.179 655.4 809.279 675.6 798.279 694.5C787.079 713.9 773.979 731.7 759.479 747.4C744.679 763.5 728.079 778 710.279 790.5C705.179 794.2 699.179 796 693.379 796Z" fill="#9063CD"/>
<path d="M618.777 201.898C623.472 201.898 627.277 198.093 627.277 193.398C627.277 188.704 623.472 184.898 618.777 184.898C614.083 184.898 610.277 188.704 610.277 193.398C610.277 198.093 614.083 201.898 618.777 201.898Z" fill="white"/>
<path d="M467.977 198.898C471.014 198.898 473.477 196.436 473.477 193.398C473.477 190.361 471.014 187.898 467.977 187.898C464.939 187.898 462.477 190.361 462.477 193.398C462.477 196.436 464.939 198.898 467.977 198.898Z" fill="#00C389"/>
</svg>
