<svg width="1080" height="1080" viewBox="0 0 1080 1080" fill="none" xmlns="http://www.w3.org/2000/svg">
<path d="M559.994 919.8C671.224 919.8 761.394 829.63 761.394 718.4C761.394 607.17 671.224 517 559.994 517C448.764 517 358.594 607.17 358.594 718.4C358.594 829.63 448.764 919.8 559.994 919.8Z" fill="#E4AC7B"/>
<path d="M652.994 777.4L420.394 777.5C395.494 777.5 375.294 757.3 375.294 732.4L375.094 206.2C375.094 181.3 395.294 161.1 420.194 161.1L652.794 161C677.694 161 697.894 181.2 697.894 206.1L698.094 732.2C698.094 757.2 677.894 777.4 652.994 777.4Z" fill="#59CBE8"/>
<path d="M536.695 761.898C548.017 761.898 557.195 752.72 557.195 741.398C557.195 730.077 548.017 720.898 536.695 720.898C525.373 720.898 516.195 730.077 516.195 741.398C516.195 752.72 525.373 761.898 536.695 761.898Z" fill="white"/>
<path d="M673.693 229.5L673.893 701.6L673.693 701.7L399.493 701.8L399.393 647.3L399.293 229.6L673.693 229.5Z" fill="white"/>
<path d="M601.595 472.698C595.595 472.698 590.695 467.798 590.695 461.798V371.498C590.695 365.498 595.595 360.598 601.595 360.598C607.595 360.598 612.495 365.498 612.495 371.498V461.798C612.495 467.798 607.595 472.698 601.595 472.698Z" fill="#F5B6CD"/>
<path d="M591.293 437.798C586.993 437.798 583.493 434.298 583.493 429.998V355.398C583.493 355.098 583.493 354.798 583.493 354.598L583.293 350.998C583.293 350.898 583.293 350.898 583.293 350.798L582.793 347.698C582.793 347.498 582.693 347.198 582.693 346.998V346.798L581.693 342.798L580.293 339.098C580.193 338.998 580.193 338.898 580.093 338.698C579.993 338.498 579.893 338.298 579.793 338.098L578.593 335.598C578.393 335.198 578.193 334.898 577.893 334.498C577.693 334.098 577.393 333.798 577.193 333.398L577.093 333.198C576.793 332.698 576.493 332.098 576.193 331.898C573.493 328.598 573.993 323.698 577.293 320.998C580.593 318.298 585.493 318.798 588.193 322.098C589.093 323.298 589.793 324.398 590.393 325.298L590.593 325.598C590.793 325.898 590.993 326.198 591.193 326.498C591.593 327.198 591.993 327.798 592.393 328.498L592.593 328.898L594.093 332.098C594.293 332.498 594.493 332.898 594.693 333.298L594.893 333.698L596.693 338.698L597.793 343.098C597.993 343.798 598.093 344.498 598.193 344.998L598.693 348.298C598.893 349.198 598.893 349.998 598.893 350.498L599.093 353.898C599.093 354.398 599.193 355.098 599.193 355.798V429.998C599.093 434.298 595.593 437.798 591.293 437.798Z" fill="#FDDA24"/>
<path d="M494.095 402.198C488.095 402.198 483.195 397.298 483.195 391.298V354.198L483.395 350.498C483.395 349.098 483.595 347.898 483.795 347.098L484.295 343.698C487.395 326.798 498.395 311.598 513.695 303.098C518.895 300.198 525.495 301.998 528.495 307.198C531.495 312.398 529.595 318.998 524.395 321.998C514.895 327.298 507.795 337.098 505.795 347.498L505.295 350.598C505.295 350.798 505.195 350.898 505.195 351.098V351.498L504.995 355.198V367.998V391.398C504.995 397.298 500.095 402.198 494.095 402.198Z" fill="#F5B6CD"/>
<path d="M600.894 355.697C596.294 355.697 592.294 352.297 591.694 347.497C591.194 343.597 589.994 339.397 587.994 334.697L586.394 331.397C586.094 330.897 585.794 330.297 585.394 329.697C585.094 329.297 584.894 328.897 584.694 328.497L583.894 327.197L582.994 325.997C582.694 325.597 582.394 325.197 582.094 324.897C581.694 324.297 581.294 323.797 580.894 323.297C580.594 322.997 580.294 322.697 579.994 322.297C578.694 320.897 577.494 319.497 576.294 318.497L575.794 317.997C574.694 316.897 573.294 315.897 571.794 314.697C571.394 314.397 570.994 314.097 570.694 313.797C570.194 313.497 569.594 313.097 568.994 312.697C568.594 312.497 568.194 312.197 567.794 311.997L566.494 311.197L565.094 310.497C564.694 310.297 564.194 310.097 563.794 309.897C563.194 309.597 562.594 309.297 561.994 309.097L558.394 307.797C553.594 305.997 551.094 300.697 552.894 295.897C554.694 291.097 559.994 288.597 564.794 290.397L568.894 291.897C569.994 292.397 570.994 292.797 571.894 293.297C572.294 293.497 572.594 293.697 572.994 293.797L575.694 295.097L577.494 296.197C577.794 296.397 578.194 296.597 578.494 296.797C579.294 297.297 580.294 297.897 581.194 298.497L581.594 298.797C581.994 299.097 582.394 299.397 582.794 299.697C584.594 300.997 586.594 302.497 588.594 304.397C590.694 306.197 592.394 308.097 593.894 309.797L595.094 311.097C595.894 311.997 596.494 312.897 597.094 313.697C597.294 313.997 597.594 314.297 597.794 314.697L599.594 317.097L600.694 318.897C600.894 319.197 601.094 319.597 601.294 319.897C601.794 320.697 602.394 321.697 602.994 322.697L603.194 322.997L605.094 326.997C607.894 333.397 609.594 339.297 610.294 345.097C610.894 350.197 607.294 354.797 602.194 355.497C601.694 355.697 601.294 355.697 600.894 355.697Z" fill="#00C389"/>
<path d="M488.492 342.799C486.892 342.799 485.292 342.499 483.792 341.699C478.392 339.099 476.092 332.599 478.692 327.199L481.492 321.499C481.792 320.999 481.992 320.599 482.292 320.099L484.992 315.799C485.592 314.999 486.092 314.199 486.692 313.499L488.692 310.899C489.192 310.299 489.692 309.699 489.992 309.399L493.292 305.799C494.092 304.999 494.792 304.299 495.492 303.699C495.792 303.499 495.992 303.199 496.292 302.999L497.792 301.699C498.492 301.099 499.192 300.599 499.592 300.299L503.292 297.499C504.292 296.799 505.192 296.299 505.992 295.799C506.292 295.599 506.492 295.499 506.792 295.299C508.892 293.899 510.992 292.899 512.892 291.999C513.392 291.799 513.992 291.499 514.492 291.199L514.692 291.099C515.892 290.499 517.092 290.099 517.992 289.799C518.292 289.699 518.592 289.599 518.892 289.499L519.292 289.399C519.592 289.299 519.792 289.199 520.092 289.099C521.092 288.699 522.292 288.299 523.892 287.899L528.892 286.599C529.292 286.499 529.592 286.499 529.992 286.399L532.092 286.099C537.992 285.199 543.592 289.199 544.492 295.199C545.392 301.199 541.392 306.699 535.392 307.599L532.692 308.099L528.692 309.099C528.592 309.099 528.092 309.299 527.692 309.399C527.292 309.499 526.992 309.699 526.592 309.799C526.192 309.999 525.692 310.099 525.292 310.299C524.792 310.499 524.292 310.599 524.092 310.799C523.492 311.099 522.892 311.399 522.292 311.699C520.892 312.299 519.692 312.899 518.792 313.499L518.492 313.699C518.092 313.999 517.692 314.199 517.292 314.499C516.792 314.799 516.292 315.099 515.892 315.299L513.192 317.299C512.992 317.499 512.792 317.599 512.492 317.799L512.292 317.899L510.992 318.999C510.692 319.299 510.392 319.599 509.992 319.899C509.592 320.299 509.092 320.699 508.692 321.099L506.392 323.599C506.192 323.799 506.092 323.999 505.892 324.199C505.792 324.299 505.692 324.399 505.592 324.499L503.892 326.799C503.492 327.299 503.092 327.799 502.792 328.299L500.692 331.699C500.592 331.899 500.492 332.099 500.392 332.199L498.192 336.799C496.392 340.499 492.492 342.799 488.492 342.799ZM512.392 317.699C512.292 317.699 512.292 317.699 512.392 317.699V317.699Z" fill="#FF7F41"/>
<path d="M483.394 454.698C483.294 454.698 483.294 454.698 483.394 454.698C478.994 454.698 475.594 451.098 475.594 446.898L475.994 404.698V362.598C475.994 358.298 479.494 354.898 483.794 354.898C488.094 354.898 491.594 358.398 491.494 362.698V404.898L491.094 447.098C491.094 451.298 487.594 454.698 483.394 454.698Z" fill="#59CBE8"/>
<path d="M493.294 497.301H493.194C487.194 497.201 482.394 492.301 482.494 486.301L483.094 428.001C483.194 422.001 487.994 417.301 493.994 417.301H494.094C500.094 417.401 504.894 422.301 504.794 428.301L504.194 486.601C504.094 492.501 499.194 497.301 493.294 497.301Z" fill="#9063CD"/>
<path d="M539.395 565.298C489.295 565.298 448.695 524.698 448.695 474.598V419.698C448.695 407.698 458.495 397.898 470.495 397.898H608.395C620.395 397.898 630.195 407.698 630.195 419.698V474.598C630.095 524.598 589.495 565.298 539.395 565.298Z" fill="#9063CD"/>
<path d="M518.798 493.398V524.198H488.098L518.798 493.398Z" fill="white"/>
<path d="M559.996 462.202V430.102H592.096L559.996 462.202Z" fill="white"/>
<path d="M505.597 517.7C503.897 517.7 502.097 517 500.797 515.7C490.497 505.4 484.797 491.7 484.797 477.1C484.797 462.5 490.497 448.8 500.797 438.5C511.097 428.2 524.797 422.5 539.397 422.5C543.197 422.5 546.197 425.6 546.197 429.3C546.197 433.1 543.097 436.1 539.397 436.1C528.497 436.1 518.197 440.4 510.397 448.1C502.697 455.8 498.397 466.1 498.397 477.1C498.397 488.1 502.697 498.3 510.397 506.1C513.097 508.8 513.097 513.1 510.397 515.7C509.097 517.1 507.297 517.7 505.597 517.7Z" fill="white"/>
<path d="M539.398 531.699C535.598 531.699 532.598 528.599 532.598 524.899C532.598 521.099 535.698 518.099 539.398 518.099C550.298 518.099 560.598 513.799 568.398 506.099C584.398 490.099 584.398 464.099 568.398 448.099C565.698 445.399 565.698 441.099 568.398 438.499C571.098 435.899 575.398 435.799 577.998 438.499C599.298 459.799 599.298 494.499 577.998 515.799C567.698 526.099 553.998 531.699 539.398 531.699Z" fill="white"/>
<path d="M673.695 647.199H399.395V701.699H673.695V647.199Z" fill="#FDDA24"/>
<path d="M398.996 702.299V646.799H399.496L674.296 646.699V702.199H673.796L398.996 702.299ZM399.896 647.799V701.299L673.196 701.199V647.699L399.896 647.799Z" fill="#FDDA24"/>
<path d="M755.194 723.498C748.394 755.198 734.794 785.398 715.194 811.798C710.794 817.698 707.194 824.698 704.194 832.298C700.694 841.098 697.994 850.698 695.994 859.998C684.994 857.898 674.494 854.198 664.894 849.098L608.494 777.598C606.294 768.798 605.094 759.598 605.094 750.098C605.094 712.398 623.694 679.098 652.194 658.798C661.294 652.298 663.094 650.298 673.894 646.798V598.998L631.394 511.598C614.694 485.598 622.294 451.098 648.194 434.398C649.294 433.698 650.494 433.398 651.694 433.398C653.794 433.398 655.894 434.398 657.094 436.398L702.994 507.898L742.694 569.198C752.094 583.698 757.394 600.398 758.194 617.698L759.194 639.798L759.494 646.298V646.498L760.294 664.398C760.994 684.398 759.294 704.298 755.194 723.498Z" fill="#E4AC7B"/>
<path d="M361.196 696.101L328.396 654.901C315.296 638.501 317.996 614.601 334.496 601.501L364.196 577.801L420.696 648.701C433.796 665.101 431.096 689.001 414.596 702.101C398.096 715.301 374.196 712.601 361.196 696.101Z" fill="#E4AC7B"/>
<path d="M361.094 619.3L328.294 578.1C315.194 561.7 317.894 537.8 334.394 524.7L364.094 501L420.594 571.9C433.694 588.3 430.994 612.2 414.494 625.3C398.094 638.4 374.194 635.7 361.094 619.3Z" fill="#E4AC7B"/>
<path d="M361.094 542.499L328.294 501.299C315.194 484.899 317.894 460.999 334.394 447.899L364.094 424.199L420.594 495.099C433.694 511.499 430.994 535.399 414.494 548.499C398.094 561.599 374.194 558.899 361.094 542.499Z" fill="#E4AC7B"/>
<path d="M363.996 347.402L375.096 339.102V379.902L363.996 347.402Z" fill="#E4AC7B"/>
<path d="M361.094 465.598L328.294 424.398C315.194 407.998 317.894 384.098 334.394 370.998L363.994 347.398L420.494 418.298C433.594 434.698 430.894 458.598 414.394 471.698C397.994 484.698 374.194 481.998 361.094 465.598Z" fill="#E4AC7B"/>
</svg>
