<svg width="1080" height="1080" viewBox="0 0 1080 1080" fill="none" xmlns="http://www.w3.org/2000/svg">
<path d="M268.501 294.802C266.101 294.802 264.201 292.902 264.201 290.502C264.201 278.002 260.301 270.602 258.601 270.202C256.201 270.202 254.301 268.302 254.301 265.902C254.301 263.502 256.201 261.602 258.601 261.602C267.901 261.602 272.701 276.102 272.701 290.502C272.801 292.802 270.901 294.802 268.501 294.802Z" fill="#00C389"/>
<path d="M313.001 294.802C310.601 294.802 308.701 292.902 308.701 290.502C308.701 278.002 304.801 270.602 303.101 270.202C300.701 270.202 298.801 268.302 298.801 265.902C298.801 263.502 300.701 261.602 303.101 261.602C312.401 261.602 317.201 276.102 317.201 290.502C317.301 292.802 315.301 294.802 313.001 294.802Z" fill="#F5B6CD"/>
<path d="M357.399 294.802C354.999 294.802 353.099 292.902 353.099 290.502C353.099 278.002 349.199 270.602 347.499 270.202C345.099 270.202 343.199 268.302 343.199 265.902C343.199 263.502 345.099 261.602 347.499 261.602C356.799 261.602 361.599 276.102 361.599 290.502C361.699 292.802 359.799 294.802 357.399 294.802Z" fill="#9063CD"/>
<path d="M398.899 294.802C396.499 294.802 394.599 292.902 394.599 290.502C394.599 278.002 390.699 270.602 388.999 270.202C386.599 270.202 384.699 268.302 384.699 265.902C384.699 263.502 386.599 261.602 388.999 261.602C398.299 261.602 403.099 276.102 403.099 290.502C403.199 292.802 401.299 294.802 398.899 294.802Z" fill="#59CBE8"/>
<path d="M446.399 294.802C443.999 294.802 442.099 292.902 442.099 290.502C442.099 278.002 438.199 270.602 436.499 270.202C434.099 270.202 432.199 268.302 432.199 265.902C432.199 263.502 434.099 261.602 436.499 261.602C445.799 261.602 450.599 276.102 450.599 290.502C450.599 292.802 448.699 294.802 446.399 294.802Z" fill="#FF7F41"/>
<path d="M488.3 321.301H236.5V563.301H488.3V321.301Z" fill="#00C389"/>
<path d="M473.999 309.5H222.199V551.5H473.999V309.5Z" fill="#59CBE8"/>
<path d="M290.301 507.198C266.301 507.198 246.801 487.698 246.801 463.698V416.898C246.801 392.898 266.301 373.398 290.301 373.398C314.301 373.398 333.801 392.898 333.801 416.898V463.698C333.901 487.698 314.301 507.198 290.301 507.198ZM290.301 395.298C278.401 395.298 268.801 404.998 268.801 416.798V463.598C268.801 475.498 278.501 485.098 290.301 485.098C302.201 485.098 311.801 475.398 311.801 463.598V416.798C311.901 404.998 302.201 395.298 290.301 395.298Z" fill="white"/>
<path d="M442.202 476.099H357.302C353.502 476.099 349.902 474.099 347.902 470.799C345.902 467.499 345.802 463.399 347.502 459.999L385.502 386.499C388.302 381.099 394.902 378.999 400.302 381.799C405.702 384.599 407.802 391.199 405.002 396.599L375.302 453.999H442.102C448.202 453.999 453.102 458.899 453.102 464.999C453.102 471.099 448.202 476.099 442.202 476.099Z" fill="white"/>
<path d="M421.301 509.398C415.201 509.398 410.301 504.498 410.301 498.398V426.398C410.301 420.298 415.201 415.398 421.301 415.398C427.401 415.398 432.301 420.298 432.301 426.398V498.398C432.301 504.398 427.401 509.398 421.301 509.398Z" fill="white"/>
<path d="M475.099 290.5H222.199V344.4H475.099V290.5Z" fill="#FDDA24"/>
<path d="M475.3 344.601H222V290.301H475.3V344.601ZM222.4 344.101H474.9V290.701H222.4V344.101Z" fill="#FDDA24"/>
<path d="M258.6 319.402C249.3 319.402 244.5 304.902 244.5 290.502C244.5 276.102 249.4 261.602 258.6 261.602C261 261.602 262.9 263.502 262.9 265.902C262.9 268.302 261 270.202 258.6 270.202C257 270.602 253 278.002 253 290.502C253 303.002 256.9 310.402 258.6 310.802C261 310.802 262.9 312.702 262.9 315.102C263 317.502 261 319.402 258.6 319.402Z" fill="#00C389"/>
<path d="M303.1 319.402C293.8 319.402 289 304.902 289 290.502C289 276.102 293.9 261.602 303.1 261.602C305.5 261.602 307.4 263.502 307.4 265.902C307.4 268.302 305.5 270.202 303.1 270.202C301.5 270.602 297.5 278.002 297.5 290.502C297.5 303.002 301.4 310.402 303.1 310.802C305.5 310.802 307.4 312.702 307.4 315.102C307.4 317.502 305.5 319.402 303.1 319.402Z" fill="#F5B6CD"/>
<path d="M347.6 319.402C338.3 319.402 333.5 304.902 333.5 290.502C333.5 276.102 338.4 261.602 347.6 261.602C350 261.602 351.9 263.502 351.9 265.902C351.9 268.302 350 270.202 347.6 270.202C346 270.602 342 278.002 342 290.502C342 303.002 345.9 310.402 347.6 310.802C350 310.802 351.9 312.702 351.9 315.102C351.9 317.502 349.9 319.402 347.6 319.402Z" fill="#9063CD"/>
<path d="M391.998 319.402C382.698 319.402 377.898 304.902 377.898 290.502C377.898 276.102 382.798 261.602 391.998 261.602C394.398 261.602 396.298 263.502 396.298 265.902C396.298 268.302 394.398 270.202 391.998 270.202C390.398 270.602 386.398 278.002 386.398 290.502C386.398 303.002 390.298 310.402 391.998 310.802C394.398 310.802 396.298 312.702 396.298 315.102C396.298 317.502 394.398 319.402 391.998 319.402Z" fill="#59CBE8"/>
<path d="M436.498 319.402C427.198 319.402 422.398 304.902 422.398 290.502C422.398 276.102 427.298 261.602 436.498 261.602C438.898 261.602 440.798 263.502 440.798 265.902C440.798 268.302 438.898 270.202 436.498 270.202C434.898 270.602 430.898 278.002 430.898 290.502C430.898 303.002 434.798 310.402 436.498 310.802C438.898 310.802 440.798 312.702 440.798 315.102C440.798 317.502 438.898 319.402 436.498 319.402Z" fill="#FF7F41"/>
<path d="M657.701 914.198C768.931 914.198 859.101 824.029 859.101 712.798C859.101 601.568 768.931 511.398 657.701 511.398C546.471 511.398 456.301 601.568 456.301 712.798C456.301 824.029 546.471 914.198 657.701 914.198Z" fill="#E4AC7B"/>
<path d="M751.802 780.4L519.202 780.6C494.302 780.6 474.102 760.4 474.002 735.5L473.602 209.4C473.602 184.5 493.802 164.3 518.702 164.2L751.402 164C776.302 164 796.502 184.2 796.602 209.1L797.002 735.2C796.902 760.1 776.802 780.4 751.802 780.4Z" fill="#9063CD"/>
<path d="M635.5 764.898C646.822 764.898 656 755.72 656 744.398C656 733.077 646.822 723.898 635.5 723.898C624.178 723.898 615 733.077 615 744.398C615 755.72 624.178 764.898 635.5 764.898Z" fill="white"/>
<path d="M772.402 232.5L772.702 704.6H772.502L498.302 704.8L498.202 650.4L497.902 232.7L772.402 232.5Z" fill="white"/>
<path d="M711.5 345.801H559.5V544.701H711.5V345.801Z" fill="#FF7F41"/>
<path d="M689.598 409.602H581.998C579.498 409.602 577.398 407.502 577.398 405.002C577.398 402.502 579.498 400.402 581.998 400.402H689.598C692.098 400.402 694.198 402.502 694.198 405.002C694.198 407.502 692.098 409.602 689.598 409.602Z" fill="white"/>
<path d="M689.598 445.501H581.998C579.498 445.501 577.398 443.401 577.398 440.901C577.398 438.401 579.498 436.301 581.998 436.301H689.598C692.098 436.301 694.198 438.401 694.198 440.901C694.198 443.401 692.098 445.501 689.598 445.501Z" fill="white"/>
<path d="M689.598 481.403H581.998C579.498 481.403 577.398 479.303 577.398 476.803C577.398 474.303 579.498 472.203 581.998 472.203H689.598C692.098 472.203 694.198 474.303 694.198 476.803C694.198 479.303 692.098 481.403 689.598 481.403Z" fill="white"/>
<path d="M689.598 517.302H581.998C579.498 517.302 577.398 515.202 577.398 512.702C577.398 510.202 579.498 508.102 581.998 508.102H689.598C692.098 508.102 694.198 510.202 694.198 512.702C694.198 515.202 692.098 517.302 689.598 517.302Z" fill="white"/>
<path d="M703.903 381.4C725.553 381.4 743.103 363.85 743.103 342.2C743.103 320.55 725.553 303 703.903 303C682.254 303 664.703 320.55 664.703 342.2C664.703 363.85 682.254 381.4 703.903 381.4Z" fill="#00C389"/>
<path d="M692.902 364.499C691.902 364.499 691.002 364.099 690.202 363.399L679.902 352.999C678.402 351.499 678.402 349.199 679.902 347.699C681.402 346.199 683.702 346.199 685.202 347.699L692.902 355.399L722.502 325.699C724.002 324.199 726.302 324.199 727.802 325.699C729.302 327.199 729.302 329.499 727.802 330.999L695.502 363.299C694.902 364.099 693.902 364.499 692.902 364.499Z" fill="white"/>
<path d="M772.503 650.301H498.203V704.801H772.503V650.301Z" fill="#FDDA24"/>
<path d="M854 726.401C847.2 758.101 833.7 788.301 814.1 814.701C809.7 820.601 806.1 827.601 803.1 835.201C799.6 844.001 796.9 853.601 794.9 862.901C783.9 860.801 773.4 857.101 763.8 852.001L707.4 780.501C705.2 771.701 704 762.501 704 753.001C704 715.301 722.6 682.001 751.1 661.701C760.2 655.201 762 653.201 772.8 649.601V601.801L730.2 514.501C713.5 488.501 721 454.001 747 437.301C748.1 436.601 749.3 436.301 750.5 436.301C752.6 436.301 754.7 437.301 755.9 439.201L801.8 510.701L841.5 572.001C850.9 586.501 856.2 603.201 857 620.501L858 642.601L858.3 649.101V649.301L859.1 667.201C859.8 687.401 858.1 707.201 854 726.401Z" fill="#E4AC7B"/>
<path d="M707.301 780.699L763.701 852.199C736.001 837.599 715.201 811.699 707.301 780.699Z" fill="#E4AC7B"/>
<path d="M858.2 649.398V649.498V649.398C858.1 649.398 858.1 649.398 858.2 649.398Z" fill="#CB913F"/>
<path d="M460.001 699.3L427.201 658.1C414.101 641.7 416.801 617.8 433.201 604.7L462.901 581L519.401 651.9C532.501 668.3 529.801 692.2 513.401 705.3C496.901 718.4 473.001 715.7 460.001 699.3Z" fill="#E4AC7B"/>
<path d="M459.903 622.402L427.103 581.202C414.003 564.802 416.703 540.902 433.103 527.802L462.803 504.102L519.303 575.002C532.403 591.402 529.703 615.302 513.303 628.402C496.903 641.502 473.003 638.802 459.903 622.402Z" fill="#E4AC7B"/>
<path d="M459.901 545.601L427.001 504.401C413.901 488.001 416.601 464.101 433.001 451.001L462.701 427.301L519.201 498.201C532.301 514.601 529.601 538.501 513.201 551.601C496.801 564.701 472.901 562.001 459.901 545.601Z" fill="#E4AC7B"/>
<path d="M462.703 350.499L473.803 342.199V382.999L462.703 350.499Z" fill="#E4AC7B"/>
<path d="M459.801 468.698L427.001 427.498C413.901 411.098 416.601 387.198 433.001 374.098L462.701 350.398L519.201 421.298C532.301 437.698 529.601 461.598 513.201 474.698C496.801 487.798 472.901 485.098 459.801 468.698Z" fill="#E4AC7B"/>
</svg>
