<svg width="1080" height="1080" viewBox="0 0 1080 1080" fill="none" xmlns="http://www.w3.org/2000/svg">
<path d="M902.002 734.509H251.102V329.709C251.102 321.609 257.602 315.109 265.702 315.109H887.402C895.502 315.109 902.002 321.609 902.002 329.709V734.509Z" fill="#9063CD"/>
<path d="M980.5 774.408H172.5L251.1 734.508H902L980.5 774.408Z" fill="#FF7F41"/>
<path d="M969.3 811.31H183.7C177.5 811.31 172.5 806.31 172.5 800.11V774.41H980.5V800.11C980.5 806.31 975.5 811.31 969.3 811.31Z" fill="#59CBE8"/>
<path d="M870.399 352.41H282.699V710.91H870.399V352.41Z" fill="#2C2A29"/>
<path d="M276.4 862.609H126.9C112 862.609 100 850.509 100 835.709V513.209C100 498.409 112 486.309 126.9 486.309H276.5C291.3 486.309 303.4 498.309 303.4 513.209V835.709C303.3 850.509 291.3 862.609 276.4 862.609Z" fill="#00C389"/>
<path d="M201.6 849.009C208.559 849.009 214.2 843.367 214.2 836.409C214.2 829.45 208.559 823.809 201.6 823.809C194.641 823.809 189 829.45 189 836.409C189 843.367 194.641 849.009 201.6 849.009Z" fill="white"/>
<path d="M289.102 526.809H114.102V810.709H289.102V526.809Z" fill="white"/>
<path d="M289.098 783.41H114.098V810.81H289.098V783.41Z" fill="#FDDA24"/>
<path d="M289.398 811.009H113.898V783.109H289.498V811.009H289.398ZM114.398 810.509H288.898V783.709H114.398V810.509Z" fill="#FDDA24"/>
<path d="M273.302 693.61C242.202 693.61 211.602 685.61 184.602 670.41C175.402 665.21 172.102 653.61 177.302 644.31C182.502 635.11 194.102 631.81 203.402 637.01C224.602 648.91 248.802 655.31 273.302 655.31C338.502 655.31 393.602 611.41 410.702 551.61L390.002 565.31C381.202 571.11 369.302 568.71 363.502 559.91C357.702 551.11 360.102 539.21 368.902 533.41L424.702 496.61C430.602 492.71 438.102 492.41 444.302 495.71C450.502 499.01 454.402 505.51 454.402 512.51C454.402 612.41 373.202 693.61 273.302 693.61Z" fill="#FF7F41"/>
<path d="M765.699 526.809C755.799 526.809 747.699 518.709 747.699 508.809V359.109C747.699 349.209 755.799 341.109 765.699 341.109C775.599 341.109 783.699 349.209 783.699 359.109V508.809C783.699 518.709 775.599 526.809 765.699 526.809Z" fill="#F5B6CD"/>
<path d="M748.599 469.011C741.499 469.011 735.699 463.211 735.699 456.111V332.411C735.699 331.711 735.699 331.211 735.699 330.611L735.599 328.011C735.599 327.511 735.499 326.911 735.499 326.311C735.399 325.411 735.399 324.511 735.299 323.911V323.611C733.999 312.211 729.799 301.311 723.299 292.211C719.199 286.411 720.499 278.411 726.199 274.311C731.999 270.211 739.999 271.511 744.099 277.211C753.199 289.911 758.999 304.911 760.799 320.611C760.999 322.011 761.099 323.311 761.199 324.511C761.199 325.011 761.299 325.511 761.299 326.111V326.911L761.399 329.811C761.399 330.711 761.399 331.511 761.399 332.511V456.011C761.499 463.211 755.699 469.011 748.599 469.011Z" fill="#FDDA24"/>
<path d="M587.398 409.909C577.498 409.909 569.398 401.809 569.398 391.909V330.909L569.498 328.909C569.498 326.809 569.698 325.009 569.798 323.409C569.998 320.209 570.498 316.709 571.198 312.809C573.798 299.009 579.698 285.509 588.098 273.709C596.298 262.309 607.298 252.509 619.798 245.509C628.498 240.609 639.398 243.709 644.298 252.409C649.198 261.109 646.098 272.009 637.398 276.909C629.398 281.409 622.398 287.609 617.198 294.809C611.798 302.309 608.098 310.809 606.398 319.509C605.898 322.009 605.598 324.209 605.498 326.209V326.309C605.398 327.509 605.298 328.509 605.298 329.309L605.198 333.909V392.009C605.398 401.809 597.398 409.909 587.398 409.909Z" fill="#F5B6CD"/>
<path d="M764.599 332.71C757.099 332.71 750.499 327.21 749.299 319.51C747.199 304.71 740.699 290.21 730.999 278.71C721.399 267.21 708.299 258.21 694.099 253.51C685.999 250.81 681.699 242.11 684.399 234.01C687.099 225.91 695.799 221.61 703.899 224.31C723.799 230.91 741.299 242.91 754.699 259.01C768.099 275.01 776.799 294.41 779.799 315.11C780.999 323.51 775.199 331.41 766.699 332.61C766.099 332.71 765.399 332.71 764.599 332.71Z" fill="#00C389"/>
<path d="M577.998 311.41C575.598 311.41 573.198 310.91 570.898 309.91C561.798 306.01 557.498 295.41 561.398 286.31C569.198 268.21 581.398 252.31 596.698 240.31C612.098 228.31 630.498 220.31 649.998 217.21C659.798 215.71 668.998 222.41 670.598 232.21C672.198 242.01 665.398 251.21 655.598 252.81C642.198 254.91 629.498 260.41 618.998 268.71L618.898 268.81C608.398 277.01 599.898 288.01 594.598 300.51C591.698 307.31 584.998 311.41 577.998 311.41Z" fill="#FF7F41"/>
<path d="M569.598 497.01H569.498C562.398 496.91 556.698 491.11 556.798 484.01L557.498 414.01C557.598 399.11 557.598 383.81 557.598 369.01C557.598 360.71 557.598 352.41 557.598 344.21C557.598 337.11 563.398 331.41 570.498 331.41C577.598 331.41 583.398 337.21 583.298 344.31C583.298 352.61 583.298 360.81 583.298 369.11C583.298 383.91 583.298 399.21 583.198 414.31L582.498 484.31C582.298 491.41 576.598 497.01 569.598 497.01Z" fill="#59CBE8"/>
<path d="M585.997 567.71C585.897 567.71 585.897 567.71 585.797 567.71C575.897 567.61 567.897 559.51 567.997 549.51L568.997 452.91C569.097 443.01 577.197 435.01 587.197 435.11C597.097 435.21 605.097 443.31 604.997 453.31L603.997 549.91C603.897 559.71 595.797 567.71 585.997 567.71Z" fill="#9063CD"/>
<path d="M662.5 680.411C579.3 680.411 512 613.011 512 529.911V438.911C512 418.911 528.2 402.711 548.2 402.711H776.9C796.9 402.711 813.1 418.911 813.1 438.911V529.911C813 613.011 745.6 680.411 662.5 680.411Z" fill="#9063CD"/>
<path d="M628.397 561.211V612.211H577.297L628.397 561.211Z" fill="white"/>
<path d="M696.598 509.509V456.109H749.898L696.598 509.509Z" fill="white"/>
<path d="M606.398 601.609C603.498 601.609 600.598 600.509 598.398 598.309C581.298 581.209 571.898 558.409 571.898 534.209C571.898 510.009 581.298 487.209 598.398 470.109C615.498 453.009 638.198 443.609 662.398 443.609C662.398 443.609 662.398 443.609 662.498 443.609C668.698 443.609 673.798 448.709 673.798 454.909C673.798 461.109 668.698 466.209 662.498 466.209C644.398 466.209 627.298 473.309 614.498 486.109C601.698 498.909 594.598 516.009 594.598 534.209C594.598 552.409 601.698 569.409 614.498 582.309C618.898 586.709 618.898 593.909 614.498 598.309C612.198 600.509 609.298 601.609 606.398 601.609Z" fill="white"/>
<path d="M662.499 624.809C656.199 624.809 651.199 619.709 651.199 613.509C651.199 607.309 656.299 602.209 662.499 602.209C680.599 602.209 697.699 595.109 710.599 582.309C737.099 555.809 737.099 512.709 710.599 486.109C706.199 481.709 706.199 474.509 710.599 470.109C714.999 465.709 722.199 465.709 726.599 470.109C761.899 505.409 761.899 562.909 726.599 598.309C709.399 615.409 686.699 624.809 662.499 624.809Z" fill="white"/>
</svg>
