<svg width="1080" height="1080" viewBox="0 0 1080 1080" fill="none" xmlns="http://www.w3.org/2000/svg">
<path d="M184.2 712.736C175.2 712.736 166.3 708.536 160.6 700.736C142 675.136 134.2 640.936 138 601.936C140.7 574.636 148 554.236 148.9 552.036C154.5 536.936 171.3 529.236 186.3 534.836C201.4 540.436 209.1 557.136 203.5 572.236C197.5 588.636 186.7 637.636 207.7 666.536C217.2 679.536 214.3 697.736 201.3 707.236C196.1 710.936 190.1 712.736 184.2 712.736Z" fill="#9063CD"/>
<path d="M154.701 558.237C153.601 558.237 152.401 558.037 151.301 557.637C145.501 555.737 142.401 549.537 144.301 543.737C168.401 470.237 239.601 420.337 242.601 418.237C247.601 414.737 254.401 416.037 257.901 421.037C261.401 426.037 260.101 432.837 255.101 436.337C254.401 436.837 186.901 484.237 165.101 550.637C163.701 555.237 159.401 558.237 154.701 558.237Z" fill="#00C389"/>
<path d="M226.1 534.935C223.6 534.935 221.1 534.135 219 532.335C214.3 528.435 213.7 521.535 217.6 516.835C224.6 508.535 232.4 500.435 240.9 492.835C268.7 468.035 301.1 449.635 332.3 431.835C337.6 428.835 344.3 430.635 347.3 435.935C350.3 441.235 348.5 447.935 343.2 450.935C312.9 468.135 281.6 486.035 255.5 509.235C247.8 516.135 240.7 523.435 234.4 530.935C232.3 533.635 229.2 534.935 226.1 534.935Z" fill="#FF7F41"/>
<path d="M563.101 247.534L544.901 263.134L238.301 251.434L256.601 235.734L563.101 247.534Z" fill="#2C2A29"/>
<path d="M225.499 189.233L243.799 173.633C233.999 182.033 228.399 195.333 229.699 210.433L211.399 226.033C210.099 210.933 215.599 197.733 225.499 189.233Z" fill="#59CBE8"/>
<path d="M229.7 210.433L211.4 226.033C210 210.933 215.6 197.633 225.5 189.233L243.8 173.633C233.9 182.033 228.3 195.333 229.7 210.433Z" fill="#59CBE8"/>
<path d="M609.098 757.835L590.898 773.535L544.898 263.135L563.098 247.535L609.098 757.835Z" fill="#2C2A29"/>
<path d="M613.598 806.936L595.298 822.536L590.898 773.536L609.098 757.836L613.598 806.936Z" fill="#2C2A29"/>
<path d="M628.198 889.336L609.998 905.036C602.498 911.436 592.598 915.036 581.398 914.636L599.698 899.036C610.798 899.436 620.798 895.736 628.198 889.336Z" fill="#59CBE8"/>
<path d="M628.198 889.336L609.998 905.036C602.498 911.436 592.598 915.036 581.398 914.636L599.698 899.036C610.798 899.436 620.798 895.736 628.198 889.336Z" fill="#59CBE8"/>
<path d="M444.103 840.034C438.803 839.834 434.203 841.534 430.703 844.534L449.003 828.934C452.503 825.934 457.203 824.234 462.403 824.434C463.403 824.434 464.403 824.534 465.303 824.734C464.703 825.234 463.803 826.034 463.203 826.534C462.503 827.134 461.603 827.934 460.903 828.434C459.303 829.734 457.703 831.134 456.203 832.434C455.503 833.034 454.503 833.834 453.803 834.434C453.103 835.034 452.203 835.834 451.403 836.434C450.703 837.034 449.803 837.834 449.103 838.334C448.503 838.834 447.603 839.634 447.003 840.134C446.103 840.134 445.103 840.034 444.103 840.034Z" fill="#59CBE8"/>
<path d="M480.002 865.234L461.702 880.834C466.302 876.834 469.002 870.634 468.302 863.534C467.202 851.034 456.302 840.434 444.102 840.034C438.802 839.834 434.102 841.534 430.602 844.534L448.902 828.934C452.402 825.934 457.102 824.234 462.402 824.434C474.602 824.934 485.502 835.434 486.602 847.934C487.202 855.034 484.602 861.234 480.002 865.234Z" fill="#59CBE8"/>
<path d="M468.3 863.534C467.3 852.034 458 842.234 447 840.334C453.1 835.134 459.2 829.934 465.3 824.734C476.3 826.634 485.5 836.434 486.6 847.934C487.2 855.034 484.6 861.334 479.9 865.234L461.6 880.834C466.3 876.934 469 870.634 468.3 863.534Z" fill="#59CBE8"/>
<path d="M480.002 865.234L461.702 880.834C466.302 876.834 469.002 870.634 468.302 863.534C467.202 851.034 456.302 840.434 444.102 840.034C438.802 839.834 434.102 841.534 430.602 844.534L448.902 828.934C452.402 825.934 457.102 824.234 462.402 824.434C474.602 824.934 485.502 835.434 486.602 847.934C487.202 855.034 484.602 861.234 480.002 865.234Z" fill="#59CBE8"/>
<path d="M479.999 865.234L461.699 880.834C458.199 883.834 453.499 885.534 448.199 885.334C435.999 884.834 425.099 874.334 423.999 861.834C423.399 854.734 425.999 848.434 430.599 844.534L448.899 828.934C444.299 832.934 441.599 839.134 442.299 846.234C443.399 858.734 454.299 869.334 466.499 869.734C471.799 869.934 476.399 868.234 479.999 865.234Z" fill="#59CBE8"/>
<path d="M479.999 865.234L461.699 880.834C458.199 883.834 453.499 885.534 448.199 885.334C435.999 884.834 425.099 874.334 423.999 861.834C423.399 854.734 425.999 848.434 430.599 844.534L448.899 828.934C444.299 832.934 441.599 839.134 442.299 846.234C443.399 858.734 454.299 869.334 466.499 869.734C471.799 869.934 476.399 868.234 479.999 865.234Z" fill="#59CBE8"/>
<path d="M609.098 757.833L590.898 773.533L284.398 761.733L302.598 746.133L609.098 757.833Z" fill="#808080"/>
<path d="M307.001 795.234L288.801 810.834L238.301 251.434L256.601 235.734L307.001 795.234Z" fill="#808080"/>
<path d="M306.998 795.233L288.798 810.833L284.398 761.733L302.598 746.133L306.998 795.233Z" fill="#FDDA24"/>
<path d="M288.398 811.833L283.898 761.533L303.098 745.133L307.598 795.433L288.398 811.833ZM284.898 761.933L289.198 809.733L306.498 794.933L302.198 747.133L284.898 761.933Z" fill="#FDDA24"/>
<path d="M613.601 806.934L595.301 822.534L288.801 810.834L307.001 795.234L613.601 806.934Z" fill="#808080"/>
<path d="M613.601 806.934L595.301 822.534L288.801 810.834L307.001 795.234L613.601 806.934Z" fill="#FDDA24"/>
<path d="M595.5 823.033H595.3L287.5 811.233L306.9 794.633H307.1L614.9 806.433L595.5 823.033ZM290.1 810.333L595.1 822.033L612.2 807.333L307.2 795.633L290.1 810.333Z" fill="#FDDA24"/>
<path d="M534.3 174.135C560.3 175.135 583.3 197.535 585.7 224.135L642.4 852.735C644.8 879.335 625.7 900.135 599.7 899.135L337.8 889.135C311.8 888.135 288.8 865.735 286.4 839.135L229.7 210.435C227.3 183.835 246.4 163.035 272.4 164.035L534.3 174.135ZM609.1 757.835L563.1 247.435L256.6 235.735L307 795.235L613.5 806.935L609.1 757.835ZM466.5 869.735C478.7 870.235 487.7 860.435 486.6 847.935C485.5 835.435 474.6 824.835 462.4 824.435C450.2 823.935 441.2 833.735 442.3 846.235C443.4 858.735 454.3 869.235 466.5 869.735Z" fill="#F5B6CD"/>
<path d="M462.402 824.336C474.602 824.836 485.502 835.336 486.602 847.836C487.702 860.336 478.702 870.136 466.502 869.636C454.302 869.136 443.402 858.636 442.302 846.136C441.202 833.736 450.202 823.936 462.402 824.336Z" fill="white"/>
<path d="M609.102 757.837L613.602 806.937L307.002 795.237L302.602 746.137L609.102 757.837Z" fill="#FDDA24"/>
<path d="M614.102 807.435H613.502L306.602 795.635L302.102 745.535H302.702L609.602 757.335L614.102 807.435ZM307.502 794.735L613.002 806.435L608.702 758.335L303.202 746.635L307.502 794.735Z" fill="#FDDA24"/>
<path d="M609.102 757.834L563.202 756.134L302.602 746.134L297.202 685.934L297.002 683.634L271.602 401.834L257.702 248.234L256.602 235.734L285.902 236.934L495.402 244.934L544.302 246.734L563.102 247.534L590.802 554.034L600.802 665.334L605.302 714.834L609.102 757.834Z" fill="white"/>
<path d="M599.6 898.934L581.4 914.634L319.5 904.534L337.7 888.934L599.6 898.934Z" fill="#59CBE8"/>
<path d="M286.398 838.934L268.098 854.634L211.398 226.034L229.698 210.434L286.398 838.934Z" fill="#59CBE8"/>
<path d="M337.7 888.934L319.4 904.534C293.4 903.534 270.4 881.134 268 854.534L286.3 838.934C288.7 865.534 311.7 887.934 337.7 888.934Z" fill="#59CBE8"/>
<path d="M337.7 888.934L319.4 904.534C293.4 903.534 270.4 881.134 268 854.534L286.3 838.934C288.7 865.534 311.7 887.934 337.7 888.934Z" fill="#59CBE8"/>
<path d="M906 820.335L684.6 804.735C670.8 788.235 616.8 726.435 601.7 711.135C593 702.335 583.9 694.035 574.2 686.335C552.1 668.935 526.4 655.235 499 650.035L733.4 685.235C763 689.435 790.8 703.935 814.4 722.535C840.8 743.435 884.2 794.435 906 820.335Z" fill="#DFDFDF"/>
<path d="M826.502 778.136C826.302 778.136 826.102 778.136 825.802 778.136L695.002 766.036C691.002 765.636 688.102 762.136 688.502 758.236C688.902 754.236 692.402 751.336 696.302 751.736L827.102 763.736C831.102 764.136 834.002 767.636 833.602 771.536C833.302 775.336 830.102 778.136 826.502 778.136Z" fill="white"/>
<path d="M770.502 729.833C770.302 729.833 770.102 729.833 769.802 729.833L639.002 717.833C635.002 717.433 632.102 713.933 632.502 710.033C632.902 706.033 636.402 703.133 640.302 703.533L771.102 715.533C775.102 715.933 778.002 719.433 777.602 723.333C777.302 727.033 774.202 729.833 770.502 729.833Z" fill="white"/>
<path d="M521.999 427.334C503.599 448.434 478.699 462.534 456.399 479.334C428.899 500.034 404.299 525.934 391.199 557.734C377.999 589.534 377.699 627.734 395.799 657.034C397.099 659.134 398.499 661.134 399.999 663.134C381.799 668.934 363.699 675.134 345.199 679.034C329.399 682.334 313.299 683.834 297.199 683.634C287.499 683.534 277.799 682.834 268.199 681.534L267.399 681.434C252.999 679.334 238.699 675.934 224.999 671.134C197.599 661.534 171.099 645.634 155.799 620.934C137.699 591.734 138.099 553.434 151.199 521.634C164.399 489.834 188.899 463.934 216.399 443.234C234.799 429.434 254.899 417.434 271.699 401.834C275.299 398.434 278.799 394.934 282.099 391.134C305.999 363.634 316.499 324.934 309.799 289.134C306.299 270.134 297.899 252.034 285.999 236.734L495.399 244.734C523.399 262.634 543.699 292.434 549.799 325.134C556.399 361.134 545.899 399.834 521.999 427.334Z" fill="#DFDFDF"/>
<path d="M489.601 306.735C489.501 306.735 489.401 306.735 489.201 306.735L358.001 300.135C354.001 299.935 351.001 296.535 351.201 292.535C351.401 288.535 354.801 285.435 358.801 285.735L490.001 292.235C494.001 292.435 497.001 295.835 496.801 299.835C496.601 303.735 493.401 306.735 489.601 306.735Z" fill="white"/>
<path d="M500.398 356.334C500.298 356.334 500.198 356.334 499.998 356.334L368.798 349.834C364.798 349.634 361.798 346.234 361.998 342.234C362.198 338.234 365.598 335.134 369.598 335.434L500.798 341.934C504.798 342.134 507.798 345.534 507.598 349.534C507.398 353.334 504.198 356.334 500.398 356.334Z" fill="white"/>
<path d="M475.199 403.233C475.099 403.233 474.998 403.233 474.798 403.233L343.599 396.733C339.599 396.533 336.599 393.133 336.799 389.133C336.999 385.133 340.398 382.033 344.398 382.333L475.599 388.833C479.599 389.033 482.598 392.433 482.398 396.433C482.199 400.233 478.999 403.233 475.199 403.233Z" fill="white"/>
<path d="M430.999 450.135C430.899 450.135 430.799 450.135 430.599 450.135L299.399 443.635C295.399 443.435 292.399 440.035 292.599 436.035C292.799 432.035 296.199 428.935 300.199 429.235L431.399 435.735C435.399 435.935 438.399 439.335 438.199 443.335C437.999 447.135 434.799 450.135 430.999 450.135Z" fill="white"/>
<path d="M379.101 496.135C379.001 496.135 378.901 496.135 378.701 496.135L247.501 489.635C243.501 489.435 240.501 486.035 240.701 482.035C240.901 478.035 244.301 474.935 248.301 475.235L379.501 481.735C383.501 481.935 386.501 485.335 386.301 489.335C386.101 493.135 382.901 496.135 379.101 496.135Z" fill="white"/>
<path d="M338.3 545.233C338.2 545.233 338.1 545.233 337.9 545.233L206.7 538.733C202.7 538.533 199.7 535.133 199.9 531.133C200.1 527.133 203.5 524.033 207.5 524.333L338.7 530.833C342.7 531.033 345.7 534.433 345.5 538.433C345.3 542.233 342.1 545.233 338.3 545.233Z" fill="white"/>
<path d="M317.499 598.135C317.399 598.135 317.299 598.135 317.099 598.135L185.899 591.635C181.899 591.435 178.899 588.035 179.099 584.035C179.299 580.035 182.699 576.935 186.699 577.235L317.899 583.735C321.899 583.935 324.899 587.335 324.699 591.335C324.499 595.135 321.299 598.135 317.499 598.135Z" fill="white"/>
<path d="M351.999 652.533C351.899 652.533 351.799 652.533 351.599 652.533L220.399 646.033C216.399 645.833 213.399 642.433 213.599 638.433C213.799 634.433 217.199 631.333 221.199 631.633L352.399 638.133C356.399 638.333 359.399 641.733 359.199 645.733C358.999 649.533 355.799 652.533 351.999 652.533Z" fill="white"/>
<path d="M601.6 711.135C596.1 712.635 590.6 713.935 585.1 715.135C558.1 720.735 530 721.235 502.7 716.835L268 681.535C293.6 685.135 319.7 684.335 345 679.035C363.5 675.235 381.7 669.035 399.8 663.135C426.7 654.435 453.6 646.535 481.6 647.935C487.3 648.235 493 648.935 498.7 650.035H498.8C526.2 655.235 552 668.935 574 686.335C583.8 694.035 592.9 702.335 601.6 711.135Z" fill="#2C2A29"/>
<path d="M546.499 559.635C544.499 559.635 542.499 559.435 540.499 558.935C525.399 555.635 515.799 540.735 519.099 525.635C522.299 511.035 528.599 495.535 537.699 479.735C564.699 433.135 603.799 394.635 650.899 368.435C664.399 360.935 681.499 365.735 688.999 379.335C696.499 392.835 691.699 409.935 678.099 417.435C639.899 438.735 608.099 469.935 586.199 507.835C579.899 518.735 575.699 528.735 573.799 537.735C570.899 550.735 559.399 559.635 546.499 559.635Z" fill="#9063CD"/>
<path d="M544.5 490.035C542.7 490.035 540.8 489.535 539.1 488.635C533.8 485.635 531.9 478.935 534.9 473.635C559 431.035 586.7 405.235 587.9 404.135C592.4 400.035 599.3 400.335 603.4 404.735C607.5 409.235 607.2 416.135 602.8 420.235C602.5 420.435 576.3 445.035 554 484.435C552.1 488.035 548.4 490.035 544.5 490.035Z" fill="#00C389"/>
<path d="M907.7 761.536C898.7 761.536 889.8 757.136 884.4 749.036C850.2 697.836 795.3 660.336 733.6 646.236C718.5 642.836 709.1 627.736 712.5 612.736C715.9 597.636 731 588.236 746 591.636C821.5 609.036 888.9 655.036 931 718.036C939.6 730.936 936.1 748.236 923.3 756.836C918.4 760.036 913 761.536 907.7 761.536Z" fill="#9063CD"/>
<path d="M638.4 641.334C627.9 641.334 616.3 640.834 604.2 638.834C565.8 632.534 535.5 611.034 523.1 581.434C516 564.634 514.7 545.834 519.1 525.534C522.4 510.434 537.3 500.834 552.4 504.134C567.5 507.434 577.1 522.334 573.8 537.434C571.9 546.334 572.1 553.534 574.7 559.634C579.5 571.034 594.6 580.334 613.3 583.434C624.3 585.234 635.9 585.334 645.8 585.134C661.3 584.834 674 597.134 674.4 612.534C674.7 628.034 662.4 640.734 647 641.134C644.1 641.234 641.3 641.334 638.4 641.334Z" fill="#9063CD"/>
<path d="M819.701 624.336C817.801 624.336 816.001 623.836 814.201 622.836C775.601 600.636 710.001 600.736 702.701 600.836H702.301C696.201 600.836 691.301 595.936 691.301 589.836C691.301 583.736 696.201 578.836 702.301 578.836H702.501C715.501 578.736 782.501 579.236 825.201 603.736C830.501 606.736 832.301 613.436 829.301 618.736C827.301 622.336 823.601 624.336 819.701 624.336Z" fill="#FF7F41"/>
<path d="M581.401 644.333C580.501 644.333 579.501 644.233 578.601 643.933C519.101 628.133 504.501 566.233 503.901 563.633C502.601 557.733 506.301 551.833 512.201 550.533C518.101 549.233 524.001 552.933 525.301 558.833C525.401 559.133 528.501 572.333 537.501 586.733C549.201 605.433 564.901 617.533 584.101 622.633C590.001 624.233 593.501 630.233 591.901 636.133C590.701 641.033 586.201 644.333 581.401 644.333Z" fill="#FF7F41"/>
<path d="M859.499 727.635C856.499 727.635 853.599 726.435 851.399 724.135C816.499 686.435 767.199 667.835 766.699 667.635C760.999 665.535 758.099 659.235 760.199 653.535C762.299 647.835 768.599 644.935 774.299 647.035C776.499 647.835 828.999 667.535 867.499 709.235C871.599 713.735 871.399 720.635 866.899 724.735C864.799 726.635 862.099 727.635 859.499 727.635Z" fill="#00C389"/>
<path d="M635.098 596.736C608.798 596.736 591.798 589.836 580.298 583.336C574.798 580.136 573.098 572.936 576.698 567.736C580.098 562.836 586.698 561.536 591.698 564.836L592.898 565.636C592.898 565.636 597.298 568.536 605.898 571.036C613.898 573.336 627.198 575.836 645.498 574.436C651.598 573.936 656.898 578.536 657.298 584.736C657.698 590.836 652.798 595.936 646.698 596.436C642.598 596.636 638.698 596.736 635.098 596.736Z" fill="#00C389"/>
<path d="M945.499 750.634C941.699 750.634 937.899 748.634 935.899 745.034C913.999 706.034 883.899 677.634 883.599 677.334C879.199 673.134 878.999 666.234 883.099 661.834C887.199 657.434 894.199 657.134 898.599 661.334C899.899 662.534 931.399 692.234 954.999 734.234C957.999 739.534 956.099 746.234 950.799 749.234C949.199 750.234 947.299 750.634 945.499 750.634Z" fill="#FF7F41"/>
<path d="M267.001 722.536C266.301 722.536 265.601 722.436 264.901 722.336C244.701 718.436 227.401 710.236 213.401 697.936C185.001 672.936 172.401 630.036 181.101 588.636C183.801 575.736 188.501 562.836 195.001 550.436C197.801 545.036 204.501 542.936 209.801 545.736C215.201 548.536 217.301 555.236 214.501 560.536C208.901 571.236 204.901 582.236 202.601 593.136C195.501 626.836 205.401 661.536 227.901 681.336C238.901 691.036 252.701 697.536 269.001 700.636C275.001 701.736 278.901 707.536 277.701 713.536C276.701 718.836 272.101 722.536 267.001 722.536Z" fill="#FF7F41"/>
<path d="M203.4 752.433C202.1 752.433 200.7 752.233 199.4 751.633C168.3 739.333 145.4 715.133 133.2 681.633C124 656.733 124 635.533 124 634.633C124 628.533 128.9 623.633 135 623.633C141.1 623.633 146 628.533 146 634.633C146 634.933 146.1 653.433 154 674.633C164.2 702.133 182.2 721.133 207.4 731.133C213 733.333 215.8 739.733 213.6 745.433C211.9 749.733 207.8 752.433 203.4 752.433Z" fill="#00C389"/>
</svg>
