<svg width="1080" height="1080" viewBox="0 0 1080 1080" fill="none" xmlns="http://www.w3.org/2000/svg">
<path d="M627.125 848.888C627.125 767.588 693.025 701.688 774.325 701.688C855.625 701.688 921.525 767.588 921.525 848.888" fill="#FF7F41"/>
<path d="M205.125 848.888C205.125 714.288 314.225 605.188 448.825 605.188C583.425 605.188 692.525 714.288 692.525 848.888" fill="#FF7F41"/>
<path d="M830.025 369.288C821.725 369.288 815.125 362.588 815.125 354.288V229.988C815.125 221.688 821.825 214.988 830.025 214.988C838.225 214.988 844.925 221.688 844.925 229.988V354.388C845.025 362.588 838.325 369.288 830.025 369.288Z" fill="#F5B6CD"/>
<path d="M815.824 321.289C809.924 321.289 805.124 316.489 805.124 310.589V207.889C805.124 207.389 805.124 206.889 805.124 206.389L805.024 204.289C805.024 203.789 804.924 203.389 804.924 202.889C804.824 202.189 804.824 201.489 804.724 200.889V200.689C803.624 191.189 800.224 182.189 794.724 174.589C791.324 169.789 792.424 163.089 797.124 159.689C801.924 156.289 808.624 157.389 812.024 162.089C819.624 172.689 824.424 185.089 825.924 198.189C826.124 199.389 826.124 200.489 826.224 201.389C826.224 201.789 826.324 202.289 826.324 202.689V203.389L826.424 205.789C826.424 206.489 826.424 207.189 826.424 207.989V310.589C826.524 316.489 821.724 321.289 815.824 321.289Z" fill="#FDDA24"/>
<path d="M682.026 272.188C673.726 272.188 667.026 265.488 667.126 257.188V206.488V204.788C667.126 203.088 667.226 201.588 667.326 200.288C667.526 197.588 667.926 194.688 668.526 191.488C670.726 179.988 675.526 168.788 682.626 158.988C689.426 149.488 698.526 141.388 709.026 135.488C716.226 131.488 725.326 133.988 729.426 141.188C733.426 148.388 730.926 157.488 723.726 161.588C717.026 165.288 711.226 170.488 706.926 176.488C702.426 182.688 699.326 189.788 698.026 196.988C697.626 199.088 697.426 200.888 697.226 202.488V202.588C697.126 203.488 697.126 204.388 697.126 204.988L697.026 224.888V257.088C696.926 265.488 690.226 272.188 682.026 272.188Z" fill="#F5B6CD"/>
<path d="M829.127 208.088C822.827 208.088 817.427 203.488 816.427 197.088C814.627 184.788 809.227 172.788 801.227 163.188C793.227 153.588 782.427 146.188 770.527 142.188C763.827 139.988 760.227 132.688 762.427 125.988C764.627 119.288 771.927 115.688 778.627 117.888C795.127 123.388 809.727 133.388 820.827 146.688C831.927 159.988 839.227 176.088 841.727 193.288C842.727 200.288 837.927 206.788 830.927 207.788C830.427 208.088 829.827 208.088 829.127 208.088Z" fill="#00C389"/>
<path d="M674.227 190.388C672.227 190.388 670.327 189.988 668.327 189.188C660.727 185.988 657.227 177.188 660.427 169.588C666.827 154.488 677.027 141.288 689.727 131.388C702.427 121.388 717.727 114.688 733.927 112.188C742.027 110.888 749.727 116.488 751.027 124.588C752.327 132.788 746.727 140.388 738.627 141.688C727.527 143.488 716.927 147.988 708.227 154.888L708.127 154.988C699.327 161.788 692.427 170.888 687.927 181.288C685.527 186.988 680.027 190.388 674.227 190.388Z" fill="#FF7F41"/>
<path d="M667.126 344.586H667.026C661.126 344.486 656.426 339.686 656.426 333.786L657.026 275.786V217.786C657.026 211.886 661.826 207.086 667.726 207.086C673.626 207.086 678.426 211.886 678.426 217.786V275.986L677.826 334.086C677.826 339.886 673.026 344.586 667.126 344.586Z" fill="#59CBE8"/>
<path d="M680.825 403.186C680.725 403.186 680.725 403.186 680.625 403.186C672.325 403.086 665.725 396.386 665.825 388.086L666.625 307.886C666.725 299.686 673.425 293.086 681.525 293.086C681.625 293.086 681.625 293.086 681.725 293.086C690.025 293.186 696.625 299.886 696.525 308.186L695.725 388.386C695.625 396.586 689.025 403.186 680.825 403.186Z" fill="#9063CD"/>
<path d="M744.324 496.787C675.324 496.787 619.324 440.787 619.324 371.787V296.188C619.324 279.587 632.724 266.188 649.324 266.188H839.224C855.824 266.188 869.224 279.587 869.224 296.188V371.787C869.324 440.887 813.324 496.787 744.324 496.787Z" fill="#9063CD"/>
<path d="M716.025 397.789V440.189H673.625L716.025 397.789Z" fill="white"/>
<path d="M772.625 354.886V310.586H816.925L772.625 354.886Z" fill="white"/>
<path d="M697.723 431.387C695.323 431.387 692.923 430.488 691.123 428.588C661.823 399.288 661.823 351.487 691.123 322.188C705.323 307.988 724.223 300.188 744.323 300.188C749.523 300.188 753.723 304.388 753.723 309.588C753.723 314.788 749.523 318.988 744.323 318.988C729.223 318.988 715.123 324.888 704.423 335.488C682.423 357.488 682.423 393.287 704.423 415.387C708.123 419.087 708.123 424.988 704.423 428.688C702.523 430.488 700.123 431.387 697.723 431.387Z" fill="white"/>
<path d="M744.322 450.689C739.122 450.689 734.922 446.489 734.922 441.289C734.922 436.089 739.122 431.889 744.322 431.889C759.422 431.889 773.522 425.989 784.222 415.389C806.222 393.389 806.222 357.589 784.222 335.489C780.522 331.789 780.522 325.889 784.222 322.189C787.922 318.489 793.822 318.489 797.522 322.189C826.822 351.489 826.822 399.289 797.522 428.589C783.322 442.789 764.422 450.689 744.322 450.689Z" fill="white"/>
<path d="M297.828 961.886C294.428 961.886 291.028 961.586 287.628 960.886C259.228 955.286 240.728 927.686 246.328 899.286L285.828 699.986L301.028 494.186C303.128 465.286 328.328 443.586 357.228 445.786C386.128 447.886 407.828 473.086 405.628 501.986L390.228 710.886C390.028 712.986 389.828 715.086 389.328 717.186L349.228 919.686C344.228 944.586 322.328 961.886 297.828 961.886Z" fill="#2C2A29"/>
<path d="M455.927 967.387C428.627 967.387 405.627 946.287 403.627 918.587L377.827 553.987C375.827 525.087 397.527 499.987 426.427 497.987C455.327 495.987 480.427 517.687 482.427 546.587L508.227 911.187C510.227 940.087 488.527 965.187 459.627 967.187C458.427 967.387 457.127 967.387 455.927 967.387Z" fill="#2C2A29"/>
<path d="M441.324 406.789C494.624 411.789 557.424 390.989 602.624 353.289L441.324 406.789Z" fill="#59CBE8"/>
<path d="M457.625 432.688C451.325 432.688 445.125 432.388 438.925 431.788C425.125 430.488 414.925 418.188 416.225 404.388C417.525 390.588 429.825 380.388 443.625 381.688C490.325 386.088 546.325 367.388 586.425 333.988C597.125 325.088 613.025 326.488 621.925 337.188C630.825 347.888 629.425 363.788 618.725 372.688C573.325 410.588 513.125 432.688 457.625 432.688Z" fill="#59CBE8"/>
<path d="M488.523 429.287C520.923 424.187 553.623 414.387 584.723 400.387L488.523 429.287Z" fill="#59CBE8"/>
<path d="M488.425 443.987C481.325 443.987 475.025 438.787 473.925 431.587C472.625 423.587 478.125 416.087 486.125 414.787C517.425 409.887 548.525 400.487 578.625 386.987C586.025 383.687 594.725 386.987 598.025 394.387C601.325 401.787 598.025 410.487 590.625 413.787C558.125 428.387 524.525 438.487 490.625 443.787C490.025 443.887 489.225 443.987 488.425 443.987Z" fill="#FF7F41"/>
<path d="M597.624 340.588L620.324 351.788C625.724 354.488 632.224 352.288 634.924 346.788L662.824 290.288C665.524 284.888 663.324 278.388 657.824 275.688L635.125 264.488C629.724 261.788 623.224 263.988 620.524 269.488L592.725 325.988C590.025 331.388 592.224 337.988 597.624 340.588Z" fill="#FDDA24"/>
<path d="M318.426 292.587L255.426 571.687L497.526 564.987C500.826 501.087 495.426 401.587 456.026 345.587C398.026 263.187 318.426 292.587 318.426 292.587Z" fill="#00C389"/>
<path d="M333.625 394.287C328.125 394.287 322.925 391.187 320.425 385.887C317.025 378.587 320.125 369.887 327.425 366.387C329.025 365.587 330.925 364.787 332.925 363.887C339.025 361.087 353.325 354.687 356.725 350.987C357.925 349.687 359.625 347.887 356.725 343.087C355.625 341.287 354.525 339.587 347.125 342.287C339.525 345.087 331.125 341.187 328.325 333.587C325.525 325.987 329.425 317.587 337.025 314.787C356.025 307.787 372.325 312.487 381.625 327.687C390.525 342.287 389.225 358.687 378.225 370.687C371.325 378.187 359.125 384.087 344.925 390.487C343.025 391.287 341.325 392.087 339.825 392.787C337.925 393.887 335.725 394.287 333.625 394.287Z" fill="#9063CD"/>
<path d="M183.226 543.787C180.426 543.787 177.626 543.287 174.826 542.387C161.726 537.787 154.826 523.387 159.426 510.287C166.026 491.687 174.226 473.787 184.026 457.087C218.026 398.687 271.226 352.087 333.526 325.887C346.326 320.487 361.126 326.587 366.426 339.387C371.826 352.187 365.726 366.987 352.926 372.287C300.526 394.187 256.026 433.287 227.426 482.387C219.226 496.387 212.326 511.387 206.926 526.887C203.326 537.287 193.626 543.787 183.226 543.787Z" fill="#F5B6CD"/>
<path d="M205.125 445.786C202.325 445.786 199.425 444.986 196.925 443.286C190.225 438.686 188.525 429.586 193.125 422.986C226.925 373.586 278.525 334.086 334.925 314.686C342.525 312.086 350.925 316.086 353.525 323.786C356.125 331.386 352.125 339.786 344.425 342.386C293.925 359.786 247.525 395.186 217.225 439.486C214.425 443.586 209.825 445.786 205.125 445.786Z" fill="#FF7F41"/>
<path d="M429.292 254.299C450.916 233.6 450.149 197.705 427.578 174.126C405.008 150.547 369.181 148.212 347.556 168.911C325.932 189.611 326.699 225.505 349.27 249.084C371.841 272.664 407.668 274.998 429.292 254.299Z" fill="#B28038"/>
</svg>
