<svg width="1080" height="1080" viewBox="0 0 1080 1080" fill="none" xmlns="http://www.w3.org/2000/svg">
<path d="M879.399 669.249C873.199 669.249 867.399 665.549 864.999 659.549C859.099 644.849 831.399 632.049 815.199 627.349C806.999 624.949 802.199 616.449 804.599 608.149C806.999 599.949 815.499 595.149 823.699 597.549C824.299 597.749 837.499 601.549 852.299 609.049C873.799 619.949 887.699 633.049 893.699 648.049C896.899 655.949 892.999 665.049 885.099 668.149C883.199 668.849 881.299 669.249 879.399 669.249Z" fill="#59CBE8"/>
<path d="M388.799 493.048C385.999 493.048 383.199 492.248 380.599 490.748C316.599 450.948 282.599 405.548 281.199 403.548C276.099 396.648 277.599 386.948 284.399 381.848C291.299 376.748 300.999 378.248 306.099 385.048C306.599 385.748 338.499 427.948 396.999 464.348C404.299 468.848 406.499 478.448 401.999 485.648C399.099 490.448 393.999 493.048 388.799 493.048Z" fill="#59CBE8"/>
<path d="M755.399 792.849C754.299 792.849 753.099 792.749 751.899 792.449C725.299 786.349 642.599 769.549 641.799 769.349C633.399 767.649 627.999 759.449 629.699 751.049C631.399 742.649 639.599 737.249 647.999 738.949C651.399 739.649 731.899 756.049 758.799 762.149C767.099 764.049 772.399 772.349 770.499 780.749C768.899 787.949 762.499 792.849 755.399 792.849Z" fill="#59CBE8"/>
<path d="M142.3 978.851C140.5 978.851 138.7 978.551 136.9 977.851C128.9 974.851 124.8 965.951 127.7 957.951C153.4 888.551 222.6 829.851 225.5 827.351C232.1 821.851 241.8 822.651 247.3 829.251C252.8 835.851 252 845.551 245.4 851.051C244.7 851.651 179.5 907.051 156.7 968.651C154.5 974.951 148.6 978.851 142.3 978.851Z" fill="#59CBE8"/>
<path d="M522.098 514.25C520.198 514.25 518.298 514.05 516.398 513.55C398.598 486.45 294.598 406.45 238.298 299.55C231.698 287.05 236.498 271.65 248.998 265.15C261.498 258.55 276.898 263.35 283.398 275.85C332.898 369.85 424.298 440.15 527.798 463.95C541.498 467.15 550.098 480.75 546.898 494.55C544.198 506.25 533.698 514.25 522.098 514.25Z" fill="#9063CD"/>
<path d="M348.3 125.852H122V421.952H348.3V125.852Z" fill="#F5B6CD"/>
<path d="M844.302 779.749C832.702 779.749 822.202 771.749 819.502 759.949C816.302 746.249 824.902 732.549 838.602 729.349C844.202 728.049 849.102 726.249 853.702 723.949C875.402 712.649 888.002 684.249 881.802 660.649C875.502 636.949 850.602 618.549 826.102 619.549C812.102 620.149 800.202 609.149 799.602 595.049C799.002 580.949 810.002 569.149 824.102 568.549C847.502 567.649 871.302 575.149 891.102 589.849C910.902 604.449 925.202 625.049 931.102 647.649C937.102 670.249 934.902 695.149 924.902 717.649C914.902 740.149 898.002 758.549 877.202 769.249C868.902 773.549 859.802 776.849 850.202 779.049C848.102 779.449 846.202 779.749 844.302 779.749Z" fill="#9063CD"/>
<path d="M730.2 771.449C728.6 771.449 727 771.349 725.4 770.949C718.1 769.549 710.8 768.149 703.5 766.749C681.8 762.549 659.3 758.149 637.3 754.849C605 750.049 577.3 748.449 552.6 749.749C538.5 750.549 526.5 739.749 525.8 725.649C525 711.549 535.8 699.549 549.9 698.849C578.1 697.349 609.2 699.149 644.9 704.449C668 707.849 691.1 712.349 713.4 716.749C720.6 718.149 727.8 719.549 735.1 720.949C748.9 723.549 758 736.949 755.4 750.749C752.9 762.949 742.2 771.449 730.2 771.449Z" fill="#9063CD"/>
<path d="M181.499 882.25C175.799 882.25 169.999 880.35 165.299 876.45C154.399 867.45 152.899 851.45 161.899 840.55C198.999 795.65 250.099 761.75 305.799 745.05C319.299 741.05 333.499 748.65 337.599 762.15C341.699 775.65 333.999 789.85 320.499 793.95C274.299 807.85 231.999 835.95 201.299 873.15C196.199 879.05 188.899 882.25 181.499 882.25Z" fill="#9063CD"/>
<path d="M466.698 647.949H292.898V875.449H466.698V647.949Z" fill="#FF7F41"/>
<path d="M441.598 720.951H318.598C315.698 720.951 313.398 718.651 313.398 715.751C313.398 712.851 315.698 710.551 318.598 710.551H441.598C444.498 710.551 446.798 712.851 446.798 715.751C446.798 718.651 444.498 720.951 441.598 720.951Z" fill="white"/>
<path d="M441.598 762.052H318.598C315.698 762.052 313.398 759.752 313.398 756.852C313.398 753.952 315.698 751.652 318.598 751.652H441.598C444.498 751.652 446.798 753.952 446.798 756.852C446.798 759.752 444.498 762.052 441.598 762.052Z" fill="white"/>
<path d="M441.598 803.052H318.598C315.698 803.052 313.398 800.752 313.398 797.852C313.398 794.952 315.698 792.652 318.598 792.652H441.598C444.498 792.652 446.798 794.952 446.798 797.852C446.798 800.752 444.498 803.052 441.598 803.052Z" fill="white"/>
<path d="M441.598 844.15H318.598C315.698 844.15 313.398 841.85 313.398 838.95C313.398 836.05 315.698 833.75 318.598 833.75H441.598C444.498 833.75 446.798 836.05 446.798 838.95C446.798 841.85 444.498 844.15 441.598 844.15Z" fill="white"/>
<path d="M351.602 203.15C349.102 203.15 346.702 202.25 344.802 200.35L318.202 173.75C314.402 169.95 314.402 163.85 318.202 160.15C322.002 156.35 328.102 156.35 331.802 160.15L351.602 179.95L427.702 103.85C431.502 100.05 437.602 100.05 441.302 103.85C445.102 107.65 445.102 113.75 441.302 117.45L358.402 200.35C356.602 202.15 354.102 203.15 351.602 203.15Z" fill="#00C389"/>
<path d="M392.102 694.548C389.602 694.548 387.202 693.648 385.302 691.748L358.702 665.148C354.902 661.348 354.902 655.248 358.702 651.548C362.502 647.748 368.602 647.748 372.302 651.548L392.102 671.348L468.202 595.248C472.002 591.448 478.102 591.448 481.802 595.248C485.602 599.048 485.602 605.148 481.802 608.848L398.902 691.748C397.002 693.648 394.602 694.548 392.102 694.548Z" fill="#00C389"/>
<path d="M665.199 716.348C664.399 716.348 663.499 716.248 662.699 716.148C601.399 706.048 560.599 706.348 537.199 708.248C511.899 710.348 500.899 714.948 500.799 714.948L500.999 714.848L488.199 686.648C490.199 685.748 539.299 664.348 667.799 685.448C676.199 686.848 681.999 694.848 680.599 703.248C679.299 710.948 672.699 716.348 665.199 716.348Z" fill="#F5B6CD"/>
<path d="M551.201 479.751C550.601 479.751 550.001 479.751 549.301 479.651C481.601 471.551 419.601 426.351 417.001 424.451C410.101 419.351 408.601 409.651 413.701 402.751C418.801 395.851 428.501 394.351 435.401 399.451C436.301 400.151 493.701 441.751 553.001 448.851C561.501 449.851 567.601 457.551 566.601 466.051C565.701 473.951 559.001 479.751 551.201 479.751Z" fill="#F5B6CD"/>
<path d="M938.401 729.049C937.101 729.049 935.801 728.849 934.501 728.549C926.201 726.449 921.201 717.949 923.401 709.649C940.401 644.149 900.201 606.949 898.501 605.449C892.101 599.749 891.501 590.049 897.101 583.649C902.801 577.249 912.601 576.649 919.001 582.249C921.301 584.249 975.201 632.949 953.301 717.449C951.601 724.449 945.301 729.049 938.401 729.049Z" fill="#F5B6CD"/>
<path d="M315.599 220.952H155.499C151.699 220.952 148.699 217.852 148.699 214.152C148.699 210.452 151.799 207.352 155.499 207.352H315.599C319.399 207.352 322.399 210.452 322.399 214.152C322.399 217.852 319.399 220.952 315.599 220.952Z" fill="white"/>
<path d="M315.599 274.35H155.499C151.699 274.35 148.699 271.25 148.699 267.55C148.699 263.85 151.799 260.75 155.499 260.75H315.599C319.399 260.75 322.399 263.85 322.399 267.55C322.399 271.25 319.399 274.35 315.599 274.35Z" fill="white"/>
<path d="M315.599 327.85H155.499C151.699 327.85 148.699 324.75 148.699 321.05C148.699 317.35 151.799 314.25 155.499 314.25H315.599C319.399 314.25 322.399 317.35 322.399 321.05C322.399 324.75 319.399 327.85 315.599 327.85Z" fill="white"/>
<path d="M315.599 381.252H155.499C151.699 381.252 148.699 378.152 148.699 374.452C148.699 370.752 151.799 367.652 155.499 367.652H315.599C319.399 367.652 322.399 370.752 322.399 374.452C322.399 378.152 319.399 381.252 315.599 381.252Z" fill="white"/>
<path d="M843.3 340.75H617V636.85H843.3V340.75Z" fill="#FDDA24"/>
<path d="M810.599 435.748H650.499C646.699 435.748 643.699 432.648 643.699 428.948C643.699 425.248 646.799 422.148 650.499 422.148H810.599C814.399 422.148 817.399 425.248 817.399 428.948C817.399 432.648 814.399 435.748 810.599 435.748Z" fill="white"/>
<path d="M810.599 489.147H650.499C646.699 489.147 643.699 486.047 643.699 482.347C643.699 478.647 646.799 475.547 650.499 475.547H810.599C814.399 475.547 817.399 478.647 817.399 482.347C817.399 486.047 814.399 489.147 810.599 489.147Z" fill="white"/>
<path d="M810.599 542.647H650.499C646.699 542.647 643.699 539.547 643.699 535.847C643.699 532.147 646.799 529.047 650.499 529.047H810.599C814.399 529.047 817.399 532.147 817.399 535.847C817.399 539.547 814.399 542.647 810.599 542.647Z" fill="white"/>
<path d="M810.599 596.049H650.499C646.699 596.049 643.699 592.949 643.699 589.249C643.699 585.549 646.799 582.449 650.499 582.449H810.599C814.399 582.449 817.399 585.549 817.399 589.249C817.399 592.949 814.399 596.049 810.599 596.049Z" fill="white"/>
<path d="M793.301 391.752C790.801 391.752 788.401 390.852 786.501 388.952L759.901 362.352C756.101 358.552 756.101 352.452 759.901 348.752C763.701 344.952 769.801 344.952 773.501 348.752L793.301 368.552L869.401 292.452C873.201 288.652 879.301 288.652 883.001 292.452C886.801 296.252 886.801 302.352 883.001 306.052L800.101 388.952C798.201 390.852 795.701 391.752 793.301 391.752Z" fill="#00C389"/>
</svg>
