<svg width="1080" height="1080" viewBox="0 0 1080 1080" fill="none" xmlns="http://www.w3.org/2000/svg">
<path d="M579.934 860.129C579.934 786.629 639.434 727.129 712.934 727.129C786.434 727.129 845.934 786.629 845.934 860.129" fill="#FF7F41"/>
<path d="M198.535 860.128C198.535 738.528 297.135 639.828 418.835 639.828C540.535 639.828 639.135 738.428 639.135 860.128" fill="#FF7F41"/>
<path d="M395.135 924.727C393.635 924.727 392.135 924.527 390.535 924.227C379.435 921.727 372.535 910.727 375.035 899.627L436.735 628.527C439.235 617.427 450.235 610.527 461.335 613.027C472.435 615.527 479.335 626.527 476.835 637.627L415.135 908.727C412.935 918.327 404.435 924.727 395.135 924.727Z" fill="#F5B6CD"/>
<path d="M630.833 586.627C571.233 586.627 511.933 568.227 462.833 534.427C411.333 499.027 371.633 446.927 351.033 387.827C347.333 377.127 352.933 365.427 363.733 361.627C374.433 357.927 386.133 363.527 389.933 374.327C407.633 425.227 441.833 470.027 486.233 500.527C530.633 531.027 584.733 547.027 638.533 545.327C649.933 545.027 659.333 553.927 659.733 565.227C660.033 576.527 651.133 586.027 639.833 586.427C636.733 586.627 633.733 586.627 630.833 586.627Z" fill="#00C389"/>
<path d="M474.697 268.432C496.313 245.85 493.88 208.442 469.264 184.878C444.647 161.315 407.169 160.519 385.553 183.1C363.937 205.682 366.37 243.09 390.986 266.654C415.603 290.217 453.081 291.013 474.697 268.432Z" fill="#E4AC7B"/>
<path d="M862.533 214.129C854.233 214.129 847.533 207.429 847.533 199.129V178.929C847.533 178.529 847.533 178.229 847.533 177.829C847.533 177.329 847.533 176.829 847.533 176.329C847.533 175.729 847.533 175.029 847.433 174.429C847.433 174.029 847.334 173.529 847.334 173.129C847.234 172.429 847.234 171.729 847.134 171.029C846.234 162.429 843.533 153.929 839.433 146.429C835.333 138.829 829.534 132.029 822.834 126.629C816.134 121.229 808.233 117.029 799.933 114.629C792.033 112.329 787.433 104.029 789.733 96.1288C792.033 88.2288 800.333 83.6288 808.233 85.9288C820.233 89.4288 831.733 95.4288 841.533 103.329C851.233 111.129 859.634 121.129 865.634 132.029C871.634 143.029 875.534 155.429 876.834 167.929C876.934 168.929 877.034 170.029 877.134 171.029C877.134 171.429 877.233 171.829 877.233 172.229V172.429C877.333 173.629 877.334 174.729 877.334 175.729C877.334 176.129 877.334 176.529 877.334 176.929C877.334 177.729 877.334 178.429 877.334 179.029V199.229C877.534 207.429 870.833 214.129 862.533 214.129Z" fill="#F5B6CD"/>
<path d="M845.935 171.029C841.235 171.029 836.935 167.929 835.635 163.229C834.435 158.829 832.735 154.729 830.635 151.029C828.435 147.129 825.835 143.529 822.935 140.229C819.935 137.029 816.535 134.029 812.935 131.529C809.335 129.129 805.435 127.029 801.235 125.429C793.035 122.329 784.035 121.229 775.135 122.229C770.735 122.729 766.435 123.729 762.235 125.229C758.235 126.729 754.235 128.729 750.435 131.229C745.535 134.429 738.835 133.129 735.635 128.129C732.435 123.229 733.735 116.529 738.735 113.329C743.935 109.929 749.435 107.129 755.035 105.129C760.835 103.029 766.735 101.729 772.835 101.029C785.035 99.629 797.435 101.229 808.835 105.529C814.635 107.729 820.035 110.529 825.035 113.929C830.035 117.429 834.735 121.429 838.835 125.829C842.935 130.329 846.535 135.329 849.435 140.629C852.335 145.829 854.635 151.529 856.335 157.529C857.935 163.229 854.535 169.129 848.935 170.629C847.935 170.929 846.935 171.029 845.935 171.029Z" fill="#FDDA24"/>
<path d="M753.333 328.229C748.033 328.229 742.833 325.329 740.133 320.329L699.633 244.529V206.129C699.633 197.829 706.333 191.129 714.633 191.129C722.933 191.129 729.633 197.829 729.633 206.129V237.029L766.633 306.229C770.533 313.529 767.733 322.529 760.533 326.429C758.133 327.729 755.733 328.229 753.333 328.229Z" fill="#F5B6CD"/>
<path d="M706.732 159.327C705.032 159.327 703.332 159.027 701.732 158.327C695.232 155.527 692.232 148.027 694.932 141.527C701.332 126.527 711.432 113.427 724.132 103.727C730.232 99.0274 737.232 94.9274 744.932 91.6274L745.132 91.5274C752.832 88.3274 760.732 86.2274 768.432 85.1274C775.432 84.1274 781.932 89.1274 782.832 96.1274C783.732 103.127 778.832 109.627 771.832 110.527C766.332 111.227 760.732 112.827 755.032 115.127C749.332 117.527 744.332 120.527 739.932 123.927L739.832 124.027C730.632 131.127 723.232 140.627 718.532 151.527C716.432 156.427 711.632 159.327 706.732 159.327Z" fill="#9063CD"/>
<path d="M705.634 269.127C700.334 269.127 695.134 266.227 692.434 261.227L685.434 248.127V181.727C685.434 173.427 692.134 166.727 700.434 166.727C708.734 166.727 715.434 173.427 715.434 181.727V240.627L718.934 247.127C722.834 254.427 720.134 263.427 712.834 267.327C710.434 268.627 707.934 269.127 705.634 269.127Z" fill="#FF7F41"/>
<path d="M774.632 393.928C770.832 393.928 767.132 391.928 765.232 388.328L713.932 292.428C711.132 287.228 713.132 280.728 718.332 277.928C723.532 275.128 730.032 277.128 732.832 282.328L784.132 378.228C786.932 383.428 784.932 389.928 779.732 392.728C778.032 393.528 776.332 393.928 774.632 393.928Z" fill="#59CBE8"/>
<path d="M811.134 436.326C805.834 436.326 800.634 433.426 797.934 428.426L762.534 362.226C758.634 354.926 761.434 345.926 768.634 342.026C775.934 338.126 784.934 340.926 788.834 348.126L824.234 414.326C828.134 421.626 825.334 430.626 818.134 434.526C815.934 435.726 813.534 436.326 811.134 436.326Z" fill="#00C389"/>
<path d="M776.832 467.827C707.832 467.827 651.832 411.827 651.832 342.827V267.227C651.832 250.627 665.232 237.227 681.832 237.227H871.732C888.332 237.227 901.732 250.627 901.732 267.227V342.827C901.832 411.827 845.932 467.827 776.832 467.827Z" fill="#00C389"/>
<path d="M751.53 406.729C748.43 406.729 745.43 405.529 743.23 403.329L710.93 370.929C706.33 366.329 706.33 358.929 710.93 354.329C715.53 349.729 722.93 349.729 727.53 354.329L751.53 378.329L844.03 285.829C848.63 281.229 856.03 281.229 860.63 285.829C865.23 290.429 865.23 297.829 860.63 302.429L759.83 403.229C757.63 405.429 754.63 406.729 751.53 406.729Z" fill="white"/>
<path d="M399.334 996.626C397.834 996.626 396.334 996.426 394.734 996.126C383.634 993.626 376.734 982.626 379.234 971.526L440.934 700.426C443.434 689.326 454.434 682.426 465.534 684.926C476.634 687.426 483.534 698.426 481.034 709.526L419.334 980.626C417.234 990.126 408.734 996.626 399.334 996.626Z" fill="#00C389"/>
<path d="M198.534 992.826C192.934 992.826 187.234 990.526 183.234 985.926C175.634 977.426 176.434 964.426 184.834 956.926C244.434 903.626 280.634 841.026 300.534 797.926C322.234 750.826 329.834 715.926 329.934 715.626C332.334 704.526 343.234 697.426 354.334 699.826C365.434 702.126 372.534 713.026 370.234 724.126C369.934 725.726 361.934 762.926 338.534 814.026C317.034 861.026 277.634 929.226 212.334 987.626C208.234 991.126 203.334 992.826 198.534 992.826Z" fill="#59CBE8"/>
<path d="M599.632 556.926C599.032 556.926 598.432 556.926 597.832 556.826C525.432 547.226 496.132 522.326 486.532 514.126C486.232 513.826 485.832 513.526 485.432 513.226C480.532 510.526 477.632 504.826 478.732 498.926C480.132 491.626 487.132 486.726 494.432 488.126C498.532 488.926 501.032 491.026 503.932 493.526C512.032 500.426 536.832 521.426 601.332 530.026C608.732 531.026 613.932 537.826 612.932 545.226C612.032 551.926 606.232 556.826 599.632 556.926Z" fill="#FDDA24"/>
<path d="M478.934 749.927L530.534 519.527L524.734 519.627C399.234 520.927 299.534 611.427 273.234 748.127L478.934 749.927Z" fill="#2C2A29"/>
<path d="M692.636 375.529L674.236 376.629C669.836 376.929 666.136 373.529 665.836 369.129L663.136 323.429C662.836 319.029 666.236 315.329 670.636 315.029L689.036 313.929C693.436 313.629 697.136 317.029 697.436 321.429L700.136 367.129C700.336 371.529 697.036 375.329 692.636 375.529Z" fill="#F5B6CD"/>
<path d="M525.233 543.826L415.733 545.826L330.133 336.726C330.133 336.626 646.433 179.326 525.233 543.826Z" fill="#9063CD"/>
<path d="M526.532 447.226C475.032 447.226 425.232 434.826 381.632 411.126C371.632 405.726 367.932 393.226 373.432 383.226C378.832 373.226 391.332 369.526 401.332 375.026C484.632 420.326 593.832 415.626 672.932 363.326C682.432 357.026 695.132 359.626 701.432 369.126C707.732 378.626 705.132 391.326 695.632 397.626C650.532 427.426 596.932 444.526 540.532 446.926C535.832 447.126 531.132 447.226 526.532 447.226Z" fill="#FF7F41"/>
<path d="M527.834 423.726C478.034 423.726 441.834 410.826 439.534 410.026C432.534 407.426 428.934 399.726 431.434 392.726C434.034 385.726 441.734 382.126 448.734 384.626C449.834 385.026 527.034 412.126 606.934 383.426C613.934 380.926 621.634 384.526 624.234 391.526C626.734 398.526 623.134 406.226 616.134 408.826C584.934 420.026 554.434 423.726 527.834 423.726Z" fill="#FDDA24"/>
</svg>
