<svg width="1080" height="1080" viewBox="0 0 1080 1080" fill="none" xmlns="http://www.w3.org/2000/svg">
<path d="M626.132 382.2H426.632C398.832 382.2 376.332 359.6 376.332 331.9V132.3C376.332 104.5 398.932 82 426.632 82H626.132C653.932 82 676.432 104.6 676.432 132.3V331.8C676.532 359.6 653.932 382.2 626.132 382.2ZM426.632 94.8C405.932 94.8 389.132 111.6 389.132 132.3V331.8C389.132 352.5 405.932 369.3 426.632 369.3H626.132C646.832 369.3 663.632 352.5 663.632 331.8V132.3C663.632 111.6 646.832 94.8 626.132 94.8H426.632Z" fill="#FDDA24"/>
<path d="M256.232 630.998L256.432 967.198C256.432 983.598 243.132 996.998 226.732 996.998C211.332 996.998 198.632 985.198 197.132 970.198L163.832 635.598C161.332 610.198 179.832 587.498 205.332 584.898C230.732 582.398 253.432 600.898 256.032 626.398C256.132 627.998 256.232 629.498 256.232 630.998Z" fill="#2C2A29"/>
<path d="M198.031 642.101L123.531 973.901C119.931 990.101 103.731 1000.3 87.531 996.701C72.331 993.301 62.3311 978.701 64.2311 963.501L106.931 626.201C110.131 600.801 133.331 582.901 158.631 586.101C184.031 589.301 201.931 612.501 198.731 637.801C198.631 639.201 198.331 640.701 198.031 642.101Z" fill="#2C2A29"/>
<path d="M292.031 312.199L307.431 306.199C311.131 304.799 312.931 300.599 311.531 296.999L296.631 258.699C295.231 254.999 291.031 253.199 287.431 254.599L272.031 260.599C268.331 261.999 266.531 266.199 267.931 269.799L282.831 308.099C284.231 311.799 288.331 313.599 292.031 312.199Z" fill="#2C2A29"/>
<path d="M200.124 412.474C209.234 389.709 200.574 364.833 180.782 356.914C160.991 348.994 137.561 361.029 128.452 383.795C119.342 406.56 128.001 431.436 147.793 439.356C167.585 447.275 191.014 435.24 200.124 412.474Z" fill="#E4AC7B"/>
<path d="M183.933 672.1H175.033C139.533 672.1 110.633 643.3 110.633 607.7V602H248.233V607.8C248.333 643.3 219.433 672.1 183.933 672.1Z" fill="#2C2A29"/>
<path d="M233.431 452L266.531 658.6L92.8313 655.7C92.9313 655.8 75.7313 454.2 233.431 452Z" fill="#00C389"/>
<path d="M299.83 353.2C292.13 353.2 285.63 347.4 284.93 339.6C284.33 333.1 283.33 326.3 281.93 319.4C280.33 311.3 285.53 303.4 293.63 301.7C301.73 300 309.63 305.3 311.33 313.4C312.93 321.3 314.13 329.2 314.83 336.8C315.63 345 309.53 352.3 301.23 353.1C300.73 353.2 300.33 353.2 299.83 353.2Z" fill="#FDDA24"/>
<path d="M240.931 477.101C235.331 477.101 229.831 473.901 227.331 468.401C223.831 460.901 227.031 452.001 234.531 448.501C236.331 447.601 274.131 428.801 283.531 377.801C285.031 369.701 292.831 364.301 301.031 365.801C309.131 367.301 314.531 375.101 313.031 383.301C300.731 450.101 249.531 474.701 247.331 475.701C245.231 476.601 243.031 477.101 240.931 477.101Z" fill="#FF7F41"/>
<path d="M317.931 377.302C317.631 377.302 317.331 377.302 317.031 377.302C310.531 376.802 305.631 371.102 306.131 364.502C308.031 340.502 304.031 314.602 294.331 287.402C292.131 281.202 295.331 274.402 301.531 272.202C307.731 270.002 314.531 273.202 316.731 279.402C327.631 309.702 332.031 339.002 329.831 366.402C329.231 372.602 324.031 377.302 317.931 377.302Z" fill="#9063CD"/>
<path d="M253.931 488.601C249.931 488.601 246.031 486.601 243.731 482.901C240.331 477.301 242.131 470.001 247.731 466.601C248.131 466.301 269.731 452.701 286.531 425.301C289.931 419.701 297.231 417.901 302.831 421.401C308.431 424.801 310.231 432.101 306.731 437.701C286.731 470.401 261.131 486.201 260.031 486.901C258.131 488.001 256.031 488.601 253.931 488.601Z" fill="#9063CD"/>
<path d="M886.432 635.599L853.132 970.099C851.532 986.399 836.932 998.399 820.632 996.799C805.332 995.299 793.832 982.199 793.832 967.199L794.032 630.999C794.032 605.399 814.832 584.699 840.332 584.699C865.932 584.699 886.632 605.499 886.632 630.999C886.632 632.599 886.532 634.099 886.432 635.599Z" fill="#2C2A29"/>
<path d="M943.23 626.199L985.93 963.499C988.03 979.999 976.329 995.099 959.829 997.199C944.329 999.199 930.029 988.799 926.629 973.899L852.129 642.199C846.529 617.199 862.229 592.499 887.129 586.899C912.029 581.299 936.83 596.999 942.43 621.899C942.83 623.299 943.13 624.799 943.23 626.199Z" fill="#2C2A29"/>
<path d="M758.13 312.199L742.73 306.199C739.03 304.799 737.23 300.599 738.63 296.999L753.53 258.699C754.93 254.999 759.13 253.199 762.73 254.599L778.13 260.599C781.83 261.999 783.63 266.199 782.23 269.799L767.33 308.099C765.93 311.799 761.83 313.599 758.13 312.199Z" fill="#2C2A29"/>
<path d="M988.332 676.799C987.832 676.799 987.332 676.799 986.832 676.699C980.332 675.899 975.732 669.999 976.532 663.499C978.132 650.199 978.432 637.399 977.332 625.599C976.732 619.099 981.532 613.299 988.032 612.699C994.532 612.099 1000.33 616.899 1000.93 623.399C1002.23 636.899 1001.93 651.399 1000.13 666.499C999.332 672.399 994.232 676.799 988.332 676.799Z" fill="#F5B6CD"/>
<path d="M980.63 599.3C975.83 599.3 971.43 596.4 969.53 591.7C953.13 549.4 918.73 535.7 917.23 535.1C911.13 532.8 908.03 526 910.33 519.8C912.63 513.7 919.53 510.6 925.63 512.9C927.53 513.6 971.23 530.5 991.63 583.1C994.03 589.2 990.93 596.1 984.83 598.4C983.43 599.1 982.03 599.3 980.63 599.3Z" fill="#00C389"/>
<path d="M999.732 705.1C999.032 705.1 998.332 705 997.632 704.8C993.432 703.6 990.832 699.3 992.032 695C999.732 666.7 1001.73 639.9 997.832 615.6C997.132 611.3 1000.13 607.2 1004.43 606.5C1008.73 605.8 1012.83 608.8 1013.53 613.1C1017.73 639.7 1015.63 668.6 1007.33 699.2C1006.43 702.8 1003.23 705.1 999.732 705.1Z" fill="#FF7F41"/>
<path d="M979.429 558.199C976.929 558.199 974.529 557.099 972.929 554.899C953.329 527.899 929.929 515.699 929.629 515.599C925.729 513.599 924.129 508.799 926.129 504.899C928.129 500.999 932.929 499.399 936.829 501.399C937.929 501.999 963.829 515.299 985.829 545.599C988.429 549.199 987.629 554.199 984.029 556.699C982.629 557.699 981.029 558.199 979.429 558.199Z" fill="#FF7F41"/>
<path d="M877.708 424.667C897.756 416.645 906.524 391.437 897.291 368.363C888.058 345.29 864.321 333.089 844.273 341.111C824.225 349.133 815.457 374.341 824.69 397.415C833.923 420.488 857.66 432.689 877.708 424.667Z" fill="#B28038"/>
<path d="M866.33 672.1H875.13C910.63 672.1 939.53 643.3 939.53 607.7V602H801.93V607.8C801.93 643.3 830.73 672.1 866.33 672.1Z" fill="#2C2A29"/>
<path d="M801.328 457.402L789.328 671.302L957.728 685.602C957.828 685.602 956.428 421.802 801.328 457.402Z" fill="#FDDA24"/>
<path d="M958.33 686.202H957.83L788.93 671.802V671.302L800.93 457.102L801.33 457.002C834.43 449.402 863.13 454.902 886.63 473.502C923.33 502.502 940.83 558.702 949.13 600.702C958.13 646.202 958.43 685.302 958.43 685.702L958.33 686.202ZM789.93 670.802L957.33 685.102C957.23 680.202 956.43 643.302 948.03 600.802C939.83 559.002 922.33 503.002 885.93 474.202C862.83 455.902 834.53 450.402 801.83 457.802L789.93 670.802Z" fill="#FDDA24"/>
<path d="M755.429 407.2C750.129 407.2 745.329 403.8 743.629 398.5C735.929 373.3 735.129 344.9 741.429 313.9C742.829 307.2 749.229 302.9 755.929 304.3C762.629 305.7 766.929 312.1 765.529 318.8C760.029 345.7 760.629 369.999 767.129 391.299C769.129 397.799 765.429 404.7 758.929 406.7C757.829 407 756.629 407.2 755.429 407.2Z" fill="#F5B6CD"/>
<path d="M809.327 474.398C807.627 474.398 805.827 473.998 804.127 473.198C803.127 472.698 779.127 461.298 760.227 433.198C756.427 427.598 757.927 419.898 763.527 416.098C769.127 412.298 776.827 413.798 780.627 419.398C795.527 441.598 814.327 450.698 814.527 450.798C820.727 453.698 823.327 460.998 820.427 467.098C818.327 471.798 813.927 474.398 809.327 474.398Z" fill="#00C389"/>
<path d="M732.229 373.4C728.129 373.4 724.629 370.2 724.329 366.1C722.229 339.3 726.529 310.6 737.229 280.8C738.729 276.7 743.229 274.5 747.429 276C751.529 277.5 753.729 282 752.229 286.2C742.329 313.9 738.329 340.3 740.229 364.9C740.529 369.3 737.329 373.1 732.929 373.5C732.729 373.4 732.529 373.4 732.229 373.4Z" fill="#FF7F41"/>
<path d="M796.328 484.701C794.928 484.701 793.528 484.301 792.228 483.501C791.228 482.901 766.328 467.501 746.828 435.601C744.528 431.801 745.728 426.901 749.428 424.601C753.228 422.301 758.128 423.501 760.428 427.201C777.828 455.701 800.328 469.601 800.528 469.801C804.228 472.101 805.428 477.001 803.128 480.801C801.628 483.301 799.028 484.701 796.328 484.701Z" fill="#FF7F41"/>
<path d="M412.83 160.099C409.33 160.099 406.43 157.199 406.43 153.699V140.799C406.43 123.099 420.83 108.699 438.53 108.699H451.33C454.83 108.699 457.73 111.599 457.73 115.099C457.73 118.599 454.83 121.499 451.33 121.499H438.53C427.93 121.499 419.33 130.099 419.33 140.699V153.499C419.33 157.199 416.43 160.099 412.83 160.099Z" fill="#FDDA24"/>
<path d="M643.831 160.101C640.331 160.101 637.431 157.201 637.431 153.701V140.801C637.431 130.201 628.831 121.601 618.231 121.601H605.431C601.931 121.601 599.031 118.701 599.031 115.201C599.031 111.701 601.931 108.801 605.431 108.801H618.231C635.931 108.801 650.331 123.201 650.331 140.901V153.701C650.231 157.201 647.331 160.101 643.831 160.101Z" fill="#FDDA24"/>
<path d="M618.13 352.501H605.33C601.83 352.501 598.93 349.601 598.93 346.101C598.93 342.601 601.83 339.701 605.33 339.701H618.13C628.73 339.701 637.33 331.101 637.33 320.501V307.701C637.33 304.201 640.23 301.301 643.73 301.301C647.23 301.301 650.13 304.201 650.13 307.701V320.501C650.23 338.101 635.83 352.501 618.13 352.501Z" fill="#FDDA24"/>
<path d="M451.33 352.499H438.53C420.83 352.499 406.43 338.099 406.43 320.399V307.599C406.43 304.099 409.33 301.199 412.83 301.199C416.33 301.199 419.23 304.099 419.23 307.599V320.399C419.23 330.999 427.83 339.599 438.43 339.599H451.23C454.73 339.599 457.63 342.499 457.63 345.999C457.63 349.499 454.93 352.499 451.33 352.499Z" fill="#FDDA24"/>
<path d="M515.531 224.199H451.431C447.931 224.199 445.031 221.299 445.031 217.799V153.599C445.031 150.099 447.931 147.199 451.431 147.199H515.531C519.031 147.199 521.931 150.099 521.931 153.599V217.699C521.931 221.299 519.031 224.199 515.531 224.199ZM457.831 211.399H509.131V160.099H457.831V211.399Z" fill="#59CBE8"/>
<path d="M605.328 224.199H541.228C537.728 224.199 534.828 221.299 534.828 217.799V153.599C534.828 150.099 537.728 147.199 541.228 147.199H605.328C608.828 147.199 611.728 150.099 611.728 153.599V217.699C611.728 221.299 608.828 224.199 605.328 224.199ZM547.628 211.399H598.928V160.099H547.628V211.399Z" fill="#F5B6CD"/>
<path d="M579.63 198.598H566.83C563.33 198.598 560.43 195.698 560.43 192.198V179.298C560.43 175.798 563.33 172.898 566.83 172.898H579.63C583.13 172.898 586.03 175.798 586.03 179.298V192.098C586.03 195.698 583.23 198.598 579.63 198.598Z" fill="#00C389"/>
<path d="M489.829 198.598H477.029C473.529 198.598 470.629 195.698 470.629 192.198V179.298C470.629 175.798 473.529 172.898 477.029 172.898H489.829C493.329 172.898 496.229 175.798 496.229 179.298V192.098C496.229 195.698 493.429 198.598 489.829 198.598Z" fill="#00C389"/>
<path d="M579.63 288.401H566.83C563.33 288.401 560.43 285.501 560.43 282.001V269.201C560.43 265.701 563.33 262.801 566.83 262.801H579.63C583.13 262.801 586.03 265.701 586.03 269.201V282.001C586.03 285.501 583.23 288.401 579.63 288.401Z" fill="#00C389"/>
<path d="M489.829 288.401H477.029C473.529 288.401 470.629 285.501 470.629 282.001V269.201C470.629 265.701 473.529 262.801 477.029 262.801H489.829C493.329 262.801 496.229 265.701 496.229 269.201V282.001C496.229 285.501 493.429 288.401 489.829 288.401Z" fill="#00C389"/>
<path d="M515.531 313.998H451.431C447.931 313.998 445.031 311.098 445.031 307.598V243.498C445.031 239.998 447.931 237.098 451.431 237.098H515.531C519.031 237.098 521.931 239.998 521.931 243.498V307.598C521.931 311.098 519.031 313.998 515.531 313.998ZM457.831 301.198H509.131V249.898H457.831V301.198Z" fill="#9063CD"/>
<path d="M605.328 313.998H541.228C537.728 313.998 534.828 311.098 534.828 307.598V243.498C534.828 239.998 537.728 237.098 541.228 237.098H605.328C608.828 237.098 611.728 239.998 611.728 243.498V307.598C611.728 311.098 608.828 313.998 605.328 313.998ZM547.628 301.198H598.928V249.898H547.628V301.198Z" fill="#FF7F41"/>
</svg>
