<svg width="1080" height="1080" viewBox="0 0 1080 1080" fill="none" xmlns="http://www.w3.org/2000/svg">
<path fill-rule="evenodd" clip-rule="evenodd" d="M1024.76 396.908C1024.27 233.947 898.899 102 744.311 102C663.703 102 591.038 137.876 539.88 195.319C488.723 137.877 416.058 102.001 335.45 102.001C180.562 102.001 55 234.462 55 397.86H55.9544C56.8789 729.503 540.571 998.193 540.571 998.193C540.571 998.193 1025.19 728.989 1025.19 396.908H1024.76Z" fill="#E6DCCB"/>
<circle cx="539.83" cy="310.491" r="18.4714" fill="#F5B6CD"/>
<path d="M510.275 351.773C510.275 339.175 538.806 328.962 574.001 328.962C609.196 328.962 637.728 339.175 637.728 351.773C637.728 364.372 574.001 524.759 574.001 524.759C574.001 524.759 510.275 364.372 510.275 351.773Z" fill="white"/>
<circle cx="610.02" cy="328.962" r="18.4714" fill="#F5B6CD"/>
<circle cx="589.701" cy="347.433" r="18.4714" fill="#F5B6CD"/>
<circle cx="561.995" cy="301.256" r="18.4714" fill="#F5B6CD"/>
<circle cx="552.759" cy="352.974" r="18.4714" fill="#F5B6CD"/>
<path d="M346.589 364.593C346.581 365.76 346.69 367.046 347.033 368.216C357.076 404.597 379.409 436.62 409.981 458.652C440.552 480.685 478.083 491.668 515.698 489.69C522.824 489.268 529.719 488.378 536.384 487.019C543.517 485.547 548.116 478.57 546.644 471.32C545.172 464.071 538.194 459.588 530.945 461.06C525.566 462.194 519.956 462.858 514.232 463.172C482.576 464.838 450.989 455.528 425.3 437.03C399.61 418.532 380.865 391.554 372.419 361.021C370.479 354.002 363.148 349.868 356.129 351.808C350.396 353.523 346.625 358.871 346.589 364.593Z" fill="#9063CD"/>
<path d="M335.502 381.689C335.496 382.623 335.608 383.441 335.835 384.377C346.107 421.577 368.913 452.668 401.708 474.014C426.361 490.17 447.932 495.213 448.866 495.335C454.23 496.537 459.506 493.185 460.708 487.821C461.91 482.457 458.557 477.18 453.31 475.979C452.961 475.86 433.605 471.299 411.977 456.914C383.254 437.929 364.154 411.766 355.021 379.011C353.536 373.746 348.068 370.675 342.803 372.16C338.358 373.416 335.53 377.368 335.502 381.689Z" fill="#FF7F41"/>
<path d="M491.865 509.623C491.831 514.877 495.891 519.224 501.143 519.608C504.295 519.745 531.845 521.205 546.609 513.359C551.413 510.821 553.32 504.76 550.782 499.956C548.243 495.152 542.183 493.245 537.379 495.784C529.881 499.706 511.893 500.292 502.438 499.764C496.952 499.379 492.254 503.553 491.986 509.039C491.867 509.272 491.867 509.389 491.865 509.623Z" fill="#FF7F41"/>
<path d="M728.842 459.738C724.792 459.189 721.255 456.589 719.427 452.688C716.824 446.679 719.564 439.508 725.573 436.905C747.617 427.284 766.975 407.046 767.122 406.83C771.662 402.025 779.24 401.756 784.03 406.412C788.835 410.952 789.105 418.53 784.565 423.335C783.613 424.267 761.749 447.347 735.194 458.949C733.086 459.724 730.925 460.02 728.842 459.738Z" fill="#9063CD"/>
<path d="M609.409 510.604C602.119 509.616 596.198 503.747 595.466 496.106C594.543 487.26 601.042 479.303 610.003 478.396C639.263 475.527 688.037 469.528 703.617 465.865C712.257 463.855 721.081 469.175 723.076 477.93C725.087 486.569 719.766 495.393 711.011 497.388C691.409 502.038 636.576 508.394 613.175 510.643C611.855 510.818 610.566 510.761 609.409 510.604Z" fill="#FF7F41"/>
<path d="M740.859 479.75C736.115 479.107 731.668 476.265 728.977 471.776C724.495 463.98 727.132 454.085 734.912 449.719C766.227 431.691 785.873 417.149 807.165 387.864C812.381 380.675 822.509 378.984 829.813 384.216C837.002 389.433 838.693 399.561 833.461 406.865C808.965 440.665 785.655 457.892 751.149 477.727C747.943 479.649 744.33 480.22 740.859 479.75Z" fill="#FF7F41"/>
<path d="M331.427 275.427C348.864 257.211 346.873 227.006 326.98 207.964C307.086 188.921 276.823 188.251 259.386 206.468C241.949 224.684 243.94 254.888 263.834 273.931C283.728 292.974 313.99 293.643 331.427 275.427Z" fill="#E4AC7B"/>
<path d="M287.914 919.626C286.512 919.626 285.111 919.509 283.71 919.275C271.916 916.94 264.092 905.613 266.427 893.702C266.778 891.6 306.364 686.196 321.778 574.093C323.413 562.182 334.389 553.775 346.3 555.409C358.211 557.044 366.619 568.021 364.984 579.932C349.453 693.202 309.75 899.774 309.283 901.759C307.298 912.386 298.073 919.626 287.914 919.626Z" fill="#9063CD"/>
<path d="M271.915 633.063C271.915 633.063 259.07 741.195 211.776 808.34L271.915 633.063Z" fill="white"/>
<path d="M211.777 824.456C208.507 824.456 205.238 823.521 202.435 821.536C195.078 816.398 193.327 806.239 198.465 798.882C242.722 735.941 255.684 632.13 255.8 631.079C256.851 622.204 264.909 615.781 273.784 616.832C282.658 617.883 289.081 625.941 288.03 634.815C287.446 639.37 274.134 747.852 225.089 817.449C221.819 822.12 216.798 824.456 211.777 824.456Z" fill="#FF7F41"/>
<path d="M171.723 924.646C166.002 924.646 160.396 922.427 156.076 918.107C147.668 909.465 147.785 895.686 156.426 887.278C239.452 806.238 272.265 626.523 272.616 624.772C274.718 612.861 286.045 605.037 297.956 607.139C309.866 609.241 317.69 620.568 315.588 632.479C314.187 640.419 280.089 827.607 186.904 918.574C182.7 922.661 177.212 924.646 171.723 924.646Z" fill="#9063CD"/>
<path d="M252.765 354.909C251.597 354.909 250.313 354.792 249.145 354.442C212.829 344.166 180.95 321.629 159.113 290.917C137.276 260.206 126.533 222.605 128.752 185.004C129.219 177.881 130.153 170.991 131.554 164.335C133.072 157.212 140.079 152.658 147.319 154.176C154.559 155.694 158.996 162.7 157.478 169.94C156.31 175.312 155.61 180.917 155.259 186.639C153.391 218.284 162.499 249.93 180.833 275.737C199.166 301.544 226.024 320.461 256.502 329.102C263.508 331.087 267.595 338.444 265.61 345.451C263.859 351.172 258.487 354.909 252.765 354.909Z" fill="#9063CD"/>
<path d="M235.599 365.886C234.665 365.886 233.848 365.769 232.914 365.535C195.78 355.026 164.835 332.021 143.699 299.091C127.701 274.335 122.796 252.732 122.68 251.798C121.512 246.427 124.898 241.172 130.27 240.004C135.641 238.836 140.896 242.223 142.064 247.478C142.181 247.828 146.618 267.212 160.864 288.932C179.665 317.775 205.705 337.043 238.402 346.385C243.657 347.903 246.693 353.391 245.175 358.646C243.89 363.083 239.92 365.886 235.599 365.886Z" fill="#FF7F41"/>
<path d="M108.666 208.709C103.411 208.709 99.0905 204.622 98.7402 199.367C98.6234 196.214 97.3389 168.656 105.279 153.942C107.849 149.154 113.921 147.286 118.708 149.855C123.496 152.424 125.365 158.496 122.796 163.284C118.825 170.758 118.125 188.741 118.592 198.199C118.942 203.688 114.738 208.359 109.25 208.592C109.016 208.709 108.899 208.709 108.666 208.709Z" fill="#FF7F41"/>
<path fill-rule="evenodd" clip-rule="evenodd" d="M296.655 495.061L221.119 325.482C451.875 251.831 406.498 459.556 389.994 516.901L358.328 664.476H150.472L155.843 639.487C171.431 567.068 227.153 511.828 296.655 495.061Z" fill="white"/>
<path d="M932.386 512.904L932.62 883.66C932.62 901.76 917.907 916.473 899.807 916.473C882.875 916.473 868.862 903.395 867.11 886.93L830.443 518.042C827.641 490.017 848.193 464.91 876.218 462.225C904.244 459.422 929.35 479.974 932.036 508C932.386 509.518 932.386 511.269 932.386 512.904Z" fill="#2C2A29"/>
<path d="M868.277 525.166L786.068 890.9C782.098 908.766 764.232 920.093 746.365 916.006C729.55 912.27 718.573 896.155 720.675 879.456L767.735 507.533C771.238 479.507 796.812 459.773 824.837 463.276C852.863 466.779 872.597 492.352 869.094 520.378C868.977 522.013 868.627 523.648 868.277 525.166Z" fill="#2C2A29"/>
<path d="M863.276 272.676C873.578 246.93 863.777 218.794 841.384 209.834C818.99 200.873 792.486 214.48 782.183 240.226C771.881 265.972 781.682 294.108 804.076 303.068C826.469 312.029 852.973 298.422 863.276 272.676Z" fill="#E4AC7B"/>
<path d="M852.747 558.211H842.938C803.702 558.211 771.939 526.449 771.939 487.213V480.907H923.628V487.213C923.745 526.449 891.866 558.211 852.747 558.211Z" fill="#2C2A29"/>
<path d="M907.397 316.557L944.998 532.004L752.439 541.229C752.322 541.229 733.405 319.009 907.397 316.557Z" fill="#2C2A29"/>
<path fill-rule="evenodd" clip-rule="evenodd" d="M760.274 444.985C794.876 439.947 832.622 393.816 850.369 331.024C850.89 329.177 851.39 327.334 851.867 325.495C796.455 346.62 771.388 397.858 760.274 444.985Z" fill="white"/>
<path d="M887.195 350.354C882.057 350.354 877.152 347.435 874.934 342.531C871.781 335.758 874.7 327.7 881.473 324.548C881.94 324.314 900.974 314.855 916.972 292.668C938.458 262.774 944.647 224.473 935.422 178.931C933.904 171.574 938.692 164.451 946.049 162.933C953.406 161.415 960.529 166.203 962.047 173.559C975.709 240.704 956.558 284.728 938.108 309.834C917.906 337.393 894.085 348.72 893.034 349.187C891.048 349.887 889.063 350.354 887.195 350.354Z" fill="#FF7F41"/>
<path d="M972.089 238.953C971.855 238.953 971.622 238.953 971.388 238.953C966.601 238.603 962.981 234.282 963.331 229.494C965.433 202.403 960.995 173.209 950.136 142.732C948.501 138.177 950.836 133.156 955.39 131.521C959.945 129.886 964.966 132.222 966.601 136.776C978.395 169.589 983.182 201.235 980.847 230.895C980.497 235.45 976.643 238.953 972.089 238.953Z" fill="#9063CD"/>
<path d="M901.441 361.681C898.522 361.681 895.603 360.163 893.968 357.477C891.399 353.39 892.8 347.902 896.887 345.45C897.238 345.216 921.877 329.802 941.028 298.507C943.597 294.42 948.968 293.018 953.055 295.588C957.142 298.157 958.544 303.528 955.975 307.615C934.488 342.764 907.047 359.696 905.879 360.397C904.594 361.331 902.959 361.681 901.441 361.681Z" fill="#9063CD"/>
<circle cx="637.726" cy="288.326" r="18.4714" fill="#9063CD"/>
<circle cx="589.701" cy="316.032" r="18.4714" fill="#9063CD"/>
<circle cx="587.855" cy="304.95" r="18.4714" fill="#9063CD"/>
<circle cx="569.383" cy="279.09" r="18.4714" fill="#9063CD"/>
<circle cx="635.88" cy="325.268" r="18.4714" fill="#9063CD"/>
<circle cx="648.809" cy="360.363" r="18.4714" fill="#9063CD"/>
<circle cx="517.662" cy="376.988" r="18.4714" fill="#9063CD"/>
<circle cx="646.963" cy="349.281" r="18.4714" fill="#F5B6CD"/>
<circle cx="499.191" cy="319.727" r="18.4714" fill="#F5B6CD"/>
<circle cx="536.133" cy="282.784" r="18.4714" fill="#9063CD"/>
<circle cx="482.567" cy="330.809" r="18.4714" fill="#9063CD"/>
<circle cx="502.885" cy="341.892" r="18.4714" fill="#9063CD"/>
<circle cx="532.44" cy="325.268" r="18.4714" fill="#9063CD"/>
<circle cx="558.3" cy="330.809" r="18.4714" fill="#F5B6CD"/>
<circle cx="571.315" cy="371.341" r="18.4714" fill="#F5B6CD"/>
<circle cx="525.051" cy="343.74" r="18.4714" fill="#F5B6CD"/>
<circle cx="499.191" cy="356.669" r="18.4714" fill="#F5B6CD"/>
<circle cx="624.798" cy="347.433" r="18.4714" fill="#F5B6CD"/>
<circle cx="624.798" cy="371.447" r="18.4714" fill="#F5B6CD"/>
<circle cx="604.478" cy="352.974" r="18.4714" fill="#F5B6CD"/>
<circle cx="580.466" cy="341.892" r="18.4714" fill="#F5B6CD"/>
<circle cx="536.133" cy="360.363" r="18.4714" fill="#F5B6CD"/>
<circle cx="521.357" cy="316.032" r="18.4714" fill="#F5B6CD"/>
<circle cx="619.255" cy="301.256" r="18.4714" fill="#F5B6CD"/>
<circle cx="593.396" cy="282.784" r="18.4714" fill="#F5B6CD"/>
<circle cx="517.662" cy="288.326" r="18.4714" fill="#F5B6CD"/>
<circle cx="598.937" cy="378.836" r="18.4714" fill="#9063CD"/>
<circle cx="556.454" cy="367.753" r="18.4714" fill="#9063CD"/>
</svg>
