<svg width="1080" height="1080" viewBox="0 0 1080 1080" fill="none" xmlns="http://www.w3.org/2000/svg">
<ellipse cx="540.5" cy="867.5" rx="515.5" ry="141.5" fill="#FDDA24"/>
<rect x="495" y="667" width="91" height="202" fill="#B28038"/>
<ellipse cx="540.5" cy="867.5" rx="45.5" ry="12.5" fill="#B28038"/>
<path d="M790 625.621C790 660.624 678.071 689 540 689C401.929 689 290 660.624 290 625.621C290 590.618 540 145 540 145C540 145 790 590.618 790 625.621Z" fill="#00C389"/>
<path d="M540 38L559.308 97.4245H621.791L571.241 134.151L590.55 193.575L540 156.849L489.45 193.575L508.759 134.151L458.209 97.4245H520.692L540 38Z" fill="#FDDA24"/>
<circle cx="467.5" cy="305.5" r="35.5" fill="#9063CD"/>
<circle cx="754.5" cy="576.5" r="35.5" fill="#F5B6CD"/>
<circle cx="703.5" cy="452.5" r="35.5" fill="#9063CD"/>
<circle cx="539.5" cy="608.5" r="35.5" fill="#9063CD"/>
<circle cx="539.5" cy="474.5" r="35.5" fill="#F5B6CD"/>
<ellipse cx="621.5" cy="306" rx="35.5" ry="35" fill="#F5B6CD"/>
<circle cx="316.5" cy="576.5" r="35.5" fill="#F5B6CD"/>
<circle cx="376.5" cy="452.5" r="35.5" fill="#9063CD"/>
<path fill-rule="evenodd" clip-rule="evenodd" d="M137.366 184.143V154.843L111.443 169.81L104.698 194.98L96.971 192.91L101.645 175.467L84.2017 185.538L80.2017 178.609L97.9936 168.337L80.0005 163.516L82.071 155.789L107.792 162.68L133.165 148.031L107.242 133.064L82.0706 139.809L80 132.082L97.4436 127.408L80.0005 117.337L84.0005 110.409L101.792 120.68L96.9706 102.688L104.698 100.617L111.59 126.337L137.366 141.219V111.456L118.537 92.6274L124.194 86.9706L137.366 100.143V80H145.366V99.7395L158.135 86.9706L163.792 92.6274L145.366 111.053V140.987L170.739 126.338L177.631 100.617L185.359 102.687L180.537 120.681L197.981 110.609L201.981 117.538L184.886 127.407L202.329 132.081L200.259 139.809L175.088 133.064L149.165 148.031L174.538 162.681L200.259 155.789L202.33 163.516L184.336 168.337L201.78 178.409L197.78 185.337L180.685 175.467L185.359 192.91L177.632 194.98L170.887 169.81L145.366 155.076V184.544L163.793 202.971L158.136 208.628L145.366 195.858V216H137.366V195.456L124.195 208.628L118.538 202.971L137.366 184.143Z" fill="#59CBE8"/>
<path fill-rule="evenodd" clip-rule="evenodd" d="M935.366 184.143V154.843L909.443 169.81L902.698 194.98L894.971 192.91L899.645 175.467L882.202 185.538L878.202 178.609L895.994 168.337L878 163.516L880.071 155.789L905.792 162.68L931.165 148.031L905.242 133.064L880.071 139.809L878 132.082L895.444 127.408L878.001 117.337L882.001 110.409L899.792 120.68L894.971 102.688L902.698 100.617L909.59 126.337L935.366 141.219V111.456L916.537 92.6274L922.194 86.9706L935.366 100.143V80H943.366V99.7395L956.135 86.9706L961.792 92.6274L943.366 111.053V140.987L968.739 126.338L975.631 100.617L983.359 102.687L978.537 120.681L995.981 110.609L999.981 117.538L982.886 127.407L1000.33 132.081L998.259 139.809L973.088 133.064L947.165 148.031L972.538 162.681L998.259 155.789L1000.33 163.516L982.336 168.337L999.78 178.409L995.78 185.337L978.685 175.467L983.359 192.91L975.632 194.98L968.887 169.81L943.366 155.076V184.544L961.793 202.971L956.136 208.628L943.366 195.858V216H935.366V195.456L922.195 208.628L916.538 202.971L935.366 184.143Z" fill="#59CBE8"/>
<path fill-rule="evenodd" clip-rule="evenodd" d="M653.565 142.429C654.992 136.859 660.664 133.5 666.235 134.927C688.257 140.568 709.279 149.427 728.486 161.236C747.69 173.035 765.061 187.774 779.839 204.959C794.624 222.138 806.788 241.745 815.721 263.032C824.658 284.311 830.349 307.21 832.561 330.747C833.099 336.472 828.895 341.549 823.17 342.087C817.445 342.625 812.367 338.421 811.829 332.696C809.809 311.208 804.62 290.375 796.522 271.096L796.521 271.093C788.431 251.812 777.419 234.069 764.056 218.543L764.053 218.54C750.694 203.003 734.975 189.662 717.582 178.977L717.579 178.975C700.186 168.281 681.105 160.232 661.067 155.099C655.497 153.672 652.138 148 653.565 142.429Z" fill="#FDDA23"/>
<path fill-rule="evenodd" clip-rule="evenodd" d="M827.196 296.434C831.737 295.485 836.187 298.397 837.136 302.938C840.001 316.645 841.695 330.675 842.224 344.816L842.336 347.375L842.337 347.396C842.363 348.056 842.376 348.775 842.388 349.38C842.393 349.624 842.397 349.851 842.402 350.047L842.402 350.054L842.729 365.169C842.829 369.807 839.151 373.648 834.512 373.748C829.874 373.848 826.033 370.169 825.933 365.531L825.607 350.445C825.606 350.442 825.606 350.439 825.606 350.437C825.598 350.081 825.592 349.773 825.587 349.49C825.577 348.985 825.569 348.557 825.55 348.069L825.437 345.498L825.436 345.47C824.943 332.242 823.36 319.144 820.692 306.375C819.743 301.834 822.655 297.383 827.196 296.434Z" fill="#59CBE8"/>
<path fill-rule="evenodd" clip-rule="evenodd" d="M778.911 199.485C784.225 195.058 792.121 195.777 796.548 201.091C807.824 214.628 817.572 230.999 824.392 243.674C827.836 250.072 830.601 255.657 832.512 259.656C833.469 261.657 834.214 263.266 834.725 264.388C834.981 264.948 835.178 265.388 835.315 265.693C835.383 265.846 835.436 265.966 835.473 266.05L835.518 266.151L835.537 266.196C835.538 266.197 835.539 266.198 824.066 271.219L835.539 266.198C838.311 272.535 835.422 279.919 829.086 282.692C822.75 285.464 815.367 282.576 812.593 276.241L812.592 276.239L812.564 276.174C812.539 276.117 812.498 276.026 812.443 275.902C812.333 275.655 812.163 275.276 811.936 274.778C811.481 273.782 810.8 272.31 809.914 270.456C808.14 266.745 805.555 261.525 802.337 255.543C795.833 243.459 787.011 228.775 777.304 217.122C772.877 211.808 773.596 203.911 778.911 199.485Z" fill="#FF7F41"/>
<path fill-rule="evenodd" clip-rule="evenodd" d="M426.421 142.429C424.994 136.859 419.321 133.5 413.751 134.927C391.728 140.568 370.706 149.427 351.499 161.236C332.295 173.035 314.924 187.774 300.146 204.959C285.361 222.138 273.197 241.745 264.264 263.032C255.327 284.311 249.637 307.21 247.424 330.747C246.886 336.472 251.091 341.549 256.816 342.087C262.541 342.625 267.618 338.421 268.156 332.696C270.176 311.208 275.366 290.375 283.463 271.096L283.464 271.093C291.555 251.812 302.566 234.069 315.929 218.543L315.932 218.54C329.292 203.003 345.01 189.662 362.403 178.977L362.406 178.975C379.799 168.281 398.881 160.232 418.918 155.099C424.489 153.672 427.848 148 426.421 142.429Z" fill="#FDDA23"/>
<path fill-rule="evenodd" clip-rule="evenodd" d="M252.79 296.434C248.249 295.485 243.798 298.397 242.849 302.938C239.984 316.645 238.291 330.675 237.762 344.816L237.649 347.375L237.649 347.396C237.623 348.056 237.609 348.775 237.597 349.38C237.593 349.624 237.588 349.851 237.584 350.047L237.583 350.054L237.256 365.169C237.156 369.807 240.835 373.648 245.473 373.748C250.111 373.848 253.952 370.169 254.052 365.531L254.379 350.445C254.379 350.442 254.379 350.439 254.379 350.437C254.387 350.081 254.393 349.773 254.399 349.49C254.408 348.985 254.416 348.557 254.435 348.069L254.548 345.498L254.549 345.47C255.042 332.242 256.625 319.144 259.294 306.375C260.243 301.834 257.331 297.383 252.79 296.434Z" fill="#59CBE8"/>
<path fill-rule="evenodd" clip-rule="evenodd" d="M301.075 199.485C295.761 195.058 287.864 195.777 283.437 201.091C272.161 214.628 262.414 230.999 255.593 243.674C252.15 250.072 249.384 255.657 247.473 259.656C246.516 261.657 245.771 263.266 245.26 264.388C245.004 264.948 244.807 265.388 244.671 265.693C244.602 265.846 244.549 265.966 244.512 266.05L244.468 266.151L244.448 266.196C244.447 266.197 244.447 266.198 255.92 271.219L244.447 266.198C241.674 272.535 244.563 279.919 250.9 282.692C257.235 285.464 264.619 282.576 267.392 276.241L267.393 276.239L267.422 276.174C267.447 276.117 267.487 276.026 267.542 275.902C267.653 275.655 267.823 275.276 268.05 274.778C268.504 273.782 269.185 272.31 270.071 270.456C271.845 266.745 274.43 261.525 277.649 255.543C284.152 243.459 292.974 228.775 302.681 217.122C307.108 211.808 306.389 203.911 301.075 199.485Z" fill="#FF7F41"/>
<path d="M754 742.846L869.808 809.787V942.999L754 876.728V742.846Z" fill="#9063CD"/>
<path d="M984.946 742.846L869.138 809.787V942.999L984.946 876.728V742.846Z" fill="#FF7F41"/>
<path d="M869.808 676.574L754 742.846L869.138 809.787L984.946 742.846L869.808 676.574Z" fill="#59CBE8"/>
<mask id="mask0" mask-type="alpha" maskUnits="userSpaceOnUse" x="754" y="676" width="231" height="134">
<path d="M869.808 676.574L754 742.845L869.138 809.786L984.946 742.845L869.808 676.574Z" fill="#59CBE8"/>
</mask>
<g mask="url(#mask0)">
<path fill-rule="evenodd" clip-rule="evenodd" d="M939.086 790.855L857.09 743.514L865.792 728.441L947.788 775.782L939.086 790.855Z" fill="#FDDA24"/>
<path fill-rule="evenodd" clip-rule="evenodd" d="M884.598 743.514L744.629 824.325L735.927 809.252L875.896 728.441L884.598 743.514Z" fill="#FDDA24"/>
</g>
<mask id="mask1" mask-type="alpha" maskUnits="userSpaceOnUse" x="869" y="742" width="116" height="201">
<path d="M984.944 742.846L869.136 809.787V943L984.944 876.728V742.846Z" fill="#FF7F41"/>
</mask>
<g mask="url(#mask1)">
<path fill-rule="evenodd" clip-rule="evenodd" d="M937.417 747.532L937.417 949.694L920.013 949.694L920.013 747.532L937.417 747.532Z" fill="#FDDA24"/>
</g>
<mask id="mask2" mask-type="alpha" maskUnits="userSpaceOnUse" x="754" y="742" width="116" height="201">
<path d="M754 742.846L869.808 809.787V942.999L754 876.728V742.846Z" fill="#9063CD"/>
</mask>
<g mask="url(#mask2)">
<path fill-rule="evenodd" clip-rule="evenodd" d="M819.603 747.531L819.603 949.693L802.198 949.693L802.198 747.531L819.603 747.531Z" fill="#FDDA24"/>
</g>
<path fill-rule="evenodd" clip-rule="evenodd" d="M928.171 670.866C922.296 671.686 913.918 675.446 904.318 685.046C896.823 692.541 891.619 706.876 888.622 722.338C888.186 724.59 887.811 726.784 887.49 728.885C889.59 728.563 891.785 728.189 894.036 727.752C909.498 724.756 923.834 719.551 931.328 712.056C940.928 702.456 944.689 694.079 945.509 688.204C946.256 682.844 944.776 678.639 941.256 675.118C937.736 671.598 933.53 670.118 928.171 670.866ZM885.657 746.721C903.08 744.457 929.26 738.738 943.635 724.363C966.469 701.529 968.455 677.703 953.563 662.811C938.672 647.92 914.845 649.905 892.012 672.739C877.636 687.114 871.918 713.294 869.654 730.718C868.321 740.969 868.185 748.189 868.185 748.189C868.185 748.189 875.405 748.053 885.657 746.721Z" fill="#FDDA24"/>
<path fill-rule="evenodd" clip-rule="evenodd" d="M809.221 670.866C815.096 671.686 823.473 675.446 833.073 685.046C840.568 692.541 845.773 706.876 848.769 722.338C849.206 724.59 849.58 726.784 849.902 728.885C847.801 728.563 845.607 728.189 843.355 727.752C827.893 724.756 813.558 719.551 806.063 712.056C796.463 702.456 792.703 694.079 791.883 688.204C791.135 682.844 792.615 678.639 796.135 675.118C799.656 671.598 803.861 670.118 809.221 670.866ZM851.735 746.721C834.311 744.457 808.131 738.738 793.756 724.363C770.923 701.529 768.937 677.703 783.829 662.811C798.72 647.92 822.546 649.905 845.38 672.739C859.755 687.114 865.474 713.294 867.738 730.718C869.07 740.969 869.206 748.189 869.206 748.189C869.206 748.189 861.986 748.053 851.735 746.721Z" fill="#FDDA24"/>
<path d="M324.946 742.846L209.138 809.787V942.999L324.946 876.728V742.846Z" fill="#9063CD"/>
<path d="M94 742.846L209.808 809.787V942.999L94 876.728V742.846Z" fill="#FF7F41"/>
<path d="M209.138 676.574L324.946 742.846L209.808 809.787L94 742.846L209.138 676.574Z" fill="#59CBE8"/>
<mask id="mask3" mask-type="alpha" maskUnits="userSpaceOnUse" x="94" y="676" width="231" height="134">
<path d="M209.138 676.574L324.946 742.845L209.808 809.786L94 742.845L209.138 676.574Z" fill="#59CBE8"/>
</mask>
<g mask="url(#mask3)">
<path fill-rule="evenodd" clip-rule="evenodd" d="M139.86 790.855L221.857 743.514L213.154 728.441L131.158 775.782L139.86 790.855Z" fill="#FDDA24"/>
<path fill-rule="evenodd" clip-rule="evenodd" d="M194.348 743.514L334.317 824.325L343.02 809.252L203.051 728.441L194.348 743.514Z" fill="#FDDA24"/>
</g>
<mask id="mask4" mask-type="alpha" maskUnits="userSpaceOnUse" x="94" y="742" width="116" height="201">
<path d="M94.002 742.846L209.81 809.787V943L94.002 876.728V742.846Z" fill="#FF7F41"/>
</mask>
<g mask="url(#mask4)">
<path fill-rule="evenodd" clip-rule="evenodd" d="M141.529 747.532L141.529 949.694L158.934 949.694L158.934 747.532L141.529 747.532Z" fill="#FDDA24"/>
</g>
<mask id="mask5" mask-type="alpha" maskUnits="userSpaceOnUse" x="209" y="742" width="116" height="201">
<path d="M324.946 742.846L209.138 809.787V942.999L324.946 876.728V742.846Z" fill="#9063CD"/>
</mask>
<g mask="url(#mask5)">
<path fill-rule="evenodd" clip-rule="evenodd" d="M259.343 747.531L259.343 949.693L276.748 949.693L276.748 747.531L259.343 747.531Z" fill="#FDDA24"/>
</g>
<path fill-rule="evenodd" clip-rule="evenodd" d="M150.775 670.866C156.651 671.686 165.028 675.446 174.628 685.046C182.123 692.541 187.327 706.876 190.324 722.338C190.76 724.59 191.135 726.784 191.457 728.885C189.356 728.563 187.162 728.189 184.91 727.752C169.448 724.756 155.113 719.551 147.618 712.056C138.018 702.456 134.258 694.079 133.438 688.204C132.69 682.844 134.17 678.639 137.69 675.118C141.21 671.598 145.416 670.118 150.775 670.866ZM193.289 746.721C175.866 744.457 149.686 738.738 135.311 724.363C112.477 701.529 110.492 677.703 125.383 662.811C140.275 647.92 164.101 649.905 186.935 672.739C201.31 687.114 207.029 713.294 209.293 730.718C210.625 740.969 210.761 748.189 210.761 748.189C210.761 748.189 203.541 748.053 193.289 746.721Z" fill="#FDDA24"/>
<path fill-rule="evenodd" clip-rule="evenodd" d="M269.726 670.866C263.85 671.686 255.473 675.446 245.873 685.046C238.378 692.541 233.174 706.876 230.177 722.338C229.741 724.59 229.366 726.784 229.044 728.885C231.145 728.563 233.339 728.189 235.591 727.752C251.053 724.756 265.388 719.551 272.883 712.056C282.483 702.456 286.243 694.079 287.063 688.204C287.811 682.844 286.331 678.639 282.811 675.118C279.291 671.598 275.085 670.118 269.726 670.866ZM227.212 746.721C244.635 744.457 270.815 738.738 285.19 724.363C308.024 701.529 310.009 677.703 295.118 662.811C280.226 647.92 256.4 649.905 233.566 672.739C219.191 687.114 213.472 713.294 211.208 730.718C209.876 740.969 209.74 748.189 209.74 748.189C209.74 748.189 216.96 748.053 227.212 746.721Z" fill="#FDDA24"/>
</svg>
