<svg width="1080" height="1080" viewBox="0 0 1080 1080" fill="none" xmlns="http://www.w3.org/2000/svg">
<path d="M387.298 662.8C319.298 662.8 263.898 607.4 263.898 539.4C263.898 471.4 319.298 416 387.298 416C394.798 416 400.798 422 400.798 429.5C400.798 437 394.798 443 387.298 443C334.198 443 290.898 486.2 290.898 539.4C290.898 592.5 334.098 635.8 387.298 635.8C440.498 635.8 483.698 592.6 483.698 539.4C483.698 509.3 469.998 481.4 446.098 463C440.198 458.4 439.098 450 443.698 444.1C448.298 438.2 456.698 437.1 462.598 441.7C493.198 465.3 510.698 500.9 510.698 539.5C510.698 607.5 455.298 662.8 387.298 662.8Z" fill="#FF7F41"/>
<path d="M936 886.898H144V896.598H936V886.898Z" fill="#00C389"/>
<path d="M698.001 943.198H557.301L559.601 604.398H727.801L698.001 943.198Z" fill="#F5B6CD"/>
<path d="M558.501 758.398H340.801L332.301 604.398H559.601L558.501 758.398Z" fill="#FF7F41"/>
<path d="M557.299 943.199H371.399L361.199 759.199H558.499L557.299 943.199Z" fill="#FF7F41"/>
<path d="M645.9 898.3L612 898.2L612.3 830.5L649.6 830.6L645.9 898.3Z" fill="#2C2A29"/>
<path d="M656.502 743.498L612.602 743.298L613.002 662.898L662.702 663.198L656.502 743.498Z" fill="#2C2A29"/>
<path d="M449.3 898.302H385.6L381.5 830.602H449.3V898.302Z" fill="#2C2A29"/>
<path d="M764.598 604.401H309.398L313.498 577.801H772.298L764.598 604.401Z" fill="#DFDFDF"/>
<path d="M531.299 830.602H471.699V943.302H531.299V830.602Z" fill="#2C2A29"/>
<path d="M475.098 758.4H531.598L531.398 641H472.898L475.098 758.4Z" fill="#2C2A29"/>
<path d="M389.798 758.4H446.198L442.898 641H384.398L389.798 758.4Z" fill="#2C2A29"/>
<path d="M705.302 480.099C747.662 480.099 782.002 445.759 782.002 403.399C782.002 361.039 747.662 326.699 705.302 326.699C662.941 326.699 628.602 361.039 628.602 403.399C628.602 445.759 662.941 480.099 705.302 480.099Z" fill="#FDDA24"/>
<path d="M514.501 486.301C498.901 486.301 486.301 473.701 486.301 458.101V260.001C486.301 244.401 498.901 231.801 514.501 231.801C530.101 231.801 542.701 244.401 542.701 260.001V458.101C542.701 473.701 530.101 486.301 514.501 486.301Z" fill="#D79F6F"/>
<path d="M537.3 479.898H400V547.398H537.3V479.898Z" fill="#FF7F41"/>
<path d="M489 540.599C472.1 540.599 458.5 526.899 458.5 510.099V253.699C458.5 236.799 472.2 223.199 489 223.199C505.9 223.199 519.5 236.899 519.5 253.699V510.099C519.5 526.999 505.9 540.599 489 540.599Z" fill="#E4AC7B"/>
<path d="M444.301 427.399C427.401 427.399 413.801 413.699 413.801 396.899V198.699C413.801 181.799 427.501 168.199 444.301 168.199C461.101 168.199 474.801 181.899 474.801 198.699V396.799C474.901 413.799 461.201 427.399 444.301 427.399Z" fill="#E4AC7B"/>
<path d="M401.102 411.302C384.202 411.302 370.602 397.602 370.602 380.802V182.602C370.602 165.702 384.302 152.102 401.102 152.102C418.002 152.102 431.602 165.802 431.602 182.602V380.702C431.602 397.602 417.902 411.302 401.102 411.302Z" fill="#E4AC7B"/>
<path d="M355.801 395.2C338.901 395.2 325.301 381.5 325.301 364.7V166.5C325.301 149.6 339.001 136 355.801 136C372.601 136 386.301 149.7 386.301 166.5V364.6C386.301 381.5 372.601 395.2 355.801 395.2Z" fill="#E4AC7B"/>
<path d="M542.602 181.301H323.602V255.801H542.602V181.301Z" fill="#59CBE8"/>
<path d="M564.201 782.298H327.401L325.801 758.398H564.401L564.201 782.298Z" fill="#DFDFDF"/>
</svg>
