<svg width="1080" height="1080" viewBox="0 0 1080 1080" fill="none" xmlns="http://www.w3.org/2000/svg">
<g clip-path="url(#clip0)">
<path d="M940 623C912.386 623 890 600.614 890 573C890 545.386 912.386 523 940 523C967.614 523 990 545.386 990 573C990 600.614 967.614 623 940 623Z" fill="#FDDA24"/>
<path d="M939.254 600.612C923.592 600.612 910.895 587.916 910.895 572.254C910.895 556.592 923.592 543.896 939.254 543.896C954.915 543.896 967.612 556.592 967.612 572.254C967.612 587.916 954.915 600.612 939.254 600.612Z" fill="#FF7F41"/>
<path d="M117 623C89.3857 623 67 600.614 67 573C67 545.386 89.3857 523 117 523C144.614 523 167 545.386 167 573C167 600.614 144.614 623 117 623Z" fill="#FDDA24"/>
<path d="M116.254 600.612C100.592 600.612 87.8959 587.916 87.8959 572.254C87.8959 556.592 100.592 543.896 116.254 543.896C131.916 543.896 144.612 556.592 144.612 572.254C144.612 587.916 131.916 600.612 116.254 600.612Z" fill="#FF7F41"/>
<path d="M704.072 512.773C703.715 497.91 715.474 485.572 730.337 485.215C744.95 484.864 757.08 496.426 757.431 511.038L762.56 724.626L709.19 725.908L704.072 512.773Z" fill="#B28038"/>
<path d="M349.489 512.773C349.845 497.91 338.086 485.572 323.223 485.215C308.611 484.864 296.48 496.426 296.129 511.038L291 724.626L344.37 725.908L349.489 512.773Z" fill="#B28038"/>
<path d="M584.053 739.237H709.275V992.891H584.053V739.237Z" fill="#E4AC7B"/>
<path d="M468.464 739.237H343.242V992.891H468.464V739.237Z" fill="#E4AC7B"/>
<path d="M322 465.298L528.021 584.385V821.368L322 703.472V465.298Z" fill="#9063CD"/>
<path d="M732.85 465.298L526.829 584.385V821.368L732.85 703.472V465.298Z" fill="#FF7F41"/>
<path d="M528.02 347.403L322 465.299L526.829 584.386L732.85 465.299L528.02 347.403Z" fill="#59CBE8"/>
<mask id="mask0" mask-type="alpha" maskUnits="userSpaceOnUse" x="322" y="347" width="411" height="238">
<path d="M528.021 347.402L322.001 465.298L526.83 584.385L732.85 465.298L528.021 347.402Z" fill="#59CBE8"/>
</mask>
<g mask="url(#mask0)">
<path fill-rule="evenodd" clip-rule="evenodd" d="M651.264 550.707L505.394 466.489L520.875 439.675L666.746 523.893L651.264 550.707Z" fill="#FDDA24"/>
<path fill-rule="evenodd" clip-rule="evenodd" d="M554.331 466.489L305.328 610.25L289.847 583.436L538.85 439.674L554.331 466.489Z" fill="#FDDA24"/>
</g>
<mask id="mask1" mask-type="alpha" maskUnits="userSpaceOnUse" x="526" y="465" width="207" height="357">
<path d="M732.85 465.299L526.83 584.386V821.369L732.85 703.473V465.299Z" fill="#FF7F41"/>
</mask>
<g mask="url(#mask1)">
<path fill-rule="evenodd" clip-rule="evenodd" d="M648.298 473.635L648.298 833.277L617.335 833.277L617.335 473.635L648.298 473.635Z" fill="#FDDA24"/>
</g>
<mask id="mask2" mask-type="alpha" maskUnits="userSpaceOnUse" x="322" y="465" width="207" height="357">
<path d="M322 465.298L528.021 584.385V821.368L322 703.472V465.298Z" fill="#9063CD"/>
</mask>
<g mask="url(#mask2)">
<path fill-rule="evenodd" clip-rule="evenodd" d="M438.706 473.634L438.706 833.276L407.743 833.276L407.743 473.634L438.706 473.634Z" fill="#FDDA24"/>
</g>
<path fill-rule="evenodd" clip-rule="evenodd" d="M631.846 337.248C621.394 338.706 606.491 345.396 589.413 362.474C576.079 375.807 566.821 401.309 561.49 428.816C560.714 432.822 560.047 436.726 559.475 440.463C563.212 439.89 567.115 439.224 571.121 438.447C598.628 433.116 624.13 423.858 637.463 410.524C654.541 393.446 661.231 378.544 662.689 368.091C664.02 358.557 661.387 351.075 655.124 344.813C648.862 338.551 641.38 335.917 631.846 337.248ZM556.214 472.193C587.21 468.165 633.784 457.992 659.357 432.418C699.978 391.797 703.51 349.411 677.018 322.919C650.526 296.427 608.14 299.959 567.519 340.58C541.946 366.154 531.772 412.727 527.745 443.723C525.375 461.961 525.132 474.805 525.132 474.805C525.132 474.805 537.977 474.563 556.214 472.193Z" fill="#FDDA24"/>
<path fill-rule="evenodd" clip-rule="evenodd" d="M420.238 337.248C430.69 338.706 445.593 345.396 462.671 362.474C476.004 375.807 485.263 401.309 490.594 428.816C491.37 432.822 492.037 436.726 492.609 440.463C488.872 439.89 484.968 439.224 480.962 438.447C453.456 433.116 427.954 423.858 414.62 410.524C397.542 393.446 390.853 378.544 389.394 368.091C388.064 358.557 390.697 351.075 396.959 344.813C403.221 338.551 410.703 335.917 420.238 337.248ZM495.869 472.193C464.874 468.165 418.3 457.992 392.726 432.418C352.106 391.797 348.574 349.411 375.065 322.919C401.557 296.427 443.944 299.959 484.564 340.58C510.138 366.154 520.311 412.727 524.339 443.723C526.709 461.961 526.951 474.805 526.951 474.805C526.951 474.805 514.107 474.563 495.869 472.193Z" fill="#FDDA24"/>
<path d="M751.605 762.911C738.699 779.419 722.263 793.135 703.413 802.947C699.188 805.134 695.118 808.186 691.228 811.757C686.708 815.885 682.427 820.703 678.638 825.545C672.836 821.217 667.777 816.101 663.636 810.424L651.042 752.929C652.248 747.192 654.149 741.505 656.832 735.982C667.48 714.065 687.698 699.96 710 696.207C717.126 694.999 718.737 694.345 726.004 695.36L739.504 667.572L739.481 604.759C737.116 584.927 751.278 567.017 771.051 564.624C771.889 564.527 772.671 564.692 773.369 565.031C774.589 565.624 775.528 566.798 775.661 568.3L782.151 622.83L787.917 669.679C789.286 680.763 787.651 691.968 783.23 702.252L777.57 715.382L775.908 719.245L775.852 719.362L771.261 729.994C766.02 741.818 759.411 752.907 751.605 762.911Z" fill="#E4AC7B"/>
<path d="M300.6 762.911C313.506 779.419 329.942 793.135 348.793 802.947C353.017 805.134 357.087 808.186 360.977 811.757C365.497 815.885 369.778 820.703 373.567 825.545C379.369 821.217 384.428 816.101 388.569 810.424L401.163 752.929C399.957 747.192 398.056 741.505 395.373 735.982C384.725 714.065 364.507 699.96 342.206 696.207C335.079 694.999 333.468 694.345 326.201 695.36L312.701 667.572L312.724 604.759C315.089 584.927 300.927 567.017 281.154 564.624C280.316 564.527 279.534 564.692 278.837 565.031C277.616 565.624 276.677 566.798 276.545 568.3L270.055 622.83L264.288 669.679C262.919 680.763 264.554 691.968 268.975 702.252L274.635 715.382L276.297 719.245L276.353 719.362L280.944 729.994C286.185 741.818 292.794 752.907 300.6 762.911Z" fill="#E4AC7B"/>
<path d="M430.35 156.511C430.35 165.695 426.578 172.665 419.034 177.421C411.49 182.177 401.568 184.637 389.268 184.801V204.481C393.204 204.809 397.263 205.588 401.445 206.818C401.445 208.622 400.953 210.016 399.969 211H367.743C367.169 210.672 366.677 210.18 366.267 209.524C365.939 208.786 365.775 208.089 365.775 207.433C368.645 205.465 371.556 204.03 374.508 203.128V140.152C370.982 139.332 367.907 138.471 365.283 137.569C365.283 136.339 365.406 135.355 365.652 134.617C365.898 133.797 366.267 132.977 366.759 132.157C369.875 131.255 373.647 130.558 378.075 130.066C382.585 129.492 387.423 129.205 392.589 129.205C404.233 129.205 413.417 131.214 420.141 135.232C426.947 139.168 430.35 146.261 430.35 156.511ZM395.91 134.125C393.204 134.125 390.99 134.371 389.268 134.863V177.913C390.498 178.487 391.646 178.856 392.712 179.02C393.86 179.184 395.295 179.266 397.017 179.266C402.429 179.266 406.775 177.462 410.055 173.854C413.335 170.246 414.975 165.572 414.975 159.832C414.975 153.928 414.032 149.049 412.146 145.195C410.26 141.341 407.882 138.553 405.012 136.831C402.142 135.027 399.108 134.125 395.91 134.125Z" fill="#2C2A29"/>
<path d="M492.493 203.005C492.821 203.989 492.985 205.096 492.985 206.326C490.689 208.212 488.229 209.688 485.605 210.754C482.981 211.738 481.013 212.23 479.701 212.23C478.717 212.23 477.282 211.246 475.396 209.278C473.51 207.228 472.034 205.096 470.968 202.882C468.672 205.506 465.802 207.72 462.358 209.524C458.914 211.328 455.224 212.23 451.288 212.23C448.664 212.23 446.04 211.697 443.416 210.631C440.792 209.483 438.578 207.679 436.774 205.219C434.97 202.677 434.068 199.438 434.068 195.502C434.068 188.45 437.348 183.366 443.908 180.25C450.468 177.052 459.119 175.33 469.861 175.084V167.704C469.861 158.192 466.048 153.436 458.422 153.436C455.142 153.436 452.477 154.994 450.427 158.11C448.377 161.144 446.737 165.449 445.507 171.025C445.015 171.517 444.236 171.845 443.17 172.009C441.12 171.025 439.48 169.59 438.25 167.704C437.102 165.818 436.528 163.85 436.528 161.8C436.528 158.766 437.143 156.47 438.373 154.912C444.031 150.648 450.55 148.516 457.93 148.516C467.032 148.516 473.715 150.402 477.979 154.174C482.243 157.946 484.375 164.014 484.375 172.378V199.069C486.671 200.299 489.377 201.611 492.493 203.005ZM457.684 203.251C461.784 203.251 465.843 201.816 469.861 198.946V180.742H465.802C459.734 180.742 455.224 181.931 452.272 184.309C449.32 186.605 447.844 189.434 447.844 192.796C447.844 195.748 448.664 198.249 450.304 200.299C451.944 202.267 454.404 203.251 457.684 203.251Z" fill="#2C2A29"/>
<path d="M529.241 164.629C526.043 164.629 523.296 165.203 521 166.351V204.604C526.494 205.096 530.799 205.834 533.915 206.818C533.915 208.622 533.423 210.016 532.439 211H499.352C498.778 210.672 498.286 210.18 497.876 209.524C497.548 208.786 497.384 208.089 497.384 207.433C500.5 205.465 503.534 203.948 506.486 202.882V161.8C503.534 160.242 500.828 158.93 498.368 157.864C498.04 156.88 497.876 155.773 497.876 154.543C500.172 152.657 502.632 151.181 505.256 150.115C507.962 149.049 509.93 148.516 511.16 148.516C511.898 148.516 512.964 149.213 514.358 150.607C515.752 151.919 517.064 153.6 518.294 155.65C519.524 157.618 520.344 159.463 520.754 161.185C523.214 157.249 526.289 154.174 529.979 151.96C533.669 149.664 537.154 148.516 540.434 148.516C541.664 150.566 542.279 153.395 542.279 157.003C542.279 158.397 542.074 160.16 541.664 162.292C541.336 164.342 540.926 165.736 540.434 166.474C537.564 165.244 533.833 164.629 529.241 164.629Z" fill="#2C2A29"/>
<path d="M605.044 203.005C605.372 203.989 605.536 205.096 605.536 206.326C603.24 208.212 600.78 209.688 598.156 210.754C595.532 211.738 593.564 212.23 592.252 212.23C591.268 212.23 589.833 211.246 587.947 209.278C586.061 207.228 584.585 205.096 583.519 202.882C581.223 205.506 578.353 207.72 574.909 209.524C571.465 211.328 567.775 212.23 563.839 212.23C561.215 212.23 558.591 211.697 555.967 210.631C553.343 209.483 551.129 207.679 549.325 205.219C547.521 202.677 546.619 199.438 546.619 195.502C546.619 188.45 549.899 183.366 556.459 180.25C563.019 177.052 571.67 175.33 582.412 175.084V167.704C582.412 158.192 578.599 153.436 570.973 153.436C567.693 153.436 565.028 154.994 562.978 158.11C560.928 161.144 559.288 165.449 558.058 171.025C557.566 171.517 556.787 171.845 555.721 172.009C553.671 171.025 552.031 169.59 550.801 167.704C549.653 165.818 549.079 163.85 549.079 161.8C549.079 158.766 549.694 156.47 550.924 154.912C556.582 150.648 563.101 148.516 570.481 148.516C579.583 148.516 586.266 150.402 590.53 154.174C594.794 157.946 596.926 164.014 596.926 172.378V199.069C599.222 200.299 601.928 201.611 605.044 203.005ZM570.235 203.251C574.335 203.251 578.394 201.816 582.412 198.946V180.742H578.353C572.285 180.742 567.775 181.931 564.823 184.309C561.871 186.605 560.395 189.434 560.395 192.796C560.395 195.748 561.215 198.249 562.855 200.299C564.495 202.267 566.955 203.251 570.235 203.251Z" fill="#2C2A29"/>
<path d="M667.51 203.374C670.298 203.374 672.84 202.841 675.136 201.775C675.546 202.267 675.833 203.128 675.997 204.358C676.243 205.506 676.366 206.572 676.366 207.556C675.218 208.704 673.004 209.77 669.724 210.754C666.444 211.738 663.082 212.23 659.638 212.23C647.83 212.23 641.926 206.244 641.926 194.272V158.11H632.086C632.086 156.224 633.562 153.395 636.514 149.623C639.466 145.769 642.828 142.325 646.6 139.291C650.454 136.257 653.734 134.74 656.44 134.74V151.468C661.688 150.156 666.895 149.5 672.061 149.5C675.751 149.5 677.596 150.279 677.596 151.837C677.596 152.739 677.391 153.805 676.981 155.035C676.653 156.265 676.243 157.29 675.751 158.11H656.44V193.78C656.44 197.306 657.301 199.807 659.023 201.283C660.827 202.677 663.656 203.374 667.51 203.374Z" fill="#2C2A29"/>
<path d="M699.922 139.414C697.462 139.414 695.371 138.594 693.649 136.954C691.927 135.232 691.066 133.182 691.066 130.804C691.066 128.426 691.927 126.376 693.649 124.654C695.371 122.932 697.462 122.071 699.922 122.071C702.382 122.071 704.473 122.932 706.195 124.654C707.999 126.294 708.901 128.344 708.901 130.804C708.901 133.182 707.999 135.232 706.195 136.954C704.473 138.594 702.382 139.414 699.922 139.414ZM707.179 204.727C710.623 205.055 713.944 205.752 717.142 206.818C717.142 208.622 716.65 210.016 715.666 211H685.777C685.203 210.672 684.711 210.18 684.301 209.524C683.973 208.786 683.809 208.089 683.809 207.433C686.843 205.547 689.795 204.071 692.665 203.005V163.522C688.729 161.554 686.146 160.365 684.916 159.955C684.752 159.955 684.547 159.668 684.301 159.094C684.137 158.438 684.055 157.741 684.055 157.003C686.679 154.789 690.287 152.821 694.879 151.099C699.553 149.377 703.653 148.516 707.179 148.516V204.727Z" fill="#2C2A29"/>
<path fill-rule="evenodd" clip-rule="evenodd" d="M804 169C804 163.477 808.477 159 814 159H864C869.523 159 874 163.477 874 169C874 174.523 869.523 179 864 179H814C808.477 179 804 174.523 804 169Z" fill="#FDDA24"/>
<path fill-rule="evenodd" clip-rule="evenodd" d="M275 169C275 163.477 270.523 159 265 159H215C209.477 159 205 163.477 205 169C205 174.523 209.477 179 215 179H265C270.523 179 275 174.523 275 169Z" fill="#FDDA24"/>
<path fill-rule="evenodd" clip-rule="evenodd" d="M796.929 115.426C793.024 111.521 793.024 105.19 796.929 101.284L832.284 65.929C836.19 62.0238 842.521 62.0238 846.426 65.929C850.332 69.8342 850.332 76.1659 846.426 80.0711L811.071 115.426C807.166 119.332 800.834 119.332 796.929 115.426Z" fill="#FDDA24"/>
<path fill-rule="evenodd" clip-rule="evenodd" d="M282.071 115.427C285.976 111.521 285.976 105.19 282.071 101.284L246.716 65.9291C242.81 62.0238 236.479 62.0239 232.574 65.9291C228.668 69.8343 228.668 76.166 232.574 80.0712L267.929 115.427C271.834 119.332 278.166 119.332 282.071 115.427Z" fill="#FDDA24"/>
<path fill-rule="evenodd" clip-rule="evenodd" d="M802.071 228.929C805.976 225.024 812.308 225.024 816.213 228.929L851.568 264.284C855.474 268.189 855.474 274.521 851.568 278.426C847.663 282.332 841.332 282.332 837.426 278.426L802.071 243.071C798.166 239.166 798.166 232.834 802.071 228.929Z" fill="#FDDA24"/>
<path fill-rule="evenodd" clip-rule="evenodd" d="M276.929 228.929C273.024 225.024 266.692 225.024 262.787 228.929L227.432 264.284C223.526 268.19 223.526 274.521 227.432 278.426C231.337 282.332 237.668 282.332 241.574 278.426L276.929 243.071C280.834 239.166 280.834 232.834 276.929 228.929Z" fill="#FDDA24"/>
<path d="M399.643 1016.08C396.374 1017.98 392.715 1019.09 388.947 1019.34C385.179 1019.59 381.403 1018.98 377.912 1017.54C324.785 995.582 276.681 963.047 236.527 921.911C216.546 901.324 198.732 878.74 183.365 854.514C168.04 830.32 155.194 804.642 145.02 777.871C142.745 771.769 142.977 765.016 145.664 759.085C148.351 753.154 153.275 748.527 159.362 746.213C165.448 743.9 172.203 744.089 178.151 746.738C184.099 749.387 188.758 754.282 191.11 760.354C200.094 784.024 211.443 806.726 224.986 828.117C238.541 849.484 254.252 869.404 271.874 887.563C307.321 923.876 349.789 952.593 396.692 971.964C400.95 973.718 404.631 976.629 407.319 980.368C410.007 984.106 411.594 988.523 411.9 993.117C412.207 997.712 411.221 1002.3 409.054 1006.36C406.886 1010.43 403.625 1013.8 399.638 1016.1L399.643 1016.08Z" fill="#F5B6CD"/>
<path d="M721.694 980.765C721.346 980.965 721.004 981.163 720.657 981.363C700.046 992.022 678.549 1000.87 656.409 1007.82C645.391 1011.28 634.113 1014.28 622.888 1016.76C612.072 1019.16 600.513 1021.17 588.609 1022.72C565.564 1025.7 542.302 1026.62 519.095 1025.49C472.675 1023.23 427.012 1012.84 384.18 994.803C373.526 990.324 362.951 985.335 352.742 979.965C342.672 974.668 332.572 968.754 322.701 962.391C283.592 937.21 249.247 905.306 221.257 868.155C217.314 862.939 215.604 856.37 216.504 849.893C217.404 843.416 220.84 837.562 226.056 833.619C231.272 829.675 237.841 827.966 244.318 828.865C250.795 829.765 256.649 833.201 260.592 838.417C285.102 870.943 315.18 898.871 349.43 920.907C358.078 926.488 366.918 931.657 375.697 936.284C384.642 940.985 393.945 945.35 403.264 949.291C440.812 965.097 480.842 974.195 521.534 976.17C541.822 977.166 562.159 976.369 582.307 973.788C592.722 972.443 602.798 970.693 612.216 968.606C622.095 966.417 632.006 963.777 641.695 960.737C661.121 954.634 679.982 946.86 698.067 937.503C703.807 934.368 710.557 933.64 716.833 935.481C723.108 937.323 728.396 941.581 731.532 947.321C734.667 953.061 735.395 959.811 733.554 966.087C731.712 972.362 727.454 977.65 721.714 980.786L721.694 980.765Z" fill="#00C389"/>
<path d="M744.365 987.061L744.274 987.113C735.01 992.397 725.295 997.477 715.405 1002.21C706.041 1006.66 696.225 1010.84 685.397 1015.04C644.557 1030.69 601.481 1039.73 557.794 1041.81C553.176 1041.96 548.686 1040.28 545.292 1037.15C541.899 1034.01 539.873 1029.67 539.652 1025.05C539.432 1020.44 541.034 1015.92 544.113 1012.48C547.191 1009.03 551.501 1006.93 556.112 1006.64C596.048 1004.73 635.426 996.47 672.76 982.163C682.735 978.307 691.737 974.459 700.264 970.407C709.342 966.069 718.282 961.395 726.792 956.539C735.436 951.548 743.962 946.17 752.151 940.588C759.906 935.298 767.753 929.449 776.12 922.683C807.184 897.577 834.027 867.66 855.632 834.067L857.126 831.725C858.003 830.356 858.841 829.059 859.592 827.812L863.812 820.821C866.29 816.519 868.631 812.459 870.819 808.333L870.865 808.257C875.777 799.085 880.202 790.04 884.008 781.376C892.039 763.109 898.626 744.239 903.708 724.942C904.293 722.705 905.312 720.604 906.708 718.761C908.104 716.917 909.85 715.367 911.845 714.198C913.84 713.029 916.047 712.264 918.337 711.948C920.628 711.631 922.959 711.769 925.196 712.353C927.434 712.938 929.534 713.957 931.378 715.353C933.222 716.749 934.772 718.495 935.941 720.49C937.11 722.485 937.875 724.691 938.191 726.982C938.508 729.273 938.37 731.604 937.785 733.841C932.233 754.93 925.037 775.551 916.263 795.516C912.087 805.019 907.267 814.886 901.926 824.851C899.449 829.534 896.836 834.053 894.309 838.424L893.78 839.339L889.726 846.039C888.73 847.696 887.732 849.248 886.756 850.755L885.36 852.944L885.288 853.059C861.64 889.847 832.248 922.606 798.231 950.089C789.085 957.451 780.513 963.848 771.973 969.666C763.058 975.78 753.765 981.618 744.365 987.061Z" fill="#59CBE8"/>
</g>
<defs>
<clipPath id="clip0">
<rect width="1080" height="1080" fill="white"/>
</clipPath>
</defs>
</svg>
