<svg width="1080" height="1080" viewBox="0 0 1080 1080" fill="none" xmlns="http://www.w3.org/2000/svg">
<path d="M311.801 532.499C309.301 532.499 306.701 531.999 304.101 531.099C271.401 518.599 241.201 498.499 216.901 473.099C192.501 447.599 173.901 416.399 162.901 383.099C159.201 371.799 165.301 359.699 176.601 355.999C187.901 352.299 200.001 358.399 203.701 369.699C212.701 396.999 228.001 422.499 247.901 443.399C267.801 464.299 292.501 480.699 319.401 490.899C330.501 495.099 336.001 507.499 331.801 518.599C328.601 527.199 320.501 532.499 311.801 532.499Z" fill="#F5B6CD"/>
<path d="M291.002 543.1C288.902 543.1 286.802 542.7 284.702 541.9C240.902 525.2 203.402 496 176.402 457.4C148.702 418 134.102 371.6 134.102 323.2C134.102 288.2 141.702 254.5 156.602 223C160.802 214.1 171.402 210.4 180.302 214.6C189.202 218.8 192.902 229.4 188.702 238.3C176.102 264.9 169.702 293.5 169.702 323.3C169.702 364.3 182.102 403.7 205.502 437.1C228.402 469.8 260.202 494.6 297.402 508.8C306.602 512.3 311.202 522.6 307.702 531.7C304.902 538.7 298.202 543.1 291.002 543.1Z" fill="#FDDA24"/>
<path d="M883.603 654.6L837.903 642.8C831.903 641.3 827.203 636.7 825.503 630.8C821.103 615.4 814.903 600.7 807.303 586.9C804.303 581.5 804.403 574.9 807.503 569.6L831.503 528.9C835.503 522.1 834.403 513.4 828.803 507.8L803.303 482.3C797.703 476.7 789.003 475.6 782.203 479.6L741.503 503.6C736.203 506.7 729.603 506.8 724.203 503.8C710.403 496.2 695.703 490 680.303 485.6C674.403 483.9 669.803 479.2 668.303 473.2L656.503 427.5C654.503 419.8 647.603 414.5 639.703 414.5H603.603C595.703 414.5 588.803 419.9 586.803 427.5L575.003 473.2C573.503 479.2 568.903 483.9 563.003 485.6C547.603 490 532.903 496.2 519.103 503.8C513.703 506.8 507.103 506.7 501.803 503.6L461.103 479.6C454.303 475.6 445.603 476.7 440.003 482.3L414.503 507.8C408.903 513.4 407.803 522.1 411.803 528.9L435.803 569.6C438.903 574.9 439.003 581.5 436.003 586.9C428.403 600.7 422.203 615.4 417.803 630.8C416.103 636.7 411.403 641.3 405.403 642.8L359.703 654.6C352.003 656.6 346.703 663.5 346.703 671.4V707.5C346.703 715.4 352.103 722.3 359.703 724.3L405.403 736.1C411.403 737.6 416.103 742.2 417.803 748.1C422.203 763.5 428.403 778.2 436.003 792C439.003 797.4 438.903 804 435.803 809.3L411.803 850C407.803 856.8 408.903 865.5 414.503 871.1L440.003 896.6C445.603 902.2 454.303 903.3 461.103 899.3L501.803 875.3C507.103 872.2 513.703 872.1 519.103 875.1C532.903 882.7 547.603 888.9 563.003 893.3C568.903 895 573.503 899.7 575.003 905.7L586.803 951.4C588.803 959.1 595.703 964.4 603.603 964.4H639.703C647.603 964.4 654.503 959 656.503 951.4L668.303 905.7C669.803 899.7 674.403 895 680.303 893.3C695.703 888.9 710.403 882.7 724.203 875.1C729.603 872.1 736.203 872.2 741.503 875.3L782.203 899.3C789.003 903.3 797.703 902.2 803.303 896.6L828.803 871.1C834.403 865.5 835.503 856.8 831.503 850L807.503 809.3C804.403 804 804.303 797.4 807.303 792C814.903 778.2 821.103 763.5 825.503 748.1C827.203 742.2 831.903 737.6 837.903 736.1L883.603 724.3C891.303 722.3 896.603 715.4 896.603 707.5V671.4C896.603 663.5 891.203 656.5 883.603 654.6ZM621.803 830.3C544.003 830.3 481.003 767.2 481.003 689.4C481.003 611.6 544.103 548.5 621.903 548.5C699.703 548.5 762.803 611.6 762.803 689.4C762.703 767.2 699.603 830.3 621.803 830.3Z" fill="#59CBE8"/>
<path d="M868.703 880.3C863.703 880.3 858.703 878.4 854.903 874.6C847.203 867 847.103 854.5 854.803 846.8C932.103 768.7 911.503 639.5 911.303 638.2C909.503 627.5 916.703 617.4 927.403 615.6C938.103 613.8 948.203 621 950.003 631.7C950.303 633.2 956.203 669.8 951.203 717.6C944.403 781.8 920.703 836.1 882.703 874.5C878.803 878.3 873.703 880.3 868.703 880.3Z" fill="#00C389"/>
<path d="M521.502 363.3C518.102 375.3 513.302 386.8 507.302 397.5C505.402 400.9 505.602 405.2 507.902 408.5L530.402 440.8C533.302 444.9 532.802 450.5 529.202 454.1L503.902 479.3C500.302 482.9 494.702 483.3 490.602 480.4L458.402 457.8C455.202 455.5 450.902 455.3 447.402 457.2C436.702 463.2 425.202 468 413.202 471.3C409.402 472.4 406.602 475.6 405.902 479.4L399.002 518.1C398.102 523.1 393.802 526.7 388.802 526.7L353.102 526.6C348.102 526.6 343.802 523 342.902 518L336.102 479.3C335.402 475.4 332.602 472.2 328.802 471.1C316.802 467.7 305.302 462.9 294.602 456.9C291.202 455 286.902 455.2 283.602 457.5L251.302 480C247.202 482.9 241.602 482.4 238.002 478.8L212.802 453.5C209.202 449.9 208.802 444.3 211.702 440.2L234.302 408C236.602 404.8 236.802 400.5 234.902 397C228.902 386.3 224.102 374.8 220.802 362.8C219.702 359 216.502 356.2 212.702 355.5L174.002 348.6C169.002 347.7 165.402 343.4 165.402 338.4L165.502 302.7C165.502 297.7 169.102 293.4 174.102 292.5L212.802 285.7C216.702 285 219.902 282.2 221.002 278.4C224.402 266.4 229.202 254.9 235.202 244.2C237.102 240.8 236.902 236.5 234.602 233.2L212.102 200.9C209.202 196.8 209.702 191.2 213.302 187.6L238.602 162.4C242.202 158.8 247.802 158.4 251.902 161.3L284.002 183.9C287.202 186.2 291.502 186.4 295.002 184.5C305.702 178.5 317.202 173.7 329.202 170.4C333.002 169.3 335.802 166.1 336.502 162.3L343.402 123.6C344.302 118.6 348.602 115 353.602 115L389.302 115.1C394.302 115.1 398.602 118.7 399.502 123.7L406.302 162.4C407.002 166.3 409.802 169.5 413.602 170.6C425.602 174 437.102 178.8 447.802 184.8C451.202 186.7 455.502 186.5 458.802 184.2L491.102 161.7C495.202 158.8 500.802 159.3 504.402 162.9L529.602 188.2C533.202 191.8 533.602 197.4 530.702 201.5L508.102 233.7C505.802 236.9 505.602 241.2 507.502 244.7C513.502 255.4 518.302 266.9 521.602 278.9C522.702 282.7 525.902 285.5 529.702 286.2L568.402 293.1C573.402 294 577.002 298.3 577.002 303.3V339C577.002 344 573.402 348.3 568.402 349.2L529.702 356C525.802 356.7 522.602 359.5 521.502 363.3Z" fill="#FF7F41"/>
<path d="M819.502 514.198C813.602 514.198 807.702 511.898 803.302 507.298C769.302 471.898 726.502 446.598 679.402 434.098C667.402 430.898 660.302 418.598 663.502 406.698C666.702 394.698 679.002 387.598 690.902 390.798C745.902 405.498 795.902 434.998 835.602 476.298C844.202 485.198 843.902 499.398 835.002 507.998C830.702 512.098 825.102 514.198 819.502 514.198Z" fill="#F5B6CD"/>
<path d="M872.503 839.2C870.603 839.2 868.603 838.7 866.903 837.6C861.903 834.5 860.303 827.9 863.503 822.9C890.803 778.9 905.303 728.1 905.303 676C905.303 615.1 886.003 557.2 849.503 508.6C814.203 461.6 764.003 426.3 708.103 409.2C702.503 407.5 699.303 401.5 701.003 395.9C702.703 390.3 708.703 387.1 714.303 388.8C744.703 398.1 773.303 412.1 799.303 430.5C825.003 448.6 847.603 470.6 866.503 495.7C905.803 548 926.603 610.3 926.603 675.9C926.603 732 911.003 786.7 881.603 834.1C879.503 837.4 876.103 839.2 872.503 839.2Z" fill="#9063CD"/>
<path d="M142.602 273.9C141.302 273.9 139.902 273.7 138.602 273.3C130.802 271.1 126.302 263 128.602 255.2C129.402 252.5 147.702 189.1 183.202 148.5C188.502 142.4 197.802 141.8 203.802 147.1C209.902 152.4 210.502 161.6 205.202 167.7C174.102 203.4 156.902 262.6 156.702 263.2C154.902 269.7 149.002 273.9 142.602 273.9Z" fill="#59CBE8"/>
<path d="M371.201 402.698C416.433 402.698 453.101 366.031 453.101 320.798C453.101 275.566 416.433 238.898 371.201 238.898C325.969 238.898 289.301 275.566 289.301 320.798C289.301 366.031 325.969 402.698 371.201 402.698Z" fill="#FDDA24"/>
<path d="M371.201 403.198C325.801 403.198 288.801 366.198 288.801 320.798C288.801 275.398 325.801 238.398 371.201 238.398C416.601 238.398 453.601 275.398 453.601 320.798C453.601 366.198 416.601 403.198 371.201 403.198ZM371.201 239.398C326.301 239.398 289.701 275.898 289.701 320.898C289.701 365.798 326.201 402.398 371.201 402.398C416.101 402.398 452.701 365.898 452.701 320.898C452.701 275.898 416.101 239.398 371.201 239.398Z" fill="#FDDA24"/>
<path d="M662.102 645.101C660.702 645.101 659.202 644.401 658.402 643.101L641.902 618.301H602.002L585.502 643.101C584.102 645.201 581.402 645.701 579.302 644.301C577.202 642.901 576.702 640.201 578.102 638.101L595.902 611.301C596.702 610.101 598.102 609.301 599.602 609.301H644.202C645.702 609.301 647.102 610.001 647.902 611.301L665.702 638.101C667.102 640.201 666.502 642.901 664.502 644.301C663.802 644.901 662.902 645.101 662.102 645.101Z" fill="#00C389"/>
<path d="M706.702 698.602C704.202 698.602 702.202 696.602 702.202 694.102V654.002C702.202 649.102 698.202 645.102 693.302 645.102H662.102C659.602 645.102 657.602 643.102 657.602 640.602C657.602 638.102 659.602 636.102 662.102 636.102H693.302C703.102 636.102 711.102 644.102 711.102 653.902V694.102C711.202 696.602 709.202 698.602 706.702 698.602Z" fill="#59CBE8"/>
<path d="M693.303 752.202H613.703C611.203 752.202 609.203 750.202 609.203 747.702C609.203 745.202 611.203 743.202 613.703 743.202H693.303C698.203 743.202 702.203 739.202 702.203 734.302V694.102C702.203 691.602 704.203 689.602 706.703 689.602C709.203 689.602 711.203 691.602 711.203 694.102V734.302C711.203 744.202 703.103 752.202 693.303 752.202Z" fill="#F5B6CD"/>
<path d="M613.703 752.202H550.503C540.703 752.202 532.703 744.202 532.703 734.402V698.102C532.703 695.602 534.703 693.602 537.203 693.602C539.703 693.602 541.703 695.602 541.703 698.102V734.402C541.703 739.302 545.703 743.302 550.603 743.302H613.803C616.303 743.302 618.303 745.302 618.303 747.802C618.303 750.302 616.203 752.202 613.703 752.202Z" fill="#9063CD"/>
<path d="M537.102 702.599C534.602 702.599 532.602 700.599 532.602 698.099V653.999C532.602 644.199 540.602 636.199 550.402 636.199H581.602C584.102 636.199 586.102 638.199 586.102 640.699C586.102 643.199 584.102 645.199 581.602 645.199H550.402C545.502 645.199 541.502 649.199 541.502 654.099V698.199C541.602 700.599 539.602 702.599 537.102 702.599Z" fill="#FDDA24"/>
<path d="M621.903 725.4C602.203 725.4 586.203 709.4 586.203 689.7C586.203 670 602.203 654 621.903 654C641.603 654 657.603 670 657.603 689.7C657.603 709.4 641.603 725.4 621.903 725.4ZM621.903 662.9C607.103 662.9 595.103 674.9 595.103 689.7C595.103 704.5 607.103 716.5 621.903 716.5C636.703 716.5 648.703 704.5 648.703 689.7C648.703 675 636.703 662.9 621.903 662.9Z" fill="#FF7F41"/>
<path d="M635.3 636.199H608.5C606 636.199 604 634.199 604 631.699C604 629.199 606 627.199 608.5 627.199H635.3C637.8 627.199 639.8 629.199 639.8 631.699C639.8 634.199 637.8 636.199 635.3 636.199Z" fill="#00C389"/>
</svg>
