<svg width="300" height="300" viewBox="0 0 300 300" fill="none" xmlns="http://www.w3.org/2000/svg">
<path d="M94.7595 136.998H65.328C62.0325 136.993 58.8734 135.682 56.543 133.352C54.2127 131.022 52.9012 127.863 52.896 124.568V95.1361C52.9008 91.8404 54.2121 88.681 56.5425 86.3506C58.8729 84.0202 62.0323 82.7089 65.328 82.7041H94.7595C95.8587 82.7041 96.9128 83.1408 97.6901 83.918C98.4673 84.6952 98.904 85.7494 98.904 86.8486C98.904 87.9478 98.4673 89.002 97.6901 89.7792C96.9128 90.5565 95.8587 90.9931 94.7595 90.9931H65.328C64.2296 90.9943 63.1765 91.4312 62.3998 92.2079C61.6231 92.9846 61.1862 94.0377 61.185 95.1361V124.568C61.1862 125.666 61.6231 126.719 62.3999 127.495C63.1766 128.272 64.2297 128.708 65.328 128.709H94.7595C95.8575 128.708 96.9102 128.271 97.6867 127.495C98.4631 126.718 98.8998 125.666 98.901 124.568V95.1361C98.901 94.0369 99.3376 92.9827 100.115 92.2055C100.892 91.4283 101.946 90.9916 103.045 90.9916C104.145 90.9916 105.199 91.4283 105.976 92.2055C106.753 92.9827 107.19 94.0369 107.19 95.1361V124.568C107.185 127.863 105.874 131.022 103.543 133.352C101.213 135.682 98.0547 136.993 94.7595 136.998Z" fill="#9063CD"/>
<path d="M119.679 92.4045V127.299C119.679 132.725 124.078 137.124 129.504 137.124H164.399C169.825 137.124 174.224 132.725 174.224 127.299V92.4045C174.224 86.9783 169.825 82.5795 164.399 82.5795H129.504C124.078 82.5795 119.679 86.9783 119.679 92.4045Z" fill="#FDDA24"/>
<path d="M164.399 142.036H129.502C125.595 142.032 121.848 140.478 119.085 137.715C116.322 134.952 114.768 131.206 114.763 127.299V92.4C114.767 88.4923 116.322 84.7459 119.085 81.9828C121.848 79.2196 125.594 77.6654 129.502 77.661H164.399C168.307 77.6662 172.052 79.2208 174.815 81.9838C177.577 84.7469 179.131 88.4928 179.135 92.4V127.299C179.131 131.206 177.577 134.951 174.814 137.714C172.052 140.477 168.306 142.031 164.399 142.036ZM129.502 87.492C128.2 87.4936 126.953 88.0111 126.032 88.9311C125.112 89.8511 124.593 91.0985 124.591 92.4V127.299C124.593 128.601 125.11 129.849 126.031 130.77C126.952 131.69 128.2 132.208 129.502 132.21H164.399C165.702 132.209 166.95 131.691 167.871 130.77C168.791 129.85 169.309 128.601 169.31 127.299V92.4C169.308 91.0985 168.79 89.8511 167.869 88.9311C166.949 88.0111 165.701 87.4936 164.399 87.492H129.502Z" fill="#00C389"/>
<path d="M228.573 135.975H199.141C198.042 135.975 196.988 135.538 196.211 134.761C195.433 133.984 194.997 132.93 194.997 131.831C194.997 130.731 195.433 129.677 196.211 128.9C196.988 128.123 198.042 127.686 199.141 127.686H228.573C229.671 127.685 230.724 127.248 231.501 126.471C232.278 125.695 232.715 124.641 232.716 123.543V94.1116C232.715 93.0131 232.278 91.96 231.501 91.1833C230.724 90.4066 229.671 89.9697 228.573 89.9686H199.141C198.043 89.9701 196.99 90.4072 196.214 91.1839C195.438 91.9605 195.001 93.0134 195 94.1116V123.543C195 124.642 194.563 125.696 193.786 126.474C193.009 127.251 191.954 127.688 190.855 127.688C189.756 127.688 188.702 127.251 187.925 126.474C187.147 125.696 186.711 124.642 186.711 123.543V94.1116C186.715 90.8158 188.027 87.6565 190.357 85.3261C192.688 82.9956 195.847 81.6843 199.143 81.6796H228.574C231.87 81.6843 235.029 82.9956 237.36 85.3261C239.69 87.6565 241.001 90.8158 241.006 94.1116V123.543C241.001 126.839 239.69 129.999 237.359 132.329C235.028 134.66 231.869 135.971 228.573 135.975Z" fill="#F5B6CD"/>
<path d="M70.5688 101.247V118.454H87.7754V101.247H70.5688Z" fill="#00C389"/>
<path d="M146.951 122.856C154.133 122.856 159.956 117.033 159.956 109.851C159.956 102.668 154.133 96.8459 146.951 96.8459C139.768 96.8459 133.946 102.668 133.946 109.851C133.946 117.033 139.768 122.856 146.951 122.856Z" fill="white"/>
<path d="M212.985 98.8427L202.64 116.763H223.332L212.985 98.8427Z" fill="#00C389"/>
<path d="M156.896 119.087C156.896 113.986 152.761 109.851 147.66 109.851C142.56 109.851 138.425 113.986 138.425 119.087V190.406C138.425 195.506 142.56 199.641 147.66 199.641C152.761 199.641 156.896 195.506 156.896 190.406V119.087Z" fill="#8F6121"/>
<path d="M149.012 150.567L184.983 153.968C193.286 154.754 199.505 161.651 199.151 169.682L197.841 199.341C197.653 203.602 196.554 207.774 194.616 211.574L193.116 214.52H138.425V150.567H149.012Z" fill="#8F6121"/>
<path d="M125.367 167.75C122.705 169.372 120.505 171.652 118.978 174.371C117.451 177.09 116.649 180.155 116.649 183.273C116.65 187.753 118.306 192.076 121.299 195.41L138.431 214.52V159.789L125.367 167.75Z" fill="#8F6121"/>
<path d="M134.1 162.426L138.425 199.641V159.789L134.1 162.426Z" fill="#6A4E32"/>
<path d="M185.712 263.223H143.6C139.951 263.223 136.452 261.773 133.872 259.193C131.293 256.613 129.843 253.114 129.843 249.465V216.266H199.469V249.465C199.469 253.114 198.019 256.613 195.44 259.193C192.86 261.773 189.361 263.223 185.712 263.223Z" fill="#59CBE8"/>
<path d="M201.379 209.127H127.932V224.943H201.379V209.127Z" fill="#FF7F41"/>
<path d="M185.175 248.979C189.205 248.979 192.472 245.712 192.472 241.681C192.472 237.651 189.205 234.384 185.175 234.384C181.144 234.384 177.877 237.651 177.877 241.681C177.877 245.712 181.144 248.979 185.175 248.979Z" fill="#2C2A29"/>
</svg>
