<svg width="1080" height="1080" viewBox="0 0 1080 1080" fill="none" xmlns="http://www.w3.org/2000/svg">
<path fill-rule="evenodd" clip-rule="evenodd" d="M371 196C371 193.239 373.239 191 376 191H394C396.761 191 399 193.239 399 196C399 198.761 396.761 201 394 201H376C373.239 201 371 198.761 371 196Z" fill="#FDDA24"/>
<path fill-rule="evenodd" clip-rule="evenodd" d="M681 196C681 193.239 683.239 191 686 191H704C706.761 191 709 193.239 709 196C709 198.761 706.761 201 704 201H686C683.239 201 681 198.761 681 196Z" fill="#FDDA24"/>
<path fill-rule="evenodd" clip-rule="evenodd" d="M535 60C532.239 60 530 57.7614 530 55V37C530 34.2386 532.239 32 535 32C537.761 32 540 34.2386 540 37V55C540 57.7614 537.761 60 535 60Z" fill="#FDDA24"/>
<path fill-rule="evenodd" clip-rule="evenodd" d="M535 370C532.239 370 530 367.761 530 365V347C530 344.239 532.239 342 535 342C537.761 342 540 344.239 540 347V365C540 367.761 537.761 370 535 370Z" fill="#FDDA24"/>
<path fill-rule="evenodd" clip-rule="evenodd" d="M423.536 77.4645C425.488 75.5119 428.654 75.5119 430.607 77.4645L443.335 90.1924C445.287 92.145 445.287 95.3109 443.335 97.2635C441.382 99.2161 438.216 99.2161 436.264 97.2635L423.536 84.5356C421.583 82.5829 421.583 79.4171 423.536 77.4645Z" fill="#FDDA24"/>
<path fill-rule="evenodd" clip-rule="evenodd" d="M642.538 296.466C644.49 294.514 647.656 294.514 649.609 296.466L662.337 309.194C664.289 311.147 664.289 314.313 662.337 316.265C660.384 318.218 657.218 318.218 655.266 316.265L642.538 303.538C640.585 301.585 640.585 298.419 642.538 296.466Z" fill="#FDDA24"/>
<path fill-rule="evenodd" clip-rule="evenodd" d="M416.464 316.265C414.512 314.313 414.512 311.147 416.464 309.194L429.192 296.466C431.145 294.514 434.311 294.514 436.263 296.466C438.216 298.419 438.216 301.585 436.263 303.537L423.535 316.265C421.583 318.218 418.417 318.218 416.464 316.265Z" fill="#FDDA24"/>
<path fill-rule="evenodd" clip-rule="evenodd" d="M635.466 97.2633C633.514 95.3107 633.514 92.1449 635.466 90.1922L648.194 77.4643C650.147 75.5117 653.313 75.5117 655.265 77.4643C657.218 79.4169 657.218 82.5828 655.265 84.5354L642.537 97.2633C640.585 99.2159 637.419 99.2159 635.466 97.2633Z" fill="#FDDA24"/>
<path d="M653 201C653 263.408 602.408 314 540 314C477.592 314 427 263.408 427 201C427 138.592 477.592 88 540 88C602.408 88 653 138.592 653 201Z" fill="white"/>
<path fill-rule="evenodd" clip-rule="evenodd" d="M540 93C480.353 93 432 141.353 432 201C432 260.647 480.353 309 540 309C599.647 309 648 260.647 648 201C648 141.353 599.647 93 540 93ZM422 201C422 135.83 474.83 83 540 83C605.17 83 658 135.83 658 201C658 266.17 605.17 319 540 319C474.83 319 422 266.17 422 201Z" fill="#FDDA24"/>
<path d="M521 917C521 917 428.547 917 314.5 917C200.453 917 108 917 108 917C108 834.71 200.453 768 314.5 768C428.547 768 521 834.71 521 917Z" fill="#E4AC7B"/>
<rect width="54" height="183" transform="matrix(1 0 0 -1 513 803)" fill="#FDDA24"/>
<path fill-rule="evenodd" clip-rule="evenodd" d="M410 916.945C470.608 890.65 513 830.276 513 760H567C567 830.276 609.393 890.65 670 916.945V937H410V916.945Z" fill="#FDDA24"/>
<path fill-rule="evenodd" clip-rule="evenodd" d="M366.611 402C364.031 410.771 361.941 419.801 360.376 429.048H719.624C718.059 419.801 715.969 410.771 713.389 402H366.611ZM723 469.5C723 585.756 641.068 680 540 680C438.932 680 357 585.756 357 469.5C357 460.541 357.487 451.712 358.431 443.048H721.569C722.513 451.712 723 460.541 723 469.5Z" fill="#FDDA24"/>
<path fill-rule="evenodd" clip-rule="evenodd" d="M672.787 531.309C677.295 532.56 679.938 537.238 678.691 541.758C667.011 584.111 635.121 618.479 593.657 635.373C589.325 637.139 584.385 635.047 582.625 630.702C580.865 626.357 582.95 621.403 587.283 619.638C624.213 604.591 652.184 574.159 662.369 537.231C663.615 532.71 668.28 530.059 672.787 531.309Z" fill="white"/>
<ellipse cx="686.71" cy="891.465" rx="43.3685" ry="43.3685" transform="rotate(-90 686.71 891.465)" fill="#9063CD"/>
<ellipse cx="749.456" cy="853.633" rx="43.3685" ry="43.3685" transform="rotate(-90 749.456 853.633)" fill="#9063CD"/>
<ellipse cx="802.975" cy="842.56" rx="43.3685" ry="43.3685" transform="rotate(-90 802.975 842.56)" fill="#9063CD"/>
<ellipse cx="571.369" cy="962.977" rx="43.8299" ry="43.3685" transform="rotate(-90 571.369 962.977)" fill="#9063CD"/>
<ellipse cx="633.192" cy="962.977" rx="43.8299" ry="43.3685" transform="rotate(-90 633.192 962.977)" fill="#9063CD"/>
<ellipse cx="695.015" cy="962.977" rx="43.8299" ry="43.3685" transform="rotate(-90 695.015 962.977)" fill="#9063CD"/>
<ellipse cx="756.838" cy="962.977" rx="43.8299" ry="43.3685" transform="rotate(-90 756.838 962.977)" fill="#9063CD"/>
<ellipse cx="818.661" cy="962.977" rx="43.8299" ry="43.3685" transform="rotate(-90 818.661 962.977)" fill="#9063CD"/>
<ellipse cx="866.643" cy="962.977" rx="43.8299" ry="43.3685" transform="rotate(-90 866.643 962.977)" fill="#9063CD"/>
<ellipse cx="632.269" cy="906.229" rx="43.3685" ry="43.3685" transform="rotate(-90 632.269 906.229)" fill="#9063CD"/>
<ellipse cx="722.697" cy="900.693" rx="43.3685" ry="43.3685" transform="rotate(-90 722.697 900.693)" fill="#9063CD"/>
<ellipse cx="784.52" cy="900.693" rx="43.3685" ry="43.3685" transform="rotate(-90 784.52 900.693)" fill="#9063CD"/>
<ellipse cx="846.343" cy="900.693" rx="43.3685" ry="43.3685" transform="rotate(-90 846.343 900.693)" fill="#9063CD"/>
<path d="M970.337 816.859C960.833 863.491 902.748 879.104 902.748 879.104C902.748 879.104 855.406 842.004 864.91 795.372C874.414 748.741 938.284 704.744 938.284 704.744C938.284 704.744 979.841 770.228 970.337 816.859Z" fill="#00C389"/>
<path d="M916.089 929.397C894.109 911.829 901.545 877.052 901.545 877.052C901.545 877.052 933.828 862.134 955.808 879.702C977.788 897.27 983.731 942.741 983.731 942.741C983.731 942.741 938.069 946.964 916.089 929.397Z" fill="#00C389"/>
<path fill-rule="evenodd" clip-rule="evenodd" d="M231.207 769.498C233.693 765.194 239.198 763.721 243.502 766.207C249.329 769.574 256.205 777.177 262.013 788.803C267.95 800.687 273.085 817.361 274.968 839.746C275.384 844.699 271.707 849.052 266.754 849.468C261.801 849.885 257.448 846.207 257.031 841.254C255.314 820.839 250.699 806.43 245.911 796.847C240.994 787.007 236.171 782.76 234.497 781.793C230.193 779.306 228.72 773.801 231.207 769.498Z" fill="#B28038"/>
<path fill-rule="evenodd" clip-rule="evenodd" d="M293.207 760.498C295.693 756.194 301.198 754.721 305.502 757.207C311.329 760.574 318.205 768.177 324.013 779.803C329.95 791.687 335.085 808.361 336.968 830.746C337.384 835.699 333.707 840.052 328.754 840.468C323.801 840.885 319.448 837.207 319.031 832.254C317.314 811.839 312.699 797.43 307.911 787.847C302.994 778.007 298.171 773.76 296.497 772.793C292.193 770.306 290.72 764.801 293.207 760.498Z" fill="#B28038"/>
<path fill-rule="evenodd" clip-rule="evenodd" d="M355.207 763.498C357.693 759.194 363.198 757.721 367.502 760.207C373.329 763.574 380.205 771.177 386.013 782.803C391.95 794.687 397.085 811.361 398.968 833.746C399.384 838.699 395.707 843.052 390.754 843.468C385.801 843.885 381.448 840.207 381.031 835.254C379.314 814.839 374.699 800.43 369.911 790.847C364.994 781.007 360.171 776.76 358.497 775.793C354.193 773.306 352.72 767.801 355.207 763.498Z" fill="#B28038"/>
<path d="M501.57 177.457C499.412 178.066 497.31 178.536 495.262 178.868V216.218C495.262 222.526 493.851 227.119 491.029 229.996C488.263 232.929 484.03 234.395 478.33 234.395C476.892 234.395 475.342 234.174 473.682 233.731C472.022 233.344 470.639 232.846 469.532 232.237C469.2 231.02 469.034 229.996 469.034 229.166C469.034 226.897 469.615 224.463 470.777 221.862L473.35 222.111C474.789 225.431 475.951 227.755 476.836 229.083C477.777 230.411 478.994 231.075 480.488 231.075C481.927 231.075 483.089 230.549 483.974 229.498C484.86 228.447 485.302 226.842 485.302 224.684V180.113C483.31 179.394 481.235 178.37 479.077 177.042C479.077 176.599 479.188 176.157 479.409 175.714C479.686 175.216 480.018 174.856 480.405 174.635H500.574C501.238 175.299 501.57 176.24 501.57 177.457Z" fill="#2C2A29"/>
<path d="M558.323 223.522C560.315 224.131 562.417 225.154 564.631 226.593C564.631 227.036 564.492 227.506 564.216 228.004C563.994 228.447 563.69 228.779 563.303 229H543.134C542.47 228.336 542.138 227.395 542.138 226.178C544.351 225.514 546.426 225.044 548.363 224.767V203.104H521.803V224.767C523.739 225.044 525.814 225.514 528.028 226.178C528.028 227.395 527.696 228.336 527.032 229H506.863C506.475 228.779 506.143 228.447 505.867 228.004C505.645 227.506 505.535 227.036 505.535 226.593C507.748 225.154 509.851 224.131 511.843 223.522V180.113C509.851 179.394 507.776 178.37 505.618 177.042C505.618 176.599 505.728 176.157 505.95 175.714C506.226 175.216 506.558 174.856 506.946 174.635H527.115C527.779 175.299 528.111 176.24 528.111 177.457C525.953 178.066 523.85 178.536 521.803 178.868V198.539H548.363V178.868C546.315 178.536 544.213 178.066 542.055 177.457C542.055 176.24 542.387 175.299 543.051 174.635H563.22C563.607 174.856 563.911 175.216 564.133 175.714C564.409 176.157 564.548 176.599 564.548 177.042C562.39 178.37 560.315 179.394 558.323 180.113V223.522Z" fill="#2C2A29"/>
<path d="M586.957 229.996C582.973 229.996 579.543 229.553 576.665 228.668C573.843 227.783 571.741 226.676 570.357 225.348C569.749 224.186 569.444 222 569.444 218.791C569.444 216.744 569.693 214.89 570.191 213.23C570.745 211.515 571.492 210.187 572.432 209.246L574.092 209.578C575.42 215.167 577.302 219.178 579.736 221.613C582.171 224.048 585.491 225.265 589.696 225.265C592.131 225.265 594.234 224.684 596.004 223.522C597.775 222.305 598.688 220.506 598.743 218.127C598.743 216.356 598.356 214.862 597.581 213.645C596.862 212.372 595.645 211.183 593.929 210.076C592.269 208.914 589.807 207.558 586.542 206.009C582.724 204.183 579.764 202.606 577.661 201.278C575.614 199.895 573.982 198.235 572.764 196.298C571.602 194.361 571.021 191.899 571.021 188.911C571.021 186.366 571.796 183.931 573.345 181.607C574.95 179.228 577.219 177.319 580.151 175.88C583.084 174.386 586.487 173.639 590.36 173.639C593.348 173.639 596.115 173.999 598.66 174.718C601.261 175.382 603.364 176.323 604.968 177.54C605.3 178.259 605.522 178.979 605.632 179.698C605.798 180.417 605.881 181.386 605.881 182.603C605.881 186.698 604.747 189.879 602.478 192.148L600.984 191.816C599.546 187.334 597.83 183.986 595.838 181.773C593.902 179.504 591.163 178.37 587.621 178.37C585.353 178.37 583.499 179.034 582.06 180.362C580.622 181.635 579.902 183.295 579.902 185.342C579.902 187.721 581.009 189.907 583.222 191.899C585.436 193.891 589.005 195.994 593.929 198.207C597.471 199.812 600.182 201.306 602.063 202.689C604 204.072 605.383 205.622 606.213 207.337C607.099 208.997 607.541 211.072 607.541 213.562C607.486 216.882 606.545 219.787 604.719 222.277C602.949 224.767 600.514 226.676 597.415 228.004C594.317 229.332 590.831 229.996 586.957 229.996Z" fill="#2C2A29"/>
<path fill-rule="evenodd" clip-rule="evenodd" d="M853.344 327.549C855.649 326.028 858.75 326.664 860.271 328.969C930.565 435.498 930.279 574.884 859.413 681.146C857.881 683.444 854.776 684.064 852.479 682.532C850.182 681 849.561 677.895 851.093 675.598C919.728 572.682 920.005 437.651 851.925 334.476C850.404 332.172 851.039 329.07 853.344 327.549Z" fill="#E4AC7B"/>
<ellipse cx="920.662" cy="359.743" rx="14.2342" ry="44.9753" transform="rotate(14.6673 920.662 359.743)" fill="#E4AC7B"/>
<ellipse cx="940.504" cy="425.451" rx="13.3421" ry="44.9753" transform="rotate(22.7954 940.504 425.451)" fill="#E4AC7B"/>
<ellipse cx="947.648" cy="503.786" rx="13.3421" ry="44.9753" transform="rotate(34.4799 947.648 503.786)" fill="#E4AC7B"/>
<ellipse rx="13.3421" ry="44.9753" transform="matrix(-0.650504 0.759503 0.759503 0.650504 857.32 505.342)" fill="#E4AC7B"/>
<ellipse cx="940.862" cy="582.869" rx="13.3421" ry="44.9753" transform="rotate(49.3444 940.862 582.869)" fill="#E4AC7B"/>
<ellipse rx="13.3421" ry="44.9753" transform="matrix(-0.701354 0.712813 0.712813 0.701354 847.84 568.882)" fill="#E4AC7B"/>
<ellipse cx="838.703" cy="382.929" rx="13.3421" ry="44.9753" transform="rotate(-54.0505 838.703 382.929)" fill="#E4AC7B"/>
<ellipse cx="841.239" cy="312.332" rx="16.4932" ry="44.9753" transform="rotate(-34.8569 841.239 312.332)" fill="#E4AC7B"/>
<ellipse cx="853.376" cy="443.56" rx="13.3421" ry="44.9753" transform="rotate(-50.595 853.376 443.56)" fill="#E4AC7B"/>
<path fill-rule="evenodd" clip-rule="evenodd" d="M226.656 327.549C224.351 326.028 221.25 326.664 219.729 328.969C149.435 435.498 149.721 574.884 220.587 681.146C222.119 683.444 225.224 684.064 227.521 682.532C229.818 681 230.439 677.895 228.907 675.598C160.272 572.682 159.995 437.651 228.075 334.476C229.596 332.172 228.961 329.07 226.656 327.549Z" fill="#E4AC7B"/>
<path d="M145.568 363.347C151.857 387.377 163.121 405.243 170.726 403.252C178.332 401.262 179.398 380.168 173.109 356.139C166.819 332.109 155.556 314.243 147.95 316.233C140.345 318.224 139.279 339.317 145.568 363.347Z" fill="#E4AC7B"/>
<path d="M127.196 430.62C136.82 453.519 150.129 469.768 156.922 466.913C163.715 464.059 161.42 443.181 151.796 420.282C142.173 397.383 128.864 381.134 122.071 383.989C115.278 386.844 117.573 407.721 127.196 430.62Z" fill="#E4AC7B"/>
<path d="M121.353 511.339C135.415 531.814 151.739 545.031 157.813 540.86C163.887 536.688 157.412 516.708 143.35 496.232C129.288 475.757 112.965 462.54 106.89 466.711C100.816 470.883 107.292 490.863 121.353 511.339Z" fill="#E4AC7B"/>
<path d="M231.359 515.475C212.494 531.633 193.315 540.195 188.522 534.599C183.728 529.002 195.136 511.367 214.001 495.209C232.867 479.051 252.046 470.489 256.839 476.086C261.633 481.682 250.225 499.318 231.359 515.475Z" fill="#E4AC7B"/>
<path d="M130.446 592.991C149.29 609.174 168.458 617.761 173.258 612.171C178.059 606.581 166.675 588.93 147.831 572.747C128.987 556.564 109.819 547.977 105.018 553.567C100.218 559.157 111.602 576.808 130.446 592.991Z" fill="#E4AC7B"/>
<path d="M241.517 578.393C223.812 595.814 205.269 605.678 200.101 600.426C194.933 595.173 205.097 576.793 222.802 559.372C240.508 541.951 259.051 532.086 264.219 537.339C269.387 542.591 259.223 560.972 241.517 578.393Z" fill="#E4AC7B"/>
<path d="M233.464 372.128C213.356 386.71 200.562 403.367 204.888 409.333C209.214 415.298 229.022 408.312 249.13 393.73C269.238 379.148 282.032 362.49 277.706 356.525C273.38 350.56 253.573 357.546 233.464 372.128Z" fill="#E4AC7B"/>
<path d="M225.227 302.906C211.031 323.288 205.582 344.032 213.057 349.238C220.531 354.444 238.099 342.141 252.295 321.758C266.492 301.376 271.941 280.632 264.466 275.426C256.991 270.22 239.424 282.523 225.227 302.906Z" fill="#E4AC7B"/>
<path d="M218.154 433.251C198.962 449.019 187.195 466.417 191.872 472.111C196.55 477.804 215.901 469.637 235.093 453.87C254.286 438.102 266.053 420.704 261.375 415.01C256.698 409.317 237.347 417.483 218.154 433.251Z" fill="#E4AC7B"/>
</svg>
