<svg width="1080" height="1080" viewBox="0 0 1080 1080" fill="none" xmlns="http://www.w3.org/2000/svg">
<path d="M556.934 866.5C556.934 793 616.434 733.5 689.934 733.5C763.434 733.5 822.934 793 822.934 866.5" fill="#FF7F41"/>
<path d="M175.535 866.499C175.535 744.899 274.135 646.199 395.835 646.199C517.535 646.199 616.135 744.799 616.135 866.499" fill="#FF7F41"/>
<path d="M372.135 931.098C370.635 931.098 369.135 930.898 367.535 930.598C356.435 928.098 349.535 917.098 352.035 905.998L413.735 634.898C416.235 623.798 427.235 616.898 438.335 619.398C449.435 621.898 456.335 632.898 453.835 643.998L392.135 915.098C389.935 924.698 381.435 931.098 372.135 931.098Z" fill="#F5B6CD"/>
<path d="M607.833 592.998C548.233 592.998 488.933 574.598 439.833 540.798C388.333 505.398 348.633 453.298 328.033 394.198C324.333 383.498 329.933 371.798 340.733 367.998C351.433 364.298 363.133 369.898 366.933 380.698C384.633 431.598 418.833 476.398 463.233 506.898C507.633 537.398 561.633 553.298 615.533 551.698C626.833 551.398 636.333 560.298 636.733 571.598C637.033 582.898 628.133 592.398 616.833 592.798C613.733 592.998 610.733 592.998 607.833 592.998Z" fill="#00C389"/>
<path d="M451.697 274.803C473.313 252.221 470.88 214.813 446.264 191.249C421.647 167.686 384.169 166.89 362.553 189.472C340.937 212.053 343.37 249.461 367.986 273.025C392.603 296.588 430.081 297.384 451.697 274.803Z" fill="#E4AC7B"/>
<path d="M808.934 312.4C873.662 312.4 926.134 259.928 926.134 195.2C926.134 130.472 873.662 78 808.934 78C744.207 78 691.734 130.472 691.734 195.2C691.734 259.928 744.207 312.4 808.934 312.4Z" fill="#00C389"/>
<path d="M722.834 221.301L687.434 320.301L784.634 276.201L722.834 221.301Z" fill="#00C389"/>
<path d="M776.434 246.298C773.934 246.298 771.534 245.398 769.634 243.498L743.034 216.898C739.234 213.098 739.234 206.998 743.034 203.298C746.834 199.498 752.934 199.498 756.634 203.298L776.434 223.098L852.534 146.998C856.334 143.198 862.434 143.198 866.134 146.998C869.934 150.798 869.934 156.898 866.134 160.598L783.234 243.498C781.434 245.398 778.934 246.298 776.434 246.298Z" fill="white"/>
<path d="M376.334 1003C374.834 1003 373.334 1002.8 371.734 1002.5C360.634 1000 353.734 989.001 356.234 977.901L417.934 706.801C420.434 695.701 431.434 688.801 442.534 691.301C453.634 693.801 460.534 704.801 458.034 715.901L396.334 987.001C394.234 996.501 385.734 1003 376.334 1003Z" fill="#00C389"/>
<path d="M175.534 999.201C169.934 999.201 164.234 996.901 160.234 992.301C152.634 983.801 153.434 970.801 161.834 963.301C276.634 860.601 306.634 723.401 306.834 722.001C309.134 710.901 320.034 703.8 331.134 706.1C342.234 708.4 349.334 719.301 347.034 730.401C346.734 732.001 338.734 769.201 315.334 820.301C293.834 867.301 254.434 935.501 189.134 993.901C185.234 997.501 180.334 999.201 175.534 999.201Z" fill="#59CBE8"/>
<path d="M576.632 563.301C576.032 563.301 575.432 563.301 574.832 563.201C502.432 553.601 473.132 528.701 463.532 520.501C463.232 520.201 462.832 519.901 462.432 519.601C457.532 516.901 454.632 511.201 455.732 505.301C457.132 498.001 464.132 493.101 471.432 494.501C475.532 495.301 478.032 497.401 480.932 499.901C489.032 506.801 513.832 527.801 578.332 536.401C585.732 537.401 590.932 544.201 589.932 551.601C589.032 558.301 583.232 563.301 576.632 563.301Z" fill="#FDDA24"/>
<path d="M455.934 756.298L507.534 525.898L501.734 525.998C376.234 527.298 276.534 617.798 250.234 754.498L455.934 756.298Z" fill="#2C2A29"/>
<path d="M669.636 381.9L651.236 383C646.836 383.3 643.136 379.9 642.836 375.5L640.136 329.8C639.836 325.4 643.236 321.7 647.636 321.4L666.036 320.3C670.436 320 674.136 323.4 674.436 327.8L677.136 373.5C677.336 377.9 674.036 381.7 669.636 381.9Z" fill="#F5B6CD"/>
<path d="M502.233 550.2L392.733 552.2L307.133 343C307.133 343 623.433 185.7 502.233 550.2Z" fill="#9063CD"/>
<path d="M503.532 453.601C452.032 453.601 402.232 441.201 358.632 417.501C348.632 412.101 344.932 399.601 350.432 389.601C355.832 379.601 368.332 375.901 378.332 381.401C461.632 426.701 570.832 422.001 649.932 369.701C659.432 363.401 672.132 366.001 678.432 375.501C684.732 385.001 682.132 397.701 672.632 404.001C627.532 433.801 573.932 450.901 517.532 453.301C512.832 453.501 508.132 453.601 503.532 453.601Z" fill="#FF7F41"/>
<path d="M504.834 430.101C455.034 430.101 418.834 417.201 416.534 416.401C409.534 413.801 405.934 406.101 408.434 399.101C411.034 392.101 418.734 388.501 425.734 391.001C426.834 391.401 504.034 418.501 583.934 389.801C590.934 387.301 598.634 390.901 601.234 397.901C603.734 404.901 600.134 412.601 593.134 415.201C561.934 426.401 531.434 430.101 504.834 430.101Z" fill="#FDDA24"/>
</svg>
