<svg width="1080" height="1080" viewBox="0 0 1080 1080" fill="none" xmlns="http://www.w3.org/2000/svg">
<path d="M359.699 864.5C359.699 791 419.199 731.5 492.699 731.5C566.199 731.5 625.699 791 625.699 864.5" fill="#00C389"/>
<path d="M470.5 864.499C470.5 742.899 569.1 644.199 690.8 644.199C812.5 644.199 911 742.799 911 864.499" fill="#00C389"/>
<path d="M628.201 465.099C618.1 465.099 608.1 464.499 598 463.199C544.1 456.499 493.1 431.799 454.4 393.599C445.7 384.999 445.6 370.999 454.2 362.299C462.8 353.599 476.8 353.499 485.5 362.099C517.2 393.499 559.1 413.799 603.4 419.299C647.7 424.799 693.301 415.299 731.701 392.699C742.201 386.499 755.8 389.999 762 400.499C768.201 410.999 764.701 424.599 754.201 430.799C716.1 453.299 672.201 465.099 628.201 465.099Z" fill="#59CBE8"/>
<path d="M742.998 1005.3C722.998 1005.3 704.098 993.2 696.398 973.4C640.498 829.8 661.398 610.9 662.298 601.7C664.998 574.2 689.498 554.2 716.998 556.9C744.498 559.6 764.498 584.1 761.798 611.6C761.598 613.6 742.298 816.1 789.498 937.1C799.498 962.8 786.798 991.8 761.098 1001.8C755.198 1004.2 748.998 1005.3 742.998 1005.3Z" fill="#2C2A29"/>
<path d="M610.7 1005.3C586.9 1005.3 565.8 988.199 561.5 963.999C526.9 767.299 584.9 597.399 587.4 590.199C596.5 564.099 625 550.299 651.1 559.399C677.2 568.499 690.9 596.899 681.9 622.999C681.6 623.999 668.6 662.399 659.5 721.299C651.2 775.299 644.5 858.199 660.1 946.599C664.9 973.799 646.7 999.699 619.5 1004.5C616.5 1005.1 613.6 1005.3 610.7 1005.3Z" fill="#2C2A29"/>
<path d="M785.273 269.381C808.533 247.116 810.856 211.795 790.463 190.49C770.069 169.185 734.681 169.963 711.421 192.229C688.161 214.494 685.837 249.814 706.231 271.119C726.625 292.424 762.013 291.646 785.273 269.381Z" fill="#E4AC7B"/>
<path d="M624.699 432.802C589.399 432.802 551.699 418.502 549.699 417.702C543.999 415.502 541.199 409.102 543.399 403.402C545.599 397.702 551.999 394.902 557.699 397.102C557.899 397.202 571.598 402.402 589.299 406.302C611.898 411.302 630.799 412.102 643.899 408.502C649.799 406.902 655.899 410.302 657.499 416.202C659.099 422.102 655.699 428.202 649.799 429.802C641.898 431.902 633.399 432.802 624.699 432.802Z" fill="#9063CD"/>
<path d="M305.899 310.4C370.627 310.4 423.099 257.928 423.099 193.2C423.099 128.472 370.627 76 305.899 76C241.171 76 188.699 128.472 188.699 193.2C188.699 257.928 241.171 310.4 305.899 310.4Z" fill="#FF7F41"/>
<path d="M391.999 219.301L427.399 318.301L330.199 274.201L391.999 219.301Z" fill="#FF7F41"/>
<path d="M264.4 244.298C261.9 244.298 259.5 243.398 257.6 241.498C253.8 237.698 253.8 231.598 257.6 227.898L340.5 144.998C344.3 141.198 350.4 141.198 354.1 144.998C357.9 148.798 357.9 154.898 354.1 158.598L271.2 241.498C269.3 243.398 266.9 244.298 264.4 244.298Z" fill="white"/>
<path d="M347.3 244.298C344.8 244.298 342.4 243.398 340.5 241.498L257.6 158.598C253.8 154.798 253.8 148.698 257.6 144.998C261.4 141.198 267.5 141.198 271.2 144.998L354.1 227.898C357.9 231.698 357.9 237.798 354.1 241.498C352.2 243.398 349.8 244.298 347.3 244.298Z" fill="white"/>
<path d="M796.1 317.201L799.4 632.301L536.5 613.201C536.5 613.201 553.7 268.801 796.1 317.201Z" fill="#F5B6CD"/>
<path d="M652.499 582.7C643.599 582.7 635.199 577.3 631.799 568.5C627.399 557.1 633.099 544.3 644.499 539.9C711.499 514 763.799 451.8 777.599 381.3C779.999 369.3 791.599 361.5 803.599 363.8C815.599 366.2 823.399 377.8 821.099 389.8C812.899 431.7 793.399 471.8 764.899 505.8C736.399 539.8 700.299 565.8 660.399 581.2C657.899 582.3 655.199 582.7 652.499 582.7Z" fill="#59CBE8"/>
<path d="M571.501 471.9C555.001 471.9 532.901 464.3 505.801 449.4C486.201 438.6 471.301 427.9 470.701 427.5C465.701 423.9 464.601 417 468.201 412.1C471.801 407.1 478.701 406 483.601 409.6C499.301 420.8 545.601 449.9 571.501 449.9H571.601C577.701 449.9 582.601 454.8 582.701 460.9C582.701 467 577.801 472 571.701 472C571.601 471.9 571.501 471.9 571.501 471.9Z" fill="#FDDA24"/>
<path d="M665.201 540.999C660.501 540.999 656.101 537.899 654.601 533.199C652.801 527.399 656.101 521.199 661.901 519.399C686.501 511.799 716.201 478.499 725.601 466.299C729.301 461.499 736.301 460.599 741.101 464.299C745.901 467.999 746.901 474.999 743.101 479.799C741.601 481.799 704.701 529.299 668.401 540.499C667.401 540.899 666.301 540.999 665.201 540.999Z" fill="#9063CD"/>
<path d="M761.599 521.601C758.699 521.601 755.799 520.401 753.599 518.201C749.399 513.801 749.599 506.801 753.999 502.601C788.199 470.001 806.699 401.701 806.799 401.001C808.399 395.101 814.399 391.601 820.299 393.101C826.199 394.701 829.699 400.701 828.199 406.601C827.399 409.601 807.999 481.701 769.199 518.601C767.099 520.601 764.399 521.601 761.599 521.601Z" fill="#FDDA24"/>
<path d="M483.599 388.199L505.199 379.599C510.299 377.499 512.799 371.699 510.799 366.599L489.299 312.899C487.199 307.799 481.399 305.299 476.299 307.299L454.699 315.899C449.599 317.999 447.099 323.799 449.099 328.899L470.599 382.599C472.699 387.699 478.499 390.199 483.599 388.199Z" fill="#00C389"/>
</svg>
