<svg width="1080" height="1080" viewBox="0 0 1080 1080" fill="none" xmlns="http://www.w3.org/2000/svg">
<path d="M827 831.804L755.5 807.204L789.9 641.004L899.1 678.504L827 831.804Z" fill="#FF7F41"/>
<path d="M898.899 686.803L785.099 647.703C783.399 647.103 782.399 645.203 782.999 643.503L785.999 634.803C786.599 633.103 788.499 632.103 790.199 632.703L903.999 671.803C905.699 672.403 906.699 674.303 906.099 676.003L903.099 684.703C902.499 686.403 900.599 687.403 898.899 686.803Z" fill="#FF7F41"/>
<path d="M838.601 686.102L822.801 677.502L857.301 614.302C858.901 611.402 861.601 609.302 864.701 608.502C867.901 607.702 871.201 608.202 874.001 610.002L920.501 639.702L910.801 654.902L869.901 628.802L838.601 686.102Z" fill="#FF7F41"/>
<path d="M815.4 761.003C830.533 761.003 842.8 748.736 842.8 733.603C842.8 718.47 830.533 706.203 815.4 706.203C800.267 706.203 788 718.47 788 733.603C788 748.736 800.267 761.003 815.4 761.003Z" fill="white"/>
<path d="M382.502 547.5L373.802 538.9L347.002 543.8L291.402 486.5L382.002 420L376.402 414.5C372.102 410.2 365.702 408.9 360.102 411.2L257.902 452L232.902 426.2C224.102 417.1 198.602 403.2 191.102 410.7C183.602 418.2 197.802 443.6 207.002 452.3L233.002 477L193.202 579.6C191.002 585.2 192.402 591.6 196.702 595.9L202.302 601.4L267.902 510.1L325.802 565.1L321.102 592L329.802 600.6L348.902 566.8L382.502 547.5Z" fill="#FDDA24"/>
<path d="M202.302 602.002L196.402 596.202C192.002 591.802 190.602 585.302 192.802 579.502L232.502 477.102L206.702 452.502C199.602 445.802 188.802 428.202 188.602 417.102C188.602 414.202 189.302 411.902 190.802 410.402C192.302 408.902 194.602 408.202 197.502 408.102C208.602 408.202 226.302 418.802 233.102 425.902L257.902 451.502L359.902 410.802C365.602 408.502 372.202 409.802 376.602 414.202L382.502 420.002L291.902 486.502L347.102 543.402L373.902 538.502L383.002 547.602L349.102 567.202L329.902 601.302L320.802 592.202L325.402 565.302L268.002 510.702L202.302 602.002ZM197.502 408.802C194.802 408.802 192.702 409.502 191.402 410.902C190.002 412.302 189.402 414.402 189.402 417.102C189.602 427.602 200.202 445.302 207.302 452.002L233.502 476.902L233.402 477.102L193.602 579.702C191.502 585.202 192.802 591.402 197.002 595.602L202.302 600.802L267.902 509.502L268.202 509.802L326.202 564.902L321.502 591.802L329.702 599.902L348.602 566.402H348.702L381.902 547.302L373.702 539.202L346.902 544.102L346.802 544.002L290.902 486.402L381.502 419.902L376.202 414.702C372.002 410.502 365.802 409.302 360.302 411.502L257.802 452.402L232.602 426.502C225.802 419.402 208.102 408.902 197.502 408.802C197.602 408.802 197.502 408.802 197.502 408.802Z" fill="#FDDA24"/>
<path d="M847.8 369.599L678.5 367.099C675.2 367.099 672.5 364.299 672.5 360.999L675 191.699C675 188.399 677.8 185.699 681.1 185.699L850.4 188.199C853.7 188.199 856.4 190.999 856.4 194.299L854 363.599C853.9 366.899 851.2 369.599 847.8 369.599Z" fill="#F5B6CD"/>
<path d="M755.337 186.778L752.672 368.16L773.67 368.469L776.335 187.087L755.337 186.778Z" fill="#59CBE8"/>
<path d="M673.968 265.795L673.66 286.793L855.042 289.453L855.35 268.455L673.968 265.795Z" fill="#59CBE8"/>
<path d="M765.798 199.401C764.498 199.401 763.198 199.201 761.898 198.701L701.198 174.601C692.498 171.201 686.198 163.701 684.098 154.601C681.998 145.501 684.598 136.001 690.898 129.201C696.498 123.101 704.498 119.801 712.798 120.101C721.098 120.401 728.798 124.401 733.898 131.001L774.098 182.501C776.998 186.201 777.098 191.501 774.198 195.301C772.198 197.901 768.998 199.401 765.798 199.401ZM711.598 141.001C710.298 141.001 708.098 141.301 706.298 143.301C703.998 145.801 704.298 148.701 704.598 149.801C704.898 150.901 705.798 153.701 708.998 154.901L733.798 164.801L717.398 143.701C715.598 141.401 713.198 141.001 711.998 140.901C711.898 141.001 711.798 141.001 711.598 141.001Z" fill="#59CBE8"/>
<path d="M765.8 199.401C762.5 199.401 759.2 197.801 757.2 194.901C754.5 191.001 754.7 185.801 757.7 182.201L799.4 131.901C804.7 125.501 812.5 121.801 820.8 121.701C829.1 121.601 837 125.101 842.5 131.401C848.6 138.401 850.9 148.001 848.5 157.001C846.1 166.001 839.6 173.301 830.8 176.501L769.4 198.801C768.2 199.201 767 199.401 765.8 199.401ZM821.2 142.601C821.1 142.601 821.1 142.601 821.2 142.601C819.9 142.601 817.5 143.001 815.6 145.201L798.6 165.801L823.7 156.701C826.9 155.501 828 152.801 828.2 151.701C828.5 150.601 828.9 147.701 826.7 145.101C824.8 142.901 822.4 142.601 821.2 142.601Z" fill="#59CBE8"/>
<path d="M285.8 700.699C177.8 700.699 90 612.899 90 504.999C90 482.399 93.8 460.199 101.4 438.999C104.6 430.199 114.3 425.599 123.1 428.699C131.9 431.899 136.5 441.599 133.4 450.399C127.2 467.899 124 486.199 124 504.999C124 594.199 196.6 666.799 285.8 666.799C375 666.799 447.5 594.199 447.5 504.999C447.5 474.099 438.8 444.099 422.2 418.199C406.1 392.899 383.4 372.699 356.5 359.599C348.1 355.499 344.6 345.299 348.7 336.899C352.8 328.499 363 324.999 371.4 329.099C403.9 344.999 431.4 369.499 450.8 399.999C470.8 431.399 481.4 467.699 481.4 505.099C481.5 612.899 393.7 700.699 285.8 700.699Z" fill="#FF7F41"/>
<path d="M141.099 416.899C137.599 416.899 134.099 415.799 131.099 413.599C123.499 408.099 121.799 397.399 127.399 389.899C145.199 365.499 168.699 345.199 195.499 331.199C223.199 316.799 254.399 309.199 285.799 309.199C295.199 309.199 302.799 316.799 302.799 326.199C302.799 335.599 295.199 343.199 285.799 343.199C259.499 343.199 234.399 349.299 211.199 361.399C189.099 372.899 169.599 389.699 154.899 409.899C151.599 414.499 146.399 416.899 141.099 416.899Z" fill="#FF7F41"/>
<path d="M912.298 603.698C909.898 603.698 907.398 602.998 905.198 601.498C900.498 598.298 895.498 595.298 890.398 592.698C884.298 589.498 881.898 581.998 884.998 575.898C888.198 569.798 895.698 567.398 901.798 570.498C907.798 573.598 913.598 577.098 919.198 580.898C924.898 584.798 926.298 592.598 922.398 598.298C920.198 601.798 916.298 603.698 912.298 603.698Z" fill="#F5B6CD"/>
<path d="M972.401 686.1C967.001 686.1 962.001 682.6 960.401 677.2C954.701 658 945.101 640.6 931.901 625.4C927.401 620.2 927.901 612.3 933.101 607.8C938.301 603.3 946.201 603.8 950.701 609C966.301 626.9 977.601 647.5 984.301 670.1C986.301 676.7 982.501 683.7 975.901 685.6C974.801 685.9 973.601 686.1 972.401 686.1Z" fill="#F5B6CD"/>
<path d="M826.098 882.4C734.998 882.4 660.898 808.3 660.898 717.2C660.898 626.1 734.998 552 826.098 552C832.998 552 838.598 557.6 838.598 564.5C838.598 571.4 832.998 577 826.098 577C748.798 577.1 685.998 640 685.998 717.3C685.998 794.6 748.898 857.5 826.198 857.5C903.498 857.5 966.398 794.6 966.398 717.3C966.398 715.3 966.398 713.2 966.298 711.2C965.998 704.3 971.398 698.5 978.298 698.2C985.198 697.9 990.998 703.3 991.298 710.2C991.398 712.6 991.498 715 991.498 717.4C991.298 808.3 917.198 882.4 826.098 882.4Z" fill="#F5B6CD"/>
<path d="M766.998 443.1C658.298 443.1 569.898 354.7 569.898 246C569.898 137.4 658.298 49 766.998 49C807.498 49 846.398 61.2 879.598 84.3C911.998 106.9 936.598 138.1 950.798 174.8C954.098 183.3 949.898 192.9 941.398 196.2C932.898 199.5 923.298 195.3 919.998 186.8C908.198 156.3 887.698 130.3 860.698 111.5C833.098 92.2 800.698 82 766.998 82C676.498 82 602.898 155.6 602.898 246.1C602.898 336.6 676.498 410.2 766.998 410.2C794.998 410.2 822.598 403 846.898 389.5C854.898 385.1 864.898 387.9 869.398 395.9C873.798 403.9 870.998 413.9 862.998 418.4C833.698 434.5 800.598 443.1 766.998 443.1Z" fill="#00C389"/>
<path d="M921.698 355.602C918.798 355.602 915.898 354.802 913.198 353.202C905.398 348.502 902.898 338.402 907.598 330.602C922.898 305.202 930.998 276.002 930.998 246.102C930.998 237.002 938.398 229.602 947.498 229.602C956.598 229.602 963.998 237.002 963.998 246.102C963.998 282.002 954.298 317.102 935.898 347.602C932.798 352.702 927.298 355.602 921.698 355.602Z" fill="#00C389"/>
<path d="M577.502 1031.7C688.732 1031.7 778.902 941.529 778.902 830.298C778.902 719.068 688.732 628.898 577.502 628.898C466.271 628.898 376.102 719.068 376.102 830.298C376.102 941.529 466.271 1031.7 577.502 1031.7Z" fill="#E4AC7B"/>
<path d="M670.904 905.198L438.304 905.298C413.404 905.298 393.204 885.099 393.204 860.198L393.004 334.098C393.004 309.198 413.204 288.998 438.104 288.998L670.704 288.898C695.604 288.898 715.804 309.098 715.804 333.998L716.004 860.098C716.104 884.998 695.904 905.198 670.904 905.198Z" fill="#59CBE8"/>
<path d="M554.605 889.797C565.927 889.797 575.105 880.619 575.105 869.297C575.105 857.975 565.927 848.797 554.605 848.797C543.284 848.797 534.105 857.975 534.105 869.297C534.105 880.619 543.284 889.797 554.605 889.797Z" fill="white"/>
<path d="M691.703 357.398L691.803 829.498H691.703L417.403 829.598V775.198L417.203 357.498L691.703 357.398Z" fill="white"/>
<path d="M636.901 562.799C634.101 562.799 631.801 560.499 631.801 557.699C631.801 518.099 599.501 485.899 559.901 485.899C557.101 485.899 554.801 483.599 554.801 480.799C554.801 477.999 557.101 475.699 559.901 475.699C605.201 475.699 642.001 512.499 642.001 557.799C642.101 560.499 639.801 562.799 636.901 562.799Z" fill="#00C389"/>
<path d="M544.6 639.898C541.8 639.898 539.5 637.598 539.5 634.798V633.298C539.5 631.798 540.2 630.298 541.4 629.298C542.6 628.298 544.2 627.898 545.7 628.198C550.4 629.198 555.2 629.598 560.1 629.598C599.7 629.598 632 597.298 631.9 557.698C631.9 554.898 634.2 552.598 637 552.598C639.8 552.598 642.1 554.898 642.1 557.698C642.1 602.998 605.3 639.798 560 639.898C555.8 639.898 551.7 639.598 547.6 638.998C546.7 639.498 545.7 639.798 544.6 639.898Z" fill="#F5B6CD"/>
<path d="M513.802 680.897C504.202 680.897 495.202 677.197 488.402 670.397C481.602 663.597 477.902 654.597 477.902 644.997V562.897C477.902 560.097 480.202 557.797 483.002 557.797C485.802 557.797 488.102 560.097 488.102 562.897V644.997C488.102 651.897 490.802 658.297 495.602 663.097C500.402 667.897 506.902 670.597 513.702 670.597C520.602 670.597 527.002 667.897 531.802 663.097C536.602 658.297 539.302 651.797 539.302 644.897V634.597C539.302 631.797 541.602 629.497 544.402 629.497C547.202 629.497 549.502 631.797 549.502 634.597V644.897C549.502 654.497 545.802 663.497 539.002 670.297C532.402 677.197 523.402 680.897 513.802 680.897Z" fill="#FDDA24"/>
<path d="M559.901 608.997C542.701 608.997 526.701 600.396 517.101 586.096C515.501 583.696 516.201 580.597 518.501 578.997C520.901 577.397 524.001 578.097 525.601 580.397C533.201 591.897 546.001 598.797 559.801 598.797C570.501 598.797 580.601 594.696 588.301 587.096C591.601 583.896 592.501 579.397 590.701 574.997C589.301 571.597 585.801 567.897 580.201 567.897C578.101 567.897 576.501 569.497 575.701 570.397C571.801 575.297 566.001 578.096 559.701 578.096C554.201 578.096 549.101 575.996 545.201 572.096C541.301 568.196 539.201 563.097 539.201 557.597C539.201 546.297 548.401 537.097 559.701 537.097C565.901 537.097 571.801 539.896 575.701 544.796C576.501 545.696 578.001 547.296 580.101 547.296C584.301 547.296 586.901 545.297 588.401 543.697C590.601 541.297 591.701 537.996 591.401 534.796C591.101 531.996 593.201 529.497 596.001 529.197C598.801 528.897 601.301 530.996 601.601 533.796C602.201 539.896 600.201 545.997 596.001 550.597C591.901 555.097 586.301 557.597 580.101 557.597C589.001 557.597 596.701 562.796 600.101 571.096C603.501 579.296 601.601 588.197 595.401 594.397C586.101 603.897 573.401 608.997 559.901 608.997C560.001 608.997 559.901 608.997 559.901 608.997ZM559.901 547.397C554.201 547.397 549.601 551.997 549.601 557.697C549.601 560.397 550.701 562.997 552.601 564.997C554.501 566.897 557.101 567.997 559.901 567.997C563.001 567.997 565.901 566.596 567.901 564.096C571.201 559.996 575.601 557.697 580.301 557.697C575.501 557.697 571.101 555.396 567.801 551.296C565.901 548.896 563.001 547.397 559.901 547.397Z" fill="#FF7F41"/>
<path d="M521.4 588.396C519.7 588.396 518.1 587.596 517.1 586.096C511.5 577.696 508.5 567.896 508.5 557.696C508.5 543.696 514.6 529.996 525.4 520.096C536.1 510.296 550.3 505.296 564.3 506.496C576 507.496 587 512.596 595.4 520.796C599.1 524.396 601.3 528.896 601.8 533.896C602.1 536.696 600 539.196 597.2 539.496C594.4 539.796 591.9 537.696 591.6 534.896C591.3 532.396 590.2 529.996 588.3 528.196C581.6 521.696 572.8 517.596 563.5 516.796C552.3 515.796 541 519.796 532.4 527.696C523.8 535.596 518.9 546.496 518.9 557.696C518.9 565.796 521.3 573.696 525.7 580.396C527.3 582.796 526.6 585.896 524.3 587.496C523.4 588.096 522.4 588.396 521.4 588.396Z" fill="#9063CD"/>
<path d="M482.901 562.898C480.101 562.898 477.801 560.598 477.801 557.798C477.801 535.898 486.301 515.198 501.801 499.698C517.301 484.198 537.901 475.598 559.901 475.598C562.701 475.598 565.001 477.898 565.001 480.698C565.001 483.498 562.701 485.798 559.901 485.798C540.701 485.798 522.701 493.298 509.101 506.898C495.501 520.498 488.101 538.498 488.101 557.698C488.101 560.598 485.801 562.898 482.901 562.898Z" fill="#59CBE8"/>
<path d="M691.702 775.102H417.402V829.602H691.702V775.102Z" fill="#FDDA24"/>
<path d="M416.902 830.1V774.6H417.402L692.202 774.5V830H691.702L416.902 830.1ZM417.902 775.7V829.2L691.202 829.1V775.6L417.902 775.7Z" fill="#FDDA24"/>
<path d="M773.104 851.397C766.304 883.097 752.704 913.297 733.104 939.697C728.704 945.597 725.104 952.597 722.104 960.197C718.604 968.997 692.404 982.097 682.804 976.997L626.404 905.497C624.204 896.697 623.004 887.497 623.004 877.997C623.004 840.297 641.604 806.997 670.104 786.697C679.204 780.197 681.004 778.197 691.804 774.697V726.897L649.304 639.497C632.604 613.497 640.204 578.997 666.104 562.297C667.204 561.597 668.404 561.297 669.604 561.297C671.704 561.297 673.804 562.297 675.004 564.297L720.904 635.797L760.604 697.097C770.004 711.597 775.304 728.297 776.104 745.597L777.104 767.697L777.404 774.197V774.397L778.204 792.297C779.004 812.297 777.304 832.097 773.104 851.397Z" fill="#E4AC7B"/>
<path d="M379.102 823.999L346.302 782.799C333.202 766.399 335.902 742.499 352.402 729.399L382.102 705.699L438.602 776.599C451.702 792.999 449.002 816.899 432.502 829.999C416.102 843.099 392.202 840.399 379.102 823.999Z" fill="#E4AC7B"/>
<path d="M379.102 747.198L346.302 705.998C333.202 689.598 335.902 665.698 352.302 652.598L382.002 628.898L438.502 699.798C451.602 716.198 448.902 740.098 432.402 753.198C416.002 766.298 392.102 763.598 379.102 747.198Z" fill="#E4AC7B"/>
<path d="M379.102 670.3L346.302 629.1C333.202 612.7 335.902 588.8 352.402 575.7L382.102 552L438.602 622.9C451.702 639.3 449.002 663.2 432.602 676.3C416.002 689.5 392.102 686.8 379.102 670.3Z" fill="#E4AC7B"/>
<path d="M382.004 475.298L393.104 466.898V507.798L382.004 475.298Z" fill="#E4AC7B"/>
<path d="M379.001 593.499L346.201 552.299C333.101 535.899 335.801 511.999 352.301 498.899L382.001 475.199L438.501 546.099C451.601 562.499 448.901 586.399 432.401 599.499C416.001 612.599 392.101 609.899 379.001 593.499Z" fill="#E4AC7B"/>
</svg>
