<svg width="300" height="300" viewBox="0 0 300 300" fill="none" xmlns="http://www.w3.org/2000/svg">
<path d="M229.722 231.056L209.861 224.222L219.417 178.056L249.75 188.472L229.722 231.056Z" fill="#FF7F41"/>
<path d="M249.694 190.778L218.083 179.917C217.611 179.75 217.333 179.222 217.5 178.75L218.333 176.333C218.5 175.861 219.028 175.583 219.5 175.75L251.111 186.611C251.583 186.778 251.861 187.306 251.694 187.778L250.861 190.194C250.694 190.667 250.167 190.944 249.694 190.778Z" fill="#FF7F41"/>
<path d="M232.944 190.583L228.555 188.194L238.139 170.639C238.583 169.833 239.333 169.25 240.194 169.028C241.083 168.806 242 168.944 242.778 169.444L255.694 177.694L253 181.917L241.639 174.667L232.944 190.583Z" fill="#FF7F41"/>
<path d="M226.5 211.389C230.704 211.389 234.111 207.981 234.111 203.778C234.111 199.574 230.704 196.167 226.5 196.167C222.297 196.167 218.889 199.574 218.889 203.778C218.889 207.981 222.297 211.389 226.5 211.389Z" fill="white"/>
<path d="M95.2777 116.667H66.4722H62.5277V134.278V150.555C61.5555 150.083 60.4722 149.805 59.3333 149.805C55.3888 149.805 52.2222 153 52.2222 156.917C52.2222 160.861 55.4166 164.028 59.3333 164.028C63.2499 164.028 66.4722 160.861 66.4722 156.917V134.278H95.2777V150.555C94.3055 150.083 93.2222 149.805 92.0833 149.805C88.1388 149.805 84.9722 153 84.9722 156.917C84.9722 160.861 88.1666 164.028 92.0833 164.028C95.9999 164.028 99.1944 160.833 99.1944 156.917V134.278V116.667H95.2777Z" fill="#9063CD"/>
<path d="M79.3889 194.639C49.3889 194.639 25 170.25 25 140.278C25 134 26.0556 127.833 28.1667 121.944C29.0556 119.5 31.75 118.222 34.1944 119.083C36.6389 119.972 37.9167 122.667 37.0556 125.111C35.3333 129.972 34.4444 135.056 34.4444 140.278C34.4444 165.056 54.6111 185.222 79.3889 185.222C104.167 185.222 124.306 165.056 124.306 140.278C124.306 131.694 121.889 123.361 117.278 116.167C112.806 109.139 106.5 103.528 99.0278 99.8889C96.6944 98.75 95.7222 95.9166 96.8611 93.5833C98 91.25 100.833 90.2777 103.167 91.4166C112.194 95.8333 119.833 102.639 125.222 111.111C130.778 119.833 133.722 129.917 133.722 140.306C133.75 170.25 109.361 194.639 79.3889 194.639Z" fill="#FF7F41"/>
<path d="M39.1945 115.806C38.2223 115.806 37.25 115.5 36.4167 114.889C34.3056 113.361 33.8334 110.389 35.3889 108.306C40.3334 101.528 46.8612 95.8889 54.3056 92C62 88 70.6667 85.8889 79.3889 85.8889C82 85.8889 84.1112 88 84.1112 90.6111C84.1112 93.2222 82 95.3334 79.3889 95.3334C72.0834 95.3334 65.1112 97.0278 58.6667 100.389C52.5278 103.583 47.1112 108.25 43.0278 113.861C42.1112 115.139 40.6667 115.806 39.1945 115.806Z" fill="#FF7F41"/>
<path d="M253.417 167.694C252.75 167.694 252.056 167.5 251.444 167.083C250.139 166.194 248.75 165.361 247.333 164.639C245.639 163.75 244.972 161.667 245.833 159.972C246.722 158.278 248.806 157.611 250.5 158.472C252.167 159.333 253.778 160.305 255.333 161.361C256.917 162.444 257.306 164.611 256.222 166.194C255.611 167.167 254.528 167.694 253.417 167.694Z" fill="#F5B6CD"/>
<path d="M270.111 190.583C268.611 190.583 267.222 189.611 266.778 188.111C265.194 182.778 262.528 177.944 258.861 173.722C257.611 172.278 257.75 170.083 259.194 168.833C260.639 167.583 262.833 167.722 264.083 169.167C268.417 174.139 271.555 179.861 273.417 186.139C273.972 187.972 272.917 189.917 271.083 190.444C270.778 190.528 270.444 190.583 270.111 190.583Z" fill="#F5B6CD"/>
<path d="M229.472 245.111C204.167 245.111 183.583 224.528 183.583 199.222C183.583 173.917 204.167 153.333 229.472 153.333C231.389 153.333 232.944 154.889 232.944 156.805C232.944 158.722 231.389 160.278 229.472 160.278C208 160.305 190.555 177.778 190.555 199.25C190.555 220.722 208.028 238.194 229.5 238.194C250.972 238.194 268.444 220.722 268.444 199.25C268.444 198.694 268.444 198.111 268.417 197.556C268.333 195.639 269.833 194.028 271.75 193.944C273.667 193.861 275.278 195.361 275.361 197.278C275.389 197.944 275.417 198.611 275.417 199.278C275.361 224.528 254.778 245.111 229.472 245.111Z" fill="#F5B6CD"/>
<path d="M213.055 123.083C182.861 123.083 158.305 98.5278 158.305 68.3333C158.305 38.1666 182.861 13.6111 213.055 13.6111C224.305 13.6111 235.111 17 244.333 23.4166C253.333 29.6944 260.167 38.3611 264.111 48.5555C265.028 50.9166 263.861 53.5833 261.5 54.5C259.139 55.4166 256.472 54.25 255.555 51.8889C252.278 43.4166 246.583 36.1944 239.083 30.9722C231.417 25.6111 222.417 22.7778 213.055 22.7778C187.917 22.7778 167.472 43.2222 167.472 68.3611C167.472 93.5 187.917 113.944 213.055 113.944C220.833 113.944 228.5 111.944 235.25 108.194C237.472 106.972 240.25 107.75 241.5 109.972C242.722 112.194 241.944 114.972 239.722 116.222C231.583 120.694 222.389 123.083 213.055 123.083Z" fill="#00C389"/>
<path d="M231.222 51.6666H194.472C185.25 51.6666 177.778 59.1388 177.778 68.3611C177.778 77.5833 185.25 85.0555 194.472 85.0555C200.639 85.0555 206.028 81.6944 208.917 76.7222H216.778C219.667 81.6944 225.056 85.0555 231.222 85.0555C240.444 85.0555 247.917 77.5833 247.917 68.3611C247.917 59.1388 240.444 51.6666 231.222 51.6666Z" fill="#FDDA24"/>
<path d="M201.778 65.4721H196.695V60.3888H190.889V65.4721H185.806V71.2777H190.889V76.361H196.695V71.2777H201.778V65.4721Z" fill="white"/>
<path d="M224.222 70.9166C225.971 70.9166 227.389 69.4988 227.389 67.7499C227.389 66.001 225.971 64.5833 224.222 64.5833C222.473 64.5833 221.056 66.001 221.056 67.7499C221.056 69.4988 222.473 70.9166 224.222 70.9166Z" fill="#00C389"/>
<path d="M239.083 70.9166C240.832 70.9166 242.25 69.4988 242.25 67.7499C242.25 66.001 240.832 64.5833 239.083 64.5833C237.335 64.5833 235.917 66.001 235.917 67.7499C235.917 69.4988 237.335 70.9166 239.083 70.9166Z" fill="#F5B6CD"/>
<path d="M231.639 78.3332C233.388 78.3332 234.805 76.9154 234.805 75.1665C234.805 73.4176 233.388 71.9999 231.639 71.9999C229.89 71.9999 228.472 73.4176 228.472 75.1665C228.472 76.9154 229.89 78.3332 231.639 78.3332Z" fill="#9063CD"/>
<path d="M231.639 63.4721C233.388 63.4721 234.805 62.0544 234.805 60.3055C234.805 58.5566 233.388 57.1388 231.639 57.1388C229.89 57.1388 228.472 58.5566 228.472 60.3055C228.472 62.0544 229.89 63.4721 231.639 63.4721Z" fill="#FF7F41"/>
<path d="M216.056 69.2222H209.611V72.2499H216.056V69.2222Z" fill="white"/>
<path d="M256.028 98.7778C255.222 98.7778 254.417 98.5556 253.667 98.1112C251.5 96.8056 250.805 94.0001 252.111 91.8334C256.361 84.7778 258.611 76.6667 258.611 68.3612C258.611 65.8334 260.667 63.7778 263.194 63.7778C265.722 63.7778 267.778 65.8334 267.778 68.3612C267.778 78.3334 265.083 88.0834 259.972 96.5556C259.111 97.9723 257.583 98.7778 256.028 98.7778Z" fill="#00C389"/>
<path d="M160.417 286.583C191.314 286.583 216.361 261.536 216.361 230.639C216.361 199.742 191.314 174.694 160.417 174.694C129.519 174.694 104.472 199.742 104.472 230.639C104.472 261.536 129.519 286.583 160.417 286.583Z" fill="#E4AC7B"/>
<path d="M186.361 251.444L121.75 251.472C114.833 251.472 109.222 245.861 109.222 238.944L109.167 92.8056C109.167 85.8889 114.778 80.2778 121.694 80.2778L186.305 80.25C193.222 80.25 198.833 85.8611 198.833 92.7778L198.889 238.917C198.917 245.833 193.305 251.444 186.361 251.444Z" fill="#59CBE8"/>
<path d="M154.055 247.167C157.2 247.167 159.75 244.617 159.75 241.472C159.75 238.327 157.2 235.778 154.055 235.778C150.91 235.778 148.361 238.327 148.361 241.472C148.361 244.617 150.91 247.167 154.055 247.167Z" fill="white"/>
<path d="M192.139 99.2778L192.167 230.417H192.139L115.944 230.444V215.333L115.889 99.3056L192.139 99.2778Z" fill="white"/>
<path d="M177.306 190.144L130.278 189.45C129.361 189.45 128.611 188.672 128.611 187.755L129.306 140.727C129.306 139.811 130.083 139.061 131 139.061L178.028 139.755C178.944 139.755 179.694 140.533 179.694 141.45L179.028 188.477C179 189.394 178.25 190.144 177.306 190.144Z" fill="#F5B6CD"/>
<path d="M151.622 139.36L150.882 189.744L156.714 189.829L157.455 139.446L151.622 139.36Z" fill="#59CBE8"/>
<path d="M129.019 161.309L128.933 167.142L179.317 167.881L179.402 162.048L129.019 161.309Z" fill="#59CBE8"/>
<path d="M154.528 142.866C154.167 142.866 153.805 142.811 153.444 142.672L136.583 135.977C134.167 135.033 132.417 132.95 131.833 130.422C131.25 127.894 131.972 125.255 133.722 123.366C135.278 121.672 137.5 120.755 139.805 120.839C142.111 120.922 144.25 122.033 145.667 123.866L156.833 138.172C157.639 139.2 157.667 140.672 156.861 141.728C156.305 142.45 155.417 142.866 154.528 142.866ZM139.472 126.644C139.111 126.644 138.5 126.727 138 127.283C137.361 127.977 137.444 128.783 137.528 129.089C137.611 129.394 137.861 130.172 138.75 130.505L145.639 133.255L141.083 127.394C140.583 126.755 139.917 126.644 139.583 126.616C139.555 126.644 139.528 126.644 139.472 126.644Z" fill="#59CBE8"/>
<path d="M154.528 142.866C153.611 142.866 152.694 142.422 152.139 141.616C151.389 140.533 151.444 139.089 152.278 138.089L163.861 124.116C165.333 122.339 167.5 121.311 169.805 121.283C172.111 121.255 174.306 122.227 175.833 123.977C177.528 125.922 178.167 128.589 177.5 131.089C176.833 133.589 175.028 135.616 172.583 136.505L155.528 142.7C155.194 142.811 154.861 142.866 154.528 142.866ZM169.917 127.089C169.889 127.089 169.889 127.089 169.917 127.089C169.556 127.089 168.889 127.2 168.361 127.811L163.639 133.533L170.611 131.005C171.5 130.672 171.806 129.922 171.861 129.616C171.944 129.311 172.056 128.505 171.444 127.783C170.917 127.172 170.25 127.089 169.917 127.089Z" fill="#59CBE8"/>
<path d="M192.139 215.306H115.944V230.444H192.139V215.306Z" fill="#FDDA24"/>
<path d="M115.805 230.583V215.167H115.944L192.278 215.139V230.556H192.139L115.805 230.583ZM116.083 215.472V230.333L192 230.306V215.444L116.083 215.472Z" fill="#FDDA24"/>
<path d="M214.75 236.5C212.861 245.305 209.083 253.694 203.639 261.028C202.417 262.667 201.417 264.611 200.583 266.722C199.611 269.167 192.333 272.805 189.667 271.389L174 251.528C173.389 249.083 173.055 246.528 173.055 243.889C173.055 233.417 178.222 224.167 186.139 218.528C188.667 216.722 189.167 216.167 192.167 215.194V201.917L180.361 177.639C175.722 170.417 177.833 160.833 185.028 156.194C185.333 156 185.667 155.917 186 155.917C186.583 155.917 187.167 156.194 187.5 156.75L200.25 176.611L211.278 193.639C213.889 197.667 215.361 202.305 215.583 207.111L215.861 213.25L215.944 215.056V215.111L216.167 220.083C216.389 225.639 215.917 231.139 214.75 236.5Z" fill="#E4AC7B"/>
<path d="M105.306 228.889L96.1944 217.444C92.5555 212.889 93.3055 206.25 97.8888 202.611L106.139 196.028L121.833 215.722C125.472 220.278 124.722 226.917 120.139 230.555C115.583 234.194 108.944 233.444 105.306 228.889Z" fill="#E4AC7B"/>
<path d="M105.305 207.556L96.1944 196.111C92.5555 191.556 93.3055 184.917 97.861 181.278L106.111 174.694L121.805 194.389C125.444 198.944 124.694 205.583 120.111 209.222C115.555 212.861 108.917 212.111 105.305 207.556Z" fill="#E4AC7B"/>
<path d="M105.306 186.194L96.1944 174.75C92.5555 170.194 93.3055 163.556 97.8888 159.917L106.139 153.333L121.833 173.028C125.472 177.583 124.722 184.222 120.167 187.861C115.556 191.528 108.917 190.778 105.306 186.194Z" fill="#E4AC7B"/>
<path d="M106.111 132.028L109.194 129.694V141.056L106.111 132.028Z" fill="#E4AC7B"/>
<path d="M105.278 164.861L96.1666 153.417C92.5277 148.861 93.2777 142.222 97.861 138.583L106.111 132L121.805 151.694C125.444 156.25 124.694 162.889 120.111 166.528C115.555 170.167 108.917 169.417 105.278 164.861Z" fill="#E4AC7B"/>
</svg>
