<svg width="1080" height="1080" viewBox="0 0 1080 1080" fill="none" xmlns="http://www.w3.org/2000/svg">
<path d="M548.282 999.581C712.421 999.581 845.482 872.699 845.482 716.181C845.482 559.664 712.421 432.781 548.282 432.781C384.143 432.781 251.082 559.664 251.082 716.181C251.082 872.699 384.143 999.581 548.282 999.581Z" fill="#F5B6CD"/>
<path d="M387.08 826.483L238.68 835.183C212.88 836.683 190.68 816.983 189.18 791.183L181.08 652.083C179.58 626.283 199.28 604.083 225.08 602.583L373.48 593.883L387.08 826.483Z" fill="#F5B6CD"/>
<path d="M404.379 1050.18L350.579 1034.68C323.979 1026.98 308.679 999.282 316.379 972.682L345.679 870.582L495.679 913.782L466.379 1015.88C458.679 1042.48 430.879 1057.78 404.379 1050.18Z" fill="#F5B6CD"/>
<path d="M740.88 1033.28L687.48 1050.28C661.18 1058.68 632.98 1044.08 624.68 1017.68L592.48 916.482L741.18 869.082L773.38 970.282C781.78 996.682 767.28 1024.88 740.88 1033.28Z" fill="#F5B6CD"/>
<path d="M465.081 535.282L325.781 562.482L292.781 392.482C369.681 377.482 444.181 427.682 459.181 504.682L465.081 535.282Z" fill="#F5B6CD"/>
<path d="M641.981 502.682C639.881 502.682 637.682 502.282 635.581 501.482C587.081 482.982 532.682 480.382 482.582 494.382C473.082 496.982 463.182 491.482 460.582 481.982C457.982 472.482 463.481 462.582 472.981 459.982C530.481 443.982 592.681 446.882 648.281 468.182C657.481 471.682 662.182 482.082 658.581 491.282C655.981 498.282 649.181 502.682 641.981 502.682Z" fill="#9063CD"/>
<path d="M830.78 763.584C830.78 763.584 887.38 751.984 898.48 705.684H808.98L830.78 763.584Z" fill="#F5B6CD"/>
<path d="M556.978 457.784C601.382 457.784 637.378 421.788 637.378 377.384C637.378 332.981 601.382 296.984 556.978 296.984C512.574 296.984 476.578 332.981 476.578 377.384C476.578 421.788 512.574 457.784 556.978 457.784Z" fill="#FDDA24"/>
<path d="M557.079 458.085C552.279 458.085 547.479 457.685 542.579 456.785C498.779 448.785 469.679 406.685 477.679 362.885C481.579 341.685 493.479 323.285 511.179 310.985C528.879 298.685 550.379 294.085 571.579 297.985C615.379 305.985 644.479 348.085 636.479 391.885C629.279 430.785 595.279 458.085 557.079 458.085ZM556.879 297.285C540.779 297.285 525.079 302.185 511.479 311.485C493.879 323.685 482.079 341.885 478.279 362.985C470.379 406.385 499.279 448.185 542.679 456.085C586.079 463.985 627.879 435.085 635.779 391.685L636.079 391.785L635.779 391.685C643.679 348.285 614.779 306.485 571.379 298.585C566.479 297.685 561.679 297.285 556.879 297.285Z" fill="#FDDA24"/>
<path d="M556.98 423.686C582.55 423.686 603.28 402.957 603.28 377.386C603.28 351.815 582.55 331.086 556.98 331.086C531.409 331.086 510.68 351.815 510.68 377.386C510.68 402.957 531.409 423.686 556.98 423.686Z" fill="#FF7F41"/>
<path d="M523.078 196.781C547.655 196.781 567.578 176.858 567.578 152.281C567.578 127.705 547.655 107.781 523.078 107.781C498.501 107.781 478.578 127.705 478.578 152.281C478.578 176.858 498.501 196.781 523.078 196.781Z" fill="#FDDA24"/>
<path d="M523.18 196.983C520.48 196.983 517.78 196.783 515.08 196.283C490.78 191.883 474.68 168.483 479.08 144.283C483.48 119.983 506.88 103.883 531.08 108.283C542.88 110.383 553.08 116.983 559.88 126.883C566.68 136.683 569.28 148.583 567.08 160.383H566.88H567.08C564.98 172.183 558.38 182.383 548.48 189.183C540.98 194.283 532.18 196.983 523.18 196.983ZM523.08 107.883C502.08 107.883 483.38 122.883 479.48 144.283C475.08 168.383 491.08 191.483 515.18 195.883C526.88 197.983 538.58 195.483 548.38 188.683C558.08 181.983 564.68 171.783 566.78 160.183C568.88 148.483 566.38 136.783 559.58 126.983C552.88 117.283 542.68 110.683 531.08 108.583C528.38 108.183 525.68 107.883 523.08 107.883Z" fill="#FDDA24"/>
<path d="M523.079 177.982C537.273 177.982 548.779 166.476 548.779 152.282C548.779 138.088 537.273 126.582 523.079 126.582C508.885 126.582 497.379 138.088 497.379 152.282C497.379 166.476 508.885 177.982 523.079 177.982Z" fill="#FF7F41"/>
<path d="M438.08 427.881C430.48 427.881 423.38 423.081 420.78 415.381C420.58 414.781 420.38 414.181 420.18 413.481C419.38 411.281 418.58 408.781 417.88 405.981C417.78 405.581 417.68 405.181 417.58 404.781C417.28 403.681 416.98 402.681 416.78 401.581L416.68 400.981L415.18 393.581L414.08 386.181L413.48 378.681V376.481C413.48 375.981 413.48 375.481 413.48 375.081C413.48 374.081 413.48 372.981 413.48 371.981V371.281L413.68 367.281C413.68 365.381 413.88 363.781 413.98 362.481L414.28 359.681C414.38 358.381 414.58 357.281 414.78 356.181L415.48 352.181C415.68 350.681 416.08 349.381 416.28 348.381C416.38 347.981 416.48 347.681 416.58 347.281L417.28 344.381C417.48 343.781 417.58 343.181 417.78 342.581L417.98 341.781C418.08 341.381 418.28 340.881 418.38 340.481C418.68 339.381 418.98 338.381 419.38 337.281C421.38 331.181 423.88 325.281 426.98 319.081L427.08 318.781C429.98 313.181 433.38 307.581 437.18 302.081L437.38 301.881C441.08 296.681 445.28 291.681 449.68 286.881L449.88 286.681C454.28 281.981 458.98 277.581 463.88 273.381C471.58 266.881 483.08 267.781 489.58 275.481C496.08 283.181 495.18 294.681 487.48 301.181C483.58 304.481 479.88 307.981 476.38 311.681C472.98 315.381 469.88 319.281 466.98 323.181C464.18 327.281 461.58 331.481 459.48 335.581C457.18 340.181 455.38 344.481 453.98 348.781C453.78 349.381 453.58 349.981 453.48 350.581C453.28 351.181 453.18 351.781 452.98 352.281L452.78 352.981C452.68 353.181 452.68 353.381 452.58 353.481L452.18 355.081C452.08 355.681 451.88 356.281 451.78 356.881C451.68 357.381 451.48 358.081 451.48 358.381L450.68 362.981C450.68 362.981 450.68 363.081 450.68 363.181L450.38 366.481C450.28 367.081 450.28 367.881 450.28 368.081V368.681L450.08 372.481C450.08 373.081 450.08 373.681 450.08 374.281C450.08 374.881 450.08 375.481 450.08 376.081V377.581L450.48 382.781L451.28 387.981L452.38 393.381C452.58 393.981 452.68 394.581 452.88 395.181C453.08 395.781 453.18 396.281 453.38 396.881L453.48 397.281C453.78 398.581 454.38 400.181 454.88 401.781C455.18 402.481 455.38 403.281 455.68 403.981C458.88 413.481 453.68 423.781 444.18 426.981C441.88 427.581 439.98 427.881 438.08 427.881Z" fill="#F5B6CD"/>
<path d="M414.98 373.584C414.48 373.584 413.98 373.584 413.48 373.484C406.38 372.684 401.18 366.284 401.98 359.084C402.98 350.384 404.88 341.684 407.58 333.184C410.08 325.384 413.58 317.284 418.08 309.184C426.28 294.384 436.88 280.984 449.78 269.184C462.28 257.684 476.28 248.084 491.28 240.784L492.48 240.184C493.88 239.484 495.48 238.684 497.18 237.984L498.28 237.484C499.78 236.884 501.28 236.184 502.68 235.584L512.78 231.384C518.58 228.984 525.48 226.084 532.38 222.884C538.88 219.884 546.58 222.784 549.58 229.284C552.58 235.784 549.68 243.484 543.18 246.484C535.98 249.784 528.78 252.784 522.78 255.284L512.38 259.584C511.28 259.984 509.98 260.584 508.58 261.184L507.18 261.784C506.08 262.184 504.98 262.784 503.68 263.384L502.58 263.984C489.78 270.284 477.88 278.384 467.28 288.184C456.48 298.084 447.58 309.284 440.78 321.584C437.18 328.184 434.28 334.684 432.28 340.984C430.08 347.784 428.58 354.784 427.78 361.784C427.18 368.684 421.48 373.584 414.98 373.584Z" fill="#FDDA24"/>
<path d="M608.98 166.383C608.48 166.383 607.98 166.383 607.48 166.283C597.48 165.483 589.98 156.683 590.78 146.683C591.08 142.583 590.98 138.083 590.38 133.483C589.78 129.083 588.68 124.683 587.08 120.283C584.08 111.883 579.18 103.883 573.08 97.3825C567.08 90.9825 559.38 85.6825 550.88 81.9825C546.48 80.0825 541.88 78.5825 537.38 77.4825C532.48 76.3825 528.08 75.6825 523.78 75.5825C513.68 75.2825 505.88 66.8825 506.18 56.7825C506.48 46.6825 514.88 38.7825 524.98 39.1825C531.68 39.3825 538.48 40.2825 545.68 41.9825C552.28 43.4825 558.98 45.6825 565.38 48.4825C578.58 54.1825 590.18 62.1825 599.68 72.2825C609.28 82.4825 616.78 94.7825 621.48 107.983C623.88 114.583 625.58 121.483 626.48 128.283V128.483C627.48 135.683 627.68 142.783 627.08 149.483C626.28 159.183 618.38 166.383 608.98 166.383Z" fill="#F5B6CD"/>
<path d="M506.98 282.584C501.18 282.584 495.58 279.284 492.88 273.684C489.18 265.884 492.48 256.584 500.28 252.884C501.58 252.284 502.88 251.684 504.08 251.184C504.68 250.984 505.28 250.684 505.78 250.384L506.18 250.184L522.98 243.284C531.78 239.584 538.48 236.584 544.68 233.584C552.38 229.884 559.08 226.284 565.18 222.384C571.98 218.084 578.08 213.484 583.28 208.584C589.58 202.684 599.48 202.984 605.38 209.284C611.28 215.584 610.98 225.484 604.68 231.384C597.98 237.684 590.28 243.484 581.78 248.884C574.68 253.384 566.98 257.584 558.18 261.684C551.58 264.884 544.38 268.084 534.98 271.984L518.28 278.884C517.68 279.184 516.98 279.484 516.38 279.684C515.38 280.084 514.48 280.484 513.68 280.884C511.48 282.084 509.18 282.584 506.98 282.584Z" fill="#00C389"/>
<path d="M619.28 200.282C617.18 200.282 615.08 199.882 612.98 199.182C603.58 195.682 598.68 185.282 602.18 175.782C604.38 169.782 605.98 163.182 607.08 156.182L607.48 153.482C607.48 153.082 607.58 152.682 607.58 152.182L607.68 151.182L607.78 149.882C607.88 148.482 608.08 147.382 608.08 146.282V145.682C608.18 144.682 608.18 143.382 608.18 141.982V141.082V140.282C608.18 138.882 608.08 137.482 607.98 136.382V136.082C606.88 122.782 602.68 109.782 595.58 98.5819C590.28 90.0819 592.78 78.7819 601.38 73.4819C609.88 68.1819 621.18 70.7819 626.48 79.2819C636.58 95.3819 642.68 113.982 644.28 133.082C644.48 135.282 644.58 137.282 644.58 139.082V140.482V142.082C644.58 143.782 644.58 145.782 644.38 147.882C644.28 149.982 644.08 151.782 643.98 153.482L643.78 155.682C643.68 156.482 643.58 157.282 643.48 158.082V158.482L643.08 161.382C641.68 170.882 639.48 179.982 636.38 188.382C633.68 195.682 626.78 200.282 619.28 200.282Z" fill="#FF7F41"/>
<path d="M439.08 95.0829C436.18 95.0829 433.28 94.0829 430.88 92.0829C425.38 87.4829 424.48 79.2829 429.08 73.7829C433.78 68.0829 438.38 63.1829 443.08 58.8829C448.18 54.2829 453.68 49.9829 459.28 46.2829L459.38 46.1829C471.78 38.1829 484.68 32.6829 497.88 29.6829C511.48 26.4829 526.28 26.1829 540.58 28.5829H540.68C547.48 29.7829 554.18 31.4829 560.48 33.5829C566.98 35.7829 573.48 38.5829 579.68 41.8829C585.98 45.2829 588.38 53.1829 584.98 59.4829C581.58 65.7829 573.68 68.1829 567.38 64.7829C562.48 62.0829 557.38 59.8829 552.28 58.1829C547.18 56.4829 541.78 55.0829 536.18 54.0829C525.28 52.1829 514.08 52.4829 503.78 54.8829H503.68C493.58 57.0829 483.48 61.4829 473.68 67.7829C469.18 70.7829 464.78 74.1829 460.58 77.9829C456.78 81.3829 453.08 85.2829 449.18 90.0829C446.58 93.4829 442.78 95.0829 439.08 95.0829Z" fill="#59CBE8"/>
<path d="M428.581 165.284C427.681 165.284 426.681 165.184 425.681 165.084C415.781 163.484 408.981 154.184 410.581 144.284C413.281 127.484 419.281 110.984 427.981 96.4844C432.381 89.0844 437.581 82.1844 443.281 75.9844C449.181 69.4844 455.681 63.7844 462.681 58.8844C470.881 53.0844 482.281 55.0844 488.081 63.2844C493.881 71.4844 491.881 82.8844 483.681 88.6844C478.881 92.0844 474.281 96.0844 470.181 100.584C466.081 104.984 462.381 109.984 459.181 115.284C452.781 125.884 448.481 137.884 446.481 149.984C445.081 158.884 437.381 165.284 428.581 165.284Z" fill="#9063CD"/>
<path d="M412.479 648.684V595.484C412.479 574.884 395.779 558.184 375.179 558.184C354.579 558.184 337.879 574.884 337.879 595.484V648.684H412.479Z" fill="#9063CD"/>
</svg>
