<svg width="1080" height="1080" viewBox="0 0 1080 1080" fill="none" xmlns="http://www.w3.org/2000/svg">
<path d="M878.075 917.005C937.832 917.005 986.275 868.563 986.275 808.805C986.275 749.048 937.832 700.605 878.075 700.605C818.318 700.605 769.875 749.048 769.875 808.805C769.875 868.563 818.318 917.005 878.075 917.005Z" fill="#00C389"/>
<path d="M214.778 556.703C210.078 556.703 205.378 554.503 202.478 550.303C197.678 543.503 199.278 534.203 206.078 529.403C258.178 492.703 321.278 459.703 383.678 436.703C391.478 433.803 400.078 437.803 402.978 445.603C405.878 453.403 401.878 462.003 394.078 464.903C334.078 487.003 273.478 518.703 223.378 554.003C220.778 555.803 217.778 556.703 214.778 556.703Z" fill="#FF7F41"/>
<path d="M374.074 635.404L573.074 179.904C579.674 164.804 597.374 157.904 612.474 164.504L890.774 286.104C905.874 292.704 912.774 310.404 906.174 325.504L707.174 781.004C700.574 796.104 682.874 803.004 667.774 796.404L389.474 674.804C374.374 668.204 367.474 650.504 374.074 635.404Z" fill="#59CBE8"/>
<path d="M639.17 783.92L862.152 273.633L782.801 238.958L559.818 749.246L639.17 783.92Z" fill="#2C2A29"/>
<path d="M346.577 741.505L388.077 246.205C389.477 229.805 403.977 217.505 420.377 218.905L723.077 244.305C739.477 245.705 751.777 260.205 750.377 276.605L708.777 771.906C707.377 788.306 692.877 800.606 676.477 799.206L373.877 773.805C357.477 772.405 345.177 757.906 346.577 741.505Z" fill="#F5B6CD"/>
<path d="M645.359 796.603L691.914 241.652L605.617 234.413L559.062 789.364L645.359 796.603Z" fill="#2C2A29"/>
<path d="M144.377 576.104C140.177 576.104 135.877 574.603 132.477 571.503C125.077 564.903 124.477 553.604 131.077 546.204C175.477 496.604 260.777 457.203 264.477 455.503C273.477 451.403 284.077 455.303 288.177 464.303C292.277 473.303 288.377 483.903 279.377 488.003C278.577 488.403 197.177 526.003 157.777 570.003C154.177 574.103 149.277 576.104 144.377 576.104Z" fill="#9063CD"/>
<path d="M353.978 853.202L229.878 371.902C225.778 356.002 235.478 339.602 251.378 335.502L545.478 259.702C561.378 255.602 577.778 265.302 581.878 281.202L705.978 762.502C710.078 778.402 700.378 794.802 684.478 798.902L390.378 874.702C374.478 878.802 358.078 869.102 353.978 853.202Z" fill="#00C389"/>
<path d="M654.335 806.649L515.277 267.402L431.423 289.026L570.48 828.273L654.335 806.649Z" fill="#2C2A29"/>
<path d="M242.176 809.105C169.076 809.105 127.276 781.905 103.376 760.705C93.876 752.305 93.976 737.405 103.476 729.005C111.876 721.605 124.576 722.005 132.576 729.905L134.476 731.805C134.676 732.005 150.476 748.805 185.376 758.805C244.776 775.805 312.376 760.305 358.776 744.205C369.676 740.405 381.976 745.705 386.176 756.505C390.676 767.905 384.676 780.605 373.276 784.605C321.676 802.605 278.176 809.105 242.176 809.105Z" fill="#FDDA24"/>
<path d="M249.576 770.705C210.576 770.705 176.976 763.905 151.276 750.705C122.376 735.805 103.376 712.905 96.2759 684.205C90.3759 660.505 96.0759 633.905 111.876 611.205C119.076 600.805 133.476 598.205 143.876 605.405C154.276 612.605 156.876 627.005 149.676 637.405C141.476 649.305 138.276 662.305 140.876 673.205C144.776 689.005 155.076 701.005 172.276 709.805C223.176 736.005 320.876 727.205 421.276 687.505C433.076 682.805 446.476 688.605 451.176 700.405C455.876 712.205 450.076 725.605 438.276 730.305C383.076 752.105 327.676 765.705 278.076 769.605C268.276 770.305 258.776 770.705 249.576 770.705Z" fill="#FF7F41"/>
<path d="M807.477 613.203C799.977 613.203 792.877 608.703 789.877 601.403C785.877 591.703 790.577 580.503 800.277 576.603C840.777 560.003 895.177 530.603 924.777 484.203C938.677 462.503 942.677 443.403 942.777 436.303L942.677 434.403C942.177 424.003 950.577 415.203 960.977 415.203C971.877 415.203 980.377 424.603 979.277 435.503C975.077 476.403 949.977 556.503 814.577 611.903C812.377 612.703 809.877 613.203 807.477 613.203Z" fill="#FDDA24"/>
<path d="M732.575 614.902C724.175 614.902 716.375 609.702 713.375 601.402C709.575 590.802 715.075 579.102 725.675 575.202C815.975 542.702 886.275 491.002 904.775 443.702C911.075 427.702 910.875 413.702 904.175 400.802C898.975 390.802 902.875 378.402 912.875 373.202C922.875 368.002 935.275 371.902 940.475 381.902C952.575 405.102 953.375 431.602 942.875 458.502C931.275 488.102 905.975 518.202 869.475 545.602C834.175 572.202 789.175 595.702 739.575 613.602C737.175 614.502 734.875 614.902 732.575 614.902Z" fill="#FF7F41"/>
<path d="M373.575 729.804C364.775 729.804 357.075 723.304 355.875 714.304C354.575 704.904 360.975 696.204 370.175 694.404C376.875 692.904 433.375 678.304 493.775 656.304C503.075 652.904 513.275 657.704 516.675 667.004C520.075 676.304 515.275 686.504 505.975 689.904C441.075 713.504 379.575 729.204 375.875 729.704C375.075 729.804 374.275 729.804 373.575 729.804ZM371.175 694.204C370.975 694.204 370.675 694.304 370.275 694.404C370.575 694.304 370.875 694.304 371.175 694.204Z" fill="#9063CD"/>
<path d="M927.975 788.702H900.875C899.375 788.702 898.175 787.502 898.175 786.002V758.902C898.175 755.302 895.275 752.402 891.675 752.402H864.675C861.075 752.402 858.175 755.302 858.175 758.902V786.002C858.175 787.502 856.975 788.702 855.475 788.702H828.375C824.775 788.702 821.875 791.602 821.875 795.202V822.202C821.875 825.802 824.775 828.702 828.375 828.702H855.475C856.975 828.702 858.175 829.902 858.175 831.402V858.502C858.175 862.102 861.075 865.002 864.675 865.002H891.675C895.275 865.002 898.175 862.102 898.175 858.502V831.402C898.175 829.902 899.375 828.702 900.875 828.702H927.975C931.575 828.702 934.475 825.802 934.475 822.202V795.202C934.475 791.602 931.575 788.702 927.975 788.702Z" fill="white"/>
<path d="M266.277 225.305H242.977C240.577 225.305 238.677 223.405 238.677 221.005V197.705C238.677 192.505 234.477 188.305 229.277 188.305C224.077 188.305 219.877 192.505 219.877 197.705V221.005C219.877 223.405 217.977 225.305 215.577 225.305H192.177C186.977 225.305 182.777 229.505 182.777 234.705C182.777 239.905 186.977 244.105 192.177 244.105H215.477C217.877 244.105 219.777 246.005 219.777 248.405V271.705C219.777 276.905 223.977 281.105 229.177 281.105C234.377 281.105 238.577 276.905 238.577 271.705V248.405C238.577 246.005 240.477 244.105 242.877 244.105H266.177C271.377 244.105 275.577 239.905 275.577 234.705C275.777 229.505 271.477 225.305 266.277 225.305Z" fill="#9063CD"/>
<path d="M841.375 717.906L769.875 693.605L804.275 766.906L841.375 717.906Z" fill="#00C389"/>
</svg>
