<svg width="1080" height="1080" viewBox="0 0 1080 1080" fill="none" xmlns="http://www.w3.org/2000/svg">
<path d="M624.198 655.403C625.898 642.603 628.998 629.903 633.498 617.503C646.198 582.503 669.898 550.103 702.998 522.203H823.098L841.998 551.603C818.098 558.803 803.898 595.303 804.198 637.003L891.198 628.103L864.698 586.903L823.098 522.203H347.398L488.898 669.403L624.198 655.403Z" fill="#00C389"/>
<path d="M318.501 522.102H255.801L204.301 602.102L374.501 580.402L318.501 522.102Z" fill="#FF7F41"/>
<path d="M392.5 599.102L189.6 625.002L138 705.202L462.6 672.002L392.5 599.102Z" fill="#00C389"/>
<path d="M903.802 647.703L805.502 657.803C811.202 704.603 835.102 752.803 883.502 770.603H813.802H646.402C630.202 740.403 622.202 708.303 622.602 676.503L507.102 688.303L586.202 770.503H982.802L903.802 647.703Z" fill="#F5B6CD"/>
<path d="M123.6 727.6L96 770.5H557.4L480.9 691L123.6 727.6Z" fill="#9063CD"/>
<path d="M841.999 551.502L823.099 522.102H702.999C669.899 550.002 646.199 582.402 633.499 617.402C628.999 629.802 625.899 642.502 624.199 655.302L804.199 636.902C803.899 595.302 817.999 558.702 841.999 551.502Z" fill="#59CBE8"/>
<path d="M646.4 770.503H813.8H883.5C835.1 752.703 811.1 704.503 805.5 657.703L622.6 676.403C622.2 708.303 630.2 740.303 646.4 770.503Z" fill="#59CBE8"/>
<path d="M891.202 628.002L804.202 637.002L624.202 655.402L488.902 669.302L347.402 522.102H318.502L374.502 580.402L395.102 577.702L397.702 598.402L392.502 599.102L462.602 672.002L138.002 705.202L123.602 727.602L480.902 691.002L557.402 770.502H586.202L507.202 688.302L622.702 676.502L805.502 657.802L903.802 647.702L891.202 628.002Z" fill="white"/>
<path d="M204.302 602.102L189.602 625.002L392.502 599.102L374.502 580.402L204.302 602.102Z" fill="white"/>
<path d="M395.1 577.703L374.5 580.403L392.5 599.103L397.7 598.403L395.1 577.703Z" fill="white"/>
<path d="M539.702 285.5C471.702 285.5 416.602 340.6 416.602 408.6C416.602 522.1 539.702 623.3 539.702 623.3C539.702 623.3 662.802 522.1 662.802 408.6C662.802 340.6 607.702 285.5 539.702 285.5ZM539.702 478.9C500.902 478.9 469.402 447.4 469.402 408.6C469.402 369.8 500.902 338.3 539.702 338.3C578.502 338.3 610.002 369.8 610.002 408.6C610.002 447.4 578.502 478.9 539.702 478.9Z" fill="#FDDA24"/>
<path d="M539.702 624L539.402 623.7C539.102 623.4 508.202 597.9 477.802 558.8C449.702 522.7 416.102 467.4 416.102 408.6C416.102 340.5 471.502 285 539.702 285C607.902 285 663.302 340.5 663.302 408.6C663.302 441 652.602 493.4 601.602 558.8C571.102 597.9 540.302 623.4 540.002 623.7L539.702 624ZM539.702 286C472.102 286 417.102 341 417.102 408.6C417.102 440.9 427.802 493 478.502 558.2C507.202 595.1 536.302 619.9 539.702 622.7C543.002 619.9 572.102 595.1 600.902 558.2C628.902 522.2 662.302 467.1 662.302 408.6C662.302 341 607.302 286 539.702 286ZM539.702 479.4C500.702 479.4 468.902 447.6 468.902 408.6C468.902 369.6 500.702 337.8 539.702 337.8C578.702 337.8 610.502 369.6 610.502 408.6C610.502 447.7 578.702 479.4 539.702 479.4ZM539.702 338.8C501.202 338.8 469.902 370.1 469.902 408.6C469.902 447.1 501.202 478.4 539.702 478.4C578.202 478.4 609.502 447.1 609.502 408.6C609.502 370.1 578.202 338.8 539.702 338.8Z" fill="#FDDA24"/>
<path d="M557.4 770.5H96V795.7H557.4V770.5Z" fill="#00C389"/>
<path d="M983.8 770.5H588V795.7H983.8V770.5Z" fill="#FF7F41"/>
<path d="M586.298 770.5H557.398V795.7H586.298V770.5Z" fill="white"/>
</svg>
