<svg width="1080" height="1080" viewBox="0 0 1080 1080" fill="none" xmlns="http://www.w3.org/2000/svg">
<path d="M873.4 791.707H222.5V386.807C222.5 378.707 229 372.207 237.1 372.207H858.8C866.9 372.207 873.4 378.707 873.4 386.807V791.707Z" fill="#9063CD"/>
<path d="M952 831.607H144L222.5 791.707H873.4L952 831.607Z" fill="#59CBE8"/>
<path d="M940.8 868.408H155.2C149 868.408 144 863.408 144 857.208V831.508H952V857.208C952 863.408 947 868.408 940.8 868.408Z" fill="#9063CD"/>
<path d="M841.802 409.605H254.102V768.105H841.802V409.605Z" fill="white"/>
<path d="M254.1 539.009C322.915 539.009 378.7 483.223 378.7 414.409C378.7 345.594 322.915 289.809 254.1 289.809C185.285 289.809 129.5 345.594 129.5 414.409C129.5 483.223 185.285 539.009 254.1 539.009Z" fill="#FDDA24"/>
<path d="M254.1 539.507C185.1 539.507 129 483.407 129 414.407C129 345.407 185.1 289.207 254.1 289.207C323.1 289.207 379.2 345.307 379.2 414.307C379.2 483.307 323.1 539.507 254.1 539.507ZM254.1 290.207C185.7 290.207 130 345.907 130 414.407C130 482.907 185.7 538.507 254.1 538.507C322.5 538.507 378.2 482.807 378.2 414.407C378.2 346.007 322.6 290.207 254.1 290.207Z" fill="#FDDA24"/>
<path d="M254.101 486.205C293.755 486.205 325.901 454.06 325.901 414.405C325.901 374.751 293.755 342.605 254.101 342.605C214.447 342.605 182.301 374.751 182.301 414.405C182.301 454.06 214.447 486.205 254.101 486.205Z" fill="#FF7F41"/>
<path d="M586.901 838.106C655.715 838.106 711.501 782.321 711.501 713.506C711.501 644.692 655.715 588.906 586.901 588.906C518.086 588.906 462.301 644.692 462.301 713.506C462.301 782.321 518.086 838.106 586.901 838.106Z" fill="#FDDA24"/>
<path d="M586.901 838.606C517.901 838.606 461.801 782.506 461.801 713.506C461.801 644.506 517.901 588.406 586.901 588.406C655.901 588.406 712.001 644.506 712.001 713.506C712.001 782.506 655.901 838.606 586.901 838.606ZM586.901 589.306C518.501 589.306 462.801 645.006 462.801 713.406C462.801 781.806 518.501 837.506 586.901 837.506C655.301 837.506 711.001 781.906 711.001 713.506C711.001 645.106 655.401 589.306 586.901 589.306Z" fill="#FDDA24"/>
<path d="M586.902 785.307C626.556 785.307 658.702 753.161 658.702 713.507C658.702 673.853 626.556 641.707 586.902 641.707C547.248 641.707 515.102 673.853 515.102 713.507C515.102 753.161 547.248 785.307 586.902 785.307Z" fill="#FF7F41"/>
<path d="M217.302 662.006C206.302 662.006 197.402 653.106 197.302 642.106C197.202 631.106 206.102 622.106 217.202 622.006C260.602 621.806 304.102 604.606 339.902 573.706C348.302 566.506 360.902 567.406 368.102 575.806C375.302 584.206 374.402 596.806 366.002 604.006C323.002 641.106 270.302 661.706 217.402 662.006C217.402 662.006 217.402 662.006 217.302 662.006Z" fill="#F5B6CD"/>
<path d="M232.1 683.405C222 683.405 213.3 675.805 212.2 665.505C211.1 654.505 219 644.705 230 643.505C279.9 638.305 343.2 596.205 343.8 595.805C353 589.605 365.4 592.105 371.5 601.305C377.7 610.505 375.2 622.905 366.1 629.005C363.2 631.005 294 677.105 234.1 683.305C233.5 683.405 232.8 683.405 232.1 683.405Z" fill="#00C389"/>
<path d="M777.201 832.106C774.501 832.106 771.801 831.506 769.201 830.206C760.301 825.806 756.601 815.006 761.001 806.106C782.101 763.406 789.601 722.106 783.401 683.506C778.601 654.006 765.901 625.906 745.501 599.906C739.401 592.106 740.701 580.806 748.501 574.606C756.301 568.506 767.601 569.806 773.801 577.606C798.001 608.406 813.101 642.006 818.901 677.606C826.401 723.806 817.801 772.306 793.301 821.906C790.201 828.406 783.801 832.106 777.201 832.106Z" fill="#59CBE8"/>
<path d="M756.303 815.506C754.203 815.506 752.203 814.906 750.303 813.806C744.903 810.506 743.203 803.406 746.603 798.006C776.303 749.906 769.403 703.806 769.403 703.406C768.403 697.106 772.703 691.206 778.903 690.206C785.203 689.206 791.003 693.406 792.103 699.706C792.503 701.906 800.603 754.406 766.203 810.106C764.003 813.506 760.203 815.506 756.303 815.506Z" fill="#9063CD"/>
<path d="M399.2 554.107C395.7 554.107 392.1 553.207 388.8 551.207C379.4 545.507 376.3 533.207 382.1 523.707C406.2 484.007 417.5 437.007 413.9 391.307C412.7 376.107 409.9 360.807 405.4 346.007C402.2 335.407 408.3 324.307 418.8 321.107C429.4 317.907 440.5 324.007 443.7 334.507C449 352.107 452.3 370.207 453.7 388.207C457.9 442.207 444.6 497.607 416.2 544.407C412.5 550.607 405.9 554.107 399.2 554.107Z" fill="#F5B6CD"/>
<path d="M396.099 298.205C389.499 298.205 383.099 294.905 379.199 289.005C369.199 273.305 357.299 259.105 343.999 246.705C335.899 239.205 335.399 226.505 342.999 218.405C350.499 210.305 363.199 209.805 371.299 217.405C387.099 232.105 401.199 248.905 412.999 267.505C418.999 276.805 416.199 289.205 406.899 295.105C403.599 297.205 399.799 298.205 396.099 298.205Z" fill="#F5B6CD"/>
<path d="M448.098 497.306C445.798 497.306 443.398 496.906 441.098 496.006C430.698 492.106 425.498 480.606 429.298 470.306C448.598 418.506 446.398 365.006 422.798 311.306C404.998 270.806 381.698 246.006 381.498 245.806C373.898 237.806 374.198 225.106 382.198 217.506C390.198 209.906 402.898 210.206 410.498 218.206C411.598 219.406 438.898 248.306 459.498 295.206C486.998 357.906 489.498 423.206 466.798 484.206C463.898 492.306 456.198 497.306 448.098 497.306Z" fill="#00C389"/>
<path d="M713.5 564.107C709.6 564.107 705.7 562.807 702.4 560.307C693.4 553.307 687.3 549.607 687.3 549.607C678.8 544.507 676 533.507 681.1 524.907C686.2 516.407 697.2 513.607 705.7 518.607C706.5 519.107 713.9 523.507 724.6 531.907C732.4 538.007 733.8 549.307 727.7 557.207C724.1 561.707 718.8 564.107 713.5 564.107Z" fill="#59CBE8"/>
<path d="M751.001 624.804C747.001 624.804 743.101 622.704 741.001 619.004C719.701 581.404 675.401 556.404 674.901 556.104C669.401 553.004 667.401 546.004 670.401 540.504C673.501 535.004 680.501 532.904 686.001 536.004C688.001 537.104 736.401 564.304 760.901 607.604C764.001 613.104 762.101 620.104 756.601 623.304C754.801 624.404 752.901 624.804 751.001 624.804Z" fill="#9063CD"/>
</svg>
