<svg width="1080" height="1080" viewBox="0 0 1080 1080" fill="none" xmlns="http://www.w3.org/2000/svg">
<path d="M493.202 397.1C421.202 397.1 362.602 338.5 362.602 266.5C362.602 224.1 383.302 184.3 417.902 159.8C424.002 155.5 432.402 156.9 436.702 163C441.002 169.1 439.602 177.5 433.502 181.8C406.002 201.2 389.602 232.9 389.602 266.5C389.602 323.6 436.102 370.1 493.202 370.1C550.302 370.1 596.802 323.6 596.802 266.5C596.802 209.4 550.402 163 493.202 163C485.702 163 479.702 157 479.702 149.5C479.702 142 485.802 136 493.202 136C565.202 136 623.802 194.6 623.802 266.6C623.802 338.6 565.202 397.1 493.202 397.1Z" fill="#FDDA24"/>
<path d="M493.2 371.198C435.5 371.198 388.5 324.298 388.5 266.498C388.5 208.698 435.5 161.898 493.2 161.898C550.9 161.898 597.9 208.798 597.9 266.598C597.9 283.698 593.7 300.698 585.7 315.698C582.2 322.298 574 324.798 567.4 321.298C560.8 317.798 558.3 309.598 561.8 302.998C567.7 291.898 570.9 279.298 570.9 266.598C570.9 223.798 536.1 188.898 493.2 188.898C450.3 188.898 415.5 223.698 415.5 266.598C415.5 309.498 450.3 344.298 493.2 344.298C502.1 344.298 510.9 342.798 519.2 339.798C526.2 337.298 533.9 340.998 536.4 347.998C538.9 354.998 535.2 362.698 528.2 365.198C517 369.198 505.3 371.198 493.2 371.198Z" fill="#FF7F41"/>
<path d="M442.501 593.299L713.701 295.199C722.701 285.299 738.101 284.599 747.901 293.599L930.001 459.299C939.901 468.299 940.601 483.699 931.601 493.499L660.501 791.599C651.501 801.499 636.101 802.199 626.301 793.199L444.101 627.499C434.201 618.599 433.501 603.199 442.501 593.299Z" fill="#9063CD"/>
<path d="M607.574 776.183L911.434 442.254L859.514 395.009L555.654 728.939L607.574 776.183Z" fill="#2C2A29"/>
<path d="M755.002 943.3C790.569 943.3 819.402 914.467 819.402 878.9C819.402 843.333 790.569 814.5 755.002 814.5C719.434 814.5 690.602 843.333 690.602 878.9C690.602 914.467 719.434 943.3 755.002 943.3Z" fill="#FDDA24"/>
<path d="M755.002 943.7C719.202 943.7 690.102 914.6 690.102 878.8C690.102 843 719.202 814 755.002 814C790.802 814 819.902 843.1 819.902 878.9C819.902 914.7 790.702 943.7 755.002 943.7ZM755.002 815C719.802 815 691.102 843.6 691.102 878.9C691.102 914.2 719.702 942.8 755.002 942.8C790.302 942.8 818.902 914.2 818.902 878.9C818.902 843.6 790.202 815 755.002 815Z" fill="#FDDA24"/>
<path d="M755.002 916.001C775.492 916.001 792.102 899.391 792.102 878.901C792.102 858.411 775.492 841.801 755.002 841.801C734.513 841.801 717.902 858.411 717.902 878.901C717.902 899.391 734.513 916.001 755.002 916.001Z" fill="#FF7F41"/>
<path d="M394.599 667.098L555.999 297.898C561.299 285.698 575.699 280.098 587.899 285.398L813.499 383.998C825.699 389.298 831.299 403.698 825.999 415.898L664.699 785.198C659.399 797.398 644.999 802.998 632.799 797.698L407.199 699.098C394.899 693.698 389.299 679.398 394.599 667.098Z" fill="#59CBE8"/>
<path d="M609.598 787.502L790.379 373.793L726.055 345.685L545.274 759.394L609.598 787.502Z" fill="#2C2A29"/>
<path d="M372.298 753.201L405.998 351.601C407.098 338.301 418.898 328.401 432.198 329.501L677.498 350.001C690.798 351.101 700.698 362.901 699.598 376.201L665.998 777.801C664.898 791.101 653.098 801.001 639.798 799.901L394.398 779.301C381.098 778.201 371.198 766.401 372.298 753.201Z" fill="#F5B6CD"/>
<path d="M614.604 797.795L652.348 347.875L582.393 342.007L544.65 791.926L614.604 797.795Z" fill="#2C2A29"/>
<path d="M378.298 843.699L277.698 453.499C274.398 440.599 282.198 427.299 295.098 423.999L533.498 362.499C546.398 359.199 559.698 366.999 562.998 379.899L663.598 770.199C666.898 783.099 659.098 796.399 646.198 799.699L407.798 861.199C394.898 864.499 381.698 856.599 378.298 843.699Z" fill="#00C389"/>
<path d="M621.872 805.988L509.133 368.801L441.158 386.33L553.898 823.517L621.872 805.988Z" fill="#2C2A29"/>
<path d="M276.1 765.399C349.333 765.399 408.7 706.032 408.7 632.799C408.7 559.566 349.333 500.199 276.1 500.199C202.867 500.199 143.5 559.566 143.5 632.799C143.5 706.032 202.867 765.399 276.1 765.399Z" fill="#FDDA24"/>
<path d="M276.1 765.899C202.7 765.899 143 706.199 143 632.799C143 559.399 202.7 499.699 276.1 499.699C349.5 499.699 409.2 559.399 409.2 632.799C409.2 706.199 349.6 765.899 276.1 765.899ZM276.1 500.699C203.3 500.699 144 559.899 144 632.799C144 705.699 203.3 764.899 276.1 764.899C349 764.899 408.2 705.599 408.2 632.799C408.2 559.999 349 500.699 276.1 500.699Z" fill="#FDDA24"/>
<path d="M276.099 709.198C318.294 709.198 352.499 674.993 352.499 632.798C352.499 590.604 318.294 556.398 276.099 556.398C233.905 556.398 199.699 590.604 199.699 632.798C199.699 674.993 233.905 709.198 276.099 709.198Z" fill="#FF7F41"/>
<path d="M493.2 319.798C522.582 319.798 546.4 295.98 546.4 266.598C546.4 237.217 522.582 213.398 493.2 213.398C463.818 213.398 440 237.217 440 266.598C440 295.98 463.818 319.798 493.2 319.798Z" fill="#FDDA24"/>
<path d="M493.2 320.298C463.6 320.298 439.5 296.198 439.5 266.598C439.5 236.998 463.6 212.898 493.2 212.898C522.8 212.898 546.9 236.998 546.9 266.598C546.9 296.198 522.9 320.298 493.2 320.298ZM493.2 213.898C464.1 213.898 440.5 237.498 440.5 266.598C440.5 295.698 464.1 319.298 493.2 319.298C522.3 319.298 545.9 295.698 545.9 266.598C545.9 237.498 522.3 213.898 493.2 213.898Z" fill="#FDDA24"/>
</svg>
