<svg width="1080" height="1080" viewBox="0 0 1080 1080" fill="none" xmlns="http://www.w3.org/2000/svg">
<path d="M235.293 605.62C233.793 605.62 232.393 605.42 230.893 605.12C219.193 602.32 207.693 596.32 197.593 587.82C193.293 584.32 188.993 580.02 184.393 574.82C180.793 570.72 177.293 566.12 173.293 560.12L173.093 559.82L170.493 555.82L168.093 551.72C167.793 551.22 167.493 550.62 167.193 550.12L166.093 548.02C165.893 547.62 165.693 547.32 165.493 546.92C164.993 546.02 164.493 545.02 163.993 544.02C161.393 538.92 158.993 533.32 156.793 527.52L156.693 527.22C154.293 520.72 152.593 515.22 151.193 509.92C149.493 503.02 148.293 497.32 147.593 491.92C146.693 485.52 146.293 479.32 146.293 473.62V473.32L146.393 468.82C146.393 467.82 146.493 466.72 146.593 465.72C146.593 465.32 146.693 464.92 146.693 464.52L146.893 462.32L147.893 454.92C149.793 442.92 153.093 431.02 157.793 419.52C162.593 407.92 168.593 397.22 175.693 387.52C181.793 379.22 193.393 377.42 201.693 383.52C209.993 389.62 211.793 401.22 205.693 409.52C200.393 416.72 195.893 424.82 192.293 433.62C188.793 442.32 186.193 451.32 184.793 460.32L183.893 467.02C183.893 467.62 183.793 468.12 183.793 468.72C183.793 469.22 183.693 469.72 183.693 470.22L183.593 473.62C183.593 477.72 183.993 482.12 184.593 486.82C185.193 490.82 186.093 495.22 187.393 500.72C188.393 504.72 189.793 509.02 191.693 514.32C193.493 519.02 195.393 523.42 197.493 527.52L197.593 527.72C197.893 528.32 198.193 528.82 198.493 529.32C198.793 529.82 198.993 530.32 199.293 530.82L200.093 532.42C200.193 532.62 200.293 532.82 200.393 532.92L202.593 536.82L204.493 539.72C207.493 544.22 209.993 547.52 212.393 550.32L212.493 550.42C215.693 554.02 218.493 556.92 221.193 559.12L221.493 559.32C227.193 564.12 233.593 567.52 239.793 569.02C249.793 571.42 255.893 581.52 253.493 591.52C251.293 599.92 243.693 605.62 235.293 605.62Z" fill="#00C389"/>
<path d="M155.395 555.72C147.595 555.72 140.195 551.12 136.995 543.42C130.295 527.32 125.695 511.02 123.495 494.92C122.195 485.52 121.795 476.82 122.095 468.22C122.195 466.42 122.295 464.72 122.395 463.22C122.395 462.62 122.495 462.12 122.495 461.52V461.02C122.695 459.32 122.895 457.82 122.995 456.52C123.095 456.02 123.095 455.42 123.195 454.92C123.595 451.42 124.195 448.02 124.795 445.12C124.995 444.22 125.095 443.32 125.295 442.52L125.395 441.82C126.695 435.72 128.895 426.72 132.295 417.52C133.395 414.32 134.595 411.32 135.795 408.62C136.195 407.72 136.495 406.92 136.895 406.02L137.095 405.42C137.695 404.12 138.295 402.82 138.995 401.42C139.295 400.92 139.495 400.32 139.795 399.82L141.395 396.62C141.795 395.92 142.095 395.22 142.495 394.62L146.195 387.92L149.095 383.22C150.395 381.12 151.695 379.22 152.795 377.52L152.995 377.22C153.295 376.82 153.595 376.32 153.895 375.92C154.695 374.72 155.695 373.32 156.795 371.92L160.095 367.62C161.095 366.32 161.995 365.22 162.695 364.42L164.395 362.52C166.595 359.82 168.995 357.42 170.995 355.32C171.595 354.62 172.295 354.02 172.895 353.32L173.495 352.72C180.195 346.32 186.595 340.92 192.995 336.32C194.395 335.22 195.695 334.42 196.895 333.62C197.295 333.32 197.795 333.02 198.195 332.72L201.095 330.82C201.795 330.32 202.595 329.92 203.295 329.52L204.195 329.02C204.695 328.72 205.195 328.42 205.695 328.12C206.995 327.42 208.195 326.62 209.495 325.92L210.095 325.62L214.995 323.12C216.895 322.12 218.595 321.42 219.995 320.82C220.395 320.62 220.795 320.42 221.295 320.32L221.595 320.22C221.995 320.02 222.395 319.92 222.695 319.72C224.095 319.12 225.895 318.32 227.995 317.62L233.895 315.52C235.295 315.12 236.695 314.62 238.095 314.22L240.595 313.52C241.295 313.32 242.295 313.02 243.395 312.72L249.795 311.22C250.695 311.02 251.895 310.72 253.395 310.52L258.695 309.62C260.395 309.32 261.795 309.12 262.995 309.02L265.495 308.72C269.095 308.32 272.495 308.12 275.495 308.12C276.395 308.12 277.295 308.02 278.195 308.02H278.695H279.195C280.595 308.02 282.095 308.02 283.495 308.12L289.295 308.32L293.895 308.72C295.295 308.82 296.795 309.02 298.195 309.12L298.995 309.22L304.795 310.12C304.995 310.12 305.295 310.22 305.495 310.22C306.295 310.32 307.195 310.52 308.295 310.72L312.995 311.72C314.395 312.02 315.795 312.32 317.195 312.72L317.895 312.92L327.195 315.62L335.695 318.62C336.895 319.12 338.195 319.62 339.395 320.12L341.195 320.92C349.495 324.42 356.395 327.62 362.795 331.12C372.495 336.32 376.095 348.42 370.895 358.12C365.695 367.82 353.595 371.42 343.895 366.22C338.695 363.42 332.995 360.72 325.895 357.82L324.295 357.12C323.395 356.72 322.395 356.32 321.495 356.02L314.395 353.52L307.295 351.52C306.295 351.32 305.295 351.12 304.395 350.82L300.095 349.92C299.895 349.92 299.595 349.82 299.395 349.82C298.995 349.72 298.595 349.72 298.295 349.62L293.295 348.82C292.295 348.72 291.295 348.62 290.295 348.52L286.295 348.12L282.295 348.02C281.295 348.02 280.295 347.92 279.295 347.92C278.395 347.92 277.495 348.02 276.695 348.02C274.295 348.12 271.995 348.22 270.195 348.42L269.695 348.52L266.695 348.82C265.995 348.92 265.695 348.92 265.695 348.92L265.295 349.02L259.395 350.02C259.195 350.02 258.995 350.12 258.695 350.22L252.995 351.02C252.695 351.12 252.495 351.12 252.195 351.22C251.795 351.32 251.495 351.42 251.095 351.52L249.495 352.02C248.495 352.32 247.495 352.62 246.495 352.92L241.095 354.82C240.595 355.02 239.695 355.42 238.695 355.82C238.295 356.02 237.795 356.22 237.395 356.42C236.895 356.62 236.295 356.92 235.795 357.12C234.995 357.52 234.095 357.82 233.695 358.02L233.295 358.22L228.495 360.62C227.595 361.12 226.795 361.62 225.895 362.12C225.395 362.42 224.795 362.72 224.295 363.02C223.995 363.22 223.695 363.42 223.395 363.52C223.095 363.72 222.895 363.82 222.595 364.02L220.495 365.42C219.895 365.82 219.295 366.22 218.695 366.62C217.895 367.12 217.095 367.62 216.595 368.02L216.195 368.32C211.395 371.72 206.595 375.82 201.395 380.72C200.795 381.42 200.095 382.02 199.495 382.72C197.795 384.52 196.195 386.12 194.895 387.72L194.595 388.02L192.595 390.32C192.495 390.52 191.995 391.02 191.795 391.32L191.595 391.62L188.095 396.12C187.695 396.72 187.195 397.42 186.595 398.22C186.195 398.82 185.795 399.42 185.295 400.02L185.195 400.12C184.295 401.32 183.495 402.52 182.995 403.42L182.795 403.72L180.095 408.12L177.195 413.52C176.995 413.82 176.795 414.22 176.595 414.52L175.495 416.72C175.195 417.32 174.895 417.92 174.595 418.52C174.195 419.42 173.795 420.32 173.395 421.12C172.995 422.02 172.695 422.92 172.295 423.82C171.295 426.12 170.395 428.22 169.795 430.12L169.595 430.82C167.595 436.02 165.995 441.92 164.295 449.72C164.095 450.62 163.995 451.42 163.795 452.32C163.295 454.82 162.895 457.22 162.695 459.22V459.52C162.595 460.22 162.495 460.92 162.395 461.62C162.295 462.62 162.095 463.52 162.095 464.42C162.095 465.02 161.995 465.72 161.995 466.32C161.895 467.42 161.795 468.52 161.795 469.22V469.52C161.495 475.72 161.895 482.22 162.895 489.32C164.695 501.92 168.295 515.02 173.695 528.02C177.895 538.12 173.095 549.82 162.995 554.02C160.495 555.22 157.895 555.72 155.395 555.72Z" fill="#FF7F41"/>
<path d="M394.293 436.92C386.793 436.92 379.493 433.42 374.793 426.92C357.093 402.02 328.593 383.72 296.393 376.72C296.193 376.72 295.893 376.62 295.693 376.62L292.593 376.12C286.493 375.22 281.193 374.92 276.193 375.22C262.993 376.12 251.693 366.12 250.893 352.92C250.093 339.72 259.993 328.42 273.193 327.62C281.593 327.12 290.193 327.52 299.593 328.92L302.793 329.42C303.193 329.52 303.493 329.52 303.893 329.62H304.093L306.693 330.22C350.293 339.82 389.293 365.02 413.793 399.42C421.393 410.12 418.893 425.02 408.193 432.72C403.993 435.42 399.093 436.92 394.293 436.92Z" fill="#59CBE8"/>
<path d="M291.194 374.422L435.794 836.822C440.594 852.122 456.994 860.722 472.294 855.922L754.794 767.522C770.094 762.722 778.694 746.322 773.894 731.022L629.294 268.622C624.494 253.322 608.094 244.722 592.794 249.522L310.294 337.922C294.994 342.722 286.394 359.122 291.194 374.422Z" fill="#9063CD"/>
<path d="M331.495 326.02L432.695 799.82C435.995 815.52 451.595 825.62 467.295 822.22L756.795 760.42C772.495 757.12 782.595 741.52 779.195 725.82L677.895 252.02C674.595 236.32 658.995 226.22 643.295 229.62L353.895 291.42C338.195 294.82 328.095 310.32 331.495 326.02Z" fill="#FDDA24"/>
<path d="M404.595 264.621L423.195 748.721C423.795 764.721 437.395 777.321 453.395 776.721L749.195 765.321C765.195 764.721 777.795 751.121 777.195 735.121L758.695 251.021C758.095 235.021 744.495 222.421 728.495 223.021L432.595 234.421C416.595 235.021 403.995 248.621 404.595 264.621Z" fill="#2C2A29"/>
<path d="M453.992 488.622C454.992 492.022 458.592 493.622 462.092 492.322C490.692 482.322 519.492 475.222 549.292 469.622C552.692 469.022 554.492 465.422 553.092 461.922C550.192 454.622 548.692 450.922 545.692 443.622C544.392 440.522 541.192 438.622 537.992 439.022C508.892 443.722 480.792 450.122 452.692 459.322C449.092 460.622 446.892 464.822 447.992 468.422C450.392 476.622 451.592 480.622 453.992 488.622Z" fill="white"/>
<path d="M571.593 488.223C570.293 484.923 567.193 482.823 564.193 483.323C518.593 490.923 474.393 503.823 432.793 524.023C429.793 525.623 428.093 529.523 428.793 532.923C430.793 541.523 431.793 545.823 433.793 554.523C434.693 558.223 438.193 559.823 441.593 558.023C483.793 536.823 528.793 522.623 575.093 513.423C577.993 512.823 579.393 509.423 578.193 506.023C575.593 498.823 574.193 495.223 571.593 488.223Z" fill="white"/>
<path d="M573.292 536.623C571.992 533.123 568.592 530.923 565.492 531.723C537.092 539.023 509.392 547.523 482.092 558.023C478.592 559.423 476.792 563.223 477.892 566.523C480.392 574.523 481.692 578.523 484.192 586.523C485.392 590.323 489.792 592.023 493.692 590.423C520.992 579.523 548.692 569.823 576.992 561.823C579.692 561.023 580.892 557.823 579.792 554.523C577.192 547.423 575.892 543.823 573.292 536.623Z" fill="white"/>
<path d="M712.494 524.621C713.294 546.221 692.094 561.421 667.494 562.321L622.194 564.021L617.594 445.021C632.594 442.221 643.994 440.321 657.394 439.821C682.294 438.821 702.594 449.721 703.394 469.921C703.794 481.521 698.094 489.521 687.394 494.121C704.294 498.421 711.894 508.221 712.494 524.621ZM658.294 463.121C654.394 463.221 650.394 463.821 646.494 464.521L647.394 489.021L659.894 488.521C670.994 488.121 675.894 483.321 675.594 475.421C675.494 467.821 669.894 462.621 658.294 463.121ZM682.294 524.521C681.894 514.721 675.494 510.921 663.194 511.421L648.494 512.021L649.594 539.621L663.994 539.021C675.994 538.621 682.594 533.521 682.294 524.521Z" fill="white"/>
<path d="M739.493 490.423C741.293 490.323 755.393 487.423 760.793 487.223C763.493 487.123 765.793 487.223 767.793 487.723L766.893 464.923C764.793 464.823 762.593 464.823 760.293 464.923C748.093 465.423 736.993 468.723 725.793 473.423L728.293 479.923C731.493 487.923 735.093 490.523 739.493 490.423Z" fill="white"/>
<path d="M769.695 538.521C767.495 539.121 764.895 539.521 762.195 539.621C753.195 539.921 748.695 537.721 748.395 531.121C748.095 523.121 757.695 519.821 768.995 518.921L768.295 501.621C741.795 504.521 720.995 512.821 721.895 536.721C722.595 554.221 738.895 561.521 758.195 560.821C762.495 560.621 766.595 560.321 770.495 559.821L769.695 538.521Z" fill="white"/>
<path d="M728.995 262.92L731.695 334.02C731.895 340.02 727.395 345.12 721.495 345.32L680.995 346.92L670.595 347.32C664.795 347.52 659.795 342.82 659.595 336.82L656.995 265.72C656.795 259.72 661.295 254.62 667.195 254.42L717.995 252.42C723.895 252.22 728.795 256.92 728.995 262.92Z" fill="#E6DCCB"/>
<path d="M714.896 332.519L676.396 334.019C672.896 334.119 669.996 331.419 669.896 328.019L667.796 274.319C667.696 270.819 670.396 267.919 673.796 267.819L712.296 266.319C715.796 266.219 718.696 268.919 718.796 272.319L720.896 326.019C721.096 329.419 718.396 332.419 714.896 332.519ZM673.996 269.119C671.296 269.219 669.196 271.519 669.296 274.219L671.396 327.919C671.496 330.619 673.796 332.719 676.496 332.619L714.996 331.119C717.696 331.019 719.796 328.719 719.696 326.019L717.596 272.319C717.496 269.619 715.196 267.519 712.496 267.619L673.996 269.119Z" fill="#2C2A29"/>
<path d="M681.251 333.097L679.852 333.145L680.318 346.836L681.717 346.789L681.251 333.097Z" fill="#2C2A29"/>
<path d="M707.149 332.097L705.75 332.145L706.216 345.836L707.615 345.789L707.149 332.097Z" fill="#2C2A29"/>
<path d="M678.274 254.298L676.875 254.352L677.363 267.043L678.762 266.989L678.274 254.298Z" fill="#2C2A29"/>
<path d="M704.176 253.298L702.777 253.352L703.265 266.043L704.664 265.989L704.176 253.298Z" fill="#2C2A29"/>
<path d="M904.792 666.122C902.392 666.122 899.892 665.822 897.392 665.122C882.592 661.022 873.792 645.722 877.892 630.922L879.092 626.222L880.292 620.722C880.392 620.022 880.492 619.322 880.692 618.722C881.192 615.922 881.692 613.322 881.892 611.022L881.992 610.422L882.392 607.522C882.392 607.322 882.392 607.122 882.392 606.922C882.392 606.522 882.492 606.022 882.492 605.622C882.592 604.822 882.592 604.022 882.692 603.222C882.792 602.222 882.892 601.322 882.892 600.622L883.092 594.622C883.092 594.022 883.092 593.122 883.092 592.322C883.092 591.522 883.092 590.722 883.092 589.922C882.892 582.422 882.292 576.122 881.192 570.522V570.322C879.792 563.022 878.092 556.922 876.092 551.822L875.092 549.222L873.092 544.522C872.892 544.122 872.792 543.822 872.592 543.422L872.492 543.222L869.192 536.822L867.192 533.422C866.492 532.222 865.292 530.522 864.092 528.722C863.492 527.822 862.892 526.922 862.292 526.022C861.892 525.422 861.392 524.822 860.892 524.322C860.392 523.622 859.792 523.022 859.292 522.322L857.892 520.522C857.792 520.422 857.692 520.322 857.592 520.122C857.292 519.822 856.992 519.422 856.692 519.122L853.192 515.222C852.592 514.622 851.992 514.122 851.392 513.522C850.792 512.922 850.192 512.322 849.592 511.722L847.592 509.822C847.192 509.522 846.792 509.122 846.392 508.822L841.692 504.822C841.592 504.722 841.492 504.622 841.392 504.622L836.092 500.622C835.792 500.422 835.592 500.222 835.292 500.022L834.992 499.822L827.792 495.022C827.592 494.922 827.392 494.822 827.192 494.722C826.792 494.522 826.392 494.222 825.992 494.022C812.692 486.322 808.192 469.222 815.892 455.922C823.592 442.622 840.692 438.122 853.992 445.822L854.692 446.222C855.592 446.722 856.392 447.222 857.192 447.722L857.892 448.222L865.292 453.022C866.892 454.022 868.192 455.022 868.992 455.622L874.592 459.822C875.492 460.522 876.892 461.522 878.392 462.822L883.292 467.022C883.992 467.622 885.192 468.622 886.492 469.822L888.692 471.922C889.192 472.422 889.692 472.922 890.192 473.422C891.192 474.422 892.292 475.422 893.292 476.422L894.192 477.422L898.792 482.522C899.492 483.322 900.192 484.022 900.892 484.822L901.392 485.522L903.392 488.022C903.792 488.522 904.192 489.022 904.592 489.522C905.492 490.622 906.492 491.822 907.492 493.322L908.292 494.422C908.892 495.222 909.392 496.122 909.992 496.922C911.792 499.522 913.892 502.522 915.892 506.022L918.392 510.322L922.092 517.622C922.992 519.322 923.592 520.722 923.992 521.622L927.292 529.322L928.192 531.922C931.392 540.122 933.892 549.222 935.892 559.822C937.592 568.522 938.592 578.022 938.892 588.822V589.522C938.892 590.122 938.892 590.622 938.892 591.222C938.892 592.722 938.992 594.622 938.892 596.822L938.692 603.222C938.592 605.122 938.492 606.822 938.292 608.322C938.192 608.922 938.192 609.522 938.092 610.222V610.822C938.092 611.022 938.092 611.222 937.992 611.522C937.892 612.422 937.792 613.522 937.692 614.922L937.292 617.822C936.792 621.922 936.192 625.622 935.492 629.022C935.392 629.822 935.192 630.622 935.092 631.522L934.792 632.822L932.792 641.522L931.592 646.022C928.292 657.922 917.092 666.122 904.792 666.122Z" fill="#59CBE8"/>
<path d="M764.595 793.722C753.795 793.722 744.895 785.122 744.695 774.222C744.495 763.222 753.195 754.122 764.195 753.922C779.595 753.622 794.595 751.422 808.695 747.322L809.895 746.922C812.495 746.122 814.995 745.422 817.095 744.622L817.195 744.522C817.795 744.322 818.495 744.022 819.095 743.822C819.995 743.522 820.795 743.222 821.395 743.022L826.495 741.022C827.395 740.622 828.595 740.122 829.795 739.522L834.295 737.422L840.395 734.222L846.295 730.822L850.595 728.022C851.995 727.122 853.695 725.922 855.395 724.722C856.195 724.122 856.995 723.622 857.795 723.022C863.595 718.522 867.795 714.922 871.395 711.222L871.695 710.922C875.395 707.322 879.295 703.022 883.695 697.422L886.595 693.522C886.795 693.222 886.995 692.922 887.195 692.622C887.295 692.422 887.495 692.222 887.595 692.022L891.595 685.922L894.095 681.822C900.195 671.622 905.295 660.222 909.295 647.922C913.195 635.922 915.895 623.622 917.195 611.222C918.495 598.622 918.495 586.022 917.095 573.822C915.795 562.922 923.695 553.022 934.595 551.722C945.495 550.422 955.395 558.322 956.695 569.222C958.495 584.322 958.495 599.922 956.795 615.522C955.095 630.622 951.895 645.722 947.195 660.222C942.295 675.322 935.995 689.422 928.395 702.222L925.195 707.522L920.795 714.122C920.295 714.922 919.695 715.622 919.195 716.322L915.195 721.722C909.595 728.822 904.595 734.322 899.595 739.222C894.695 744.122 889.295 748.822 881.995 754.522L881.295 755.022C880.495 755.522 879.795 756.122 878.995 756.722C876.895 758.222 874.495 760.022 871.895 761.622L866.895 764.822L859.295 769.222L851.595 773.222L846.695 775.522C845.095 776.322 843.195 777.122 841.095 777.922L836.395 779.822C834.895 780.422 833.495 780.922 832.295 781.322C831.795 781.522 831.395 781.622 830.895 781.822C827.495 783.022 824.395 784.022 821.295 784.922L819.695 785.422C802.195 790.422 783.795 793.122 764.995 793.522C764.895 793.722 764.695 793.722 764.595 793.722Z" fill="#FF7F41"/>
<path d="M760.494 774.021C758.294 774.021 756.194 774.021 754.294 773.921H753.394C752.594 773.921 751.694 773.821 750.894 773.821C748.394 773.721 745.494 773.621 742.394 773.321C741.894 773.321 741.494 773.221 740.994 773.221C739.694 773.121 738.394 773.021 737.094 772.821H736.694L728.294 771.721L719.994 770.321L714.294 769.221C712.894 768.921 711.094 768.621 709.094 768.121C694.594 764.721 680.494 760.121 666.994 754.321L666.594 754.121L659.394 750.921C658.594 750.521 657.794 750.121 656.994 749.721L643.694 742.921L632.294 736.321C631.594 735.921 630.594 735.321 629.394 734.521L619.194 727.821C617.394 726.621 615.894 725.521 614.694 724.721C614.394 724.521 614.094 724.321 613.794 724.121L613.594 723.921L605.494 717.921C603.994 716.821 602.794 715.821 601.694 714.921C601.394 714.621 600.994 714.321 600.694 714.121L600.494 713.921L591.994 707.021C586.794 702.521 581.594 697.821 576.394 693.021C565.194 682.421 564.794 664.821 575.394 653.621C585.994 642.421 603.594 642.021 614.794 652.621C619.194 656.721 623.594 660.821 627.994 664.521L635.494 670.621C636.094 671.021 636.594 671.521 637.194 672.021C637.594 672.421 638.294 672.921 638.494 673.021L646.694 679.021C647.194 679.421 647.694 679.721 648.094 680.121C648.394 680.421 648.794 680.621 649.094 680.921L649.594 681.221L659.994 688.021C660.394 688.221 660.694 688.421 661.094 688.621L671.094 694.421L681.494 699.621C681.794 699.821 682.194 699.921 682.494 700.121C682.594 700.221 682.794 700.221 682.894 700.321L689.194 703.121C699.694 707.621 710.794 711.221 722.194 713.921L722.894 714.121C723.494 714.221 724.394 714.421 725.294 714.621L730.494 715.721L736.794 716.721L743.294 717.521C743.994 717.621 744.794 717.621 745.494 717.721C746.194 717.821 746.794 717.821 747.494 717.921H747.894C749.394 718.121 751.294 718.121 753.194 718.221C754.094 718.221 754.894 718.321 755.794 718.321C760.394 718.421 766.294 718.421 771.994 717.921L772.894 717.821C774.394 717.721 776.394 717.521 778.394 717.221C779.194 717.121 780.094 717.021 780.894 716.921C781.294 716.921 781.994 716.721 782.594 716.621C783.294 716.521 783.994 716.421 784.694 716.321L785.294 716.221C786.094 716.121 787.094 715.921 787.494 715.821L788.094 715.721L792.494 714.821C793.194 714.621 793.794 714.521 794.494 714.321C795.194 714.121 795.794 714.021 796.494 713.821L798.194 713.421L804.094 711.621C809.494 709.821 814.194 707.921 818.494 705.821C832.394 699.121 848.994 705.021 855.694 718.821C862.394 732.721 856.494 749.321 842.694 756.021C836.294 759.121 829.394 761.921 821.594 764.521L820.694 764.821L812.494 767.321L809.994 767.921C809.494 768.021 808.894 768.221 808.394 768.321C807.194 768.621 806.094 768.921 804.894 769.221L804.194 769.421L799.694 770.321C797.594 770.821 795.694 771.121 794.194 771.321L793.294 771.421C792.894 771.521 792.394 771.521 791.994 771.621C790.794 771.821 789.294 772.021 787.594 772.321H787.394C786.594 772.421 785.894 772.521 785.094 772.621C782.594 772.921 779.694 773.321 776.494 773.521C770.794 773.921 765.294 774.021 760.494 774.021Z" fill="#00C389"/>
<path d="M629.893 754.522C626.093 754.522 622.293 753.422 618.893 751.222L605.893 742.722L596.893 736.122C593.493 733.722 590.493 731.222 587.593 728.922L580.893 723.422C579.493 722.222 578.193 721.122 576.993 720.122C576.493 719.722 575.993 719.222 575.493 718.822L575.293 718.722L569.593 713.622C568.193 712.422 566.693 711.022 565.093 709.522L554.293 699.022C548.693 693.322 542.893 687.322 537.293 681.122C526.093 668.822 514.493 655.022 501.893 638.822C494.993 630.022 496.593 617.422 505.293 610.522C514.093 603.622 526.693 605.222 533.593 613.922C545.693 629.322 556.593 642.422 567.093 653.922L567.193 654.122C572.193 659.722 577.393 665.022 582.993 670.722L583.893 671.722L593.193 680.622C593.993 681.422 594.993 682.322 596.093 683.322L601.793 688.422C602.393 688.922 602.993 689.522 603.593 690.022C604.493 690.822 605.293 691.522 605.893 692.022L612.693 697.622C615.193 699.722 617.693 701.622 619.993 703.322L620.293 703.522L628.993 709.922L640.693 717.622C649.993 723.722 652.593 736.222 646.493 745.522C642.793 751.422 636.393 754.522 629.893 754.522Z" fill="#59CBE8"/>
</svg>
