<svg width="1080" height="1080" viewBox="0 0 1080 1080" fill="none" xmlns="http://www.w3.org/2000/svg">
<g clip-path="url(#clip0)">
<path fill-rule="evenodd" clip-rule="evenodd" d="M229.814 462.577C229.814 442.376 215.264 426 197.314 426C179.365 426 164.814 442.376 164.814 462.577V706.423C164.814 726.624 179.365 743 197.314 743C212.492 743 225.239 731.291 228.814 715.462V743H287.814V813H340.814V581.973C340.814 567.629 328.95 556 314.314 556C302.188 556 291.963 563.984 288.814 574.881V515.391C288.814 499.159 275.383 486 258.814 486C244.911 486 233.217 495.265 229.814 507.837V462.577Z" fill="#B28038"/>
<path fill-rule="evenodd" clip-rule="evenodd" d="M851.109 462.577C851.109 442.376 865.66 426 883.609 426C901.559 426 916.109 442.376 916.109 462.577V706.423C916.109 726.624 901.559 743 883.609 743C868.432 743 855.685 731.291 852.109 715.462V743H793.109V813H740.109V581.973C740.109 567.629 751.974 556 766.609 556C778.736 556 788.961 563.984 792.109 574.881V515.391C792.109 499.159 805.541 486 822.109 486C836.012 486 847.707 495.265 851.109 507.837V462.577Z" fill="#B28038"/>
<path fill-rule="evenodd" clip-rule="evenodd" d="M131.2 431.472C150.087 431.472 165.399 446.784 165.399 465.672V620.646L165.547 620.802C165.306 622.814 165.957 624.914 167.502 626.458L240.101 699.057L246.185 705.444C246.224 705.382 246.263 705.32 246.302 705.258L271.371 730.328C274.042 732.999 278.373 732.999 281.044 730.328C283.715 727.657 283.715 723.326 281.044 720.655L228.917 668.528C219.72 656.862 220.502 639.897 231.266 629.134C242.874 617.526 261.694 617.526 273.302 629.134L415.724 771.556L415.179 772.1H417.11V1000.55H272.104V859.957L119.266 697.299C106.558 683.774 98.8563 666.398 97.2976 648.041C97.1013 646.558 97 645.046 97 643.509V465.672C97 446.784 112.312 431.472 131.2 431.472Z" fill="#E4AC7B"/>
<path fill-rule="evenodd" clip-rule="evenodd" d="M949.724 431.472C930.836 431.472 915.525 446.784 915.525 465.672V620.646L915.376 620.802C915.618 622.814 914.967 624.914 913.422 626.458L840.823 699.057L834.739 705.444C834.7 705.382 834.661 705.32 834.622 705.258L809.553 730.328C806.881 732.999 802.551 732.999 799.88 730.328C797.208 727.657 797.208 723.326 799.88 720.655L852.006 668.528C861.204 656.862 860.421 639.897 849.658 629.134C838.05 617.526 819.23 617.526 807.622 629.134L665.2 771.556L665.744 772.1H663.814V1000.55H808.82V859.957L961.658 697.299C974.366 683.774 982.068 666.398 983.626 648.041C983.823 646.558 983.924 645.046 983.924 643.509V465.672C983.924 446.784 968.612 431.472 949.724 431.472Z" fill="#E4AC7B"/>
<path d="M754.228 413.23C752.021 416.015 748.858 417.882 745.352 418.466C741.847 419.051 738.249 418.312 735.257 416.393C732.266 414.474 730.094 411.512 729.164 408.082C728.234 404.652 728.611 400.998 730.223 397.831C736.9 384.719 742.238 370.968 746.156 356.785C750.055 342.602 752.486 328.055 753.41 313.375C755.182 283.938 750.945 254.448 740.956 226.7C739.664 223.125 739.846 219.184 741.461 215.743C743.075 212.302 745.99 209.643 749.565 208.352C753.14 207.061 757.081 207.242 760.522 208.857C763.963 210.471 766.622 213.387 767.913 216.961C779.222 248.399 784.016 281.808 782.005 315.157C780.951 331.797 778.192 348.285 773.77 364.362C769.353 380.413 763.325 395.977 755.778 410.817C755.345 411.672 754.826 412.481 754.228 413.23Z" fill="#F5B6CD"/>
<path d="M430.545 505.819C428.382 508.543 425.303 510.387 421.881 511.007C418.459 511.628 414.928 510.983 411.946 509.193C406.237 505.768 400.434 501.929 394.689 497.781C388.747 493.477 383.435 489.279 378.412 484.927C357.479 466.857 339.775 445.356 326.057 421.345C298.337 373.024 287.985 316.672 296.72 261.653C297.81 254.877 299.196 248.066 300.843 241.396L300.881 241.239L301.262 239.678C301.551 238.571 301.827 237.454 302.146 236.284L302.178 236.243L303.593 231.225L305.496 225.051L306.658 221.584C307.916 218.042 310.515 215.135 313.895 213.491C317.275 211.847 321.166 211.597 324.729 212.795C328.292 213.993 331.242 216.542 332.943 219.894C334.644 223.246 334.96 227.132 333.822 230.715L332.418 235.019L331.054 239.476L329.79 243.965C329.554 244.82 329.324 245.726 329.082 246.69L328.657 248.357C327.205 254.24 325.974 260.257 325.035 266.193C323.126 278.228 322.234 290.403 322.367 302.588C322.876 339.301 332.713 375.283 350.953 407.15C363.065 428.343 378.698 447.318 397.18 463.263C401.566 467.069 406.249 470.763 411.475 474.579C416.537 478.24 421.661 481.629 426.691 484.623C429.949 486.579 432.297 489.75 433.219 493.438C434.14 497.125 433.56 501.028 431.605 504.287C431.284 504.82 430.93 505.331 430.545 505.819Z" fill="#FF7F41"/>
<path d="M590.193 518.152C588.708 520.029 586.61 521.324 584.266 521.808C554.093 528.083 522.958 528.149 492.759 522.002C462.596 515.754 433.997 503.507 408.661 485.987C383.331 468.425 361.884 445.842 345.652 419.641C329.421 393.449 318.647 364.249 313.978 333.791C313.76 332.454 313.809 331.086 314.123 329.768C314.437 328.449 315.009 327.207 315.807 326.111C316.605 325.016 317.613 324.09 318.772 323.387C319.93 322.684 321.217 322.218 322.557 322.017C323.897 321.815 325.264 321.881 326.578 322.212C327.893 322.543 329.128 323.131 330.213 323.943C331.298 324.755 332.211 325.774 332.899 326.942C333.588 328.109 334.037 329.402 334.222 330.744C338.473 358.452 348.277 385.015 363.045 408.841C377.801 432.664 397.3 453.198 420.329 469.166C443.39 485.113 469.423 496.26 496.879 501.943C524.334 507.535 552.641 507.477 580.073 501.772C582.133 501.341 584.276 501.554 586.21 502.384C588.143 503.215 589.775 504.62 590.881 506.411C591.987 508.201 592.514 510.289 592.391 512.39C592.268 514.491 591.5 516.503 590.193 518.152Z" fill="#FDDA24"/>
<path d="M765.763 311.286C763.908 313.629 761.367 315.334 758.496 316.161C755.625 316.989 752.566 316.898 749.749 315.902C746.932 314.905 744.497 313.053 742.784 310.605C741.071 308.156 740.167 305.233 740.197 302.245C740.317 290.432 739.403 278.631 737.465 266.977C736.485 261.079 735.255 255.251 733.812 249.66C732.317 243.955 730.597 238.266 728.633 232.717C720.771 210.375 709.043 189.589 693.985 171.307C686.48 162.192 678.184 153.758 669.194 146.103C664.541 142.145 659.856 138.497 655.276 135.264C650.479 131.867 645.466 128.633 640.367 125.651C630.153 119.676 619.439 114.597 608.347 110.472C606.554 109.837 604.906 108.85 603.498 107.571C602.09 106.291 600.951 104.744 600.147 103.02C599.343 101.296 598.891 99.4285 598.816 97.5275C598.742 95.6266 599.046 93.7298 599.712 91.9478C600.378 90.1658 601.393 88.5342 602.696 87.1483C603.999 85.7623 605.565 84.6496 607.303 83.8752C609.04 83.1008 610.915 82.6801 612.817 82.6376C614.719 82.5952 616.61 82.9318 618.38 83.6279C631.022 88.327 643.231 94.1162 654.87 100.93C660.657 104.316 666.35 108.016 671.818 111.857C677.084 115.572 682.457 119.759 687.781 124.288C698.065 133.043 707.555 142.691 716.14 153.117C733.31 173.972 746.691 197.675 755.673 223.151C757.912 229.485 759.898 235.985 761.577 242.477C763.256 248.969 764.613 255.547 765.748 262.262C767.956 275.57 768.999 289.046 768.864 302.535C768.834 305.716 767.742 308.796 765.763 311.286Z" fill="#00C389"/>
<path d="M646.412 516.615L636.016 521.808C635.358 522.135 634.672 522.406 633.967 522.616C633.108 522.917 630.966 523.699 628.888 524.452C623.676 526.336 615.763 529.22 609.24 531.503L608.64 531.696C608.052 531.865 607.465 532.041 606.886 532.224C605.406 532.668 603.879 533.129 602.252 533.557C593.639 535.919 584.906 537.815 576.09 539.237C567.228 540.641 558.296 541.557 549.333 541.982C540.357 542.413 531.363 542.339 522.396 541.759C513.45 541.173 504.544 540.09 495.718 538.517C494.112 538.253 492.575 537.674 491.195 536.811C489.815 535.948 488.62 534.82 487.68 533.492C486.74 532.164 486.073 530.662 485.718 529.074C485.363 527.486 485.327 525.843 485.612 524.241C485.898 522.639 486.499 521.109 487.38 519.741C488.262 518.373 489.406 517.194 490.747 516.272C492.088 515.35 493.599 514.704 495.192 514.371C496.785 514.038 498.428 514.025 500.026 514.332C507.963 515.743 515.971 516.717 524.015 517.25C532.061 517.764 540.13 517.824 548.182 517.43C556.23 517.049 564.252 516.227 572.21 514.968C580.166 513.684 588.047 511.968 595.818 509.831L595.985 509.789C597.204 509.472 598.479 509.093 599.833 508.682L601.447 508.203C607.773 505.992 615.406 503.226 620.501 501.363L624.77 499.808L626.08 499.342C633.456 496.774 639.588 500.72 641.84 505.949L646.412 516.615ZM621.091 518.686C622.501 520.397 624.356 521.685 626.451 522.409C624.361 521.675 622.508 520.389 621.091 518.686Z" fill="#9063CD"/>
<path d="M708.843 143.641C707.947 144.776 706.822 145.708 705.54 146.376C704.259 147.044 702.85 147.433 701.407 147.518C699.964 147.602 698.52 147.38 697.169 146.865C695.819 146.351 694.592 145.556 693.571 144.533C677.14 128.097 658.194 114.387 637.445 103.918C631.896 101.134 626.714 98.7618 621.634 96.6762C616.222 94.4688 610.717 92.4474 605.301 90.6841C599.773 88.9188 594.126 87.3463 588.524 86.0034C583.221 84.7301 577.638 83.6423 571.457 82.676C548.528 79.1135 525.176 79.2448 502.289 83.0648C501.752 83.1608 501.214 83.2494 500.676 83.338C499.748 83.498 498.867 83.6415 498.036 83.8052L493.368 84.7579C490.554 85.3683 487.897 85.9493 485.276 86.6192L485.226 86.6326C479.378 88.1138 473.736 89.7313 468.52 91.4783C457.522 95.162 446.83 99.7014 436.541 105.055C435.349 105.681 434.047 106.065 432.707 106.187C431.367 106.309 430.016 106.166 428.732 105.766C427.447 105.366 426.254 104.717 425.22 103.856C424.187 102.995 423.333 101.939 422.707 100.748C422.082 99.5567 421.697 98.254 421.575 96.9142C421.453 95.5743 421.596 94.2236 421.996 92.939C422.396 91.6544 423.045 90.4612 423.906 89.4275C424.767 88.3938 425.823 87.5398 427.014 86.9143C438.265 81.0588 449.955 76.0905 461.979 72.0549C467.702 70.141 473.827 68.3591 480.194 66.7616C483.17 65.9983 486.129 65.356 488.994 64.7322L489.619 64.5999L494.084 63.7268C495.184 63.5094 496.245 63.3339 497.269 63.1627C497.765 63.0751 498.263 62.9949 498.756 62.9041L498.84 62.8906C523.909 58.6895 549.49 58.5345 574.609 62.4314C581.359 63.488 587.461 64.6796 593.301 66.0769C599.388 67.5572 605.538 69.2539 611.554 71.1785L611.599 71.2143C617.492 73.1347 623.473 75.3319 629.373 77.7396C634.959 80.0312 640.593 82.6153 646.637 85.6438C669.333 97.0961 690.057 112.096 708.026 130.079C709.798 131.849 710.859 134.206 711.009 136.705C711.159 139.204 710.389 141.672 708.843 143.641Z" fill="#59CBE8"/>
<path d="M653.021 910.266H819.915V993.713C819.915 1008.82 807.666 1021.07 792.556 1021.07H680.381C665.271 1021.07 653.021 1008.82 653.021 993.713V910.266Z" fill="#59CBE8"/>
<path d="M428.053 910.266H261.159V993.713C261.159 1008.82 273.408 1021.07 288.518 1021.07H400.693C415.803 1021.07 428.053 1008.82 428.053 993.713V910.266Z" fill="#F5B6CD"/>
<path d="M828.124 878.803H644.814V918.474H828.124V878.803Z" fill="#FF7F41"/>
<path d="M252.95 878.803H436.26V918.474H252.95V878.803Z" fill="#9063CD"/>
<path fill-rule="evenodd" clip-rule="evenodd" d="M649.9 273.177C649.79 236.056 621.231 206 586.017 206C567.656 206 551.103 214.172 539.45 227.257C527.797 214.172 511.245 206 492.883 206C457.602 206 429 236.173 429 273.394H429.219C429.429 348.938 539.609 410.143 539.609 410.143C539.609 410.143 650 348.822 650 273.177H649.9Z" fill="#9063CD"/>
<path fill-rule="evenodd" clip-rule="evenodd" d="M406.97 145.232C406.929 131.289 396.202 120 382.975 120C376.079 120 369.862 123.069 365.485 127.983C361.108 123.069 354.891 120 347.995 120C334.743 120 324 131.333 324 145.313H324.082C324.161 173.689 365.545 196.678 365.545 196.678C365.545 196.678 407.009 173.645 407.009 145.232H406.97Z" fill="#FF7F41"/>
<path fill-rule="evenodd" clip-rule="evenodd" d="M732.97 456.232C732.929 442.289 722.202 431 708.975 431C702.079 431 695.862 434.069 691.485 438.983C687.108 434.069 680.891 431 673.995 431C660.743 431 650 442.333 650 456.313H650.082C650.161 484.689 691.545 507.678 691.545 507.678C691.545 507.678 733.009 484.645 733.009 456.232H732.97Z" fill="#FF7F41"/>
<path d="M172 353C144.386 353 122 330.614 122 303C122 275.386 144.386 253 172 253C199.614 253 222 275.386 222 303C222 330.614 199.614 353 172 353Z" fill="#FDDA24"/>
<path d="M171.254 330.612C155.592 330.612 142.896 317.916 142.896 302.254C142.896 286.592 155.592 273.896 171.254 273.896C186.916 273.896 199.612 286.592 199.612 302.254C199.612 317.916 186.916 330.612 171.254 330.612Z" fill="#FF7F41"/>
<path d="M908 353C880.386 353 858 330.614 858 303C858 275.386 880.386 253 908 253C935.614 253 958 275.386 958 303C958 330.614 935.614 353 908 353Z" fill="#FDDA24"/>
<path d="M907.254 330.612C891.592 330.612 878.896 317.916 878.896 302.254C878.896 286.592 891.592 273.896 907.254 273.896C922.916 273.896 935.612 286.592 935.612 302.254C935.612 317.916 922.916 330.612 907.254 330.612Z" fill="#FF7F41"/>
</g>
<defs>
<clipPath id="clip0">
<rect width="1080" height="1080" fill="white"/>
</clipPath>
</defs>
</svg>
