<svg width="1080" height="1080" viewBox="0 0 1080 1080" fill="none" xmlns="http://www.w3.org/2000/svg">
<g clip-path="url(#clip0)">
<path d="M129.779 913.168L92.2812 973.002H1020.81L983.151 913.168H129.779Z" fill="#E6DCCB"/>
<path d="M284.178 578.809H211.67L152.207 671.036L348.901 645.955L284.178 578.809Z" fill="#FF7F41"/>
<path d="M369.666 667.508L135.2 697.401L75.5664 789.893L450.659 751.545L369.666 667.508Z" fill="#F5B6CD"/>
<path d="M58.9073 815.728L27 865.201H560.192L471.829 773.512L58.9073 815.728Z" fill="#9063CD"/>
<path d="M915.37 653.391L867.268 578.809H317.551L481.041 748.449L637.428 732.455L845.464 711.196L946.02 700.91L915.37 653.391Z" fill="#00C389"/>
<path d="M960.619 723.559L846.99 735.165L635.662 756.764L502.215 770.408L593.576 865.203H1051.96L960.619 723.559Z" fill="#59CBE8"/>
<path d="M946.02 700.911L845.464 711.196L637.428 732.455L481.042 748.449L317.551 578.809H284.178L348.9 645.955L152.207 671.036L135.198 697.4L369.664 667.507L450.658 751.544L75.5646 789.892L58.9062 815.719L471.828 773.511L560.191 865.201H593.574L502.212 770.407L635.659 756.762L846.987 735.163L960.616 723.557L946.02 700.911Z" fill="white"/>
<path d="M822.195 787.254H932.788L950.335 815.156H834.814L822.195 787.254Z" fill="#FF7F41"/>
<path d="M237.191 736.629H144.619L129.777 760.219H229.066L237.191 736.629Z" fill="#00C389"/>
<path d="M480.468 594.504H634.357L661.213 637.211H459.184L480.468 594.504Z" fill="#FF7F41"/>
<path d="M886.264 411.727C867.575 411.725 849.068 415.397 831.801 422.532C814.535 429.667 798.846 440.125 785.633 453.309C772.419 466.494 761.939 482.146 754.791 499.371C747.642 516.596 743.966 535.058 743.973 553.701C743.973 684.541 886.264 801.207 886.264 801.207C886.264 801.207 1028.56 684.541 1028.56 553.701C1028.56 535.058 1024.88 516.597 1017.74 499.372C1010.59 482.148 1000.11 466.496 986.893 453.312C973.68 440.128 957.992 429.67 940.726 422.534C923.46 415.399 904.953 411.727 886.264 411.727Z" fill="#FDDA24"/>
<path d="M981.296 576.052C993.687 523.683 961.172 471.21 908.673 458.85C856.173 446.49 803.569 478.923 791.178 531.292C778.787 583.66 811.301 636.133 863.801 648.493C916.301 660.853 968.905 628.42 981.296 576.052Z" fill="white"/>
<path d="M933.913 547.821C932.727 547.82 931.542 547.896 930.366 548.048L912.289 481.93H888.498V490.167H905.989L915.108 523.533L878.471 567.42L872.889 539.612H888.498V531.374H855.474V539.612H864.47L871.092 572.553H863.439C862.395 565.34 858.651 558.789 852.96 554.218C847.269 549.648 840.054 547.397 832.767 547.919C825.479 548.441 818.661 551.697 813.683 557.032C808.705 562.367 805.938 569.384 805.938 576.672C805.938 583.96 808.705 590.978 813.683 596.312C818.661 601.647 825.479 604.903 832.767 605.425C840.054 605.947 847.269 603.696 852.96 599.126C858.651 594.555 862.395 588.004 863.439 580.791H878.054L917.785 533.252L922.429 550.237C915.871 553.08 910.603 558.247 907.644 564.74C904.684 571.233 904.244 578.59 906.408 585.388C908.571 592.186 913.186 597.942 919.358 601.543C925.53 605.144 932.822 606.333 939.823 604.882C946.823 603.43 953.036 599.44 957.258 593.684C961.48 587.927 963.412 580.814 962.681 573.719C961.949 566.624 958.606 560.051 953.297 555.273C947.989 550.494 941.092 547.85 933.942 547.85L933.913 547.821ZM834.852 597.238C830.947 597.237 827.122 596.132 823.822 594.05C820.521 591.968 817.88 588.994 816.206 585.475C814.532 581.955 813.893 578.034 814.364 574.167C814.834 570.3 816.395 566.646 818.865 563.628C821.334 560.61 824.611 558.354 828.316 557.119C832.02 555.885 835.999 555.725 839.791 556.657C843.582 557.588 847.032 559.574 849.737 562.383C852.443 565.191 854.295 568.708 855.077 572.525H830.699V580.763H855.058C854.1 585.406 851.568 589.579 847.888 592.579C844.208 595.58 839.605 597.225 834.852 597.238ZM933.932 597.238C929.291 597.238 924.786 595.678 921.144 592.808C917.501 589.939 914.936 585.929 913.86 581.425C912.785 576.922 913.264 572.188 915.219 567.989C917.174 563.791 920.49 560.372 924.633 558.286L931.028 581.697L938.993 579.536L932.58 556.097C933.024 556.097 933.459 556.031 933.913 556.031C939.388 556.031 944.638 558.2 948.509 562.061C952.38 565.922 954.554 571.159 954.554 576.62C954.554 582.081 952.38 587.318 948.509 591.179C944.638 595.04 939.388 597.21 933.913 597.21L933.932 597.238Z" fill="#00C389"/>
<path d="M560.199 106C458.698 106 376.418 188.093 376.418 289.313C376.418 458.303 560.199 608.94 560.199 608.94C560.199 608.94 743.971 458.303 743.971 289.313C743.971 188.093 661.739 106 560.199 106Z" fill="#FDDA24"/>
<path d="M649.397 378.291C698.659 329.152 698.659 249.481 649.397 200.342C600.134 151.202 520.264 151.202 471.002 200.342C421.74 249.481 421.74 329.152 471.002 378.291C520.264 427.43 600.134 427.43 649.397 378.291Z" fill="white"/>
<path d="M505.573 284.773C501.972 284.773 498.451 285.839 495.456 287.835C492.462 289.831 490.128 292.667 488.749 295.987C487.371 299.306 487.011 302.958 487.713 306.481C488.416 310.005 490.15 313.242 492.697 315.782C495.243 318.322 498.488 320.052 502.021 320.753C505.553 321.454 509.214 321.094 512.542 319.719C515.869 318.345 518.713 316.016 520.714 313.029C522.715 310.042 523.783 306.53 523.783 302.938C523.778 298.122 521.858 293.505 518.444 290.099C515.03 286.694 510.401 284.778 505.573 284.773ZM505.573 312.025C503.771 312.027 502.009 311.495 500.509 310.498C499.01 309.5 497.841 308.082 497.15 306.422C496.459 304.761 496.277 302.934 496.628 301.171C496.978 299.407 497.845 297.787 499.119 296.516C500.392 295.244 502.016 294.378 503.783 294.026C505.55 293.675 507.382 293.854 509.048 294.542C510.713 295.229 512.136 296.394 513.137 297.888C514.139 299.383 514.673 301.14 514.673 302.938C514.671 305.345 513.711 307.654 512.006 309.357C510.3 311.06 507.987 312.02 505.573 312.025Z" fill="#00C389"/>
<path d="M614.831 284.773C611.229 284.773 607.709 285.839 604.714 287.835C601.719 289.831 599.385 292.667 598.007 295.987C596.629 299.306 596.268 302.958 596.971 306.481C597.674 310.005 599.408 313.242 601.955 315.782C604.501 318.322 607.746 320.052 611.278 320.753C614.811 321.454 618.472 321.094 621.799 319.719C625.127 318.345 627.971 316.016 629.972 313.029C631.973 310.042 633.041 306.53 633.041 302.938C633.038 298.121 631.119 293.502 627.704 290.096C624.29 286.69 619.66 284.776 614.831 284.773ZM614.831 312.025C613.029 312.027 611.267 311.495 609.767 310.498C608.268 309.5 607.099 308.082 606.408 306.422C605.717 304.761 605.535 302.934 605.886 301.171C606.236 299.407 607.103 297.787 608.377 296.516C609.65 295.244 611.273 294.378 613.041 294.026C614.808 293.675 616.64 293.854 618.305 294.542C619.97 295.229 621.394 296.394 622.395 297.888C623.397 299.383 623.931 301.14 623.931 302.938C623.929 305.345 622.969 307.654 621.264 309.357C619.558 311.06 617.244 312.02 614.831 312.025Z" fill="#00C389"/>
<path d="M641.138 275.208C644.299 274.321 647.034 272.326 648.841 269.59C650.647 266.855 651.405 263.561 650.973 260.313C650.542 257.065 648.952 254.082 646.494 251.909C644.035 249.736 640.874 248.521 637.59 248.485H620.204L616.666 227.339C615.968 223.09 613.776 219.228 610.482 216.446C607.189 213.663 603.009 212.142 598.692 212.156H521.738C517.422 212.141 513.241 213.66 509.946 216.443C506.652 219.226 504.461 223.089 503.765 227.339L500.189 248.485H482.803C479.495 248.489 476.301 249.69 473.814 251.866C471.328 254.042 469.718 257.045 469.285 260.316C468.851 263.587 469.623 266.904 471.457 269.65C473.291 272.396 476.062 274.385 479.255 275.246C476.065 278.213 473.522 281.803 471.784 285.794C470.045 289.784 469.15 294.089 469.152 298.439V339.307H487.353V348.394C487.36 353.21 489.282 357.828 492.698 361.233C496.113 364.638 500.743 366.553 505.572 366.558H514.672C519.499 366.55 524.127 364.634 527.54 361.229C530.953 357.825 532.874 353.209 532.882 348.394V339.307H587.511V348.394C587.519 353.209 589.44 357.825 592.853 361.229C596.266 364.634 600.894 366.55 605.721 366.558H614.83C619.658 366.55 624.285 364.634 627.698 361.229C631.112 357.825 633.033 353.209 633.04 348.394V339.307H651.25V298.402C651.251 294.05 650.353 289.745 648.614 285.755C646.874 281.765 644.329 278.174 641.138 275.208ZM637.59 257.534C638.797 257.534 639.954 258.012 640.808 258.864C641.661 259.715 642.14 260.869 642.14 262.073C642.14 263.277 641.661 264.431 640.808 265.282C639.954 266.133 638.797 266.612 637.59 266.612H623.231L621.717 257.534H637.59ZM512.723 228.792C513.082 226.676 514.182 224.755 515.828 223.373C517.474 221.99 519.558 221.236 521.71 221.243H598.721C600.872 221.234 602.956 221.988 604.601 223.371C606.245 224.754 607.343 226.676 607.698 228.792L614.026 266.612H506.385L512.723 228.792ZM482.821 257.534H498.695L497.143 266.612H482.803C481.596 266.612 480.438 266.133 479.585 265.282C478.732 264.431 478.253 263.277 478.253 262.073C478.253 260.869 478.732 259.715 479.585 258.864C480.438 258.012 481.596 257.534 482.803 257.534H482.821ZM523.801 348.356C523.796 350.763 522.834 353.071 521.126 354.772C519.419 356.474 517.105 357.431 514.691 357.433H505.591C503.177 357.431 500.863 356.474 499.155 354.772C497.448 353.071 496.486 350.763 496.481 348.356V339.269H523.801V348.356ZM623.95 348.356C623.945 350.762 622.984 353.068 621.279 354.769C619.573 356.47 617.261 357.428 614.849 357.433H605.74C603.327 357.431 601.014 356.474 599.308 354.772C597.602 353.07 596.642 350.763 596.64 348.356V339.269H623.902L623.95 348.356ZM642.159 330.191H478.224V298.402C478.232 292.383 480.632 286.612 484.899 282.356C489.165 278.1 494.95 275.706 500.984 275.699H619.381C625.415 275.706 631.199 278.1 635.466 282.356C639.733 286.612 642.133 292.383 642.14 298.402L642.159 330.191Z" fill="#00C389"/>
<path d="M189.952 358.035C171.266 358.035 152.763 361.706 135.499 368.839C118.236 375.972 102.549 386.427 89.3364 399.607C62.6515 426.226 47.6602 462.328 47.6602 499.972C47.6602 630.812 189.952 747.479 189.952 747.479C189.952 747.479 332.253 630.812 332.253 499.972C332.253 481.332 328.572 462.874 321.421 445.653C314.269 428.432 303.787 412.784 290.573 399.604C277.359 386.424 261.672 375.969 244.407 368.837C227.143 361.704 208.639 358.034 189.952 358.035Z" fill="#FDDA24"/>
<path d="M285.014 522.337C297.405 469.968 264.891 417.495 212.392 405.135C159.892 392.775 107.288 425.208 94.8969 477.577C82.5058 529.945 115.02 582.418 167.52 594.778C220.019 607.138 272.623 574.705 285.014 522.337Z" fill="white"/>
<path d="M232.605 440.922V432.363H217.952L203.015 447.263C201.41 445.283 199.382 443.685 197.078 442.588C194.774 441.491 192.254 440.922 189.701 440.922C187.148 440.922 184.628 441.491 182.324 442.588C180.02 443.685 177.992 445.283 176.387 447.263L161.45 432.363H146.797V440.922H157.893L171.628 454.623C166.644 457.672 162.53 461.95 159.683 467.046C156.837 472.141 155.354 477.881 155.377 483.714V543.633H172.537V560.75C172.642 565.221 174.496 569.474 177.704 572.599C180.911 575.724 185.217 577.474 189.701 577.474C194.185 577.474 198.491 575.724 201.698 572.599C204.906 569.474 206.76 565.221 206.865 560.75V543.633H224.025V483.714C223.994 477.892 222.486 472.173 219.643 467.088C216.8 462.003 212.713 457.718 207.764 454.632L221.509 440.922H232.605ZM189.706 449.471C191.403 449.471 193.061 449.973 194.472 450.913C195.883 451.854 196.983 453.19 197.632 454.754C198.282 456.318 198.452 458.039 198.121 459.699C197.79 461.359 196.973 462.884 195.773 464.081C194.573 465.278 193.044 466.093 191.38 466.423C189.715 466.753 187.99 466.584 186.422 465.936C184.855 465.288 183.515 464.191 182.572 462.784C181.629 461.377 181.126 459.722 181.126 458.029C181.128 455.76 182.033 453.585 183.642 451.98C185.25 450.376 187.431 449.473 189.706 449.471ZM198.286 560.74C198.286 561.864 198.064 562.977 197.632 564.015C197.201 565.054 196.569 565.997 195.773 566.792C194.976 567.587 194.03 568.217 192.989 568.647C191.948 569.077 190.832 569.299 189.706 569.299C188.579 569.299 187.463 569.077 186.422 568.647C185.381 568.217 184.436 567.587 183.639 566.792C182.842 565.997 182.21 565.054 181.779 564.015C181.348 562.977 181.126 561.864 181.126 560.74V543.633H198.286V560.74ZM198.286 535.065H181.116V517.948C181.116 515.678 182.02 513.501 183.629 511.896C185.238 510.291 187.421 509.389 189.696 509.389C191.972 509.389 194.154 510.291 195.763 511.896C197.372 513.501 198.276 515.678 198.276 517.948L198.286 535.065ZM215.455 483.705V535.065H206.875V517.948C206.77 513.477 204.915 509.224 201.708 506.098C198.5 502.973 194.194 501.224 189.71 501.224C185.227 501.224 180.921 502.973 177.713 506.098C174.506 509.224 172.651 513.477 172.546 517.948V535.074H163.966V483.714C163.952 479.879 164.805 476.09 166.461 472.628C168.116 469.167 170.533 466.122 173.53 463.719C174.706 467.058 176.893 469.95 179.788 471.996C182.683 474.041 186.144 475.14 189.692 475.14C193.239 475.14 196.7 474.041 199.595 471.996C202.49 469.95 204.677 467.058 205.853 463.719C208.839 466.133 211.249 469.18 212.908 472.638C214.567 476.097 215.434 479.88 215.445 483.714L215.455 483.705Z" fill="#00C389"/>
<path d="M37.415 913.166H1040.69L1053 865.203H27L37.415 913.166Z" fill="#2C2A29"/>
</g>
<defs>
<clipPath id="clip0">
<rect width="1026" height="867" fill="white" transform="translate(27 106)"/>
</clipPath>
</defs>
</svg>
