<svg width="300" height="300" viewBox="0 0 300 300" fill="none" xmlns="http://www.w3.org/2000/svg">
<path d="M161.093 238.924C161.093 218.508 177.621 201.98 198.037 201.98C218.454 201.98 234.982 218.508 234.982 238.924" fill="#FF7F41"/>
<path d="M55.1484 238.924C55.1484 205.146 82.5373 177.73 116.343 177.73C150.148 177.73 177.537 205.119 177.537 238.924" fill="#FF7F41"/>
<path d="M109.759 256.869C109.342 256.869 108.926 256.813 108.481 256.73C105.398 256.035 103.481 252.98 104.176 249.896L121.315 174.591C122.009 171.508 125.065 169.591 128.148 170.285C131.231 170.98 133.148 174.035 132.454 177.119L115.315 252.424C114.704 255.091 112.342 256.869 109.759 256.869Z" fill="#F5B6CD"/>
<path d="M175.231 162.952C158.676 162.952 142.204 157.841 128.565 148.452C114.259 138.619 103.231 124.146 97.5092 107.73C96.4814 104.758 98.0369 101.508 101.037 100.452C104.009 99.4243 107.259 100.98 108.315 103.98C113.231 118.119 122.731 130.563 135.065 139.035C147.398 147.508 162.426 151.952 177.37 151.48C180.537 151.396 183.148 153.869 183.259 157.008C183.342 160.146 180.87 162.785 177.731 162.896C176.87 162.952 176.037 162.952 175.231 162.952Z" fill="#00C389"/>
<path d="M131.86 74.5643C137.865 68.2916 137.189 57.9005 130.351 51.3551C123.513 44.8097 113.102 44.5886 107.098 50.8613C101.094 57.134 101.769 67.5251 108.607 74.0705C115.445 80.616 125.856 80.837 131.86 74.5643Z" fill="#E4AC7B"/>
<path d="M110.926 276.841C110.509 276.841 110.093 276.785 109.648 276.702C106.565 276.008 104.648 272.952 105.343 269.869L122.482 194.563C123.176 191.48 126.232 189.563 129.315 190.258C132.398 190.952 134.315 194.008 133.621 197.091L116.482 272.397C115.898 275.035 113.537 276.841 110.926 276.841Z" fill="#00C389"/>
<path d="M55.1481 275.785C53.5926 275.785 52.0093 275.146 50.8981 273.869C48.787 271.508 49.0093 267.896 51.3426 265.813C67.8981 251.008 77.9537 233.619 83.4815 221.646C89.5093 208.563 91.6204 198.869 91.6481 198.785C92.3148 195.702 95.3426 193.73 98.4259 194.396C101.509 195.035 103.481 198.063 102.843 201.146C102.759 201.591 100.537 211.924 94.037 226.119C88.0648 239.174 77.1204 258.119 58.9815 274.341C57.8426 275.313 56.4815 275.785 55.1481 275.785Z" fill="#59CBE8"/>
<path d="M166.565 154.702C166.398 154.702 166.232 154.702 166.065 154.674C145.954 152.008 137.815 145.091 135.148 142.813C135.065 142.73 134.954 142.646 134.843 142.563C133.482 141.813 132.676 140.23 132.982 138.591C133.37 136.563 135.315 135.202 137.343 135.591C138.482 135.813 139.176 136.396 139.982 137.091C142.232 139.008 149.12 144.841 167.037 147.23C169.093 147.508 170.537 149.396 170.259 151.452C170.009 153.313 168.398 154.674 166.565 154.702Z" fill="#FDDA24"/>
<path d="M133.037 208.313L147.371 144.313L145.76 144.341C110.898 144.702 83.204 169.841 75.8984 207.813L133.037 208.313Z" fill="#2C2A29"/>
<path d="M145.898 151.063L115.481 151.619L91.7036 93.5354C91.7036 93.5076 179.565 49.8132 145.898 151.063Z" fill="#9063CD"/>
<path d="M146.259 124.23C131.954 124.23 118.121 120.785 106.009 114.202C103.232 112.702 102.204 109.23 103.732 106.452C105.232 103.674 108.704 102.647 111.482 104.174C134.621 116.758 164.954 115.452 186.926 100.924C189.565 99.1743 193.093 99.8965 194.843 102.535C196.593 105.174 195.871 108.702 193.232 110.452C180.704 118.73 165.815 123.48 150.148 124.147C148.843 124.202 147.537 124.23 146.259 124.23Z" fill="#FF7F41"/>
<path d="M146.62 117.702C132.787 117.702 122.731 114.119 122.092 113.896C120.148 113.174 119.148 111.035 119.842 109.091C120.565 107.146 122.704 106.146 124.648 106.841C124.954 106.952 146.398 114.48 168.592 106.508C170.537 105.813 172.676 106.813 173.398 108.758C174.092 110.702 173.092 112.841 171.148 113.563C162.481 116.674 154.009 117.702 146.62 117.702Z" fill="#FDDA24"/>
<ellipse cx="222.083" cy="87.3611" rx="30.6945" ry="30.6944" fill="#00C389"/>
<path d="M232.666 92.8833C232.666 95.0555 231.958 96.8972 230.541 98.4083C229.124 99.8879 227.204 100.943 224.78 101.572C225.189 103.304 225.346 105.051 225.252 106.814C224.182 107.066 223.158 107.192 222.183 107.192C221.238 107.192 220.215 107.066 219.113 106.814L219.066 105.775C219.066 104.673 219.192 103.493 219.444 102.233C216.799 102.233 214.328 101.887 212.03 101.194C211.809 100.565 211.699 99.8879 211.699 99.1638C211.699 97.9046 211.998 96.724 212.596 95.6222C215.43 96.6611 217.728 97.1805 219.491 97.1805C223.93 97.1805 226.149 95.9213 226.149 93.4027C226.149 92.2694 225.787 91.325 225.063 90.5694C224.371 89.7824 222.954 88.9638 220.813 88.1138C218.704 87.2638 217.035 86.4611 215.808 85.7055C214.58 84.9185 213.667 84.0055 213.069 82.9666C212.471 81.9277 212.171 80.6527 212.171 79.1416C212.171 77.0324 212.817 75.2379 214.108 73.7583C215.398 72.2787 217.208 71.2555 219.538 70.6889C219.129 69.1148 218.987 67.4305 219.113 65.6361C220.215 65.3842 221.238 65.2583 222.183 65.2583C223.158 65.2583 224.182 65.3842 225.252 65.6361L225.299 66.675C225.299 67.7768 225.173 68.9574 224.921 70.2166C226.621 70.2481 228.573 70.5472 230.777 71.1139C231.029 71.5231 231.155 72.0426 231.155 72.6722C231.155 73.3018 231.045 73.9629 230.824 74.6555C230.635 75.3166 230.399 75.8833 230.116 76.3555C227.251 75.5055 225.047 75.0805 223.505 75.0805C220.294 75.0805 218.688 76.1194 218.688 78.1972C218.688 79.0157 219.082 79.8342 219.869 80.6527C220.687 81.4398 221.821 82.1009 223.269 82.6361C225.756 83.549 227.676 84.4935 229.03 85.4694C230.384 86.4138 231.328 87.4685 231.863 88.6333C232.398 89.7981 232.666 91.2148 232.666 92.8833Z" fill="white"/>
<path fill-rule="evenodd" clip-rule="evenodd" d="M214.282 49.9491C214.49 50.7959 213.972 51.6511 213.126 51.8593C205.965 53.6198 199.401 57.7253 194.691 63.3985L194.69 63.4001L194.689 63.4016C189.964 69.0636 187.096 76.2563 186.667 83.6139C186.616 84.4845 185.869 85.149 184.998 85.0982C184.128 85.0474 183.463 84.3005 183.514 83.43C183.983 75.3915 187.11 67.5563 192.263 61.3802C197.405 55.1865 204.557 50.7143 212.372 48.7929C213.218 48.5847 214.074 49.1023 214.282 49.9491Z" fill="#FDDA24"/>
<path fill-rule="evenodd" clip-rule="evenodd" d="M258.149 84.094C257.281 84.1817 256.507 83.5495 256.419 82.682C255.677 75.3457 252.53 68.2721 247.571 62.8154L247.57 62.8139L247.568 62.8125C242.623 57.3427 235.902 53.4966 228.676 52.0426C227.822 51.8705 227.268 51.0381 227.44 50.1832C227.612 49.3284 228.444 48.7749 229.299 48.9469C237.193 50.5354 244.514 54.7271 249.909 60.693C255.323 66.6509 258.751 74.3573 259.561 82.3642C259.649 83.2318 259.016 84.0062 258.149 84.094Z" fill="#9063CD"/>
<path fill-rule="evenodd" clip-rule="evenodd" d="M188.92 71.7414C189.731 72.0605 190.13 72.9771 189.811 73.7886C187.113 80.6507 186.673 88.3804 188.584 95.5018L188.585 95.5037L188.585 95.5057C190.478 102.633 194.693 109.129 200.452 113.729C201.133 114.273 201.244 115.266 200.7 115.948C200.156 116.629 199.162 116.74 198.481 116.196C192.19 111.17 187.599 104.092 185.534 96.3185C183.448 88.5433 183.927 80.1224 186.873 72.633C187.192 71.8215 188.108 71.4223 188.92 71.7414Z" fill="#59CBE8"/>
<path fill-rule="evenodd" clip-rule="evenodd" d="M236.085 52.6599C236.214 52.3595 236.562 52.2206 236.862 52.3496C239.509 53.4865 242.025 54.926 244.347 56.6281C244.365 56.6412 244.388 56.6577 244.414 56.6757C244.463 56.7106 244.521 56.7517 244.568 56.7867L244.574 56.7914L244.79 56.9606L245.626 57.6179L245.835 57.7824L245.95 57.8725L246.062 57.9689L246.866 58.6653L247.275 59.0196L247.282 59.0261C247.366 59.1039 247.454 59.1879 247.537 59.2674C247.584 59.3125 247.63 59.3561 247.672 59.3963L247.674 59.3982L248.44 60.1283C248.559 60.238 248.673 60.3578 248.77 60.4599C248.793 60.4841 248.815 60.5072 248.836 60.5291L248.837 60.5305L249.572 61.3016C249.594 61.3244 249.617 61.3485 249.641 61.3738C249.738 61.4745 249.851 61.593 249.954 61.7162L250.649 62.5179C252.528 64.7082 254.12 67.1348 255.428 69.6972C256.099 70.9805 256.652 72.3137 257.163 73.6413C257.201 73.7323 257.232 73.8245 257.255 73.8951C257.259 73.9044 257.262 73.9133 257.264 73.9217L257.35 74.1728L257.35 74.1731L257.691 75.1807L257.691 75.1811L257.777 75.4366L257.778 75.4402C257.8 75.5066 257.822 75.5864 257.839 75.648C257.846 75.6731 257.853 75.6951 257.857 75.712L257.858 75.714L258.15 76.7415C258.166 76.7971 258.182 76.856 258.2 76.9166C258.232 77.0289 258.265 77.1468 258.295 77.2597L258.298 77.2696L258.42 77.7979C258.494 78.1164 258.295 78.4344 257.977 78.508C257.658 78.5816 257.34 78.383 257.267 78.0644L257.149 77.5563C257.122 77.4545 257.094 77.3575 257.065 77.2558C257.047 77.1936 257.029 77.1296 257.01 77.0618C257.01 77.0613 257.01 77.0608 257.01 77.0603L256.721 76.0436C256.721 76.0429 256.72 76.0421 256.72 76.0414C256.708 75.9981 256.698 75.9638 256.69 75.9336C256.677 75.8882 256.667 75.852 256.653 75.8082L256.569 75.5602L256.569 75.5599L256.228 74.553L256.228 74.5526L256.143 74.3013L256.143 74.3005C256.139 74.2914 256.137 74.2825 256.134 74.274C256.107 74.1956 256.089 74.1412 256.067 74.0887L256.064 74.0813L256.061 74.0738C255.555 72.7588 255.019 71.4708 254.377 70.2433L254.376 70.2408L254.375 70.2381C253.105 67.7515 251.564 65.4038 249.751 63.2899C249.75 63.2895 249.75 63.2892 249.75 63.2889L249.052 62.4827L249.048 62.4782C248.973 62.3881 248.895 62.3065 248.801 62.2088C248.773 62.1796 248.744 62.149 248.713 62.1163C248.713 62.1161 248.713 62.116 248.713 62.1158L247.982 61.3488C247.981 61.3486 247.981 61.3483 247.981 61.3481C247.952 61.3179 247.925 61.2892 247.899 61.2617C247.803 61.1616 247.723 61.0776 247.635 60.9971L247.631 60.9931L246.859 60.2569C246.859 60.2566 246.858 60.2564 246.858 60.2561C246.804 60.2051 246.754 60.1574 246.706 60.1111C246.632 60.04 246.561 59.9723 246.485 59.902L246.091 59.5603L245.288 58.8649L245.287 58.864L245.197 58.7869L245.103 58.7131L244.058 57.8915L243.856 57.7324C243.818 57.7046 243.786 57.6821 243.75 57.6566C243.722 57.6366 243.691 57.6147 243.652 57.5868L243.65 57.5856L243.649 57.5844C241.398 55.9343 238.96 54.5392 236.395 53.4375C236.095 53.3085 235.956 52.9604 236.085 52.6599Z" fill="#00C389"/>
<path fill-rule="evenodd" clip-rule="evenodd" d="M216.95 49.798C219.453 49.4338 221.99 49.3255 224.514 49.4699C224.84 49.4885 225.089 49.7683 225.071 50.0947C225.052 50.4212 224.772 50.6707 224.446 50.652C222.001 50.5121 219.544 50.6171 217.121 50.9697L217.121 50.9698C214.698 51.3218 212.311 51.9231 210.011 52.7618C205.412 54.4446 201.172 57.0902 197.624 60.463C197.387 60.6883 197.012 60.6788 196.787 60.4418C196.562 60.2048 196.571 59.8301 196.808 59.6048C200.472 56.1216 204.851 53.3889 209.605 51.6497L209.605 51.6494C211.982 50.7829 214.447 50.1617 216.95 49.798" fill="#FF7F41"/>
<path fill-rule="evenodd" clip-rule="evenodd" d="M258.732 89.8643C259.489 89.9631 260.022 90.6565 259.923 91.4131C259.647 93.5264 259.207 95.6281 258.574 97.6799L258.572 97.6836C257.936 99.7253 257.13 101.713 256.165 103.62L256.162 103.627L256.158 103.633C256.109 103.728 256.057 103.83 256.003 103.938C255.826 104.285 255.621 104.688 255.396 105.062L255.018 105.72C255.002 105.747 254.986 105.776 254.969 105.805C254.862 105.992 254.728 106.227 254.578 106.452C254.492 106.586 254.403 106.725 254.312 106.867C254.125 107.16 253.931 107.464 253.737 107.756L253.725 107.775L252.806 109.067L252.797 109.079C252.395 109.617 251.98 110.144 251.552 110.66C251.064 111.247 250.193 111.328 249.606 110.84C249.019 110.353 248.939 109.482 249.426 108.895C249.821 108.419 250.203 107.934 250.573 107.44L251.446 106.212C251.623 105.944 251.791 105.681 251.965 105.408C252.061 105.258 252.159 105.104 252.262 104.945L252.268 104.935L252.275 104.925C252.369 104.784 252.453 104.638 252.564 104.444C252.583 104.411 252.602 104.378 252.623 104.342L253.015 103.66L253.023 103.647C253.194 103.364 253.337 103.083 253.503 102.756C253.566 102.633 253.631 102.504 253.703 102.366C254.597 100.598 255.344 98.7557 255.934 96.8634C256.517 94.9744 256.926 93.0273 257.184 91.0554C257.282 90.2988 257.976 89.7655 258.732 89.8643Z" fill="#FDDA24"/>
<path fill-rule="evenodd" clip-rule="evenodd" d="M192.712 105.556C193.337 105.118 194.199 105.269 194.637 105.893C196.053 107.911 197.687 109.776 199.501 111.447L199.521 111.466L199.54 111.485C199.586 111.531 199.624 111.564 199.69 111.621C199.727 111.652 199.771 111.69 199.831 111.743L200.188 112.052C200.297 112.145 200.392 112.228 200.482 112.307C200.619 112.426 200.743 112.534 200.883 112.65L201.622 113.23C201.718 113.305 201.801 113.371 201.876 113.43C202.039 113.559 202.164 113.658 202.312 113.759L202.325 113.767L203.117 114.331C203.193 114.384 203.247 114.423 203.293 114.456C203.356 114.501 203.404 114.536 203.468 114.579L204.668 115.348C204.692 115.363 204.713 115.377 204.731 115.388C204.754 115.403 204.762 115.408 204.779 115.419C204.792 115.428 204.8 115.433 204.807 115.437C204.812 115.44 204.814 115.441 204.814 115.442L204.817 115.443L205.029 115.565L205.448 115.806C207.582 117.039 209.848 118.04 212.197 118.784L212.224 118.793L212.25 118.802C212.273 118.81 212.308 118.821 212.376 118.84L212.381 118.841L213.073 119.038C213.074 119.038 213.075 119.038 213.077 119.039C213.211 119.076 213.329 119.11 213.441 119.142C213.619 119.193 213.779 119.24 213.957 119.286L215.341 119.605L215.345 119.606L215.543 119.651L216.695 119.857L217.161 119.94C217.234 119.952 217.285 119.958 217.356 119.967C217.412 119.973 217.48 119.981 217.581 119.995L218.521 120.115C218.639 120.128 218.708 120.138 218.761 120.145C218.823 120.154 218.863 120.16 218.934 120.165L218.937 120.165L219.416 120.201C220.177 120.259 220.747 120.922 220.69 121.683C220.632 122.444 219.969 123.014 219.208 122.956L218.731 122.92C218.731 122.92 218.73 122.92 218.729 122.92C218.585 122.91 218.379 122.882 218.267 122.868C218.235 122.863 218.21 122.86 218.198 122.859L218.189 122.858L217.221 122.735L217.216 122.734C217.195 122.731 217.162 122.727 217.122 122.722C217.006 122.708 216.828 122.686 216.694 122.663L216.688 122.662L216.209 122.577L214.994 122.36L214.725 122.299L213.301 121.97L213.284 121.966C213.068 121.91 212.832 121.842 212.621 121.782C212.517 121.752 212.419 121.724 212.332 121.7L212.329 121.699L211.642 121.504C211.64 121.503 211.639 121.503 211.637 121.503C211.558 121.481 211.453 121.451 211.339 121.411C208.807 120.607 206.365 119.527 204.067 118.199C204.067 118.199 204.066 118.198 204.065 118.198L203.445 117.841C203.377 117.803 203.318 117.765 203.279 117.74C203.259 117.727 203.245 117.718 203.234 117.711C203.218 117.7 203.209 117.694 203.195 117.685L203.188 117.681L201.96 116.894L201.952 116.888C201.844 116.817 201.712 116.722 201.617 116.655C201.58 116.628 201.549 116.606 201.528 116.591L201.524 116.588L200.748 116.036C200.512 115.876 200.272 115.685 200.085 115.537C200.026 115.49 199.972 115.448 199.925 115.412L199.922 115.409L199.149 114.801L199.135 114.79C198.968 114.652 198.787 114.494 198.623 114.352C198.539 114.278 198.459 114.209 198.388 114.148L198.385 114.146L198.015 113.825L198.012 113.822C197.998 113.81 197.979 113.794 197.956 113.774C197.87 113.7 197.731 113.581 197.611 113.463C195.659 111.663 193.901 109.654 192.375 107.481C191.937 106.856 192.088 105.995 192.712 105.556Z" fill="#F5B6CD"/>
<path fill-rule="evenodd" clip-rule="evenodd" d="M245.283 112.752C245.762 113.345 245.67 114.215 245.077 114.695C244.262 115.354 243.42 115.98 242.551 116.57L242.549 116.571L242.546 116.573C240.772 117.766 238.899 118.812 236.952 119.695L236.257 120.009C236.105 120.081 235.953 120.14 235.85 120.18C235.841 120.183 235.833 120.186 235.826 120.189C235.825 120.19 235.824 120.19 235.823 120.19L234.357 120.768L233.226 121.151L232.86 121.275L232.857 121.276C232.843 121.281 232.827 121.286 232.809 121.292C232.716 121.324 232.565 121.376 232.415 121.416L230.922 121.84L230.905 121.844C228.834 122.377 226.72 122.735 224.593 122.92C223.833 122.986 223.163 122.424 223.097 121.664C223.03 120.904 223.593 120.234 224.353 120.168C226.326 119.996 228.284 119.664 230.201 119.173L231.685 118.751L231.698 118.748C231.748 118.735 231.79 118.72 231.875 118.691C231.903 118.682 231.936 118.671 231.976 118.657C231.977 118.657 231.977 118.657 231.978 118.657L232.341 118.534L233.406 118.173L234.815 117.618L234.817 117.617C234.951 117.564 235.021 117.537 235.083 117.508L235.095 117.502L235.811 117.178C235.811 117.178 235.812 117.178 235.812 117.178C237.618 116.359 239.355 115.389 241.001 114.282C241.804 113.737 242.584 113.157 243.34 112.546C243.933 112.066 244.803 112.158 245.283 112.752Z" fill="#FF7F41"/>
</svg>
