<svg width="1080" height="1080" viewBox="0 0 1080 1080" fill="none" xmlns="http://www.w3.org/2000/svg">
<path fill-rule="evenodd" clip-rule="evenodd" d="M177.313 170.866C177.313 149.5 194.634 132.179 216 132.179H860.776C882.142 132.179 899.463 149.5 899.463 170.866V596.418C899.463 617.784 882.142 635.105 860.776 635.105H216C194.634 635.105 177.313 617.784 177.313 596.418V170.866ZM216 157.97C208.878 157.97 203.105 163.744 203.105 170.866V596.418C203.105 603.54 208.878 609.314 216 609.314H860.776C867.898 609.314 873.672 603.54 873.672 596.418V170.866C873.672 163.744 867.898 157.97 860.776 157.97H216Z" fill="#00C389"/>
<path fill-rule="evenodd" clip-rule="evenodd" d="M886.567 293.373C893.689 293.373 899.463 299.147 899.463 306.269V596.418C899.463 617.784 882.142 635.104 860.776 635.104H585.134C578.012 635.104 572.239 629.331 572.239 622.209C572.239 615.087 578.012 609.313 585.134 609.313H860.776C867.898 609.313 873.672 603.54 873.672 596.418V306.269C873.672 299.147 879.445 293.373 886.567 293.373Z" fill="#FF7F41"/>
<path fill-rule="evenodd" clip-rule="evenodd" d="M190.209 354.627C197.331 354.627 203.105 360.4 203.105 367.522V596.418C203.105 603.54 208.878 609.314 216 609.314H523.881C531.003 609.314 536.776 615.087 536.776 622.209C536.776 629.331 531.003 635.105 523.881 635.105H216C194.634 635.105 177.313 617.784 177.313 596.418V367.522C177.313 360.4 183.087 354.627 190.209 354.627Z" fill="#59CBE8"/>
<path fill-rule="evenodd" clip-rule="evenodd" d="M177.313 170.866C177.313 149.5 194.634 132.179 216 132.179H386.866C393.988 132.179 399.761 137.953 399.761 145.075C399.761 152.197 393.988 157.97 386.866 157.97H216C208.878 157.97 203.105 163.744 203.105 170.866V457.791C203.105 464.913 197.331 470.687 190.209 470.687C183.087 470.687 177.313 464.913 177.313 457.791V170.866Z" fill="#F5B6CD"/>
<path d="M620.478 233.574C620.478 227.32 625.547 222.251 631.8 222.251H657.906C664.159 222.251 669.229 227.32 669.229 233.574V245.054C669.229 251.307 664.159 256.377 657.906 256.377H631.8C625.547 256.377 620.478 251.308 620.478 245.054V233.574Z" fill="#FDDA24"/>
<path d="M620.478 282.326C620.478 276.072 625.547 271.003 631.8 271.003H657.906C664.159 271.003 669.229 276.072 669.229 282.326V293.806C669.229 300.059 664.159 305.129 657.906 305.129H631.8C625.547 305.129 620.478 300.059 620.478 293.806V282.326Z" fill="#FDDA24"/>
<path d="M620.478 331.077C620.478 324.824 625.547 319.754 631.8 319.754H657.906C664.159 319.754 669.229 324.824 669.229 331.077V342.557C669.229 348.811 664.159 353.88 657.906 353.88H631.8C625.547 353.88 620.478 348.811 620.478 342.557V331.077Z" fill="#FDDA24"/>
<path d="M620.478 379.828C620.478 373.574 625.547 368.505 631.8 368.505H657.906C664.159 368.505 669.229 373.574 669.229 379.828V391.308C669.229 397.561 664.159 402.631 657.906 402.631H631.8C625.547 402.631 620.478 397.561 620.478 391.308V379.828Z" fill="#FDDA24"/>
<path d="M683.853 233.574C683.853 227.32 688.922 222.251 695.176 222.251H721.281C727.535 222.251 732.604 227.32 732.604 233.574V245.054C732.604 251.307 727.535 256.377 721.281 256.377H695.176C688.922 256.377 683.853 251.308 683.853 245.054V233.574Z" fill="#FDDA24"/>
<path d="M683.853 282.326C683.853 276.072 688.922 271.003 695.176 271.003H721.281C727.535 271.003 732.604 276.072 732.604 282.326V293.806C732.604 300.059 727.535 305.129 721.281 305.129H695.176C688.922 305.129 683.853 300.059 683.853 293.806V282.326Z" fill="#FDDA24"/>
<path d="M683.853 331.077C683.853 324.824 688.922 319.754 695.176 319.754H721.281C727.535 319.754 732.604 324.824 732.604 331.077V342.557C732.604 348.811 727.535 353.88 721.281 353.88H695.176C688.922 353.88 683.853 348.811 683.853 342.557V331.077Z" fill="#FDDA24"/>
<path d="M683.853 379.828C683.853 373.574 688.922 368.505 695.176 368.505H721.281C727.535 368.505 732.604 373.574 732.604 379.828V391.308C732.604 397.561 727.535 402.631 721.281 402.631H695.176C688.922 402.631 683.853 397.561 683.853 391.308V379.828Z" fill="#FDDA24"/>
<path d="M747.232 233.574C747.232 227.32 752.301 222.251 758.555 222.251H784.66C790.914 222.251 795.983 227.32 795.983 233.574V245.054C795.983 251.307 790.914 256.377 784.66 256.377H758.555C752.301 256.377 747.232 251.308 747.232 245.054V233.574Z" fill="#FDDA24"/>
<path d="M747.232 282.326C747.232 276.072 752.301 271.003 758.555 271.003H784.66C790.914 271.003 795.983 276.072 795.983 282.326V293.806C795.983 300.059 790.914 305.129 784.66 305.129H758.555C752.301 305.129 747.232 300.059 747.232 293.806V282.326Z" fill="#FDDA24"/>
<path d="M747.232 331.077C747.232 324.824 752.301 319.754 758.555 319.754H784.66C790.914 319.754 795.983 324.824 795.983 331.077V342.557C795.983 348.811 790.914 353.88 784.66 353.88H758.555C752.301 353.88 747.232 348.811 747.232 342.557V331.077Z" fill="#FDDA24"/>
<path d="M747.232 379.828C747.232 373.574 752.301 368.505 758.555 368.505H784.66C790.914 368.505 795.983 373.574 795.983 379.828V391.308C795.983 397.561 790.914 402.631 784.66 402.631H758.555C752.301 402.631 747.232 397.561 747.232 391.308V379.828Z" fill="#FDDA24"/>
<path d="M280.792 479.1C280.792 466.593 290.931 456.455 303.438 456.455H773.338C785.845 456.455 795.984 466.593 795.984 479.1V532.884C795.984 545.391 785.845 555.53 773.338 555.53H303.438C290.931 555.53 280.792 545.391 280.792 532.884V479.1Z" fill="#CCCCCC"/>
<path d="M309.099 507.408C309.099 498.027 316.703 490.423 326.083 490.423H750.692C760.072 490.423 767.676 498.027 767.676 507.408V507.408C767.676 516.788 760.072 524.392 750.692 524.392H326.083C316.703 524.392 309.099 516.788 309.099 507.408V507.408Z" fill="#2C2A29"/>
<path d="M413.221 652.99C411.546 583.242 466.73 525.342 536.478 523.667V523.667C605.053 522.021 661.979 576.277 663.625 644.851L664.314 673.523L413.859 679.538L413.221 652.99Z" fill="#E4AC7B"/>
<path d="M464.79 733.866L614.818 733.866L614.818 888.891C614.818 900.202 605.649 909.371 594.339 909.371L485.27 909.371C473.959 909.371 464.79 900.202 464.79 888.891L464.79 733.866Z" fill="#E4AC7B"/>
<path d="M660.111 684.328C660.111 752.334 604.98 807.464 536.974 807.464C468.968 807.464 413.837 752.334 413.837 684.328C413.837 616.321 468.968 561.191 536.974 561.191C604.98 561.191 660.111 616.322 660.111 684.328Z" fill="#E4AC7B"/>
<path d="M613.006 745.83C612.959 745.803 612.912 745.775 612.864 745.748C591.499 732.974 555.492 708.989 553.939 707.967C549.564 705.065 548.346 699.096 551.283 694.774C554.172 690.424 560.151 689.238 564.499 692.187C564.85 692.452 601.634 716.949 622.573 729.477C627.104 732.218 628.6 738.034 625.873 742.54C623.321 746.959 617.544 748.45 613.006 745.83Z" fill="#00C389"/>
<path d="M739.369 490.423L739.369 671.59L337.406 671.59L337.406 490.423L739.369 490.423Z" fill="#7A531C"/>
<path d="M739.369 490.423L739.369 660.267L337.406 660.267L337.406 490.423L739.369 490.423Z" fill="#00C389"/>
<path d="M566.016 573.646C566.016 578.855 564.317 583.271 560.921 586.894C557.524 590.442 552.919 592.971 547.107 594.48C548.088 598.632 548.465 602.822 548.239 607.049C545.672 607.653 543.219 607.955 540.879 607.955C538.614 607.955 536.161 607.653 533.519 607.049L533.406 604.558C533.406 601.916 533.708 599.085 534.312 596.066C527.971 596.066 522.045 595.235 516.535 593.574C516.006 592.065 515.742 590.442 515.742 588.706C515.742 585.686 516.459 582.855 517.894 580.213C524.687 582.704 530.198 583.95 534.425 583.95C545.069 583.95 550.39 580.931 550.39 574.892C550.39 572.174 549.522 569.91 547.786 568.098C546.125 566.211 542.728 564.248 537.595 562.21C532.538 560.172 528.537 558.247 525.593 556.435C522.649 554.548 520.46 552.359 519.026 549.868C517.592 547.377 516.874 544.32 516.874 540.697C516.874 535.639 518.422 531.336 521.517 527.788C524.612 524.241 528.952 521.787 534.538 520.429C533.557 516.654 533.217 512.616 533.519 508.313C536.161 507.709 538.614 507.407 540.879 507.407C543.219 507.407 545.672 507.709 548.239 508.313L548.352 510.804C548.352 513.446 548.05 516.277 547.446 519.296C551.523 519.372 556.203 520.089 561.487 521.448C562.091 522.429 562.393 523.674 562.393 525.184C562.393 526.694 562.128 528.279 561.6 529.94C561.147 531.525 560.581 532.884 559.902 534.016C553.032 531.978 547.748 530.959 544.049 530.959C536.35 530.959 532.5 533.45 532.5 538.432C532.5 540.395 533.444 542.357 535.331 544.32C537.293 546.207 540.011 547.792 543.483 549.075C549.447 551.265 554.051 553.529 557.297 555.869C560.543 558.134 562.808 560.663 564.091 563.456C565.374 566.249 566.016 569.645 566.016 573.646Z" fill="white"/>
<path d="M636.751 765.473C616.635 780.807 593.251 791.801 568.24 797.499C562.639 798.762 556.953 801.084 551.319 804.065C544.779 807.503 538.308 811.822 532.403 816.318C526.951 809.492 522.606 801.971 519.506 794.077L522.367 723.088C525.529 716.757 529.487 710.697 534.308 705.067C553.438 682.727 581.358 672.433 608.548 674.866C617.239 675.632 619.32 675.361 627.496 678.767L651.752 650.442L670.919 577.085C674.217 553.204 696.227 536.617 720.049 539.864C721.056 540.007 721.92 540.438 722.631 541.047C723.875 542.113 724.612 543.771 724.308 545.565L715.225 611.226L707.643 667.696C705.855 681.059 700.521 693.644 692.217 704.301L681.595 717.905L678.474 721.909L678.372 722.027L669.763 733.04C660.029 745.247 648.923 756.176 636.751 765.473Z" fill="#E4AC7B"/>
<path d="M595.445 949L484.162 949C474.519 949 465.272 945.155 458.453 938.311C451.635 931.466 447.805 922.183 447.805 912.504L447.805 824.448L631.802 824.448L631.802 912.517C631.798 922.194 627.966 931.474 621.148 938.315C614.33 945.157 605.085 949 595.445 949V949Z" fill="#59CBE8"/>
<path d="M637.464 807.464L442.144 807.464L442.144 847.094L637.464 847.094L637.464 807.464Z" fill="#FF7F41"/>
<path fill-rule="evenodd" clip-rule="evenodd" d="M306.584 247.294V376.879H555.058V247.294H306.584ZM292.115 221.503C285.862 221.503 280.792 226.573 280.792 232.826V391.347C280.792 397.6 285.862 402.67 292.115 402.67H569.526C575.78 402.67 580.849 397.6 580.849 391.347V232.826C580.849 226.573 575.78 221.503 569.526 221.503H292.115Z" fill="#CCCCCC"/>
</svg>
