<svg fill="none" height="689" viewBox="0 0 708 689" width="708" xmlns="http://www.w3.org/2000/svg"><g stroke-linecap="round"><path d="m38.5968 223.447c-26.3823 67.088-30.67903 142.586-11.9926 212.221 18.5053 69.656 59.6649 133.11 115.9918 178.108" stroke="#59cbe8" stroke-width="29.5214"/><path d="m532.146 626.114c37.695-23.83 70.485-55.376 95.763-92.119 12.638-18.368 23.458-38.003 32.084-58.563 8.637-20.559 15.163-41.996 19.447-63.875 8.56-43.756 8.234-89.289-1.107-132.889-9.303-43.615-27.714-85.231-53.606-121.538" stroke="#9063cd" stroke-width="44.2833"/><path d="m282.72 27.0791c-18.74 4.2866-37.105 10.2077-54.822 17.6843-17.7 7.5225-34.696 16.6744-50.801 27.1728-32.197 21.0222-60.757 47.6338-83.8776 78.3848-23.052 30.796-40.6776 65.611-51.8237 102.413l-1.9686 6.938-.9868 3.468c-.3162 1.158-.6885 2.303-.9308 3.481l-3.2436 14.051c-.9231 4.717-1.7085 9.46-2.5755 14.19-.1938 1.186-.459 2.359-.5967 3.555l-.4513 3.578-.9104 7.152c-2.2006 19.102-2.7718 38.391-1.7544 57.6" stroke="#fdda24" stroke-width="44.2833"/><path d="m688.361 267.578-1.12-4.845c-.428-1.599-.897-3.191-1.344-4.787l-2.718-9.565c-.232-.795-.439-1.599-.694-2.387l-.795-2.356-1.594-4.71-1.594-4.71-.798-2.353c-.265-.786-.523-1.574-.841-2.339-4.764-12.367-9.856-24.635-16.002-36.386-12.051-23.607-26.698-45.93-43.964-66.055l-6.51-7.515c-1.061-1.275-2.229-2.45-3.369-3.654l-3.43-3.598-3.429-3.598c-1.148-1.196-2.27-2.417-3.491-3.537l-7.196-6.8617c-1.204-1.1373-2.39-2.295-3.606-3.4196l-3.756-3.2538-7.518-6.5101-.941-.8109-.976-.7676-1.954-1.5376-3.909-3.0702-3.909-3.0728-1.953-1.5351c-.666-.4947-1.349-.9639-2.02-1.4484-21.381-15.6723-44.535-28.9246-68.901-39.3898" stroke="#00c389" stroke-width="11.0695"/><path d="m376.443 7.02316c-23.22-1.32855-46.57-.3315-69.594 3.01924-23.024 3.3456-45.707 9.0601-67.568 17.0314-43.717 15.9962-84.007 41.1366-117.72 73.1852" stroke="#ff7f41" stroke-width="11.0695"/><g stroke-width="25.8315"><path d="m619.604 565.302c3.863-4.651 7.606-9.401 11.222-14.249l8.377-11.778c2.659-4.017 5.217-8.099 7.828-12.149 1.342-2.004 2.515-4.108 3.716-6.196l3.603-6.265c2.491-4.129 4.572-8.479 6.793-12.756 8.701-17.192 15.966-35.108 21.701-53.511 5.683-18.424 9.659-37.353 12.153-56.452" stroke="#fdda24"/><path d="m86.875 536.414c13.773 19.619 29.656 37.755 47.29 54.001 1.061 1.058 2.223 2.007 3.35 2.996l3.397 2.943c2.277 1.948 4.508 3.95 6.819 5.86l7.068 5.554c2.369 1.836 4.669 3.763 7.151 5.446l7.328 5.21c1.227.859 2.428 1.76 3.677 2.586l3.785 2.425 7.568 4.853c.635.397 1.249.826 1.9 1.195l1.95 1.122 3.897 2.239c20.752 11.993 42.802 21.737 65.655 28.973.704.255 1.423.465 2.144.663l2.163.612 4.324 1.227c2.887.803 5.756 1.675 8.655 2.423l8.759 2.019 4.379 1.012 2.193.5 2.211.393 8.851 1.581 4.424.79c1.476.25 2.971.393 4.455.595l8.917 1.134c1.489.171 2.968.419 4.463.528l4.482.339" stroke="#f5b6cd"/><path d="m376.385 675.307c19.191-1.673 38.252-4.904 56.921-9.7l13.908-3.95c1.165-.306 2.3-.714 3.44-1.097l3.424-1.157 6.847-2.316 3.422-1.163 3.363-1.323 6.722-2.65 3.364-1.328c1.122-.439 2.246-.872 3.333-1.39l6.586-2.976c17.549-7.956 34.433-17.381 50.424-28.139 7.816-5.309 15.404-10.947 22.748-16.886" stroke="#ff7f41"/></g></g></svg>