<svg fill="none" height="758" viewBox="0 0 748 758" width="748" xmlns="http://www.w3.org/2000/svg"><g stroke-linecap="round" stroke-linejoin="round"><path d="m48.9176 502.018c-6.4571-17.151-11.9364-34.695-15.6434-52.597-.4702-2.236-1.0988-4.443-1.4433-6.7l-1.1888-6.744c-.7629-4.5-1.7049-8.977-2.1713-13.516l-1.7072-13.573-1.036-13.627c-.4593-4.538-.3856-9.094-.5556-13.641l-.1808-6.823c-.1071-2.275.0699-4.545.0893-6.819.1296-4.542.1831-9.092.3662-13.631l1.0236-13.587.2537-3.397c.0877-1.131.2716-2.252.4028-3.378l.8575-6.753c.5812-4.501 1.053-9.019 1.9555-13.466l2.397-13.392 3.0753-13.24c4.4263-17.55 9.7349-34.911 16.8423-51.53.8676-2.083 1.625-4.219 2.5857-6.261l2.8487-6.145 2.844-6.144c.4796-1.022.9335-2.057 1.4333-3.068l1.5791-2.994 6.305-11.979c2.2543-3.908 4.5932-7.766 6.88-11.653 2.2132-3.936 4.8035-7.634 7.282-11.402 2.5019-3.751 4.9121-7.567 7.6747-11.137 2.6942-3.615 5.3226-7.282 8.0665-10.861l8.5686-10.471c11.727-13.706 24.354-26.652 37.963-38.531" stroke="#9063cd" stroke-width="12.8242"/><path d="m731.368 460.921c-.901 4.161-2.166 8.221-3.367 12.298l-1.799 6.118c-.606 2.037-1.158 4.092-1.907 6.081l-4.215 12.03-1.051 3.01-1.2 2.95-2.409 5.901c-3.032 7.945-6.84 15.546-10.398 23.259-1.883 3.805-3.953 7.516-5.918 11.281l-2.984 5.628-3.263 5.469c-17.104 29.357-38.596 56.095-63.23 79.481l-9.406 8.595c-1.534 1.471-3.222 2.767-4.844 4.136l-4.906 4.068-4.901 4.069-5.09 3.835c-3.417 2.525-6.75 5.163-10.231 7.599-13.891 9.802-28.5 18.538-43.523 26.488-15.182 7.653-30.799 14.429-46.834 20.101-4.017 1.386-8.093 2.602-12.136 3.916-2.029.633-4.042 1.319-6.082 1.911l-6.165 1.635-6.163 1.638c-2.057.535-4.096 1.143-6.186 1.539l-12.474 2.669c-1.04.214-2.075.467-3.122.65l-3.148.512-6.295 1.026-6.295 1.03c-2.096.372-4.222.512-6.332.779l-12.677 1.436-12.737.8c-2.124.105-4.242.332-6.371.341l-6.383.08-6.381.084c-2.127.029-4.255.092-6.38-.034l-12.761-.473-3.19-.124-3.181-.28-6.362-.559c-8.502-.547-16.915-1.957-25.358-3.076-4.212-.642-8.38-1.557-12.57-2.318l-6.281-1.193c-2.092-.396-4.147-.982-6.222-1.461l-12.424-3.02c-4.101-1.158-8.172-2.419-12.261-3.621l-6.128-1.821-6.025-2.132c-4.009-1.44-8.051-2.795-12.039-4.298-7.856-3.299-15.85-6.284-23.48-10.093l-5.784-2.721-2.893-1.358-2.826-1.496-11.282-6.009c-1.906-.959-3.706-2.103-5.539-3.187l-5.487-3.283-5.488-3.276c-1.816-1.115-3.557-2.347-5.34-3.514-3.537-2.377-7.11-4.703-10.623-7.115l-10.279-7.604c-13.486-10.412-26.556-21.442-38.428-33.696-1.503-1.51-3.046-2.983-4.52-4.523l-4.316-4.719-4.318-4.717c-1.436-1.576-2.911-3.117-4.239-4.787l-8.176-9.837c-1.3976-1.611-2.6594-3.331-3.9398-5.035l-3.8482-5.108" stroke="#9063cd" stroke-width="32.6913"/><path d="m28.8212 496.088c-.6301-2.02-1.3549-4.014-1.9074-6.058l-1.6668-6.131c-1.0981-4.091-2.2512-8.166-3.2973-12.269l-2.7315-12.404-1.3533-6.204-1.0616-6.257-2.1154-12.52-1.5202-12.6-.7465-6.302c-.2483-2.101-.3212-4.216-.4896-6.325l-.8699-12.655c-1.61022-33.794 1.2292-67.717 7.9268-100.78" stroke="#f5b6cd" stroke-width="19.386"/><path d="m65.4141 171.27c27.7389-41.738 64.1919-77.5308 106.5459-104.8328 42.328-27.3401 90.56-46.1837 141.176-54.9851" stroke="#fdda24" stroke-width="22.6328"/><path d="m183.426 77.4074c41.397-25.7981 88.094-43.2395 136.573-51.164 48.472-7.968 98.726-6.4129 147.029 4.6971" stroke="#f5b6cd" stroke-width="15.7179"/><path d="m612.077 669.185c-36.867 27.668-78.584 48.725-122.605 61.822-44.025 13.13-89.985 19.429-135.556 16.061-91.211-6.411-166.055-37.023-247.453-112.537" stroke="#fdda24" stroke-width="19.3154"/></g></svg>