<svg fill="none" height="369" viewBox="0 0 868 369" width="868" xmlns="http://www.w3.org/2000/svg"><g stroke-linecap="round"><path d="m205.41 13.2456c-10.032.9043-19.998 2.497-29.825 4.7565-9.827 2.2591-19.498 5.2493-28.959 8.8428-9.461 3.6013-18.707 7.8404-27.673 12.678l-3.345 1.8507c-1.111.6256-2.242 1.2105-3.327 1.889l-6.562 3.9592-6.4289 4.205c-2.1313 1.4214-4.201 2.9486-6.3041 4.4186-16.6318 12.0685-31.9551 26.2762-45.3889 42.3721l-2.5343 3.0015-2.4402 3.093-2.4339 3.099-1.2164 1.55-1.1658 1.595-4.6562 6.387-4.4488 6.56c-5.8126 8.841-11.2029 18.009-16.1351 27.466" stroke="#00c389" stroke-width="24.8991"/><path d="m371.207 83.3872c-16.202-15.5804-34.488-28.5184-54.061-38.2627-19.572-9.7522-40.418-16.2986-61.629-19.4805-21.213-3.1916-42.784-3.029-63.863.3791-21.082 3.401-41.67 10.0469-61.003 19.6357" stroke="#fdda24" stroke-width="20.7"/><path d="m855.139 270.34c-12.363 17.994-27.014 34.043-43.86 46.678-8.404 6.333-17.301 11.864-26.584 16.497-9.31 4.566-18.971 8.304-28.885 11.082-19.831 5.563-40.574 7.427-61.186 6.047-5.13-.363-10.187-.933-15.241-1.889-5.045-.95-10.055-2.183-15.012-3.681-4.958-1.494-9.845-3.323-14.672-5.343-2.42-.995-4.801-2.114-7.188-3.215-2.364-1.169-4.734-2.322-7.064-3.588" stroke="#fdda24" stroke-width="24.8991"/><path d="m794.311 340.248c-5.799 3.075-11.764 5.775-17.82 8.211-6.07 2.399-12.266 4.418-18.527 6.158-6.259 1.753-12.621 3.063-19.011 4.124-6.394 1.038-12.832 1.793-19.293 2.165-6.459.388-12.936.469-19.406.247l-2.426-.086-2.425-.138c-1.615-.094-3.229-.184-4.868-.352-1.632-.149-3.267-.277-4.892-.509-1.627-.215-3.259-.392-4.876-.683-12.981-2.042-25.69-5.934-37.819-11.216-12.143-5.275-23.711-11.923-34.697-19.437-10.993-7.516-21.422-15.886-31.406-24.767-19.955-17.806-38.141-37.588-55.543-57.946" stroke="#00c389" stroke-width="14.7858"/><g stroke="#f5b6cd"><path d="m579.623 293.162c-22.052-20.162-42.165-42.909-61.629-66.306-19.478-23.415-38.24-47.638-57.869-71.257" stroke-width="15.3225"/><path d="m415.565 115.721-13.396-14.883-6.698-7.4421-3.349-3.7209c-.563-.6202-1.107-1.2403-1.684-1.8604l-1.749-1.8597c-9.268-9.9783-19.307-19.1316-29.984-27.3102-1.308-1.0639-2.698-1.9992-4.047-2.9981l-4.077-2.9529-4.172-2.7895c-1.4-.9141-2.763-1.8949-4.199-2.742l-4.265-2.619c-.713-.4319-1.417-.882-2.137-1.2994l-2.175-1.2242-4.349-2.4469c-1.452-.8099-2.945-1.5308-4.416-2.2999-11.808-6.0478-24.061-11.0861-36.634-14.8309" stroke-width="10.5342"/></g></g></svg>