<svg fill="none" height="270" viewBox="0 0 721 270" width="721" xmlns="http://www.w3.org/2000/svg"><g stroke-linecap="round"><path d="m601.107 155.921 3.881-1.01 3.92-.836c1.303-.301 2.622-.511 3.94-.727l1.976-.328c.658-.116 1.318-.218 1.982-.289l3.977-.48c1.327-.154 2.662-.219 3.993-.331l1.997-.151 2.003-.069c1.336-.034 2.67-.102 4.007-.106 5.347-.018 10.694.332 16.015.977 5.314.725 10.586 1.802 15.778 3.239 5.177 1.506 10.251 3.412 15.162 5.725 4.904 2.333 9.579 5.193 13.978 8.45 4.418 3.237 8.426 7.073 11.995 11.272 1.838 2.061 3.402 4.347 4.996 6.6l2.167 3.533c.377.581.69 1.196 1.002 1.813l.944 1.843" stroke="#f5b6cd" stroke-width="12"/><path d="m483.289 230.66 77.311-44.387 19.306-11.061c6.155-3.463 12.708-6.261 19.48-8.403 13.548-4.275 27.967-5.971 42.135-4.956" stroke="#00c389" stroke-width="25"/><path d="m13.2529 23.5394 2.418-1.375c.812-.446 1.665-.813 2.495-1.225l1.252-.603c.417-.202.83-.412 1.266-.571l2.581-1.032 1.291-.514 1.323-.427 2.644-.861c.886-.273 1.796-.466 2.692-.704l1.349-.344.674-.172.685-.13c7.277-1.492 14.796-1.897 22.266-1.271 7.468.684 14.871 2.348 22.009 4.834.904.275 1.772.661 2.658.991l2.644 1.03 2.596 1.155c.863.389 1.74.749 2.578 1.194 1.687.866 3.41 1.659 5.045 2.627l2.482 1.393c.817.482 1.613 1.001 2.421 1.499 6.4271 4.038 12.4861 8.706 17.9181 14.021 5.444 5.299 10.336 11.159 14.527 17.47l.798 1.176.737 1.214 1.475 2.426.369.606.371.645.742 1.293 1.484 2.584 5.936 10.339 11.872 20.6786" stroke="#ff7f41" stroke-width="25"/><path d="m77.084 8.29395c9.568 2.95395 18.715 7.14595 27.126 12.48795l1.584.99c.527.331 1.029.7 1.545 1.048l3.074 2.121 2.978 2.253 1.483 1.134 1.434 1.195c3.883 3.12 7.459 6.6 10.914 10.183 1.675 1.844 3.381 3.66 4.935 5.611 1.626 1.89 3.094 3.908 4.591 5.903.755.992 1.417 2.053 2.128 3.078.697 1.035 1.418 2.054 2.046 3.135l1.946 3.202c.63 1.057 1.197 2.075 1.799 3.114l14.249 24.818 28.497 49.6361 14.249 24.818 3.562 6.204c1.192 2.051 2.364 4.185 3.58 6.127l3.617 5.948 3.912 5.757" stroke="#00c389" stroke-width="14.981"/><path d="m352.939 262.106c3.994.285 7.997.162 11.997.195 1.999-.057 3.996-.182 5.994-.268l2.997-.145 2.985-.29c1.99-.203 3.985-.363 5.97-.6l5.936-.871c1.986-.247 3.942-.672 5.904-1.056l2.943-.581c.982-.192 1.965-.373 2.931-.636l5.821-1.453 1.455-.362 1.437-.433 2.87-.871 2.871-.869c.478-.149.96-.282 1.434-.442l1.411-.508 5.648-2.026c7.441-2.924 14.795-6.128 21.783-10.041 3.501-1.841 7.09-3.953 10.653-5.992l10.702-6.144 21.403-12.288 42.806-24.576" stroke="#ff7f41" stroke-width="15"/><path d="m180.574 146.29 16.334 28.45 2.042 3.556 2.177 3.596c1.474 2.389 2.864 4.831 4.495 7.121l2.368 3.483 1.185 1.741c.389.585.837 1.128 1.252 1.693 1.705 2.232 3.362 4.502 5.111 6.699 14.063 17.535 31.383 32.427 50.746 43.812" stroke="#f5b6cd" stroke-width="25"/></g></svg>