<svg fill="none" height="427" viewBox="0 0 900 427" width="900" xmlns="http://www.w3.org/2000/svg"><g stroke-linecap="round" stroke-linejoin="round"><path d="m399.885 126.173c-5.543-9.017-11.658-17.755-18.643-25.857-.87-1.0146-1.663-2.0876-2.592-3.0566l-2.713-2.963c-1.823-1.963-3.564-3.996-5.522-5.846l-5.732-5.667-6.022-5.396c-1.961-1.847-4.14-3.47-6.218-5.194l-3.15-2.557c-1.032-.872-2.172-1.62-3.253-2.437-2.196-1.594-4.364-3.223-6.579-4.793l-6.817-4.493-1.704-1.124c-.568-.373-1.17-.7-1.754-1.053l-3.526-2.082c-2.354-1.384-4.672-2.821-7.128-4.046l-7.268-3.829-7.465-3.481c-10.032-4.463-20.324-8.476-30.977-11.443-1.326-.382-2.633-.831-3.976-1.157l-4.026-1.002-4.025-1.004c-.671-.164-1.339-.343-2.014-.495l-2.037-.406-8.145-1.628c-2.736-.446-5.481-.837-8.219-1.261-2.733-.474-5.501-.699-8.259-.997-2.759-.282-5.513-.628-8.289-.731-2.772-.149-5.541-.347-8.315-.462l-8.328-.103c-11.103.086-22.203.836-33.188 2.397" stroke="#59cbe8" stroke-width="20"/><path d="m405.43 113.742c-.703-1.007-1.357-2.046-2.103-3.029l-2.231-2.95c-1.496-1.963-2.961-3.944-4.483-5.889l-4.768-5.6929-2.39-2.842-2.531-2.735-5.066-5.468-5.34-5.241-2.675-2.615c-.892-.872-1.861-1.672-2.788-2.512l-5.622-4.98c-15.293-12.988-32.404-24.099-50.632-33.229" stroke="#ff7f41" stroke-width="10.199"/><path d="m231.516 15.0426c-30.687-2.856-61.914.181-91.375 8.8-29.469 8.593-57.1694 22.771-80.9994 41.56" stroke="#fdda24" stroke-width="27.201"/><path d="m137.829 33.291c-28.177 9.454-54.305 24.192-76.489 43.049-22.202 18.838-40.459 41.799-53.34 67.226" stroke="#ff7f41" stroke-width="15"/><path d="m576.701 323.507c7.231 8.654 14.968 16.903 23.436 24.311 1.055.929 2.047 1.934 3.151 2.803l3.253 2.68c2.18 1.771 4.293 3.632 6.583 5.257l6.754 5.026 6.986 4.683c2.293 1.621 4.756 2.961 7.139 4.43l3.602 2.164c1.186.746 2.456 1.339 3.68 2.017 2.473 1.307 4.926 2.657 7.414 3.933l7.589 3.568 1.897.893c.633.296 1.288.537 1.932.808l3.878 1.587c2.587 1.052 5.151 2.168 7.807 3.032l7.901 2.773 8.026 2.364c10.744 2.946 21.654 5.362 32.712 6.59 1.38.167 2.753.408 4.138.512l4.156.336 4.154.339c.693.052 1.385.123 2.078.161l2.083.062 8.329.252c2.777-.023 5.553-.107 8.329-.154 2.78.007 5.546-.26 8.316-.446 2.768-.204 5.544-.338 8.293-.736 2.754-.349 5.516-.645 8.265-1.03l8.207-1.417c10.898-2.128 21.662-4.968 32.152-8.658" stroke="#59cbe8" stroke-width="20"/><path d="m571.626 339.974c.89.949 1.738 1.94 2.664 2.854l2.775 2.747c1.857 1.826 3.688 3.676 5.567 5.478l5.81 5.215 2.91 2.602 3.026 2.462 6.059 4.92 6.282 4.627 3.146 2.307c1.048.768 2.158 1.447 3.235 2.176l6.508 4.296c17.594 11.089 36.605 19.837 56.323 26.261" stroke="#fdda24" stroke-width="12.103"/><path d="m711.096 410.996c30.417 5.024 61.815 3.648 91.868-3.932 30.058-7.552 58.77-21.311 83.964-40.345" stroke="#ff7f41" stroke-width="25"/></g></svg>