<svg fill="none" height="260" viewBox="0 0 742 260" width="742" xmlns="http://www.w3.org/2000/svg"><g stroke-linecap="round"><path d="m624.099 51.3355 2.43-3.127 2.563-3.014c.838-1.02 1.743-1.977 2.643-2.94l1.347-1.445c.445-.486.899-.964 1.376-1.418l2.818-2.769c.944-.918 1.947-1.771 2.919-2.66l1.469-1.319 1.522-1.258c1.022-.829 2.022-1.684 3.062-2.491 4.162-3.228 8.542-6.166 13.075-8.857 4.575-2.623 9.326-4.944 14.228-6.935 4.931-1.927 10.02-3.47699 15.22-4.60799 5.209-1.113 10.551-1.673 15.912-1.754 5.365-.109 10.765.5 16.036 1.657 2.655.517 5.23 1.376 7.808 2.18999l3.785 1.477c.637.23 1.246.526 1.854.824l1.829.882" stroke="#9063cd" stroke-width="12"/><path d="m570.579 146.381 52.26-70.1026 13.058-17.486c4.188-5.518 8.996-10.603 14.257-15.19 10.53-9.168 22.854-16.389 36.014-21.098" stroke="#fdda24" stroke-width="25"/><path d="m13.2305 171.858c30.446-45.221 97.7295-67.665 149.0775-49.04 22.671 8.223 42.511 22.638 60.881 37.965" stroke="#ff7f41" stroke-width="25"/><path d="m116.858 107.408c9.762-1.127 19.638-.972 29.306.513l1.814.265c.605.089 1.202.223 1.803.333l3.601.695 3.565.852 1.781.435 1.762.509c4.721 1.275 9.311 2.997 13.832 4.859 2.234.998 4.485 1.96 6.653 3.104 2.209 1.06 4.326 2.299 6.46 3.504 1.07.596 2.085 1.291 3.13 1.933 1.035.658 2.086 1.291 3.078 2.017l3.014 2.116c.985.704 1.897 1.397 2.849 2.095l22.62 16.736 45.239 33.471 22.62 16.736 5.655 4.183c1.882 1.378 3.779 2.838 5.64 4.107l5.603 3.932 5.791 3.641" stroke="#fdda24" stroke-width="14.981"/><path d="m465.667 226.561c3.71-1.328 7.268-3.025 10.884-4.58 1.777-.844 3.527-1.747 5.293-2.616l2.643-1.317 2.575-1.443c1.712-.97 3.446-1.904 5.141-2.902l5.005-3.131c1.692-1.009 3.286-2.164 4.903-3.285l2.422-1.685c.809-.561 1.624-1.113 2.39-1.731l4.672-3.606 1.169-.9 1.123-.956 2.243-1.917 2.244-1.915c.372-.322.754-.632 1.118-.963l1.072-1.013 4.29-4.05c5.553-5.563 10.917-11.342 15.672-17.61 2.43-3.033 4.831-6.344 7.24-9.579l7.222-9.734 14.446-19.468 28.892-38.9373" stroke="#ff7f41" stroke-width="15"/><path d="m262.128 190.282 25.812 19.249 3.227 2.406 3.363 2.388c2.259 1.576 4.464 3.233 6.824 4.657l3.489 2.211 1.746 1.104c.577.375 1.192.688 1.786 1.034 2.404 1.342 4.779 2.737 7.207 4.031 19.48 10.277 40.829 16.871 62.622 19.482" stroke="#9063cd" stroke-width="25"/></g></svg>