<svg fill="none" height="403" viewBox="0 0 520 403" width="520" xmlns="http://www.w3.org/2000/svg"><g stroke-linecap="round"><path d="m369.593 373.795c21.197-7.871 40.91-18.784 58.294-32.26 17.39-13.472 32.43-29.499 44.583-47.326 12.163-17.824 21.443-37.441 27.566-58.027 6.132-20.588 9.108-42.145 8.869-63.852" stroke="#fdda24" stroke-width="20.8236"/><path d="m340.251 394.221 9.67-2.816 4.835-1.409c.808-.238 1.608-.46 2.421-.712l2.449-.773c13.091-4.036 25.773-9.131 37.848-15.231" stroke="#59cbe8" stroke-width="16.8"/><path d="m195.601 39.9434c26.056 10.0779 50.811 24.4524 73.388 42.0756" stroke="#59cbe8" stroke-width="16.8"/><path d="m12.8506 33.9462c9.1938-4.2567 18.6774-7.8834 28.3752-10.857 9.6978-2.9757 19.6245-5.2332 29.6751-6.8628 10.0548-1.6212 20.2398-2.5788 30.4861-2.8728l3.845-.0714c1.281-.0126 2.562-.0735 3.847-.0273l7.707.1491 7.717.4284c2.571.168 5.143.4557 7.714.6804 20.559 2.1483 41.055 6.8187 60.853 14.0826l3.717 1.3419 3.682 1.4658 3.679 1.4763 1.84.7371 1.816.8043 7.27 3.2214 7.176 3.4776c9.509 4.7775 18.816 10.0527 27.869 15.813" stroke="#ff7f41" stroke-width="25.0467"/><path d="m145.81 25.327s-55.4102-13.692-110.0102 10.7142" stroke="#fdda24" stroke-width="20.8236"/><path d="m428.518 359.942s31.483-25.162 50.383-51.949" stroke="#ff7f41" stroke-width="25.0467"/></g></svg>