<svg fill="none" height="361" viewBox="0 0 567 361" width="567" xmlns="http://www.w3.org/2000/svg"><g stroke-linecap="round"><path d="m386.988 348.532 85.219-17.899 21.274-4.449c6.763-1.359 13.697-1.98 20.634-1.926 13.876.119 27.784 2.895 40.639 8.115" stroke="#00c389" stroke-width="24.42"/><path d="m12.8467 14.2385 2.6616-.5472c.8892-.1692 1.7916-.252 2.6868-.3852l1.3452-.1824c.4488-.0612.8964-.132 1.3488-.1476l2.7096-.18 1.3548-.0876 1.3572.0024 2.7168-.0012c.9048.0132 1.8084.1092 2.7132.1572l1.356.0888.6792.0432.6744.0864c7.212.81 14.3184 2.7036 21.0696 5.5392 6.7308 2.8908 13.1064 6.6708 18.9864 11.1348.7572.528 1.4472 1.1484 2.1696 1.7232l2.1456 1.7544 2.064 1.8564c.684.6216 1.3896 1.2216 2.034 1.8876 1.3056 1.314 2.6676 2.5704 3.894 3.9636l1.8852 2.0436c.6132.6936 1.1964 1.416 1.7976 2.1228 4.7508 5.6916 8.97 11.856 12.4127 18.4332 3.457 6.5664 6.233 13.4868 8.222 20.6148l.387 1.3332.317 1.35.638 2.6988.161.6756.15.7104.299 1.4256.598 2.8488 2.393 11.3967 4.788 22.794" stroke="#ff7f41" stroke-width="24.42"/><path d="m76.7461 19.3433c7.9968 5.6328 15.2292 12.288 21.4296 19.7892l1.1736 1.398c.39.4656.7447.96 1.1197 1.44l2.215 2.898 2.086 2.9916 1.035 1.5012.972 1.5432c2.665 4.0704 4.937 8.3832 7.066 12.7548.999 2.2176 2.036 4.4196 2.891 6.702.939 2.2464 1.694 4.5648 2.482 6.8688.402 1.1508.696 2.3364 1.048 3.5028.335 1.1712.697 2.3352.955 3.5292l.84 3.5616c.268 1.1736.487 2.2896.732 3.4368l5.746 27.3565 11.491 54.713 5.747 27.357 1.436 6.839c.487 2.264.933 4.601 1.476 6.773l1.565 6.617 1.896 6.529" stroke="#00c389" stroke-width="14.634"/><path d="m256.401 338.399c3.624 1.471 7.38 2.564 11.086 3.803 1.874.549 3.768 1.037 5.65 1.56l2.827.77 2.862.631c1.909.412 3.811.866 5.726 1.245l5.778.983c1.92.369 3.864.565 5.803.8l2.91.349c.97.118 1.938.246 2.915.294l5.845.407 1.462.103 1.465.031 2.929.058 2.931.059c.488.007.977.027 1.464.023l1.465-.046 5.858-.178c7.796-.47 15.594-1.226 23.268-2.752 3.808-.654 7.779-1.533 11.705-2.351l11.796-2.478 23.593-4.955 47.184-9.911" stroke="#ff7f41" stroke-width="14.652"/><path d="m131.234 178.779 6.587 31.359.823 3.921.938 3.998c.648 2.664 1.202 5.352 2.026 7.972l1.149 3.95.575 1.975c.184.662.436 1.301.652 1.952.91 2.587 1.764 5.196 2.726 7.765 7.771 20.534 19.366 39.596 33.919 56.018" stroke="#f5b6cd" stroke-width="24.42"/></g></svg>