<svg fill="none" height="468" viewBox="0 0 455 468" width="455" xmlns="http://www.w3.org/2000/svg"><g stroke-linecap="round"><path d="m22.0752 35.0283 4.3482-2.1222c1.458-.6864 2.979-1.2294 4.464-1.854l2.2392-.9108c.7464-.3042 1.4868-.6252 2.2608-.8526l4.5936-1.5096 2.2962-.7518 2.3442-.597 4.6842-1.2054c1.5678-.3762 3.168-.6126 4.7496-.9288l2.3784-.4488 1.1898-.2256 1.2024-.15c12.7962-1.7964 25.8924-1.6782 38.7912.2244 12.89 2.0046 25.56 5.7012 37.679 10.7958 1.539.5766 3.003 1.341 4.505 2.0106l4.478 2.0766 4.38 2.2884c1.456.7698 2.938 1.4904 4.345 2.3544 2.833 1.6878 5.739 3.2526 8.471 5.1108l4.157 2.6904c1.366.9258 2.691 1.9134 4.04 2.8656 10.715 7.713 20.722 16.4766 29.572 26.2968 8.871 9.7932 16.723 20.5005 23.31 31.9145l1.257 2.128 1.146 2.187 2.295 4.373.575 1.092.574 1.161 1.147 2.325 2.294 4.649 9.175 18.596 18.35 37.193" stroke="#ff7f41" stroke-width="43.4844"/><path d="m134.547 15.5352c16.286 6.1734 31.709 14.4486 45.725 24.6414l2.641 1.8912c.881.6318 1.712 1.3272 2.569 1.9878l5.105 4.0176 4.922 4.2372 2.451 2.1306 2.36 2.2296c6.399 5.8404 12.226 12.2724 17.833 18.8694 2.706 3.3834 5.47 6.7224 7.954 10.2798 2.616 3.4584 4.944 7.1226 7.325 10.7478 1.202 1.806 2.235 3.7204 3.358 5.5764 1.096 1.874 2.238 3.721 3.21 5.666l3.027 5.771c.98 1.904 1.853 3.732 2.784 5.602l22.024 44.639 44.049 89.277 22.025 44.638 5.506 11.16c1.844 3.69 3.646 7.523 5.545 11.027l5.629 10.721 6.161 10.42" stroke="#9063cd" stroke-width="26.058"/><path d="m299.129 266.392 25.247 51.171 3.156 6.396 3.388 6.48c2.297 4.309 4.444 8.7 7.024 12.853l3.731 6.305 1.867 3.152c.61 1.058 1.329 2.048 1.989 3.076 2.716 4.06 5.344 8.181 8.139 12.186 22.498 31.975 50.938 59.718 83.309 81.597" stroke="#f5b6cd" stroke-width="36"/></g></svg>