<svg fill="none" height="413" viewBox="0 0 284 413" width="284" xmlns="http://www.w3.org/2000/svg"><g stroke-linecap="round" stroke-linejoin="round"><path d="m273.897 402.4c.012-2.273.132-4.541.055-6.822l-.223-6.841c-.164-4.563-.264-9.121-.487-13.686l-1.129-13.695-.579-6.847-.905-6.836-1.819-13.673-2.476-13.623-1.252-6.809c-.418-2.27-1.027-4.514-1.532-6.773l-3.181-13.53c-9.249-35.96-23.25-71.027-41.055-104.292" stroke="#ff7f41" stroke-width="19.427"/><path d="m241.774 297.315c-.998-4.881-2.564-9.659-3.869-14.483l-2.038-7.222c-.631-2.419-1.559-4.767-2.323-7.156-1.62-4.751-3.163-9.526-4.841-14.261l-5.521-14.065-1.379-3.517c-.462-1.17-1.023-2.307-1.529-3.463l-3.114-6.911c-2.085-4.603-4.061-9.249-6.468-13.723l-6.912-13.545-7.579-13.231c-10.417-17.456-21.706-34.511-34.655-50.374-1.6-1.994-3.098-4.068-4.782-5.997l-5.022-5.815-5.017-5.816c-.841-.965-1.659-1.95-2.518-2.899l-2.648-2.79-10.585-11.164c-3.662-3.5965-7.396-7.1204-11.087-10.688-3.627-3.636-7.576-6.9345-11.429-10.3329-3.873-3.3746-7.67-6.8396-11.7586-9.963-4.0329-3.1883-8.0109-6.4463-12.083-9.585l-12.487-9.0572c-16.8854-11.7396-34.475-22.4739-52.7544-31.8604" stroke="#59cbe8" stroke-width="38.0961"/></g></svg>