<svg fill="none" height="548" viewBox="0 0 2126 548" width="2126" xmlns="http://www.w3.org/2000/svg"><g clip-rule="evenodd" fill-rule="evenodd"><path d="m1781.2 206.936c-11.25 0-21.16-8.159-23.01-19.628-2.05-12.725 6.6-24.705 19.33-26.757 9.17-1.48 18.22-3.224 27.79-5.072 3.81-.734 7.62-1.468 11.43-2.186 4.08-.809 8.11-1.668 12.38-2.577 2.39-.511 4.78-1.019 7.17-1.519l3.46-.729c5.45-1.149 10.6-2.234 15.71-3.463l.18-.043 19.81-4.586c4.07-.925 8.05-1.935 12.26-3.005 2.35-.597 4.71-1.195 7.06-1.775 2.35-.601 4.71-1.186 7.06-1.772 4.24-1.054 8.23-2.05 12.21-3.129l29.28-7.924 29.13-8.427c4.02-1.15 7.96-2.372 12.13-3.666 2.35-.73 4.7-1.459 7.06-2.173l19.14-5.902c4.54-1.492 9.09-2.9685 13.64-4.4445 8.12-2.6343 16.51-5.3586 24.67-8.1108l23.41-8.0406c5.02-1.7199 9.76-3.3435 14.48-5.0814 12.09-4.4568 25.51 1.7361 29.97 13.8321 4.45 12.0962-1.74 25.5132-13.83 29.9682-5.22 1.923-10.44 3.712-15.49 5.441l-23.49 8.068c-8.54 2.882-17.07 5.648-25.31 8.324-4.57 1.481-9.13 2.962-13.69 4.459l-.4.128-19.46 6c-2.37.717-4.62 1.416-6.87 2.114-4.23 1.314-8.61 2.672-13.06 3.945l-29.63 8.568-29.47 7.974c-4.43 1.204-8.86 2.307-13.14 3.374-2.29.57-4.59 1.14-6.87 1.726l-.22.053c-2.27.559-4.55 1.137-6.82 1.714-4.31 1.095-8.76 2.226-13.32 3.26l-19.61 4.543c-5.72 1.37-11.4 2.568-16.9 3.726l-3.47.734c-2.4.501-4.72.996-7.05 1.492-4.27.911-8.7 1.853-13.14 2.735l-.23.046c-3.78.708-7.55 1.436-11.32 2.165-9.51 1.831-19.33 3.727-29.22 5.32-1.25.203-2.5.301-3.74.301" fill="#59cbe8"/><path d="m1570.89 241.215c-12.51 0-24.94-.201-37.28-.602-24.63-.986-43.34-2.167-60.75-3.835-18.19-1.574-37.93-3.92-60.36-7.173-9.11-1.321-15.42-9.778-14.1-18.89 1.32-9.113 9.77-15.437 18.89-14.107 21.82 3.164 40.96 5.44 58.52 6.959l.15.015c16.8 1.609 34.95 2.754 58.86 3.711 38.54 1.254 78.23.477 117.82-2.311 37.62-2.617 75.95-7.154 117.19-13.873 37.52-6.13 76.47-14.034 115.76-23.49 8.96-2.154 17.96 3.357 20.11 12.31 2.15 8.951-3.36 17.954-12.31 20.108-40.09 9.647-79.85 17.714-118.2 23.98-42.26 6.885-81.59 11.538-120.23 14.225-28.09 1.98-56.24 2.973-84.07 2.973" fill="#9063cd"/><path d="m23.5727 481.445c-3.6738 0-7.3998-.87-10.8756-2.703-11.39941-6.018-15.76261-20.136-9.74521-31.536 19.18981-36.357 42.15781-72.974 68.26501-108.833 25.5465-35.009 53.4051-68.062 82.8161-98.261 30.479-31.309 62.982-59.895 96.602-84.961 35.031-26.112 71.891-48.92 109.555-67.7895 11.527-5.7753 25.548-1.1124 31.322 10.4121 5.774 11.5244 1.112 25.5484-10.413 31.3214-35.22 17.646-69.728 39.003-102.564 63.481-31.652 23.596-62.288 50.547-91.058 80.101-27.88 28.626-54.303 59.98-78.538 93.192-24.7801 34.036-46.5556 68.74-64.7059 103.127-4.1832 7.924-12.2823 12.449-20.6604 12.449" fill="#fdda24"/><path d="m104.149 314.389c-3.702 0-7.4258-1.228-10.52-3.747-7.1379-5.815-8.2098-16.316-2.3958-23.455 9.0558-11.115 18.3708-21.762 25.4748-29.797l.126-.142c9.749-10.777 18.039-19.778 26.812-28.677 18.036-18.55 37.371-36.635 57.392-53.671 40.538-34.603 84.196-64.753 129.739-89.5942 46.725-25.5123 95.995-45.6237 146.434-59.7726 49.88-14.0364 102.354-22.61975 155.952-25.5087466 9.2-.4887004 17.048 6.5555966 17.544 15.7500466.496 9.1935-6.555 17.0487-15.749 17.5437-51.153 2.7567-101.192 10.9377-148.728 24.3144-48.032 13.4739-94.956 32.6304-139.481 56.9404-43.529 23.743-85.275 52.577-124.084 85.703-19.244 16.376-37.807 33.737-55.194 51.62-8.417 8.539-16.414 17.222-25.848 27.65-6.887 7.792-15.887 18.081-24.538 28.701-3.296 4.044-8.096 6.142-12.936 6.142" fill="#9063cd"/><path d="m1577.11 225.743h-.07l-5.44-.013c-8.97-.018-18.25-.037-27.55-.351-8.86-.142-17.66-.564-26.18-.971-2.25-.108-4.51-.217-6.76-.32l-.37-.019c-25.33-1.554-46.33-3.396-66.08-5.799-23.49-2.87-44.95-6.092-65.61-9.853-21.43-3.933-43.24-8.532-64.85-13.674-39.27-9.44-80.85-21.352-127.16-36.428-29.28-9.508-58.88-19.705-87.5-29.567-12.31-4.24-24.63-8.486-36.98-12.697-12.2-4.159-18.72-17.422-14.56-29.6215 4.16-12.2013 17.42-18.72 29.62-14.5593 12.4 4.2264 24.77 8.4879 37.13 12.7449 28.43 9.7947 57.82 19.9229 86.72 29.3099 45.15 14.697 85.57 26.28 123.59 35.418 20.77 4.945 41.78 9.375 62.38 13.155 19.73 3.591 40.3 6.679 62.86 9.435 18.75 2.281 38.81 4.039 63.12 5.532 2.23.103 4.46.209 6.69.316 8.59.413 16.7.801 24.88.927l.44.011c8.62.296 17.19.314 26.26.331l5.5.014c12.89.043 23.31 10.526 23.26 23.417-.04 12.863-10.48 23.261-23.34 23.262" fill="#ff7f41"/><path d="m496.809 80.4521c-8.823 0-16.902-5.8833-19.305-14.8104-2.872-10.6686 3.449-21.6459 14.118-24.5178 104.489-28.1268 222.258-30.8808 350.031-8.1864 10.878 1.9323 18.131 12.3165 16.198 23.1948-1.932 10.8783-12.319 18.126-23.195 16.1991-121.946-21.6603-233.861-19.1601-332.635 7.4277-1.741.4689-3.491.693-5.212.693" fill="#f5b6cd"/><path d="m1253.18 200.742c-2.13 0-4.29-.292-6.44-.908-49.23-14.107-97.81-30.62-147.4-47.715l-5.48-1.888c-45.33-15.622-92.2-31.778-138.488-45.358-12.369-3.627-19.455-16.5956-15.827-28.9643 3.629-12.3705 16.601-19.4535 28.966-15.8265 47.329 13.8843 94.729 30.2202 140.559 46.0178l5.48 1.887c48.97 16.884 96.92 33.182 145.05 46.974 12.39 3.551 19.56 16.475 16.01 28.866-2.94 10.242-12.28 16.915-22.43 16.915" fill="#00c389"/><path d="m1507.28 362.114c-.91 0-1.82-.031-2.75-.094-51.14-3.469-104.09-10.868-157.36-21.992-47.66-9.92-97.69-23.249-152.91-40.743-21.07-6.674-32.73-29.16-26.06-50.227 6.68-21.063 29.17-32.731 50.23-26.057 52.61 16.667 100.06 29.323 145.07 38.69 49.7 10.379 98.97 17.272 146.45 20.491 22.04 1.495 38.7 20.58 37.21 42.627-1.43 21.124-19.02 37.305-39.88 37.305" fill="#f5b6cd"/><path d="m1585.51 415.78c-24.46.001-49.64-.742-74.87-2.209l-.23-.014c-24.69-1.558-50.12-3.955-75.57-7.127l-.36-.048-19-2.528-17.9-2.728c-4.48-.658-8.7-1.395-12.79-2.106-1.99-.346-3.98-.693-5.97-1.024l-.41-.071c-.98-.172-1.96-.337-2.94-.504-2.21-.374-4.42-.752-6.62-1.165l-9.05-1.72c-25.32-4.814-41.95-29.249-37.14-54.576 4.82-25.326 29.25-41.957 54.58-37.141l8.96 1.703c1.57.295 3.23.575 4.89.857 1.08.184 2.16.366 3.23.554 2.17.361 4.34.738 6.5 1.116 3.67.639 7.14 1.244 10.41 1.723l17.87 2.721 17.46 2.318c23.48 2.922 46.9 5.13 69.62 6.566 23.64 1.372 47.17 2.053 70.06 2.045 3.77-.019 7.54-.08 11.3-.14 2.14-.034 4.27-.068 6.4-.095l8.57-.142 8.59-.314c2.18-.087 4.36-.164 6.54-.24 3.8-.133 7.4-.259 10.9-.44l18.5-1.081c3.72-.183 7.69-.506 11.89-.85 1.6-.129 3.19-.26 4.79-.384 2.19-.188 4.4-.36 6.59-.531 3.7-.286 7.19-.558 10.44-.904 2.81-.29 5.5-.563 8.2-.837 9.33-.943 18.13-1.835 26.8-2.99l.73-.092c23.3-2.732 47.15-6.609 69.45-10.396 44.53-7.971 90.72-18.488 137.31-31.259 24.86-6.816 50.54 7.815 57.36 32.676 6.82 24.864-7.81 50.544-32.68 57.36-49.37 13.534-98.41 24.692-145.77 33.161l-.4.07c-23.48 3.988-48.69 8.088-74.04 11.069-10 1.325-19.84 2.322-29.36 3.286-2.62.264-5.23.529-7.85.801-4.45.473-8.77.809-12.96 1.133-2.01.157-4.01.311-6.02.485l-.4.032c-1.53.118-3.06.243-4.59.369-4.69.384-9.55.779-14.7 1.036l-18.28 1.07c-4.34.226-8.56.374-12.64.517-2.06.072-4.11.144-6.17.226l-.16.006-10.05.358-9.3.154c-2.07.026-4.13.06-6.2.092-4.14.067-8.28.132-12.43.151l-.19.001z" fill="#00c389"/><path d="m958.094 270.341c-4.709 0-9.495-.717-14.221-2.228-75.038-23.981-136.339-38.058-192.916-44.3l-.563-.066c-2.068-.254-4.405-.473-6.879-.705-1.637-.153-3.273-.307-4.907-.473-3.944-.391-7.618-.753-10.968-.959l-.491-.031-12.221-.873-17.922-.806-5.706-.096c-1.6-.022-3.201-.051-4.801-.084-2.307-.044-4.614-.091-6.919-.095-2.024.031-4.049.054-6.074.076-6.074.071-11.81.135-17.176.438l-1.262.054c-5.619.165-11.56.606-17.851 1.071-1.745.129-3.489.258-5.234.383-2.33.213-4.657.458-6.983.702-1.535.16-3.07.322-4.605.475-.839.091-1.679.176-2.519.259-.834.082-1.668.156-2.497.267l-15.089 2.015-14.388 2.358c-1.465.284-2.931.564-4.397.844-6.351 1.216-12.349 2.363-17.952 3.698-25.071 5.982-50.253-9.503-56.232-34.58-5.978-25.078 9.503-50.254 34.582-56.232 7.647-1.823 14.974-3.225 22.061-4.581 1.608-.308 3.217-.616 4.826-.927l1.35-.242 17.063-2.777 15.807-2.111c2.144-.287 4.091-.48 5.655-.635.594-.059 1.186-.117 1.778-.182l.451-.047c1.46-.146 2.919-.299 4.378-.452 2.924-.306 5.847-.61 8.777-.874l.887-.072c1.796-.126 3.589-.259 5.384-.392 6.841-.507 13.908-1.03 21.372-1.266 7.238-.391 14.108-.47 20.758-.544 2.012-.025 4.025-.046 6.036-.079l.757-.006c3.018.001 6.036.056 9.055.114 1.445.028 2.891.056 4.335.074l7.812.15 20.534.938 12.583.899c5.044.312 9.729.776 14.264 1.226l.219.021c1.389.143 2.779.273 4.168.403 2.796.262 5.955.557 9.247.956 62.835 6.955 129.839 22.255 210.833 48.139 24.556 7.848 38.097 34.117 30.257 58.674-6.341 19.83-24.695 32.481-44.456 32.481" fill="#59cbe8"/><path d="m1104.68 260.27c-3.65 0-7.37-.603-11.01-1.875-7.46-2.609-14.94-5.232-22.42-7.856-41.48-14.553-84.371-29.602-127.208-42.804-56.404-17.392-106.23-29.37-152.335-36.619-18.191-2.861-30.619-19.926-27.758-38.116 2.861-18.192 19.921-30.623 38.117-27.759 49.282 7.749 102.148 20.431 161.62 38.769 44.064 13.578 87.564 28.843 129.644 43.604 7.46 2.617 14.9 5.229 22.34 7.83 17.39 6.075 26.55 25.092 20.48 42.476-4.8 13.743-17.7 22.35-31.47 22.35" fill="#fdda24"/><path d="m228.896 369.062c-11.919 0-23.839-4.536-32.95-13.616-18.26-18.197-18.311-47.752-.113-66.014 29.372-29.475 60.635-56.298 92.917-79.723 33.804-24.541 69.535-45.93 106.194-63.569 19.513-9.368 38.854-17.566 57.524-24.383 19.336-7.086 39.359-13.357 59.464-18.622l7.187-1.84c2.805-.726 5.581-1.4333 8.665-2.0993l15.246-3.4092 14.003-2.7252c3.224-.6552 6.247-1.1574 8.802-1.5651l15.558-2.5092 7.517-1.0044c1.366-.1719 2.731-.3591 4.096-.5463 3.468-.4734 7.389-1.0089 11.618-1.3959l15.489-1.5723 14.422-1.0521c25.709-1.8612 48.076 17.447 49.953 43.159 1.876 25.711-17.447 48.076-43.159 49.951l-13.735 1.003-14.317 1.467c-2.196.197-4.842.558-7.643.941-1.611.219-3.225.439-4.839.644l-6.407.858-13.754 2.236c-1.632.259-3.514.568-5.095.893l-.46.092-13.551 2.637-13.946 3.134c-1.411.302-3.145.746-5.101 1.254l-7.041 1.801c-17.205 4.509-34.33 9.875-50.901 15.947-15.879 5.799-32.401 12.808-49.154 20.85-31.598 15.205-62.496 33.709-91.796 54.981-28.286 20.525-55.746 44.098-81.628 70.069-9.119 9.15-21.092 13.728-33.065 13.729" fill="#ff7f41"/><path d="m138.546 547.66c-5.475 0-11.024-1.35-16.15-4.194-16.101-8.936-21.909-29.233-12.974-45.334 11.99-21.603 26.029-43.839 41.729-66.092 15.193-21.492 31.37-42.191 48.098-61.544 34.963-40.502 73.222-76.502 113.698-106.986 14.71-11.077 35.615-8.135 46.693 6.575s8.134 35.614-6.575 46.693c-36.695 27.635-71.468 60.375-103.352 97.309-15.331 17.738-30.161 36.716-44.092 56.421-14.305 20.277-27.06 40.468-37.892 59.983-6.091 10.976-17.461 17.169-29.183 17.169" fill="#9063cd"/><path d="m1633.93 356.96c-17.72 0-32.48-13.957-33.28-31.842-.83-18.396 13.41-33.98 31.81-34.809 72.02-3.246 148.15-13.934 226.27-31.771 36.08-8.24 73.62-18.244 111.59-29.734 34.72-10.533 70.7-22.693 109.97-37.17 17.27-6.369 36.44 2.47 42.81 19.749 6.37 17.277-2.47 36.447-19.75 42.818-40.5 14.933-77.69 27.501-113.7 38.422-39.45 11.94-78.5 22.344-116.08 30.926-82 18.724-162.12 29.952-238.11 33.377-.51.022-1.02.034-1.53.034" fill="#fdda24"/></g></svg>